<?xml version="1.0" encoding="UTF-8"?>
<svg id="Layer_2" data-name="Layer 2" xmlns="http://www.w3.org/2000/svg" viewBox="0 0 126.96 55.12">
  <g id="objects">
    <g>
      <g>
        <g>
          <path d="m106.54,8.66c-13.71-1.72-25.72,5.28-36.91,11.71-7.65,4.4-15.4,8.04-23.89,10.52-7.83,2.28-16.12,5.26-24.62,3.91-.42-.07-1.32.53-1.44.5,6.64,1.57,13.28-.62,19.43-2.24,6.91-1.82,13.8-3.77,20.3-6.74,15.1-6.91,28.7-19.49,46.69-17.49.14.02.39-.17.45-.17Z"/>
          <path d="m36.08,54.33c-5.23,1.2-10.71-.42-15.81-2.89-4.72-2.29-9.41-5.47-12.66-10.12-1.57-2.24-2.42-4.72-3.55-7.19-.34-.76-.7-1.52-1.13-2.23-.56-.94-1.18-1.01-.34-1.79.93-.87,2.47.31,3.53.87,4.52,2.38,9.32,3.85,14.13,3.92.22,0,.69-.3.77-.29-4.53-.61-8.86-1.71-13.14-3.96-2.8-1.47-5.48-2.37-7.88-.34,0,.01,0,.03-.02.04,3,3.42,3.91,8.33,6.8,11.95,2.67,3.35,6.08,5.9,9.59,7.94,6.19,3.59,13.18,5.97,19.67,4.18.15-.04.28-.15.03-.09Z"/>
          <path d="m67.57,45.1c11.62-5.47,23.08-10.98,33.22-19.17.01-.01-.09,0-.12.02-9.57,7.22-19.91,12.57-30.67,17.59-5.7,2.66-11.38,5.27-17.4,7.15-6.2,1.94-12.57,3.11-19.05,4.02-.18.02-1.32.44-.8.4,12.2-.98,23.92-4.89,34.82-10.02Z"/>
          <path d="m106.52,11.4c-1.21.33-2.43.63-3.63,1.01-.11.03-.09.07.01.04,1.22-.28,2.42-.66,3.63-1,.19-.05.17-.11-.02-.06Z"/>
          <path d="m105.86,12.33c.3-.13-.19-.04-.28,0-.51.22-1.04.4-1.52.66-.15.08.18.02.21,0,.54-.19,1.06-.44,1.59-.66Z"/>
          <path d="m109.88,12.98s-.04,0-.04.01c0,0,.04,0,.04-.01Z"/>
          <path d="m118.18,10.06s-.17,0-.19.05c-.56,1.25-1.41,2.25-2.7,2.57-.03,0-.19.07-.06.05,1.37-.22,2.63-1.14,2.96-2.68Z"/>
          <path d="m117.12,10.13s-.16,0-.19.05c-.61.89-1.41,1.51-2.43,1.78-.09.03-.34.15-.09.11,1.16-.18,2.16-.82,2.71-1.94Z"/>
          <path d="m28.23,35.87c.8.24,1.48.64,2.07,1.32.37.42.64.85.88,1.35.12-1.19-1.1-2.38-2.15-2.87,1.03-.19,2.06-.4,3.11-.61,10.47-2.06,20.8-4.59,30.63-8.63.1-.04-.05-.02-.08,0-10.18,3.81-20.6,6.54-31.33,8.61-.93.18-1.84.34-2.74.48-.06-.02-.11-.03-.16-.04-.08-.02-.32.07-.52.15-4.14.6-8.16.69-12.59-.55-4.4-1.24-8.79-3.81-13.28-4.02-.2,0-.87.3-.75.31,2.95.12,5.73,1.38,8.58,2.43,2.62.97,5.26,1.82,7.94,2.33,3.05.58,5.94.41,8.81-.02.46-.25,1.09-.35,1.57-.21Z"/>
          <path d="m37.18,36.44c.11-.7-.39-1.48-.73-2.09-.06-.11-.79.13-.76.22.21.7.43,1.54,1,2.01.07.06.48-.05.49-.14Z"/>
          <path d="m43.9,32.11c-.05.03-.09.05-.1.08-.27.85-.13,2.34.62,2.99.06.05.29.02.49-.05-.63-.85-.98-1.92-1.01-3.02Z"/>
          <path d="m53.2,32.89c-.06-1.47.21-2.71,1.23-3.6-.01.01-.22.03-.28.06-1.06.61-1.82,2.21-1.16,3.6.01.03.21-.03.21-.06Z"/>
          <path d="m62.97,30.15c-.46-.57-.99-.94-1.34-1.63-.34-.66-.52-1.33-.36-2.02,0,0-.04,0-.05.01-.44,1.28-.27,3.28,1.24,3.8.07.03.53-.14.51-.16Z"/>
          <path d="m53.76,34.43c.23-1.21,1-1.99,1.93-2.57.03-.02-.14,0-.17.02-.51.27-.97.63-1.35,1.08-.31.37-.76.92-.55,1.5,0,.02.13-.02.14-.04Z"/>
          <path d="m117.07,24.41c-2.53-1.6-4.46-5.48-3.26-8.29,0,0-.53.02-.61.14-1.17,1.82-.35,4.46,1.07,6.41-.99-.79-1.81-1.76-2.19-3.08-.71-2.49.33-4.85.24-7.29,0-.04-.66.07-.7.18-.43,1.17-.84,2.58-.98,4.02-.49.62-.99,1.22-1.42,1.87-1.44,1.44-3.23,2.25-4.79,3.55-1.03.86-1.84,2.03-2.65,3.15.02-.09.05-.18.08-.29.35-1.24.59-2.49,1.23-3.59,1.9-3.28,7.25-4.18,7.41-8.73.11,0,.22.01.34,0,1.09-.06,2.14-.58,3.02-1.17.11-.07-.54.04-.64.09-2.6,1.32-3.48-.13-5.21-2.03-1-1.11-2.03-1.36-3.22-2.12-1.71-1.1-2.29-3.2-1.13-4.86l.78-.76c.69-.25.84-.09.46.49.06.43-.17.97-.14,1.44.17,2.35,1.34,3.4,2.83,3.71.12.11.25.22.41.33.08.05.57-.15.55-.17-.01-.02-.02-.03-.03-.05,1.74.04,3.7-.68,4.98-1.43,1.83.66,3.93,1.99,4.75,3.93,1.39,3.29-2.71,4.11-4.56,5.02-.29.14.33.03.4,0,1.25-.4,3.95-1.08,5.07-2.52,1.22.84,2.46,1.57,3.58,2.6.58.54,1.55,2.1,2.22,2.33.89.3,1.62-1.05,2.03-1.56,0,0,0-.01,0-.02-1.91-2.69-4.43-4.71-7.39-5.32-.47-2.59-3.7-4.08-5.87-4.61.07-.04.14-.09.21-.13.05-.04-.26.02-.3.04-.03.01-.06.03-.08.04-.17-.04-.33-.07-.49-.1-.06,0-.2.08-.21.07.15.04.3.09.46.15-1.6.79-3.51,1.58-5.16.8-.55-1.29-.3-2.56.34-3.8,1.33-2.55,4.25-2.88,6.83-1.87.08.03.36-.12.35-.12-1.83-1.26-4.11-1.04-5.82-.09-1.21.68-3.04,2.95-2.97,4.85-.07-.09-.15-.17-.22-.27-.95-1.32-1.19-3.04-.61-4.43.03-.07-.34.01-.36.02-1.4.38-2.81,1.06-3.28,2.68-.81,2.81,1.49,3.61,3.25,4.76.43.28.79.64,1.14,1.03-6.67-1.01-13.65.59-19.67,2.84-3.15,1.18-6.19,2.62-9.11,4.31-3.92,2.26-7.49,5.08-11.55,7.07-.19.09.27,0,.31-.02,2.42-.97,4.68-2.29,6.9-3.71.13.22.28.44.4.67.19.36.32.78.58,1.09.05.06.4-.05.41-.12.08-.65-.4-1.48-.91-1.95.07-.04.14-.09.21-.13.88,1.32,2.13,1.48,3.45,1.56,1.69.11,3.08.52,4.4,1.92.38.41.72.84,1.02,1.28.2.4.42.8.66,1.17,1.07,2.27,1.13,4.83.12,7.11-1.85,4.19-6.88,2.83-9.08-.91-.08-.13-.15-.27-.22-.41-.03-.06-.06-.12-.1-.18-1.34-2.73-1.14-5.88-.25-8.51,0,0-.08,0-.09.02-1.01,2.05-1.38,4.49-.76,6.87-1.18-1.38-2.74-2.41-4.3-3.09-1.15-.51-2.22-.63-3.32-.24-.56.2-1.05.52-1.52.89-.5.4-1.05,1.14-1.8.94-.48-.13-.83-.48-.96-.99,0-.03-.28.03-.27.08.19.9.99,1.17,1.68,1.01.42-.1.75-.33,1.09-.59,1.28-.96,2.54-1.81,4.27-1.18,2.07.75,4.18,2.22,5.47,4.24.06.16.13.32.21.48.16.34.34.67.53.98.22.57.38,1.17.45,1.8.5,4.2-3.16,8.96-7.26,6.47-1.56-.95-2.85-2.61-3.54-4.41-.68-1.77-.52-3.83-1.62-5.43-.03-.04-.29.05-.28.08.55,1.39.68,2.84,1.04,4.26-.32-.45-.65-.89-.99-1.3-1.01-1.24-2.23-2.29-3.71-2.46-1.28-.15-2.35.6-3.55.76.03-.01.07-.02.1-.03.06-.02.12-.07.01-.04-.1.03-.22.06-.33.1,0,0,0,0-.01,0-.06,0-.12,0-.18,0,.05-.02.09-.05.11-.05-.59-.08-1.09.1-1.46.53,0,0,0,0,0,0-.06.08-.13.16-.18.26,0-.01.27,0,.32-.08.14-.19.41-.3.73-.38-.6.34-1.13.86-1.05,1.59,0,.01.12-.02.13-.03.3-.73.63-1.26,1.19-1.61.59-.1,1.28-.13,1.71-.33,1.04-.46,1.98-.8,3.14-.37.86.32,1.66.91,2.34,1.6.72.74,1.35,1.65,1.91,2.6.03.09.05.18.09.27.31.84.73,1.63,1.25,2.34.57,1.36.91,2.84.64,4.24-.48,2.48-2.86,4.03-5.14,3.9-1.66-.1-3.5-1.55-4.79-2.74-2.76-2.53-2.76-6.01-1.87-9.21,0,.01-.19,0-.21.06-1.42,3.18-1,7.06,1.92,9.54,1.22,1.03,2.79,2.25,4.28,2.46,1.02.15,2.08-.11,3-.48,2.71-1.07,3.87-3.76,2.8-7,.33.36.68.7,1.06,1,1.87,1.48,3.97,1.44,5.77.4,2.29-1.32,3.55-4.17,2.95-7.18-.01-.06-.03-.12-.04-.17,1.29,1.54,3.05,2.52,4.91,2.41,1.91-.1,3.51-1.14,4.28-3.02.75-1.83.85-3.79.29-5.66,1.88,2.14,4.54,3.26,7.01,2.56,2.51-.71,4.14-3.31,3.28-6.34-.2-.71-.5-1.42-.86-2.1,1.7,1.22,3.81,1.16,5.6.48,2.42-.92,4.65-2.7,3.84-6.01-.69-2.82-2.93-4.88-5.41-5.4,2.76-.32,5.58-.42,8.49-.33.02,0,.06-.02.08-.03.23.27.45.54.67.82-1.79.19-3.56.5-5.29.93-.07.02-.2.09-.04.05,1.77-.4,3.55-.72,5.36-.96.76.96,1.5,1.89,2.62,2.13-.65,3.61-3.54,4.76-5.91,6.76-1.1.93-1.95,2.04-2.43,3.52-.45,1.41-.47,2.98-1.5,4.02.03-.03.46-.02.58-.12,1.98-1.63,3.08-4.08,5.23-5.55.97-.67,1.88-1.27,2.72-1.95-.27.49-.5,1.02-.65,1.61-.44,1.75-.41,3.57-1.48,5-.02.02-.01.03.01.04.58.13,1.03.06,1.51-.29,1.29-.95,2.38-3.1,3.06-4.92,1.04,2.1,3.22,3.21,5.07,4.14.19.09.77-.27.77-.27Zm6.19-11.49c1.25.99,3.43,2.59,2.2,3.97-.41-.34-.82-.99-1.14-1.33-.47-.49-.97-.95-1.49-1.38-.99-.82-2.04-1.54-3.18-2.02-.09-.04-.32.07-.45.13.29-.4.46-.85.44-1.37,0-.03,0-.05,0-.07,1.27.55,2.49,1.14,3.64,2.06Zm-43.76,8.14c-1.7-.31-3.79.18-5.08-1.63,0,0-.01,0-.02,0,1.91-1.24,3.8-2.51,5.76-3.67,0,0,0,.01.03,0,2.59-.32,1.74,3.35,1.92,4.87.09.77.27,1.54.53,2.29-.88-.95-1.95-1.65-3.14-1.87Zm23.46-7c.43,1.07.59,2.3.41,3.39-.26,1.57-1.24,2.43-2.45,3.12-2.46,1.39-5.33,1.33-7.31-.81-.34-.54-.7-1.06-1.07-1.54-.03-.07-.07-.12-.11-.19-.54-1.09-.97-2.42-1-3.62-.03-1.44.8-2.49,1.57-3.46,0,.01-.16,0-.2.05-1.08,1.18-1.95,2.38-1.65,4.26.1.64.28,1.3.51,1.93-.99-1.04-2.15-1.76-3.47-2.06-1.24-.28-2.49-.21-3.65.11-.5.14-.97.45-1.47.56-.76.17-1.54-.43-2.35-.3-.06,0-.31.11-.13.09.81-.12,1.34.53,2.07.45.4-.05.8-.33,1.16-.48,1.84-.76,4.14-.67,6.03.48.82.5,1.57,1.25,2.23,2.1.29.58.63,1.13,1.03,1.62.07.08.14.15.21.23.25.43.48.86.69,1.28.95,1.9,1.21,3.96.26,5.71-2.6,4.8-8.56,1.4-10.61-2.83-.94-1.94-1.16-3.9-1.11-5.96.04-1.51-.76-2.7-2.19-2.49-.02,0-.09.03-.14.05,1.08-.64,2.17-1.24,3.3-1.78,4.64-2.19,9.38-3.51,14.32-4.11,2.1.42,4.22,1.96,5.12,4.22Zm4.84,11.23s.98-3.95,1.03-4.24c.19-1.15.5-2.11,1.12-3.01.22-.22.43-.46.63-.7-.02.81.07,1.61.31,2.37-.5,1-3,5.72-3.09,5.59Z"/>
          <path d="m53.33,39.92c-.09-1.85-2-3.79-3.49-4.46-.86-.39-1.73-.42-2.61-.5-.77-.07-1.54-.05-1.92-.98-.23-.56-.08-1.15-.3-1.69,0,0-.03,0-.03,0-.4.74-.26,2.14.63,2.57.94.45,2.13.21,3.1.47,1.02.28,2.02.9,2.78,1.76.78.89,1.04,1.87,1.54,2.91.02.04.31-.04.3-.09Z"/>
          <g>
            <path d="m44.27,36.77c.32-.3.87-.91,1.44-1.22-.61.22-1.38.63-1.67,1.27,0,0,.19-.02.23-.05Z"/>
            <path d="m46.79,35.49s.16-.04.15-.05c-.12-.19-.43-.16-.72-.08.2-.03.39,0,.56.12Z"/>
            <path d="m46.23,35.37c-.17.02-.35.09-.52.18.01,0,.02,0,.03-.01.1-.04.29-.11.49-.17Z"/>
          </g>
          <path d="m53.99,47.69c.42-1.29.38-2.89.16-4.28,0-.01-.21.02-.21.06.06,2.21.17,4.92-1.78,5.95-2.3,1.22-4.02.31-5.9-1.62-1.5-1.54-2.27-3.16-2.78-5.26-.46-1.87-1-4.43.69-5.49.01,0,.02-.01.02-.03-.82-.64.27-1.49.4-2.13,0,0-.28.03-.31.08-.23.38-.74.82-.83,1.29-.08.41.25.66.12,1.01-.06.16-.46.47-.57.64-.1.17-.19.37-.25.56-.22.67-.21,1.4-.1,2.13.22,1.52.67,3.26,1.32,4.67.64,1.41,1.75,2.59,2.89,3.54,1.69,1.42,3.18,1.58,4.94.85.96-.4,1.83-.86,2.2-1.99Z"/>
          <path d="m37.78,36.77l.07-.09s0-.01,0-.01c-.66-.25-1.69-.08-2.16.43,0,0,.19-.02.23-.05.44-.26.9-.39,1.43-.32.03,0,.39,0,.41.02-.01,0-.08.02-.08.02,0,0,0,.01.01.02.01.01.08-.01.09-.02Z"/>
          <path d="m42.82,41.28c-1.63-2.97-4.78-5.17-7.53-3.57-.06.04.31-.02.38-.05.12-.06.24-.09.35-.13.28-.03.69-.09,1.05-.13.2.02.41.05.62.11.07.02.18-.03.28-.08,1.78.48,3.32,2.11,4.28,3.83,2.07,3.72,1.49,8.33-1.64,10.4-.04.03.27-.02.33-.06,3.24-1.9,3.93-6.58,1.89-10.31Z"/>
          <path d="m40.8,51.67c-3.86,1.25-7.73-1.09-8.67-5.73-.66-3.26.5-6.38,2.95-7.93.02-.01-.14.01-.17.03-3.23,1.87-4.26,6.29-2.51,10.22,1.64,3.71,5.55,4.56,8.54,3.42.17-.07-.08-.03-.13-.02Z"/>
          <path d="m30.95,41.4c.2-.38.31-.82.37-1.27.06-.42.13-1.07-.1-1.47,0-.02-.1.01-.11.03-.12.43-.06.95-.14,1.41-.08.5-.26.93-.42,1.39,0,0,.35,0,.4-.1Z"/>
          <path d="m30.35,37.59s-.17,0-.19.05c-.41.61-.89,1.1-1.58,1.32-.24.08-.09.11.08.06.72-.21,1.4-.64,1.69-1.43Z"/>
          <path d="m30,38.85s-.17.03-.19.05c-.15.14-.29.29-.46.41-.14.1-.29.15-.43.23-.11.06.05.04.09.03.33-.07.91-.31.99-.71Z"/>
          <path d="m30.63,49.08c1.8-2.56,1.65-7.1-1.53-8.94-.06-.04-.28.1-.29.09,2.2,1.88,3.14,4.87,2.13,7.51-.54,1.43-1.53,2.53-2.75,3.25-1.65.97-4.09,1.47-6,.37-2.41-1.39-3.31-5.13-2.68-7.64,1.05-4.13,5.07-5.32,8.77-4.62.07.01.21-.08.23-.08-4.78-1.22-10.66,1.84-9.58,8.02.56,3.22,2.79,5.22,5.65,5.08,2.3-.11,4.68-1.09,6.06-3.04Z"/>
          <path d="m38.28,38.04c-1.47-.2-3.1.06-4.01,1.33,0,0,.06,0,.08-.02,1-1.09,2.36-1.4,3.81-1.26.04,0,.11-.05.12-.05Z"/>
          <path d="m43.3,32.99c-2.16.58-4.34,1.13-6.51,1.66-.08.02-.22.1-.05.06,2.2-.52,4.4-1.09,6.57-1.71.06-.02.06-.04,0-.02Z"/>
          <path d="m41.62,34.03c-1.48.45-2.99.78-4.51,1.09-.03,0-.19.07-.08.05,1.57-.24,3.1-.65,4.61-1.1.13-.04.12-.08-.01-.04Z"/>
          <path d="m39.57,35.13c-.65.2-1.3.37-1.96.53-.09.02-.25.11-.06.07.69-.16,1.37-.36,2.04-.59.05-.02.02-.02-.02-.01Z"/>
          <path d="m39.01,35.72c.08-.04-.12,0-.15.02-.28.14-.56.2-.87.25-.02,0-.18.06-.13.07.4.01.82-.15,1.15-.33Z"/>
          <path d="m52.07,30.68c-2.13.78-4.27,1.48-6.45,2.14-.09.03-.17.09-.02.05,2.21-.58,4.4-1.31,6.51-2.19.05-.02-.02-.01-.04,0Z"/>
          <path d="m48.24,32.75s-.04,0-.04.01c0,0,.04,0,.04-.01Z"/>
          <path d="m48.07,33.38c-.54.2-1.09.36-1.65.52-.14.04-.26.13-.03.08.61-.13,1.2-.34,1.77-.59.11-.05-.05-.02-.09-.01Z"/>
          <path d="m52.96,45.8s-.05,0-.05.02c.53,2.2-1.66,3-3.14,3.31-.02,0-.11.04-.05.03,1.56-.26,3.93-1,3.24-3.36Z"/>
          <path d="m52.14,47.59s-.1,0-.12.03c-.68.57-1.45.91-2.32,1.07-.01,0-.1.04-.05.03.94-.11,1.79-.51,2.5-1.13Z"/>
          <path d="m52.72,48.4s-.14,0-.18.04c-.57.59-1.23.93-2.03,1.08-.02,0-.13.05-.07.04.88-.09,1.67-.52,2.28-1.17Z"/>
          <path d="m43.25,41.09c-.31-2.34.99-3.79,2.73-4.65.03-.02-.05,0-.06,0-1.6.74-3.51,2.34-2.73,4.66,0,0,.07,0,.07-.02Z"/>
          <path d="m43.95,41.71c-.71-2.32.38-4.16,2.28-4.87.06-.02,0-.02-.03,0-1.75.61-3.5,2.6-2.33,4.89,0,.01.07-.01.07-.02Z"/>
          <path d="m48.12,48.11c-2.06-1.29-3.63-3.2-4.36-5.68,0,0-.08,0-.07.02.61,2.47,2.16,4.63,4.33,5.69.02.01.1-.03.1-.03Z"/>
          <path d="m64.31,42.7s-.06,0-.07.02c-.76,1.84-3.21,2.6-4.95,2.29-.03,0-.09.03-.09.03,1.78.45,4.49-.47,5.12-2.34Z"/>
          <path d="m64.02,44.41s-.11,0-.14.02c-1.11.68-2.19,1.29-3.59,1.22-.04,0-.13.06-.14.05,1.44.23,2.74-.57,3.86-1.3Z"/>
          <path d="m59.76,32.45c-1.45-1.63-3.85-.63-4.85.72,0,0,.1,0,.12-.03,1.22-1.32,3.04-2.03,4.66-.68.01.01.07-.02.07-.02Z"/>
          <path d="m58.6,32.17c-1.21-.25-2.57.1-3.31,1.12,0,0,.1,0,.13-.03.82-.83,1.85-1.26,3.05-1.04.04,0,.13-.05.14-.05Z"/>
          <path d="m56.79,43.49c-1.42-1.47-2.52-2.97-2.73-5.1-.16-1.59-.33-3.54.68-4.7,0,0-.07,0-.09.02-1.02,1.09-.94,2.8-.83,4.36.16,2.3,1.26,3.91,2.89,5.43.02.02.08-.03.08-.02Z"/>
          <path d="m57.62,43.71c-.8-.8-1.63-1.52-2.2-2.56,0-.01-.07.01-.06.02.53,1.05,1.33,1.85,2.2,2.56.01.01.06-.02.06-.02Z"/>
          <path d="m58.55,45.21c-.36-.27-.75-.48-1.12-.75-.05-.04-.18.07-.2.06.37.3.76.57,1.19.74.03.01.12-.04.13-.04Z"/>
          <path d="m55.2,42.25c-1.02-1-1.47-2.35-1.82-3.72,0,0-.09.01-.08.02.33,1.4.65,2.82,1.82,3.72.02.02.09-.03.09-.03Z"/>
          <path d="m53.86,42.87c-.47-2.89-2.74-6.72-5.65-6.98-.03,0-.07.03-.08.03,2.95.41,4.97,4.09,5.68,6.96,0,0,.05,0,.05-.02Z"/>
          <path d="m45.97,43.82c-.73-1-1.31-2.18-1.5-3.42-.29-1.92,1.42-3.1,2.79-3.59.05-.02,0-.01-.02,0-1.08.36-2.24,1.04-2.75,2.19-.62,1.41.42,3.73,1.4,4.85.01.01.08-.02.08-.02Z"/>
          <path d="m47.35,46.48c-1.5-1.07-2.66-2.63-3.12-4.52,0,0-.04,0-.04.01.43,1.94,1.47,3.57,3.12,4.52,0,0,.04-.01.04-.01Z"/>
          <path d="m49.19,49.54c-1.23-.49-2.25-1.43-3.19-2.46-.02-.02-.1.03-.1.03.93,1.06,1.89,2.1,3.19,2.46.03,0,.09-.03.09-.03Z"/>
          <path d="m51.27,47.34c.21-.1.39-.21.45-.47,0,0-.04,0-.04.01-.11.4-.55.49-.87.62-.25.1-.51.2-.76.29-.06.02.03.01.05,0,.39-.13.79-.28,1.17-.46Z"/>
          <path d="m40.69,40.09s-.01-.04-.02-.06c0,0-.05,0-.04.01,0,.02.02.04.03.05,0,0,.04,0,.04-.01Z"/>
          <path d="m35.65,34.97c-1.26.02-2.51.1-3.76.24-.02,0-.11.04-.07.03,1.21-.1,2.43-.16,3.65-.21.04,0,.2-.07.17-.07Z"/>
          <path d="m35.7,35.46c-1.17.12-2.34.27-3.5.43-.02,0-.17.06-.1.05,1.17-.12,2.34-.27,3.5-.43.02,0,.17-.06.1-.05Z"/>
          <path d="m35.26,36.06c-1.28.18-2.57.33-3.84.54-.02,0-.16.06-.09.05,1.26-.14,2.52-.33,3.77-.51.04,0,.26-.09.16-.08Z"/>
          <path d="m35.37,36.7c-1.2.27-2.42.41-3.65.56-.03,0-.16.06-.13.06,1.26-.02,2.51-.27,3.72-.54.1-.02.27-.12.06-.07Z"/>
          <path d="m33.94,37.46s-.04,0-.04.01c0,0,.04,0,.04-.01Z"/>
          <path d="m41.83,34.62s-.04,0-.04.01c0,0,.04,0,.04-.01Z"/>
          <path d="m43.26,35.07c-1.44.3-2.88.58-4.31.9-.02,0-.12.05-.04.04,1.42-.27,2.82-.57,4.23-.85.05-.01.29-.12.12-.08Z"/>
          <path d="m42.8,35.73c-1.11.41-2.24.69-3.39.96-.03,0-.13.05-.05.04,1.21-.18,2.38-.55,3.51-.97.16-.06,0-.05-.08-.02Z"/>
          <path d="m43.05,36.25s-.1.02-.09.03c0,.01.1-.02.09-.03Z"/>
          <path d="m42.25,37.12s-.11,0-.12,0c-.06.01-.14.03-.18.07-.1.1-.18.16-.33.18-.03,0-.12.05-.12.05.27.03.56-.12.74-.31Z"/>
          <path d="m44.85,46.64c.13-.06-.08-.02-.12,0-.24.1-.48.18-.7.31-.02.01.06,0,.07,0,.26-.09.5-.2.75-.31Z"/>
          <path d="m45.3,47.11c-.46.12-.93.22-1.39.36-.07.02-.13.06-.01.04.46-.1.91-.23,1.36-.34.07-.02.18-.09.04-.05Z"/>
          <path d="m45.08,47.86c-.28.08-.57.16-.85.24-.03,0-.06.03,0,.02.29-.07.58-.15.86-.23.08-.02.07-.05,0-.03Z"/>
          <path d="m44.94,48.39s-.04,0-.04.01c0,0,.04,0,.04-.01Z"/>
          <path d="m45.55,49.13c-.67.15-1.34.28-2.01.45-.03,0-.15.06-.05.04.67-.13,1.34-.28,2.01-.43.08-.02.23-.1.05-.06Z"/>
          <path d="m46.45,49.8c-1.3.34-2.61.53-3.94.7-.02,0-.08.03-.07.03,1.35-.06,2.67-.33,3.96-.67.08-.02.22-.1.05-.06Z"/>
          <path d="m47.41,50.31c-1.57.43-3.17.72-4.8.94-.02,0-.12.04-.07.04,1.66-.16,3.29-.5,4.89-.94.12-.03.11-.07-.01-.04Z"/>
          <path d="m47.59,51.13c-2.27.68-4.59,1.05-6.97,1.27-.01,0-.06.02-.05.02,2.41-.11,4.76-.58,7.03-1.26.11-.03.11-.07-.01-.04Z"/>
          <path d="m39.7,53.2c-4.71.27-9.42.2-14.16.19-.03,0-.16.05-.13.05,4.74.39,9.53.16,14.2-.19.02,0,.15-.05.09-.05Z"/>
          <path d="m34.12,52.69c-2.83.07-5.68.05-8.52.06-.02,0-.12.04-.1.04,2.86.08,5.71,0,8.55-.07.02,0,.08-.03.07-.03Z"/>
          <path d="m31.64,52.17c-1.27.02-2.55,0-3.83-.04-.02,0-.12.04-.1.04,1.3.12,2.6.11,3.88.02.01,0,.06-.02.05-.02Z"/>
          <path d="m30.98,51.66s-.04,0-.04.01c0,0,.04,0,.04-.01Z"/>
          <path d="m43.05,46.04s-.09,0-.09.03c-.27,2.64-1.37,4.62-3.86,5.17-.01,0-.06.02-.02.02,2.25-.44,4.18-2.47,3.97-5.21Z"/>
          <path d="m41.26,49.4s-.05,0-.06.01c-1.23,1.24-2.86,1.55-4.57,1.16-.02,0-.08.03-.09.03,1.71.64,3.56.04,4.72-1.2Z"/>
          <path d="m32.59,46.51c-.43-1.23-.88-2.47-.56-3.72.34-1.33,1.2-2.28,2.04-3.21,0,0-.04,0-.05.01-1.83,1.89-2.98,3.97-1.51,6.94,0,.01.08-.01.08-.02Z"/>
          <path d="m39.78,51.44c-2.53.5-4.89-.81-6.47-3.24,0,0,0,0,0,0,1.31,2.62,4.02,3.85,6.43,3.27.02,0,.12-.05.04-.04Z"/>
          <path d="m35.85,50.26c-1.85-1.66-3.14-3.67-3.58-6.2,0,0-.04,0-.04.01.33,2.44,1.58,4.82,3.55,6.21.01.01.06-.02.07-.02Z"/>
          <path d="m42.99,44.5c-.37-2.48-1.92-4.72-3.91-6.03-.02-.02-.09.04-.1.03,1.99,1.51,3.23,3.55,3.93,6.02,0,0,.08,0,.08-.02Z"/>
          <path d="m42.47,46.51c.34-1.8-.46-3.47-1.46-5.01,0-.01-.05.01-.05.02.98,1.55,1.72,3.19,1.47,5,0,0,.03,0,.03,0Z"/>
          <path d="m33.03,44.83c-.25-1.19-.52-2.26,0-3.33.74-1.56,2.19-2.76,3.91-2.74.01,0,.05-.02.05-.02-1.05-.05-1.95.34-2.73,1.02-1.45,1.28-2.19,2.92-1.27,5.08,0,0,.05,0,.05-.01Z"/>
          <path d="m33.17,44.14c-.01-1.28.19-2.48.9-3.44,0,0-.02,0-.02,0-.77.87-1.25,2.14-.94,3.45,0,0,.06,0,.06-.02Z"/>
          <path d="m34.53,46.4c-.48-1.04-.71-2.07-.58-3.17,0,0-.04,0-.04.01-.27,1.04-.1,2.23.57,3.17,0,0,.05-.01.05-.02Z"/>
          <path d="m36.36,49.72c-1.59-.3-2.7-2.53-3.07-4.07,0-.01-.13.02-.13.04.34,1.57,1.51,3.83,3.13,4.06.02,0,.06-.02.06-.02Z"/>
          <path d="m40.94,48.86s0,0-.01,0c-.8.72-1.85,1.04-2.94.95-.02,0-.07.03-.08.03,1.14.16,2.21-.21,3.03-.99Z"/>
          <path d="m53.15,42.84s-.05,0-.05.01c-.11.71.31,1.67-.23,2.19,0,0,.07,0,.08-.02.7-.44.12-1.48.2-2.19Z"/>
          <path d="m63.37,42.79s-.09,0-.1.02c-.86,1.52-2.91,1.69-4.49,1.47-.02,0-.07.03-.07.02,1.51.39,3.92.04,4.66-1.51Z"/>
          <path d="m61.57,43.21s-.06,0-.07.01c-.62.47-1.51.52-2.28.29-.38-.11-.75-.28-1.12-.43-.02,0-.1.03-.1.03,1.15.7,2.57.86,3.57.09Z"/>
          <path d="m30.44,45.74c.27-1.84-.5-3.78-1.99-4.9-.02-.01-.07.03-.08.02,3.2,2.55,1.84,6.98-.61,8.81-.01,0,.08,0,.1-.02,1.27-.87,2.33-2.18,2.58-3.91Z"/>
          <path d="m30.62,47.37s-.02,0-.02,0c-.81,2.22-2.67,3.68-4.94,3.76-.02,0-.07.03-.06.03,2.32-.03,4.23-1.45,5.02-3.79Z"/>
          <path d="m27.31,39.88s.07-.03.07-.02c-1.16-.49-2.52-.09-3.61.21-1.15.32-2.19.87-2.87,1.93,0,0,.06,0,.07-.02.71-.98,1.56-1.44,2.69-1.79,1.14-.35,2.41-.75,3.66-.32Z"/>
          <path d="m23.38,40.75s-.01,0-.02,0c-.87.39-1.67,1.02-2.14,1.92,0,0,.03,0,.03,0,.58-.83,1.22-1.5,2.12-1.92Z"/>
          <path d="m24.11,51.7c-1.5-.14-3.41-2.06-3.92-3.66-.6-1.87-.71-4.37.58-5.65,0,0-.07,0-.09.02-1.46,1.22-1.3,3.96-.65,5.87.54,1.59,2.46,3.38,3.98,3.46.02,0,.11-.04.09-.04Z"/>
          <path d="m25.55,50.92c-2.42.43-4.28-1.45-5.21-3.89,0,0-.04,0-.04.01.63,2.56,2.95,4.36,5.21,3.9.02,0,.11-.04.05-.03Z"/>
          <path d="m26.3,40.22c-.49-.14-.97-.15-1.44-.04-.01,0-.05.02-.02.02.47-.09.94-.08,1.42.04.01,0,.04-.01.04-.01Z"/>
          <path d="m28.47,39.78c-.52-.19-1.06-.34-1.59-.41-.02,0-.05.02-.05.02.53.11,1.05.23,1.56.42.03,0,.08-.03.09-.03Z"/>
          <path d="m20.32,46.48c-.03-.51-.07-1-.02-1.5.05-.53.21-1,.38-1.48,0,0-.06,0-.07.02-.5.79-.72,1.99-.39,2.99,0,.01.1-.01.1-.03Z"/>
          <path d="m25.7,49.95c-1.54.19-3.26.04-4.22-1.71,0-.01-.08.02-.08.02.79,1.84,2.78,2.01,4.25,1.71.01,0,.09-.03.05-.03Z"/>
          <path d="m29.33,46.48s-.11,0-.13.03c-.59,1.09-1.39,1.9-2.36,2.58-.01.01.09,0,.11-.02,1.02-.59,1.8-1.49,2.37-2.58Z"/>
          <path d="m27.67,47.64s-.15,0-.18.04c-.31.45-.71.77-1.2.97-.07.03.03.01.06,0,.54-.17.99-.52,1.32-1.02Z"/>
          <path d="m31.18,45.77c.07-.76.1-1.57-.34-2.26,0-.01-.08.02-.08.02.43,1.02.45,2.97-.32,3.66,0,0,.09,0,.12-.02.44-.32.58-.81.63-1.4Z"/>
          <path d="m30.7,38.21s-.01,0-.02,0c-.12,0-.22-.03-.27.09,0,0,.03,0,.03,0-.08.14-.11.34-.18.49-.09.18-.2.35-.31.5-.24.31-.53.54-.85.74-.03.02.15-.01.17-.03.67-.3,1.31-.95,1.43-1.78Z"/>
          <path d="m30.77,39.21s-.3,0-.34.08c-.12.27-.25.53-.4.78-.1.17-.35.42-.36.63,0,.02.17-.03.19-.04.41-.34.68-.95.91-1.45Z"/>
          <path d="m26.41,36.85c-1.15.17-2.31.26-3.49.29,0,0-.04.01-.03.01,1.18,0,2.35-.11,3.51-.29,0,0,.04-.01.02-.01Z"/>
          <path d="m29.47,36.85c-2.42.67-4.9.93-7.46.92-.01,0-.07.02-.06.02,2.57.12,5.1-.25,7.53-.92.09-.02.08-.05,0-.03Z"/>
          <path d="m29.48,37.48c-1.19.39-2.4.61-3.66.72-.03,0-.14.05-.12.05,1.33-.05,2.62-.33,3.85-.75.16-.05,0-.05-.08-.02Z"/>
          <path d="m28.11,37.8s-.04,0-.04.01c0,0,.04,0,.04-.01Z"/>
          <path d="m27.5,36.24s-.04,0-.04.01c0,0,.04,0,.04-.01Z"/>
          <path d="m84.39,28.7c-.33-2.86-2.6-5.94-5.17-6.73-.03-.01-.12.05-.13.04,2.19.89,3.89,2.89,4.73,5.29,1.05,2.99-.18,6.06-2.77,6.96-.03.01,0,.01.02,0,2.19-.73,3.63-2.88,3.31-5.57Z"/>
          <path d="m83,32.52s-.07,0-.08.02c-.58.6-1.22,1.05-1.96,1.39-.02.01.03,0,.04,0,.77-.29,1.45-.76,2.01-1.4Z"/>
          <path d="m78.8,21.99c-1.27-.33-2.6,0-3.49.93,0,0,.06,0,.08-.02.93-.83,2.08-1.16,3.34-.89.02,0,.06-.02.06-.02Z"/>
          <path d="m77.86,21.47c-1.19-.1-2.52.33-3.26,1.3,0,0,.11,0,.14-.03.89-.8,1.79-1.25,3.04-1.23.02,0,.09-.03.08-.03Z"/>
          <path d="m74.69,29.76c-.82-2.56-.94-5.63,1.44-6.83.02-.01-.04,0-.05,0-2.32,1.13-2.7,4.28-1.48,6.85,0,.01.09-.02.09-.03Z"/>
          <path d="m74.9,27.34c-.13-1.22.05-2.36.69-3.3,0,0-.06,0-.08.02-.67.87-.98,2.09-.67,3.3,0,0,.06,0,.06-.02Z"/>
          <path d="m75.58,27.3c-.03-.57-.13-1.09.03-1.64,0,0-.07,0-.08.02-.16.48-.29,1.12-.05,1.64,0,.01.1-.01.1-.03Z"/>
          <path d="m79.33,33.85c-2.48-1.03-4.17-3.13-4.49-6.03,0,0-.07,0-.07.02.15,2.78,1.95,5.35,4.48,6.03.02,0,.08-.03.08-.03Z"/>
          <path d="m79.34,34.61c-1.8-.65-3.32-1.75-4.41-3.54,0-.01-.06.01-.06.02,1.05,1.68,2.61,3.06,4.38,3.55.03,0,.09-.03.09-.03Z"/>
          <path d="m78.33,32.6c-1.08-.69-1.99-1.62-2.61-2.83,0-.02-.1.02-.1.03.63,1.23,1.51,2.2,2.66,2.82.01,0,.04-.02.04-.02Z"/>
          <path d="m83.51,30c.19-1.36-.15-2.32-.97-3.45-.01-.01-.07.02-.07.02.71,1.03,1.05,1.9.92,3.13-.14,1.32-.62,2.13-1.46,2.97,0,0,.05,0,.06-.01.85-.73,1.35-1.42,1.53-2.65Z"/>
          <path d="m82.32,30.77s-.1,0-.11.03c-.29.79-.81,1.37-1.52,1.7-.03.02.05,0,.05,0,.75-.3,1.3-.9,1.58-1.73Z"/>
          <path d="m82.47,33.95s-.04,0-.04.01c0,0,.04,0,.04-.01Z"/>
          <path d="m72.82,31.25s-.03,0-.03,0c.03.03.07.06.1.09,0,0,.01,0,.01,0-.03-.03-.06-.06-.09-.09Z"/>
          <g>
            <path d="m73.13,31.65s-.11.03-.11.03c.96,1.48,1.4,3.3,1.1,4.98-.17.94-.77,1.88-1.55,2.55.17-.13.33-.26.48-.38,1.93-1.61,1.56-4.99.08-7.18Z"/>
            <path d="m71.54,39.87c-.89.4-1.87.42-2.73-.2-.02-.01-.09.03-.09.03.87.82,1.9.64,2.82.17Z"/>
            <path d="m71.54,39.87c.36-.16.71-.38,1.02-.65-.31.23-.66.47-1.02.65Z"/>
          </g>
          <path d="m72.51,38.81s-.02,0-.02,0c-.59.43-1.23.75-1.93.94-.02,0-.04.02,0,.01.72-.18,1.37-.49,1.96-.96Z"/>
          <path d="m71.37,38.85s-.04,0-.05,0c-.4.19-.81.35-1.23.49-.05.02-.02.02.02.01.44-.13.86-.31,1.26-.51Z"/>
          <path d="m69.01,27.29c-.63-.89-1.93-.69-2.73-.46-1.08.31-2.14,1.06-2.59,2.21,0,0,.09,0,.11-.03.3-.47.6-.92,1-1.29l.48-.38c.72-.2,1.44-.41,2.16-.61.58,0,1.04.17,1.54.57,0,0,.03,0,.03,0Z"/>
          <path d="m66.56,27.58s.11-.04.1-.04c-.92.04-1.79.44-2.3,1.26,0,0,.06,0,.07-.02.55-.71,1.18-1.16,2.13-1.2Z"/>
          <path d="m66.1,26.34s.01-.01-.01,0c-.63.19-1.21.5-1.68.98,0,0,.06,0,.07-.02.48-.43,1.01-.76,1.62-.96Z"/>
          <path d="m74.66,33.25c-.94-2.49-2.76-4.51-4.86-5.86-.02-.01-.08.03-.08.03,2.12,1.48,3.64,3.48,4.88,5.85,0,0,.06-.01.06-.02Z"/>
          <path d="m66.85,37.54c-1.85-2.17-3.07-4.42-2.67-7.29,0,0-.07,0-.07.02-.77,2.59.74,5.5,2.66,7.3.02.01.08-.03.08-.02Z"/>
          <path d="m67.76,39.47c-1.25-1.08-2.38-2.22-3.21-3.74-.01-.02-.1.02-.1.03.85,1.47,1.89,2.81,3.25,3.73.01,0,.06-.02.06-.02Z"/>
          <path d="m68.42,39.27s-.04,0-.04.01c0,0,.04,0,.04-.01Z"/>
          <path d="m71.58,37.92s-.11,0-.14.02c-.81.55-1.88,1.16-2.9.91-.44-.11-.86-.32-1.27-.53-.02-.01-.1.03-.1.03,1.68,1.08,3.02.5,4.4-.44Z"/>
          <path d="m68.78,38.35c-.22,0-.43-.07-.64-.18-.23-.12-.4-.3-.6-.47-.02-.02-.14.03-.14.04.24.47.88.64,1.3.63.02,0,.1-.03.08-.03Z"/>
          <path d="m72.7,32.79s-.1.02-.1.03c.95,1.6.87,3.36.08,4.81,0,0,.07,0,.08-.02.98-1.3.86-3.31-.07-4.82Z"/>
          <path d="m74.58,35.04c.04-.33,0-.67-.1-1,0,0-.08.01-.08.02.1.34.12.66.12,1,0,0,.06,0,.06-.02Z"/>
          <path d="m72.11,30.78c-.61-1.06-1.45-1.91-2.41-2.56-.02-.01-.09.03-.09.03.95.7,1.74,1.55,2.45,2.55,0,0,.05-.01.05-.02Z"/>
          <path d="m72.86,29.81c-.42-.64-.97-1.19-1.53-1.68-.03-.02-.1.04-.11.03.58.5,1.07,1.07,1.57,1.67.01.01.08-.02.08-.02Z"/>
          <path d="m71.75,36.95s-.04,0-.05.01c-.62.6-1.32,1.15-2.25.83-.03,0-.12.04-.12.04.92.55,1.84-.28,2.41-.88Z"/>
          <path d="m64.85,41.04c.85-2.83-1.54-5.61-3.39-7.5-.03-.03-.14.05-.14.04,1.97,2.19,3.78,4.4,3.43,7.49,0,0,.1,0,.11-.03Z"/>
          <path d="m63.62,42c.61-.83.76-2.05.64-3.15,0,0-.15.01-.15.04.05.54.04,1.07-.06,1.58-.1.56-.33,1.03-.52,1.55,0,0,.07,0,.08-.02Z"/>
          <path d="m65.69,41.65s-.04,0-.04.01c0,0,.04,0,.04-.01Z"/>
          <g>
            <path d="m51.89,31.5c-.58.14-1.18.32-1.78.5.59-.15,1.18-.3,1.77-.46.06-.02.1-.05.01-.03Z"/>
            <path d="m46.58,32.75c.55.04,1.07-.09,1.59-.24-.49.1-.98.17-1.47.19-.03,0-.15.05-.12.05Z"/>
            <path d="m48.81,32.33c-.21.05-.43.12-.65.18.65-.13,1.3-.32,1.95-.51-.43.11-.87.22-1.3.33Z"/>
          </g>
          <path d="m52.42,31.83s-.1,0-.11.03c-.47.49-1.36.66-1.98.87-.55.19-1.11.35-1.67.52-.06.02-.11.06-.01.03.79-.2,1.56-.45,2.33-.73.46-.17,1.19-.26,1.46-.72Z"/>
          <path d="m51.41,32.93c-.58.23-1.17.45-1.75.69-.09.04.04.02.07,0,.61-.22,1.21-.46,1.81-.69.14-.06-.09-.02-.13,0Z"/>
          <path d="m52.37,33.35c.09-.05-.15,0-.19.02-.72.4-1.47.69-2.25.97-.09.03-.03.04.03.02.84-.23,1.65-.59,2.41-1.01Z"/>
          <path d="m52.24,34.32c.11-.05-.18,0-.22.02-.28.13-.55.27-.82.42-.18.1-.41.18-.54.35,0,0,.09,0,.1-.01.51-.23.98-.54,1.48-.78Z"/>
          <path d="m52.38,34.87s-.11,0-.15.04c-.17.15-.36.25-.55.38-.02.02.1,0,.12-.02.21-.1.4-.24.58-.4Z"/>
          <path d="m60.47,27.94c-1.94.75-3.92,1.33-5.94,1.85-.03,0-.16.07-.06.05,2.1-.41,4.15-1.09,6.11-1.9.12-.05-.08-.02-.11,0Z"/>
          <path d="m58.36,29.19c-1.37.51-2.76.89-4.2,1.18-.05.01-.31.12-.13.09,1.5-.25,2.97-.68,4.36-1.26.05-.02-.02,0-.04,0Z"/>
          <path d="m56.46,30.42s-.04,0-.04.01c0,0,.04,0,.04-.01Z"/>
          <path d="m59.29,29.76c-.89.33-1.78.65-2.66,1.01-.13.05.06.03.1.01.9-.31,1.78-.65,2.67-.99.23-.09,0-.07-.11-.03Z"/>
          <path d="m60.42,30c-.37.16-.75.31-1.12.49-.07.04.1,0,.12,0,.39-.15.78-.32,1.17-.48.18-.08-.12-.03-.17,0Z"/>
          <path d="m61.13,30.34s-.13,0-.17.03c-.1.06-.2.13-.29.19-.02.01.11,0,.14-.02l.32-.2Z"/>
          <path d="m62.1,30.67s-.2.02-.24.05c-.22.18-.45.31-.72.4-.02,0-.19.08-.08.07.37-.04.79-.21,1.03-.51Z"/>
          <path d="m66.59,40.58c.15-.07.51-.24.52-.44,0-.02-.18.04-.19.05-.13.09-.24.21-.37.29-.16.1-.32.16-.5.21-.01,0-.18.07-.11.07.22,0,.45-.09.65-.18Z"/>
          <path d="m67.56,41.06s-.04,0-.04.01c0,0,.04,0,.04-.01Z"/>
          <path d="m67.47,40.91s-.05,0-.06,0c-.46.17-.93.36-1.37.57-.07.03.1,0,.12,0,.44-.17.89-.36,1.32-.57Z"/>
          <path d="m68.39,41.03s-.12,0-.15.03c-.74.42-1.51.78-2.27,1.18-.06.03.09,0,.11,0,.8-.34,1.56-.77,2.32-1.21Z"/>
          <path d="m68.84,41.77c.1-.05-.16,0-.19.02-.85.48-1.74.88-2.63,1.26-.06.03.03.01.05,0,.97-.34,1.89-.78,2.78-1.28Z"/>
          <path d="m69.39,42.42s-.07,0-.09.02c-.54.33-1.1.6-1.68.85-.06.02.04,0,.05,0,.6-.24,1.17-.53,1.72-.87Z"/>
          <path d="m66.32,39.81c.05-.04-.05-.02-.06-.02-.06,0-.15.03-.2.07-.07.05-.13.1-.19.16,0,0,.17-.02.2-.04.09-.05.17-.1.25-.16Z"/>
          <path d="m55.31,44.04s-.15.01-.19.03c-.19.1-.38.2-.59.28-.09.04-.02.04.04.03.26-.05.54-.16.74-.34Z"/>
          <path d="m55.42,44.76s.12-.04.1-.07c-.02-.03-.18.03-.2.04-.26.08-.59.18-.79.38,0,0,.13-.02.16-.03.24-.11.47-.24.73-.32Z"/>
          <path d="m56.08,45.17c.07-.04-.12,0-.15.02-.19.1-.39.2-.57.32-.02.01.08,0,.1-.01.21-.1.41-.21.62-.32Z"/>
          <path d="m57.19,45.49c.1-.06-.17,0-.21.02-.47.26-.96.47-1.44.69-.11.05.05.02.09.01.54-.19,1.06-.44,1.56-.72Z"/>
          <path d="m57.92,45.99c.06-.03-.1,0-.12.01-.93.46-1.89.86-2.84,1.28-.09.04.04.02.07,0,1-.36,1.95-.81,2.89-1.3Z"/>
          <path d="m57.13,47.04c.06-.03-.1,0-.12.01-1,.53-2.03.92-3.1,1.28-.06.02-.05.04,0,.02,1.13-.28,2.2-.76,3.21-1.32Z"/>
          <path d="m87.73,15.64s.03-.01.03-.01c-2.05-.65-4.3.32-4.92,2.55,0,0,.05,0,.06-.02.92-2,2.51-3.11,4.83-2.52Z"/>
          <path d="m86.99,15.95s.02,0,.02,0c-1.41.02-3.12.37-3.54,2.03,0,0,.06,0,.07-.02.58-1.51,1.97-1.97,3.46-2.01Z"/>
          <path d="m86.35,16.63s.07-.03.04-.02c-1.08.14-2.17.82-2.52,1.98,0,0,.05,0,.06-.02.56-1.04,1.23-1.76,2.42-1.94Z"/>
          <path d="m90.78,28.03c-2.37.42-4.64-1.07-6.15-3.24-1.22-1.74-2.14-4-1.3-5.96,0,0-.06,0-.07.02-1.17,2.3.36,5.27,2.06,7.1,1.52,1.63,3.48,2.52,5.43,2.11.02,0,.09-.04.03-.03Z"/>
          <path d="m93.52,26.8s-.07,0-.08.02c-.42,1.21-2.07,1.72-3.13,1.79-.01,0-.05.02-.04.02,1.09-.01,2.98-.55,3.26-1.83Z"/>
          <path d="m93.64,24.84c.43-.87.18-1.94-.38-2.77,0-.01-.08.02-.07.02.57.88.56,1.89.29,2.79,0-.01.14,0,.16-.04Z"/>
          <path d="m92.45,26.15c.22-.26.4-.56.51-.91.13-.45.03-.93.13-1.38,0,0-.06,0-.07.02-.2.64-.12,1.3-.46,1.89-.44.78-1.2,1.19-1.98,1.49-.02,0,.01,0,.02,0,.67-.25,1.36-.56,1.84-1.12Z"/>
          <path d="m75.98,19.22c1.59-1.33,3.2-2.42,5.12-3.15.11-.04-.05-.02-.08,0-1.9.67-3.76,1.69-5.18,3.19,0,0,.11,0,.14-.03Z"/>
          <path d="m79.19,17.76s-.22.01-.28.05c-.97.59-1.97,1.2-2.83,1.96.01-.01.18-.01.23-.05.95-.67,1.88-1.36,2.88-1.96Z"/>
          <path d="m78.65,18.9s-.21,0-.26.05c-.42.31-.93.59-1.28.99,0,0,.15-.02.18-.04.48-.28.91-.66,1.36-1Z"/>
          <path d="m78.96,19.52s-.04,0-.04.01c0,0,.04,0,.04-.01Z"/>
          <path d="m79.71,19.75s-.15,0-.19.05c-.27.28-.58.47-.91.66-.04.02.16,0,.18-.02.36-.15.66-.39.92-.69Z"/>
          <path d="m79.86,20.3s-.04,0-.04.01c0,0,.04,0,.04-.01Z"/>
          <path d="m73.66,20.45s-.12,0-.14.03c-2.13,1.5-4.35,2.76-6.71,3.83-.04.02.05,0,.06,0,2.4-.98,4.69-2.28,6.78-3.85Z"/>
          <path d="m71.93,22.58s-.18.01-.22.04c-1.54.97-3.14,1.79-4.78,2.57-.07.03.1,0,.12,0,1.7-.71,3.32-1.61,4.88-2.6Z"/>
          <path d="m70.64,24.24s-.19.01-.24.04c-.52.33-1.1.62-1.58,1.01-.02.02.11,0,.13-.02.58-.31,1.13-.69,1.69-1.04Z"/>
          <path d="m71.36,24.96s-.04-.02-.05-.02c-.05,0-.1.02-.14.05-.23.14-.47.26-.69.41-.02.02.11,0,.13-.02.26-.13.5-.28.75-.43Z"/>
          <path d="m73.14,23.02s-.04,0-.04.01c0,0,.04,0,.04-.01Z"/>
          <path d="m72.05,24.87s-.04-.02-.05-.02c-.04,0-.11.02-.15.05-.17.14-.35.26-.5.42,0,0,.09,0,.11-.02.2-.13.4-.29.59-.43Z"/>
          <path d="m86.75,28.34s-.14,0-.17.04c-.27.3-.57.53-.9.76-.03.02.12,0,.14-.02.36-.18.69-.44.93-.78Z"/>
          <path d="m86.95,28.89s-.18,0-.23.06c-.3.28-.63.51-.96.75-.02.02.1,0,.12-.02.39-.21.74-.48,1.07-.79Z"/>
          <path d="m87.84,29.3s-.17,0-.21.04c-.67.54-1.39.97-2.14,1.39-.05.03.08,0,.09,0,.81-.37,1.55-.86,2.25-1.42Z"/>
          <path d="m88.63,30.14s-.14.01-.18.03c-.85.49-1.72.96-2.54,1.5-.01,0,.05,0,.06,0,.9-.47,1.78-1.01,2.66-1.53Z"/>
          <path d="m88.51,31.41s-.16,0-.21.04c-.33.23-.69.41-1.05.58-.07.03.08,0,.1,0,.41-.15.8-.37,1.16-.62Z"/>
          <path d="m80.93,18.28c.25-.16.96-.41.97-.78,0,0-.13.01-.14.04-.16.46-1.13.83-1.5,1.07-.44.29-.88.57-1.31.87-.02.01.12,0,.15-.03.62-.38,1.22-.78,1.83-1.18Z"/>
          <path d="m81.01,17.32c.09-.05-.15,0-.18.02-.36.2-.72.41-1.01.72,0,0,.1,0,.13-.03.35-.25.69-.51,1.07-.71Z"/>
          <path d="m81.83,19.34c.06-.03-.09,0-.1,0-.53.24-1.06.52-1.5.92,0,0,.13,0,.16-.03.47-.33.93-.65,1.44-.89Z"/>
          <path d="m76.35,34.06s-.15.01-.19.04c-.17.11-.37.22-.49.39,0,0,.12-.02.14-.03.19-.11.38-.25.54-.4Z"/>
          <path d="m76.61,34.89s-.04,0-.04.01c0,0,.04,0,.04-.01Z"/>
          <path d="m92.09,11.48c-3.05.59-6.13,1.56-8.89,2.97-.06.03.09,0,.1,0,2.85-1.21,5.71-2.22,8.74-2.93.03,0,.13-.06.05-.04Z"/>
          <path d="m89.75,12.59c-1.44.47-2.88.98-4.27,1.6-.08.03.11,0,.12,0,1.4-.55,2.8-1.1,4.23-1.57.19-.06,0-.06-.09-.03Z"/>
          <path d="m99.72,11.09c-2.9-1.41-6.21-.6-7.77,2.18,0,0,.07,0,.08-.02,1.7-2.57,4.65-3.5,7.57-2.12.03.01.11-.04.11-.04Z"/>
          <path d="m92.46,12.04c.57-.82,1.19-1.44,2.18-1.66.04,0,.11-.05.02-.03-.94.2-1.89.74-2.3,1.72,0,0,.09,0,.1-.02Z"/>
          <g>
            <path d="m100.82,19.6c-.15.08-.31.16-.46.24.38-.17.75-.38,1.09-.62-.2.14-.41.26-.62.38Z"/>
            <path d="m100.36,19.84c-1.29.59-2.77.8-3.9.6-.02,0-.07.03-.08.03,1.4.41,2.76-.02,3.97-.62Z"/>
            <path d="m102.9,14.48s-.05,0-.04.01c.88,2.09.03,3.7-1.41,4.73,1.49-1,2.52-2.52,1.46-4.74Z"/>
          </g>
          <path d="m95.48,20.15s-.04,0-.04.01c0,0,.04,0,.04-.01Z"/>
          <path d="m101.11,18.91s-.07,0-.09.02c-1.11.65-2.36,1.16-3.7,1.04-.73-.06-1.47-.24-2.2-.37-.02,0-.07.03-.07.03,2.35.67,4.11.5,6.06-.71Z"/>
          <path d="m101.36,19.91s-.06,0-.08.01c-1.23.84-2.63,1.21-4.14,1.22-.02,0-.11.04-.09.04,1.56.14,3.09-.37,4.31-1.27Z"/>
          <path d="m93.77,19.34c-1.22-1.46-2.01-3.13-1.76-5.04,0,0-.05,0-.05.01-.45,1.86.29,3.75,1.72,5.05.02.02.1-.03.1-.03Z"/>
          <path d="m93.92,18.69c-.83-.83-1.22-1.94-1.55-3.06,0,0-.04,0-.04.01.27,1.14.56,2.34,1.52,3.07.02.01.07-.02.07-.02Z"/>
          <path d="m97.6,19.33c-2.16-.17-3.97-1.55-4.82-3.87,0,0-.05,0-.05.01.76,2.26,2.68,3.88,4.8,3.88.02,0,.08-.03.07-.03Z"/>
          <path d="m108.72,11.54s-.07,0-.09.01c-1.11.59-2.23,1.1-3.42,1.51-.09.03-.03.04.03.02,1.21-.35,2.41-.85,3.47-1.55Z"/>
          <path d="m96.97,22.07c.17-.06,0-.05-.08-.02-.39.14-.78.3-1.11.54-.03.02.13,0,.16-.02.34-.19.67-.37,1.03-.5Z"/>
          <path d="m97.8,22.33s-.04,0-.04.01c0,0,.04,0,.04-.01Z"/>
          <path d="m98.71,22.29s-.17.01-.21.04c-.96.56-1.92,1.11-2.87,1.68-.02.01.1,0,.12-.02.99-.56,1.98-1.13,2.96-1.71Z"/>
          <path d="m99.52,22.6s-.18.01-.23.04c-1.03.61-2.07,1.2-3.08,1.84-.02.01.11,0,.13-.02,1.07-.6,2.12-1.24,3.18-1.86Z"/>
          <path d="m91.96,17.16c-.12-1.1-.71-2.16-.71-3.28,0-1.52,1.27-2.48,2.27-3.19.04-.03-.19.01-.22.03-1.1.55-2.01,1.67-2.39,2.96-.25.83-.39,3.11.49,3.66.07.04.57-.08.56-.18Z"/>
          <path d="m101.9,19.91s-.25.03-.31.07c-2.29,1.41-4.75,2.65-7.34.71-.05-.03-.34.03-.33.1.1,1.68,2.87,1.42,3.85,1.22,1.53-.31,2.96-1.06,4.14-2.1Z"/>
          <path d="m93.55,28.11s-.19.02-.23.05c-2.79,2.04-5.75,1.31-8.33-1.38-.08-.08-.68.11-.65.19,1.19,3.88,7.33,3.3,9.22,1.14Z"/>
          <path d="m110.39,12.27c-.95-.62-1.77-1.39-2.66-1.96-.04-.05-.09-.1-.13-.16-.43-.53-.53-.7-1.14-.89-.74-.23-1.7.05-2.43.09-1.36.07-2.72.14-4.08.27-.04,0-.14.04-.24.08-.22.02-.44.04-.66.05-.11,0-.59.21-.48.21,1.94.1,3.85-.18,5.78-.06.99.06,1.78.48,2.54,1.01.19.23.39.46.64.68.54.48,1.12.78,1.76,1.04.26.1,1.12-.37,1.1-.38Z"/>
          <path d="m92.62,11.3c-1.59.31-3.12.79-4.63,1.35-2.12.79-4.26,2.2-6.49,2.6-.09.02-.72.27-.54.27,1.06,0,2-.33,2.95-.75,2.83-1.26,5.59-2.48,8.59-3.31.13-.04.48-.23.13-.16Z"/>
          <path d="m75.26,19.21c.99-.66,2-1.31,3.01-1.94.77-.48,1.7-.88,2.34-1.54,0,0-.25.02-.29.04-2.17.95-4.17,2.35-6.15,3.64-.13.09.87-.05,1.1-.2Z"/>
          <path d="m73.98,20.37s-.12-.06-.24-.13c.13-.03.26-.06.35-.13.29-.25-.24-.12-.32-.1-.1.03-.21.06-.31.1-.03,0-.06,0-.08,0-.07.03-.14.07-.2.11-.3.12-.58.26-.87.39-.8.36-1.72.76-2.43,1.33-2.87,1.53-5.71,3.13-8.47,4.83,0,0,.22.15.28.13,4.29-1.66,8.51-3.83,12.29-6.52Z"/>
          <path d="m61.4,27.07s-.25-.15-.3-.13c-1.45.42-2.8,1.12-4.21,1.65-.92.34-1.96.52-2.85.94-.07-.04-.14-.06-.18-.05-3.04.64-6.46,1.49-9.26,2.82,0,0,.6.39.77.36,2.78-.49,5.86-1.44,8.41-2.74.08.04.15.07.18.07,2.36-.18,5.69-1.25,7.44-2.92Z"/>
          <path d="m43.77,32.8s-.13-.07-.15-.07c-2.33-.05-4.6.62-6.86,1-2.34.4-4.79.63-7.05,1.32.01,0,.51.33.67.32,2.51-.16,4.97-.68,7.42-1.15,1.76-.34,4.59-.26,5.97-1.41Z"/>
        </g>
        <path d="m19.13,38.44c-3.81-1.12-7.81-.82-11.37-3.35,3.33,1.47,7.08,1.61,10.47,2.05,0,0-.03-.02-.04-.02-4.63-.69-9.34-.84-13.51-4.04-.04-.03-.22-.08-.19-.06.9.79,1.86,1.39,2.87,1.87-.02,0-.03,0-.02,0,3.59,2.89,8,2.51,11.98,3.68.24.07-.11-.11-.18-.14Z"/>
        <path d="m27.4,39.68s.04.01.04.01c0-.01-.04-.01-.04-.01Z"/>
        <path d="m26.71,51.5s-.23-.15-.29-.13c-.58.21-1.16.46-1.79.5-.95.06-3.25-.55-3.95-1.32-.85-.92-1.17-2.71-1.23-3.91-.11-2.13.43-4,1.62-5.51,0,0-.19-.12-.22-.09-2.64,2-3.85,7.23-.52,10.01,1.91,1.59,4.61,1.64,6.38.45Z"/>
        <path d="m40.94,51.86s-.5-.31-.62-.29c-2.34.29-4.48,1.42-6.54-1.13-1.12-1.39-1.35-3.07-2.04-4.66-.02-.04-.26-.15-.28-.11-1.12,2.21,1.63,5.26,3.42,6.2,2.06,1.08,4.21,1.14,6.07-.01Z"/>
        <path d="m52.74,49.09c.15-.1.3-.2.44-.3-.02.01-.31-.21-.39-.17-1.23.56-2.94,1.52-4.38.67-.09-.05-.61-.22-.52-.14.89.74,1.83.92,2.73.79-1.33.36-2.7.06-3.99-1.48-1.14-1.36-1.98-2.94-2.99-4.4-.03-.04-.31-.14-.31-.12.2,2.33,2.48,5.09,4.41,6.1,1.82.96,4.23,1.28,4.99-.95Z"/>
        <path d="m57.59,46.03c1.33.6,2.79.81,4.04.52,1.82-.34,3.4-1.55,4.25-3.77,0-.02-.3-.19-.33-.14-.72,1.2-1.7,2.14-2.82,2.73-.1-.04-.19-.07-.24-.04-1.33.69-3.06.76-4.62.23-1.2-.61-2.27-1.73-3.06-3.27-.1-.2-.91-.33-.92-.36.1.37.24.71.4,1.04-.24-.07-.49-.11-.61-.14-.03,0-.05-.02-.08-.03.13.17.26.34.39.5.02.02.04.05.06.07,1.01,1.21,2.25,2.11,3.54,2.66Z"/>
        <path d="m72.19,41.25c1.13-.58,1.64-1.67,2.19-2.82.16-.26.3-.53.4-.79.02-.04-.49-.3-.53-.22-.75,1.43-1.9,2.19-3.26,2.84-1.7.82-2.86.46-4.52-.88-.1-.08-.81-.34-.88-.31-.44-.65-.84-1.39-1.2-2.16-.05-.1-.58-.25-.58-.23.28,2.61,2.36,4.38,4.54,5.04,1.41.43,2.59.16,3.84-.48Z"/>
        <path d="m49.06,50.22c-1.81-.81-3.01-1.92-4.33-3.52-.14-.17-.98-.38-.96-.35.97,2.02,3.56,3.72,5.51,4.07.18.03-.19-.19-.21-.2Z"/>
        <path d="m35.19,51.28c-.13-.22-.37-.33-.55-.48-.37-.3-.73-.62-1.07-.97-.62-.64-1.18-1.35-1.76-2.03-.04-.05-.35-.13-.35-.14.51,1.51,2,2.83,3.29,3.5.06.03.47.17.45.12Z"/>
        <path d="m33.25,39.62c.65-1.06,1.49-1.92,2.52-2.53,0,0-.02-.02-.03-.01-1.04.48-2,1.12-2.77,2.03-.71.83-1.77,2.25-1.62,3.52.01.1.56.33.6.25.61-.92.69-2.27,1.29-3.26Z"/>
        <path d="m84.32,34.48c.49-.71.65-1.63.78-2.56.34-.81.56-1.7.63-2.63,0-.11-.7-.41-.75-.31-.38.72-.55,1.56-.73,2.38-1,2.06-2.86,3.89-4.84,3.96-1.29-.27-2.61-1.05-3.71-2.09-.2-.18-.89-.29-.94-.34.33.39.7.76,1.09,1.1.44.54,1.04.94,1.69,1.22.86.5,1.78.85,2.72.96,1.42.17,3.22-.46,4.06-1.68Z"/>
        <path d="m102.5,22.43c.62-1.6,1.61-2.91,2.86-3.92,1.4-1.12,2.72-2.21,3.24-3.67.21.09.42.15.46.1.23-.34.42-.69.6-1.05.09.02.16.03.16,0,.1-.37.19-.74.29-1.12.01-.05-.17-.15-.37-.25-.04-.1-.1-.21-.16-.33-.06-.11-.52-.27-.75-.32-.16-.35-.37-.69-.63-1.03-.12-.16-.87-.35-.86-.31.15.36.25.69.33,1.01-.58-.47-1.26-.84-1.91-1.18-.03-.01-.23-.08-.14-.03,1.03.61,1.89,1.27,2.22,2.28.1,2.57-2.02,4.02-3.8,5.65-.1.09-.18.18-.27.27.23-.81.22-1.78-.14-2.93-.02-.05-.3-.16-.31-.13-.47,5.05-4.34,6.22-8.51,5.98-.16,0,.69.45.9.48,1.99.28,4.79-.02,6.55-1.32-.89,1.68-1.39,3.58-2.27,5.42-.03.06.62.36.7.31,1.35-.73,1.25-2.49,1.8-3.92Z"/>
        <path d="m99.45,26.07s-.08-.06-.1-.04c-2.71,1.87-5.39,3.73-8.15,5.52.01,0,.11.08.14.06,2.85-1.52,5.67-3.36,8.11-5.54Z"/>
        <path d="m106.06,9.61c-4.43-.54-9.56-.85-13.82.09-4.35.96-8.25,3.44-12.03,5.69,0,0,.3.22.39.18,4.33-1.85,8.85-3.46,13.38-4.81,4.12-1.22,8.61.03,12.78-.81,0,0-.56-.33-.7-.35Z"/>
        <path d="m16.69,49.27c-6.01-3.18-10.64-9.21-12.78-16.08-.02-.06-.19-.07-.2-.08,1.88,7.05,6.82,13.03,12.88,16.15.03.02.21.07.1.01Z"/>
        <path d="m26.49,38.77c-1.68-.21-3.54.09-4.78,1.26,0,0,.25.17.31.14.86-.43,1.73-.84,2.68-1.04,1.2-.24,3.44-.39,4.45.74.05.06.32.12.32.12-.55-.92-2.14-1.11-2.98-1.21Z"/>
        <path d="m36.6,35.03c-5.95.82-12.02,1.74-18.17.22-.32-.08.35.26.42.28,6.21,2.08,12.17,1.08,18.05-.37-.02,0-.22-.15-.3-.14Z"/>
        <path d="m64.45,23.29s-.07-.05-.09-.04c-8.98,4.04-18.3,6.8-28.06,8.47-4.72.81-9.5,1.54-14.32,1.86-5.68.38-10.75-1.72-16.18-4.04-.39-.17-.84-.19-.19.12,3.84,1.84,7.84,3.55,11.89,4.27,5.16.91,10.45-.3,15.42-1.05,10.89-1.63,22.01-4.06,31.54-9.59Z"/>
      </g>
      <path d="m79.33,40c7.36-3.91,14.26-8.58,20.81-13.81.32.03,1.03.08,1.21-.07,2.61-2.03,5.17-4.18,7.52-6.57.44-.34.88-.68,1.31-1.02,0,0-.14-.01-.33-.02.21-.23.44-.45.65-.68-.02.02-.59-.09-.72.03-.26.23-.52.46-.79.7-2.98,1.01-5.24,3.07-7.27,5.46-2.37,1.71-4.76,3.37-7.2,4.97-4.89,3.22-10,5.99-14.94,9.11.05-.03.62.08.8-.01,5.14-2.49,10.11-5.45,14.94-8.67-10.16,7.25-21.2,13.2-32.74,17.61-13.71,5.24-31.28,11.32-46.07,2.11-6.52-4.06-11.86-10.75-13.28-18.82-.03-.2-1.54-.06-1.5.13,1.35,7.7,6.28,14.15,12.39,18.27,6.16,4.14,13.16,5.51,19.91,5.36,7.55-.16,14.83-2.03,21.88-4.26,8.09-2.56,15.92-5.84,23.41-9.82Z"/>
      <path d="m114.35,7.85c.15-.22.3-.44.45-.65.02-.03-.24-.02-.27-.01-2.45.43-4.89.74-7.36,1.06-.16.02-.14.07.01.06,2.42-.05,4.91-.41,7.23-1.01-.1.19-.19.38-.29.57,0-.02.2.03.23-.01Z"/>
      <path d="m113.63,9.41s-.28-.03-.36,0c-1.54.64-3.06.97-4.77.92-.06,0-.5.07-.29.1,1.87.18,3.82-.14,5.42-1.02Z"/>
    </g>
  </g>
</svg>