<?xml version="1.0" encoding="UTF-8"?>
<svg id="Layer_2" data-name="Layer 2" xmlns="http://www.w3.org/2000/svg" viewBox="0 0 186.68 302.43">
  <g id="objects">
    <g>
      <path d="m124.31,68.39c.07,0,.31,0,.55,0,1.46-.01,1.92.27,2.45,1.65.33.86.71,1.73.85,2.63.13.81-.02,1.67-.05,2.55.41.26,1.08.47,1.34.91.23.4,0,1.06-.03,1.66q.89.86.41,2.3c.17.21.4.44.55.7.16.27.24.59.37.91.04.03.09.1.16.12,1.76.67,1.96,1.73.57,3.23-.46.5-1,.91-1.5,1.37.04.07.07.14.11.22.56-.23,1.14-.41,1.66-.71.73-.42,1.42-.92,2.12-1.38,1.13-.73,1.68-.75,2.72.09.59.47,1.14.69,1.88.45.34-.11.72-.09,1.08-.1.7-.03,1.12.32,1.38.95.52,1.26.52,1.25,1.74,1.25,1.39,0,2.3.6,2.8,1.87.5,1.28.25,2.34-.77,3.28q-1.17,1.09-1.47,1.92c.49.37,1.08.42,1.68.42,1.33,0,2.66-.02,3.99-.02.91,0,1.76.17,2.41.89.34.38.77.41,1.22.23.63-.26,1.27-.5,1.88-.81,1.27-.66,2.48-.74,3.8-.07,1.88.96,3.64,2.06,5.18,3.51,1.37,1.3,2.95,2.4,3.89,4.11.35.63.74,1.25.98,1.92.37,1.04.95,1.7,2.1,1.89,1.23.2,1.35.52.9,1.81.52.57,1.27.8,1.98,1,2.1.58,3.95,1.63,5.64,2.96,1.83,1.44,3.6,2.98,5.33,4.55.61.56,1,1.35,1.53,2.01.95,1.17.9,2.54.74,3.9-.05.43-.4.83-.55,1.13.25.93.55,1.8.7,2.69.2,1.18-.43,1.72-1.62,1.56-1.71-.22-3.44-.38-5.15-.63-.95-.14-1.89-.38-2.84-.58-1.27,1.37-2.07,1.36-4.65-.06-.38.38-.69.89-1.13,1.08-.66.27-1.37,0-1.94-.41-.65-.46-1.28-.98-1.85-1.53-.39-.38-.7-.7-1.33-.57-.68.13-1.24-.24-1.69-.74-.48-.54-.96-1.07-1.45-1.62-.75,1.24-1.49,1.41-2.51.45-.69-.65-1.25-1.47-1.77-2.28-1.14-1.76-2.3-3.51-3.97-4.84-.15-.12-.31-.24-.69-.54.16.64.28,1.03.37,1.43.23,1.04-.33,1.54-1.35,1.21-.3-.1-.58-.25-.97-.42,0,.24-.01.38,0,.52.09.92-.89,1.2-1.53.83-.31-.18-.57-.45-.86-.67-1.84-1.38-3.62-2.84-5.53-4.09-1.3-.85-2.75-1.52-4.21-2.09-2.57-1.01-4.92-2.39-7.21-3.9-.23-.15-.45-.37-.71-.44-1.45-.42-2.7-1.21-4-1.96-1.16-.67-2.45-.94-3.84-.77-2.1.26-4.1.84-6,1.75-.13.06-.23.19-.45.36.58.14,1.04.24,1.5.35.94.22,1.71.72,2.33,1.43,1.02,1.18,1.05,2.45.1,3.93,1.47.86,1.76,2.23,1.57,3.8-.23,1.96-1.4,3.26-3.07,4.05-1.26.59-2.64,1-4.01,1.3-1.97.42-3.44,1.49-4.66,3.02-.69.87-.96,1.84-.78,2.94.02.12.02.24.05.36.83,2.85-1.89,5.44-4.24,5.67-1.12.11-2.25.1-3.38.14-.4.01-.8,0-1.28,0-.29.98-.34,2.13-1.52,2.65-1.08.48-2.11.41-3.26-.24-.27.52-.54.99-.75,1.49-.14.33-.18.7-.27,1.05-.27,1-.76,1.47-1.76,1.54-1.42.09-2.74-.24-3.76-1.3-1.33-1.39-2.21-2.97-1.78-5.01.1-.47-.13-.77-.54-.96-.11-.05-.23-.09-.34-.11-1.06-.21-2-.6-2.54-1.64-.66-1.27-.88-2.58-.5-3.97.07-.26.13-.53.24-.99-1.28.97-2.41,1.83-3.55,2.68-3.82,2.84-7.49,5.86-10.98,9.09-1.18,1.09-2.45,2.1-3.56,3.26-1.08,1.13-2,2.41-2.99,3.62-.25.31-.46.67-.74.95-1.38,1.36-2.2,3.02-2.9,4.82-1.45,3.74-2.44,7.58-3.19,11.51-.14.74-.38,1.47-.63,2.38.78.27,1.62.63,2.49.85,1.24.31,2.32.86,3.31,1.68.77.64,1.58,1.27,2.45,1.76,2.88,1.61,4.73,4.06,5.98,7.04,1.55,3.71,2.5,7.6,2.84,11.58.35,4.13-.58,8.12-2.61,11.76-2.14,3.83-4.8,7.26-8.45,9.8-1.83,1.28-3.41,2.83-4.86,4.51-.44.52-.85,1.08-1.18,1.67-.82,1.48-.99,2.95-.19,4.59,1.55,3.2,3.23,6.29,5.35,9.17,2.13,2.89,3.92,5.99,5.65,9.14,2.42,4.41,5.01,8.73,7.61,13.04,3.64,6.04,7.42,11.99,11.02,18.05,2.25,3.78,4.63,7.46,7.46,10.83,2.48,2.95,5.36,5.47,8.55,7.61,3.21,2.15,6.51,4.16,9.74,6.27,1.75,1.15,3.39,2.47,5.16,3.59,2.64,1.68,5.51,2.92,8.67,3.1,1.71.1,3.45-.21,5.16-.41,2.25-.27,4.49-.52,6.69.29.56.2,1.15.36,1.38,1.1-.56.31-1.13.24-1.66.13-2.44-.52-4.9-.38-7.34-.07-2.95.38-5.75-.06-8.54-1.05-2.69-.95-5.11-2.33-7.44-3.95-2.18-1.51-4.45-2.92-6.76-4.22-4.94-2.77-9.61-5.93-13.91-9.59-3.39-2.89-6.13-6.39-8.48-10.18-3.39-5.48-6.72-11-10.12-16.47-.95-1.54-2.05-2.99-3.08-4.48-2.94-4.21-5.18-8.8-7.34-13.45-1.27-2.73-2.91-5.29-4.4-7.91-.2-.35-.45-.68-.73-.96-2.26-2.21-4.02-4.83-5.96-7.29-.25-.32-.5-.63-.75-.94-.92-1.16-2-1.92-3.49-2.38-4.16-1.29-8.15-3.03-12.03-5.02-2.75-1.41-4.83-3.6-6.58-6.11-.69-.99-1.39-1.99-1.95-3.05-.52-.99-.98-2.03-1.28-3.11-1.09-3.86-1.73-7.78-1.59-11.81.11-3.27.53-6.48,1.71-9.58,1.84-4.89,4.99-8.71,9.18-11.71,1.23-.88,2.65-1.51,3.98-2.26.72-.41,1.44-.83,2.08-1.2-.69-.8-1.28-1.49-1.88-2.18-.42-.49-.91-.93-1.26-1.46-2.13-3.27-4.3-6.52-6.3-9.87-.81-1.36-1.22-2.97-1.79-4.47-1.16-3.05-2.29-6.11-3.48-9.15-.32-.82-.74-1.61-1.19-2.37-2.46-4.14-4.02-8.6-4.75-13.35-.3-1.95-.46-3.92-.72-5.87-.56-4.15-2.34-7.57-5.89-9.98-1.16-.79-2.24-1.7-3.32-2.61-.43-.36-.78-.82-1.1-1.28-.91-1.35-.87-2.33.08-3.66.18-.26.36-.52.57-.83-.44-.31-.85-.57-1.23-.86-1.08-.81-1.4-1.82-1-3.09.39-1.24,1.22-1.89,2.54-1.99.11,0,.21-.06.48-.14-.29-.32-.51-.58-.75-.82-.54-.52-1.05-1.05-.77-1.88.27-.78.93-.93,1.67-.9.1-.94-.09-1.69-.77-2.31-.23-.21-.38-.52-.52-.81-.55-1.19.02-2.42,1.27-2.76.23-.06.46-.07.85-.13-.43-.91-.8-1.75-1.22-2.56-1.18-2.25-.09-4.73,2.38-5.42.68-.19,1.27-.03,1.83.34.54.35,1.06.73,1.85,1.28-.22-.61-.37-.95-.46-1.31-.33-1.36-.73-2.72-.92-4.11-.28-1.95.5-3.63,1.71-5.13.53-.65,1.22-1.03,2.04-1.2,2.37-.49,4.41.66,5.04,2.98.4,1.47.62,2.98.94,4.57,1.5.65,2.36,2.15,2.05,4.23-.16,1.09-.64,2.15-1,3.21-.21.61-.53,1.18-.71,1.79-.2.66-.22,1.34.32,2.02.28-.2.53-.36.77-.55.5-.38,1.01-.7,1.65-.37.71.37,1.34.88,1.26,1.75-.06.7-.27,1.41-.51,2.08-.23.62-.4,1.21-.13,1.91.56-.08,1.02-.75,1.67-.32.63.41.46,1.05.52,1.7.28.09.6.14.87.29.27.15.48.4.7.59,1.77-.82,2.77-.73,3.85.42,1.09,1.16.52,2.29-.19,3.37.11.07.18.15.25.15,1.74-.06,2.49,1.68,1.91,3.22-.33.87-.65,1.75-1.65,2.11-.15.06-.25.29-.46.55.47.1.85.15,1.21.26,1.16.34,1.39.92.82,1.98-.1.18-.22.34-.36.56.04.11.09.26.15.4.44.99.35,1.52-.37,2.3-.38.41-.74.84-1.06,1.29-.21.29-.2.61.22.85.13-.12.29-.23.42-.37,1.18-1.25,2.61-1.52,4.21-1.04,1.46.45,2.93.9,4.1,2.19.18-.7-.18-1.06-.41-1.43-1.02-1.67-1.71-3.45-2-5.4-.24-1.62-.1-1.91,1.44-2.33.15-.04.3-.1.45-.14-.02-.07-.01-.13-.03-.14-2.82-2.22-3.46-5.5-4.22-8.72-.21-.9-.44-1.8-.75-2.66-.32-.87-.97-1.44-1.87-1.76-1.74-.62-2.14-1.25-2-3.06.09-1.18-.28-2.13-1.16-2.9-.36-.32-.7-.67-1-1.05-1.33-1.67-1.35-2.74-.14-4.48.57-.81,1.26-1.52,2.18-1.85.75-.27,1.6-.28,2.51-.42-.34-.19-.63-.36-.93-.52-1.46-.77-1.89-1.55-1.68-3.22.07-.57-.09-.94-.59-1.17-.96-.45-1.33-1.24-1.34-2.25,0-.74-.42-1.26-.89-1.79-.58-.66-1.13-1.35-1.62-2.08-.51-.75-.41-1.61-.24-2.46.14-.69.25-1.4.37-2.12-.94-.43-1.78-.35-2.61-.24-2.44.32-4.86.74-7.31.94-1.96.16-3.95.19-5.91.06-1.72-.11-3.41-.56-5.12-.8-1.25-.17-2.29-.76-3.26-1.48-.86-.63-.97-1.08-.68-2.1.09-.31.19-.61.3-.98-.58-.21-1.31.41-1.68-.27-.25-.47-.32-1.04-.52-1.74-.06-.02-.32-.08-.56-.19-.99-.41-1.41-1.2-1.16-2.23.12-.47.18-.87-.01-1.38-.17-.43.05-1,.1-1.59-.78.02-1.72.16-1.9-1.07-.8-.05-1.53-.22-1.8-1.12-.36-1.21.57-1.71,1.43-2.34-.4-.23-.67-.36-.93-.53-1.48-.96-1.48-2.69,0-3.66.39-.26.8-.48,1.56-.94-.45-.24-.7-.36-.93-.51-.46-.3-.85-.63-.66-1.27.2-.67.81-1.17,1.5-1.2.36-.02.72,0,1.08-.01.07,0,.13-.08.25-.16.19-1.01-.15-2.19,1-3,.99-.7,1.99-.76,3.16-.55.18-.87.76-1.18,1.64-1.14.37-1.45,1.1-2.54,2.76-2.5.04-.32.09-.52.09-.72,0-.96.56-1.5,1.4-1.74.69-.2,1.41-.32,2.13-.43.67-.1,1.11-.35,1.24-1.08.17-.93.89-1.29,1.75-1.39.4-.04.81-.02,1.21,0,.91.05,1.79.03,2.41-.78,1.29-.23,2.37-1.3,3.62-1.29,2.14,0,4.11-.27,5.98-1.39.47-.28,1.18-.21,1.77-.2.83.02,1.6-.08,2.33-.5.92-.52,1.85-.46,2.76.03.57.31,1.07.47,1.8.23,1.22-.39,1.95.21,2.18,1.49.07.35.16.7.28,1.21.58.08,1.2.25,1.82.25,1.38,0,2.43.48,3.08,1.72.35.67.83,1.02,1.64.89.42-.07.87.06,1.35.1.53-.79,1.1-1.63,2.12-1.83,1.06-.2,2.15-.35,3.23-.34.51,0,1.1.32,1.5.67,1.34,1.16,2.67,2.34,3.88,3.63.59.62,1.06,1.45,1.3,2.27.44,1.45,1.35,2.41,2.76,3.4-.21-.56-.35-.88-.45-1.2-1.31-3.95-1.8-8-1.34-12.15.22-1.97.29-3.91-.06-5.89-.29-1.65-.33-3.36-.35-5.05-.01-1.14.49-2.12,1.57-2.67.98-.5,2.57-.08,3.51.9.22.23.4.49.64.78.12-.19.24-.31.28-.45.63-2.05,2.23-2.8,4.15-3.21,1.27-.27,2.38-.1,3.41.72.44.35.93.53,1.57.35.89-.24,1.64.22,2.3.79.23.21.41.48.68.79.37-.3.67-.63,1.04-.83.55-.31,1.12-.66,1.73-.78,1.21-.23,2.18.32,2.56,1.48.28.86.35,1.8.46,2.71.1.81.25.98,1.05.91.2-.02.4-.08.6-.09,1.18-.05,2.07.6,2.19,1.78.09.81-.06,1.64-.1,2.48,2.11.27,3.61,1.94,2.28,4.36.3.2.59.49.94.59.82.24,1.46.71,1.9,1.41.61.98,1.27,1.97,1.7,3.03.66,1.66.59,1.98.12,3.77.28.19.61.39.91.62.35.26.74.5,1.02.83.77.93.71,1.92-.17,2.79-.47.47-.9.92-.84,1.76.3.15.65.33.99.51.71.39.82.58.5,1.36-.27.67-.65,1.29-.99,1.93-.22.41-.46.82-.7,1.25.7.55,1.4.37,2.06.38.8.02,1.63-.09,2.4.08,1.82.39,2.66,1.82,2.13,3.63-.27.92-.71,1.79-1.07,2.69-.1.25-.19.52-.28.77.13.12.2.22.3.27,1.16.64,1.23.9.45,2.01-.25.36-.55.69-.82,1.03q.68.89-.05,2.16c.76.22,1.29.68,1.16,1.54-.14.93-.09,1.98-1.25,2.41-.72.27-1.18.79-1.51,1.54.18.08.33.12.46.21.61.41.68.87.13,1.35-.26.24-.61.38-.93.56-.68.4-.8.53-1.25,1.46.2.1.41.2.62.31.85.46,1,.8.62,1.65-.58,1.27-1.27,2.42-2.75,2.86-.49.15-.95.44-1.4.71-.48.28-.98.54-1.03,1.23-.02.21-.33.4-.52.61.65.98.57,1.39-.6,1.61-1.01.19-2.08.16-3.11.1-1.23-.07-2.32.15-3.26.96-.48.41-.76.83-.68,1.55.13,1.32-.46,1.77-1.75,1.86-1.68.11-3.35.38-5.02.59-.2.02-.41.12-.59.09-1.31-.24-2.02.54-2.61,1.52-1.94,3.23-4.75,5.65-7.59,8.03-2.05,1.71-4.28,3.13-6.57,4.49-.73.43-1.39.93-2.22,1.14-.68.18-.83.77-.95,1.42.52-.34,1.04-.68,1.57-1.01,1.2-.74,2.44-1.42,3.59-2.24,1.98-1.42,3.98-1.61,6.17-.3.11-.33.22-.62.31-.92.36-1.15.69-2.31,1.07-3.46.27-.81.86-1.25,1.72-1.3.6-.03,1.23-.14,1.8,0,1.4.32,2.6-.1,3.81-.7.86-.42,1.77-.77,2.69-1.04.89-.26,1.2-.03,1.52.86.39,1.12,1.02,1.48,2.23,1.3.91-.14,1.83-.36,2.74-.36.86,0,1.73.23,2.72.38.04-.11.17-.39.26-.68.42-1.35.89-2.71,1.94-3.71.63-.6,1.36-1.13,2.13-1.52.92-.47,1.74-.97,2.21-1.95.49-1.01,1.33-1.72,2.26-2.31,2.37-1.49,4.96-2.29,7.77-2.27,1.46.01,2.82-.13,4.13-.97,2.62-1.69,6.48-.69,8.05,1.04.58.64,1.18,1.28,1.93,2.09Zm-25.6,28.7c.72-.19,1.3-.57,1.69-1.21,1.18-.44,2.12-1.2,2.9-2.18.27-.15.54-.3.81-.45-.06-.07-.11-.15-.17-.22-.21.23-.42.46-.62.69-.97.73-1.93,1.45-2.9,2.18-.56.4-1.12.81-1.69,1.21-.28.16-.57.32-.85.47.05.07.1.14.15.21.23-.24.45-.47.68-.71Zm-38.08,24.28c-.21.17-.41.35-.75.63,1.61,1.03,2.63,2.43,3.3,4.1.48-.25.7-.47.43-.9-.19-.31-.4-.61-.52-.95-.07-.21.01-.47.03-.71.08-.03.17-.05.25-.08.37.45.74.89,1.17,1.41.24-.26.47-.5.69-.73-.86-.82-1.36-1.74-1.83-2.76,1.97-.41,1.8,1.25,2.44,2.25.62-.85-.27-1.53-.15-2.25,1.03-.64.96.58,1.51.93.75-.8,1.48-1.58,2.33-2.49-.64-.81-1.23-1.61-1.89-2.35-.18-.21-.57-.27-.88-.32-1.11-.19-2.03.29-2.95.82h.02c-1.07,1.13-2.14,2.28-3.21,3.42h.03Zm-23.38-62.5l.04.03c-1.17-.6-2.34-1.19-3.61-1.85-.08.53-.15.94-.18,1.16,1.23.87,2.33,1.61,3.38,2.42,2.5,1.91,2.49,1.93,2.69,2.82-.43-.21-.81-.32-1.11-.55-1.39-1.03-2.76-2.09-4.13-3.13-.33-.25-.65-.5-1.04-.8-.55,1.75.42,2.73,1.39,3.63.74.68,1.19,1.4,1.13,2.4-.05.85.28,1.46,1.04,1.87.6.33.96.86.85,1.6-.14.95.31,1.54,1.14,1.9.74.32,1.4.74,1.96,1.37.32.35.89.59,1.38.65,1.26.16,2.53.2,3.7.28-2.03-2.79-2.05-2.91-.77-4.55-.5-.39-1.01-.78-1.5-1.18-.5-.41-1.02-.8-1.47-1.25-.42-.43-1.1-.66-1.25-1.6,2.06.78,3.42,2.29,5.06,3.4,1.2-1.01,2.6-1.71,3.51-3.12-.41-.79-.8-1.62-1.28-2.41-.72-1.18-1.78-1.81-3.19-1.86-.68-.02-1.37-.06-2.04-.17-1.9-.33-3.79-.7-5.68-1.06Zm25.32-4.96c-.45.03-.36.37-.31.62.17.93.57,1.74,1.22,2.45.59.64.55.77-.06,1.39-.11.11-.27.16-.36.21.22.64.6,1.18.5,1.61-.15.65.1,1.06.37,1.55.68,1.25.54,2.48-.14,3.68-.57,1-1.35,1.78-2.37,2.35-.81.46-1.44,1.05-1.03,2.15.12.32.03.72.07,1.08.05.46.08.94.22,1.38.34,1.07.74,2.13,1.11,3.19.13.37.26.76-.11,1.19-.72-.6-.65-1.47-.91-2.18-.28-.75-.47-1.52-.68-2.25-.8.14-1.47.26-2.18.39.47.8.93,1.55,1.35,2.33.4.75.91,1.46.93,2.66-.45-.58-.78-.93-1.02-1.33-.64-1.07-1.31-2.14-1.82-3.27-.5-1.1-1.41-1.19-2.46-1.41.4,1.12,1.35,1.82,1.34,2.98-.79-.81-1.49-1.68-2.15-2.58-.77-1.06-.99-1.11-2.17-.31.52.75,1.07,1.49,1.54,2.27.48.8,1.16,1.52,1.22,2.79-.49-.5-.86-.81-1.14-1.18-.61-.8-1.27-1.59-1.73-2.47-.56-1.06-1.39-1.5-2.53-1.62.21.47.4.88.58,1.29-.07.04-.15.09-.22.13-.29-.32-.6-.62-.87-.96-.4-.51-.78-1.03-1.14-1.56-.34-.49-.77-.69-1.35-.49-.14.05-.3.06-.58.12.7-.87,1.01-1.04,1.83-.72.66.26,1.31.63,1.87,1.07.83.65,1.66.67,2.59.3.51-.21,1.07-.43,1.61-.43,1,.01,1.99.19,2.99.3.46.05.92.1,1.51.16-.32-.66-.6-1.15-.81-1.66-.5-1.22-.22-2.18.83-2.97.85-.64,1.77-.89,2.84-.71.86.15,1.25-.09,1.67-.84.39-.7.34-1.25-.17-1.89-.13-.16-.29-.28-.42-.44-.93-1.15-.74-1.9.65-2.39-.14-.45-.45-.93-.39-1.35.06-.38.52-.69.83-1.06-.31-.4-.7-.78-.92-1.24-.31-.64-.62-1.32-.7-2.01-.15-1.29.21-1.57,1.49-1.42.16.02.32,0,.5,0,.57-.65.41-1.44.47-2.19.05-.74.16-1.48.27-2.5-2.53,1.12-4.32-.37-6.23-1.56-.39.22-.79.4-1.14.66-.2.15-.43.44-.42.66.05,1.5-.47,2.84-1.01,4.19-.32.82-.4,1.65.22,2.4.78.94.72,1.99.13,2.92-.62.98-.56,1.85-.1,2.84.28.61.49,1.3.53,1.96.07,1.53-.96,2.29-2.43,1.89-.12-.03-.23-.09-.34-.12-1.21-.29-2.32-.27-3.08.95-.17.27-.43.48-.68.69-1.3,1.11-2.59,2.23-3.91,3.31-.78.64-.85.99-.26,1.82.55.77,1.26,1.35,2.16,1.69,1.9.74,3.61,1.77,4.99,3.3,1.49,1.65,3.52,2.07,5.59,2.44-.05-.78-.86-1.19-.79-2.04.85.33,1.13,1.03,1.38,1.68.26.69.66,1.23,1.16,1.77,1.13,1.21,1.87,2.62,1.66,4.37-.03.23-.04.46-.06.69.43-.52.85-1.1.84-1.68-.02-1.19-.28-2.38-.43-3.58-.04-.29,0-.6,0-.89.86,1.14.88,2.49,1.12,3.8.41-.68.86-1.23.63-2.16-.24-1-.08-2.08-.17-3.12-.24-2.58-.98-5.05-1.77-7.51-.07-.23-.07-.48-.11-.72,1.54,1.76,2.27,3.81,2.46,6.05.14,1.58.22,3.17.33,4.96.72-1.54,1.31-2.94,2.02-4.27.44-.82.45-1.51.14-2.38-1.27-3.53-1.74-7.11-.49-10.76.11-.34.09-.81-.06-1.13-1.03-2.22-2.12-4.41-3.18-6.62-.12-.25-.23-.51-.33-.75,1.18,1.03,1.95,2.34,2.55,3.76.28.66.49,1.38,1.23,1.91,0-1.95.07-3.77-.02-5.57-.08-1.79-.32-3.58-.48-5.37.67,2.06.95,4.16.98,6.3.02,1.53-.05,3.07.08,4.59.12,1.42.1,2.81-.21,4.2-.39,1.78-.47,3.59-.32,5.41.02.24.13.46.23.78.95-2.11,1.82-4.09,2.72-6.07.71-1.56,1.12-3.2,1.15-4.9.03-1.57-.02-3.14-.03-4.71,0-.63,0-1.25,0-1.95-1.45.27-2.12-.52-2.64-1.49-.36-.67-.6-1.41-.96-2.08-.52-.97-1.25-.96-1.73.04-.22.45-.28,1-.33,1.51-.04.44.06.88.07,1.33.03,1.66-.41,2.15-2.04,2.29-.08,0-.16.04-.23.06Zm11.36,36.27c-.88,1.2-1.77,2.39-2.64,3.59-.3.41-.16.78.21,1.05.68.51,1.03,1.11.6,1.89,2.29,2.07,1.78,1.82,1.41,3.46.04.07.06.17.12.2,1.4.7,1.72,1.77,1.23,3.22-.12.37,0,.88.16,1.26.37.93.84,1.82,1.23,2.75.25.6.62,1.01,1.24,1.22.86.3,1.71.63,2.54.94.99-.89,1.96-1.77,3.05-2.75-.78-2.14-1.59-4.24-2.31-6.37-.71-2.09-1.32-4.22-1.95-6.34-.07-.25.01-.55.03-.83.11-.02.22-.04.33-.05.15.39.32.77.46,1.16.6,1.71,1.18,3.43,1.81,5.12.52,1.39,1.15,2.75,1.66,4.15.28.78.42,1.61.67,2.61.79-.68,1.47-1.27,2.16-1.88-.53-.97-.97-1.89-.99-3.26.9.91,1.05,1.95,1.63,2.84.42-.3.81-.56,1.07-.75-.84-1.93-1.59-3.74-2.41-5.53-1.19-2.62-1.65-5.37-1.5-8.24,0-.19.11-.37.16-.56.4,4.95,2.1,9.38,4.56,13.68.93-.71,1.72-1.31,2.6-1.99-.65-.49-1.2-.88-1.74-1.3-1.75-1.37-2.76-3.11-2.62-5.4.01-.22.04-.51-.07-.66-.95-1.27-.66-2.66-.46-4.05.01-.1.2-.18.46-.4.12,1.4.22,2.62.33,3.83.93-.73,1.81-1.39,2.64-2.1.15-.13.24-.55.15-.72-.27-.52-.2-.94.19-1.32.41-.41.4-.83.16-1.31-.48-.97-.33-1.9.31-2.72.54-.7,1.15-1.34,1.79-1.95.5-.48.8-1.01.82-1.68.01-.51-.15-1.01-.71-1.13-1.09-.23-2.19-.5-3.22-.18-1.01,2.21-.63,4.58-1.46,6.71-.33-2.27-.44-4.51.95-6.63-.69-.08-1.26-.14-1.93-.22-.08.62-.19,1.17-.22,1.72-.09,1.49-.15,2.98-.24,4.47-.01.23-.12.46-.19.69l-.25-.05c-.45-2.39-.24-4.73.59-6.91-.47-.74-.92-1.44-1.39-2.18-2.11.05-3.63,1.63-5.69,2.29v6.07c-.09,0-.19,0-.28,0-.68-1.91-.52-3.9-.34-5.99-.55.03-1.01.06-1.54.09.18,2.11.28,4.09.54,6.04.26,1.92.68,3.81,1.07,5.91-1.35-1.19-2.38-7.54-2.08-11.95-.33.15-.69.21-.84.41-.42.59-.77,1.19-.63,2,.51,3.02.96,6.04,1.43,9.06.06.42.11.83.16,1.25-.36-.21-.54-.46-.63-.74-.72-2.19-1.17-4.43-1.33-6.74-.04-.5-.12-.99-.2-1.69-.42.64-.7,1.06-1.01,1.55.78,1.68.94,3.44.33,5.24-.01.03.02.08.03.11l.02-.02Zm-46.65,16.03v-.02c-.41.32-.27.73-.19,1.12.53,2.6,1.06,5.2,1.59,7.8.13.61.27,1.23.4,1.84.45-.83.72-1.67.95-2.52.57-2.14,1.07-4.3,1.72-6.41.37-1.18.96-2.29,1.52-3.41.22-.44.53-.91,1.18-.84.35.58-.05.95-.3,1.33-.94,1.42-1.74,2.92-2.16,4.57-.84,3.31-1.65,6.63-2.36,9.98-.28,1.34-.16,2.75-.05,4.31.25-.27.38-.37.45-.5.77-1.36,1.95-2.23,3.33-2.87.58-.27,1.17-.54,1.75-.82.51-.25,1.01-.52,1.17-1.23-.1-.15-.27-.33-.36-.54-.11-.25-.14-.52-.21-.78-1.33.27-1.8-.16-1.43-1.43.24-.83.73-1.58,1.2-2.56-.5-.72.1-1.37.67-2.02.13-.15.26-.31.43-.43.49-.34.63-.81.57-1.51-.04-.03-.19-.1-.3-.21-.81-.87-.85-1.64-.09-2.56.28-.34.6-.66.96-.9,1.32-.89,1.34-.93.56-2.23-.04-.06-.01-.16-.02-.26.05-.09.1-.2.18-.29.1-.12.24-.22.33-.35.48-.71.32-1.08-.54-1.25-.16-.03-.32-.05-.48-.04-.42.01-.92,0-.99-.47-.05-.33.22-.71.38-1.05.06-.14.21-.26.34-.33.84-.43,1.11-1.23,1.39-2.04.21-.61.16-1.21-.25-1.71-.45-.55-1-.31-1.55-.16-.27.08-.76.09-.86-.06-.16-.25-.19-.69-.09-.98.16-.45.48-.83.72-1.25.39-.69.34-1.14-.16-1.63-.86-.83-1.47-.89-2.48-.24-.2.13-.38.3-.59.42-.34.19-.63.12-.8-.24-.1-.21-.15-.44-.19-.55-.56-.17-1.14-.17-1.4-.47-.26-.29-.21-.87-.29-1.33-1.29.53-1.73.32-1.87-1.01-.06-.58.08-1.18.21-1.76.11-.51.38-.98.48-1.49.1-.51-.12-.95-.58-1.23-.45-.27-.76.03-1.07.29-.09.08-.18.16-.27.24-.88.66-1.6.53-2.03-.47-.21-.5-.33-1.1-.28-1.64.06-.67.3-1.33.52-1.97.29-.84.7-1.63.94-2.48.41-1.47.52-2.92-.64-4.23-.48.22-.91.41-1.49.68,0-.37-.03-.62,0-.85.07-.47.3-.96.25-1.41-.17-1.35-.33-2.73-.7-4.03-.58-2.04-3.11-2.76-4.9-1.49-.02,2.88.87,5.56,1.93,8.21.07-.97.13-1.93.2-2.9.24,1.78.37,3.55.53,5.31.31,3.45,1.05,6.83,1.71,10.23.7,3.63,1.3,7.29,1.93,10.94.15.85.25,1.72.38,2.57.29-.29.38-.59.49-.88.97-2.62,2.18-5.11,4.07-7.22.33-.37.6-.83,1.46-.9-.28.5-.42.86-.65,1.14-1.57,1.91-2.81,4.03-3.87,6.25-1.66,3.5-1.48,2.4-.99,5.96.06.44.39.85.59,1.27Zm141.27,19.07c.53.94,1.37,1.36,2.49,1.61,0-.38-.01-.62,0-.85.06-.91.59-1.2,1.37-.75.31.18.56.47.88.64.6.31,1.23.6,1.87.81.21.07.65-.04.73-.2.53-1.05,1.33-.84,2.17-.56.15.05.31.11.47.13,2.27.15,4.54.29,6.84.44.07-1.36-1.07-2.08-1.54-3.02-4.35-.78-8.25-2.34-11.82-4.72.17-.05.31,0,.43.08,3.86,2.06,7.92,3.44,12.31,3.75.17.01.36-.1.59-.18-1.33-.58-2.52-1.16-3.76-1.64-1.99-.77-3.99-1.5-6.01-2.2-3.95-1.37-7.63-3.24-11.06-5.61-2.52-1.74-5.04-3.48-7.78-4.86-.27-.13-.54-.24-1.05-.47,1.32,1.97,2.56,3.7,2.88,5.89-.4-.27-.72-.59-.95-.98-.57-.97-1.06-1.99-1.63-2.96-1.16-1.96-2.52-3.73-4.67-4.74-1.2-.56-2.34-1.26-3.5-1.9-3.18-1.74-6.33-3.52-9.54-5.21-1.35-.71-2.74-1.4-4.2-1.79-2.99-.8-6.01-1.54-9.12-1.73-.56-.03-1.12-.17-1.68-.25.94-.16,1.87-.24,2.77-.14,2,.23,3.98.58,5.98.83,2.84.35,5.48,1.25,7.96,2.67,1.01.58,2.06,1.11,3.1,1.63.24.12.54.24.79.2,1.46-.24,2.92-.51,4.38-.79,1.56-.3,3.12-.61,4.68-.91-2.62,1.09-5.36,1.7-8.42,2.17,1.91,1.07,3.46,2.16,5.28,2.76l-.03-.03c.3.2.61.38.9.59.9.62,1.86.91,2.96.68.31-.07.64-.01.97-.01,0,.07,0,.14,0,.22-.45.1-.91.21-1.58.36.72.44,1.28.81,1.86,1.13.15.08.38.06.57.02,1.34-.28,2.67-.55,4-.86,1.76-.41,3.52-.86,5.28-1.27.38-.09.8-.26,1.39.11-3.45,1.34-6.82,2.1-10.32,2.38.29.3.58.49.87.68,2.41,1.53,4.83,3.05,7.24,4.58,2.01,1.27,4,2.56,6.01,3.83.45.28.89.35,1.47.26,1.31-.2,2.65-.2,3.97-.25.22,0,.45.15.68.23-1.31.59-2.68.37-4,.72.91.46,1.83.84,2.76,1.18.17.06.38.02.57-.01.74-.14,1.46-.38,2.2-.42,1.56-.09,3.13-.09,4.7-.12-.4.15-.8.39-1.22.43-1.43.14-2.88.22-4.32.32-.24.02-.48.06-.72.09,0,.06,0,.13,0,.19,3.14,1.27,6.28,2.54,9.46,3.82.08-1.45-1.46-3.7-3.24-4.85-.59-.92-1.36-1.39-2.51-1.18-.75.14-1.54.17-2.28-.1,0-.1-.01-.19-.02-.29.79-.15,1.59-.29,2.5-.46-.85-.85-1.5-1.58-2.84-1.16-1.25.39-2.6.5-3.92.68-1.08.15-2.18.18-3.27-.07,2.51-.86,5.2-.49,7.72-1.1,0-.11.02-.17,0-.19-1.67-1.57-3.8-2.25-5.92-2.83-.81-.22-1.79.2-2.69.32-.92.12-1.84.24-2.76.33-.29.03-.59-.05-.88-.08,1.58-.89,3.32-.86,4.97-1.14-.13-.61-.25-1.17-.37-1.75-1.06-.35-1.05-.33-2.01.04-1.22.48-2.46.85-3.82.55,1.24-.83,2.77-.65,4.12-1.12-.37-.67-.82-1.26-1.02-1.93-.62-2.05-1.82-3.64-3.51-4.86-2.66.78-5.25.93-6.8.36,1.96-.48,3.93-.45,5.92-1.16-1.58-1.43-3.23-2.4-5.03-3.13-.89-.36-1.7-.33-2.56.04-.77.33-1.58.6-2.39.82-.74.2-1.49.07-2-.54-.59-.7-1.34-.84-2.17-.82-.68.01-1.37.08-2.05.09-.88,0-1.78.06-2.65-.05-1.58-.2-1.78-.43-2.13-2.04-.75.42-1.46.87-2.21,1.23-.73.35-1.42.92-2.58.63.48-.37.78-.67,1.14-.87.67-.37,1.35-.73,2.06-1,1.29-.5,2.39-1.22,3.36-2.24,1.11-1.16,1.01-2.39-.42-3.23-3.95,2.56-9.59,5.31-11.37,5.48,1.67-1.26,3.38-2.12,5.1-2.95,1.73-.84,3.49-1.6,5.13-2.35-.71-.39-1.42-.79-2.21-1.22-1.68,1.01-3.41,2.25-5.49,2.82.63-1,1.68-1.4,2.65-1.9.98-.51,1.97-1,2.99-1.52-.34-.76-.85-.54-1.28-.42-1.07.3-1.95.1-2.75-.72-.63-.65-.93-.63-1.7-.14-.68.43-1.31.94-2,1.36-1.02.62-2.12.95-3.3.79-.47-.84-.15-1.41.49-1.9.38-.29.77-.59,1.15-.88.52-.41.83-.94.98-1.61-.22-.09-.36-.18-.51-.2-.76-.1-1.45-.23-1.46-1.25,0-.18-.36-.4-.59-.54-.49-.3-.62-.7-.43-1.24.08-.22.14-.45.23-.74-1.51-.57-.74-1.56-.37-2.46-.28-.09-.48-.15-.66-.22-.89-.35-1.13-.68-.89-1.55.46-1.66-.19-3.03-.95-4.55-1.66,2.78-3.45,5.27-5.95,7.14,1.23-2.82,3.62-4.85,5.18-7.55-.78.1-1.45.19-2.16.28-.73,1.84-1.97,3.38-3.2,4.92-1.73,2.18-3.47,4.37-5.74,6.01-.83.6-1.35,1.31-1.74,2.21-.5,1.17-1.07,2.31-1.61,3.46,2.71-1.54,4.96-3.61,7.22-5.63,2.24-2.01,4.36-4.16,6.69-6.39-.25,1.06-.78,1.7-1.29,2.37-1.7,2.22-3.77,4.08-5.85,5.93-1.98,1.76-4.1,3.38-6.14,5.09-1.48,1.25-2.87,2.6-4.37,3.82-4.31,3.51-8.66,6.97-13,10.45-1.03.83-2.04,1.67-3.06,2.51,1.54-.08,2.97-.74,4.47-.13-1.75.48-3.5.92-5.28,1.19-.47.07-.83.19-1.16.48-1.56,1.34-3.11,2.68-4.66,4.03-.18.16-.3.38-.53.68,1.08-.14,1.95-.7,2.98-.38-.91.85-2.61,1.33-3.99,1.15-2.73,2.87-5.79,5.48-8.35,8.63.59-.04,1.18-.1,1.6-.39.89-.61,1.69-1.36,2.54-2.03,1.26-1,2.51-2.02,3.81-2.96,1-.72,2.15-1.14,3.4-1,.96.11,1.92.28,2.85.54,2.2.63,3.64,2.06,4.33,4.27.21.67.6,1.28.93,1.96,1.62-.57,3.09-.13,4.56.03.3.03.64.18.86.38,1.35,1.24,3.07.68,4.61.99.09.02.21-.11.32-.14.56-.19,1.12-.48,1.7-.54.74-.08,1.22-.48,1.77-.9,1.43-1.09,2.4-2.4,2.82-4.19.16-.68.25-1.23-.16-1.8-.28-.39-.52-.83-.85-1.16-.56-.54-.8-1.17-.84-1.94-.02-.41-.15-.82-.23-1.23-1.65.3-1.94.26-2.65-.33.94-.37,1.85-.16,2.7-.12.32-.6.58-1.15.88-1.66.35-.59.32-1.13-.04-1.69-.62-.97-.93-2.03-.95-3.2,0-.38-.16-.75-.25-1.15-.97.16-1.8.28-2.63.43-.86.16-1.71.27-2.59.1,1.58-.8,3.32-1.08,4.9-1.64.14-.62.27-1.17.4-1.71l-.03.03c.78-.73,1.56-1.46,2.34-2.19-1.66.18-3.16.6-4.68.91-1.56.32-3.13.25-4.76-.02.12-.14.16-.23.22-.25.15-.05.31-.09.47-.09,2.49.05,4.86-.56,7.24-1.22.98-.27,1.93-.43,3.01-.18.98.22,2.07-.08,3.11-.06.47,0,.93.23,1.39.37.69.21,1.38.43,2.08.64,1,.31,2.11.43,2.97.96,1.01.63,2.03.88,3.16.88.12,0,.24.02.36.04,1.03.19,1.81.64,1.97,1.8.11.79.51,1.43,1.11,1.95,1.36,1.19,2.74,2.35,4.09,3.56,1.82,1.63,3.93,2.8,6.08,3.91.48.25,1.01.38,1.77.67-.91-1.48-1.65-2.69-2.4-3.91,1.1,1.2,2.38,2.26,2.73,3.96.7.2,1.37.39,2.3.66-.77-1.29-1.4-2.37-2.04-3.45,1.28,1.1,2.62,2.14,2.93,3.86.68.4,1.32.74,1.93,1.13.61.39,1.2.82,1.8,1.24-.32-.87-.75-1.59-1.17-2.32-.4-.7-.78-1.41-1.18-2.1-.41-.69-.84-1.37-1.26-2.06.1-.06.19-.12.29-.18,1.55,2.2,3.13,4.38,4.65,6.61.38.56.99,1.11.65,1.96-.04.09.12.29.23.4.43.46.88.9,1.49,1.51,0-.39,0-.53,0-.67-.02-.2-.07-.4-.07-.6-.02-.79.34-1.01,1.05-.62.4.22.79.48,1.26.77.12-1.22-.82-2.01-.84-3.05.23-.02.33-.06.38-.02,2.06,1.27,4.08,2.6,5.54,4.59.69.94,1.37,1.89,2.08,2.82.35.45.69.96,1.4,1,0-.23-.04-.4,0-.54.09-.28.16-.72.34-.79.22-.08.58.13.84.28.2.12.35.33.5.52.49.59.96,1.19,1.44,1.79.33.41.76.7,1.26.52.81-.3,1.39.04,1.99.48.12.11.24.22.36.34ZM38.66,212.81c.47.28.93.62,1.43.85,3.3,1.48,6.67,2.79,9.7,4.85,1.65,1.13,3.13,2.37,4.36,3.92,1.82,2.31,3.65,4.61,5.46,6.92.35.44.69.9.96,1.39,1.4,2.49,2.82,4.97,4.14,7.5,2.13,4.07,4.24,8.14,6.87,11.91,4.33,6.21,8.01,12.83,11.91,19.3,1.54,2.56,3.13,5.07,5.03,7.37.29.35.68.61,1.03.91.12.23.23.45.35.68.06-.05.12-.1.18-.15-.19-.17-.38-.34-.56-.5-.12-.25-.22-.5-.37-.73-.65-1.02-1.39-1.99-1.96-3.04-2.97-5.45-6.25-10.71-9.71-15.86-4.01-5.95-7.78-12.05-11.03-18.44-1.87-3.68-3.98-7.17-6.4-10.51-1.44-1.99-2.69-4.11-3.55-6.43-.38-1.01-.79-2.04-1.35-2.95-.53-.85-.69-1.69-.52-2.64.32-1.82,1.27-3.33,2.57-4.55,1.4-1.31,3.1-2.3,4.09-4.03.09-.17.29-.28.45-.4,3.19-2.5,5.62-5.68,7.55-9.19,2.22-4.03,3.05-8.37,2.12-12.96-.23-1.14-.4-2.31-.72-3.43-.51-1.82-1.03-3.64-1.72-5.4-.99-2.57-2.55-4.72-4.97-6.2-1.09-.67-2.04-1.58-3.09-2.32-.58-.41-1.24-.74-1.88-1.04-.91-.43-1.83-.82-2.76-1.19-.36-.14-.76-.27-1.13-.24-1.6.14-3.2.34-4.8.51-.21.02-.42-.03-.63-.05,0-.09-.01-.18-.02-.27,1.61-1.05,3.47-.8,5.24-.81.09-.3.17-.74.23-.74.64.02.56-.48.65-.84.33-1.29.66-2.57.98-3.86.21-.85.4-1.71.6-2.57-.09-.03-.18-.06-.28-.09-.71,1.7-1.41,3.4-2.13,5.1-.23.55-.46,1.12-.77,1.63-.15.24-.58.59-.7.53-.59-.3-.92.26-1.5.38-.12-.52-.29-.97-.32-1.43-.15-2.45-.38-4.91-.34-7.36.04-2.54.48-5.03,1.58-7.39.66-1.42,1.23-2.9,1.62-4.41.74-2.9,2.27-5.4,3.77-7.92,1.22-2.05,2.53-4.03,4.33-5.63.18-.16.29-.39.44-.57,2.06-2.37,4.07-4.79,6.2-7.1,1-1.08,2.26-1.91,3.35-2.93.9-.84,1.68-1.82,2.58-2.68,3.56-3.39,7.07-6.83,10.74-10.1,2.97-2.65,6.15-5.08,9.22-7.62.34-.28.62-.61.93-.92.28-.18.56-.37.84-.55-.05-.07-.1-.14-.15-.21-.25.23-.5.46-.76.68-.33.21-.68.41-1,.64-.81.6-1.62,1.2-2.41,1.82-1.94,1.5-3.9,2.99-5.81,4.52-2.29,1.84-4.51,3.78-6.82,5.59-2.73,2.15-5.28,4.47-7.59,7.07-1.71,1.92-3.62,3.66-5.46,5.47-1.54,1.52-3.19,2.94-4.61,4.57-2.72,3.14-5.18,6.49-7.32,10.06-1.03,1.71-2.12,3.43-2.48,5.46-.03.17-.21.31-.47.67-.17-.48-.39-.79-.38-1.09.03-.8.05-1.63.26-2.39,1.26-4.67,2.03-9.44,3.02-14.16.06-.29.04-.6.06-1.02-1.2.66-1.74-.18-2.38-.96-.19.99-.31,1.83-.5,2.65-1.1,4.72-1.78,9.51-2.26,14.31-.39,3.91-.33,7.88-.3,11.82.02,3.23-.02,6.44-.48,9.64-.08.59-.13,1.2-.89,1.42-.21.06-.41.39-.48.63-.04.13.18.35.29.53-1.36.61-4.21,1.22-5.29,1.05,1.36-.88,2.72-1.12,4.12-1.38-.04-.19-.02-.4-.12-.49-.69-.65-.96-1.51-1.05-2.38-.23-2.12-.38-4.25-.54-6.37,0-.13.16-.28.25-.41.51,2.5.49,5.03,1.38,7.41.22-.37.36-.74.42-1.12.32-2.07.72-4.13.9-6.21.26-3.09.26-6.19-.07-9.29-.19-1.8-.23-3.61-.25-5.42-.02-1.17.11-2.33.18-3.5.2-3.23.71-6.4,1.54-9.52.81-3.03,1.67-6.05,2.49-9.08,1.17-4.33,1.83-8.74,2.1-13.22.05-.82.12-1.65.18-2.47.08,0,.17-.01.25-.02.05.49.15.98.14,1.47-.06,4.28-.62,8.51-1.51,12.69-.06.29-.07.59-.11.89.68-.07,1.24-.13,1.94-.21-.13.43-.2.65-.27.85-.55.16-1.27-.17-1.53.53-.22.59.31.94.62,1.35.33.43.63.89.19,1.41-.74.9-.26,1.61.23,2.29,1.08-.08,1.23-1.03,1.75-1.6,2.21-2.45,4.27-5.05,6.86-7.13.58-.47,1.09-.99,1.46-1.65-1.36.55-2.69.99-3.93,1.62-.65.33-1.28.88-1.67,1.5-.42.65-1.13.67-1.63,1.09-.02.02-.3-.26-.4-.35.45-.68.84-1.26,1.23-1.85-.34-.31-.51-.56-.52-.82-.02-.93.04-1.85.04-2.78,0-3.69,0-7.39,0-11.23-.59.07-1.11.14-1.64.21.05.59.13,1.02.12,1.46,0,2.66.04,5.32-.08,7.98-.08,1.68-.38,3.36-.64,5.02-.08.51-.34.99-.52,1.49-.1-.02-.2-.04-.3-.07.16-2.55.36-5.09.49-7.64.13-2.58.38-5.15.41-7.9-2.21,1.03-3.44,2.49-3.64,4.77-.42,4.66-1.17,9.27-2.53,13.75-1.16,3.82-1.89,7.74-2.5,11.68-.32,2.07-.71,4.12-1.06,6.19-.41,2.38-.97,4.74-1.18,7.14-.26,2.88-.3,5.79-.27,8.69.02,2.29.28,4.57.45,6.86.07,1.02.17,2.03.26,3.11-.37-.1-.56-.15-.75-.2-.11-.54-.23-1.08-.34-1.59-1,.08-1.02.1-1.57-.52-2.34-2.61-4.68-5.22-6.13-8.48-.36-.81-.8-1.59-1.3-2.32-1.62-2.38-2.57-5.02-2.94-7.84-.35-2.68-.7-5.35-1.66-7.89-.25-.67-.2-1.55-1.18-1.75-.14-.03-.23-.31-.34-.48-.61-1-1.23-1.99-1.83-2.99-.5-.85-.99-1.7-1.48-2.56.09-.06.17-.11.26-.17,1.09,1.51,2.18,3.01,3.26,4.52.08-.46.02-.88-.04-1.3-.31-1.94-.78-3.87-.56-5.87.12-1.12.16-2.25.29-3.37.09-.78-.06-1.38-.71-1.91-.49-.39-.91-.92-1.25-1.46-1.18-1.89-2.13-3.88-2.68-6.05-.06-.23-.05-.47-.08-.71.79,1.28,1.39,2.6,2.06,3.87,1.64,3.09,1.65,3.09,2.46,3.49,0-.08.01-.18-.03-.23-1.46-1.79-2.01-4-2.88-6.08-1.14-2.71-2.37-5.38-3.7-7.99-1.47-2.88-3.39-5.47-5.42-7.99-.82-1.01-1.59-2.07-2.38-3.1.37.01.59.16.76.34,3.77,3.88,6.76,8.32,9.06,13.19,1.29,2.73,2.32,5.57,3.47,8.36.16.38.35.76.52,1.13.17-.3.16-.54.11-.76-.49-2.2-.99-4.4-1.5-6.59-.06-.26-.14-.57-.32-.75-1.24-1.21-1.94-2.75-2.69-4.27-.11-.22-.14-.47-.21-.71.05-.02.1-.04.15-.07.91,1.44,1.82,2.88,2.73,4.32.06-1.09-.12-2.08-.23-3.07-.35-3-.67-6-1.01-9-.12-1.09-.05-2.27-1.25-2.92-.16-.09-.27-.3-.37-.47-1-1.75-2-3.49-2.98-5.25-.12-.21-.13-.49-.2-.73.08-.04.16-.09.25-.13,1.24,1.87,2.48,3.73,3.72,5.6.12-.48.1-.88.02-1.26-.42-2.01-.94-4-1.27-6.02-.4-2.5-.64-5.03-.98-7.54-.06-.42-.22-.84-.42-1.22-1.37-2.65-2.28-5.4-2.09-8.43.01-.21-.02-.42-.05-.92-1.1,1.41-1.62,2.71-1.54,4.22.07,1.38.43,2.7.99,3.97.34.77.71,1.54.96,2.34.16.52.23,1.11.18,1.65-.07.65-.63.86-1.16.46-.31-.24-.59-.57-.77-.91-.57-1.05-1.57-1.6-2.5-2.22-.22-.14-.54-.2-.8-.18-1.93.13-3.02,2.26-2.02,3.89.53.86,1.05,1.72,1.51,2.61.18.36.35.88.23,1.22-.21.57-.79.39-1.27.29-.16-.03-.32-.04-.48-.02-.58.07-.95.53-.81,1.1.07.3.22.67.45.83,1.04.67,1.04,1.84,1.41,2.82.26.71-.17,1.24-.97,1.28-.34.02-.69,0-1.01,0-.03.19-.08.3-.05.34.28.38.58.75.87,1.13.32.42.63.86.35,1.43-.24.5-.71.43-1.15.45-.8.04-1.3.48-1.5,1.29-.21.83.03,1.36.8,1.81.45.26.93.49,1.34.81.77.61.84,1.19.29,1.99-.18.26-.42.49-.63.73-.77.92-.84,1.41-.08,2.35.63.77,1.38,1.46,2.15,2.11.83.7,1.74,1.31,2.6,1.97,1.76,1.35,3.09,3.04,4.06,5.04.76,1.57,1.19,3.24,1.49,4.96.05.3.15.63.34.85,1.96,2.28,3.48,4.83,4.63,7.6.1.24.13.51.2.77-.06.03-.12.05-.17.08-1.52-2.47-3.05-4.93-4.61-7.47-.33,2.39-.08,3.26,1.43,4.73,1.14,1.11,1.99,2.42,2.76,3.8.19.34.5.73.07,1.33-1.57-1.62-2.21-3.79-3.96-5.49.29,2.1.54,3.94,1.22,5.66,1.16,2.96,2.3,5.94,3.95,8.68.27.45.46.94.65,1.43,1.18,3.04,2.32,6.1,3.52,9.13.73,1.83,1.21,3.76,2.28,5.45,1.79,2.82,3.52,5.68,5.34,8.48.86,1.32,2.01,2.39,3.25,3.28.44-.07.72-.65,1.14-.14.17,1.31-.59,2.07-1.56,2.77-1,.72-1.94,1.51-3.12,2.44.94-.06,1.57-.11,2.2-.15,0,.11.02.21.03.32-.9.11-1.8.3-2.7.3-.56,0-1.04.09-1.46.42-1.27.99-2.54,1.97-3.78,3-.45.37-.78.88-1.28,1.44,1.59-.25,2.97-.54,4.36-.67,1.34-.12,2.71-.5,4.33.09-.4.19-.53.3-.67.31-2.52.27-5.04.53-7.56.82-.42.05-.93.12-1.2.39-.58.58-1.02,1.3-1.54,2,.43.12.69.2,1.23.36-.52.15-.74.27-.96.27-.6,0-.95.26-1.15.84-.48,1.41-1,2.8-1.48,4.21-.09.28-.06.6-.08.87.67-.05,1.24-.08,1.8-.12.02.11.04.21.06.32-.69.22-1.39.44-2.07.65-.62,3.29-.58,6.56-.14,9.79.31,2.26.91,4.49,1.48,6.71.24.92.67,1.81,1.14,2.64.53.94,1.16,1.84,1.83,2.7.69.88,1.48,1.69,2.22,2.53h0c1.22,1.34,2.61,2.43,4.33,3.06.13.03.26.05.39.08Zm5.43-159.97c-1.28-1.44-2.57-2.73-4.19-3.38-1.62-.65-3.41-.89-5.15-1.2-1.94-.35-3.92-.47-5.85-.87-2.13-.44-4.22-1.05-6.31-1.63-1.01-.28-1.99-.64-2.97-1.01-.24-.09-.41-.35-.62-.53.38-.21.66-.26.91-.2.54.15,1.07.36,1.6.53,2.99.95,5.97,1.94,9.11,2.32,2.43.3,4.84.76,7.27,1.15.1.02.21-.05.46-.1-.27-.19-.43-.38-.64-.44-1.67-.57-3.35-1.13-5.04-1.67-1.8-.58-3.6-1.14-5.41-1.7-1-.31-1.99-.68-3.01-.87-1.82-.34-3.66-.58-5.49-.84-2.24-.33-4.43-.83-6.52-1.72-.41-.18-.8-.43-1.2-.64.04-.1.09-.2.13-.3,2.1.64,4.18,1.38,6.31,1.89,2.11.5,4.28.74,6.42,1.1-.23-.42-.53-.62-.82-.81-1.69-1.09-3.46-2.08-5.07-3.28-3.3-2.45-6.9-4.28-10.75-5.67-.62-.22-1.22-.49-1.83-.73,3.74.49,7.18,1.76,10.36,3.76,2.73,1.71,5.48,3.39,8.22,5.08,2.1,1.29,4.3,2.33,6.73,2.91,1.56.37,3.05,1.01,4.57,1.52.14.05.29.05.59.1-.22-.35-.35-.59-.5-.8-1.35-1.85-2.71-3.7-4.07-5.54-3.11-4.2-7.35-6.27-12.5-6.55-1.71-.09-3.37-.31-4.96-.94-1.83-.73-3.64-1.51-5.47-2.25-.4-.16-.84-.28-1.27-.35-.89-.14-1.49.54-2.18.9-.55.29-.21.95-.16,1.45.09,1.01-.53,1.8-1.53,1.95-.33.05-.66.08-1.01.11.07.2.07.3.12.34,1.15,1.01,1.16,1.8.04,2.74-1.33,1.12-1.32,1.24.12,2.4.72.58.78,1.17.16,1.84-.13.15-.31.26-.47.38-.37.28-.98.45-.74,1.07.23.6.74.24,1.15.19.77-.09.95.1.87.95,0,.11,0,.21,0,.39.28-.04.51-.08.74-.11,1.02-.13,1.32.18,1.17,1.2-.05.34-.16.77-.01,1.03.32.57.19,1.07.04,1.62-.29,1.02-.18,1.15.89,1.19.77.03.98.31.85,1.07-.08.45-.14.91-.22,1.41.27,0,.38.01.5,0,1.42-.2,1.68.11,1.24,1.48-.39,1.21-.28,1.43.94,1.83.27.09.55.13.82.18,2.18.36,4.41.43,6.53,1.14.41.14.88.1,1.32.1,3.27-.02,6.53-.12,9.75-.7,2.8-.5,5.42-.2,7.86,1.44,1.38.93,3.02,1.33,4.65,1.6,2.2.37,4.42.66,6.77,1.01-.6-1.39-1.19-2.78-1.8-4.16-.07-.16-.26-.3-.43-.39-1.17-.64-2.37-1.19-3.7-1.41-.83-.14-1.68-.23-2.51-.36-2.86-.45-5.71-1-8.58-1.33-1.81-.21-3.59-.6-5.49-.39-2.67.3-5.39.24-8.08.26-1.62.01-3.21-.29-4.71-.95-.18-.08-.34-.22-.5-.34.98-.06,1.89.09,2.8.19.96.1,1.92.18,2.89.21.93.04,1.86.05,2.78,0,.92-.05,1.83-.19,2.75-.29-.18-.29-.36-.38-.54-.45-2.13-.89-4.11-2-5.91-3.48-2.24-1.84-4.5-3.69-7.39-4.52,1.34-.08,2.55.37,3.66,1.02,1.56.91,3.12,1.86,4.57,2.93,3.93,2.91,8.23,4.63,13.17,4.79,2.81.09,5.6.52,8.35,1.23,1.69.44,3.46.57,5.4.88Zm-8.58,62.94c.46.15.87.19,1.19.39.46.29.24.79.22,1.22,0,.11.09.22.13.32.48,1.14.34,1.79-.64,2.48-.52.37-1.12.63-1.7.89-2.6,1.12-4.02,3.2-4.39,5.89-.18,1.28.09,2.64.3,3.94.57,3.57,1.35,7.12,1.8,10.71.36,2.88,1.26,5.55,2.26,8.23.08.22.24.42.36.63.82,1.48,1.63,2.96,2.48,4.42.44.76.89,1.53,1.42,2.23.76.99,1.6,1.92,2.42,2.86.66.75,1.35,1.49,2.02,2.23-.38-2.69-.56-5.3-.48-7.91.09-2.94.17-5.88.42-8.8.26-2.92.7-5.83,1.11-8.74.51-3.58.75-7.21,1.82-10.7.11-.37.07-.8.04-1.2-.13-1.6-.26-3.21-.44-4.81-.04-.34-.17-.75-.41-.96-1.49-1.29-3.01-2.56-4.97-3.1-1.46-.4-2.93-.76-4.48-1.15-.14.29-.29.6-.45.92Zm8.86-64.94c.27-1.38.51-2.6.73-3.82.21-1.1.56-2.21.57-3.31.03-2.9,0-5.8-.2-8.69-.14-1.97-.63-3.94-1.96-5.5-1.99-2.31-2.67-4.99-2.57-7.95.04-1.15.39-2.21,1.07-3.15.05.26.01.49-.04.72-.78,3.11-.4,5.98,1.66,8.54.79.98,1.46,2.03,1.85,3.23.09.28.24.55.45,1,.14-.8.18-1.41.35-1.98.28-.96.53-1.95.97-2.84.57-1.17.97-2.37,1.24-3.64.2-.94.01-1.56-.64-2.35-.88-1.07-1.75-1.77-3.17-1.9-1.18-.11-2.04-.81-2.41-2.04-.21-.72-.65-.92-1.38-.57-.44.21-.76.16-1.11-.08-.37-.24-.72-.52-1.08-.76-.72-.48-1.34-.53-1.98.07-.75.7-1.6.92-2.56.76-1.25-.21-2.32.22-3.26.94-.73.55-1.46.74-2.36.59-1.47-.25-2.86-.11-3.83,1.12.87,1.56,1.74,3.1,2.6,4.65.78,1.41,1.47,2.87,2.33,4.23,1.5,2.38,3.81,3.67,6.67,4.72-.35-.75-.55-1.26-.82-1.73-.5-.87-1.02-1.74-1.59-2.57-1.29-1.87-2.23-3.92-3.04-6.03-.43-1.11-.67-2.29-.99-3.43.1-.04.2-.07.31-.11.2.54.42,1.07.61,1.62,1.01,2.87,2.29,5.59,4.13,8.02.15.2.35.37.66.69-.09-1.59.33-2.83,1-4,.8-1.41,1.14-2.93,1.04-4.53-.07-1.08-.27-2.15-.42-3.23-.05-.37-.11-.73-.16-1.1.31.05.45.15.49.28,1.03,3.08,1.29,6.14-.19,9.16-.23.47-.4.97-.62,1.44-.58,1.29-.46,2.6-.04,3.89.29.88.6,1.75,1,2.58,1.48,3.08,1.97,6.36,2.02,9.73.03,2.12.93,3.88,2.45,5.34.19.18.43.31.7.49.2-1.19.39-2.29.63-3.66.2.42.33.58.35.75.08,1.17.05,2.32-.46,3.43.35.32.67.61,1.04.95Zm61.36,72.4c.3.53.54.89.72,1.29.6,1.36,1.19,2.72,1.75,4.09.1.25.01.57.01.86-.09.02-.18.04-.27.06-1.16-1.76-1.54-3.91-2.66-5.81-.56.17-1.11.34-1.68.52.4,1.15.8,2.16,1.1,3.21.29,1.01.63,2.03.22,3.13-1-1.93-1.28-4.08-2.01-6.08h-1.76c.33.95.69,1.8.91,2.69.21.84.68,1.7.16,2.91-.28-.57-.49-.9-.61-1.25-.35-1.07-.73-2.14-.96-3.24-.28-1.34-1.1-2.03-2.46-2.42.29.85.55,1.6.8,2.35q.47,1.43.21,2.3c-.15-.31-.3-.54-.38-.8-.37-1.23-.78-2.46-1.06-3.71-.14-.62-.43-.93-1-1.01-.33-.05-.68,0-1.09,0,1,3.2,2.31,6.23,2.16,9.6-.3-.34-.49-.71-.6-1.11-.65-2.37-1.27-4.74-1.91-7.11-.09-.33-.21-.65-.4-1.21-.55.51-.93.86-1.33,1.23-.08-.02-.24,0-.3-.08-1.13-1.24-1.97-2.63-2.13-4.35-.03-.3-.1-.62-.23-.9-.18-.39-.5-.73-.65-1.13-.27-.74-.81-1.12-1.52-1.23-.99-.16-2-.23-3-.3-.19-.01-.39.12-.68.22.65.72,1.45,1.18,1.8,2.32-1.26-.41-1.7-1.51-2.69-2-.38.25-.79.53-1.23.82.36.38.62.66,1.07,1.15-.74-.13-1.2-.21-1.72-.31-.15.17-.4.35-.51.59-.36.8-.72,1.61-1,2.45-.51,1.54-1.23,2.83-2.86,3.51-1.06.44-1.9,1.36-3.09,1.59-.14.03-.27.18-.38.29-1.46,1.38-2.73,2.92-3.79,4.63-.15.24-.2.53-.39,1.03,1.09-.81,1.93-1.5,2.83-2.09,3.19-2.11,6.41-4.19,9.61-6.27.36-.24.7-.43.86-.93.19-.61.76-.77,1.39-.59.67.2,1.08.68,1.34,1.3.51,1.22.65,2.49.35,3.78-.14.59-.34,1.16-.46,1.75-.37,1.71.36,3.01,1.97,3.6,1.41.51,1.69.97,1.77,2.5.08,1.5.62,2.83,1.75,3.85.72.65,1.58.98,2.61.96-.2-1.12-.41-2.08,0-3.27.63.98.49,1.94.74,2.8.17-.32.2-.63.29-.93.16-.53.27-1.11.55-1.58.26-.43.26-.78.16-1.24-.68-2.98-1.34-5.96-1.99-8.95-.11-.52-.16-1.06-.26-1.67.23.09.35.1.36.15.45,1.41.96,2.82,1.33,4.25.53,2.1,1.27,4.17.98,6.33.53.14.99.2,1.41.38,1.68.7,2.54.12,2.49-1.74,0-.04-.01-.08-.01-.12-.01-.96.36-1.32,1.32-1.23.47.04.93.15,1.46.24v-1.75c.09-.01.17-.02.26-.03.16.59.33,1.18.52,1.87,1.95-.02,3.59-.6,4.82-2.23.51-.67.65-1.3.51-2.12-.31-1.8-1.17-3.4-1.75-5.11-.1-.29-.27-.56-.41-.84-.43.05-.79.09-1.36.16Zm-27.87-62.34c.08.08.15.17.23.25.84-.6,1.7-1.17,2.52-1.8,1.51-1.17,2.7-2.63,3.81-4.18,2.44-3.44,5.81-6.03,8.49-9.25.12-.15.3-.29.48-.35.16-.05.43-.05.53.05.1.11.12.37.07.53-.05.18-.21.34-.34.49-.69.73-1.4,1.44-2.1,2.17-1.92,2.01-3.86,3.99-5.74,6.04-.62.68-1.07,1.51-1.61,2.26-1.6,2.24-3.64,3.96-6.08,5.24-.81.43-1.61.88-2.18,1.67-1.62,2.26-3.29,4.48-4.93,6.72-1.66,2.27-3.11,4.66-4.33,7.24,1.28-1.29,2.89-1.99,4.46-2.78.25-.13.5-.27.71-.46.23-.21.48-.44.61-.72.52-1.17,1.3-2.12,2.25-2.95.97-.85,1.91-1.73,2.86-2.6.2-.19.48-.37.56-.61.61-1.86,2.02-3.07,3.43-4.28,1.75-1.51,3.71-2.7,5.76-3.75.3-.16.59-.35.88-.52-.04-.08-.07-.17-.11-.25-.71.25-1.41.5-2.12.74-.42.14-.84.31-1.27.36-.56.06-.84-.34-.61-.85.16-.36.42-.68.66-1,.37-.48.81-.91,1.13-1.41,1.16-1.88,2.89-3.12,4.73-4.22.45-.27.88-.56,1.34-.82,1.25-.72,2.51-1.43,3.78-2.13.49-.27,1.04-.45,1.52-.73.7-.39,1.15-.97,1.21-1.71-.68-1.06-1.89-.31-2.74-.97.26-.41.5-.77.71-1.15.71-1.24.33-2.37-.96-2.99-.81-.39-1.63-.42-2.46-.1-.3.11-.59.27-.9.34-.76.17-1.28-.27-1.22-1.05.03-.4.19-.78.27-1.18.15-.76,0-1.04-.69-1.32-1.78-.72-4.27.27-5.02,2.02-.68,1.59-1.29,3.21-1.97,4.8-1.18,2.78-2.22,5.62-4,8.11-.49.69-.34,1.56-.02,2.53.24-.43.4-.7.55-.98,1.25-2.41,2.71-4.67,4.8-6.46,1.09-.94,1.85-2.12,2.48-3.39.34-.69.64-1.39.99-2.07.17-.33.4-.63.6-.95.1.04.19.08.29.12-.04.28-.03.58-.14.84-.49,1.15-.95,2.32-1.55,3.41-.48.87-1.04,1.75-1.75,2.44-1.85,1.82-3.54,3.75-4.82,6.01-1.04,1.85-2.02,3.74-3.03,5.62ZM20.53,20.72c.12.07.28.12.36.23.38.52.77,1.04,1.09,1.6,1.39,2.46,2.72,4.94,3.04,7.82.03.24.2.55.4.68,1.4.88,2.37,2.19,3.38,3.43,2.12,2.63,4.17,5.32,6.23,8.01.95,1.25,2.04,2.34,3.32,3.36,0-1.48-.01-2.8,0-4.12.02-1.66-.11-3.29-.55-4.91-.43-1.59-1.39-2.62-2.81-3.43-1.49-.85-2.93-1.85-4.25-2.95-1.81-1.5-2.74-3.65-3.81-5.68-1.01-1.91-2.02-3.83-3.03-5.76-.27.08-.47.08-.56.17-.68.69-1.51.85-2.43.83-.36,0-.71.12-1.07.17-.68.11-1.19.42-1.44,1.12-.29.8-.92,1.18-1.74,1.3-.64.09-1.28.18-1.91.32-1.09.24-1.32.49-1.37,1.62-.03.67-.3,1.12-.95,1.19-1.03.12-1.51.79-1.91,1.63-.14.3-.39.72-.65.76-.69.11-.81.54-.9,1.23.84.3,1.7.61,2.57.9,2.84.93,5.68,1.8,8.74,1.53.63-.06,1.3.04,1.91.22,1.57.46,3.11,1,4.75,1.53-.43-.7-1.05-1.16-1.67-1.65-1.01-.79-2.02-1.6-3.03-2.4-2.27-1.8-4.44-3.74-7.22-4.78-.1-.04-.18-.13-.45-.33,2.05.27,3.54,1.2,4.98,2.23,1.45,1.05,2.86,2.16,4.29,3.24-.46-3.33-1.88-6.21-3.31-9.14Zm50.64,77.68q-.83-1.04-.08-2.35c-.04-.06-.08-.14-.14-.18-1.63-1.22-1.76-1.91-.56-3.6.63-.89,1.33-1.72,1.97-2.6,1.07-1.46.67-2.94-.1-4.32-.67-1.19-1.93-1.18-3.11-1.11-.42.02-.87.19-1.25.4-1.19.67-2.38,1.35-3.51,2.12-1.16.79-2.19,1.8-3.39,2.52-1.39.83-2.39,1.98-3.39,3.21-1.64,2.03-2.68,4.39-3.8,6.71-.04.09,0,.22,0,.42.58-.31,1.09-.62,1.63-.85.53-.23,1.05-.7,2.02-.3-.62.37-1.02.59-1.4.83-.94.61-1.89,1.21-2.8,1.86-.43.31-.7.76-.66,1.43.69-.43,1.32-.83,1.96-1.22,1.65-1,3.39-.99,5.09-.25,1.17.51,2.26,1.23,3.39,1.85,1.31.71,2.59,1.49,3.94,2.1,1.58.72,3.18.89,4.58-.49.81-.8.82-1.24-.02-1.99-.48-.43-.99-.84-1.39-1.33-.65-.81-.57-1.41.17-2.12.26-.25.54-.47.87-.75ZM73.36,1.94c-.07.02-.15.03-.22.05,0,.3-.03.61,0,.91.31,2.7.18,5.38-.28,8.06-.38,2.23-.62,4.48-.31,6.73.48,3.51,1.02,7,1.57,10.5.49,3.14.79,6.23-.94,9.16-.34.57-.19,1.29.09,1.83.86-.47,1.62-1.08,2.47-1.3,1.12-.28,1.51-.92,1.8-1.95.67-2.44,1.31-4.89,2.67-7.09.93-1.52,1.25-3.22.92-5-.34-1.86-.69-3.71-1.12-5.55-.11-.47-.47-.94-.83-1.28-1.76-1.62-3.05-3.54-3.64-5.86-.54-2.1-.95-4.24-1.43-6.35-.22-.96-.49-1.91-.73-2.87Zm-23.72,97.54c-.2-.46-.24-.78-.43-.92-1.77-1.35-2.52-3.26-3.11-5.31-.83-2.9-1.66-5.82-3.25-8.43-.86-1.41-1.75-2.8-2.62-4.21-.11-.18-.2-.38-.3-.57.07-.05.13-.1.2-.15.45.49.99.92,1.33,1.47,1.16,1.88,2.41,3.74,3.32,5.74.93,2.04,1.55,4.23,2.22,6.37.4,1.3.87,2.52,1.85,3.51-.12-1.38-.41-2.72-.55-4.07-.31-2.91-1.31-5.53-2.89-7.98-1.33-2.06-2.5-4.22-3.72-6.35-.11-.19-.14-.44-.21-.66,1.56,2.11,3.01,4.23,4.42,6.39,1.26,1.93,2.37,3.94,2.84,6.23.18.86.34,1.73.55,2.86.13-.53.23-.82.27-1.12.23-1.55-.06-3.04-.52-4.52-.91-2.92-1.79-5.85-2.65-8.79-.27-.92-.56-1.87-.58-2.82-.02-.51.08-.99-.38-1.25-.43-.24-.95-.34-1.44-.44-.45-.09-.98,0-1.38-.18-1.08-.5-2.18-.66-3.36-.77-1.38-.13-2.34.43-3.23,1.28-1.57,1.49-1.59,2.28-.19,3.89.08.09.16.19.24.27,1.13,1.05,1.63,2.34,1.63,3.89,0,1.3.38,1.69,1.68,1.91,1.16.2,2.07.78,2.54,1.83.46,1.02.87,2.09,1.09,3.18.42,2.12,1.12,4.12,2.14,6.01.93,1.72,2.3,2.98,4.47,3.71Zm32.73-59.67c-.56-.42-.88-.11-1.19.13-.31.25-.57.57-.88.82-.63.5-1.23.33-1.53-.41-.07-.18-.1-.39-.13-.59-.18-1.14-.36-1.45-1.73-.81-.59.27-1.17.77-1.53,1.32-.6.89-1.15,1.86-1.5,2.87-.73,2.09-1.3,4.22-1.95,6.34-.09.31-.17.63-.34.9-.43.69-.43,1.43-.39,2.21.22,3.61.46,7.23.57,10.85.05,1.67-.2,3.35-.31,5.05.69-.87,1.55-1.63,1.55-2.94,0-.67.18-1.35.31-2.02.04-.19.18-.37.27-.55.07.01.13.03.2.04v2.03c.67-.59,1.39-1.15,1.41-2.03.05-2.82.03-5.63.01-8.45,0-.58-.08-1.15-.13-1.73.97,2.83,1.3,5.73,1.09,8.86.28-.23.39-.28.45-.37,2.11-3.33,1.99-2.53,1.71-6.13-.26-3.26-.13-6.44,1.83-9.27.09-.13.15-.28.23-.43.88-1.81,1.63-3.66,1.98-5.68Zm-1.65-36.76c-.1,1.08-.21,2.06-.27,3.05-.11,1.65-.31,3.3-.24,4.94.14,3.55.8,7.02,1.64,10.47.77,3.16.48,6.15-1.47,8.86-.22.3-.36.66-.54,1,.43-.05.7-.2.93-.39,1.33-1.14,2.4-2.47,3.23-4.02,2.02-3.82,3.64-7.8,4.55-12.03.26-1.21.38-2.46.59-3.69.22-1.25.47-2.5.71-3.79-.14-.03-.3-.09-.45-.09-2.09-.07-2.36-.37-2.49-2.48-.04-.66-.28-1.32-.49-1.96-.16-.46-.57-.64-1.05-.67-1.29-.07-2.68,1.1-2.83,2.39-.08.71-.17,1.41-.8,1.99-.54-.76-.33-1.48-.18-2.17.15-.66-.1-1.05-.83-1.39Zm-27.24,159.19c.09.02.19.04.28.06.12-.24.26-.47.36-.72.98-2.6,1.97-5.19,2.92-7.8,1.03-2.84,2.68-5.3,4.6-7.6.52-.62,1.02-1.24,1.54-1.86.72-.87,1.43-1.74,2.15-2.61,1.31-1.55,2.94-2.74,4.49-4.03,3.21-2.69,6.37-5.44,9.78-7.89,1.73-1.24,3.37-2.6,5.08-3.88.63-.47.67-1.04.51-1.71-.28-1.16-.83-1.32-1.76-.59-1.94,1.51-3.89,3-5.88,4.43-1.63,1.17-3.35,2.24-5.01,3.37-3.83,2.62-6.94,5.99-9.88,9.54-.95,1.15-1.88,2.32-2.8,3.49-.16.21-.38.65-.33.69.42.35.05.6-.09.82-1.68,2.67-2.99,5.52-4.15,8.44-.17.42-.34.87-.93,1.14.25-2.05,1.41-3.63,2.07-5.65-2.87,3.87-3.28,8.03-2.94,12.35Zm3.49-130.84c-1.25,1.3-2.43,2.45-3.5,3.7-.64.75-1.25,1.61-1.6,2.53-.47,1.23-1.05,2.35-1.91,3.33-1.04,1.18-1.65,2.55-2.07,4.04-.47,1.71-1.01,3.39-1.49,5.1-.11.38-.11.78-.16,1.18,1.83-5.04,5.27-9.03,8.22-13.32-.08.55-.22,1.09-.47,1.57-.55,1.03-1.13,2.04-1.74,3.04-2.18,3.57-4.37,7.11-4.96,11.42-.23,1.72.37,3.02,1,4.43.06-.17.04-.32.01-.47-.35-2.14-.28-4.23,1.27-5.91,1.02-1.11,1.76-2.39,2.6-3.62,1.04-1.54,2.16-2.97,4.09-3.57,1.29-.41,2.21-1.45,2.99-2.55.72-1.01.64-1.25-.48-1.76-.62-.28-.68-.57-.19-1.06.23-.23.52-.38.74-.62.25-.28.44-.61.64-.89q-1.34-1.32-.5-2.94c.09-.18.2-.35.26-.54.2-.66.3-1.32-.12-1.93-.95-.2-2.17.38-2.62-1.13Zm15.88,4.36c.1,0,.2,0,.3,0,.14-.41.32-.8.41-1.22.4-1.91.45-3.84.14-5.77-.48-2.98-1-5.95-1.52-8.92-.45-2.56-.45-5.13-.11-7.7.45-3.39.57-6.78.15-10.24-1.57.48-1.62,2.21-2.71,3.26-.35-.33-.74-.6-1.01-.96-.46-.63-1.12-.9-1.8-1.15-.37-.13-.72-.07-.84.26.34,1.25.75,2.4.96,3.58.6,3.33,1.19,6.66,1.65,10,.44,3.24,1.04,6.43,2.27,9.48.88,2.21,1.52,4.5,1.79,6.87.09.84.23,1.67.34,2.5Zm-25.73,9.69c.06-.14.13-.27.15-.41.31-2.11,1.46-3.79,2.63-5.49.6-.88,1.07-1.91,1.34-2.94.53-2.06.87-4.17,1.31-6.25.31-1.45.63-2.91.98-4.35.07-.31.15-.73.72-.71.17.89-.32,1.64-.45,2.44-.14.83-.31,1.66-.49,2.48-.18.87-.39,1.73-.59,2.59-.19.78-.4,1.56-.26,2.41,1.41-1.98,3.36-3.47,4.51-5.65.39-.73.48-1.27.2-1.95-1.7-.04-1.83-.16-1.8-1.81,0-.12,0-.24.02-.36.06-.51-.19-.83-.59-1.1-.59-.39-1.17-.4-1.82-.12-.98.41-1.5.08-1.68-.97-.03-.2-.04-.4-.06-.6-.06-.58-.38-.87-.97-.81-.3.03-.6.11-.92.17.08,1.83-.27,3.49-1.14,4.97-1.19,2.04-1.47,4.22-1.35,6.51.09,1.73.21,3.45.24,5.18.04,2.25.01,4.49.01,6.78Zm58.51,44.98c2.12-1.09,3.75-2.29,4.55-4.41.79-2.11,1.76-4.15,2.57-6.25,1.21-3.14,3.01-5.96,4.72-8.83.78-1.3,1.52-2.62,2.03-4.15-.51-.17-.95-.32-1.36-.46-.85,2-1.54,3.93-3.15,5.32.38-2.01,1.69-3.58,2.48-5.4-.77-.31-1.14.02-1.45.67-.82,1.7-1.68,3.39-2.56,5.07-2.4,4.55-5.39,8.68-8.83,12.5-.37.41-.68.89-.91,1.39-1.2,2.59-2.37,5.2-3.55,7.8-.09.2-.16.41-.25.62.05.04.11.08.16.12.73-.54,1.45-1.08,2.06-1.54.13-.61.14-1.1.33-1.52.87-1.9,1.73-3.81,2.71-5.66.96-1.82,2.14-3.5,3.54-5.02.7-.77,1.28-1.66,1.91-2.49.07.05.14.1.21.14-.71,1.06-1.34,2.17-2.13,3.16-1.63,2.03-2.92,4.25-3.99,6.6-.25.54-.38,1.14-.56,1.72-.18.58-.34,1.16-.55,1.86.91-.37,1.44-.77,1.54-1.68.06-.54.49-1.03.75-1.55.1.04.19.08.29.12-.16.54-.32,1.09-.55,1.87Zm-4.98-.55c.1,0,.19,0,.29,0,1.14-1.7,8.01-20.17,8.36-22.6-.86.21-1.66.4-2.44.58-.14,1.79-.63,3.46-1.34,4.27.14-.82.2-1.45.35-2.06.15-.64.38-1.27.65-2.14-1.03.36-1.84.65-2.6.91-.6,4.52-.83,5.49-1.49,6.18-.39-1.9.31-3.7.53-5.65-.71.32-1.04.6-1.19,1.27-.38,1.73-.95,3.41-1.38,5.12-.25,1.01-.48,2.05-.51,3.08-.06,1.93-.04,3.87.09,5.8.12,1.75.45,3.49.68,5.23Zm-47.66,63.53c.13-.2.27-.39.39-.6,2.82-4.95,6.21-9.47,9.96-13.75,1.85-2.11,3.55-4.36,5.3-6.57.38-.48.64-1.04.96-1.56-2.27.34-4.38.78-6.38,1.68-1.09.49-1.89,1.17-2.48,2.17-1.12,1.9-2.28,3.79-3.36,5.71-.55.98-1.03,2-1.45,3.04-.96,2.38-1.84,4.8-2.8,7.18-.36.89-.4,1.76-.15,2.7Zm44.48-79.24c-1.98,1.36-2.62,3.45-3.25,5.29.38.42.63.69.87.96.03-.13.06-.28.12-.53.09.55.15,1.01.23,1.47.13.73.13,1.43-.43,2.02-.42.45-.38,1.02-.38,1.59,0,.96.04,1.95-.13,2.89-.26,1.45-.27,2.88.01,4.32.1.54.24,1.08.37,1.61.27-1.49.35-2.93.45-4.38.03-.41-.05-.91.59-1.04.08.16.2.29.22.44.23,2.37.2,4.75-.07,7.12-.07.64-.54.43-.84.48-.2.77-.38,1.5-.6,2.35.26-.17.42-.26.57-.37,1.91-1.43,3.13-3.43,4.4-5.38.58-.89.66-1.85.39-2.89-.64-2.42-.98-4.89-1.13-7.39-.17-2.76,0-5.47.96-8.1.31-.86.5-1.77.81-2.87-.68.56-1.09,1.06-1.61,1.31-.73.35-.95.9-1.02,1.61-.24,2.24-.47,4.48-.73,6.72-.05.44.09.95-.45,1.38-.22-2.97-.02-5.8.65-8.61Zm-43.34,19c.94-1.06,1.68-1.89,2.26-2.54-.05-1.06-.09-1.92-.14-2.8.39.02.62.04.95.06-.39-1.03-.98-1.62-1.95-1.72-1.23-.12-1.78-.87-1.91-1.97-.15-1.27-.3-2.56-.26-3.84.03-1.07-.32-1.86-1.26-2.24-1.69-.68-3.42-1.26-5.26-1.92.27,1.19.45,2.22.75,3.21.93,3.08,1.89,6.15,2.86,9.21.39,1.22.49,2.44.31,3.69-.15.99-.19,2.02-.46,2.98-.32,1.18.1,2.16.51,3.45.57-.96,1.01-1.71,1.43-2.42-.65-1.41-.68-2.93-.05-3.84.52.85.22,1.85.63,2.91.46-.65.81-1.14,1.16-1.63-.08-.01-.17-.02-.25-.03-.69-2.76-.85-5.61-1.21-8.44,1.08,2.43,1.57,5,1.89,7.9Zm44.04-32.42c-.6.05-.94.11-1.29.09-3.11-.2-6.07.54-9.02,1.39-.77.22-2.01,1.03-2.68,1.76.58-.21,1.06-.4,1.55-.55.49-.15.96-.54,1.82-.17-.63.32-1.03.54-1.44.73-1.56.73-3.17,1.4-4.69,2.21-1.05.56-1.08,1.55-.24,2.4.42.42.89.55,1.43.36,1.22-.43,2.44-.46,3.69-.16.22.05.46,0,.7,0q0-1.24,1.07-3.09c-1.88.55-3.59,1.04-5.36,1.56.06-.16.07-.27.11-.29,3.15-1.51,6.34-2.78,9.95-1.95.7.16,1.39.26,2.06,0-.2-.4-.47-.71-.46-1.01.02-.28.35-.53.61-.9-1.17-.24-2.24-.32-3.32-.16-1.09.16-2.17.33-3.26.49.1-.26.25-.39.42-.45,1.92-.65,3.87-1.13,5.92-.74.42.08.73,0,1.11-.25.73-.47,1.51-.96,2.34-1.19,1.45-.41,1.97-1.5,2.5-2.68q-1.77-.97-1.66-1.95c-1.25.07-2.52.12-3.79.22-.55.04-1.11.14-1.65.29-1,.29-1.99.64-2.98.97-.45.15-.89.33-1.43.52,1.15,1.68-.2,2.26-1.23,3,1.06-.2,2.05-.52,3.06-.71.98-.18,1.99-.29,2.99-.33,2.44-.08,2.44-.05,3.13.58Zm-13.76-20.85c.77-.36,1.27-.86,1.48-1.6.28-.96.64-1.91.77-2.9.22-1.59.31-3.21.41-4.81.14-2.2.69-4.28,1.72-6.24.46-.87.82-1.79,1.22-2.69-1.32.91-2.51,1.86-3.65,2.85-.25.22-.4.59-.52.92-1.12,2.97-3.01,5.29-5.79,6.87-.33.19-.72.49-.83.82-.44,1.36-.77,2.76-1.13,4.08.53.28.97.43,1.28.71.3.27.48.68.71,1.03,2.09-1.38,3.29-.77,4.33.96Zm9.45-23.34c-.88,1.15-1.73,2.27-2.57,3.39-.12.16-.21.34-.27.52-.42,1.21-.72,2.47-1.28,3.61-1.34,2.74-1.86,5.63-2,8.64-.07,1.44-.35,2.87-.53,4.31-.03.26-.07.51-.09.74,1-.09,1.9-.16,2.87-.25.34-.74.74-1.49,1.03-2.28.25-.67.44-1.38.57-2.09.24-1.31.42-2.62.6-3.94.39-2.93.95-5.8,2.59-8.35.54-.84.96-1.75,1.44-2.64-.68-.84-1.2-1.74-2.36-1.67Zm9.72,24.71c-.26.11-.37.13-.47.19-1.46.95-3,1.68-4.76,1.93-.26.04-.55.33-.69.58-.31.55-.54,1.14-.84,1.79.53.02.96.04,1.39.07.57.03.96.3,1.21.84.29.62.33,1.21.1,1.86-.56,1.58-1.71,2.6-3.14,3.34-.89.46-1.82.85-2.74,1.25-1.98.85-3.73,2.05-5.32,3.49-.31.28-.56.62-.86.96,1.11.5,1.98.37,2.84-.27.4-.3.95-.43,1.44-.58,1.98-.6,3.82-1.51,5.51-2.67.72-.49,1.39-1.1,1.96-1.77.85-.99,1.82-1.81,2.94-2.47.46-.28.9-.59,1.38-.91-1.3-1.02-1.26-1.21.34-2.22-.69-.96-.68-.95.23-1.89.24-.25.41-.56.63-.86-1.79-.83-1.87-1.01-1.16-2.66Zm-34.51,9.36c.89-1.25,1-1.69.48-2.73-1.2-2.43-2.64-4.71-4.4-6.76-1.08-1.26-1.8-2.65-2.03-4.31-.04-.27-.12-.6-.3-.76-.64-.58-1.33-1.11-2.05-1.7-.47.85-.86,1.57-1.24,2.27,1.5,1.22,1.56,1.57-.24,3.33.65.4,1.03.94,1.17,1.72.08.45.4.87.67,1.27.66.97,1.31,1.94,2.03,2.85.39.5.88.93,1.39,1.31.21.16.63.23.87.12.93-.41,1.57-.05,2.08.67.32.46.57.97.85,1.45.23.4.46.8.72,1.26ZM73.81,1.45c.03.24.04.44.09.63.76,2.92,1.54,5.83,2.27,8.76.48,1.93,1.47,3.56,2.72,5.06.19.23.44.41.78.72,0-.39.01-.58,0-.77-.21-2.77-.25-5.54.13-8.31.24-1.78.22-3.59.32-5.45-.33-.05-.63-.2-.86-.12-.89.32-1.68.07-2.43-.34-.95-.51-1.9-.58-3.02-.17Zm26.79,29.46c-.45-.22-.7-.34-.94-.46-.93-.47-1.12-.84-.79-1.83.16-.48.47-.93.75-1.36.53-.8.49-1.16-.2-1.85-2.25,2.55-4.51,5.11-6.76,7.67-.13.15-.29.3-.35.48-.43,1.32-.85,2.65-1.28,4.03,1.54.25,3.07.49,4.61.74,2.07-2.13,3.33-4.81,4.96-7.42Zm-54.65,84.78c.31-1.79.56-3.33.83-4.86.1-.54-.03-.92-.54-1.19-.6-.32-1.14-.77-1.76-1.05-1.13-.51-2.23-1.14-3.52-1.15-1.68-.01-2.39.76-2.25,2.53.59.22,1.23.44,1.86.69,1.49.6,2.99,1.19,4.46,1.83.4.17.92.33.91,1.18-2.73-.77-5.02-2.22-7.4-3.49-.58.74-1.14,1.47-1.76,2.26.74.41.89,1.01.58,1.84,1.48.42,2.85.9,4.25,1.18,1.35.28,2.5.86,3.5,1.77.18.17.38.32.68.57.09-.7.16-1.24.23-1.73-.54-.33-1.02-.56-1.42-.88-1.14-.88-2.43-1.41-3.82-1.71-.67-.14-1.34-.26-2-.43-.71-.19-.79-.3-1.02-.89,2.75.87,5.86,1.12,8.22,3.55Zm24.24-68.51c.73-2.13,1.38-3.94,1.94-5.78.13-.42.11-1.06-.12-1.39-.96-1.31-1.63-2.84-3.05-3.83-.97-.68-1.56-1.72-1.74-2.94-.11-.74-.46-1.35-.93-1.93-.45-.56-.84-1.17-1.24-1.77-.26-.38-.49-.77-1.18-.98.75,2.64,1.45,5.1,2.14,7.57.49,1.74,1.06,3.46.86,5.31-.02.19,0,.41.1.57,1.01,1.64,2.04,3.26,3.22,5.15Zm-12.4,76.46c-.39.58-.83,1.03-1.03,1.57-.5,1.35-1.06,2.71-1.3,4.12-.59,3.41-1.13,6.82-2.1,10.14-.06.22-.05.46-.09.89.21-.28.3-.37.36-.47,1.8-3.28,3.79-6.46,6.13-9.37.93-1.16,1.07-2.3.67-3.58-.2-.63-.6-1.22-1.02-1.74-.42-.53-.98-.95-1.62-1.56Zm52.55-56.35c-1.79,5.18-3.54,10.25-5.32,15.39,2.7-2.07,10.01-13.87,10.07-16.22-.92.27-1.84.54-2.81.83-.54,1.57-.94,3.25-2.11,4.58.13-1.64,1.08-3.04,1.46-4.7-.51.05-.86.09-1.29.13Zm-47.51-32.29c-.17-1.89-.77-3.45-1.61-4.93-.74-1.29-1.52-2.56-2.28-3.84-.85-1.43-1.45-2.95-1.59-4.64-.06-.77-.38-1.08-1.13-1.13-.48-.03-.97.05-1.45.01-1.17-.08-1.99.51-2.68,1.35-.36.43-.4,1.39-.08,1.8.38.5.79.14,1.19.02.08-.02.16-.04.23-.06,1.45-.28,2.63.64,2.72,2.12.02.39.05.78.07,1.14,1.73.22,2.34,1,2.03,2.46-.04.2-.15.38-.19.57-.1.58-.18,1.17-.27,1.83.46.09.81.19,1.15.21,1.32.06,1.38.05,1.7,1.19.15.52.42.84.86,1.09.38.21.75.45,1.32.79Zm58.87,82.11c.56-1.73.34-2.3-1.06-2.87-.43-.17-.76-.38-.9-.88-.06-.21-.34-.44-.56-.5-2.1-.59-4.24-.95-6.43-.91-.76.02-1.58-.04-2.36.51.4.34.73.62,1.12.95,1.98-.24,3.77.46,5.4,1.71-1.68-.06-3.19-1.07-5.04-.82.17.49.32.9.46,1.3.58.1,1.1.17,1.61.27,2.23.43,4.31,1.28,6.32,2.32.75.39.76.37,1.26-.61-.99-.57-1.98-1.14-2.98-1.72,1.22-.03,2.13.64,3.16,1.27ZM65.48,4.2c-.68.99-.93,1.75-.84,2.87.07.92.15,1.85.34,2.75.56,2.61.91,5.22.75,7.89-.1,1.74.12,3.45,1.15,4.96.34.49.54,1.08.83,1.6.83,1.48,1.73,2.92,2.84,4.23-.2-.87-.49-1.7-.83-2.5-.75-1.74-1.42-3.51-1.68-5.39-.52-3.74-.98-7.49-1.48-11.24-.23-1.73-.48-3.46-1.08-5.18Zm25.23,4.99c-.12-.03-.24-.06-.36-.08-.34,4.84-1.97,9.35-3.5,13.94,1.65-.82,5.32-4.95,6.21-6.95-.56-1.12-.56-1.13.02-2.22.5-.95.46-1.25-.23-2.04-.37-.43-.78-.59-1.37-.55-.86.05-1.08-.27-.95-1.1.05-.33.12-.66.18-1Zm-30.7,106.04c2.05-.47,3.69-1.37,5.21-2.5.46-.34.62-.9.66-1.78-.33.37-.61.71-.91,1.02-.28.29-.51.66-.99.67.8-1.14,1.35-2.45,2.63-3.4-.46-.29-.87-.54-1.28-.8-.75.8-.88,2-2.29,2.43.44-1.07.79-1.9,1.16-2.8-.16-.11-.34-.25-.55-.36-.1-.05-.23-.03-.34-.04-1.29,2.86-2.88,4.61-4.42,4.76.7-2.08,2.72-3.19,3.62-5.14-.51-.12-.96-.23-1.22-.29-.94,1.07-1.76,2-2.57,2.93-.12.14-.22.34-.24.52-.18,1.78-.34,3.57-.53,5.58.8-.69,1.46-1.26,2.13-1.83.67-.57,1.21-1.3,2.04-1.69-.41,1.07-1.36,1.71-2.12,2.71Zm6.26-74.38c-.7-4.56-1.96-8.79-3.06-13.07-.35-1.36-1.19-2.44-2.22-3.38-.77-.7-1.52-1.44-2.28-2.15-.18-.17-.39-.3-.77-.6.14.58.18.95.32,1.27.59,1.32,1.11,2.68,1.85,3.92,1.83,3.08,3.06,6.37,3.81,9.86.33,1.55.93,2.99,2.36,4.16Zm37.84-4.62l-.15-.36c-.59-.05-1.19-.2-1.76-.12-1.24.19-2.46.34-3.63-.11-1.81,1.47-2.65,3.54-4.03,5.45,1.34.29,2.3.88,2.86,2.02.14-.11.26-.17.32-.26,1.2-1.73,2.66-3.2,4.32-4.51.77-.61,1.38-1.41,2.07-2.12Zm-11.46-4.23c2.16-2.14,5.15-5.79,5.85-7.13-1.02-.47-1.21-1.26-.94-2.3.27-1.05-.05-2.22-.78-3.18-2.4,3.81-3.79,7.94-4.12,12.61Zm20.73,48.43c.09.07.18.13.28.2,3.15-2.8,5.72-6.08,7.73-9.79,1.06-1.96,1-1.99-.8-3.35-.02-.02-.08,0-.19,0-1.21,2.73-2.97,5.18-4.53,7.75-.99,1.63-1.67,3.45-2.49,5.19Zm-63.14-17.09c1.37-.93,2.67-1.11,4.05-.56.5.2.79-.16.85-.58.05-.34-.04-.72-.14-1.06-.27-.92-.51-1.87-.9-2.74-.23-.52-.64-1.1-1.13-1.34-1.04-.53-1.9-1.15-2.33-2.59-.45,1.34-.91,2.35-.83,3.52.1,1.52.16,3.05.25,4.57.01.19.08.37.18.78Zm16.16-39.42c-.07.03-.14.05-.21.08.31,1.11.6,2.23.95,3.33.27.84.66,1.65.93,2.49.28.85.45,1.8-.01,2.55-.29.47-.31.8-.11,1.18.31.6.6,1.26,1.06,1.73.91.93,1.94,1.76,3.08,2.76-.07-.91-.14-1.65-.19-2.39-.15-2.39-.46-4.72-2.25-6.54-.03-.03-.05-.07-.07-.1-1.06-1.7-2.12-3.39-3.18-5.09Zm26.59,76.03c.61-.19,1.02-.46.85-1.2-.05-.23-.04-.49.03-.72.43-1.41.14-2.8-.08-4.19-.32-1.96-.45-3.91.02-5.88.24-1.01.2-2.05.07-3.26-.33.24-.53.36-.7.5-.36.32-.71.65-1.07.97-.44.39-.53.85-.41,1.42.24,1.15.22,1.15-.62,2,.15.27.37.53.44.82.07.29.1.75-.06.89-.74.63-.43,1.27-.18,1.96.76,2.16,1.64,4.28,1.72,6.66Zm17.28,10.36c3.04-2.24,6.15-4.2,9.7-5.4.91-.31,2.23-1.34,2.67-1.96-.64-.07-1.18.57-1.99.34.75-.92,1.75-1.06,2.66-1.49-.93-.64-1.85-.86-2.86-.33-1.28.67-2.59,1.3-3.84,2.02-1.4.8-2.71,1.75-4.13,2.5-1.8.95-1.99,2.62-2.21,4.32Zm-47.49-25.95c.05.06.1.12.15.19,2.09-1.53,4.44-2.63,6.43-4.33,1.48-1.27,4.58-4.8,5.06-6.04-2.06,1.1-3.98,2.08-5.85,3.15-.57.33-1.01.91-1.5,1.38-.55.52-1.09,1.05-1.64,1.57-.17.17-.39.3-.51.5-.72,1.19-1.43,2.39-2.14,3.59Zm-3.81,2.52c.48-.61.82-1.04,1.16-1.47.91-1.14.71-2.27.06-3.47-1.04-1.94-2.79-2.47-4.67-2.67-.05,1.04-.09,1.99-.14,2.94-.01.28-.05.56-.03.84.09,1.28.41,1.62,1.69,1.69.84.04,1.34.45,1.63,1.2.09.22.15.46.3.94Zm53.3,29.31c-.99,1.81-.97,3.45.45,5.01,2.48-.64,5.24-.61,7.75-2.25-2.76-1.16-5.29-2.29-8.2-2.76Zm3.25-14.22c.42-1.23,1.45-1.37,2.11-2.09-.75-.33-1.3-.95-2.13-.39-1.46.99-2.95,1.95-4.4,2.96-.58.4-.58.59-.2,1.37.68-.19,1.11-1.01,2.2-.8-.85.6-1.52,1.08-2.24,1.59.15.5.29.96.44,1.49,3.08-2.25,6.07-4.3,9.68-5.51-2.18-.93-3.58.59-5.46,1.38Zm-68.6,20c.1,0,.2.02.3.03.02-.4.05-.79.05-1.19-.02-4.2.35-8.35,1.62-12.38.36-1.15.85-2.25,1.22-3.39,1.12-3.5,2.59-6.84,4.51-9.97.35-.57.87-1.04,1.26-1.59.68-.96,1.32-1.95,1.97-2.93-.09-.07-.18-.13-.27-.2-1.14,1.38-2.39,2.69-3.39,4.17-2.02,3.01-3.59,6.25-4.7,9.74-1.3,4.08-2.33,8.2-2.7,12.46-.15,1.75-.1,3.51.14,5.25Zm73.19-9.39c.94-.76,1-.99.64-1.88-.33-.8-.94-1.34-1.72-1.59-1.86-.62-3.7-.79-5.41.47-.45.33-.97.58-1.42.91-.38.27-.71.6-1.07.91,3.14-.35,6.08.04,8.98,1.18Zm-72.77-5.24c.7-2.22,1.37-4.34,2.04-6.48-1.36-.26-3.05-.14-4.04.27-.46,1.67.53,4.76,2,6.21Zm25.88-2.78c1.35,1.1,1.87,2.34,1.22,3.99-.36.91-.2,1.22.65,1.65,1.07.54,2.16,1.03,2.8,2.32.58-.64,1.04-1.16,1.64-1.83-.79-.21-1.36-.38-1.94-.52-1.32-.31-2.07-1.09-2.3-2.46-.13-.78-.41-1.55-.77-2.26-.35-.69-.45-1.33-.28-2.08.34-1.45.31-1.45-.9-2.21-.78-.49-.96-.76-.68-1.57.22-.66.05-1.05-.43-1.42-.21.38-.39.74-.61,1.07-.21.32-.48.6-.77.96.48.41.87.76,1.27,1.08,1.24.96,1.51,1.72,1.08,3.28Zm-2.97,8.91c.41-.16.56-.28.68-.26,1.09.2,1.46,1.28,2.25,1.93.3-.26.57-.48.94-.8-1.59-1.75-3.06-3.52-5.17-4.82-.25.43-.43.74-.61,1.05.5.34.94.57,1.27.91.18.18.18.55.27.83-.26.03-.53.13-.77.07-.42-.11-.81-.31-1.28-.5-.1.31-.19.55-.29.87,1.87.81,3.2,2.15,4.19,3.98.32-.37.54-.63.78-.91-.73-.76-1.42-1.48-2.25-2.34Zm-14.58-65.04c-.08-.03-.15-.06-.23-.09-.16.26-.34.52-.46.8-.41.94-1.01,1.72-1.8,2.37-.31.25-.59.54-.86.83-.89.98-.65,2.83.45,3.57.63.42,1.25.85,1.88,1.27.97-.72,1.17-1.5.43-2.38-.83-.98-.84-2.03-.5-3.16.11-.38.33-.73.46-1.11.23-.7.43-1.4.65-2.11Zm27.23-7.38c-.59,2.53-1.78,4.66-2.98,6.8-.21.38-.41.79-.56,1.2-.36.96-.33,1.92.02,2.92,1.99-3.21,3.37-6.69,4.89-10.11-.47-.27-.84-.49-1.36-.81Zm-7.26,83.24c-1.23.05-2.47.06-3.7.18-.79.07-1.68.11-2.32.5-1.59.95-2.66,2.48-3.99,4.07.4-.07.56-.07.69-.12,1.68-.69,3.36-1.31,5.19-1.46.61-.05.9-.54,1.39-1.18-.86.11-1.48.23-2.1.25-.58.02-1.17.47-1.92.02,1.5-.73,2.95-1.21,4.41-1.18,1.09.03,1.63-.58,2.36-1.07Zm-6.36-17.52c-1.31-.32-2.64-.49-3.84-.97-1.33-.54-2.53-1.37-3.79-2.07-.65-.36-1.29-.73-2-1.12-.2,1.85.59,3.01,2.29,3.42,1.03.25,1.98.6,2.89,1.16.36.22.82.32,1.25.36,1.15.11,2.2-.25,3.21-.77Zm-20.24,33.89c.03-.11.07-.22.09-.33.38-2.34.67-4.7,1.15-7.02.65-3.11,1.43-6.18,2.19-9.26.17-.67.49-1.3.81-2.12-.11-.21-.36-.59-.89-.73-1.77,6.42-3.49,12.77-3.35,19.46Zm55.32-91.19c-2.96,1.38-4.94,3.82-7.35,5.97,2.11.18,3.74-.79,5.76-1.31-.47-.26-.74-.41-.98-.54.48-1.12.92-2.05,1.8-2.61.59-.38.78-.86.78-1.51Zm-5.86-6.79c.06.1.13.19.19.29.97-.45,2-.82,2.89-1.39,1.08-.68,2.11-1.48,3.05-2.34.86-.78.81-1.73-.07-2.73-.8,1.61-2.29,2.47-3.55,3.59-.89.8-1.69,1.71-2.52,2.57Zm-8.58,50.01c-.27.26-.46.46-.67.64-.9.78-1.03,1.06-.64,2.12.62,1.69,1.76,2.97,3.37,4.08-.71-2.36-1.37-4.55-2.06-6.84Zm-38.2,9.53c-2.55,4.8-4.4,13.28-3.7,17.29.5-.87.57-1.7.61-2.52.15-3.26.62-6.46,1.57-9.59.52-1.72,1.01-3.45,1.52-5.18Zm11.65-54.88c-.88-1.33-1.67-2.54-2.55-3.86-.79,1-1.44,1.83-2.16,2.74,1.47.69,2.7,1.92,4.71,1.12Zm7.69,13.94c-.58,1.45-1.07,2.64-1.53,3.83-.1.25-.12.54-.11.81.09,1.5.21,3,.33,4.75.3-.69,1.01-.88.99-1.65-.01-.59,0-1.18.07-1.77.22-1.9.43-3.81.24-5.97Zm-1.44,47.75c2.06,1.43,3.69,2.99,5.03,4.93.26-.28.43-.47.66-.71-.63-.8-1.31-1.49-1.77-2.31-.47-.85-.72-1.82-1.1-2.83-.86.29-1.74.58-2.82.93Zm38.04,13.77c.44.87.81,1.59,1.29,2.53.63-1.85,1.97-2.75,3.3-3.72-.43-.48-.79-.88-1.16-1.3-1.15.84-2.24,1.64-3.42,2.5Zm-38.53-56.27c-.1-.02-.2-.04-.3-.07-.54,1.24-1.15,2.46-1.6,3.73-.39,1.08-.53,2.23.33,3.36.64-1.05,1.76-1.77,1.27-3.2-.07-.2.06-.47.08-.71.08-1.04.15-2.07.23-3.11Zm1.44,51.51c.47-.24.52-.56.24-.9-.84-1.01-1.69-2.02-2.57-3-.19-.21-.51-.31-.82-.48-.33.71-.61,1.31-.91,1.96,1.7.33,3.13.96,4.06,2.42Zm24.75-79.29c-1.17.19-2.22.36-3.24.53-.2.82-.38,1.57-.59,2.43,1.98-.1,3.04-1.18,3.83-2.96Zm-32.61,88.13c-.6-1.98-1.68-3.42-3.28-4.58-.27.23-.52.45-.94.81.8.72,1.62,1.27,2.18,2.03.55.74.82,1.68,1.24,2.59.26-.28.53-.56.81-.85Zm-4.68-24.94c.2,2.38.38,4.56.58,6.98.69-.91,1.22-1.59,1.79-2.34-1.64-1.12-2.01-2.56-1.28-4.29-.39-.12-.65-.2-1.09-.34Zm20.9-33.29c-1.94,1.28-3.68,2.77-5.09,4.63,2.11-1.08,4.1-2.29,5.09-4.63Zm35.94,30.38c-.78-.46-1.34-.26-1.86.06-.54.34-1.03.76-1.57,1.09-.61.37-.72.87-.52,1.59,1.32-.92,2.57-1.79,3.94-2.74Zm-36.35,21.58c-1.42.83-2.69,1.57-3.97,2.32.02.04.05.08.07.12.92-.09,1.84-.18,3.04-.3.41-.35.9-.99.86-2.13Zm-7.95,8.53c-.05-.11-.1-.23-.15-.34-1.72.38-3.44.77-5.16,1.14-.12.03-.27-.02-.35.05-.29.24-.56.5-.83.76,1.18-.13,2.25-.4,3.29-.8,1.04-.39,2.26-.16,3.21-.81Zm2.04-23.9c-.6.32-1.14.61-1.61.86.89.24,1.78.47,2.66.71-.01-.63-.33-1.17-1.05-1.57Zm-22.75-30.23c-.78-.69-1.69-1.16-2.7-1.44.7.84,1.61,1.28,2.7,1.44Zm.28,35.98c-.58,1.09-.89,2.23-.56,3.46.19-1.15.37-2.31.56-3.46Zm10.08-23.78c-.08-.05-.16-.11-.24-.16-.46.67-.92,1.35-1.38,2.02.08.05.16.11.24.16.46-.67.92-1.35,1.39-2.02Z"/>
      <path d="m168.19,124.94c-.89-1.53-1.84-3.02-2.66-4.59-1.23-2.35-2.36-4.75-3.53-7.12-.05-.09-.05-.21.05-.36.39.69.81,1.36,1.17,2.07,1.37,2.74,2.8,5.43,4.59,7.92.4.55.68,1.18.99,1.79.13.25.2.56-.24.63-.12-.11-.24-.22-.36-.34Z"/>
      <path d="m38.28,212.73c.3-.15.6-.43.9-.43,2.65-.03,5.3-.02,7.96-.02-.94.64-4.84.89-8.47.54-.13-.03-.26-.05-.39-.08Z"/>
      <path d="m48.75,207.36c-3.29.97-14.55.21-16.57-1.12.36-.4.81-.26,1.21-.22,2.32.22,4.63.54,6.95.68,2.44.15,4.9.15,7.35.23.36.01.83-.21,1.06.43Z"/>
      <path d="m43.31,192.47c-1.81.51-12.37,1.17-13.63.78.4-.18.64-.36.91-.4,1.55-.24,3.1-.52,4.66-.64,2.41-.18,4.83-.24,7.24-.35.43-.02.94-.1.82.62Z"/>
      <path d="m44.54,199.37c-2.6,1.19-11.66,2.13-13.68,1.05.48-.48,1.06-.51,1.64-.53,2.65-.09,5.3-.16,7.96-.27,1.36-.05,2.72-.17,4.08-.25Z"/>
      <path d="m33.95,209.67c.67-.06,1.34-.2,2-.18,3.5.12,7,.3,10.49-.11,1-.12,2.01-.16,3.01-.23.42-.03.81-.01.96.63-2.31.17-4.58.45-6.85.48-2.57.04-5.15-.12-7.72-.24-.64-.03-1.26-.23-1.9-.36,0,0,0,0,0,0Z"/>
      <path d="m29.73,202.96c3.63.39,7.26.78,10.88,1.19.2.02.38.21.65.36-2.44.57-10.27-.36-11.53-1.55Z"/>
      <path d="m32.22,180.65c3.67-.97,7.41-1.22,11.2-1.12.03.7-.38.66-.73.68-1.16.06-2.33.08-3.49.18-1.96.17-3.92.38-5.88.57-.35.03-.71,0-1.07,0,0-.1-.01-.21-.02-.31Z"/>
      <path d="m34.25,177.45c3.24-1.05,6.63-.67,9.98-.92.08.69-.32.75-.73.78-1,.07-2.01.11-3.01.18-1.65.12-3.29.26-4.94.37-.42.03-.84,0-1.26,0-.01-.14-.02-.28-.03-.42Z"/>
      <path d="m61.12,206.52c-2.32,1.66-4.98,2.33-7.66,2.94-.26.06-.56-.05-.85-.08-.02-.09-.03-.18-.05-.27.25-.16.49-.37.76-.46,2.56-.85,5.12-1.72,7.8-2.13Z"/>
      <path d="m28.35,187.03c4.42-1.24,8.99-1.26,13.55-1.39-4.49.61-8.98,1.21-13.47,1.82-.02-.14-.05-.29-.07-.43Z"/>
      <path d="m42.97,182.89c-3.37.6-6.76.96-10.17,1.23-.04-.08-.08-.16-.13-.23.16-.17.3-.43.49-.49.53-.16,1.09-.3,1.64-.34,2.48-.2,4.97-.38,7.45-.55.22-.02.45.03.67.05,0,.11.02.22.03.33Z"/>
      <path d="m37.57,189.16c-3.08.92-6.22.79-9.39,1.26.11-.61.48-.73.8-.8.98-.21,1.97-.46,2.96-.52,1.65-.11,3.3-.08,4.95-.1.23,0,.46.1.69.16Z"/>
      <path d="m37.92,172.22c2.91-1.1,5.99-1.05,9.06-1.3-.02.71-.37.92-.93.95-1.96.13-3.92.28-5.88.43-.75.06-1.5.14-2.25.22,0-.1,0-.2,0-.3Z"/>
      <path d="m45.99,215.11c2.71-.51,5.2-.42,7.81-.4-1.32.92-6.19,1.22-7.81.4Z"/>
      <path d="m59.63,205.11c-2.96,1.2-6.02,2.1-9.23,2.36,3.01-1.01,6.08-1.82,9.23-2.36Z"/>
      <path d="m45.42,153.94c-.78-1.51-.75-5.07,0-9.97v9.97Z"/>
      <path d="m65.32,196.21c-.08-.7.04-1.05.66-1.21,1.16-.3,2.3-.69,3.45-1.04.32-.1.71-.22.79.2.04.2-.24.6-.47.7-.76.35-1.56.63-2.36.88-.64.2-1.32.31-2.07.48Z"/>
      <path d="m50.71,155.45c-.08,2.86.34,5.74-.13,8.75-.53-.72-.54-.9-.4-2.95.07-.96.12-1.92.17-2.88.05-.98-.02-1.98.37-2.91Z"/>
      <path d="m34.51,196.01c-1.74.48-3.48,1-5.3.73-.03-.09-.06-.19-.09-.28.26-.15.49-.37.77-.42,1.52-.3,3.06-.34,4.62-.03Z"/>
      <path d="m70.89,187.95c-1.4,1.04-3.1,1.11-4.97,1.44.12-.38.18-.6.27-.81.02-.04.14-.05.22-.06,1.36-.32,2.71-.64,4.07-.95.1-.02.22.06.34.09.02.1.05.2.07.3Z"/>
      <path d="m65.92,184.17c-.23-.54-.25-.86.34-.99.94-.2,1.88-.46,2.82-.64.17-.03.39.16.59.25-.1.2-.15.49-.31.58-1.05.56-2.21.69-3.44.8Z"/>
      <path d="m65.21,180.85c1.29-.48,2.52-1.09,3.94-1.36.05.89-.59.93-1.02,1.12-1.57.67-2.23.74-2.92.24Z"/>
      <path d="m64.58,198.85c.51-.54,2.82-1.45,4.27-1.73-.45.82-2.44,1.66-4.27,1.73Z"/>
      <path d="m69.74,185c-.71.98-1.92,1.3-3.25.96,1.07-.78,2.18-.81,3.25-.96Z"/>
      <path d="m67.72,177.51c-1.12.44-2.23.95-3.49.61,1.1-.54,2.28-.64,3.49-.61Z"/>
      <path d="m43.03,195.22c-1.05.26-2.1.7-3.37.28.92-.55,1.8-.64,3.37-.28Z"/>
      <path d="m54.35,211.38c1.07-.66,2.23-1.01,3.5-1-1.09.61-2.26.92-3.5,1Z"/>
      <path d="m70.99,191.45c-.58.92-1.3,1.03-2.15.89.38-.81.93-1.06,2.15-.89Z"/>
      <path d="m66.74,201.27c-.76.91-1.78.98-2.85.93.84-.64,1.83-.8,2.85-.93Z"/>
      <path d="m48.92,168.5c-.77,1.12-1.72.65-2.82.66.97-.59,1.82-.57,2.82-.66Z"/>
      <path d="m54.57,168.63c-1.07.48-1.15.47-1.89-.33.66-.06,1.25-.22,1.89.33Z"/>
      <path d="m62.78,174.76h1.71c-.54.34-1.09.64-1.7.28v-.28Z"/>
      <path d="m63.01,172.59c-.42.3-.83.61-1.65.09.69-.17,1.16-.28,1.63-.39,0,.1.02.2.02.3Z"/>
      <path d="m41.91,188.8c.31-.1.58-.19.94-.31,0,.25.06.46-.01.52-.32.28-.63.21-.93-.21Z"/>
      <path d="m50.13,211.64c.28-.04.57-.07.85-.11.02.1.04.21.05.31-.28.05-.57.1-.85.15-.02-.12-.04-.23-.06-.35Z"/>
      <path d="m45.45,174.02c-.36.67-.67.56-1.25.24.5-.1.78-.15,1.25-.24Z"/>
      <path d="m59.44,169.59c.27.04.54.08.96.15-.46.54-.74.48-.96-.15Z"/>
      <path d="m65.88,192.52c.04-.2.09-.4.13-.59.1.04.2.07.3.11-.08.18-.17.36-.25.55-.06-.02-.12-.04-.18-.06Z"/>
      <path d="m102.7,109.16c-2.35.23-4.72.38-7.06.7-2.29.31-4.56.79-6.94.98.23-.14.44-.36.69-.42,1.86-.48,3.71-1.09,5.6-1.35,2.1-.29,4.24-.26,6.37-.33.45-.01.9.13,1.36.2,0,.07-.01.15-.02.22Z"/>
      <path d="m127.19,87.15c-1.55,1.8-11.36,5.65-14.88,5.76,5.11-1.98,9.97-3.86,14.88-5.76Z"/>
      <path d="m140.27,100.4c2.71,2.05,9.05,11.36,9.29,13.68-3.02-4.61-5.81-9.38-9.29-13.68Z"/>
      <path d="m160.49,98.04c-1.85,1.45-10.9,3.42-12.68,2.77,4.2-1.16,8.37-1.74,12.68-2.77Z"/>
      <path d="m133.43,103.5c-2.69-3.31-5.36-6.37-8.44-9.1.21.07.44.11.61.23.73.5,1.52.95,2.14,1.56,1.66,1.64,3.26,3.33,4.83,5.06.48.53,1.02,1.14.85,2.25Z"/>
      <path d="m93.71,115.79c2.41-.24,4.8-.81,7.27-.37.63.11,1.28.07,1.92.11.52.03,1.04.07,1.3.74-.18.11-.34.28-.49.27-1.04-.08-2.07-.23-3.11-.28-1.44-.07-2.88-.08-4.32-.1-.86-.01-1.72,0-2.58,0,0-.13,0-.25,0-.38Z"/>
      <path d="m108.19,99.47c-1.47.37-2.93.8-4.41,1.09-2.08.41-4.18.77-6.32.66-.23-.01-.46-.03-.72-.24.27-.09.54-.21.82-.25,2.14-.33,4.29-.61,6.42-.96.98-.16,1.94-.48,2.92-.67.46-.09,1.07-.41,1.27.4,0,0,.03-.03.03-.03Z"/>
      <path d="m87.78,108.36c2.14-1.19,11.7-2.56,13.47-1.8-4.46.59-8.92,1.19-13.47,1.8Z"/>
      <path d="m135.83,86.28c-3.22,2.27-6.31,4.68-10.02,6.03-.06-.07-.11-.15-.17-.22.24-.23.45-.51.73-.67,3-1.71,6.01-3.39,9.03-5.08.12-.07.29-.04.44-.06Z"/>
      <path d="m94.88,118.4c2.08-.8,10.72-.19,12.88.97-1.08-.05-2.17-.06-3.25-.16-2.04-.2-4.07-.48-6.11-.68-.8-.08-1.61-.03-2.41-.04-.29,0-.59-.04-1.11-.08Z"/>
      <path d="m127.49,80.3c-2.27,2.9-5.62,4.06-8.83,5.45-.05-.08-.1-.15-.14-.23,1.5-.87,3.01-1.7,4.48-2.61,1.46-.9,2.87-1.89,4.31-2.84.06.07.12.15.18.22Z"/>
      <path d="m122.04,86.55c-2.96,1.69-6.19,2.61-9.49,3.53q.46-.68,2.16-1.28c.83-.3,1.67-.57,2.5-.86.79-.28,1.58-.59,2.38-.85.79-.26,1.53-.79,2.45-.53Z"/>
      <path d="m135.83,97.18c1.85,1.06,6.46,7.31,6.55,9.07-.42-.51-.76-.83-1-1.22-1.62-2.64-3.3-5.23-5.4-7.52-.06-.07-.08-.18-.15-.33Z"/>
      <path d="m139.59,106.54c-.4-.23-.6-.29-.71-.42-1.98-2.45-3.96-4.9-6.02-7.47,1.39.74,5.99,6.09,6.72,7.89Z"/>
      <path d="m173.6,124.55c-2.81-1.91-4.48-4.76-6.21-7.55.07-.05.14-.11.21-.16,2,2.57,4,5.15,6,7.72Z"/>
      <path d="m158.58,110.74c1.58,1.5,4.08,6.58,4.09,8.27-1.56-2.66-2.69-5.53-4.09-8.27Z"/>
      <path d="m97.92,112.99c1.99-1.34,6.17-1.56,8.03-.53-.89.43-1.77.06-2.61.13-.84.07-1.69.06-2.53.12-.88.06-1.75.16-2.89.27Z"/>
      <path d="m132.92,90.43c-.84,1.32-3.92,3.04-5.14,2.96.55-.95,3.23-2.52,5.14-2.96Z"/>
      <path d="m161.91,120.75c-1.58-1.55-2.34-3.51-2.91-5.58,1.35,1.66,2.31,3.52,2.91,5.58Z"/>
      <path d="m96.55,112.05c-.98.57-2.83.76-5.72.69.13-.16.21-.34.31-.35,1.5-.25,2.99-.49,4.5-.68.22-.03.48.17.91.34Z"/>
      <path d="m151.94,110.01c-1.68-1.85-2.97-3.99-4.67-6.11,1.53.77,4.17,4.27,4.67,6.11Z"/>
      <path d="m103.25,104.51c-2.17.19-4.28.36-6.55.56,1.29-1.08,5.11-1.36,6.55-.56Z"/>
      <path d="m172.33,120.37c1.39,1.51,2.77,3.03,4.31,4.7-1.55-.39-3.55-2.51-4.31-4.7Z"/>
      <path d="m157.63,102.71c2.32-.38,4.63-.76,6.95-1.14-2.19,1.13-4.52,1.4-6.95,1.14Z"/>
      <path d="m173.47,111.91c-1.58.61-3.21,1.01-4.99.95.67-.75,3.31-1.3,4.99-.95Z"/>
      <path d="m154.91,110.61c1.11,1.04,2.27,3.3,2.53,4.82-.77-.65-2.37-3.62-2.53-4.82Z"/>
      <path d="m147.77,96.74c-1.73.82-3.53,1.26-5.45,1.2,1.71-.9,3.6-.96,5.45-1.2Z"/>
      <path d="m117.95,93.43c-1.18.81-4.64,1.72-6.03,1.63,2.12-.84,4.05-1.35,6.03-1.63Z"/>
      <path d="m128.44,82.36c-.95,1.19-2.17,1.96-3.78,2.33.52-.86,2.62-2.19,3.78-2.33Z"/>
      <path d="m104.69,94.99c1.68-.75,3.4-1.3,5.37-1.6-.82.79-3.81,1.69-5.37,1.6Z"/>
      <path d="m149.04,109.34c1.81,1.37,2.94,3.17,3.04,4.69-1.11-1.72-2.08-3.21-3.04-4.69Z"/>
      <path d="m167.92,121.73c-1.1-1.55-1.82-3.28-2.6-5.27,1,.99,2.67,4.31,2.6,5.27Z"/>
      <path d="m122.52,95.75c1.46.32,3.26,1.84,3.69,3.14-.75-.27-2.53-1.78-3.69-3.14Z"/>
      <path d="m176.32,122.71c1.33.42,2.32,1.68,2.35,2.88-1.21-.59-1.81-1.55-2.35-2.88Z"/>
      <path d="m149.75,102.43c.04-.11.05-.27.13-.33.61-.43,2.98-.86,3.9-.73-.67.81-1.87,1.12-4.05,1.02,0,0,.03.03.03.03Z"/>
      <path d="m165.03,105.79c-1.47.8-2.65,1.04-3.87.83.05-.15.05-.35.15-.41.58-.4,1.99-.56,3.73-.42Z"/>
      <path d="m109.09,116.55c-.95.44-1.85.44-2.8,0,.77-.74,2.13-.74,2.8,0Z"/>
      <path d="m126.89,78.2c-.92.96-1.93,1.8-3.19,2.3.87-1.03,1.93-1.79,3.19-2.3Z"/>
      <path d="m122.02,92.27c.75-.95,1.82-1.43,3.03-2.07-.6.97-1.85,1.82-3.03,2.07Z"/>
      <path d="m137.64,92.86c.67-1.04,1.65-1.57,3.12-1.72-.95.91-1.87,1.39-3.12,1.72Z"/>
      <path d="m106.91,93.04c1.05-.69,2.23-.98,3.47-1.1-1.04.7-2.22,1.02-3.47,1.1Z"/>
      <path d="m134.51,105.71c.81,1.07,1.62,2.14,2.44,3.21-.8-.2-1.88-1.65-2.44-3.21Z"/>
      <path d="m146.92,106.09c-1.03-.78-1.4-1.74-1.86-2.63.91.56,1.5,1.36,1.86,2.63Z"/>
      <path d="m133.79,94.78c.6-.95,1.31-1.15,2.29-1.4-.6.97-1.31,1.16-2.29,1.4Z"/>
      <path d="m164.86,122.56c-.73-.47-.91-1.15-1.12-1.92.77.46.94.75,1.12,1.92Z"/>
      <path d="m170.45,125.38c-.52-.1-.7-.35-.69-.87.51.11.72.34.69.87Z"/>
      <path d="m33.04,49.75c-3.64-.07-7.11-.72-10.53-2.16.34-.52.67-.47,1.02-.38,1.28.34,2.56.68,3.85,1.01,1.63.43,3.26.85,4.89,1.28.26.07.52.17.77.25Z"/>
      <path d="m46.29,58.14c-1.18.34-5.66-.22-7-.83.7-.45.79-.49,3.51-.07,1.15.18,2.35.24,3.5.9Z"/>
      <path d="m35.88,54.69c1.33-.17,2.58.16,3.78.76-1.33.17-2.57-.17-3.78-.76Z"/>
      <path d="m16.77,43.67c-1.22-.02-2.27-.5-3.28-1.1,1.18.12,2.24.57,3.28,1.1Z"/>
      <path d="m45.02,56.07c-.96.2-1.87.09-2.95-.52,1.21-.15,2.1,0,2.95.52Z"/>
      <path d="m22.23,98.71c-.47-.44-.81-.66-1.03-.97-1.55-2.24-3.08-4.5-4.61-6.76-.04-.06-.03-.15-.09-.54.56.63.95,1.06,1.34,1.51.44.52.87,1.05,1.3,1.58.4.5.81,1,1.2,1.51.41.54.83,1.09,1.2,1.66.34.51.85.97.69,2.02Z"/>
      <path d="m22.56,109.44c-1.77-2.96-3.53-5.93-5.32-8.92,1.41.91,5.01,6.74,5.32,8.92Z"/>
      <path d="m20.32,92.8c-1.01-.69-4.89-6.29-5.34-7.69,2.02,2.4,3.9,4.89,5.34,7.69Z"/>
      <path d="m18.78,84.19c-1.01-.44-3.19-3.58-3.86-5.55,1.84,1.6,3.83,4.46,3.86,5.55Z"/>
      <path d="m30.84,140.54c-1.82-1.94-2.57-4.24-4.03-6.33,1.31.86,3.77,4.71,4.03,6.33Z"/>
      <path d="m24.33,99.55c-1.04-1.67-2.09-3.35-3.13-5.02.07-.04.14-.09.21-.13,1.21,1.57,2.46,3.11,2.93,5.15Z"/>
      <path d="m23.15,99.88c.83.79,1.61,1.61,1.73,2.83-.87-.76-1.4-1.73-1.73-2.83Z"/>
      <path d="m29.36,111.8c-.17-1.56.45-2.94.92-4.34,1.01-3.03,2.48-5.84,4.45-8.37.1-.13.19-.29.33-.34.16-.06.43-.1.52-.02.1.1.12.36.07.53-.06.18-.21.34-.35.48-2.14,2.12-3.28,4.84-4.43,7.54-.62,1.46-1.01,3.03-1.49,4.53Z"/>
      <path d="m27.28,106.21c-.02-.51-.18-1.06-.05-1.53.88-3.15,2.04-6.18,3.99-8.84.26-.35.64-.62.97-.92.09.07.18.15.27.22-.24.38-.46.77-.71,1.13-2.12,3.03-3.61,6.34-4.48,9.93,0,0,.02.02.02.02Z"/>
      <path d="m33.37,113.87c-.22,1.8-.96,3.39-1.91,5.08-.48-.84-.15-1.46.06-2.05.4-1.13.7-2.34,1.85-3.03Z"/>
      <path d="m31.58,100.55c-.44,2.07-1.6,3.82-2.37,5.75-.09-1.14.29-2.16.72-3.15.41-.94.65-2,1.64-2.59Z"/>
      <path d="m26.74,95.61c.09-1.91,1.47-4.11,2.76-4.41-.16.96-1.02,1.4-1.41,2.13-.39.73-.84,1.43-1.35,2.27Z"/>
      <path d="m35.23,94.86c-.05.83-1.49,3.27-2.32,4.03.44-1.67,1.1-3,2.32-4.03Z"/>
      <path d="m35.21,91.46c-.11.78-.45,1.44-1.11,1.91.04-.82.34-1.49,1.11-1.91Z"/>
      <path d="m36.39,101.63c.02.66-.29,1.13-.88,1.66-.17-.99.34-1.33.88-1.66Z"/>
      <path d="m36.6,97.02q.36-.74,1.02-1.07-.38.86-1.02,1.07Z"/>
      <path d="m41,46.49c-.13-.47-.28-.78-.3-1.1-.04-.64-.07-1.29-.02-1.93.25-3.33-.39-6.56-.97-9.8-.15-.82-.43-1.62-.67-2.48,1.85,1.8,3.59,12.2,1.96,15.3Z"/>
      <path d="m43.08,36.05c.56,2.31,1.02,4.62.4,7.09-.12-.17-.33-.34-.34-.51-.13-2.18-.23-4.37-.34-6.56.09,0,.19-.01.28-.02Z"/>
      <path d="m44.68,38.61c-.26-1.54-.53-3.09-.79-4.63.74,1.46,1.16,2.99,1.08,4.6-.09.01-.19.02-.28.03Z"/>
      <path d="m83.41,101.64c-.13-.32-.28-.63-.39-.95-.86-2.68-1.72-5.36-2.57-8.04-.48-1.49-.91-3-.81-4.81.2.31.32.44.38.6.96,2.94,1.92,5.88,2.85,8.83.29.92.53,1.86.74,2.8.11.49.11,1,.15,1.51-.12.02-.23.04-.35.06Z"/>
      <path d="m77.03,95.89c1.03,2.93,2,5.69,3.07,8.75-.44-.27-.72-.35-.84-.54-.36-.57-.78-1.15-.96-1.79-.55-2-.99-4.03-1.47-6.06-.01-.05.06-.13.19-.36Z"/>
      <path d="m84.33,77.83c-.27,2.55-.54,5.1-.82,7.8-.88-1.84-.47-6.21.82-7.8Z"/>
      <path d="m73.91,90.2c.83,2.98,1.67,5.97,2.5,8.95-.08.03-.16.06-.25.09-.13-.22-.3-.44-.4-.68-.95-2.35-1.56-4.8-1.91-7.31-.05-.35.03-.71.06-1.08,0,0-.01.02-.01.02Z"/>
      <path d="m82.76,93.19c-1.01-1.92-1.32-3.98-1.19-6.26.54.58,1.38,4.97,1.19,6.26Z"/>
      <path d="m81.43,80.32v5.02c-.78-.9-.82-2.83,0-5.02Z"/>
      <path d="m73.98,96.91c-.97-1.09-1.13-2.29-1.4-3.7.91.84,1.54,2.53,1.4,3.7Z"/>
      <path d="m88.31,90.21c-.56-.92-.39-1.86-.03-2.81.27.92.37,1.84.03,2.81Z"/>
      <path d="m90.08,81.38c.26,1.39.24,1.59-.25,2.42-.13-.88-.2-1.67.25-2.42Z"/>
      <path d="m64.22,70.1c.9,1.13,1.7,4.33,1.4,5.6-.62-.51-1.13-2.52-1.4-5.6Z"/>
      <path d="m91.71,129.08c-.75-2.8-1.5-5.59-2.26-8.46.25-.18.55-.1.76.27.22.38.42.78.59,1.18.74,1.79,1.19,3.65,1.29,5.59.03.46-.1.94-.15,1.4-.08,0-.15,0-.23.01Z"/>
      <path d="m91.8,130.3c.97,1.16,1.22,5.67.46,7.25-.46-2.47-.54-4.72-.46-7.25Z"/>
      <path d="m89.58,132.18c-.57-.88-1.2-4.97-1.02-6.34.68.37.76,1.03.89,1.62.33,1.51.55,3.04.13,4.72Z"/>
      <path d="m88.74,124.28c-1.09-1.14-1.29-2.46-1.9-3.7,1.04.41,1.88,2.03,1.9,3.7Z"/>
      <path d="m106.13,127.98c.77.97.96,1.99.58,3.13-.58-.71-.83-2.06-.58-3.13Z"/>
      <path d="m100.75,132.73c-.46-.67-.73-1.41-.76-2.31.68.52.85,1.02.76,2.31Z"/>
      <path d="m58.91,97.78c.66-.37,1.27-.88,1.98-1.09,2-.59,4.03-1.08,6.05-1.57.38-.09.81-.07,1.19.01.21.04.37.33.55.5-.2.17-.38.36-.6.49-.12.07-.31.03-.47.03-2.66-.05-5.18.53-7.61,1.58-.32.14-.66.22-.99.33-.03-.1-.07-.19-.1-.29Z"/>
      <path d="m70.26,87.73c-2.19.78-4.21,1.39-6.13,2.21-1.91.81-3.72,1.84-5.78,2.87,1.59-2,9.66-5.47,11.91-5.08Z"/>
      <path d="m63.97,94.69c-.28.15-.53.37-.81.42-2.92.56-5.62,1.65-8.18,3.25.17-.18.31-.39.5-.54,1.34-1.13,2.86-1.93,4.51-2.49.99-.34,1.99-.65,2.98-.97.35-.11.7-.23.99.33Z"/>
      <path d="m67.61,97.67c-2.77,1.2-5.9,1.08-8.74,2.68.66-.89,1.12-1.19,2.66-1.66,1-.31,2.01-.59,3.03-.79.99-.2,1.96-.65,3.04-.23Z"/>
      <path d="m63.95,91.81c-.23.16-.45.38-.7.49-2.07.85-4.15,1.67-6.13,2.46.45-.65.81-.91,3.07-1.98,1.16-.55,2.31-1.18,3.63-1.25.05.1.09.19.14.29Z"/>
      <path d="m65.61,90.86c1.6-1,3.38-1.54,5.22-1.92.23-.05.5.09.86.16-.56.81-1.36.62-1.99.83-.64.21-1.31.36-1.96.55-.68.2-1.35.42-2.03.62-.03-.08-.07-.17-.1-.25Z"/>
      <path d="m68.26,99.47c-1.07.25-2.14.5-3.3.77.87-.94,2.38-1.4,3.3-.77Z"/>
      <path d="m68.7,93.44c-.97.26-1.94.51-2.9.77-.03-.1-.05-.2-.08-.3.86-.65,1.88-.71,2.89-.8.03.11.06.22.09.33Z"/>
      <path d="m36.73,74.83c.83,1.07,1.71,2.11,2.39,3.56-1.17-.76-2.28-2.38-2.39-3.56Z"/>
      <path d="m45.9,94.59c-.91-.89-1.16-1.46-1.2-2.61.73.8.84,1.76,1.2,2.61Z"/>
      <path d="m73.68,60.83c-.39-.83-.69-5.57-.54-7.82,1.05,2.13,1.36,6.23.54,7.82Z"/>
      <path d="m77.26,49.13c-.75-1.07-.06-5.06,1.11-6.74-.64,2.32-.47,4.58-1.11,6.74Z"/>
      <path d="m75.13,50.12c-.25-2.76-.19-5.51.7-8.36.1,1.48-.36,7.86-.7,8.36Z"/>
      <path d="m73.42,49.77c-.52-.82-.46-2.31.15-3.42.31,1.26.25,2.62-.15,3.42Z"/>
      <path d="m77.05,57.74c-.02.25-.05.5-.07.75-.07,0-.14-.01-.21-.02.02-.25.04-.5.06-.75.07,0,.14.01.22.02Z"/>
      <path d="m83.68,15.15c-1.01-2.17-.4-10.2.92-12.18.03.46.08.74.06,1.02-.27,2.88-.56,5.76-.83,8.65-.08.84-.1,1.68-.15,2.52Z"/>
      <path d="m86.22,7.93c.31,3.78.54,7.54-.29,11.29-.47-1.21-.26-2.47-.27-3.71,0-1.28,0-2.57.11-3.85.1-1.24.02-2.52.45-3.72Z"/>
      <path d="m83.86,16.77c.81,2.1.74,6.87-.09,8.41-.34-2.93-.12-5.67.09-8.41Z"/>
      <path d="m81.87,8.85c.44.77.32,4.6-.19,6.02-.65-1.23-.53-5.05.19-6.02Z"/>
      <path d="m57.03,37.74c-1.06,3.46-3.29,6.28-5.13,9.31,1.03-3.48,3.25-6.3,5.13-9.31Z"/>
      <path d="m57.29,41.62c-.47.67-.94,1.34-1.51,2.16-.03-1.11.28-1.59,1.32-2.31.07.05.13.1.2.15Z"/>
      <path d="m55.66,36.21c.22-.69.44-1.39,1.27-1.75-.33.64-.67,1.27-1,1.91-.09-.05-.18-.11-.27-.16Z"/>
      <path d="m37.26,58.87c1.5.99,3.03,1.94,4.48,3,1.45,1.06,2.82,2.24,4.21,3.39.29.24.48.58.58,1.06-.24-.09-.52-.12-.71-.27-2.99-2.29-5.97-4.59-9.13-7.02.35-.08.48-.1.61-.13l-.04-.03Z"/>
      <path d="m37.02,65.28c2.19,1.08,4.21,2.41,6.06,4.16-.95-.09-4.98-2.81-6.06-4.16Z"/>
      <path d="m43.26,71.7c-.2.02-.44.11-.54.03-.91-.67-1.8-1.38-2.85-2.2,1.38-.03,3.04,1.1,3.39,2.17Z"/>
      <path d="m44.64,61.69c.86.28,1.55.74,2.11,1.79-1.07-.43-1.68-1-2.11-1.79Z"/>
      <path d="m49.36,30.38c.44,1.91.17,3.75-.45,5.56-.25-1.88.23-3.72.45-5.56Z"/>
      <path d="m107.73,88.3c-.01-1.04.91-2.98,1.93-4.07.12,1.02-.88,3.12-1.93,4.07Z"/>
      <path d="m106.96,86.54c.38-1.56,1.16-2.94,2.16-4.49-.09,1.28-1.23,3.69-2.16,4.49Z"/>
      <path d="m102.01,84.29c-.45-1.36.3-5.9,1.15-6.84-.33,2.24-.39,4.52-1.15,6.84Z"/>
      <path d="m104.86,77.75c0-1.17.21-2.28.87-3.28-.06,1.15-.32,2.25-.87,3.28Z"/>
      <path d="m97.79,94.37c-.24-2.31-.18-4.36.02-6.62.75,1.49.75,5.22-.02,6.62Z"/>
      <path d="m49.21,82.54c.43-.12.54.21.68.49.84,1.66,1.41,3.4,1.66,5.24.1.74.18,1.49.06,2.31-.1-.16-.26-.31-.29-.49-.17-.9-.3-1.82-.47-2.72-.31-1.69-.78-3.33-1.64-4.84h0Z"/>
      <path d="m55.35,90.9c-.87-.43-.58-1.14-.65-1.71-.07-.62-.09-1.25-.13-1.9.59.71.98,2.41.78,3.61Z"/>
      <path d="m49.21,82.54c-.07-.36-.14-.72-.21-1.13.36.35.46.71.21,1.13,0,0,0,0,0,0Z"/>
      <path d="m99.8,58.78c-.08.09-.15.25-.23.25-2.57.19-5.15.36-7.96.56,2.32-1.19,4.64-1.08,6.91-1.19.44-.02.98-.22,1.29.37Z"/>
      <path d="m44.92,111.01c-.92.07-1.51-.56-2.21-.98.87,0,1.63.27,2.21.98Z"/>
      <path d="m60.6,121.38c1.17.01,1.64.39,1.9,1.55-.95-.19-1.17-1.17-1.87-1.57,0,0-.03.02-.03.02Z"/>
      <path d="m63.8,117.96c.34.28.67.56,1.04.86-.98.17-1.12.04-1.03-.87,0,0-.01,0-.01,0Z"/>
      <path d="m111.57,108.06c1.49-1.9,5.45-4.01,7.44-3.78-1.01.5-1.81.87-2.59,1.29-.81.44-1.59.93-2.39,1.39-.78.45-1.56.89-2.35,1.33-.04-.08-.08-.16-.12-.24Z"/>
      <path d="m115.71,119.36c-1.12-.39-2.23-.79-3.43-1.21.14-.37.43-.46.75-.4,1.07.2,2.1.5,2.68,1.61Z"/>
      <path d="m118.89,110.6c-1.66-.22-3.13-.42-4.54-.61.84-.86,2.92-.67,4.54.61Z"/>
      <path d="m183.53,118.2c-1.21.14-2.41.57-3.58.01,1.2-.47,2.4-.36,3.58-.01Z"/>
    </g>
  </g>
</svg>