<?xml version="1.0" encoding="UTF-8"?>
<svg id="Layer_2" data-name="Layer 2" xmlns="http://www.w3.org/2000/svg" viewBox="0 0 32.46 48.44">
  <g id="objects">
    <g>
      <path d="m17.05,13.78s.16-.27.12-.37c-.44-1.5-2.02-3.33-1.29-4.97.02-.06.11-.45.04-.3-.98,2.04.56,3.74,1.13,5.64Z"/>
      <path d="m2.11,23.8c-.03.07-.06.16-.07.22-.95,2.79-1.56,5.7-1.86,8.62-.01.1-.02.21-.03.31-.03.06-.06.14-.05.18,0,.04.02.08.02.11-.31,3.55-.23,7.7,2.53,10.25,0,.01,0,.02,0,.02,0,0,.01,0,.02,0,.07.06.13.12.2.18,0,0,.04-.08.08-.17.01,0,.03,0,.04,0-.01.05-.02.12-.01.1.02-.03.03-.07.05-.1,3.37.09,6.59-1.1,9.54-2.66,1.49-.79,2.93-1.67,4.35-2.57.06-.01.12-.02.18-.04.01,0,.03-.05.04-.1,1.7-1.07,3.41-2.14,4.97-3.42.6-.49,1.16-1.02,1.69-1.58.23-.16.45-.33.65-.53.05-.05.05-.25.06-.26,0,0,0,0,0,0,.3-.36.59-.73.88-1.1,1.72-2.02,3.19-4.33,4.29-6.8.27-.54.53-1.1.79-1.63.54-1.13,1.04-2.3,1.32-3.52.36-1.56.23-3.16.07-4.75,0-.01.02-.02.03-.03.05-.05.05-.25.06-.26-.03.03-.07.06-.1.09-.02-.77-.08-1.54-.18-2.3,0-.14,0-.28,0-.42,0-.02-.04-.05-.07-.06-.11-.65-.24-1.3-.43-1.94-.03-.44-.06-.87-.07-1.31-.05-2.48.32-4.94,1.08-7.3.06-.07.12-.13.19-.2.06-.06.06-.3.07-.31-.04.04-.09.08-.13.12.03-.1.06-.2.1-.3.01-.03.08-.34.04-.32-7.07,4.34-15.73,5.32-22.05,10.99-3.87,3.47-6.59,7.95-8.28,12.81Zm-.08.48c-.04,2.53.36,5.04,1.22,7.42.44,1.21.99,2.39,1.65,3.5.31.52.64,1.03,1,1.52.09.12.17.24.26.35-.68,1.29-1.33,2.58-1.96,3.89-.5-.45-.91-1.38-1.27-1.96-.4-.65-.77-1.31-1.12-1.98-.65-1.27-1.11-2.57-1.55-3.92.24-2.99.81-5.97,1.77-8.82Zm8.66,5.23c-.18.29-.35.58-.53.87-.54.88-1.1,1.76-1.65,2.65.7-1.23,1.44-2.45,2.2-3.64,0,.04-.01.09-.02.13Zm.1-.25c.25-.38.5-.77.76-1.15-.26.42-.52.85-.78,1.27,0-.04.02-.08.02-.12Zm-7.78,13.92C.31,40.89,0,37.08.21,33.78c0-.04,0-.07,0-.11.35,1.44.97,2.82,1.66,4.12.38.71.79,1.4,1.22,2.08.23.36.55,1.07.92,1.44-.3.62-.59,1.25-.88,1.88-.04,0-.09,0-.13,0Zm.21,0c.31-.59.62-1.18.92-1.77.05.04.1.07.15.1.28.13.72,0,1.01-.03.49-.04.98-.09,1.46-.13.92-.09,1.85-.18,2.77-.27.72-.07,1.46-.11,2.19-.2-2.67,1.31-5.49,2.24-8.5,2.3Zm10.61-3.42c-.06.03-.12.07-.18.1,0-.01,0-.02,0-.01,0,0-.01.02-.02.03-.39.22-.78.43-1.18.64-.41.06-.85.05-1.2.08-.87.07-1.73.15-2.6.23-.87.08-1.74.15-2.6.24-.54.05-1.26.28-1.73-.01.65-1.27,1.28-2.56,1.93-3.83.09.14.22.18.4.1.31.05.7-.04,1.02-.06,1.6-.11,3.19-.3,4.78-.56,0,.02,0,.03,0,.03.64.46,1.55.75,2.28,1.07.47.21,1.04.45,1.59.51-.83.5-1.66.98-2.49,1.45Zm3.01-1.76c-.26-.05-.53-.07-.78-.14-.42-.11-.82-.28-1.21-.46-.52-.24-1.09-.63-1.67-.83,1.09-.2,2.18-.44,3.26-.71,1.41-.35,2.81-.77,4.19-1.25.74-.26,1.5-.52,2.2-.87-1.81,1.6-3.88,2.98-5.98,4.26Zm1.65-9.43c1.68-.09,3.43-.67,5.08-1.03,1.56-.34,3.11-.68,4.66-1.05-.42.73-.85,1.45-1.28,2.16-.35.57-.71,1.13-1.09,1.67-.87.35-1.7.79-2.51,1.25-1.11.63-2.2.94-3.45,1.16-.02,0-.03.1-.03.1,1.07-.18,2.1-.4,3.07-.92.92-.49,1.84-.95,2.78-1.39-.08.11-.16.22-.24.33-.2.26-.4.52-.6.77-.28.35-.58.68-.88,1.01,0-.01,0-.02,0-.03-.35.38-.81.54-1.29.68-.54.15-1.08.32-1.62.47-.01,0-.01.05-.01.05.61-.15,1.22-.28,1.82-.46.11-.03.21-.06.31-.1-.87.45-1.8.78-2.74,1.09-1.29.43-2.59.82-3.91,1.15-2.78.69-5.61,1.14-8.47,1.36-.34.03-.68.05-1.02.07-.32.02-.47.03-.61-.07.09-.18.19-.37.29-.55,1.29-1.66,2.42-3.43,3.53-5.22.97,0,2.12-.46,2.98-.72,1.08-.33,2.14-.72,3.18-1.14,2.01-.82,4.12-1.64,5.98-2.75,1-.6,1.79-1.42,2.66-2.19.77-.69,1.64-1.23,2.52-1.76,1.47-.87,2.94-1.76,3.7-3.32-.09.48-.21.95-.33,1.42-.71,1.86-1.77,3.56-2.47,5.42-.02.03-.03.06-.05.09-1.6.34-3.18.72-4.78,1.07-1.68.37-3.5.6-5.12,1.18-.04.01-.07.21-.06.21Zm3.81-3.61c-2.01-.19-4.02-.42-6.04-.57,1.61-.93,3.21-1.86,4.81-2.79-.02.02-.05.03-.07.05-.03.03-.06.24-.06.24.35-.1.62-.04.96.01.56.08,1.1.03,1.65-.03,1.16-.13,2.32-.17,3.48-.26.02,0,.03-.11.03-.11-1.2.03-2.4.11-3.6.1-.49,0-.98.03-1.47-.04-.33-.05-.57-.14-.84-.01.58-.34,1.16-.67,1.74-1.01.11-.06.23-.13.34-.19,0,.05-.01.1-.01.1,1.51-.19,3.01-.58,4.48-.93,1.18-.28,2.53-.48,3.7-.93-.02.11-.03.22-.05.32-.87,1.77-2.73,2.64-4.34,3.62-1.77,1.08-3.06,2.76-4.89,3.76-1.91,1.05-3.98,1.9-6,2.7-1,.4-2.02.76-3.05,1.06-.81.24-1.72.34-2.54.58.94-1.54,1.86-3.08,2.85-4.58.85-.48,1.69-.97,2.54-1.45,0,.05-.01.09,0,.09,2.08.33,4.24.43,6.34.43.03,0,.05-.16.05-.16Zm9.29-9.01c.02.38.02.75,0,1.12-.04.39-.08.78-.14,1.17-.55.08-1.1.28-1.63.41-.72.18-1.44.35-2.17.53-1.36.32-2.75.6-4.09.99,2.73-1.54,5.76-3.01,7.96-5.24.03.34.06.68.07,1.02Zm-.64-6.66c-.06.12-.14.29-.11.38.06.18.11.36.16.55,0,0,0,0,0,.01.12,1.49.36,2.97.5,4.46-2.55,2.21-5.6,3.76-8.5,5.45-3.1,1.81-6.21,3.6-9.3,5.44.1-.16.21-.31.31-.47.02-.02.04-.05.05-.07.54-.62,1.09-1.25,1.63-1.88.81-.82,1.66-1.61,2.38-2.51.76-.98,1.5-1.95,2.28-2.9.35-.41.7-.82,1.05-1.23,0,.02,0,.03-.01.05,0,.01-.02.16-.01.15,2.6-3.26,7.08-4.23,9.57-7.61,0,.07,0,.13.01.2Zm-14.17,12.18c.33-.37.66-.73,1-1.09-.33.4-.67.8-1.02,1.18,0-.03.01-.06.02-.08ZM32.06,1.14c-.79,2.53-1.18,5.16-1.12,7.81-2.21,2.74-5.73,3.89-8.31,6.21-.25.23-.48.47-.71.71,0,0,0,0,0,0,.15-.18.3-.37.44-.55,1.38-1.62,2.68-3.29,3.8-5.12,1.91-3.11,3.4-6.37,5.9-9.06Zm-5.4,7.85s-.02.06-.02.09c-.43.71-.88,1.4-1.35,2.08-.02-.05-.04-.11-.06-.16.51-.9,1.03-1.8,1.6-2.66-.02.22-.07.44-.18.65Zm.28-.8c.09-.13.17-.26.26-.38.07-.1.14-.2.21-.3,0,.06-.01.1,0,.09.16-.25.32-.49.48-.74,0,0,.01-.02.02-.03-.27.5-.54,1-.82,1.48-.12.21-.25.42-.37.63.11-.24.18-.49.22-.75Zm-1.73,3.09c-.23.34-.48.67-.72,1,.22-.36.43-.72.64-1.09.03.03.05.06.08.09ZM32.25.53c-.02.06-.04.13-.06.19-.29.26-.56.54-.83.82.05-.07.09-.14.14-.22.05-.08.07-.32.09-.42.22-.13.44-.25.65-.38Zm-.73.42c-.75.81-1.27,1.75-1.79,2.72-.04.08-.09.15-.13.23-.24.37-.47.75-.69,1.14-.45.69-.93,1.36-1.42,2.03-.18.25-.36.5-.52.75,0,0,0,0,0,0,0-.42-.09-.83-.15-1.24-.18-1.09-.02-2.01.34-3.07.05-.14.07-.41-.03-.13-.22.61-.43,1.25-.52,1.9-.09-.21-.17-.48-.07-.68.04-.09.09-.21.09-.3,0-.02.02-.15-.03-.07-.09.16-.18.31-.27.47-.04.07-.08.14-.12.21-.05.09-.08.24-.2.12-.19-.19-.2-.62-.18-.86,0-.08,0-.08-.04-.03-.06.07-.08.22-.1.31-.09.44-.02.86.24,1.22.02,0,.03-.01.03-.03.14-.25.28-.5.42-.75-.03.25.01.51.17.74,0,0,0-.03.03-.07,0,.05,0,.1-.01.15-.03.75.26,1.55.29,2.32-.6.92-1.13,1.87-1.67,2.82-.73-2.03-.94-4.17-.69-6.32.01-.13-.09.16-.1.21-.16,1.12-.19,2.24-.06,3.36,0,.08.03.16.04.25-.62-.91-.97-1.95-.98-3.07,0-.05-.12.23-.12.31,0,1.2.39,2.35,1.15,3.28,0,0,0-.03.03-.07.07.39.14.78.25,1.16.09.35.16.8.36,1.12-.45.78-.91,1.55-1.44,2.28-.32.45-.66.89-1,1.33-.32.38-.65.76-.98,1.14.01-.05.03-.09.04-.14.17-.78.26-1.59.3-2.39.05-1.07.03-2.14,0-3.21,0-.22-.01-.45-.02-.68.01-.03.02-.06.01-.07,0-.02-.01-.04-.02-.06-.04-1.43-.03-3.02.88-4.1.08-.09.08-.35.1-.43,2.94-1.1,5.87-2.21,8.6-3.77ZM9.7,12.05c-.92,3.1-1.78,6.21-2.75,9.29-.04-2.21.34-4.41.67-6.61.02-.12-.07.13-.08.16-.56,2.63-.96,5.46-.66,8.14.31,2.77,1.29,5.46,2.37,8.01,0,0,.09-.16.07-.22-.86-2.46-1.82-4.9-2.21-7.49-.09-.62-.14-1.24-.16-1.86,1-3.12,2-6.27,2.81-9.45,0-.03.01-.05.01-.07.45-.42.91-.83,1.39-1.22,2.99-2.44,6.49-4,10.07-5.37.56-.21,1.11-.42,1.67-.63-.95,1.11-1.09,2.62-1.1,4.03-.28-1.03-.57-2.06-.81-3.11,0,.03-.15.26-.12.36.25,1.09.54,2.19.93,3.25.01,2.22.19,4.46-.27,6.64-.15.17-.3.34-.46.51-.49.47-.95.99-1.38,1.52-.95,1.03-1.9,2.05-2.83,3.09.93-4.91.56-10.14,3.08-14.62.04-.07.09-.4.07-.35-2.69,4.52-2.41,10.03-3.25,15.09-.78.88-1.55,1.77-2.29,2.68-.29.31-.56.64-.81,1-.06.09-.12.18-.18.27-.92,1.22-1.8,2.48-2.63,3.77.51-2.89.69-5.82.93-8.73.31-3.75.84-7.35,2.05-10.92,0-.01.03-.16,0-.09-1.31,2.97-1.73,6.37-2.04,9.58-.33,3.44-.48,6.9-1.03,10.31-.81,1.27-1.59,2.56-2.33,3.87-.72,1.27-1.42,2.56-2.11,3.86-.05-.06-.11-.12-.17-.21-.41-.55-.78-1.13-1.13-1.72-.64-1.08-1.17-2.21-1.6-3.38-.01-.03-.02-.07-.03-.1.15-.3.25-.6.34-.93.02-.06,0-.03-.02,0-.1.19-.21.39-.31.58.01-.11.03-.21.04-.32,0-.21.04-.44.06-.65.03-.43.06-.86.08-1.28.05-.97.09-1.94.13-2.91.09-1.93.23-3.87.24-5.8,0-.05-.11.22-.11.29-.26,3.57-.12,7.19-.53,10.74-.8-2.29-1.18-4.71-1.15-7.13.41-1.18.89-2.35,1.43-3.48,1.52-3.14,3.59-6.03,6.12-8.43,0,.01,0,.02-.01.04Z"/>
      <path d="m26.91,17.14c1.45-.64,2.8-1.64,3.86-2.83.02-.02.02-.09.02-.1-1.19,1.13-2.44,2.05-3.87,2.86-.01,0-.01.06-.02.06Z"/>
      <path d="m27.31,16.37c1.42-.87,2.73-1.97,3.7-3.33.01-.02.01-.08.02-.08-1.11,1.26-2.24,2.37-3.68,3.25-.04.02-.04.16-.04.16Z"/>
      <path d="m27.29,15.71c1.39-1.05,2.64-2.29,3.59-3.76.02-.02.02-.1.02-.11-1.05,1.39-2.18,2.65-3.57,3.72-.03.02-.03.14-.04.15Z"/>
      <path d="m28.05,13.6c.91-.92,1.89-1.85,2.72-2.85.01-.02.03-.11.03-.11-1.01.74-1.91,1.87-2.71,2.82-.02.03-.02.12-.03.13Z"/>
      <path d="m28.6,10.18c.75-.46,1.36-1.2,1.74-1.99,0-.02.03-.11.02-.1-.47.79-1.02,1.39-1.73,1.97-.02.02-.03.12-.03.12Z"/>
      <path d="m29.37,8.11c.4-.22.81-.48,1.12-.83.01-.02.03-.12.03-.11-.38.21-.7.51-1.09.72-.05.03-.05.22-.05.23Z"/>
      <path d="m19.54,17.92s-.03.13-.02.11c.51-.8.94-1.63,1.3-2.51,0-.01.02-.09,0-.05-.37.85-.8,1.67-1.28,2.45Z"/>
      <path d="m21.01,12.97c-.24,1.13-.66,2.15-1.31,3.1-.02.03-.05.19-.03.17.69-1,1.16-2.12,1.37-3.32.01-.07-.02.03-.03.05Z"/>
      <path d="m20.89,10.97c-.19,1.02-.52,1.97-1.03,2.88-.02.04-.05.21-.03.18.55-.97.93-2.02,1.1-3.12,0-.05-.03.05-.03.06Z"/>
      <path d="m20.94,8.62c-.12,1.15-.45,2.22-1.01,3.24-.02.03-.04.18-.03.16.62-1.1.99-2.29,1.11-3.54,0-.09-.06.11-.07.15Z"/>
      <path d="m20.94,7.36c-.21.57-.38,1.16-.57,1.73-.02.07-.03.2.02.06.19-.58.4-1.17.57-1.76,0-.03.02-.11-.01-.04Z"/>
      <path d="m11.14,15.05c-.13.72-.23,1.45-.35,2.17-.07.43-.14.85-.22,1.28-.04.21-.18,1.42-.42.74,0,0-.03.05-.02.06.05.15.11.31.15.46,0,0,.02-.04.02-.04.77-2.6.72-5.37,1.82-7.88,0,0,.02-.06,0-.04-.5,1.03-.78,2.13-.98,3.25Z"/>
      <path d="m11.05,12.25c-.37,1.16-.62,2.35-.78,3.56,0,.02.02-.03.02-.04.16-1.19.43-2.35.78-3.5.02-.05.01-.11-.02-.03Z"/>
      <path d="m9.96,13.71c-.34,1.12-.59,2.27-.78,3.42-.02.1.04-.04.04-.07.19-1.13.45-2.24.76-3.34.02-.07,0-.08-.02,0Z"/>
      <path d="m6.82,16.69c-.65,2.3-.92,4.85-.49,7.21,0-.01.06-.12.06-.17-.22-2.42-.13-4.7.48-7.06.03-.12-.02-.06-.04.02Z"/>
      <path d="m5.85,17.92c-.6,1.89-.71,3.94-.33,5.88,0-.01.06-.11.05-.16-.32-1.94-.22-3.8.29-5.7.01-.05,0-.1-.02-.02Z"/>
      <path d="m4.84,20.04c-.02.75-.03,1.5-.05,2.25,0,.03.07-.13.07-.17.02-.75.04-1.49.04-2.24,0-.03-.06.12-.06.16Z"/>
      <path d="m3.43,22.66c-.07,1.35-.09,2.7-.12,4.05,0,.02.06-.11.06-.15.05-1.34.11-2.69.11-4.03,0-.02-.05.1-.05.13Z"/>
      <path d="m16.83,13.9c-.34,2.26-.65,4.54-.87,6.81,0,.05.03-.06.04-.08.27-2.29.55-4.58.89-6.86.01-.08-.05.1-.06.13Z"/>
      <path d="m16.65,12.94c-.26,1.32-.5,2.65-.75,3.98-.02.1.04-.05.05-.08.25-1.33.52-2.66.77-4,.02-.13-.05.06-.06.1Z"/>
      <path d="m16.02,13c-.2,1.18-.4,2.36-.6,3.54-.03.15.06-.06.06-.11.2-1.19.41-2.37.61-3.56.03-.17-.06.07-.07.12Z"/>
      <path d="m15.79,11.54c-.3,1.28-.57,2.58-.71,3.9,0,.05.03-.06.04-.08.2-1.3.42-2.59.73-3.87.04-.18-.04-.03-.06.06Z"/>
      <path d="m15.32,10.84c-.26,1.09-.44,2.2-.66,3.3-.03.15.06-.06.07-.11.21-1.08.48-2.16.63-3.25,0-.06-.03.05-.03.06Z"/>
      <path d="m15.13,9.58c-.28,1.15-.55,2.3-.86,3.45-.04.16,0,.17.04.01.31-1.17.61-2.34.87-3.52.04-.17-.04-.03-.06.06Z"/>
      <path d="m14.04,11.44s.01-.03,0-.03c0,0-.01.03,0,.03Z"/>
      <path d="m19.88,33.68c1.71-.45,3.36-1.12,4.85-2.08.03-.02.03-.14.03-.14-1.53.89-3.11,1.59-4.83,2.04-.05.01-.04.18-.05.18Z"/>
      <path d="m20.16,31.96c2.1-.48,4.21-1.27,6.01-2.46.02-.02.03-.11.03-.11-1.91,1.13-3.85,2.02-6.02,2.52-.01,0-.01.05-.02.05Z"/>
      <path d="m21.27,30.53c1.6-.44,3.18-.93,4.75-1.48.05-.02.04-.18.05-.18-1.57.55-3.15,1.04-4.75,1.48-.05.01-.04.18-.05.18Z"/>
      <path d="m22.35,29.75c.68.04,1.5-.27,2.14-.5.63-.22,1.25-.49,1.83-.83.02-.01.03-.11.03-.11-.66.33-1.31.64-2.01.87-.64.21-1.32.26-1.95.48-.02,0-.03.09-.03.09Z"/>
      <path d="m23.88,29.03c1.17-.3,2.26-.88,3.09-1.77.02-.02.02-.1.02-.1-.92.77-1.89,1.36-3.06,1.67-.05.01-.05.2-.06.2Z"/>
      <path d="m10.39,25.65c-.06,1.01-.08,2.03,0,3.04,0,.02.04-.07.04-.1-.04-1.01-.05-2.01,0-3.01,0-.01-.03.05-.03.07Z"/>
      <path d="m10.01,25.52c.04.93.11,1.87.17,2.8,0,.02.06-.1.05-.14-.06-.92-.1-1.85-.19-2.77,0,.01-.04.08-.04.11Z"/>
      <path d="m9.43,25.13c.09,1.23.22,2.45.34,3.67,0-.02.05-.09.04-.13-.12-1.2-.22-2.4-.36-3.6,0,0-.02.04-.02.06Z"/>
      <path d="m8.28,23.46c.21,1.98.65,3.93,1.25,5.83,0-.01.07-.11.05-.16-.59-1.89-.98-3.8-1.28-5.76,0,0-.03.06-.03.08Z"/>
      <path d="m7.85,24.55c.22,1.22.51,2.43.87,3.62,0,0,.02-.04.02-.05-.36-1.18-.65-2.38-.88-3.6,0,0-.01.02-.01.03Z"/>
      <path d="m7.95,29.1c.18.82.46,1.64.82,2.4,0,0,.04-.07.03-.09-.31-.79-.58-1.58-.82-2.4,0,0-.04.06-.03.09Z"/>
      <path d="m6.9,28.33c.38,1.43.87,2.82,1.39,4.2,0,0,.03-.05.02-.07-.5-1.39-.94-2.79-1.39-4.2,0,0-.03.05-.02.07Z"/>
      <path d="m6.98,30.41c.15.43.3.85.44,1.28,0,0,.04-.07.03-.1-.15-.42-.3-.84-.45-1.26,0,0-.04.06-.03.08Z"/>
      <path d="m6.04,29.24c.26,1.53.77,3.01,1.44,4.41,0,0,.06-.1.04-.13-.67-1.4-1.12-2.86-1.45-4.37,0,0-.04.07-.03.09Z"/>
      <path d="m5.51,29.67c.38,1.4.92,2.75,1.55,4.05,0,0,.05-.09.04-.12-.63-1.3-1.12-2.64-1.57-4,0,0-.03.05-.02.07Z"/>
      <path d="m5.2,30.86c.33.98.7,1.95,1.05,2.93,0,0,.05-.09.04-.12-.35-.96-.69-1.92-1.07-2.87,0,0-.03.04-.02.06Z"/>
      <path d="m4.61,31.32c.34,1.05.72,2.08,1.08,3.12,0,0,.05-.09.04-.12-.36-1.02-.71-2.05-1.1-3.07,0,0-.03.05-.02.07Z"/>
      <path d="m5.13,34.07s.01-.03,0-.03c0,0-.01.03,0,.03Z"/>
      <path d="m26.77,25.93c.7-.18,1.39-.79,1.86-1.33.02-.02.02-.09.02-.1-.28.26-.55.51-.86.74-.32.23-.68.41-1.01.64,0,0-.01.05-.01.05Z"/>
      <path d="m27.3,24.92c.88-.36,1.65-1.22,2.15-2.01.02-.03.02-.13.03-.14-.65.82-1.35,1.4-2.16,2.05-.02.01-.02.1-.03.1Z"/>
      <path d="m27.59,24.17c.69-.66,1.32-1.37,1.85-2.16.02-.03.02-.12.03-.12-.61.75-1.2,1.5-1.86,2.2-.02.02-.02.08-.02.08Z"/>
      <path d="m12.2,21.91c-.14,1.25-.29,2.5-.41,3.75,0,.04.02-.04.03-.06.15-1.24.27-2.48.39-3.72,0-.02-.01.02-.01.03Z"/>
      <path d="m6.14,25.42s.14-.29.09-.32c-.01,0-.14.29-.09.32Z"/>
      <path d="m6.66,23.37c.16.8.32,1.59.43,2.39.09.69.13,1.38.39,2.03,0,0,.02-.04.02-.05-.26-.67-.29-1.38-.37-2.09-.1-.8-.22-1.61-.43-2.39,0,0-.04.08-.04.11Z"/>
      <path d="m6.39,24.28c.02,1.1.1,2.21.27,3.31,0-.01.04-.07.03-.1-.12-1.08-.23-2.16-.29-3.24,0,0-.01.03-.01.04Z"/>
      <path d="m6.09,24.24c-.04.5-.01,1-.01,1.5,0,.02.05-.1.05-.13,0-.48.05-.99,0-1.46,0,0-.03.07-.03.1Z"/>
      <path d="m5.75,24.32c-.02.41-.04.82-.06,1.23,0,.01.03-.06.03-.08.02-.4.03-.8.05-1.2,0,0-.02.04-.02.06Z"/>
      <path d="m11.5,25.68c-.12.59-.17,1.18-.17,1.78,0,0,.02-.05.02-.06.01-.59.07-1.18.17-1.76,0-.06-.02.02-.02.04Z"/>
      <path d="m4.08,40.31s.04.03.03.02c-.27-.44-.52-.89-.76-1.35,0-.01-.04-.03-.04-.03.23.47.49.92.77,1.36Z"/>
      <path d="m4.26,40.03s.06.04.07.05c-.26-.45-.51-.91-.73-1.38,0-.01-.05-.03-.05-.04.19.48.42.94.71,1.37Z"/>
      <path d="m4.42,39.44s.05.04.04.02c-.24-.28-.39-.58-.53-.92,0-.01-.05-.04-.05-.04.09.35.3.67.54.93Z"/>
      <path d="m4.54,39.05s.05.03.04.03c-.26-.34-.46-.7-.62-1.09,0-.01-.04-.03-.04-.03.13.4.36.77.63,1.1Z"/>
      <path d="m3.96,34.78s.01.01.01,0c-1.32-2.14-1.96-4.39-2.39-6.84,0,0-.03-.02-.03-.02.12,2.41,1.13,4.84,2.41,6.86Z"/>
      <path d="m2.09,31.69s0,0,0,0c-.3-1-.5-2.03-.77-3.04,0-.02-.07-.05-.07-.05.15,1.05.51,2.09.83,3.09Z"/>
      <path d="m1.91,32.15s.04.03.04.03c-.31-.8-.45-1.62-.66-2.45,0-.02-.06-.05-.06-.05.05.83.38,1.7.68,2.47Z"/>
      <path d="m1.32,31.39c.11.37.23.74.35,1.11.01.03.1.07.1.08-.12-.36-.23-.73-.34-1.1-.11-.37-.18-.77-.33-1.13,0-.02-.08-.06-.08-.06.02.36.18.75.29,1.1Z"/>
      <path d="m1.32,32.97s.1.07.1.07c-.11-.52-.23-1.06-.45-1.54,0-.02-.07-.05-.07-.06.14.51.32,1,.43,1.53Z"/>
      <path d="m1.22,33.97s.06.04.06.04c-.14-.67-.27-1.34-.42-2,0-.02-.07-.05-.07-.05.13.67.28,1.34.43,2.01Z"/>
      <path d="m.91,34.19s-.01-.02-.02-.02c-.01,0,.01.02.02.02Z"/>
      <path d="m1.96,38.69s.06.04.05.03c-.55-.79-.92-1.63-1.32-2.5-.01-.02-.08-.06-.08-.06.26.9.81,1.77,1.35,2.53Z"/>
      <path d="m1.33,38.39s.02.01.02.02c-.11-.24-.22-.47-.33-.71,0,0-.02-.01-.02-.01.11.24.22.47.32.71Z"/>
      <path d="m1.34,39.55s-.01-.02-.02-.02c-.01,0,.01.02.02.02Z"/>
      <path d="m15.92,11.18c.14.32.29.63.43.93.11.52.43,1.05.62,1.54.23.58.36,1.15.47,1.75-.23,2-.39,4.01-.82,5.96-.01.06.22.19.22.18,1.02-2.52.68-5.48,1.11-8.13.45-2.74,1.23-5.42,2.6-7.84.03-.05-.25-.24-.26-.22-1.35,2.45-2.11,5.13-2.56,7.88-.05.31-.09.61-.14.92-.2-.82-.76-1.63-1.1-2.34-.66-1.36-.73-2.7-.33-4.15.02-.06-.25-.23-.26-.22-.63,1.19-.51,2.51.02,3.71Z"/>
      <path d="m11.97,13.98c-.15,1.32-.27,2.65-.2,3.98,0,0,0,.01.02.02-.04.26-.09.52-.13.78-.24,1.67-.17,3.37-.31,5.05-.16,1.88-.58,3.72-.81,5.59,0,.04.12.1.12.1.45-1.73.71-3.53.95-5.31.23-1.71.15-3.44.4-5.15.25-1.71.57-3.42.85-5.13.31-1.82.51-3.72,1.49-5.33.02-.04-.22-.21-.23-.19-.96,1.55-1.15,3.41-1.49,5.16-.19.98-.39,1.97-.58,2.95.07-.92.12-1.85.24-2.77.16-1.3.4-2.59.3-3.91,0-.08-.27-.2-.27-.21.12,1.47-.18,2.9-.34,4.35Z"/>
      <path d="m19.36,22.55c.39-.11.76-.32,1.14-.48.33-.14.67-.28.98-.46,0,0-.08-.09-.1-.08-.39.08-.75.2-1.12.35-.36.15-.77.29-1.07.54-.01.01.13.15.17.14Z"/>
      <path d="m20.81,14.85s.02-.01.03-.02c.35-.89.68-1.81.88-2.75,0,0-.05.03-.05.05-.26.91-.52,1.83-.85,2.72Z"/>
      <path d="m20.1,14.56s.04-.03.05-.04c.68-1.25,1.21-2.62,1.42-4.04,0,0-.03.02-.03.03-.34,1.42-.78,2.75-1.44,4.05Z"/>
      <path d="m21.14,10.26s.04-.03.05-.05c.04-.15.07-.31.11-.46,0,0-.04.02-.04.04-.04.16-.08.31-.12.47Z"/>
      <path d="m21.08,9.31s.1-.06.1-.1c.01-.17.02-.35.03-.52,0-.14.04-.29.01-.43,0,0-.06.05-.06.06-.07.32-.06.67-.09.99Z"/>
      <path d="m20.49,9.28s.05-.03.06-.06c.17-.49.3-.99.34-1.51,0,0-.02.01-.02.02-.1.52-.2,1.03-.38,1.54Z"/>
      <path d="m20.3,8.21s.09-.06.11-.11c.22-.56.44-1.19.47-1.79,0,0-.09.06-.09.09-.15.61-.26,1.21-.49,1.8Z"/>
      <path d="m20.43,6.65s-.02.02-.02.02c0,0,.02-.02.02-.02Z"/>
      <path d="m17.87,11.03s.02-.01.02-.02c.19-1.68.69-3.2,1.38-4.74,0-.01-.06.04-.07.06-.8,1.45-1.21,3.05-1.33,4.69Z"/>
      <path d="m17.95,8.56s.12-.08.13-.13c.14-.71.35-1.38.58-2.07,0,.01-.11.08-.13.12-.28.66-.45,1.37-.58,2.07Z"/>
      <path d="m17.65,8.33s.11-.06.11-.11c.04-.55.16-1.07.3-1.6,0,.01-.09.06-.1.1-.18.51-.26,1.06-.3,1.6Z"/>
      <path d="m17.05,9.69s.09-.05.09-.08c.05-.96.28-1.84.44-2.78,0,0-.05.03-.05.05-.33.89-.43,1.87-.47,2.81Z"/>
      <path d="m16.63,9.58s.11-.07.11-.11c.12-.75.29-1.49.39-2.24,0,0-.08.05-.09.08-.19.74-.29,1.51-.42,2.27Z"/>
      <path d="m16.37,9s.11-.07.11-.11c.03-.48.17-.94.22-1.41,0,0-.05.04-.06.06-.18.46-.24.97-.28,1.46Z"/>
      <path d="m14.13,11.58s.02-.01.02-.02c.22-1.01.57-1.96.88-2.94,0,0-.05.03-.05.05-.41.92-.65,1.92-.86,2.91Z"/>
      <path d="m13.95,10.48s-.02.02-.02.02c0,0,.02-.02.02-.02Z"/>
      <path d="m11.44,12.64s.05-.03.05-.05c.15-.7.4-1.39.54-2.09,0,0-.04.03-.05.05-.28.66-.42,1.39-.55,2.1Z"/>
      <path d="m11.29,11.6s.1-.07.12-.11c.07-.16.13-.33.18-.5.04-.13.1-.29.08-.42,0,0-.06.05-.06.06-.12.32-.18.65-.31.97Z"/>
      <path d="m10.18,14.03s.08-.05.09-.08c.19-.92.45-1.82.69-2.73,0,0-.02.02-.03.02-.33.9-.56,1.85-.75,2.79Z"/>
      <path d="m9.73,13.67s.07-.04.08-.08c.15-.62.35-1.24.44-1.87,0,0-.03.02-.04.03-.2.62-.33,1.28-.49,1.91Z"/>
      <path d="m7.79,16.74s.04-.03.05-.05c.26-1.16.62-2.29.88-3.45,0,0-.05.04-.06.05-.39,1.11-.63,2.29-.87,3.44Z"/>
      <path d="m7.44,16.01s-.02.02-.02.02c0,0,.02-.02.02-.02Z"/>
      <path d="m15.02,38.53s.08-.1.09-.1c-.96.19-1.94.36-2.89.58-.02,0-.05.06-.05.06.96-.15,1.91-.36,2.86-.54Z"/>
      <path d="m14.36,39.27s.04-.05.04-.05c-1.23.22-2.47.39-3.71.56-.02,0-.04.04-.04.04,1.24-.13,2.48-.33,3.71-.55Z"/>
      <path d="m12.92,40.02s.07-.08.07-.08c-1.12.01-2.24.03-3.36.1-.02,0-.06.06-.06.06,1.11.01,2.23-.03,3.34-.08Z"/>
      <path d="m10.63,41.18s.05-.06.06-.06c-1.25.32-2.48.5-3.77.58-.02,0-.07.08-.07.08,1.27,0,2.57-.21,3.78-.59Z"/>
      <path d="m8.01,42.19s.09-.12.11-.12c-.81.28-1.64.43-2.49.56-.03,0-.08.09-.08.09.84-.05,1.67-.26,2.46-.53Z"/>
      <path d="m21.33,34.63s.01-.02.02-.02c-1.11.38-2.22.8-3.31,1.26-.02,0-.04.06-.05.06,1.12-.43,2.23-.86,3.34-1.3Z"/>
      <path d="m20.24,35.76s.05-.06.06-.07c-1.56.55-3.12,1.07-4.7,1.58-.03.01-.08.09-.08.1,1.6-.43,3.19-.98,4.73-1.61Z"/>
      <path d="m15.8,38.05s.07-.09.08-.09c-.52.1-1.05.19-1.57.29-.03,0-.06.07-.06.07.52-.09,1.04-.18,1.55-.28Z"/>
      <path d="m22.46,15.7c1.64-.84,3.26-1.72,4.89-2.58.64-.34,1.46-.65,1.66-1.42,0,0-.07.05-.08.08-.25.73-1.16,1.06-1.78,1.39-.53.28-1.06.56-1.59.85-1.02.54-2.04,1.08-3.05,1.63-.02,0-.06.07-.05.07Z"/>
      <path d="m28.62,18.07c1.01-.55,1.9-1.28,2.67-2.13.05-.05,0-.03-.02,0-.77.82-1.62,1.48-2.59,2.06-.02.01-.07.08-.06.08Z"/>
      <path d="m28.86,18.63c.9-.44,1.72-1.04,2.43-1.75.03-.03.07-.1,0-.04-.72.67-1.5,1.22-2.37,1.69-.02.01-.09.1-.07.09Z"/>
      <path d="m29.54,19.01c.68-.38,1.33-.83,1.93-1.33.02-.02.15-.17.08-.12-.63.48-1.27.92-1.93,1.34-.02.02-.1.11-.08.1Z"/>
      <path d="m20.52,5.66c.69,1.79.96,3.61,1.06,5.52.05.88.1,1.77.08,2.66-.01.91-.22,1.73-.36,2.61,0,0,.04-.03.04-.04.88-1.7.63-3.82.54-5.67-.03-.49-.06-.98-.1-1.47.28-1.7.68-3.32,1.39-4.9.02-.05-.24.16-.27.24-.57,1.26-1.01,2.59-1.2,3.96-.15-1.11-.4-2.2-.91-3.19,0,0-.3.21-.27.28Z"/>
      <path d="m23.46,13.29s.03-.02.04-.03c.56-1.3.85-2.68.69-4.1,0,0-.04.03-.04.04.03,1.41-.14,2.77-.68,4.08Z"/>
      <path d="m23.04,11.71s.11-.07.12-.11c.38-1.38.59-2.81.47-4.25,0,0-.04.03-.04.04-.01,1.47-.15,2.9-.54,4.32Z"/>
      <path d="m22.77,8.88s.11-.07.11-.11c.04-.59.16-1.24.11-1.82,0,0-.07.05-.07.07-.12.6-.11,1.25-.15,1.86Z"/>
      <path d="m3.16,42.47s.05-.04.05-.05c-.92-1.3-1.41-2.8-1.52-4.38,0,0-.04.02-.04.04,0,1.61.54,3.11,1.51,4.39Z"/>
      <path d="m1.59,39.97s.04-.03.04-.04l-.31-1.06s-.04.02-.03.03c.1.35.2.71.3,1.07Z"/>
      <path d="m28.37,9.6c.68-.73,1.3-1.5,1.84-2.34.02-.04-.05.03-.06.05-.55.8-1.14,1.56-1.79,2.27-.06.07-.05.09.02.02Z"/>
      <path d="m28.52,8.04c.81-.83,1.58-1.81,1.96-2.92,0,0-.05.03-.05.05-.53,1.05-1.1,2-1.93,2.84-.08.08-.06.1.02.02Z"/>
      <path d="m29.16,6.28c-.04.06.09-.06.1-.08.63-.92,1.27-2.01,1.46-3.11,0,0-.05.04-.06.05-.43,1.11-.83,2.15-1.51,3.14Z"/>
      <path d="m2.01,24.34c-1.2,3.8-2.19,7.84-1.88,11.85.15,1.94.61,3.87,1.48,5.61.21.43.45.85.72,1.26.05.07.11.15.17.23-.68,1.65-1.3,3.34-1.9,5.02,0,0,0,.01.01.01.27,0,.5.03.75.08,0,0,0,.01,0,.02,0,0,.01-.01.02-.02.07.01.14.03.22.04.04,0,.14-.14.14-.14-.03-.02-.09-.04-.17-.06.03-.03.06-.07.08-.1.57-1.54,1.17-3.06,1.82-4.57.55-.14,1.09-.33,1.63-.48.75-.21,1.51-.38,2.25-.6.05-.02.14-.17.15-.17-1.31.22-2.69.58-3.95,1.06.62-1.45,1.28-2.89,1.96-4.31.93-.08,1.86-.15,2.81-.15.04,0,.11-.12.11-.12-.95,0-1.92.05-2.86.17,1.11-2.3,2.3-4.55,3.56-6.77,2.3-.62,4.57-1.31,6.86-1.96.01,0,.03-.03.03-.03-2.29.66-4.6,1.28-6.88,1.98.07-.12.13-.23.19-.35.02-.03-.17.13-.21.18-1.35,2.28-2.6,4.61-3.75,6.98-.14.02-.29.04-.43.06-.02,0-.06.07-.06.07.15-.01.29-.02.44-.04-.7,1.44-1.36,2.91-1.99,4.38-.06.03-.13.05-.19.08,0-.23-.12-.34-.34-.65.09-.24.19-.49.27-.73,0,.02-.13.09-.15.14-.07.16-.13.32-.2.48-.89-1.35-1.5-2.87-1.86-4.43-.83-3.58-.35-7.3.5-10.83,1.81-7.45,5.2-15.23,12.29-19,1.97-1.05,4.04-1.94,6.09-2.82.92-.39,1.85-.76,2.79-1.09.47-.17.95-.32,1.42-.47.2-.06.51-.22.72-.21.47.02.18.29.01.6-.04.08.22-.16.25-.19,1.54-1.91,4.41-2.01,6.35-3.35.03-.02.44-.31.43-.32.05.06-.17.49-.21.59-.21.6-.37,1.22-.48,1.85-.2,1.1-.28,2.22-.28,3.33,0,4.68,1.24,9.38.34,14.04,0,0,.04-.03.05-.05,1.73-6.65-1.58-13.7,1-20.21.02-.05-.12.06-.12.06-1.39,1.19-3.24,1.56-4.87,2.33-.53.25-1.04.54-1.5.91-.2.16-.39.34-.57.53-.06.07-.2.17-.22.25.07-.22.4-.54.52-.77,0,0,.02-.04,0-.03-3.87,1.01-7.67,2.73-11.21,4.56-3.01,1.55-5.51,3.81-7.48,6.55-2.11,2.94-3.58,6.3-4.68,9.73Zm1.24,19.28c-.17.39-.33.79-.5,1.19.1-.29.19-.58.29-.87.04-.12.06-.21.07-.29.05-.01.09-.02.14-.03Zm-.56-.01c.15.41-.02.75-.15,1.13-.38,1.16-.75,2.32-1.13,3.47-.15-.04-.31-.08-.35-.12-.26-.23.02-.68.11-.92.2-.55.41-1.1.61-1.64.26-.7.53-1.4.8-2.1.04.06.08.12.11.19Z"/>
      <path d="m24.91,18.22c.76-.39,1.5-.84,2.18-1.35.01,0,.05-.07.04-.06-.71.47-1.43.92-2.17,1.34-.02.01-.07.08-.06.07Z"/>
      <path d="m23.87,17.71c1.34-.68,2.63-1.44,3.89-2.25.01,0,.05-.06.04-.05-1.26.82-2.57,1.56-3.9,2.26,0,0-.04.04-.03.04Z"/>
      <path d="m23.29,17.2c1.43-.76,2.86-1.54,4.27-2.35.02,0,.06-.07.05-.07-1.43.74-2.85,1.53-4.25,2.33-.02.01-.08.09-.07.09Z"/>
      <path d="m23.3,16.39c1.49-.85,2.99-1.65,4.56-2.36.04-.02.09-.11.1-.12-1.59.71-3.14,1.5-4.62,2.42-.01,0-.06.07-.05.06Z"/>
      <path d="m25.55,14.28s-.02.02-.02.02c0,0,.02-.02.02-.02Z"/>
      <path d="m10.74,24.48s.05-.03.05-.05c.19-2.19.43-4.38.53-6.58,0,0-.06.04-.06.06-.24,2.18-.36,4.38-.52,6.57Z"/>
      <path d="m10.14,21.79s.11-.07.11-.11c0-1.44.1-2.87.17-4.31,0,0-.05.03-.05.05-.19,1.45-.23,2.91-.23,4.37Z"/>
      <path d="m9.58,19.31s.1-.06.1-.09c.07-1.25.17-2.53.12-3.78,0,0-.07.05-.07.07-.08,1.27-.08,2.54-.15,3.81Z"/>
      <path d="m9.12,19.97s-.02.02-.02.02c0,0,.02-.02.02-.02Z"/>
      <path d="m12,25.44s.08-.05.08-.08c.03-2.44.04-4.87.23-7.31,0,0-.03.02-.03.03-.26,2.43-.43,4.92-.28,7.36Z"/>
      <path d="m12.56,19.17c-.03,1.88.06,3.77.11,5.65,0,0,.07-.04.07-.06-.02-1.88,0-3.77-.1-5.65,0,0-.07.04-.07.07Z"/>
      <path d="m3.3,33.66c.44,1.1,1.03,2.39,1.85,3.27,0,0,.05-.04.05-.05-.52-1.12-1.25-2.19-1.84-3.28,0,0-.07.05-.06.07Z"/>
      <path d="m12.89,37.07s.08-.09.07-.09c-1.36-.07-2.73-.14-4.1-.17-.02,0-.05.07-.06.07,1.36.09,2.72.14,4.08.18Z"/>
      <path d="m11.75,37.38s.04-.05.04-.05c-1.54.07-3.07.1-4.61.21-.02,0-.05.05-.05.05,1.54-.03,3.07-.15,4.61-.21Z"/>
      <path d="m9.22,37.95s.04-.05.04-.05c-.4.03-.8.07-1.21.1-.01,0-.03.04-.03.04.4-.03.8-.06,1.2-.09Z"/>
      <path d="m8.43,38.25s0,0,0,0c-.37.05-.74.1-1.11.15,0,0,0,0,0,0,.37-.05.74-.1,1.1-.15Z"/>
      <path d="m7.43,39.59s-.02.02-.02.02c0,0,.02-.02.02-.02Z"/>
      <path d="m7.21,40.2s.08-.09.08-.1c-.78.17-1.56.35-2.34.52-.02,0-.05.06-.05.06.77-.16,1.54-.32,2.3-.49Z"/>
      <path d="m6.7,40.46s-.02.02-.02.02c0,0,.02-.02.02-.02Z"/>
      <path d="m18.21,29.22s.03-.03.03-.03c-1.43.23-2.84.54-4.26.82-1.34.26-2.71.47-3.99.98-.02,0-.05.06-.06.07,2.66-.93,5.54-1.19,8.28-1.83Z"/>
      <path d="m14.09,31.46s.03-.04.04-.04c-1.62.65-3.28,1.16-4.97,1.61,0,0-.02.03-.02.03,1.69-.39,3.34-.95,4.95-1.6Z"/>
      <path d="m14.81,32.25s.04-.05.04-.05c-2.09.56-4.19,1.1-6.27,1.7,0,0-.01.02-.01.02,2.09-.52,4.16-1.11,6.24-1.66Z"/>
      <path d="m14.03,32.97s.04-.05.04-.05c-1.71.47-3.42.92-5.12,1.41,0,0-.01.01-.01.02,1.7-.43,3.39-.92,5.09-1.38Z"/>
      <path d="m9.55,34.83c.64-.02,1.26-.15,1.86-.38.02,0,.04-.05.04-.05-.2.08-.41.14-.62.2h0s0,0,0,0c-.4.1-.82.17-1.24.18-.02,0-.04.05-.04.05Z"/>
      <path d="m9.77,38.59s-.02.02-.02.02c0,0,.02-.02.02-.02Z"/>
    </g>
  </g>
</svg>