<?xml version="1.0" encoding="UTF-8"?>
<svg id="Layer_2" data-name="Layer 2" xmlns="http://www.w3.org/2000/svg" viewBox="0 0 79.94 44.71">
  <g id="objects">
    <g>
      <path d="m24.23,23.49s-.44-.17-.59-.1c-2.16,1.01-4.56,3.8-7.19,3.07-.09-.02-.7-.06-.46.01,3.29,1.01,5.5-1.69,8.23-2.98Z"/>
      <path d="m42.69,43.71c.11.03.26.06.35.06,4.41.8,8.93,1.06,13.39.84.15,0,.31-.02.47-.03.1.03.22.06.28.04.06-.02.11-.04.16-.06,5.41-.33,11.65-1.39,14.86-6.13.02,0,.03,0,.03,0,0,0,0-.02,0-.03.08-.11.15-.22.22-.34,0,0-.13-.04-.27-.08,0-.02,0-.04,0-.07.08,0,.18,0,.15,0-.05-.02-.11-.04-.16-.06-.63-5.1-3.15-9.67-6.16-13.76-1.52-2.06-3.17-4.03-4.85-5.97-.03-.09-.06-.18-.11-.27,0-.02-.09-.04-.16-.04-2-2.32-4-4.65-6.27-6.71-.88-.79-1.8-1.52-2.76-2.18-.29-.3-.6-.59-.95-.86-.08-.06-.38-.02-.4-.03,0,0,0,0,0,0-.61-.38-1.23-.73-1.85-1.07-3.42-2.13-7.24-3.82-11.21-4.92-.88-.29-1.77-.55-2.64-.82-1.82-.56-3.69-1.05-5.6-1.19-2.44-.18-4.8.37-7.17.96-.02-.01-.04-.03-.05-.04-.09-.06-.39-.02-.41-.03.05.04.11.09.16.13-1.15.2-2.3.46-3.42.8-.21.04-.42.08-.64.11-.03,0-.06.08-.08.12-.96.31-1.9.66-2.83,1.08-.65.15-1.3.29-1.96.4-3.73.63-7.51.64-11.24.03-.11-.08-.23-.15-.34-.23-.1-.07-.47-.03-.49-.04.07.06.14.11.2.17-.16-.03-.31-.05-.47-.08-.05,0-.53-.04-.48.01,8.13,9.66,11.57,22.48,21.53,30.71,6.1,5.05,13.46,8.12,21.16,9.56Zm.74.01c3.81-.51,7.5-1.68,10.89-3.51,1.73-.94,3.37-2.03,4.89-3.28.72-.58,1.4-1.2,2.06-1.85.16-.16.31-.31.47-.47,2.09.73,4.19,1.42,6.3,2.07-.56.86-1.87,1.69-2.66,2.35-.88.74-1.79,1.46-2.73,2.13-1.76,1.27-3.62,2.25-5.55,3.22-4.56.31-9.17.12-13.68-.67Zm5.92-14.22c.47.2.95.4,1.42.6,1.45.61,2.9,1.26,4.36,1.89-2.01-.78-4.01-1.61-5.98-2.49.07,0,.13,0,.2,0Zm-.4-.09c-.64-.29-1.27-.58-1.9-.88.7.3,1.39.59,2.09.89-.06,0-.13,0-.19,0Zm22.72,8.56c-2.84,4.59-8.5,5.91-13.52,6.34-.06,0-.11,0-.17.01,2.08-.85,4.03-2.1,5.83-3.43.98-.73,1.93-1.51,2.85-2.31.49-.42,1.48-1.07,1.96-1.71,1.01.31,2.01.61,3.02.9.01.07.03.13.04.2Zm-.06-.32c-.95-.34-1.91-.66-2.87-.98.05-.08.09-.16.11-.25.13-.45-.16-1.08-.27-1.51-.18-.72-.35-1.45-.53-2.17-.34-1.37-.69-2.74-1.03-4.11-.27-1.07-.49-2.17-.79-3.24,2.57,3.72,4.61,7.76,5.38,12.27Zm-7.54-15.2c.06.08.13.16.19.24-.02,0-.03,0-.02,0,.02,0,.03.01.04.02.42.54.83,1.08,1.23,1.63.18.61.27,1.27.39,1.79.3,1.29.62,2.58.93,3.86.31,1.29.62,2.58.94,3.86.2.8.7,1.83.37,2.6-2.06-.68-4.14-1.35-6.2-2.04.19-.16.22-.37.07-.63.01-.47-.22-1.05-.32-1.52-.52-2.38-1.17-4.74-1.93-7.06.02,0,.04,0,.05-.02.55-1.07.79-2.5,1.1-3.67.21-.76.44-1.66.41-2.51.93,1.14,1.85,2.28,2.74,3.42Zm-3.33-4.13c-.02.4,0,.81-.04,1.21-.07.65-.23,1.29-.42,1.92-.24.83-.7,1.79-.87,2.71-.55-1.6-1.15-3.19-1.8-4.75-.85-2.05-1.79-4.06-2.82-6.02-.56-1.06-1.12-2.13-1.81-3.11,2.81,2.37,5.36,5.16,7.76,8.04Zm-14.58-.35c-.52-2.51-1.79-5.02-2.7-7.41-.87-2.26-1.72-4.53-2.64-6.78,1.19.47,2.37.95,3.54,1.44.94.39,1.86.82,2.76,1.27.72,1.23,1.57,2.38,2.45,3.5,1.2,1.53,1.91,3.1,2.52,4.93.01.04.16.02.16.02-.52-1.57-1.08-3.07-2.08-4.41-.95-1.27-1.85-2.55-2.73-3.87.19.1.37.19.55.29.44.24.87.48,1.3.73.58.35,1.16.71,1.72,1.1-.02,0-.04,0-.04,0,.65.44,1,1.09,1.31,1.79.35.78.72,1.56,1.08,2.34,0,.02.08,0,.08.01-.37-.88-.7-1.77-1.11-2.64-.07-.15-.14-.3-.23-.44.88,1.2,1.58,2.54,2.26,3.87.94,1.84,1.81,3.71,2.61,5.62,1.67,4.03,2.99,8.19,3.97,12.44.12.5.23,1.01.33,1.52.1.48.15.7.04.93-.3-.1-.6-.2-.89-.31-2.79-1.57-5.71-2.87-8.66-4.13-.23-1.46-1.17-3.09-1.76-4.33-.74-1.55-1.57-3.05-2.44-4.53-1.68-2.83-3.4-5.84-5.49-8.39-1.13-1.37-2.54-2.38-3.89-3.5-1.21-1.01-2.22-2.19-3.22-3.4-1.65-2.01-3.31-4.03-5.83-4.82.74.03,1.47.1,2.21.18,2.95.65,5.76,1.86,8.72,2.49.05.02.1.04.15.06.87,2.33,1.8,4.63,2.69,6.95.94,2.45,1.69,5.13,2.93,7.44.03.06.34.05.34.04Zm-6.29-4.93c.17,3.07.28,6.15.5,9.22-1.76-2.21-3.52-4.41-5.29-6.62.03.03.06.07.09.1.05.04.37.04.37.04-.22-.5-.19-.92-.2-1.45,0-.85-.2-1.66-.42-2.48-.46-1.71-.78-3.45-1.18-5.18,0-.03-.17-.03-.17-.02.32,1.8.7,3.58.97,5.39.11.74.27,1.47.27,2.22,0,.51-.08.9.17,1.26-.64-.8-1.28-1.59-1.91-2.39-.12-.15-.25-.31-.37-.47.08,0,.15,0,.15,0-.62-2.23-1.56-4.39-2.42-6.53-.69-1.71-1.29-3.71-2.23-5.35.17,0,.33,0,.5,0,2.86.9,4.59,3.51,6.44,5.71,2.03,2.42,4.84,3.99,6.76,6.51,2.01,2.63,3.76,5.56,5.42,8.42.82,1.42,1.6,2.86,2.28,4.35.54,1.17.91,2.51,1.45,3.7-2.52-1.07-5.06-2.11-7.54-3.25-.92-1.17-1.84-2.33-2.76-3.49.08,0,.14,0,.14-.02.03-3.2-.3-6.48-.78-9.65,0-.04-.25-.05-.25-.03ZM24.2,1.1c.57-.11,1.13-.2,1.69-.26.6-.03,1.2-.05,1.8-.05.25.81.67,1.6.98,2.37.43,1.05.86,2.09,1.28,3.14.8,1.98,1.53,4,2.42,5.94-2.93-3.76-5.83-7.99-9.69-10.8.51-.12,1.01-.24,1.52-.34Zm-9.88,2.48c.2.07.46.14.6.08.26-.13.52-.25.79-.36,0,0,0,0,.02,0,2.22-.52,4.39-1.21,6.59-1.76,3.9,3.34,6.92,7.58,10.13,11.57,3.42,4.27,6.83,8.54,10.29,12.77-.26-.12-.52-.24-.77-.37-.04-.02-.08-.04-.12-.07-1.06-.68-2.13-1.36-3.19-2.03-1.41-1.04-2.79-2.14-4.32-3.01-1.64-.93-3.28-1.82-4.88-2.77-.7-.44-1.39-.87-2.09-1.3.03,0,.05,0,.08,0,.02,0,.25,0,.23-.02-5.49-3.17-7.96-9.71-13.62-12.69.1-.02.19-.04.29-.06Zm21.54,18.58c-.63-.41-1.25-.83-1.87-1.25.68.41,1.35.82,2,1.26-.04,0-.09,0-.13,0ZM1.8,3.75c3.99.61,8.04.61,12.01-.08,4.62,2.7,7.15,7.75,11.22,11.1.4.33.81.62,1.23.91,0,0,0,0,0,0-.31-.18-.62-.36-.93-.54-2.74-1.71-5.57-3.29-8.56-4.57C11.65,8.41,6.41,6.91,1.8,3.75Zm13.04,6.35s.09,0,.14,0c1.17.48,2.31,1.01,3.43,1.56-.08.04-.15.08-.23.12-1.47-.57-2.94-1.14-4.37-1.81.34-.02.68.01,1.02.12Zm-1.27-.24c-.21-.1-.43-.2-.64-.3-.17-.08-.33-.17-.5-.26.09,0,.16,0,.13-.02-.41-.18-.81-.37-1.22-.56-.01,0-.03-.01-.04-.02.82.3,1.62.59,2.42.9.35.13.69.28,1.03.42-.39-.12-.78-.16-1.18-.15Zm5.04,1.9c.56.28,1.11.57,1.66.86-.59-.24-1.18-.48-1.78-.71.04-.05.08-.09.12-.14ZM.84,3.6c.1.02.2.03.3.05.46.38.94.73,1.43,1.06-.12-.05-.24-.11-.36-.16-.13-.06-.49-.04-.66-.04-.24-.3-.47-.6-.72-.9Zm.8,1c1.39.94,2.93,1.52,4.5,2.08.13.05.25.1.37.15.62.27,1.24.53,1.87.78,1.14.52,2.25,1.09,3.38,1.68.41.22.83.42,1.25.62,0,0,0,0,0,0-.63.09-1.23.32-1.83.51-1.6.52-3.03.49-4.7.18-.21-.04-.63,0-.18.08.97.19,1.98.37,2.97.35-.29.19-.68.37-1.01.26-.14-.05-.33-.08-.48-.07-.03,0-.24.01-.1.06.26.1.51.2.76.31.11.05.23.09.34.14.15.06.38.06.23.27-.24.33-.89.45-1.25.46-.13,0-.12.02-.04.07.11.08.36.07.48.08.68.04,1.3-.16,1.78-.64,0-.02-.03-.04-.05-.04-.41-.16-.82-.31-1.23-.47.39-.01.77-.13,1.07-.42,0,0-.05,0-.11-.02.08,0,.15,0,.23-.02,1.14-.12,2.28-.75,3.43-.96,1.51.69,3.08,1.28,4.63,1.88-2.89,1.56-6.07,2.36-9.36,2.47-.2,0,.26.1.33.1,1.72,0,3.42-.22,5.07-.67.12-.03.24-.08.36-.11-1.24,1.15-2.72,1.91-4.4,2.17-.07.01.38.13.5.11,1.81-.28,3.45-1.11,4.68-2.47,0,0-.05,0-.11-.02.57-.19,1.14-.39,1.69-.64.5-.22,1.16-.43,1.6-.8,1.27.5,2.54,1.03,3.76,1.65.75.38,1.49.79,2.23,1.2.65.4,1.29.8,1.94,1.21-.07-.01-.15-.02-.22-.02-1.22-.08-2.44-.03-3.66.09-1.62.16-3.23.45-4.84.71-.33.06-.67.12-1.02.18-.05,0-.09-.01-.11,0-.03.01-.06.03-.09.04-2.14.38-4.54.72-6.38-.4-.15-.09-.54-.04-.66-.05C6.94,12.52,4.6,8.35,1.64,4.6Zm21.64,30.34c4.87.68,9.74,1.27,14.6,2.04-3.32.56-6.71.48-10.1.48-.18,0,.21.08.25.09,4.08.25,8.43.22,12.4-.85,4.1-1.1,7.92-3.18,11.53-5.37-.01,0-.27-.1-.35-.06-3.51,1.85-6.96,3.85-10.78,5.02-.91.28-1.83.49-2.76.66-4.93-.8-9.88-1.6-14.85-2.09-.05,0-.08,0-.11,0-.74-.58-1.46-1.19-2.16-1.82-4.35-3.95-7.5-8.87-10.36-13.95-.44-.79-.89-1.58-1.33-2.37,1.88,1.19,4.19,1.05,6.31.75-1.49.66-2.98,1.32-4.5,1.92.05-.02.42.16.58.1,1.59-.63,3.18-1.31,4.68-2.13,3.34-.52,6.67-1.3,10.05-1.09.29.19.59.38.88.57.82.64,1.7,1.2,2.6,1.74,1.76,1.19,3.52,2.39,5.3,3.56-7.61-.29-15.39,1.46-22.71-1.33-.12-.04-.62-.05-.55-.02,7.41,3.02,15.64,1.35,23.44,1.48,1.5.98,3.01,1.93,4.55,2.83.54.36,1.09.7,1.69.99.15.07.3.14.45.21,2.05,1.11,4.14,2.14,6.27,3.1-4.46-.11-8.91.28-13.36.58-5.71.38-11.26.4-16.9-.62-.02,0-.25-.01-.14.02,4.77,1.3,9.98,1.16,14.87.9,5.25-.28,10.49-.83,15.75-.78,2.09.94,4.21,1.81,6.35,2.63,2.08.8,4.18,1.56,6.29,2.3-.07.09-.16.19-.28.31-.74.74-1.52,1.44-2.33,2.1-1.48,1.2-3.06,2.26-4.73,3.18-.05.03-.1.05-.15.08-.48-.15-.95-.25-1.47-.3-.1,0-.05.02.02.03.32.11.63.23.95.34-.16,0-.32,0-.49.01-.31.05-.67.03-.99.05-.65.04-1.3.1-1.95.17-1.47.15-2.94.31-4.41.46-2.93.31-5.88.53-8.79.95-.07.01.35.11.46.1,5.43-.41,10.85-1.45,16.29-1.63-3.27,1.72-6.82,2.85-10.48,3.34-1.88-.35-3.73-.8-5.56-1.37-5.07-1.58-9.89-4.04-14.08-7.31.02,0,.04,0,.06.01Z"/>
      <path d="m27.05,7.88c-1.3-2.04-3.11-3.84-5.13-5.17-.03-.02-.14,0-.15-.01,1.97,1.53,3.64,3.2,5.18,5.18.02.02.09,0,.1.01Z"/>
      <path d="m25.8,7.45c-1.63-1.94-3.58-3.67-5.85-4.82-.03-.02-.12,0-.13,0,2.15,1.38,4.08,2.84,5.73,4.8.04.05.25.02.25.02Z"/>
      <path d="m24.81,7.64c-1.89-1.85-4.05-3.46-6.47-4.55-.04-.02-.15,0-.16-.01,2.34,1.27,4.48,2.68,6.41,4.54.04.04.22.01.23.02Z"/>
      <path d="m21.47,6.98c-1.59-1.16-3.21-2.43-4.9-3.44-.03-.02-.16-.01-.16-.01,1.34,1.35,3.24,2.46,4.86,3.44.05.03.19,0,.2.02Z"/>
      <path d="m16.2,6.92c-.86-1.03-2.11-1.77-3.39-2.17-.03,0-.18-.01-.15,0,1.29.54,2.32,1.22,3.36,2.15.03.03.18.01.18.02Z"/>
      <path d="m12.91,6.22c-.43-.56-.91-1.11-1.51-1.49-.03-.02-.18-.02-.18-.02.41.52.93.94,1.33,1.48.05.07.35.03.35.03Z"/>
      <path d="m29.9,18.81s.2.02.17,0c-1.32-.59-2.67-1.05-4.07-1.39-.02,0-.14,0-.08,0,1.36.36,2.69.82,3.98,1.38Z"/>
      <path d="m22.11,17.71c1.76.11,3.38.51,4.96,1.27.06.03.3.03.27,0-1.67-.8-3.45-1.27-5.31-1.31-.1,0,.05.03.08.03Z"/>
      <path d="m19.13,18.34c1.58.06,3.08.33,4.56.9.06.02.32.02.28.01-1.59-.6-3.25-.95-4.95-.94-.07,0,.09.04.1.04Z"/>
      <path d="m15.59,18.8c1.76-.07,3.45.18,5.1.79.05.02.28.02.24,0-1.79-.68-3.67-.98-5.58-.87-.14,0,.18.07.24.07Z"/>
      <path d="m13.69,19.08c.91.19,1.83.32,2.74.47.11.02.31,0,.09-.04-.92-.15-1.84-.33-2.77-.46-.04,0-.17,0-.06.02Z"/>
      <path d="m27.48,32.1c1.12.04,2.23.02,3.35.03.66,0,1.32.01,1.97.04.33.02,2.17-.05,1.22.47,0,0,.08.03.1.02.22-.11.44-.23.66-.34.01,0-.06-.02-.07-.02-4.09-.56-8.24.14-12.28-.95-.01,0-.1,0-.07,0,1.66.51,3.38.69,5.11.75Z"/>
      <path d="m23.27,32.86c1.84.29,3.68.41,5.54.38.04,0-.05-.02-.06-.02-1.83.02-3.64-.12-5.44-.39-.08-.01-.17,0-.03.03Z"/>
      <path d="m25.73,34.17c1.76.26,3.54.37,5.32.4.15,0-.07-.05-.12-.05-1.74-.03-3.47-.18-5.2-.38-.11-.01-.12.01,0,.03Z"/>
      <path d="m30.91,38.23c3.6.46,7.51.28,10.97-.89-.02,0-.19-.06-.27-.05-3.59.87-7.05,1.26-10.74.88-.19-.02-.09.04.04.06Z"/>
      <path d="m32.99,39.41c2.98.48,6.09.18,8.93-.84-.02,0-.18-.06-.25-.04-2.85.92-5.67,1.19-8.65.85-.07,0-.16,0-.03.03Z"/>
      <path d="m36.41,40.45c1.13-.13,2.27-.29,3.4-.44.04,0-.21-.07-.27-.06-1.13.15-2.26.28-3.38.44-.04,0,.2.07.26.06Z"/>
      <path d="m40.67,41.98c2.05-.19,4.09-.47,6.13-.73.03,0-.18-.06-.24-.05-2.03.23-4.07.44-6.09.74-.03,0,.15.05.2.05Z"/>
      <path d="m24.46,23.79c3.48,0,6.98-.05,10.45-.24.07,0-.1-.04-.13-.04-3.51.11-7.02.21-10.53.21-.12,0,.16.06.2.06Z"/>
      <path d="m23.05,24.29c2.05.09,4.11.16,6.16.24.16,0-.08-.05-.13-.05-2.06-.08-4.13-.18-6.19-.25-.2,0,.1.06.16.07Z"/>
      <path d="m23.28,25.22c1.82.03,3.65.07,5.47.11.23,0-.11-.07-.18-.07-1.83-.04-3.66-.08-5.49-.12-.26,0,.12.08.2.08Z"/>
      <path d="m21.14,25.89c2,.16,4.02.27,6.03.18.08,0-.1-.04-.13-.04-2.01-.01-4-.05-6-.22-.28-.02-.04.06.1.07Z"/>
      <path d="m20.19,26.75c1.7.15,3.41.17,5.11.25.23.01-.11-.07-.18-.07-1.67-.08-3.36-.23-5.03-.21-.08,0,.08.04.09.04Z"/>
      <path d="m18.34,27.33c1.8.16,3.59.31,5.39.51.25.03.26-.04,0-.07-1.83-.2-3.66-.39-5.49-.51-.27-.02-.04.06.1.07Z"/>
      <path d="m21.39,28.55s-.05-.02-.05,0c0,0,.05.02.05,0Z"/>
      <path d="m53.55,14.73c-1.06-2.47-2.45-4.8-4.22-6.83-.04-.04-.22-.02-.22-.02,1.68,2.1,3.1,4.32,4.16,6.81.03.07.28.02.28.04Z"/>
      <path d="m50.89,14.69c-1.19-3.05-2.86-6.05-5.06-8.49-.03-.03-.17-.01-.18-.02,2.14,2.63,3.91,5.33,5.16,8.5,0,.02.08,0,.08.01Z"/>
      <path d="m48.48,13.35c-1.02-2.31-2.12-4.58-3.3-6.82-.04-.07-.28-.02-.29-.04,1.18,2.23,2.28,4.51,3.3,6.82.03.07.28.02.29.04Z"/>
      <path d="m47.07,11.9c-.09-1.04-.75-2.2-1.23-3.11-.48-.9-1.02-1.77-1.67-2.56-.03-.03-.17-.02-.17-.01.65.91,1.27,1.83,1.77,2.83.46.91.69,1.93,1.16,2.83.01.02.15.03.15.02Z"/>
      <path d="m45.64,9.76c-.72-1.69-1.84-3.21-3.36-4.26-.03-.02-.15,0-.15-.01,1.37,1.21,2.48,2.53,3.2,4.23.03.07.31.03.32.04Z"/>
      <path d="m43.6,30.84c1.54-.13,3.07-.34,4.58-.68.02,0-.12-.04-.15-.03-1.5.29-3.01.53-4.54.69-.02,0,.09.03.11.03Z"/>
      <path d="m43.49,31.43c1.4-.27,2.78-.59,4.17-.89.03,0-.17-.06-.22-.05-1.38.3-2.76.57-4.13.91.02,0,.13.04.17.03Z"/>
      <path d="m43.03,32.39c1.83-.42,3.64-.89,5.45-1.34-.02,0-.15-.05-.21-.04-1.78.45-3.57.87-5.34,1.36,0,0,.07.02.1.02Z"/>
      <path d="m40.79,34.49c2.94-.76,5.77-1.87,8.5-3.21-.01,0-.19-.07-.25-.04-2.71,1.31-5.5,2.34-8.38,3.23.01,0,.09.03.13.02Z"/>
      <path d="m42.51,34.9c1.79-.61,3.54-1.32,5.25-2.13,0,0-.06-.02-.08-.01-1.7.81-3.44,1.51-5.22,2.14,0,0,.04.01.05,0Z"/>
      <path d="m49.35,33.72c1.19-.46,2.36-1.06,3.43-1.77,0,0-.11-.05-.15-.03-1.12.65-2.25,1.24-3.42,1.78,0,0,.1.04.14.02Z"/>
      <path d="m48.42,35.48c2.06-.9,4.05-1.94,6.01-3.05,0,0-.09-.03-.11-.02-1.97,1.07-3.99,2.05-6,3.05,0,0,.08.03.11.02Z"/>
      <path d="m51.53,34.89c.61-.32,1.21-.64,1.82-.96,0,0-.12-.05-.16-.03-.6.32-1.2.64-1.79.96,0,0,.1.04.13.02Z"/>
      <path d="m49.99,36.56c2.25-.74,4.35-1.84,6.31-3.16,0,0-.16-.07-.21-.04-1.96,1.32-4.04,2.33-6.25,3.17.01,0,.11.04.15.03Z"/>
      <path d="m50.76,37.26c2.02-.88,3.93-2.01,5.74-3.25,0,0-.14-.06-.19-.03-1.81,1.24-3.71,2.28-5.67,3.26,0,0,.09.03.12.02Z"/>
      <path d="m52.62,37.47c1.41-.72,2.78-1.49,4.17-2.24,0,0-.14-.06-.19-.03-1.36.75-2.74,1.48-4.08,2.26,0,0,.07.03.09.02Z"/>
      <path d="m53.45,38.25c1.5-.74,2.97-1.55,4.45-2.34-.01,0-.14-.06-.19-.03-1.46.78-2.93,1.53-4.37,2.35,0,0,.08.03.11.02Z"/>
      <path d="m57.47,36.84s-.05-.02-.05,0c0,0,.05.02.05,0Z"/>
      <path d="m40.32,6.1c-.43-1.02-1.51-1.92-2.42-2.49-.03-.02-.14,0-.15-.01.45.36.9.72,1.3,1.13.43.43.78.93,1.19,1.37,0,0,.07,0,.07,0Z"/>
      <path d="m38.68,5.54c-.75-1.24-2.21-2.21-3.51-2.79-.05-.02-.2,0-.22-.01,1.38.8,2.41,1.71,3.57,2.79.02.02.15,0,.15.02Z"/>
      <path d="m37.48,5.27c-1.14-.88-2.36-1.68-3.67-2.3-.05-.02-.18,0-.19-.01,1.27.74,2.53,1.47,3.74,2.3.03.02.12,0,.13.01Z"/>
      <path d="m37.55,28.95c1.91-.07,3.82-.13,5.73-.23.05,0-.07-.03-.09-.03-1.89.06-3.79.16-5.68.25-.02,0,.03.01.04.01Z"/>
      <path d="m44.21,37.28s-.47-.15-.5-.06c0,.02.47.15.5.06Z"/>
      <path d="m41.01,36.96c1.16-.42,2.31-.84,3.5-1.18,1.02-.29,2.05-.5,2.97-1.04,0,0-.06-.03-.08-.01-.95.54-2.01.74-3.06,1.03-1.19.33-2.37.7-3.5,1.18.01,0,.13.05.17.03Z"/>
      <path d="m42.44,37.16c1.66-.28,3.31-.65,4.92-1.15-.01,0-.11-.04-.16-.03-1.6.43-3.2.83-4.82,1.17,0,0,.05.02.06.01Z"/>
      <path d="m42.45,37.63c.76-.06,1.51-.21,2.26-.32.03,0-.16-.06-.21-.05-.73.11-1.49.15-2.2.34,0,0,.12.03.15.03Z"/>
      <path d="m42.65,38.12c.62-.06,1.24-.13,1.86-.19.02,0-.1-.03-.13-.03-.61.07-1.21.13-1.82.2-.01,0,.07.02.09.02Z"/>
      <path d="m43.4,29.15c.91.04,1.82-.02,2.72-.14.01,0-.08-.03-.1-.02-.9.12-1.79.15-2.69.14-.09,0,.04.03.07.03Z"/>
      <path d="m67.1,37.02s.03-.06.03-.05c-.6.5-1.23.98-1.87,1.45-.02.01-.03.07-.04.07.66-.45,1.28-.94,1.88-1.46Z"/>
      <path d="m66.64,36.81s.05-.11.06-.11c-.62.49-1.25.97-1.91,1.4-.02.01-.04.08-.04.08.68-.39,1.32-.84,1.9-1.37Z"/>
      <path d="m65.71,36.69s.05-.09.02-.06c-.36.42-.79.72-1.26,1.01-.02.01-.04.08-.05.08.5-.22.94-.61,1.28-1.03Z"/>
      <path d="m65.09,36.61s.04-.08.03-.07c-.45.47-.96.85-1.5,1.19-.02.01-.04.07-.04.07.58-.29,1.08-.72,1.51-1.19Z"/>
      <path d="m58.8,38.45s.01-.02.01-.02c-2.93,2.48-6.16,3.94-9.76,5.14-.01,0-.03.05-.03.05,3.6-.73,7.04-2.8,9.78-5.18Z"/>
      <path d="m54.57,41.97s0,0,0,0c-1.44.68-2.95,1.2-4.41,1.84-.03.01-.06.12-.06.12,1.54-.47,3.03-1.23,4.47-1.95Z"/>
      <path d="m55.3,42.13s.03-.06.04-.07c-1.14.64-2.34,1.05-3.54,1.55-.03.01-.06.11-.06.11,1.25-.27,2.47-.95,3.56-1.59Z"/>
      <path d="m54.29,43.19c.53-.25,1.06-.51,1.58-.78.05-.03.08-.17.1-.18-.52.26-1.05.52-1.57.76-.54.25-1.11.45-1.62.75-.02.01-.08.13-.07.13.54-.12,1.09-.44,1.59-.68Z"/>
      <path d="m56.67,42.84s.08-.16.09-.16c-.76.28-1.54.59-2.22,1.03-.03.02-.06.12-.07.12.74-.33,1.44-.72,2.2-1Z"/>
      <path d="m58.2,42.75s.05-.1.05-.1c-.97.36-1.95.71-2.92,1.08-.03.01-.06.11-.06.11.98-.35,1.95-.73,2.92-1.09Z"/>
      <path d="m58.6,43.17s-.02.02-.02.03c0,.02.02-.02.02-.03Z"/>
      <path d="m65.14,40.57s.05-.09.04-.08c-1.07,1-2.25,1.75-3.46,2.55-.03.02-.07.14-.08.14,1.3-.59,2.48-1.62,3.5-2.61Z"/>
      <path d="m64.83,41.59s.02-.03.02-.03c-.33.22-.66.44-.99.65,0,0-.01.03-.01.03.33-.22.66-.43.99-.65Z"/>
      <path d="m66.57,41.31s-.02.02-.02.03c0,.02.02-.02.02-.03Z"/>
      <path d="m20.57,25.77c.45-.28.88-.57,1.31-.86.76-.29,1.48-.89,2.18-1.29.82-.47,1.64-.8,2.53-1.1,3.06-.11,6.12-.32,9.17-.11.09,0,.24-.37.23-.37-4.03-.96-8.4.22-12.49.17-4.23-.05-8.44-.62-12.4-2.15-.08-.03-.3.43-.27.44,3.99,1.48,8.21,2.02,12.44,2.07.47,0,.94,0,1.42,0-1.19.49-2.29,1.52-3.27,2.19-1.9,1.3-3.89,1.72-6.17,1.44-.09-.01-.29.43-.27.44,1.94.68,3.89.2,5.59-.86Z"/>
      <path d="m25.67,31.1c2.01-.08,4.05-.2,6.03-.59.01,0,.02-.02.03-.03.4,0,.81.02,1.21.01,2.57-.02,5.11-.51,7.67-.67,2.87-.18,5.73.02,8.6-.04.05,0,.12-.21.13-.21-2.71-.28-5.48-.27-8.21-.23-2.63.04-5.21.55-7.84.56-2.63.01-5.28-.08-7.91-.12-2.81-.05-5.72.08-8.36-1.04-.07-.03-.27.38-.24.39,2.55,1.09,5.39.96,8.11,1.07,1.52.06,3.05.15,4.57.21-1.41.11-2.81.23-4.23.27-2,.05-3.99-.01-5.95.43-.13.03-.24.45-.25.45,2.18-.51,4.41-.38,6.63-.47Z"/>
      <path d="m36.91,18.02c-.26-.57-.66-1.07-.99-1.6-.29-.47-.57-.94-.91-1.38,0,0-.11.13-.1.17.2.57.47,1.09.77,1.61.31.51.61,1.09,1.06,1.49.02.02.19-.23.17-.28Z"/>
      <path d="m24.98,17.59s-.03-.03-.04-.03c-1.42-.33-2.87-.61-4.33-.7,0,0,.06.06.09.07,1.44.19,2.87.37,4.29.67Z"/>
      <path d="m24.72,18.72s-.05-.06-.08-.06c-2.04-.75-4.22-1.23-6.4-1.22,0,0,.03.04.05.04,2.21.19,4.31.55,6.42,1.25Z"/>
      <path d="m18,18.13s-.05-.06-.08-.06c-.24-.02-.48-.04-.72-.06,0,0,.05.05.07.05.24.02.49.05.73.07Z"/>
      <path d="m16.59,18.44s-.11-.14-.17-.13c-.26.02-.53.04-.79.07-.22.02-.45.01-.66.08,0,0,.08.08.11.08.49.04,1.02-.05,1.51-.09Z"/>
      <path d="m16.68,19.34s-.06-.07-.1-.08c-.77-.14-1.56-.23-2.34-.18,0,0,.03.03.04.03.81.03,1.6.07,2.4.22Z"/>
      <path d="m15.11,19.86s-.12-.13-.18-.14c-.89-.2-1.89-.4-2.8-.3,0,0,.11.12.16.12.96.08,1.88.11,2.82.32Z"/>
      <path d="m12.73,20.02s.04.03.04.03c0,0-.04-.03-.04-.03Z"/>
      <path d="m19.89,22.88s-.02-.03-.04-.03c-2.57.1-4.97-.31-7.44-1.01-.02,0,.08.08.11.09,2.36.87,4.87,1.13,7.37.94Z"/>
      <path d="m16.16,23.31s-.14-.16-.22-.17c-1.1-.05-2.16-.22-3.24-.4.02,0,.14.14.21.16,1.06.27,2.16.37,3.25.41Z"/>
      <path d="m15.88,23.81s-.12-.15-.18-.14c-.84.07-1.64,0-2.47-.08.02,0,.12.12.17.13.81.15,1.66.16,2.48.09Z"/>
      <path d="m18.08,24.41s-.1-.12-.15-.11c-1.45.14-2.84,0-4.29-.03,0,0,.06.06.09.07,1.41.29,2.92.23,4.34.07Z"/>
      <path d="m18,25.07s-.12-.14-.19-.15c-1.15-.01-2.31-.1-3.46-.08,0,0,.1.11.14.11,1.16.11,2.34.1,3.51.11Z"/>
      <path d="m17.19,25.59s-.13-.15-.19-.15c-.73.06-1.45-.04-2.17-.01,0,0,.07.07.1.07.73.17,1.52.14,2.26.08Z"/>
      <path d="m21.57,28.38s-.03-.03-.04-.03c-1.57-.1-3.07-.41-4.62-.67,0,0,.06.06.09.07,1.48.41,3.04.55,4.57.63Z"/>
      <path d="m19.96,28.9s.04.03.04.03c0,0-.04-.03-.04-.03Z"/>
      <path d="m23.78,32.2s-.06-.07-.09-.07c-1.09-.06-2.18-.29-3.27-.34,0,0,.06.06.08.06,1.06.27,2.19.31,3.28.35Z"/>
      <path d="m22.25,32.66s-.12-.13-.19-.15c-.26-.07-.52-.12-.79-.16-.2-.03-.45-.09-.65-.02,0,0,.09.07.1.08.51.11,1.02.12,1.53.25Z"/>
      <path d="m26.15,33.78s-.09-.11-.14-.11c-1.43-.07-2.84-.26-4.27-.42,0,0,.03.03.04.03,1.44.3,2.91.43,4.37.5Z"/>
      <path d="m25.72,34.53s-.08-.1-.13-.1c-.96-.09-1.95-.25-2.92-.24,0,0,.04.04.06.05.98.17,2,.21,2.99.3Z"/>
      <path d="m30.77,36.77s-.05-.06-.08-.06c-1.8-.13-3.59-.42-5.39-.54,0,0,.06.07.09.07,1.76.33,3.59.42,5.38.53Z"/>
      <path d="m29.76,37.45s.04.03.04.03c0,0-.04-.03-.04-.03Z"/>
      <path d="m61.95,20.94c-.02-.05-.17-.1-.17-.11.5,1.41.98,2.83,1.53,4.22.01.03.11.06.11.07-.44-1.41-.97-2.79-1.47-4.18Z"/>
      <path d="m63.21,21.77s-.08-.05-.08-.05c.62,1.81,1.15,3.63,1.68,5.46,0,.02.07.05.07.05-.47-1.84-1.06-3.66-1.67-5.46Z"/>
      <path d="m64.67,23.78s-.14-.09-.14-.09c.27,1.68.55,3.37.91,5.03,0,.03.11.07.11.07-.23-1.68-.55-3.35-.88-5.01Z"/>
      <path d="m66.93,26.96s-.11-.06-.11-.07c.77,1.81,1.32,3.63,1.72,5.55,0,.04.13.08.13.08-.28-1.92-.9-3.81-1.74-5.56Z"/>
      <path d="m69.04,30.67c-.03-.06-.2-.12-.21-.13.6,1.16,1.02,2.37,1.41,3.62.01.04.15.1.15.1-.27-1.25-.77-2.45-1.35-3.58Z"/>
      <path d="m54.64,12.33s-.03-.02-.03-.02c.82,1.59,1.7,3.16,2.64,4.69.02.03.1.05.1.06-.9-1.58-1.8-3.16-2.71-4.74Z"/>
      <path d="m56.6,13.71s-.11-.06-.11-.07c1.18,2.23,2.32,4.46,3.44,6.72.02.05.16.09.16.1-1.01-2.31-2.19-4.59-3.49-6.75Z"/>
      <path d="m61.05,19.89s-.15-.09-.15-.1c.26.76.53,1.53.79,2.29.01.04.12.07.13.08-.26-.76-.51-1.52-.77-2.28Z"/>
      <path d="m25.9,14.91c-1.64-2.28-3.33-4.52-4.99-6.77-.66-.89-1.31-2.05-2.52-2.18.01,0,.09.09.13.1,1.16.21,1.86,1.51,2.49,2.37.54.73,1.09,1.47,1.63,2.2,1.05,1.41,2.08,2.82,3.14,4.22.02.02.12.08.11.06Z"/>
      <path d="m28.07,5.1c-1.05-1.4-2.36-2.58-3.81-3.54-.09-.06-.05,0,0,.04,1.41.97,2.6,2.11,3.68,3.43.02.03.14.09.13.07Z"/>
      <path d="m28.85,4.61c-.87-1.26-1.96-2.35-3.18-3.27-.05-.04-.16-.09-.06,0,1.17.93,2.18,1.99,3.08,3.18.02.03.18.12.16.09Z"/>
      <path d="m29.27,3.5c-.73-.94-1.56-1.81-2.44-2.61-.03-.03-.29-.18-.2-.1.86.83,1.68,1.7,2.46,2.6.03.03.19.12.17.1Z"/>
      <path d="m11.21,20.1c2.54-1.44,5.22-2.26,8.07-2.84,1.32-.27,2.64-.55,3.98-.73,1.37-.18,2.65-.05,4.02-.05,0,0-.06-.05-.07-.06-2.76-.94-5.9-.09-8.66.48-.73.15-1.46.31-2.2.49-2.62-.04-5.15-.27-7.68-.99-.08-.02.29.32.42.36,2.02.57,4.13.93,6.23.91-1.63.47-3.21,1.11-4.6,2.1,0,0,.38.4.49.34Z"/>
      <path d="m22.04,13.95s-.04-.04-.06-.05c-2.08-.55-4.23-.68-6.32-.11,0,0,.05.06.08.06,2.12-.37,4.2-.41,6.3.1Z"/>
      <path d="m19.75,14.94s-.13-.14-.2-.15c-2.17-.27-4.36-.25-6.5.26,0,0,.05.06.07.05,2.21-.32,4.4-.43,6.63-.16Z"/>
      <path d="m15.56,15.99s-.13-.15-.19-.15c-.89.07-1.9.03-2.77.25,0,0,.09.09.12.1.93.04,1.91-.12,2.84-.2Z"/>
      <path d="m70.55,37.9s-.07-.07-.08-.06c-1.75,1.68-3.89,2.75-6.25,3.28,0,0,.04.05.06.05,2.42-.36,4.57-1.52,6.27-3.27Z"/>
      <path d="m67.15,40.83s-.05-.06-.07-.05l-1.53.7s.04.05.06.04c.51-.23,1.02-.46,1.54-.7Z"/>
      <path d="m15.38,7.39c-1.25-.85-2.55-1.62-3.93-2.23-.06-.03.06.07.09.08,1.32.65,2.6,1.36,3.82,2.18.12.08.15.05.02-.03Z"/>
      <path d="m12.99,7.52c-1.43-1.04-3.08-1.97-4.83-2.3,0,0,.06.06.09.07,1.7.56,3.25,1.2,4.72,2.26.14.1.17.06.03-.04Z"/>
      <path d="m10.2,6.96c.1.05-.1-.12-.14-.14-1.52-.74-3.31-1.46-5.02-1.5,0,0,.07.07.09.07,1.77.4,3.42.77,5.07,1.56Z"/>
      <path d="m43.52,43.74c5.99.95,12.3,1.53,18.27.15,2.88-.67,5.68-1.79,8.12-3.49.6-.42,1.18-.87,1.73-1.36.1-.09.2-.2.3-.31,2.64.66,5.32,1.21,7.99,1.72.01,0,.02,0,.01-.02-.06-.4-.06-.76-.05-1.14.01,0,.02,0,.03,0-.01,0-.02-.02-.03-.02,0-.11,0-.22.01-.34,0-.06-.24-.18-.24-.17-.02.05-.03.15-.05.26-.06-.04-.11-.08-.16-.09-2.45-.5-4.88-1.07-7.29-1.7-.34-.79-.74-1.56-1.09-2.34-.48-1.08-.92-2.18-1.42-3.25-.04-.08-.29-.18-.29-.19.62,1.92,1.48,3.92,2.49,5.7-2.33-.61-4.64-1.27-6.94-1.97-.33-1.39-.65-2.77-.87-4.19,0-.06-.21-.13-.21-.13.22,1.43.5,2.87.9,4.27-3.71-1.15-7.37-2.43-10.99-3.82-1.45-3.32-3.01-6.59-4.51-9.89,0-.02-.06-.03-.06-.04,1.52,3.3,2.97,6.63,4.53,9.91-.19-.07-.38-.14-.57-.22-.06-.02.23.23.32.27,3.73,1.52,7.52,2.87,11.36,4.06.06.21.12.42.19.63.01.03.12.07.12.08-.05-.22-.1-.44-.16-.66,2.33.72,4.68,1.39,7.05,2,.05.09.1.18.16.27-.34.05-.48.26-.9.66-.39-.08-.77-.17-1.16-.24.02,0,.16.17.24.19.25.07.51.13.77.19-1.82,1.65-3.98,2.9-6.26,3.8-5.2,2.06-10.91,2.18-16.41,1.69-11.63-1.03-24.1-4.38-31.38-14.2-2.02-2.73-3.84-5.64-5.62-8.54-.8-1.29-1.56-2.61-2.27-3.95-.36-.67-.7-1.35-1.03-2.04-.13-.28-.45-.72-.48-1.04-.07-.71.4-.34.91-.16.13.05-.28-.3-.35-.34-3.23-1.89-4.02-6.18-6.48-8.81-.04-.04-.57-.59-.59-.57.09-.09.77.14.94.18.96.17,1.93.27,2.9.31,1.7.06,3.4-.09,5.08-.34,7.05-1.06,13.83-3.98,21.06-3.68,0,0-.05-.06-.08-.06C20.66-.32,10.79,6.26.41,3.84c-.08-.02.12.17.11.17,2.11,1.83,3.09,4.52,4.6,6.8.49.74,1.05,1.45,1.71,2.05.29.26.6.51.92.73.11.08.3.26.43.28-.35-.06-.91-.48-1.27-.61-.01,0-.07-.02-.05.01,2.39,5.6,5.84,10.92,9.4,15.85,3.02,4.17,6.97,7.43,11.55,9.78,4.9,2.52,10.29,3.97,15.71,4.84Zm28.74-6.23c.63.16,1.26.32,1.9.48-.46-.08-.91-.16-1.37-.24-.19-.03-.33-.04-.45-.05-.03-.07-.05-.13-.08-.2Zm.1.84c.59-.33,1.13-.13,1.73-.03,1.83.31,3.66.61,5.49.92-.03.24-.06.48-.1.55-.29.45-1.03.13-1.41.05-.87-.18-1.74-.36-2.61-.55-1.12-.24-2.23-.49-3.35-.73.08-.08.17-.15.26-.2Z"/>
      <path d="m29.14,10.66c-.75-1.06-1.6-2.06-2.53-2.98-.02-.02-.11-.07-.1-.05.86.97,1.7,1.94,2.5,2.96.02.02.14.09.12.07Z"/>
      <path d="m28.61,12.34c-1.32-1.86-2.76-3.63-4.27-5.35-.02-.02-.1-.06-.09-.05,1.52,1.72,2.93,3.51,4.29,5.36,0,.01.07.05.06.04Z"/>
      <path d="m27.96,13.32c-1.47-1.99-2.96-3.96-4.5-5.9-.02-.02-.12-.08-.11-.06,1.44,1.99,2.95,3.94,4.47,5.88.02.03.16.1.14.08Z"/>
      <path d="m26.74,13.49c-1.61-2.05-3.17-4.13-4.58-6.33-.04-.06-.19-.11-.2-.13,1.43,2.23,2.97,4.38,4.68,6.4.02.02.11.07.1.06Z"/>
      <path d="m23.05,10.58s.04.03.04.03c0,0-.04-.03-.04-.03Z"/>
      <path d="m41.76,30.57s-.05-.06-.08-.06c-3.34.21-6.7.35-10.02.68,0,0,.07.08.1.07,3.34-.13,6.68-.45,10.01-.7Z"/>
      <path d="m37.84,32.08s-.13-.16-.19-.15c-2.17.33-4.34.5-6.52.72,0,0,.06.06.08.06,2.22-.04,4.44-.31,6.63-.64Z"/>
      <path d="m34.23,33.49s-.11-.13-.16-.13c-1.9.17-3.84.32-5.72.67,0,0,.08.1.12.09,1.92-.17,3.84-.46,5.76-.64Z"/>
      <path d="m35.34,34.03s.04.03.04.03c0,0-.04-.03-.04-.03Z"/>
      <path d="m42.92,28.45s-.1-.11-.14-.11c-3.68.5-7.34,1.04-11.05,1.31,0,0,.04.04.05.04,3.71-.16,7.5-.47,11.14-1.25Z"/>
      <path d="m33.36,29.03c2.84-.37,5.66-.94,8.47-1.44,0,0-.07-.09-.11-.08-2.83.46-5.68.84-8.48,1.43,0,0,.08.1.12.09Z"/>
      <path d="m57.26,39.69c1.56-.92,3.37-2.09,4.5-3.53,0,0-.07-.07-.09-.06-1.57,1.04-3.01,2.38-4.52,3.51,0,0,.09.09.11.08Z"/>
      <path d="m60.23,24.48s-.15-.09-.15-.09c.2,2.07.41,4.14.68,6.21,0,.03.11.06.11.08-.17-2.07-.4-4.13-.65-6.19Z"/>
      <path d="m60.95,26.13s-.08-.05-.08-.05c.46,2.29.85,4.6,1.35,6.89,0,.03.09.06.09.06-.4-2.31-.92-4.6-1.36-6.9Z"/>
      <path d="m62.38,29.81s-.08-.05-.08-.05c.14.6.28,1.2.43,1.79,0,.02.06.04.06.04-.14-.6-.28-1.19-.41-1.79Z"/>
      <path d="m63.01,30.94s-.02,0-.02-.01c.16.54.32,1.09.48,1.63,0,0,.01,0,.01,0-.16-.54-.32-1.09-.48-1.63Z"/>
      <path d="m65.25,32.13s.04.03.04.03c0,0-.04-.03-.04-.03Z"/>
      <path d="m66.22,32.33c-.02-.05-.16-.09-.16-.1.44,1.13.87,2.27,1.31,3.4.01.03.1.06.1.06-.41-1.12-.83-2.24-1.25-3.36Z"/>
      <path d="m66.73,33.04s.04.03.04.03c0,0-.04-.03-.04-.03Z"/>
      <path d="m47.21,18.24s-.05-.03-.05-.03c.66,2.1,1.45,4.16,2.19,6.23.7,1.96,1.32,3.97,2.38,5.78.02.03.11.06.11.07-2-3.8-3.05-8.07-4.63-12.05Z"/>
      <path d="m51.5,23.94s-.07-.04-.07-.05c1.34,2.3,2.49,4.67,3.55,7.11,0,.01.05.03.05.03-.97-2.46-2.19-4.82-3.52-7.1Z"/>
      <path d="m52.54,22.68s-.08-.05-.08-.05c1.32,3.02,2.6,6.05,3.97,9.05,0,0,.03.02.03.02-1.26-3.02-2.61-6.01-3.91-9.01Z"/>
      <path d="m53.8,23.69s-.08-.05-.08-.05c1.09,2.46,2.15,4.94,3.28,7.38,0,0,.02.01.03.02-1.03-2.47-2.15-4.9-3.23-7.35Z"/>
      <path d="m57.61,30.01c-.18-.96-.51-1.87-.99-2.72-.01-.03-.08-.05-.09-.06.16.29.31.59.43.89,0,0,0,0,0,0,0,0,0,0,.01.01.25.58.44,1.19.55,1.82,0,.03.09.05.09.06Z"/>
      <path d="m63.22,28.83s.04.03.04.03c0,0-.04-.03-.04-.03Z"/>
    </g>
  </g>
</svg>