<?xml version="1.0" encoding="UTF-8"?>
<svg id="Layer_2" data-name="Layer 2" xmlns="http://www.w3.org/2000/svg" viewBox="0 0 91.88 90.68">
  <g id="objects">
    <g>
      <g>
        <path d="m26.74,8.34c-1.54-.53-4.51-1.18-5.46.68-.46.89-.27,2.07-.17,3.03.15,1.56.47,3.1.91,4.6.33,1.11,1.06,2.32,1.26,3.44.44.57.29,1.1-.44,1.58-.27-.18-.53-.39-.78-.61-.64-.54-1.23-1.12-1.78-1.75-1.79-2.04-2.76-4.75-4.8-6.58-1.91-1.72-4.65-2.22-7.15-2.17-1.82.04-3.33.73-3.09,2.77.17,1.44.83,3,1.23,4.38.36,1.27.75,2.54,1.14,3.81-1.99-.31-4.14-.73-6.11-.59-1.09.08-1.45.47-1.5,1.58-.13,3.02,1,6.62,3.87,7.97-.09,1.43,1.11,2.39,2.5,2.73,2.49.59,5.05.65,7.55,1.34.93.26,3.44.67,3.32,1.97-.04.4-.62.92-.68,1.44-.05.4,0,.79.12,1.15-.56-.08-1.12-.08-1.69.09-1.12.34-1.43,1.07-2.13,1.89-.71.85-1.7.98-2,2.24-.21.86-.01,1.8.45,2.55.65,1.05,1.77,1.67,2.81,2.28.59.35,1.2.68,1.72,1.14.78.68.87,1.29,1.23,2.22.36.93.83.88,1.7,1.1,1.93.5,3.45,1.61,5.14,2.71.46.3,1.1.6,1.48.98.43.44.94.26,0,.5-.79.2-1.67-.29-2.41-.58-1.68-.65-3.3-1.44-4.85-2.35-1.34-.79-2.54-1.86-3.89-2.62-.7-.39-1.4-.59-2.16-.29-.69.27-1.13.85-1.09,1.61.05.83.9,1.34.64,2.11-.24.71-1.88,1.33-2.54,1.98.15.43.3.86.46,1.29.71-.93,1.71-1.32,2.79-1.94.53-.3.89-.73.83-1.37-.06-.73-2.28-2.99.18-2.69.55.07,1.24.82,1.69,1.17.7.53,1.4,1.03,2.13,1.51,1.32.86,2.7,1.63,4.13,2.31,1.22.58,2.8,1.52,4.19,1.57,1.73.07,2.82-1.79,1.15-2.74-1.44-.82-2.81-1.75-4.19-2.65-.58-.38-1.16-.84-1.79-1.14-.56-.27-1.27-.19-1.77-.42-1.07-.48-1.26-1.99-2.06-2.79-1.02-1.03-2.4-1.51-3.53-2.38-.87-.67-2.05-2.11-1.12-3.3.33-.42,1.13-.59,1.55-.97.7-.62.75-1.63,1.89-1.8.95-.14,1.91.25,2.78.57.73.28,1.17-.85.44-1.14-1.07-.37-1.25-1.34-.84-2.21.17-.37.38-.49.54-.81.15-.3.36-.56.29-.94-.17-.96-1.58-1.23-2.3-1.48-1.63-.57-3.29-1.07-4.97-1.45-.99-.22-1.98-.41-2.98-.55-.43-.06-.87-.09-1.29-.17-.36-.08-.71-.17-1.07-.25-.34-.53-.67-1.06-1.01-1.59.08-.32,0-.74-.38-.85-2.36-.68-3.94-3.76-3.67-6.18.19-1.74,2.12-1.23,3.36-1.14,1.25.09,2.49.25,3.73.46.29.05.62-.26.54-.56-.66-2.41-1.34-4.8-2.04-7.2-.3-1.02-1.09-2.34.41-3.07.42-.21,1.07-.05,1.52-.02,1.32.09,2.73.24,3.96.74,2.57,1.03,3.63,3.37,5.03,5.56,1.06,1.66,2.42,3.37,4.08,4.48.83.56,2.07,1.08,2.89.2,1.11-1.19-.33-3.04-.79-4.18-.9-2.2-1.4-4.61-1.54-6.98-.05-.76-.07-1.96.77-2.42.44-.24,1.55.03,2.07.12,1.82.32,3.8,1.35,3.76,3.47-.01.77,1.16.92,1.2.13.13-2.21-1.34-3.85-3.37-4.54Z"/>
        <path d="m16.45,63.41c-1.44.17-2.94.34-4.37.03.27.48.55.94.85,1.4.61.03,1.22,0,1.84-.05-.37.46-.66.98-.83,1.52.23.31.47.61.71.91-.07-1.14,1.08-2.14,2.12-2.71.56-.31.35-1.17-.32-1.09Z"/>
        <path d="m34.05,67.8c-.53.12-.99.34-1.46.61-1.23.71-1.98.68-3.33.31-1.26-.34-2.73-.44-3.98.05-1.69.66-2.55,2.64-4.44,2.88-.99-.61-1.99-1.21-3.03-1.73-.38-.19-.83-.36-1.27-.56,1.12,1.11,2.35,2.11,3.72,2.98.31.14.62.28.94.41.15.06.29.01.38-.08.54.05,1.15-.2,1.66-.52,1.77-1.09,2.91-3.07,5.3-2.7,1.56.24,2.38,1.28,3.97.48.93-.47,1.67-1,2.79-.96.72.03,1.32.32,2.04.3.35,0,.46-.47.27-.71-.8-1.02-2.4-1.03-3.58-.75Z"/>
        <g>
          <path d="m41.13,26.52c.31.96-.37.79-.92,1.25-.25.2-.42.44-.54.74-.03.09-.06.18-.08.28-.84-2.08-2.4-3.96-3.63-6.01-.34-.56-.68-1.13-1.03-1.7.91.73,1.89,1.37,2.84,2.04,1.16.83,2.89,1.96,3.35,3.4Z"/>
          <path d="m44.02,32.63c1.53.61,2.91,1.58,4.01,2.81.95,1.06,2.4,2.99,2.37,4.53,0,.39-.08,1-.8.82-.21-.05-.79-.8-1.02-1.05-.55-.59-1.09-1.19-1.64-1.78-1.98-2.1-4.13-4.06-6.82-5.15.11-.69.11-1.35.03-1.98.92,1.15,2.59,1.29,3.88,1.79Z"/>
          <g>
            <path d="m40.11,32.82c2.7,1.09,4.84,3.04,6.82,5.15.55.59,1.09,1.19,1.64,1.78.23.24.81.99,1.02,1.05.72.19.79-.43.8-.82.03-1.54-1.41-3.47-2.37-4.53-1.1-1.23-2.48-2.2-4.01-2.81-1.28-.51-2.95-.65-3.88-1.79.08.63.08,1.29-.03,1.98Z"/>
            <path d="m35.97,22.77c1.23,2.06,2.79,3.93,3.63,6.01.02-.09.05-.19.08-.28.11-.3.29-.54.54-.74.55-.46,1.22-.29.92-1.25-.46-1.43-2.19-2.57-3.35-3.4-.95-.68-1.93-1.31-2.84-2.04.34.57.69,1.13,1.03,1.7Z"/>
            <path d="m75.3,44.79c.46-2-.03-4.07-1.2-5.81-1.7-2.52-4.56-3.82-7.27-4.95-.27-.11-.66.04-.75.33-.39,1.34-.7,2.69-.93,4.06-1.16-.95-3.01-.96-4.81-.65,1.11-2.12,1.81-4.47,1.6-6.88-.12-1.41-.62-2.55-1.25-3.8-.08-.16-.13-.31-.19-.47-.15-.03-.3-.08-.44-.14,3.91-3.74,6.41-10.31,2.88-15.15-1.14-1.56-3.56-2.48-4.78-.47-1.64,2.71-.74,8.63-4.53,9.5-.02-.28.07-.65.07-.95,0-2.76-1.52-5.31-2.35-7.87C49.95,7.29,49.77-.4,43.41.02c-4.5.3-3.66,4.63-2.08,7.93-.91-.84-1.82-1.68-2.73-2.52-1.04-.96-2.18-2.41-3.76-2.14-2.09.36-4.37,2.49-4.88,4.53-.72,2.89,2.34,4.08,2.1,6.71-.03.28-.04.55-.04.82-.53-1.2-1.11-2.28-2.1-3.27-.23-.23-.62.08-.39.32.45.47.77,1.02,1.03,1.61-.03.01-.05.06-.01.09.02.01.04.03.07.04.44,1.07.68,2.26,1.09,3.33.68,1.75,1.66,3.4,2.58,5.03,1.87,3.3,5.28,6.68,4.39,10.72-.06.27.17.64.43.71,3.87,1.1,6.28,4.28,8.93,7.08.98,1.03,3.55,2.54,3.76,0,.18-2.14-1.78-4.9-3.16-6.36-.86-.92-1.86-1.71-2.95-2.32-1.13-.63-2.36-.82-3.51-1.36-1.29-.6-2.15-1.61-.92-2.61.18-.15.46-.15.66-.31.17-.14.32-.28.39-.5.22-.64-.26-1.41-.58-1.93-1.33-2.2-3.68-3.35-5.59-4.95-1.19-1-2.52-2.48-2.83-4.05-.22-1.1.31-2.15.15-3.23-.15-1.03-.88-1.72-1.51-2.48-1.42-1.71-1.04-3.62.64-5.02.56-.47,1.4-1.15,2.13-1.29,1.4-.28,2.42,1.16,3.3,2,1.21,1.16,2.41,2.31,3.62,3.47,2.14,2.05,4.33,4.16,4.95,7.17.17.82,1.4.64,1.29-.19-.41-3.04-2.53-5.3-4.68-7.32-1.24-2.7-4.02-8.23.31-8.66.27-.03.52-.03.77-.03-1.07.07-2.26.66-2.8,1.39-.09.12.05.3.19.23.6-.3,1.12-.67,1.77-.86.64-.19,1.31-.18,1.95-.34.13-.03.15-.19.04-.25,2.94.87,3.53,4.75,4.16,7.57.67,2.99,1.94,5.75,2.7,8.69.22.86.33,1.7.28,2.58-.03.46-.22,1-.04,1.46.16.41.44.62.87.68.7.1,1.56-.55,2.2-1.07-.03-.1-.04-.21-.07-.32,2.01-1.51,2.68-5.88,3.16-7.71.33-1.27.55-3.45,3.32-.97.48.43.68,1.33.87,1.9.47,1.46.56,3.04.32,4.55-.49,3-2.26,5.46-4.46,7.48-.58.53.18,1.36.79.99.25.62.58,1.24.83,1.91,1.22,3.2-.07,6.41-1.62,9.25-.79.21-1.52.45-2.11.65-.64.22-.25,1.05.3,1.03.37,0,.88-.08,1.46-.18.23.26.63.33.88-.05.02-.04.05-.07.07-.11,2.26-.37,5.03-.68,5.52,1.15.19.71,1.35.83,1.4-.03.09-1.79.33-3.51.76-5.24,3.92,1.69,8.73,5.19,6.71,10.02-.24.58.38.99.88.84,2.54-.76,4.52,1.52,5.92,3.28.66.83,1.32,1.71,1.54,2.76.25,1.2-.21,2.23-.63,3.34-.5,1.33-.86,2.68-.08,3.97.61,1.02,4.02,2.88,2.49,4.18-.57.49.13,1.32.73.89,1.61-1.14.67-3.13-.51-4.19-.62-.56-1.47-.99-1.81-1.8-.33-.8-.02-1.62.25-2.36.43-1.21,1.04-2.31.96-3.63-.14-2.25-2.01-4.4-3.55-5.91-1.31-1.29-2.89-2.09-4.62-1.97Zm-31.27-12.16c1.53.61,2.91,1.58,4.01,2.81.95,1.06,2.4,2.99,2.37,4.53,0,.39-.08,1-.8.82-.21-.05-.79-.8-1.02-1.05-.55-.59-1.09-1.19-1.64-1.78-1.98-2.1-4.13-4.06-6.82-5.15.11-.69.11-1.35.03-1.98.92,1.15,2.59,1.29,3.88,1.79Zm-6.24-9.51c1.16.83,2.89,1.96,3.35,3.4.31.96-.37.79-.92,1.25-.25.2-.42.44-.54.74-.03.09-.06.18-.08.28-.84-2.08-2.4-3.96-3.63-6.01-.34-.56-.68-1.13-1.03-1.7.91.73,1.89,1.37,2.84,2.04Z"/>
          </g>
        </g>
        <g>
          <path d="m45.94,57.25c.3-.15.63-.26,1.04-.26.51,0,1.23.45,1.71.66,2.35,1,4.67,2.54,5.34,5.06-3.37-.37-6.36-2.59-8.09-5.47Z"/>
          <g>
            <path d="m45.94,57.25c.3-.15.63-.26,1.04-.26.51,0,1.23.45,1.71.66,2.35,1,4.67,2.54,5.34,5.06-3.37-.37-6.36-2.59-8.09-5.47Z"/>
            <g>
              <path d="m45.94,57.25c.3-.15.63-.26,1.04-.26.51,0,1.23.45,1.71.66,2.35,1,4.67,2.54,5.34,5.06-3.37-.37-6.36-2.59-8.09-5.47Z"/>
              <path d="m55.49,63.33c-.38-4.17-4.56-6.24-8.16-7.24-.56-.16-1.02-.3-1.6-.08-.14.05-.27.12-.4.19-.45-.48-1.38-.02-1.13.65-.48.18-.98.1-1.62-.7-.57-.71-.83-1.62-1.44-2.33-.6-.7-1.34-1.29-2.14-1.76-1.66-.98-3.53-1.39-5.42-1.64-1.09-.14-2.29-.17-3.17-.88-.86-.7-.93-1.85-1.5-2.77-.45-.73-1.07-1.32-1.65-1.95-.31-.33-.76-.72-.96-1.14-.97-2.03.48-2.21,1.86-2.03,1.61.21,3.06.97,4.53-.09.41-.29.17-.98-.3-1.02-2.4-.23-4.37-1.85-6.82-1.84-2.31.01-4.41,1.28-6.73,1.09-.51-.04-.74.76-.22.9.63.17,1.23.22,1.83.2-1.86.42-3.44,2.25-4.18,3.88-.06.12.14.23.21.11.51-.91,1.19-1.72,2.01-2.37.84-.66,1.81-.97,2.73-1.47.09-.05.09-.15.03-.21,1.08-.12,2.16-.41,3.29-.57,1.41-.2,2.69.19,3.96.61-.97-.25-1.96-.42-2.85.18-1.09.73-1.09,1.87-.5,2.94.52.95,1.32,1.7,1.99,2.53.78.97.94,1.93,1.5,2.98.16.3.35.54.58.76-.31.12-.58.35-.85.53-.38.26-.76.52-1.14.79-.22.15.05.49.27.33l1.06-.76c.29-.21.65-.41.87-.7.2.16.42.3.64.41-.87.46-1.66,1.27-2.37,1.92-.18.16.06.45.24.29.39-.36.79-.71,1.2-1.05.4-.33.87-.62,1.23-1.01,0,0,0-.01.01-.02.65.28,1.37.43,2.07.54,2.48.39,4.97.77,6.93,2.5,1.33,1.18,1.87,3.55,3.72,4.11.61.18,1.16.12,1.71-.19,2.2,3.57,5.78,5.48,9.96,6.13.44.07.76-.35.73-.75Zm-1.46-.61c-3.37-.37-6.36-2.59-8.09-5.47.3-.15.63-.26,1.04-.26.51,0,1.23.45,1.71.66,2.35,1,4.67,2.54,5.34,5.06Z"/>
            </g>
          </g>
        </g>
        <path d="m81.74,87.54c-2.25-1.27-4.43-1.62-6.93-2.01-1.76-.27-3.47-.77-5.23-1.04-2.1-.33-3.95-.2-5.88.73-1.35.65-2.7,1.43-4.25,1.19-.87-.13-1.91-.63-1.83-1.67.08-1.07,1.38-1.86,2.41-2.46-2.3-1.45-5-2.89-7.71-1.92-1.19.43-1.73,1.23-2.49,2.16-.39.48-.8.85-1.43.92-.56.06-1.38-.2-1.9-.19-.45.01-.89.15-1.35.14-.58-.02-1.14-.16-1.56-.58-.92-.91-.68-2.4,0-3.38.57-.82,1.59-1.1,2.22-1.8.63-.27.77-.78.44-1.53-.27.03-.53.06-.8.09-.62.14-1.21.43-1.79.68-1.43.6-2.98,1.3-4.54.71-.97-.36-1.66-1.16-2.29-1.94-.81-1.02-2-2.22-2.57-3.41-.81-1.71,1.53-3.04,2.68-3.86.38-.27.98.19.64.6-.4.47-.61.7-1.05,1.13-.17.16-.34.33-.51.49-.78.68-.84,1.28-.17,1.81.37.87,1.46,2.02,2.11,2.71,1.25,1.34,2.38,1.7,4.09,1.05.73-.27,1.42-.66,2.15-.93,1.1-.41,2.57-.81,3.51.16,1.08,1.13.14,2.36-.84,3.1-.58.44-2.6,1.36-2.51,2.27.35.45.69.89,1.04,1.34.23-.03.45-.06.68-.09.35.02.71-.09,1.07-.06,1.4.12,1.54-.31,2.36-1.27.45-.52.99-.93,1.6-1.24,3.65-1.86,7.45.34,10.5,2.33.32.21.37.79.03,1.02-.37.24-2.06,1.02-2.17,1.41-.49,1.66,1.44.93,2.06.68,1.18-.47,2.2-1.22,3.43-1.58,2.35-.68,4.8-.17,7.13.33,2.54.55,5.29.6,7.73,1.48.96.35,7.91,3.92,8.1,4.41.08-.19.25-.35.51-.4.02,0,.03,0,.05,0,.5-.09.98.47.76.95-.99,2.1-6.32-1.88-7.49-2.54Z"/>
        <path d="m74.43,69.32c-.8-.61-1.71-.51-2.56-.93-1.93-.94-.06-1.9.26-2.94.07-.22.09-.42.07-.59.08.09.15.17.23.25.11.12.38.05.33-.15-.13-.5-.4-.8-.69-1.21-.35-.51-.51-1.02-.55-1.63-.07-.87,0-1.76-.56-2.5-.12-.16-.35,0-.29.18.38.97.17,1.97.37,2.97.07.37.22.72.41,1.06-.39-.23-.87-.41-1.28-.61,1.18-1.56-.09-3.83-1.3-5.17-.39-.43-.79-.73-1.32-.97-.9-.41-2.04-.28-2.36-1.32-.31-.99.73-1.77.44-2.82-.33-1.21-2.07-1.41-2.97-2.01-1.66-1.1-3.32-2.49-3.32-4.6,0-.46.03-.93.03-1.4.56,3.13,3.08,5.86,6.16,6.67.33.09.53-.38.19-.5-3.78-1.41-5.72-4.13-6.21-8.08-.02-.14-.23-.13-.24,0-.03.3-.03.6-.02.89-.04-.16-.08-.32-.15-.47-.49-1.19-2.52-1.85-2.44-3.19.02-.27-.37-.38-.47-.12-.29.78-.12,1.36.35,2.04.4.58,1.06.89,1.36,1.56.28.63.17,1.34.16,2-.01.92-.1,1.84.28,2.71.25.58.66,1.07,1.12,1.52-.02.14.01.28.13.43,1.41,1.69,1.46,3.76,2.33,5.69.57,1.27,1.44,2.42,2.35,3.54-.38-.05-.77.05-1.13.21-.7-1.38-1.64-2.6-3.01-3.53-.17-.12-.34.13-.18.26,1.2,1,2.04,2.22,2.67,3.56-.19.12-.38.24-.55.36-1.02.68-2.02,1.39-3.03,2.09-.18.12.03.37.21.26.87-.56,1.74-1.12,2.61-1.68.33-.21.65-.37.97-.52.89,2.08,1.37,4.38,1.99,6.54.75,2.61,1.92,5.9,4.53,7.2.19.09.4-.19.24-.34-1.45-1.37-2.59-2.68-3.36-4.55-.72-1.75-1.12-3.6-1.6-5.42-.34-1.26-.72-2.51-1.24-3.66.34-.14.68-.27,1.04-.42.03-.01.05-.03.06-.05.59.72,1.18,1.43,1.7,2.15.99,1.37,1.78,2.65,2.14,4.32.27,1.27.33,2.58.66,3.84.43,1.64,1.31,3.35,2.9,4.12.5.25.97.36,1.39.38-1.51,1.23-2.53,3.3-3.37,5.01-.11.22.25.36.36.14.48-.96,1-1.89,1.6-2.79.52-.78,1.17-1.5,1.61-2.32,0-.01,0-.02,0-.03,2.46-.06,3.27-3.65.92-5.43Zm-4.72-2.46s-.02.07-.03.1c-.74-3.53-2.73-6.44-4.95-9.28-1.3-1.65-1.76-3.18-2.37-5.14-.06-.19-.12-.38-.19-.56.98.59,2.02,1.3,2.01,1.99-.02.88-.72,1.48-.28,2.43.3.65.95,1.02,1.59,1.29,1.08.45,1.89.56,2.73,1.52.75.85,1.92,2.62.59,3.63-.34.26-.24.7.03.95.28.25.5.39.83.55.62.31.79.03.83.86.04.77-.56.96-.8,1.65Zm4.02,6.77c-1.33.73-2.86-1.76-3.23-2.68-.32-.81-.46-1.69-.58-2.56.18.26.42.49.7.68.47.31,1.02.39,1.55.53.96.25,1.85.63,2.32,1.59.36.73-.02,2.04-.76,2.45Z"/>
        <path d="m21.26,23.41c-1.78-.69-3-1.51-5.02-1.26-1.58.2-2.76.14-4.34-.1-.2-.03-.16-.32.03-.31,1.54.1,2.81-.22,4.25-.71.77-.27,1.45-.38,2.28-.29.95.11,1.74.48,2.6.87,1.27.57,2.12.44,3.27-.23.17-.1.46.01.52.2.66,2.09-2.24,2.35-3.6,1.82Z"/>
        <path d="m16.31,40.44c-.71.72-1.57,1.33-2.32,2-.14.12-.3-.09-.18-.22.71-.73,1.47-1.51,2.36-2.02.15-.08.24.13.14.23Z"/>
        <path d="m17.41,40.62c-.43.37-.94.63-1.38.98-.44.35-.88.72-1.28,1.12-.1.1-.28-.06-.19-.17.69-.86,1.62-1.83,2.69-2.18.16-.05.3.14.16.26Z"/>
        <path d="m18.07,41.09c-.34.29-.76.5-1.13.75-.37.26-.73.54-1.07.84-.16.14-.36-.11-.21-.25.63-.58,1.42-1.32,2.26-1.57.14-.04.26.12.14.22Z"/>
        <path d="m18.13,41.61c-.59.41-1.16.84-1.63,1.38-.13.15-.37-.02-.25-.18.47-.6,1.03-1.11,1.74-1.42.13-.06.26.13.13.22Z"/>
        <path d="m35.39,5.16c-.28.11-.54.19-.83.26-.14.04-.18-.2-.03-.23.28-.07.55-.11.84-.14.06,0,.09.08.03.1Z"/>
        <path d="m36.3,5.87c-.44.28-.99.38-1.49.53-.51.15-1.03.28-1.54.41-.13.03-.19-.18-.07-.23.52-.18,1.03-.38,1.56-.54.46-.15.96-.37,1.45-.38.1,0,.2.14.09.2Z"/>
        <path d="m37.19,6.46c-1.03.44-2.19.66-3.27.96-.11.03-.17-.16-.06-.2,1.07-.33,2.16-.78,3.26-.98.12-.02.18.16.06.21Z"/>
        <path d="m37.76,7.28c-.44.25-1.01.27-1.49.39-.6.15-1.19.33-1.78.53-.2.07-.34-.23-.13-.3.55-.21,1.1-.39,1.66-.55.52-.15,1.16-.4,1.71-.31.13.02.14.18.04.24Z"/>
        <path d="m38.46,7.83c-.48.25-1.06.35-1.57.5-.59.17-1.17.34-1.76.51-.13.04-.2-.2-.07-.24l1.75-.54c.52-.16,1.05-.39,1.59-.45.13-.01.17.15.06.21Z"/>
        <path d="m39.36,8.58c-1.09.43-2.28.65-3.39,1.02-.18.06-.3-.21-.12-.27,1.1-.38,2.28-.86,3.43-1.03.16-.02.24.22.08.28Z"/>
        <path d="m39.96,9.27c-.53.24-1.12.36-1.67.55-.55.2-1.1.42-1.64.66-.19.08-.31-.2-.13-.29.56-.26,1.14-.5,1.72-.71.52-.19,1.08-.43,1.64-.49.17-.02.24.21.08.28Z"/>
        <path d="m40.85,9.93c-.38.32-.99.4-1.46.54-.6.17-1.21.41-1.83.47-.1,0-.13-.11-.05-.16.54-.31,1.18-.47,1.77-.67.47-.16,1-.44,1.5-.4.11.01.15.15.07.22Z"/>
        <path d="m41.55,10.73c-.56.21-1.17.32-1.74.51-.58.19-1.14.4-1.7.63-.14.06-.23-.15-.09-.21,1.07-.48,2.28-1.03,3.46-1.18.15-.02.23.2.08.26Z"/>
        <path d="m42.01,11.54c-.49.28-1.06.44-1.59.64-.53.21-1.07.41-1.6.62-.21.08-.35-.24-.14-.32,1.06-.41,2.15-.97,3.25-1.22.18-.04.22.21.08.28Z"/>
        <path d="m42.87,12.01c-1.2.52-2.42,1-3.6,1.56-.18.09-.31-.2-.13-.29,1.17-.58,2.36-1.17,3.58-1.62.22-.08.37.24.15.34Z"/>
        <path d="m43.36,12.68c-1.32.43-2.57.91-3.76,1.63-.13.08-.27-.15-.14-.22,1.18-.73,2.47-1.35,3.82-1.68.15-.04.23.22.08.27Z"/>
        <path d="m43.93,13.12c-1.11.66-2.37,1.15-3.54,1.7-.13.06-.22-.14-.09-.2,1.16-.56,2.33-1.24,3.54-1.69.13-.05.2.13.09.2Z"/>
        <path d="m44.51,13.96c-.58.3-1.21.51-1.79.8-.59.29-1.16.61-1.72.95-.11.07-.24-.13-.13-.2,1.09-.67,2.33-1.43,3.58-1.74.11-.03.15.14.06.19Z"/>
        <path d="m45.35,14.79c-.67.35-1.42.58-2.12.89-.7.31-1.39.64-2.07.99-.14.07-.24-.15-.1-.23,1.32-.7,2.77-1.52,4.22-1.88.14-.03.18.17.07.23Z"/>
        <path d="m45.3,15.78c-.6.48-1.36.73-2.04,1.08-.74.38-1.47.79-2.21,1.18-.19.1-.37-.19-.2-.32.65-.49,1.36-.91,2.08-1.29.71-.37,1.44-.81,2.25-.91.15-.02.24.17.12.27Z"/>
        <path d="m45.83,16.35c-.58.4-1.27.65-1.9.95-.7.34-1.41.67-2.11,1.01-.16.08-.28-.18-.11-.26.66-.33,1.32-.65,1.98-.98.65-.32,1.31-.73,2-.95.13-.04.27.13.14.22Z"/>
        <path d="m46.4,17.17c-1.46.94-3.2,1.57-4.77,2.3-.16.07-.26-.17-.11-.24,1.54-.77,3.1-1.75,4.73-2.31.14-.05.3.15.15.25Z"/>
        <path d="m46.8,18.06c-.52.48-1.3.76-1.94,1.07-.73.35-1.46.68-2.2,1-.19.08-.32-.21-.13-.3.74-.32,1.47-.66,2.2-1.01.64-.32,1.29-.78,1.99-.95.12-.03.16.13.09.2Z"/>
        <path d="m46.63,19.28c-.5.37-1.12.6-1.68.87-.62.3-1.24.6-1.87.9-.19.09-.33-.21-.13-.3.62-.3,1.24-.61,1.86-.91.56-.27,1.12-.61,1.72-.78.12-.03.19.15.1.22Z"/>
        <path d="m44.23,21.34c-.22.08-.36-.26-.14-.33.35-.11.67-.27.99-.44.09-.05.2.08.13.16-.26.29-.61.49-.98.61Z"/>
        <path d="m46.01,2.34c-.57.25-1.31.14-1.93.29-.76.17-1.43.49-2.13.82-.14.07-.25-.13-.14-.22.6-.5,1.35-.84,2.1-1.04.63-.16,1.52-.39,2.13-.06.09.05.06.18-.02.21Z"/>
        <path d="m46.65,3.28c-.59.16-1.22.11-1.82.26-.65.16-1.27.39-1.85.72-.12.06-.24-.13-.13-.2,1.01-.64,2.61-1.38,3.83-1.03.14.04.08.23-.03.26Z"/>
        <path d="m47.1,4.26c-.49.2-1.03.29-1.53.45-.51.16-1.01.33-1.51.52-.16.06-.28-.19-.11-.25.96-.37,2.05-.84,3.09-.94.13-.01.2.18.07.23Z"/>
        <path d="m48.13,5.46c-.52.25-1.12.33-1.69.46-.63.15-1.27.3-1.91.44-.22.05-.27-.29-.05-.34.63-.15,1.27-.3,1.9-.45.56-.13,1.13-.32,1.71-.33.12,0,.13.18.03.22Z"/>
        <path d="m48.07,6.75c-.73.34-1.62.46-2.4.67-.19.05-.23-.25-.04-.3.77-.2,1.59-.52,2.38-.59.12-.01.18.16.06.21Z"/>
        <path d="m48.07,7.73c-.73.29-1.59.39-2.36.56-.19.04-.24-.26-.05-.3.75-.17,1.57-.45,2.34-.5.14,0,.21.19.07.24Z"/>
        <path d="m48.79,8.56c-.2.22-.54.23-.82.3-.38.09-.77.17-1.15.26-.24.05-.3-.32-.06-.38.36-.08.72-.16,1.09-.24.28-.06.62-.21.9-.1.06.02.09.11.05.16Z"/>
        <path d="m48.92,9.58c-.39.19-.85.27-1.27.37-.47.12-.93.24-1.4.35-.25.06-.31-.33-.06-.39.44-.11.88-.22,1.32-.34.43-.11.88-.27,1.32-.29.17,0,.25.21.09.29Z"/>
        <path d="m48.61,10.02c-.19.16-.49.22-.72.3-.19.07-.31-.22-.12-.28.25-.08.52-.23.79-.23.1,0,.13.15.06.21Z"/>
        <path d="m49.27,11.32c-.36.17-.83.18-1.22.24-.22.03-.27-.3-.05-.34.16-.02.33-.06.5-.09-.31-.05-.58-.24-.8-.45-.16-.15.11-.39.27-.22.22.23.47.32.75.45.07.03.09.13.06.19.16-.02.32-.03.47,0,.11.02.14.17.03.22Z"/>
        <path d="m50.03,11.99c-.3.11-.62.12-.92.17-.37.06-.72.15-1.08.26-.21.06-.35-.25-.14-.31.63-.19,1.44-.47,2.11-.33.09.02.14.17.03.21Z"/>
        <path d="m50.17,12.9c-.22.09-.46.11-.7.15-.26.04-.52.09-.78.13-.17.03-.22-.25-.04-.27.26-.04.52-.07.78-.11.23-.03.47-.09.71-.06.08,0,.1.13.02.16Z"/>
        <path d="m50.45,13.91c-.46.21-1.03.27-1.53.38-.19.04-.24-.26-.05-.3.5-.1,1.03-.28,1.54-.28.11,0,.12.16.03.21Z"/>
        <path d="m50.69,14.44c-.31.08-.62.12-.94.18-.06.01-.08-.09-.01-.1.31-.05.63-.11.94-.14.04,0,.04.05,0,.06Z"/>
        <path d="m51.14,15.38c-.46.21-.95.32-1.4.56-.18.1-.32-.2-.13-.3.46-.24.99-.46,1.51-.4.07,0,.08.11.02.13Z"/>
        <path d="m51.31,16.15c-.71.35-1.55.52-2.31.76-.21.07-.36-.25-.14-.32.77-.25,1.57-.61,2.37-.74.17-.03.24.22.09.29Z"/>
        <path d="m51.8,17c-.4.21-.88.31-1.32.44-.45.14-.89.26-1.34.4-.13.04-.22-.15-.09-.2.47-.16.93-.32,1.4-.48.42-.14.85-.32,1.28-.38.13-.02.17.16.06.21Z"/>
        <path d="m51.61,17.81c-.42.21-.88.36-1.31.54-.11.04-.18-.12-.07-.17.45-.17.89-.38,1.35-.51.08-.02.11.1.04.13Z"/>
        <path d="m51.79,18.78c-.88.45-1.86.77-2.79,1.14-.15.06-.25-.17-.1-.23.94-.35,1.88-.79,2.85-1.05.09-.02.11.11.04.14Z"/>
        <path d="m52.37,19.39c-.38.31-.87.5-1.31.71-.49.23-.99.45-1.49.65-.15.06-.26-.17-.1-.24.5-.21,1-.43,1.49-.66.44-.21.88-.49,1.35-.62.09-.02.13.1.07.15Z"/>
        <path d="m52.33,20.27c-.35.3-.85.45-1.27.63-.47.21-.94.43-1.4.64-.13.06-.21-.13-.09-.2.46-.23.92-.47,1.37-.71.41-.21.83-.51,1.28-.6.13-.03.19.15.1.23Z"/>
        <path d="m50.66,22.61c-.71.41-1.45.79-2.19,1.13-.13.06-.21-.13-.09-.2.76-.39,1.5-.81,2.22-1.27.52-.33,1.04-.84,1.64-.99.09-.02.15.1.1.16-.36.52-1.13.85-1.68,1.16Z"/>
        <path d="m52.9,22.32c-1.16,1.12-2.92,1.89-4.37,2.56-.13.06-.21-.14-.09-.2.76-.36,1.51-.74,2.23-1.17.72-.43,1.38-.98,2.12-1.36.11-.05.18.09.1.17Z"/>
        <path d="m52.89,23.31c-.67.68-1.63,1.14-2.45,1.6-.94.53-1.89,1.03-2.86,1.5-.12.06-.19-.12-.08-.18,1-.51,1.99-1.04,2.94-1.64.77-.48,1.5-1.1,2.33-1.47.12-.05.19.1.11.18Z"/>
        <path d="m53.11,24.56c-1.63,1.55-3.77,2.73-5.79,3.69-.17.08-.29-.18-.12-.27,2.08-1,3.85-2.32,5.73-3.64.15-.1.31.09.18.22Z"/>
        <path d="m54.25,25.09c-.58.64-1.38,1.09-2.11,1.55-.75.47-1.51.89-2.31,1.25-.07.03-.14,0-.18-.06-.3.17-.6.34-.91.48-.03.01-.05-.03-.02-.05.32-.15.62-.32.91-.5,0-.04,0-.08.05-.11.3-.19.6-.37.9-.55.15-.12.31-.24.45-.37.02-.02.05.02.03.04-.04.04-.08.07-.12.11.35-.22.7-.43,1.04-.66.68-.45,1.33-1.01,2.06-1.37.14-.07.31.12.2.25Z"/>
        <path d="m55.26,25.32c-1.24,1.34-3,2.32-4.64,3.09-.16.07-.26-.16-.11-.24,1.65-.87,3.01-2,4.51-3.07.14-.1.37.08.23.22Z"/>
        <path d="m53.86,27.68c-.97.6-1.98,1.13-3.02,1.6-.17.08-.28-.18-.11-.26,1.1-.56,2.18-1.16,3.21-1.84.83-.54,1.6-1.3,2.51-1.71.1-.05.21.08.14.17-.67.86-1.81,1.46-2.72,2.03Z"/>
        <path d="m52.43,29.75c-.15.08-.26-.16-.11-.24,1.03-.53,2.04-1.12,3.01-1.76.78-.53,1.5-1.18,2.33-1.63.07-.04.16.07.11.13-1.34,1.52-3.55,2.6-5.34,3.51Z"/>
        <path d="m58.44,27.01c-.67.78-1.66,1.31-2.54,1.83-1.08.65-2.2,1.26-3.37,1.73-.17.07-.26-.17-.11-.25,1.1-.6,2.19-1.17,3.25-1.85.85-.55,1.64-1.28,2.57-1.71.14-.07.31.12.2.25Z"/>
        <path d="m59.15,28.06c-.79.72-1.83,1.22-2.76,1.73-1.04.57-2.1,1.17-3.2,1.6-.25.1-.39-.25-.17-.37.99-.55,2.02-1.02,3.01-1.57.98-.54,1.91-1.25,2.94-1.68.18-.08.32.16.18.29Z"/>
        <path d="m58.66,29.62c-1.59,1.37-3.6,2.42-5.45,3.41-.14.08-.24-.15-.1-.23,1.9-.99,3.63-2.23,5.49-3.28.06-.04.12.06.06.11Z"/>
        <path d="m59.28,30.69c-1.49,1.59-3.7,2.73-5.67,3.61-.17.07-.28-.18-.11-.26,2.06-.95,3.73-2.3,5.6-3.53.11-.07.29.06.19.17Z"/>
        <path d="m59.94,31.59c-1.5,1.48-3.75,2.51-5.6,3.48-.13.07-.22-.14-.09-.2,1.06-.58,2.11-1.2,3.12-1.86.81-.54,1.58-1.17,2.45-1.61.12-.06.21.11.12.2Z"/>
        <path d="m53.4,37.04c-.15.06-.24-.15-.1-.23,2.23-1.19,4.42-2.06,6.24-3.88.12-.12.27.06.2.19-1.22,2.08-4.24,3.05-6.34,3.92Z"/>
        <path d="m59.21,34.85c-1.45,1.88-4.05,3.05-6.28,3.64-.21.05-.25-.27-.05-.33,1.2-.33,2.34-.8,3.4-1.45.99-.6,1.78-1.39,2.69-2.09.15-.11.36.07.24.23Z"/>
        <path d="m58.82,36.59c-1.17,1.3-2.83,2.15-4.48,2.68-.21.07-.36-.24-.14-.32,1.65-.59,2.99-1.54,4.37-2.59.15-.11.38.08.25.23Z"/>
        <path d="m25.4,9.16c-.37.26-.77.46-1.16.68-.43.24-.81.54-1.23.78-.19.1-.31-.17-.18-.29.33-.33.78-.58,1.18-.82.42-.24.84-.43,1.32-.5.09-.01.15.11.07.16Z"/>
        <path d="m26.23,9.57c-.7.5-1.54.84-2.31,1.23-.14.07-.24-.16-.1-.23.76-.38,1.52-.86,2.33-1.14.08-.03.16.08.08.13Z"/>
        <path d="m26.64,10.46c-.59.37-1.28.6-1.92.87-.15.06-.25-.17-.1-.23.64-.26,1.29-.6,1.97-.76.07-.02.11.09.06.12Z"/>
        <path d="m27.24,11.21c-.39.23-.82.38-1.22.59-.44.23-.84.5-1.23.8-.15.12-.33-.11-.18-.22.73-.57,1.66-1.2,2.6-1.29.08,0,.1.09.04.13Z"/>
        <path d="m27.61,11.98c-.2.13-.43.22-.65.33-.24.11-.48.23-.71.34-.12.06-.22-.14-.09-.2.46-.2.92-.46,1.4-.6.07-.02.11.09.06.12Z"/>
        <path d="m28.54,12.76c-.36.32-.88.51-1.32.71-.49.23-.98.46-1.48.69-.2.1-.34-.22-.14-.32.49-.24.97-.49,1.46-.73.43-.21.9-.51,1.37-.59.13-.02.2.15.1.23Z"/>
        <path d="m29.09,13.55c-.89.6-1.97,1.01-2.94,1.49-.19.1-.33-.21-.13-.3.49-.24.98-.48,1.46-.71.48-.23.97-.52,1.47-.69.13-.04.26.13.13.22Z"/>
        <path d="m29.67,14.4c-.86.61-1.9,1.03-2.83,1.52-.2.1-.34-.22-.14-.32.92-.48,1.85-1.09,2.83-1.44.14-.05.28.14.15.24Z"/>
        <path d="m30.57,15.22c-.3.4-.9.65-1.35.85-.52.23-1.05.41-1.61.5-.23.04-.34-.31-.12-.4.5-.2,1.01-.38,1.5-.61.44-.21.9-.56,1.37-.67.18-.04.3.19.2.33Z"/>
        <path d="m30.93,16.13c-.99.7-2.21,1.18-3.29,1.73-.19.1-.32-.2-.13-.3,1.06-.56,2.14-1.27,3.27-1.68.14-.05.29.14.15.25Z"/>
        <path d="m30.82,17.33c-.74.53-1.66.87-2.47,1.28-.16.08-.27-.17-.11-.25.8-.4,1.63-.93,2.49-1.19.09-.03.19.09.1.16Z"/>
        <path d="m31.71,18.02c-.37.35-.98.51-1.45.71-.54.23-1.08.46-1.62.69-.22.09-.37-.24-.15-.34.54-.24,1.07-.48,1.61-.72.46-.21,1-.54,1.51-.58.13,0,.2.14.1.23Z"/>
        <path d="m32.11,18.87c-.8.52-1.71.9-2.56,1.34-.22.11-.37-.24-.16-.35.83-.42,1.67-.93,2.54-1.27.16-.06.34.17.17.28Z"/>
        <path d="m32.24,19.77c-.84.67-1.94,1.12-2.94,1.49-.21.08-.35-.24-.14-.32,1.04-.38,1.95-.93,2.93-1.43.16-.08.29.15.16.26Z"/>
        <path d="m32.98,21.02c-.28.37-.78.61-1.18.85-.48.29-.98.55-1.49.78-.27.12-.45-.29-.19-.42.46-.22.9-.45,1.34-.71.42-.25.83-.63,1.28-.79.16-.06.35.12.23.28Z"/>
        <path d="m32.23,22.68c-.39.25-.75.54-1.1.84-.17.14-.38-.12-.22-.26.38-.34.79-.65,1.22-.93.32-.21.68-.51,1.08-.5.08,0,.11.1.07.16-.23.33-.72.48-1.04.7Z"/>
        <path d="m33.44,22.97c-.4.39-.95.66-1.43.96-.49.31-.97.62-1.46.92-.2.12-.43-.16-.23-.28.52-.33,1.03-.66,1.54-.98.46-.29.92-.66,1.43-.85.15-.05.25.12.14.23Z"/>
        <path d="m33.87,23.61c-.24.42-.78.7-1.18.95-.43.28-.88.53-1.33.77-.26.13-.43-.27-.18-.41.49-.26.97-.55,1.44-.86.35-.24.7-.56,1.11-.67.13-.04.19.13.14.23Z"/>
        <path d="m34.66,24.3c-.33.42-.9.69-1.34.99-.51.34-1.02.68-1.53,1.03-.24.16-.53-.19-.29-.35l1.62-1.09c.44-.3.87-.69,1.38-.84.14-.04.25.16.16.27Z"/>
        <path d="m35.19,25.62c-.75.95-1.99,1.65-3.03,2.25-.24.14-.41-.25-.17-.39.55-.32,1.08-.66,1.59-1.03.46-.34.88-.76,1.36-1.07.15-.1.39.07.25.24Z"/>
        <path d="m36.42,25.84c-2.2,1.91-4.28,3.72-6.07,6.04-.13.17-.41-.02-.28-.2,1.67-2.31,3.69-4.59,6.11-6.14.2-.13.43.13.24.3Z"/>
        <path d="m36.44,27.7c-2.29,2.21-4.6,4.23-6.54,6.78-.11.14-.33-.02-.23-.16,1.79-2.55,3.93-5.15,6.55-6.88.18-.12.38.11.22.26Z"/>
        <path d="m36.95,29.46c-1.73,1.05-3.06,2.7-4.5,4.11-.17.16-.46-.11-.3-.28.87-.93,1.74-1.86,2.62-2.77.58-.6,1.21-1.46,2.13-1.4.2.01.19.26.05.34Z"/>
        <path d="m36.02,32.21l-1.21,1.1c-.22.2-.52-.16-.3-.36.41-.36.82-.72,1.23-1.08.36-.32.72-.68,1.16-.89.11-.05.21.08.15.18-.26.41-.66.73-1.02,1.05Z"/>
        <path d="m36.56,33.32c-.15.15-.37-.11-.21-.26.2-.17.39-.36.61-.5.1-.06.23.04.16.15-.16.22-.37.41-.56.61Z"/>
        <path d="m63.81,40c-.96-.09-1.87-.32-2.84-.26-.97.06-1.87.36-2.77.74-.26.11-.4-.25-.17-.39,1.63-.97,4.19-1.37,5.87-.33.12.07.03.25-.09.24Z"/>
        <path d="m65.22,42.24c-1.44-2.19-3.97-1.75-6.16-1.18-.2.05-.3-.29-.1-.35,2.14-.67,5.55-1.4,6.58,1.33.07.19-.2.39-.32.2Z"/>
        <path d="m72.38,45.68c-.07.14-.3.11-.28-.07.18-1.9,1.23-3.62.28-5.5-.93-1.84-2.8-2.74-4.7-3.24-.17-.05-.1-.31.07-.3,2.04.19,4.03,1.03,5.1,2.86,1.15,1.97.49,4.32-.47,6.24Z"/>
        <path d="m71.21,45.16c-.09.17-.32.01-.28-.15.54-1.85.73-3.56.09-5.42-.06-.18.2-.31.28-.12.74,1.8.85,3.95-.1,5.69Z"/>
        <path d="m77.56,58.54c-.3.19-.61-.18-.35-.43,1.62-1.57,2.82-3.37,2.89-5.7.04-1.48-.36-2.77-1.53-3.75-1.13-.95-2.69-1.79-4.19-1.75-.27,0-.34-.4-.06-.42,2.61-.14,5.73,1.67,6.26,4.34.56,2.79-.57,6.15-3.03,7.71Z"/>
        <path d="m78.33,54.96c-.1.09-.23-.05-.16-.15,1.08-1.61,1.36-3.57.28-5.27-.13-.2.15-.44.29-.24,1.15,1.71,1.15,4.18-.41,5.66Z"/>
        <path d="m78.33,58.98c-.63.56-1.34,1.23-2.16,1.5-.07.02-.15-.05-.1-.12.53-.61,1.26-1.05,1.86-1.61.67-.63,1.22-1.39,1.91-1.98.17-.14.35.08.26.24-.41.75-1.14,1.41-1.77,1.97Z"/>
        <path d="m80.68,58.54c-1.37,1.32-3.08,2.41-4.7,3.41-.17.1-.36-.13-.19-.24,1.65-1.05,3.09-2.3,4.64-3.48.21-.16.44.13.25.31Z"/>
        <path d="m80.73,60c-.59.74-1.47,1.3-2.23,1.84-.79.56-1.62,1.05-2.48,1.49-.17.09-.28-.18-.12-.27.88-.46,1.73-.97,2.53-1.56.73-.53,1.34-1.21,2.07-1.72.14-.1.35.07.23.21Z"/>
        <path d="m81.4,60.92c-1.09,1.52-2.99,2.62-4.65,3.4-.11.05-.19-.12-.08-.17.89-.46,1.72-.99,2.49-1.63.7-.58,1.26-1.28,1.92-1.9.19-.17.46.1.32.3Z"/>
        <path d="m82.05,62.16c-.69.98-1.8,1.7-2.76,2.4-.99.72-2.01,1.38-3.08,1.98-.27.15-.45-.28-.19-.43,1.08-.62,2.13-1.3,3.12-2.07.88-.69,1.65-1.58,2.59-2.18.2-.13.47.08.32.3Z"/>
        <path d="m82.9,63.37c-1.67,2.1-4.46,3.84-6.89,4.93-.23.11-.37-.23-.16-.36,1.26-.74,2.51-1.47,3.67-2.35,1.06-.8,1.96-1.77,3.01-2.57.22-.17.56.11.37.35Z"/>
        <path d="m83.37,64.73c-1.78,1.76-3.96,3.21-6.09,4.51-.15.09-.32-.18-.17-.27,2.17-1.36,4-2.99,5.9-4.68.28-.25.62.19.36.44Z"/>
        <path d="m80.87,68.25c-.84.76-1.73,1.43-2.68,2.05-.25.16-.54-.18-.29-.36.86-.62,1.69-1.28,2.47-2,.77-.72,1.39-1.62,2.21-2.27.24-.19.5.1.37.34-.48.87-1.34,1.58-2.07,2.24Z"/>
        <path d="m64.72,42.68c-.24-.61-.71-1.08-1.34-1.27-.07-.02-.03-.13.04-.11.67.19,1.19.67,1.39,1.34.02.06-.07.1-.09.04Z"/>
        <path d="m68.6,49.7c-.22.15-.48-.17-.26-.32.68-.48,1.33-1.01,1.92-1.6.59-.59,1.04-1.31,1.65-1.87.14-.13.38.05.3.22-.66,1.47-2.3,2.7-3.6,3.57Z"/>
        <path d="m73.1,46.73c-.96,1.6-2.75,2.87-4.29,3.89-.17.11-.38-.13-.21-.25.8-.54,1.56-1.13,2.27-1.78.71-.65,1.3-1.42,2.03-2.04.12-.1.27.06.19.18Z"/>
        <path d="m71.77,49.67c-.13.09-.29-.1-.16-.19.87-.65,1.52-1.43,2.12-2.33.11-.17.35.01.25.18-.55.93-1.34,1.72-2.21,2.34Z"/>
        <path d="m73.66,49.68c-.58.59-1.17,1.17-1.77,1.75-.2.19-.47-.14-.27-.33.56-.54,1.12-1.09,1.66-1.65.48-.49.91-1.09,1.5-1.44.1-.06.23.07.18.17-.29.59-.84,1.04-1.3,1.5Z"/>
        <path d="m72.12,52.59c-.17.13-.38-.13-.21-.26,1.35-1.05,2.24-2.3,3.25-3.66.11-.15.37-.02.29.16-.69,1.5-2.03,2.78-3.33,3.76Z"/>
        <path d="m76.51,50.31c-1.5,1.97-3.53,3.62-5.46,5.15-.16.13-.35-.11-.2-.24,1.91-1.63,3.52-3.49,5.3-5.24.2-.2.52.11.35.33Z"/>
        <path d="m77.26,51.2c-1.32,1.8-3.03,3.35-4.81,4.68-.19.14-.43-.14-.24-.29,1.75-1.39,3.2-2.98,4.63-4.69.21-.25.62.03.42.3Z"/>
        <path d="m76.3,53.75c-.43.42-.88.81-1.34,1.17-.21.16-.46-.15-.26-.31.42-.33.82-.67,1.2-1.04.37-.36.7-.82,1.13-1.1.1-.07.28.02.21.16-.2.44-.61.79-.95,1.12Z"/>
        <path d="m76.21,56.19c-.31.23-.69-.24-.38-.46.49-.34.81-.82,1.24-1.21.09-.08.22,0,.21.11-.05.66-.56,1.19-1.07,1.56Z"/>
        <path d="m22.46,41.43c-.88.6-1.92.91-2.79,1.56-.94.71-1.74,1.56-2.42,2.53-.08.12-.29.01-.22-.12.96-1.83,3.09-4.14,5.33-4.2.11,0,.23.15.1.23Z"/>
        <path d="m23.55,42.1c-.82-.02-1.82.9-2.44,1.37-.61.46-1.19.96-1.73,1.49-.15.14-.4-.09-.26-.25.75-.83,1.56-1.59,2.48-2.24.57-.4,1.39-1.18,2.09-.73.18.11.04.36-.14.35Z"/>
        <path d="m24.07,43.08c-.47.46-1.13.78-1.67,1.15-.56.38-1.11.78-1.65,1.19-.23.18-.52-.17-.29-.35.56-.45,1.13-.89,1.71-1.3.52-.37,1.07-.83,1.68-1.05.23-.08.4.19.22.36Z"/>
        <path d="m24.88,44.06c-1.05.12-1.94,1.05-2.72,1.71-.83.71-1.58,1.48-2.21,2.38-.1.15-.32-.01-.22-.16.71-1.12,1.61-2.05,2.6-2.93.72-.63,1.5-1.54,2.53-1.42.23.03.25.38,0,.41Z"/>
        <path d="m24.98,45.13c-1.2.52-2.19,1.73-3.08,2.66-.13.14-.37-.09-.24-.23.6-.67,1.22-1.32,1.88-1.93.4-.36.84-.9,1.43-.73.1.03.1.18,0,.22Z"/>
        <path d="m24.25,46.98c-.41.36-.81.73-1.2,1.11-.17.17-.41-.12-.24-.29.39-.38.78-.76,1.19-1.12.36-.31.72-.71,1.17-.89.12-.05.24.09.16.2-.27.4-.73.67-1.09.98Z"/>
        <path d="m24.65,47.65c-.36.3-.73.6-1.09.9-.15.12-.34-.11-.19-.23.36-.3.73-.6,1.09-.9.32-.26.63-.58,1.01-.76.09-.04.17.07.12.14-.24.34-.62.58-.94.85Z"/>
        <path d="m25.4,48.23c-.38.31-.73.65-1.07,1-.16.17-.47-.11-.31-.29.33-.35.67-.69,1.03-1,.3-.26.68-.68,1.09-.69.09,0,.18.08.14.17-.15.36-.59.57-.89.81Z"/>
        <path d="m26.5,48.31c-.44.67-1.21,1.17-1.8,1.69-.22.19-.51-.16-.29-.35.6-.52,1.2-1.21,1.92-1.56.13-.07.25.1.18.22Z"/>
        <path d="m27.76,48.79c-.35.52-.97.88-1.44,1.28-.33.28-.75.89-1.22.87-.02,0-.04-.02-.04-.04-.06-.47.53-.88.83-1.18.46-.45,1-1.03,1.63-1.22.18-.05.35.12.24.29Z"/>
        <path d="m27.1,50.26c-.4.33-.78.71-1.21,1.01-.16.12-.39-.07-.26-.25.29-.41.7-.77,1.08-1.1.32-.28.73-.73,1.17-.78.12-.01.24.11.18.23-.17.39-.64.63-.96.89Z"/>
        <path d="m27.4,50.87c-.31.29-.62.57-.93.86-.15.14-.36-.11-.21-.25.31-.29.62-.57.93-.86.28-.26.54-.55.87-.74.11-.07.22.09.15.19-.22.31-.54.55-.81.8Z"/>
        <path d="m31.17,51.56c-.89.81-1.91,1.46-2.79,2.28-.18.17-.42-.13-.24-.3.87-.8,1.82-1.69,2.91-2.19.13-.06.22.11.13.2Z"/>
        <path d="m34.34,51.92c-1.06.64-2.18,1.09-3.18,1.85-.89.67-1.72,1.43-2.49,2.25-.07.08-.19-.04-.13-.12.88-1.25,2.13-2.51,3.55-3.36-.43.22-.88.41-1.29.65-.75.44-1.46.96-2.12,1.52-.16.13-.35-.11-.2-.24.65-.56,1.33-1.06,2.06-1.51.64-.39,1.36-.87,2.11-.99.1-.02.17.13.08.19-.09.07-.2.13-.3.19.59-.32,1.2-.56,1.82-.7.18-.04.21.21.08.28Z"/>
        <path d="m35.29,52.56c-1.17.67-2.4,1.14-3.51,1.92-1.1.77-2.09,1.69-2.97,2.7-.08.1-.24-.01-.16-.12,1.56-2.08,3.95-4.23,6.58-4.74.14-.03.18.17.07.23Z"/>
        <path d="m35.9,53.64c-.88.73-2.08,1.12-3.05,1.76-.99.65-1.91,1.38-2.78,2.18-.13.12-.29-.09-.17-.21.94-.92,1.94-1.76,3.04-2.48.86-.56,1.85-1.27,2.88-1.43.1-.02.16.12.08.18Z"/>
        <path d="m36.21,54.74c-.83.79-1.94,1.34-2.89,1.98-.97.65-1.92,1.33-2.87,2.03-.14.1-.31-.1-.17-.21.98-.76,1.98-1.5,3-2.21.89-.62,1.8-1.37,2.83-1.76.11-.04.19.09.1.17Z"/>
        <path d="m37.3,55.91c-.84.57-1.73,1.06-2.59,1.59-.04.03-.09-.05-.05-.08.86-.53,1.7-1.1,2.59-1.59.04-.02.09.05.05.08Z"/>
        <path d="m46.12,59.08c-2.03.53-4.25.33-6.07-.77-.95-.57-1.78-1.38-2.39-2.3-.88-1.31-1.36-2.85-2.85-3.62-.37-.19-.27-.74.18-.72,2.19.11,2.78,2.15,3.9,3.68,1.63,2.2,4.43,3.25,7.1,2.82.6-.09.7.76.14.91Z"/>
        <path d="m36.98,55.58c-1.83,1.56-4.74,2.62-5.9,4.83-.07.13-.26.06-.22-.08.36-1.24,1.38-1.95,2.37-2.71,1.11-.85,2.29-1.77,3.59-2.3.16-.07.3.15.16.27Z"/>
        <path d="m37.43,57.13c-1.63,1.24-3.31,2.28-4.78,3.73-.2.19-.46-.14-.27-.33,1.4-1.4,3.03-2.9,4.86-3.71.19-.08.36.19.19.32Z"/>
        <path d="m38.24,57.75c-.63.66-1.47,1.15-2.19,1.73-.73.58-1.43,1.18-2.13,1.81-.16.14-.36-.11-.21-.25.73-.67,1.48-1.31,2.25-1.93.68-.54,1.37-1.17,2.17-1.52.11-.05.17.09.1.16Z"/>
        <path d="m39.33,58.69c-1.24,1.01-2.67,1.79-3.93,2.78-.16.13-.37-.12-.21-.25,1.22-.97,2.56-2.12,4-2.76.14-.06.26.13.14.22Z"/>
        <path d="m40.66,58.96c-1.39,1.22-3.01,2.24-4.5,3.33-.19.14-.42-.14-.23-.28,1.5-1.11,2.97-2.36,4.56-3.33.17-.1.31.17.18.29Z"/>
        <path d="m38.52,61.7c-.13.1-.29-.1-.16-.2.94-.76,1.88-1.71,2.94-2.29.05-.03.12.05.08.09-.79.92-1.91,1.63-2.85,2.39Z"/>
        <path d="m40.85,61.24c-.4.3-.8.6-1.2.9-.14.1-.31-.1-.17-.21.4-.3.8-.6,1.2-.9.35-.26.7-.6,1.1-.76.07-.03.15.06.1.12-.27.34-.69.58-1.04.84Z"/>
        <path d="m41.32,61.97c-.39.3-.8.57-1.23.81-.27.15-.45-.28-.19-.43.41-.24.8-.51,1.17-.81.31-.25.59-.59.96-.76.13-.06.3.08.23.22-.18.41-.59.7-.94.97Z"/>
        <path d="m2.46,25.27s-.09.08-.16.07c-.02,0-.04,0-.06,0-.14-.02-.22-.12-.26-.25-.22-.83-.18-1.91.3-2.65.1-.16.35-.05.33.13-.09.85-.2,1.57-.06,2.43.02.09-.02.21-.1.27Z"/>
        <path d="m2.9,25.35c-.15-.89-.12-2.02.44-2.77.09-.12.32-.05.29.11-.16.9-.42,1.66-.33,2.6.02.26-.36.32-.4.06Z"/>
        <path d="m4.03,25.27c-.03-.67.15-1.4.5-1.98.05-.09.19-.03.18.07-.1.63-.18,1.27-.27,1.9-.03.22-.4.25-.41,0Z"/>
        <path d="m5.15,24.42c.09-.23.18-.46.32-.67.06-.09.2-.03.2.08-.02.25-.1.48-.19.72-.08.21-.4.09-.33-.13Z"/>
        <path d="m6.34,23.75s0-.04.01-.03c.02,0,0,.04-.01.03Z"/>
        <path d="m11.56,24.54c-.07.1-.22-.01-.15-.11.17-.23.32-.5.53-.7.05-.05.15.02.12.08-.12.26-.34.49-.5.72Z"/>
        <path d="m12.56,24.89c-.05.1-.21.04-.16-.06.3-.61.69-1.18,1.22-1.62.05-.04.12.03.08.07-.44.5-.84,1-1.13,1.6Z"/>
        <path d="m14.11,24.02c-.32.45-.6.92-.87,1.41-.06.12-.27.01-.21-.11.43-.96,1.04-2.15,1.95-2.72.08-.05.17.03.12.11-.27.48-.68.87-.99,1.32Z"/>
        <path d="m14.19,25.62c-.04.09-.19.04-.15-.06.55-1.14,1.27-2.44,2.3-3.23.06-.04.13.03.09.08-.79,1.08-1.63,1.97-2.24,3.2Z"/>
        <path d="m15.64,25.9c-.08.18-.37.07-.29-.11.57-1.23,1.33-2.63,2.43-3.47.09-.07.22.04.15.14-.81,1.16-1.69,2.13-2.29,3.44Z"/>
        <path d="m19.46,22.54c-1.06,1.33-2.16,2.47-2.98,3.98-.13.24-.49-.01-.35-.25.79-1.41,1.81-2.96,3.15-3.9.11-.08.27.05.18.17Z"/>
        <path d="m20.38,23.12c-.96,1.2-1.88,2.16-2.52,3.59-.08.18-.38.07-.29-.11.57-1.33,1.41-2.82,2.61-3.68.13-.09.32.06.21.2Z"/>
        <path d="m18.99,26.42c-.12.17-.39-.02-.26-.19.75-1,1.53-2.22,2.51-3.01.1-.08.22.04.16.15-.67,1.08-1.64,2.03-2.4,3.05Z"/>
        <path d="m22.66,23.7c-.92,1.08-1.87,2-2.62,3.23-.1.17-.34-.01-.24-.17.68-1.16,1.54-2.46,2.66-3.24.12-.08.3.06.2.19Z"/>
        <path d="m24.2,23.56c-.91,1.19-1.98,2.27-2.88,3.48-.16.21-.49-.03-.33-.24.88-1.2,1.82-2.5,2.96-3.48.15-.13.37.08.25.24Z"/>
        <path d="m22.37,26.79c-.13.16-.38-.02-.26-.18.93-1.17,1.91-2.62,3.11-3.53.09-.07.21.04.14.14-.83,1.27-2.05,2.38-3,3.58Z"/>
        <path d="m26.26,23.68c-.75,1.07-1.81,2.01-2.7,2.96-.13.14-.37-.09-.24-.23.89-.96,1.74-2.08,2.75-2.91.12-.1.28.06.19.18Z"/>
        <path d="m27.27,24.29c-.38.49-.91.86-1.37,1.27-.52.46-1.05.91-1.58,1.36-.17.15-.39-.12-.22-.27.51-.47,1.03-.93,1.55-1.39.46-.41.9-.88,1.44-1.19.13-.08.27.11.18.22Z"/>
        <path d="m27.69,25.25c-.31.29-.71.48-1.04.74-.34.26-.65.55-.95.85-.19.19-.46-.14-.27-.33.32-.32.65-.62,1.01-.9.32-.24.68-.54,1.07-.67.19-.06.34.16.19.3Z"/>
        <path d="m27.45,26.19c-.25.21-.5.42-.76.63-.22.18-.5-.16-.28-.34.25-.21.51-.42.76-.62.19-.15.4-.41.66-.37.07.01.11.07.11.13-.01.26-.31.42-.49.57Z"/>
        <path d="m28.73,26.23c-.25.29-.61.49-.92.7-.14.1-.3-.09-.17-.21.28-.25.56-.55.9-.72.13-.06.28.11.18.22Z"/>
        <path d="m45.76,59.84c-.84.67-1.72,1.27-2.55,1.96-.41.35-.82.7-1.21,1.07-.36.34-1.12.85-1.21,1.34-.02.12-.19.2-.28.08-.03-.04-.06-.09-.1-.13-.05-.06-.07-.15-.04-.23.4-.89,1.43-1.69,2.16-2.31.93-.8,1.94-1.52,3.07-2.02.15-.07.28.14.15.25Z"/>
        <path d="m46.28,60.95c-.64.64-1.45,1.14-2.15,1.72-.7.59-1.37,1.22-2.05,1.84-.14.12-.36-.08-.24-.23,1.13-1.34,2.65-2.89,4.25-3.65.2-.1.34.17.19.32Z"/>
        <path d="m45.28,63.21c-.63.54-1.27,1.06-1.92,1.57-.18.14-.4-.12-.23-.28.62-.55,1.24-1.1,1.87-1.64.55-.46,1.08-1.07,1.76-1.33.1-.04.18.07.13.16-.37.62-1.06,1.05-1.6,1.51Z"/>
        <path d="m46.39,63.53c-.56.49-1.1,1-1.61,1.53-.18.18-.42-.12-.25-.3.52-.53,1.06-1.03,1.62-1.52.49-.42,1-.95,1.62-1.15.08-.02.15.05.1.12-.37.53-.99.9-1.48,1.32Z"/>
        <path d="m45.85,65.43c-.13.13-.31-.09-.18-.22.83-.82,1.64-1.71,2.56-2.43.05-.04.13.03.08.08-.73.93-1.63,1.73-2.46,2.57Z"/>
        <path d="m47.92,64.93c-.52.48-1.03.96-1.55,1.44-.19.17-.44-.14-.25-.31.52-.47,1.04-.95,1.56-1.42.45-.41.89-.93,1.44-1.2.1-.05.18.08.13.16-.32.53-.88.92-1.33,1.34Z"/>
        <path d="m50.28,63.37c-.78,1.21-1.99,2.26-3.05,3.21-.16.14-.36-.11-.21-.25,1.09-.98,2-2.14,3.06-3.14.12-.11.28.06.2.19Z"/>
        <path d="m51.71,64.05c-.83,1.16-2,2.18-2.98,3.22-.16.17-.39-.11-.23-.28.97-1.03,1.91-2.24,3-3.13.12-.1.3.06.2.19Z"/>
        <path d="m53,64.12c-.86,1.26-2.1,2.32-3.29,3.26-.18.14-.41-.13-.23-.28,1.23-.96,2.23-2.07,3.32-3.17.12-.12.29.06.2.19Z"/>
        <path d="m51.51,67.11c-.06.06-.17-.04-.11-.1.98-1.04,1.92-2.14,2.95-3.13.07-.07.2.05.13.12-.93,1.08-1.98,2.08-2.97,3.11Z"/>
        <path d="m55.54,64.67c-.36.61-.92,1.14-1.38,1.67-.14.16-.41-.03-.27-.19.06-.07.12-.15.18-.22-.62.63-1.27,1.25-1.87,1.87-.16.17-.38-.11-.23-.28,1-1.04,1.97-2.2,3.07-3.13.12-.1.3.06.21.19.03-.03.06-.06.09-.09.12-.1.26.05.19.17Z"/>
        <path d="m37.3,33.95c-1.44,1.32-2.77,2.56-3.9,4.17-.07.1-.2,0-.15-.11.91-1.66,2.26-3.31,3.91-4.28.13-.08.23.12.13.22Z"/>
        <path d="m38.25,34.41c-.6.64-1.35,1.11-1.96,1.75-.61.63-1.14,1.33-1.66,2.03-.07.09-.24,0-.18-.1.76-1.45,2.13-3.23,3.68-3.88.13-.05.21.11.12.2Z"/>
        <path d="m39.66,34.68c-1.5,1.47-2.89,2.71-4,4.53-.05.08-.2,0-.15-.08.87-1.77,2.26-3.69,4.02-4.67.14-.08.24.13.14.22Z"/>
        <path d="m39.93,35.51c-1.29,1.36-2.46,2.66-3.47,4.24-.05.07-.18,0-.14-.07.86-1.62,2.02-3.2,3.46-4.35.12-.1.25.07.15.18Z"/>
        <path d="m40.88,36.29c-1.43,1.41-2.66,2.69-3.51,4.53-.09.2-.42.08-.33-.13.8-1.76,1.99-3.57,3.64-4.65.17-.11.35.1.2.24Z"/>
        <path d="m41.52,36.95c-1.28,1.12-2.41,2.06-3.21,3.61-.04.08-.18.03-.14-.05.71-1.42,1.8-2.98,3.24-3.74.12-.06.21.11.12.19Z"/>
        <path d="m42.3,37.42c-1.51,1.55-2.74,3.02-3.49,5.08-.03.1-.18.04-.15-.06.7-1.95,1.82-3.93,3.5-5.19.12-.09.24.07.14.17Z"/>
        <path d="m39.44,42.26c-.08.12-.26-.01-.18-.13,1.02-1.5,2.12-3.2,3.45-4.44.06-.06.16.03.11.1-1.08,1.53-2.33,2.9-3.37,4.47Z"/>
        <path d="m40,43.2c-.03.06-.14,0-.11-.06.95-1.77,2.1-3.73,3.69-4.99.05-.04.13.03.09.08-1.27,1.68-2.64,3.1-3.67,4.96Z"/>
        <path d="m44.76,38.81c-1.4,1.44-2.65,2.77-3.58,4.57-.08.15-.32.06-.24-.09.88-1.74,2.06-3.52,3.63-4.71.16-.12.32.1.19.23Z"/>
        <path d="m45.16,39.41c-.66.83-1.47,1.52-2.11,2.37-.72.97-1.3,2.02-1.81,3.11-.06.13-.26.06-.21-.08.77-2.02,2.08-4.4,3.95-5.58.11-.07.28.05.18.17Z"/>
        <path d="m45.89,39.99c-1.67,1.5-2.85,3.4-3.94,5.35-.11.19-.43.01-.33-.18.95-1.82,2.18-4.49,4.08-5.48.19-.1.35.18.19.32Z"/>
        <path d="m46.43,40.54c-1.29,1.64-2.54,3.12-3.52,4.98-.09.17-.32.04-.23-.13.95-1.76,2.1-3.65,3.56-5.03.11-.1.28.06.19.18Z"/>
        <path d="m47.38,41.2c-1.75,1.46-2.83,3.52-3.83,5.55-.1.21-.45.08-.35-.13.6-1.23,1.26-2.42,1.99-3.58.51-.8,1.04-1.82,2.01-2.13.17-.06.33.16.18.29Z"/>
        <path d="m46.01,43.87c-.65.92-1.18,1.91-1.65,2.93-.1.23-.46.09-.36-.14.76-1.84,1.96-4.22,3.7-5.3.12-.07.27.04.19.17-.52.84-1.29,1.52-1.87,2.33Z"/>
        <path d="m44.79,47.26c-.12.18-.39-.02-.27-.19,1.2-1.8,2.4-3.81,3.89-5.39.09-.1.21.05.16.15-1.1,1.88-2.56,3.62-3.77,5.44Z"/>
        <path d="m48.06,44.32c-.62.79-1.05,1.66-1.52,2.54-.09.16-.31.08-.26-.1.4-1.6,1.79-3.97,3.41-4.57.13-.05.25.09.17.21-.49.72-1.25,1.23-1.8,1.93Z"/>
        <path d="m51.17,43.14c-.89.41-1.33,1.2-1.87,1.98-.56.81-1.11,1.61-1.66,2.42-.14.2-.44-.02-.3-.22.73-1.09,1.44-2.18,2.18-3.26.4-.59.81-1.16,1.55-1.3.22-.04.31.29.11.38Z"/>
        <path d="m48.7,47.43c-.06.09-.2,0-.14-.1.89-1.37,1.87-2.81,3.05-3.94.04-.04.11.02.07.07-1.02,1.32-2.09,2.55-2.98,3.97Z"/>
        <path d="m52.23,44.43c-.82.86-1.73,1.55-2.47,2.51-.07.09-.21-.01-.14-.1.69-.91,1.54-1.94,2.56-2.49.05-.03.09.05.05.08Z"/>
        <path d="m52.33,45.9c-.63.47-1.19,1.03-1.68,1.64-.16.2-.49-.03-.33-.24.51-.65,1.08-1.24,1.73-1.75.49-.38,1.15-.96,1.8-.94.09,0,.13.11.08.18-.37.5-1.09.74-1.59,1.11Z"/>
        <path d="m53.43,46.63c-.2.13-.4.26-.6.39-.21.14-.47-.17-.25-.31.21-.14.43-.27.64-.41.19-.12.38-.27.6-.31.12-.02.2.12.14.22-.12.19-.34.29-.52.41Z"/>
        <path d="m54.58,46.91c-.15.09-.31.17-.46.26-.24.13-.41-.25-.17-.39.27-.15.59-.41.9-.41.12,0,.16.15.1.24-.08.14-.24.22-.38.3Z"/>
        <path d="m56.96,64.6c-.3.45-.69.86-1.06,1.25-.35.37-.69.85-1.15,1.08-.14.12-.33-.07-.28-.23.17-.5.63-.9.99-1.28.37-.39.76-.81,1.22-1.11.19-.12.43.07.29.28Z"/>
        <path d="m55.78,67.44c-.12.12-.32-.07-.22-.2.6-.8,1.26-1.8,2.06-2.41.1-.08.3.03.23.16-.49.91-1.36,1.71-2.08,2.45Z"/>
        <path d="m66.2,67.1c-2.87,2.1-5.42,4.51-7.13,7.67-.05.09-.2,0-.15-.08,1.6-3.26,3.91-6.08,7.2-7.72.08-.04.15.08.08.13Z"/>
        <path d="m66.68,65.52c-2.33,1.84-4.68,3.39-6.72,5.6-.12.13-.35-.02-.23-.16,1.83-2.22,4.11-4.54,6.76-5.73.18-.08.34.17.18.29Z"/>
        <path d="m66.12,64.72c-.9.63-1.97.97-2.88,1.6-1,.69-1.9,1.53-2.69,2.45-.11.13-.33-.02-.22-.16,1.29-1.68,3.49-3.83,5.7-4.11.11-.01.2.15.1.22Z"/>
        <path d="m65.54,63.54c-1.78.99-3.5,1.95-5.05,3.28-.17.15-.38-.12-.22-.27,1.48-1.37,3.19-2.68,5.09-3.42.27-.11.43.27.18.41Z"/>
        <path d="m64.38,62.61c-.59.35-1.26.57-1.87.89-.66.36-1.28.78-1.88,1.23-.19.15-.43-.14-.24-.29,1.09-.86,2.5-1.89,3.89-2.15.2-.04.24.23.09.32Z"/>
        <path d="m64.38,61.33c-.35.34-.87.48-1.3.7-.51.26-1.02.53-1.49.85-.17.12-.38-.13-.21-.25.45-.33.89-.65,1.37-.93.45-.26.97-.63,1.51-.65.15,0,.24.16.12.27Z"/>
        <path d="m64.7,70.09c-.97.93-1.82,1.95-2.61,3.03-.09.13-.28-.01-.2-.14,1.25-1.82,3.01-4.19,5.04-5.17.1-.05.23.09.15.18-.7.78-1.62,1.37-2.38,2.1Z"/>
        <path d="m67.27,69.18c-1.36,1.33-2.76,2.55-3.97,4.03-.16.2-.48-.03-.32-.23,1.18-1.48,2.51-3,4.08-4.07.19-.13.38.11.22.27Z"/>
        <path d="m67.79,70.22c-.27.36-.66.61-.99.92-.4.38-.78.78-1.14,1.2-.17.2-.5-.04-.33-.24.34-.4.69-.78,1.06-1.14.36-.35.74-.77,1.2-.98.14-.06.29.11.2.24Z"/>
        <path d="m68.33,71.57c-.26.43-.79.73-1.16,1.06-.43.39-.85.79-1.25,1.2-.15.15-.42-.1-.28-.26.39-.46.79-.89,1.24-1.3.38-.35.79-.81,1.3-.96.14-.04.21.15.15.25Z"/>
        <path d="m67.3,73.84c-.19.15-.43-.14-.24-.29.46-.36.93-.86,1.48-1.07.09-.03.16.06.11.14-.32.49-.91.85-1.36,1.22Z"/>
        <path d="m69.04,74.06c-.14.14-.29.26-.45.37-.21.15-.41-.17-.19-.3.17-.1.34-.18.53-.25.11-.04.19.09.11.18Z"/>
        <path d="m69.68,75.38c-.19.18-.46-.14-.26-.32.15-.14.29-.32.49-.37.13-.03.22.12.18.23-.06.19-.27.33-.41.46Z"/>
        <path d="m8.43,12.73c-.32.23-.58.45-.98.45,0,0,0,0,0-.01.12-.39.44-.59.76-.83.32-.24.62-.45.99-.6.11-.04.23.08.15.19-.26.33-.57.56-.91.8Z"/>
        <path d="m10.39,12.14c-.69.71-1.59,1.22-2.46,1.67-.09.05-.19-.1-.1-.16.82-.54,1.62-1.16,2.5-1.61.06-.03.1.05.06.1Z"/>
        <path d="m11.5,12.54c-1,.89-2.24,1.51-3.36,2.24-.18.12-.39-.13-.22-.26,1.07-.79,2.2-1.69,3.48-2.13.1-.03.18.08.1.15Z"/>
        <path d="m12.57,13.24c-.47.33-1.02.57-1.52.86-.61.35-1.21.71-1.79,1.1-.16.11-.36-.13-.19-.24,1.03-.7,2.22-1.55,3.43-1.88.08-.02.14.11.07.15Z"/>
        <path d="m13.45,13.94c-1.06.78-2.26,1.41-3.39,2.1-.18.11-.31-.19-.13-.3,1.12-.67,2.23-1.43,3.4-1.99.11-.05.22.11.12.19Z"/>
        <path d="m14.6,14.52c-1.31.79-2.68,1.44-3.94,2.33-.17.12-.38-.13-.21-.25,1.24-.87,2.6-1.81,4.03-2.33.17-.06.27.17.11.26Z"/>
        <path d="m15.91,15.04c-1.58,1.04-3.4,1.81-5.08,2.66-.21.1-.34-.22-.14-.33,1.64-.9,3.29-1.96,5.02-2.67.2-.08.4.21.21.34Z"/>
        <path d="m15.85,16.12c-1.17.84-2.56,1.47-3.83,2.17-.21.12-.36-.23-.15-.34,1.25-.69,2.5-1.54,3.82-2.08.15-.06.3.15.16.25Z"/>
        <path d="m16.42,16.79c-1.29.89-2.74,1.58-4.1,2.35-.2.11-.34-.22-.14-.33,1.35-.75,2.7-1.61,4.11-2.24.13-.06.26.13.13.22Z"/>
        <path d="m17.09,17.76c-.55.61-1.33,1.03-2.04,1.43-.86.49-1.75.91-2.67,1.29-.25.1-.42-.28-.17-.38.83-.34,1.63-.73,2.41-1.17.77-.43,1.48-1.03,2.28-1.39.12-.05.28.11.18.22Z"/>
        <path d="m15.79,19.91c-.79.46-1.6.88-2.43,1.29-.26.13-.45-.29-.19-.42.78-.39,1.55-.8,2.3-1.23.67-.38,1.32-.95,2.06-1.15.12-.03.22.14.14.24-.46.56-1.27.92-1.9,1.28Z"/>
        <path d="m16.67,20.32c-.44.27-.89.51-1.36.71-.24.1-.41-.27-.17-.37.46-.19.9-.41,1.33-.66.37-.23.75-.59,1.16-.73.1-.04.19.07.13.16-.22.38-.72.67-1.09.9Z"/>
        <path d="m18.22,20.64c-.53.33-1.15.53-1.73.76-.3.12-.5-.31-.21-.46.53-.27,1.07-.6,1.64-.78.13-.04.23-.02.33.08.04.04.06.08.06.14,0,.09-.01.21-.1.26Z"/>
        <path d="m13.64,54.76c-.51.83-1.09,1.6-1.55,2.47-.45.87-.79,1.77-1.17,2.67-.05.13-.26.09-.24-.06.24-1.92,1.3-3.99,2.76-5.26.12-.1.27.06.19.18Z"/>
        <path d="m14.52,54.36c-1.05,1.58-2.04,3.07-2.74,4.85-.07.17-.32.07-.26-.1.6-1.77,1.49-3.58,2.8-4.94.11-.12.29.06.2.19Z"/>
        <path d="m14.46,56.36c-.49.71-.83,1.48-1.08,2.3-.05.16-.29.07-.24-.09.43-1.48,1.31-3.25,2.7-4.04.08-.04.17.07.11.14-.48.58-1.06,1.06-1.49,1.69Z"/>
        <path d="m14.69,58.71c-.13.23-.46-.01-.33-.24.69-1.22,1.45-2.45,2.37-3.51.08-.1.23,0,.16.12-.73,1.22-1.51,2.4-2.2,3.63Z"/>
        <path d="m17.78,55.54c-.73,1.15-1.46,2.24-2.01,3.51-.09.21-.41.09-.33-.13.49-1.28,1.16-2.58,2.13-3.57.12-.12.29.06.2.19Z"/>
        <path d="m16.54,59.51c-.14.23-.48-.02-.34-.24.63-1.02,1.33-2.14,2.23-2.94.09-.08.19.04.14.13-.6,1.05-1.39,2.02-2.03,3.05Z"/>
        <path d="m17.47,59.73c-.15.23-.5-.02-.35-.25.63-.98,1.35-2.09,2.28-2.81.1-.08.22.04.16.15-.62,1.01-1.44,1.92-2.08,2.92Z"/>
        <path d="m18.32,60.17c-.16.23-.51-.02-.35-.25.66-.98,1.34-1.96,2.1-2.86.11-.13.29,0,.21.15-.58,1.03-1.27,2.01-1.96,2.97Z"/>
        <path d="m20.34,58.76c-.3.48-.62.95-.92,1.44-.14.22-.47-.02-.33-.24.54-.85,1.17-1.89,1.96-2.53.05-.04.15.01.12.08-.22.45-.57.82-.83,1.24Z"/>
        <path d="m22.12,57.77c-.63,1.09-1.44,2.11-2.18,3.13-.18.24-.56-.03-.38-.27.75-1.01,1.49-2.08,2.35-3,.11-.12.29,0,.21.15Z"/>
        <path d="m20.67,61.67c-.17.25-.55-.02-.38-.28.74-1.11,1.6-2.12,2.55-3.07.06-.06.17.04.11.11-.79,1.06-1.54,2.14-2.28,3.24Z"/>
        <path d="m21.57,62.25c-.2.27-.61-.03-.42-.3.8-1.16,1.6-2.44,2.57-3.47.12-.13.36.05.28.2-.65,1.25-1.6,2.43-2.43,3.57Z"/>
        <path d="m23.33,60.97s0-.04.01-.03c.02,0,0,.04-.01.03Z"/>
        <g>
          <path d="m24.12,59.86s-.01,0,0,0c.1-.1.19-.2.29-.3.02-.02.04-.04.05-.05-.02.02-.03.04-.05.06-.09.1-.19.2-.28.3Z"/>
          <path d="m24.63,59.32c-.05.06-.12.12-.17.18.05-.06.11-.12.17-.18Z"/>
          <path d="m24.75,59.21s-.08.07-.12.1c.03-.04.07-.08.09-.12.02-.03.05,0,.03.02Z"/>
        </g>
        <path d="m23.47,62.44c-.14.19-.45-.02-.3-.22.78-1.06,1.56-2.1,2.42-3.09.07-.08.19,0,.13.1-.7,1.11-1.47,2.16-2.25,3.21Z"/>
        <path d="m25.17,61.55c-.14.2-.45-.02-.3-.22.35-.47.71-.9,1.09-1.34.07-.08.2,0,.14.1-.29.5-.59.98-.92,1.45Z"/>
        <path d="m26.69,58.68s0-.04.01-.03c.02,0,0,.04-.01.03Z"/>
        <path d="m26.32,60.84c-.15.2-.46-.03-.31-.22l.4-.53c.12-.16.23-.34.4-.47.12-.1.31.03.25.18-.15.37-.49.72-.73,1.04Z"/>
        <path d="m71.17,74.97c-.35.45-.8.85-1.2,1.25-.16.16-.39-.12-.23-.28.4-.39.78-.83,1.22-1.17.12-.09.3.06.2.19Z"/>
        <path d="m69.14,79.38c-.12.2-.41-.01-.29-.21.97-1.61,2.05-3.19,3.34-4.55.08-.09.22.05.15.14-1.11,1.52-2.22,3.01-3.2,4.62Z"/>
        <path d="m71.4,80.74c-.14.23-.48-.02-.34-.25,1.07-1.81,2.05-3.78,3.33-5.45.11-.14.37-.02.29.16-.89,1.93-2.17,3.73-3.28,5.54Z"/>
        <path d="m73.45,80.24c-.14.22-.47-.02-.33-.24.79-1.29,1.53-2.67,2.46-3.86.09-.11.29-.02.22.12-.65,1.38-1.55,2.68-2.35,3.98Z"/>
        <path d="m74.3,80.99c-.19.19-.53-.13-.35-.33.33-.36.63-.73.93-1.11.26-.34.53-.74.88-.99.1-.07.27,0,.24.13-.18.9-1.07,1.68-1.7,2.29Z"/>
        <path d="m28.03,60.2c-.43.72-.95,1.39-1.39,2.11-.38.62-.61,1.38-1.15,1.87-.06.06-.14,0-.14-.08,0-.73.53-1.46.89-2.08.44-.74.93-1.46,1.56-2.04.14-.13.32.07.23.22Z"/>
        <path d="m27.3,63.11c-.17.22-.52-.03-.35-.25.4-.51.79-1.15,1.3-1.55.12-.1.33.03.26.19-.28.59-.81,1.11-1.21,1.62Z"/>
        <path d="m43.54,39.39c-1.34,1.43-2.73,2.74-3.77,4.41-1.13,1.81-1.85,3.79-2.5,5.81-.04.11-.2.06-.19-.05.34-3.95,2.85-8.33,6.31-10.36.1-.06.23.1.15.19Z"/>
        <path d="m31.24,34.08c-.73,1.11-1.42,2.17-1.85,3.44-.07.21-.39.09-.32-.12.42-1.28,1.02-2.54,1.97-3.5.12-.12.29.06.2.19Z"/>
        <path d="m19.94,35.26c-.04.22-.37.19-.35-.04.29-2.91,1.31-5.82,3.16-8.11.09-.12.33-.02.25.13-1.38,2.6-2.45,5.12-3.05,8.02Z"/>
        <path d="m5.75,27.9c-.26-.98-.3-2.34.23-3.25.15-.25.49-.05.48.18-.02.51-.18,1.01-.23,1.52-.05.51-.05,1.02-.06,1.53,0,.26-.36.22-.42,0Z"/>
        <path d="m45.35,25.9c-2.03-.08-3.82-1.07-5.44-2.22-1.4-.99-3.1-2.11-3.75-3.76-.05-.13.14-.22.2-.09.8,1.54,2.7,2.68,4.11,3.64,1.55,1.07,3.13,1.73,4.94,2.2.14.04.07.25-.06.24Z"/>
        <path d="m45.08,26.38c-.75.27-1.76-.07-2.44-.4-.08-.04-.03-.17.05-.13.4.16.81.28,1.23.33.38.04.76-.01,1.13.05.08.01.11.13.02.16Z"/>
        <path d="m44.83,27.16c-.95.04-1.95-.09-2.81-.5-.09-.04-.07-.19.04-.18.93.14,1.82.27,2.76.3.21,0,.22.37,0,.38Z"/>
        <path d="m44.58,27.64c-.69,0-1.44-.26-2.12-.4-.12-.03-.11-.22.02-.2.69.09,1.5.09,2.16.34.16.06.08.26-.06.26Z"/>
        <path d="m51.48,37.49c.24.86.44,1.83.18,2.7-.05.16-.3.12-.32-.04-.11-.91-.02-1.83-.22-2.74-.02-.12.1-.19.2-.18-.7-2.35-2.1-4.05-4.26-5.28-2.13-1.21-4.47-.71-6.15-2.72-.08-.1.06-.26.16-.17.94.81,1.85,1.31,3.09,1.57.65.13,1.31.15,1.94.38,1.03.36,2,1.04,2.84,1.74,1.39,1.16,2.68,2.76,2.66,4.65,0,.08-.06.11-.12.1Z"/>
        <path d="m52.57,40.33c-.06-.56-.02-1.12-.09-1.69-.02-.18.24-.22.28-.04.13.58.22,1.18.04,1.75-.04.12-.22.09-.23-.03Z"/>
        <path d="m66.52,50.96c-.43.17-.97-.12-1.34-.35-.49-.29-.86-.7-1.15-1.18-.12-.2.23-.41.35-.22.25.41.57.75.98,1,.37.23.85.24,1.18.5.08.06.08.2-.03.24Z"/>
        <path d="m68.46,57.12c-.89-.13-2.09-.85-2.45-1.72-.38-.94.34-1.82.16-2.76-.02-.1.15-.16.18-.05.22.72-.06,1.35,0,2.06.1,1.07,1.56,1.52,2.25,2.19.11.1-.01.3-.15.28Z"/>
        <path d="m73.93,67.75c-.21-.11-.34-.32-.49-.5-.16-.2-.32-.41-.47-.62-.22-.29.22-.65.44-.36.15.21.31.42.46.63.13.19.3.39.35.62.03.14-.14.3-.28.22Z"/>
        <path d="m60.04,80.57c-2.22-.72-4.25-2.33-6.66-2.41-2.39-.08-3.96,2.17-6.08,2.96-.17.07-.29-.19-.12-.27,2.15-.99,3.43-3.22,6-3.26,2.37-.03,5.1,1.36,7.07,2.58.23.14.02.47-.21.39Z"/>
        <path d="m59.7,79.51c-.68-.41-1.24-.97-1.96-1.35-.79-.41-1.65-.71-2.53-.84-.22-.03-.19-.36.04-.35,1.68.14,3.8.78,4.7,2.34.09.16-.12.28-.25.2Z"/>
        <path d="m59.12,77.72c-.19-.04-.34-.16-.5-.27-.19-.12-.4-.2-.62-.26-.19-.05-.11-.37.08-.34.4.06,1.03.19,1.24.59.06.12-.06.3-.2.27Z"/>
        <path d="m71.23,82.68c-2.65-.19-4.95-.32-7.47.71-.21.08-.35-.23-.14-.32,2.3-1.02,5.25-1.61,7.69-.69.17.06.1.32-.07.3Z"/>
        <path d="m70.89,81.62c-.72-.17-1.33-.56-2.09-.66-.91-.11-1.74.05-2.6.33-.1.03-.2-.1-.1-.17,1.26-.87,3.88-1.11,4.93.25.07.09,0,.28-.13.24Z"/>
        <path d="m48.02,71.6c-1.37,1.23-3.07,2.24-4.74,3.02-1.26.59-2.74,1.29-4.04.48-.1-.06-.03-.24.08-.22,2.91.62,6.2-2.08,8.47-3.56.19-.13.41.12.23.28Z"/>
        <path d="m46.07,71.01c-.95,1.36-2.65,2.1-4.25,2.35-.11.02-.13-.14-.03-.17,1.59-.45,2.8-1.36,4.09-2.35.11-.09.26.05.18.17Z"/>
        <path d="m45.61,70.2c-.78.84-2.14,1.21-3.24,1.36-.15.02-.18-.2-.03-.23.58-.12,1.14-.3,1.68-.54.5-.23.94-.56,1.43-.79.12-.05.26.1.17.21Z"/>
        <path d="m49.23,72.29c-.61.85-1.69,1.43-2.59,1.91-.22.12-.37-.23-.15-.35.92-.52,1.67-1.26,2.57-1.79.13-.08.26.11.18.22Z"/>
        <path d="m36.19,65.29c-1.63,2.25-5.22,3.57-7.71,2-.15-.1-.01-.3.14-.26,1.44.39,2.83.48,4.25-.04,1.18-.43,2.09-1.2,3.1-1.9.13-.09.31.06.21.2Z"/>
        <path d="m34.3,67.27c-.11.03-.13-.14-.03-.17.69-.2,1.33-.5,1.93-.91.51-.34.91-.79,1.38-1.17.07-.06.16.03.11.11-.66,1.16-2.15,1.85-3.4,2.14Z"/>
        <path d="m38.35,66.68c-.21.25-.61-.04-.42-.29-.39.29-.83.52-1.19.69-.15.07-.24-.15-.1-.24.39-.24.75-.52,1.09-.83.3-.28.54-.65.88-.89.11-.08.25,0,.24.14.38-.46.77-.9,1.22-1.26.11-.09.32.03.24.17-.49.91-1.29,1.7-1.95,2.5Z"/>
        <path d="m20.32,45.08c-.45.76-1.01,1.43-1.38,2.24-.3.64-.39,1.39-.78,1.98-.1.14-.29.06-.33-.08-.37-1.44.94-3.7,2.08-4.53.27-.2.58.11.41.39Z"/>
        <path d="m56.02,47.01c-.96.89-2.19,1.57-3.28,2.29-.13.08-.28-.09-.15-.19,1.04-.81,2.08-1.77,3.25-2.4.18-.1.32.17.18.29Z"/>
        <path d="m55.87,47.86c-.92.75-1.92,1.37-2.79,2.2-.09.09-.25-.06-.16-.15.8-.86,1.72-1.78,2.8-2.29.15-.07.28.14.15.25Z"/>
        <path d="m55.19,49.17c-.37.27-.73.54-1.1.8-.15.11-.33-.11-.18-.22.38-.29.77-.58,1.15-.88.3-.23.6-.55.97-.64.1-.02.14.09.1.16-.2.34-.63.55-.94.77Z"/>
        <path d="m56.38,48.89c-.79.88-1.81,1.59-2.77,2.27-.16.11-.36-.12-.19-.24.96-.7,1.81-1.52,2.75-2.24.13-.1.33.07.22.2Z"/>
        <path d="m56.86,49.67c-.93.96-2.13,1.75-3.18,2.57-.12.09-.26-.08-.15-.18,1.02-.86,2.03-1.87,3.17-2.59.14-.09.27.08.16.19Z"/>
        <path d="m55.89,52.37c-.19.06-.37-.17-.19-.32.34-.28.61-.66.81-1.11-.49.57-1.07,1.06-1.62,1.57-.15.14-.35-.11-.2-.24.58-.54,1.13-1.12,1.77-1.58.05-.04.11-.01.15.03.47-1.21.5-2.77.12-3.8-.07-.18.19-.3.27-.12.65,1.44.75,4.94-1.11,5.57Z"/>
        <path d="m57.1,51.9c-.12.13-.29-.04-.17-.16.56-.59,1.11-1.34,1.76-1.83.07-.05.16.03.11.11-.44.69-1.15,1.29-1.7,1.88Z"/>
        <path d="m59.41,50.73c-.81.98-1.89,1.81-2.82,2.68-.14.14-.34-.1-.19-.24.92-.86,1.82-1.86,2.85-2.59.1-.07.25.05.16.15Z"/>
        <path d="m59.78,51.74c-.88,1.08-2.1,1.97-3.22,2.8-.16.12-.36-.12-.2-.24,1.14-.84,2.12-1.86,3.22-2.73.11-.09.29.06.19.18Z"/>
        <path d="m60.01,53.04c-.84.86-1.84,1.6-2.76,2.39-.14.12-.32-.1-.18-.22.91-.79,1.79-1.67,2.76-2.38.15-.11.3.09.18.22Z"/>
        <path d="m60.31,53.9c-.9.89-2.02,1.64-3.01,2.43-.17.13-.38-.12-.21-.26.99-.8,1.96-1.73,3.03-2.41.17-.11.34.1.19.24Z"/>
        <path d="m60.58,54.72c-.93.98-2.13,1.79-3.17,2.65-.17.14-.38-.12-.22-.26,1.04-.86,2.07-1.88,3.2-2.61.16-.1.31.09.18.22Z"/>
        <path d="m61.01,55.65c-.99.83-2.05,1.55-3,2.45-.14.14-.34-.1-.19-.24.92-.88,1.93-1.82,3.05-2.43.13-.07.25.13.14.22Z"/>
        <path d="m61.41,56.69c-1.07.78-2.14,1.49-3.13,2.39-.14.12-.31-.09-.18-.22.95-.9,1.98-1.82,3.11-2.48.18-.1.36.19.19.31Z"/>
        <path d="m61.68,57.67c-.32.26-.74.42-1.09.64-.36.23-.7.47-1.03.73-.18.14-.4-.13-.22-.27.37-.29.75-.57,1.14-.82.34-.21.69-.46,1.07-.57.16-.04.24.19.12.28Z"/>
        <path d="m62.43,58.38c-.31.17-.66.28-.98.44-.33.17-.65.38-.95.6-.24.18-.55-.18-.3-.37.61-.45,1.36-.95,2.11-1.11.26-.05.34.31.12.43Z"/>
        <path d="m63.08,59.08c-.47.37-1.06.63-1.58.91-.58.31-1.17.62-1.76.93-.22.12-.36-.23-.15-.35.55-.31,1.09-.63,1.64-.94.53-.3,1.08-.68,1.66-.88.2-.07.39.18.2.33Z"/>
        <path d="m63.11,61.32c-.21.1-.43.16-.65.18-.14.02-.18-.2-.03-.22.2-.02.39-.07.57-.16.17-.08.31-.24.48-.29.07-.02.17.04.13.12-.09.18-.32.29-.49.37Z"/>
        <path d="m67.21,78.93c-.13.18-.41-.02-.28-.2.42-.56.81-1.17,1.32-1.66.07-.06.19.02.15.11-.32.63-.78,1.18-1.19,1.75Z"/>
        <path d="m91.51,82.76c-.61,1.05-1.83,1.49-2.59,2.39-1.14,1.34-.97,3-.14,4.42.35.6-.58,1.1-1,.62-1.26-1.45-1.48-3.75-.53-5.42.6-1.05,1.8-1.45,2.44-2.38,1.19-1.74-1.4-3.44-2.42-4.5-1.71-1.78-4.2-3.7-4.84-6.2-.3-1.17,0-2.19.46-3.27.73-1.69,1-3.17,1.1-5.01.02-.32.45-.34.58-.09.59,1.11.7,2.26.47,3.49-.3,1.55-1.6,3.05-1.05,4.68.43,1.26,1.56,2.24,2.46,3.17,1.09,1.13,2.18,2.27,3.27,3.4,1.24,1.28,2.92,2.8,1.8,4.71Z"/>
        <path d="m88.54,80.97c-1.18,1.75-2.46,3.38-3.46,5.25-.05.1-.2.05-.16-.06.67-2,1.74-4.03,3.39-5.41.14-.12.34.07.23.22Z"/>
        <path d="m87.63,79.75c-.69.81-1.5,1.49-2.13,2.37-.7.98-1.18,2.05-1.59,3.18-.06.16-.34.11-.3-.07.4-2.18,1.74-4.72,3.8-5.75.16-.08.35.14.23.28Z"/>
        <path d="m87.08,78.92c-.63.74-1.48,1.25-2.14,1.97-.82.9-1.45,1.94-1.95,3.05-.09.2-.38.09-.32-.12.58-1.97,2.1-4.61,4.23-5.2.15-.04.28.18.18.29Z"/>
        <path d="m85.46,78.68c-.56.79-1.39,1.38-2.03,2.1-.66.74-1.23,1.53-1.77,2.35-.13.19-.47.02-.36-.2.84-1.61,2.21-3.78,3.95-4.52.15-.06.31.12.21.26Z"/>
        <path d="m84.94,77.61c-1,1.33-2.29,2.44-3.32,3.76-.12.16-.38-.02-.26-.18.97-1.31,2.03-2.82,3.39-3.76.12-.08.29.05.19.18Z"/>
        <path d="m80.56,80.32c-.12.11-.28-.09-.16-.2,1.19-1.09,2.35-2.32,3.66-3.27.07-.05.19.04.12.11-1.08,1.22-2.41,2.26-3.62,3.36Z"/>
        <path d="m80.79,78.56c-.11.11-.31-.07-.2-.19.9-.98,1.86-2.08,3.03-2.74.09-.05.21.09.14.17-.89,1-2.01,1.81-2.96,2.76Z"/>
        <path d="m83.37,75.04c-.67.7-1.49,1.25-2.2,1.91-.8.74-1.52,1.55-2.19,2.41-.12.16-.38-.02-.26-.18,1.19-1.57,2.73-3.46,4.55-4.29.1-.05.16.08.09.15Z"/>
        <path d="m78.03,78.4c-.1.11-.28-.07-.19-.17,1.45-1.59,2.97-3.33,4.76-4.54.08-.06.22.04.14.13-1.48,1.61-3.21,2.99-4.71,4.59Z"/>
        <path d="m81.72,72.95c-1.29,1.4-2.88,2.54-4.21,3.91-.17.17-.4-.12-.24-.29,1.27-1.34,2.66-2.9,4.29-3.81.11-.06.24.1.16.19Z"/>
        <path d="m81.77,71.29c-.71.88-1.75,1.5-2.6,2.24-.97.84-1.89,1.74-2.78,2.66-.14.15-.4-.09-.26-.25.81-.93,1.65-1.81,2.56-2.64.87-.8,1.81-1.77,2.92-2.21.12-.05.25.09.16.2Z"/>
        <path d="m81.84,69.59c-1.58,1.79-3.72,3.2-5.56,4.71-.2.17-.46-.15-.26-.31,1.82-1.54,3.6-3.39,5.64-4.61.12-.07.27.11.18.22Z"/>
        <path d="m81.82,68.71c-.15.22-.37.38-.59.54-.93.89-2.07,1.66-3.04,2.46-.22.18-.51-.16-.28-.35,1.08-.9,2.16-2.02,3.36-2.79.03-.02.07-.04.1-.06.09-.06.18-.12.28-.17.14-.08.3.11.22.24,0,.04,0,.09-.04.13Z"/>
        <path d="m32.1,48.92c-1.27-.09-2.42-.61-3.13-1.69-.88-1.34-1.05-3.13-2.52-4.04-.1-.06,0-.22.1-.18,1.02.42,1.52,1.14,1.95,2.13.27.62.46,1.26.84,1.82.71,1.04,1.72,1.29,2.84,1.66.17.06.09.3-.07.29Z"/>
        <path d="m33.56,24.66c-.42-.63-.75-1.29-1.03-1.98.18.65.33,1.31.41,1.97.01.12-.17.19-.21.06-.82-2.21-1.33-4.5-2.27-6.68-.05-.11.12-.18.17-.07.37.77.75,1.58,1.09,2.4-.64-2.03-1.21-4.09-2.56-5.79-.04-.05.03-.1.07-.06,2.48,2.78,3.11,6.69,4.49,10.05.04.09-.09.18-.15.09Z"/>
        <path d="m43.74,16.89c-1.67-3.35-3.27-6.65-6.56-8.7-.14-.09,0-.28.15-.2,3.39,1.84,5.46,5.22,6.67,8.79.06.17-.18.28-.26.11Z"/>
        <path d="m34.04,5.93c-1.46.96-2.13,2.27-1.63,4.01.07.26-.33.35-.44.13-.78-1.57.19-4.01,1.98-4.37.12-.02.21.16.1.23Z"/>
        <path d="m34.88,6.45c-1.09.58-1.87,1.36-1.94,2.66,0,.16-.25.13-.25-.03.02-1.24.83-2.63,2.11-2.91.17-.04.22.21.08.28Z"/>
        <path d="m43.51,2.6c-.84.56-1.46,1.37-1.62,2.38-.02.13-.22.11-.21-.02.14-1.09.74-2.03,1.76-2.46.06-.03.13.06.06.1Z"/>
        <path d="m50.58,23.6c-.13.26-.49.12-.42-.16.95-3.78,1.08-6.84-.57-10.47-1.42-3.14-3.01-6.21-4.23-9.43-.05-.14.14-.22.21-.09,1.95,3.44,3.87,7.18,5.23,10.9,1.06,2.89,1.18,6.46-.23,9.26Z"/>
        <path d="m51.11,23.92c-.1.17-.33.01-.28-.15.37-1.24.86-2.42,1.16-3.69.04-.17.31-.15.28.03-.18,1.3-.48,2.67-1.16,3.81Z"/>
        <path d="m58.19,36.7c-.13.18-.39-.02-.28-.2,2.01-3.12,1.66-6.56.08-9.75-.06-.12.11-.21.2-.12,2.54,2.77,2.16,7.22,0,10.07Z"/>
        <path d="m57.58,33.21c-.06.11-.25,0-.2-.11.94-2.05.4-4.15-.94-5.86-.09-.11.06-.28.17-.19,1.87,1.44,2.08,4.2.96,6.16Z"/>
        <path d="m67.48,70.46c-.88-1.88-1.28-4.12-1.66-6.15-.03-.17.22-.2.26-.04.5,2.04,1.27,4.05,1.69,6.1.04.17-.22.24-.29.09Z"/>
        <path d="m68.08,75.27c-.74-.5-1.21-1.42-1.86-2.03-.15-.14.03-.4.19-.26.67.6,1.62,1.19,1.99,2.04.08.19-.14.37-.31.25Z"/>
        <path d="m66.86,79.95c-1.38-.12-2.75-.68-3.95.35-.15.13-.41-.09-.26-.25,1.09-1.2,2.92-1.11,4.31-.48.2.09.14.4-.09.38Z"/>
        <path d="m47.11,42.46c-3.01-3.11-6.24-6.9-10.55-8.21-.17-.05-.11-.34.08-.31,2.12.37,4.05,1.87,5.7,3.19,1.83,1.46,3.67,3.23,4.91,5.22.06.1-.06.2-.14.12Z"/>
        <path d="m45.27,42.93c-2.06-1.86-3.86-3.78-6.39-5.05-.26-.13-.1-.55.16-.43,2.5,1.21,5.05,2.8,6.46,5.28.08.14-.13.3-.24.2Z"/>
      </g>
      <path d="m15.03,63.95c-2.47-1.21-5.87.07-8.54-.12-1.42-.1-3.81-.39-3.33-2.69.31-1.5,2.07-2.11,3.3-2.54,1.21-.43,2.5-.47,3.32-1.51.04-.05,0-.11-.05-.13-1.7-.59-4.77.68-6.2,1.74-1.4,1.04-2.3,3.08-1.23,4.68,1.08,1.62,3.62,1.76,5.36,1.75,1.19,0,2.38-.15,3.57-.23,1.22-.08,2.48.09,3.67-.13.36-.07.45-.65.11-.81Z"/>
      <path d="m23.39,70.58c-1.49.04-2.56.93-3.6,1.92-1.91,1.81-3.47,3.65-6.37,3.37-1.49-.14-4.2-.77-3.84-2.98.19-1.16,1.45-2.04,2.25-2.77,1.2-1.1,2.52-2.51,2.86-4.15.04-.19-.17-.31-.31-.18-1.14.96-2,2.25-3.13,3.26-.97.86-2.09,1.64-2.63,2.86-.82,1.83,0,3.5,1.7,4.43,1.83,1,4.38,1.22,6.32.42,1.24-.51,2.22-1.47,3.16-2.39,1.19-1.17,2.38-2.06,3.83-2.89.41-.23.25-.91-.24-.89Z"/>
    </g>
  </g>
</svg>