
<svg id="Layer_2" data-name="Layer 2" xmlns="http://www.w3.org/2000/svg" viewBox="0 0 73.58 78.89">
  <g id="objects">
    <g>
      <g>
        <g>
          <path d="m29.85,63.9c-.13.77-.21,1.56-.26,2.34.08-.79.17-1.58.26-2.34Z"/>
          <path d="m37.1,10.9c-.38.08-.41,2.05-.29,2.06,6.77.5,14.93,8.06,15.53,14.64.52,5.67-3.13,9.85-6.78,13.18-2.78,2.53-5.89,4.74-8.5,7.44-4.09,4.22-6.4,8.88-7.12,14.94-.03.25-.06.5-.09.75.88-5.42,3.62-10.37,7.38-13.63,5.18-4.49,11.64-8.24,14.36-14.8,1.57-3.76,2.32-8.62.75-13.01-1.89-5.27-9.4-12.76-15.24-11.56Z"/>
          <path d="m31.5,77.7s.22-.52.13-.7c-1.65-3.49-2.26-7.19-2.04-10.76-.36,3.78-.34,7.81,1.91,11.46Z"/>
        </g>
        <path d="m25.01,76.62c-2.26-6.8-2.48-13.15-2.1-19.77.27-4.75-.32-8.97-2.1-13.8-1.13-3.07-2.34-6.11-2.68-9.26-.52-4.87.81-9.76,2.64-13.91,1.28-2.91,3.19-5.62,6.37-6.78,2.22-.81,4.58-.48,7.06-.27.28.02.52-1.74.27-1.91-6.65-4.65-12.28,3.26-14.02,7.68-1.91,4.86-3.28,10.37-2.89,15.96.04.54.11,1.08.19,1.61.26,1.05.51,2.11.73,3.17.49,1.67,1.12,3.32,1.77,5,1.88,4.81,2.54,9.02,2.25,13.8-.39,6.48-.04,12.82,2.32,19.46-.03-.09.29-.69.19-.99Z"/>
        <path d="m48.11,16.14c-.16.07-.35,1.18-.17,1.24,2.95,1.01,6.02.9,9.03,1.93,2.81.96,5.62,2.4,8.06,4.22,2.93,2.19,5.42,5.06,6.91,8.25,2.34,5.03.69,9.89-2.84,12.85-4.59,3.85-11.4,4.35-17.81,4.17-5.82-.16-12.32-.79-16.45,2.96-.15.14-.12,1.16-.14,1.16,3.59-1.12,7-1.58,11.01-1.46,3.86.12,7.77.49,11.52.06,7.07-.8,13.47-4.2,15.6-10.76,1.62-4.97.66-10.36-3.21-15.22-4.69-5.88-14.63-12.24-21.5-9.42Z"/>
        <path d="m33.01,1.52c.29,1.68.79,3.36,1.07,5.05.16,1,.26,1.99.34,2.98-.34-.71-.7-1.41-1.09-2.11-.23-.76-.5-1.51-.86-2.26-.48-.99-1.07-1.95-1.77-2.84-.48-.61-1.3-1.22-1.83-1.84,0-.12-.02-.23-.06-.27-.07-.15-.17-.23-.3-.23-.28-.05-.33,1.4-.27,1.6.17.52.66.92,1.03,1.36.89,1.02,1.69,2.08,2.36,3.23,1.11,1.92,1.71,3.86,2.07,5.9.04.21.26-.71.25-.88-.03-.8-.14-1.59-.29-2.39.37.92.68,1.86.92,2.82,0,0,.25-.74.26-.91.09-1.74-.02-3.52-.28-5.3-.23-1.59-.41-3.63-1.28-5.14-.03-.05-.3,1.01-.27,1.22Z"/>
        <path d="m36.77,1.79c-.13.32-.16.77-.15,1.13.12,2.84.22,5.62.03,8.41-.05.76.18.41.24-.11.31-2.54.49-5.22.28-7.9.01-.06.02-.12.01-.16-.02-.08-.03-.17-.04-.25-.04-.43-.09-.86-.15-1.28-.03-.34-.2.11-.22.17Z"/>
        <path d="m39.53,4.77c-.06-.02-.12.18-.12.19-.63,1.79-.86,3.77-.87,5.75,0,.35.08.21.19.06.18-.24.16-.81.16-1.12.01-1.56.49-2.91.71-4.4,0-.04.07-.44-.01-.46-.02,0-.04-.01-.05-.02Z"/>
        <path d="m41.15,5.47c-.02.68-.04,1.36-.05,2.04,0,.13.04-.06.05-.09.02-.67.03-1.35.05-2.02,0-.11-.04.05-.04.08Z"/>
        <path d="m20.53,47.94c.31.5.62,1,.93,1.5,0,0,.21-.53.13-.7-.5-1.21-1.07-2.41-1.68-3.6.27.92.48,1.85.61,2.8Z"/>
        <path d="m1.78,19.95c-.31-.76-.54-1.53-.67-2.33C-.04,10.45,7.35,6.57,13.71,6.63c5.57.05,10.45,2.59,15.78,4.69.1.04.35-1.06.17-1.19C19.71,2.86,3.05,2.32.83,14.35c-.39,2.1-.18,4.06.47,5.94.15-.12.31-.24.47-.34Z"/>
        <path d="m8.85,8.99s-.01.07,0,.07c4.08.15,7.96.64,12.05,1.82.01,0,.04-.12.02-.13-3.88-1.75-8.16-1.69-12.06-1.77Z"/>
        <path d="m10.15,7.77c-.06,0-.04.27-.04.27,3.32-.05,6.46,1.04,9.78,1.79.04,0,.09-.32.05-.33-3.17-1.13-6.63-1.85-9.79-1.72Z"/>
        <path d="m40.2,15.3s-.14.44-.07.48c3.27,1.94,6.68,3.43,8.64,6.86,2.25,3.95,2.08,8.56.2,11.9-1.53,2.73-4.16,4.38-6.54,6.34-2.5,2.06-4.81,4.3-6.91,6.75-.04.05-.01.23-.02.24,2.92-2.91,6.02-5.6,9.33-8.11,2.69-2.04,4.64-4.51,5.4-7.9.58-2.54.56-5.37-.42-8.09-1.52-4.23-5.4-6.94-9.62-8.46Z"/>
        <path d="m44.21,20.22c4.98,4.54,4.57,10.68,1.61,15.01-2.44,3.57-6.05,6.2-8.92,9.42-.04.04,0,.21-.02.22,3.99-4.16,9.36-7.46,10.98-13.38,1.03-3.78.31-8.75-3.58-11.78,0,0-.18.43-.07.52Z"/>
        <path d="m23.3,18.97c-1.39,2.11-2.16,4.74-2.66,7.29-1.03,5.25-.6,10.88,1.33,16.41-.01-.03.09-.2.06-.29-1.92-5.73-2.38-11.68-1.06-17.03.64-2.6,1.58-5.52,3.65-7.23,2.05-1.69,5.12-1.99,7.5-3.2.08-.04.06-.49.06-.49-3.29.53-7.13,1.89-8.87,4.54Z"/>
        <path d="m22,34.25c-.16,2.45.21,5.22,1.51,7.63,0,0,.09-.22.06-.29-.98-2.52-1.61-4.91-1.51-7.44,0-.14-.05.06-.05.1Z"/>
        <path d="m23.29,36.14c.12,2.7.72,5.43,1.66,8.12-.01-.03.1-.24.07-.34-.9-2.69-1.4-5.36-1.65-8.05,0-.06-.08.21-.08.27Z"/>
        <path d="m25.22,38.57c.08,1.63.39,3.29.81,4.93,0-.03.07-.18.05-.27-.4-1.64-.61-3.25-.79-4.88,0-.05-.07.18-.06.23Z"/>
        <path d="m27.05,41.35s0-.06,0-.06c-.01.01,0,.06,0,.06Z"/>
        <path d="m27.73,39.41c.08,1.42.22,2.84.3,4.26,0,.14.08-.18.07-.23-.03-1.42-.06-2.88-.29-4.33-.01-.07-.09.24-.08.3Z"/>
        <path d="m29.44,42.46s0-.06,0-.06c-.01.01,0,.06,0,.06Z"/>
        <path d="m30.28,44.55s0-.06,0-.06c-.01.01,0,.06,0,.06Z"/>
        <path d="m43.21,24.4c2.39,5.13.08,10.8-2.97,14.28-2.22,2.54-5.01,4.63-6.23,7.91-.01.04-.02.23,0,.2,2.1-4.71,7.03-7.2,8.98-12.06,1.16-2.9,2.21-7.31.28-10.63,0,0-.1.23-.06.31Z"/>
        <path d="m40.03,16.76s-.08.24-.04.29c1.91,2.08,3.87,3.99,5.02,6.52,1.38,3.04.8,5.99.61,8.93-.01.18.06-.05.06-.1.23-2.66.82-5.51-.09-8.31-.88-2.68-3.03-5.67-5.56-7.34Z"/>
        <path d="m38.14,17.17c1.28,1.15,2.58,2.46,3.05,4.05,0-.02.06-.15.04-.2-.35-1.71-1.7-2.88-3.06-4.04,0,0-.07.15-.03.19Z"/>
        <path d="m28.4,14.67c-1.5.3-3.08.52-3.95,1.73-.03.04,0,.18-.02.19.96-1.11,2.86-1.24,4.37-1.5,1.44-.24,2.9-.26,4.39-.32.07,0,.09-.39.06-.4-1.66-.34-3.32,0-4.85.3Z"/>
        <path d="m56.51,20.72s-.17.49-.08.53c8.36,4.27,12.24,14.3,6.64,20.4-2.39,2.61-5.74,3.3-9.39,3.86-4.04.62-8.01,1.47-11.77,2.76-.03.01-.01.14-.02.14,4.89-1.09,9.87-1.83,14.81-2.79,4.02-.78,7.12-3.25,8.48-6.89,2.34-6.26-1.35-14.67-8.67-18Z"/>
        <path d="m62.45,22.43s-.03.05-.05.13c-1.63-1.25-3.49-2.17-5.51-2.58-.05,0-.1.34-.05.36,2.96,1.31,5.55,2.77,7.8,5.22,2.48,2.7,4.22,6.18,4.28,9.5.08,3.92-1.85,7.41-4.96,9.43-2.67,1.74-6.31,2.16-9.74,2.13,0,0,0,.03,0,.03,4.17.14,7.99-.06,10.94-2.6,2.19-1.89,3.52-4.61,3.84-7.6.43-4.05-1.52-8.92-4.89-12.36,1.81,1.4,3.37,3,4.45,5.04,1.26,2.37,1.88,5.23,1.92,7.69.07,3.63-2.18,6.14-4.87,8-2.1,1.45-4.43,2.77-7.24,2.93-.03,0-.02.13-.02.13,3.32.06,6.2-1.59,8.47-3.46,1.94-1.6,3.39-3.68,3.72-6.31.66-5.39-1.95-12.96-8.09-15.67Z"/>
        <path d="m50.8,19.11s-.14.44-.07.49c2.81,1.55,5.48,3,7.73,5.37,2.07,2.19,3.57,4.78,4.1,7.51,1.4,7.2-5.58,11.2-11.62,12.57-.04,0-.02.17-.02.17,5.78-.91,11.62-4.27,11.99-10.38.4-6.51-5.32-13.5-12.12-15.73Z"/>
        <path d="m51.8,21.46c-.05-.02-.14.45-.07.49,3.28,1.6,6,5,7.53,8.14,1.48,3.03.58,6.22-.99,8.54-.92,1.36-2.11,2.5-3.49,3.43-.04.03-.02.22-.02.22,3.17-1.96,5.59-5.4,5.51-9.42-.04-2.07-1.02-4.02-2.33-5.85-1.57-2.21-3.43-4.7-6.14-5.53Z"/>
        <path d="m52.83,19.62s0-.06,0-.06c-.01.01,0,.06,0,.06Z"/>
        <path d="m53.09,26.09c1.65,2.03,2.98,3.99,3.51,6.42.92,4.26-1.28,6.97-3.8,9.56-.04.04-.01.19-.02.2,2.27-2.09,4.05-4.3,4.17-7.63.1-2.94-1.05-6.74-3.79-8.91,0,0-.11.3-.06.36Z"/>
        <path d="m49.98,18.93s0,.12-.01.13c1.91-.78,4.52,1.02,6.41,1.88.02,0,.08-.24.04-.27-1.55-1.19-4.92-2.99-6.44-1.73Z"/>
        <path d="m40.86,14.23c-1.38-.6-2.77-.67-4.15-.64-.04,0-.04.2-.03.21,1.4.16,2.75.27,4.11.89,1.34.61,2.57,1.51,3.91,2.15.02,0,.1-.29.05-.32-1.2-.84-2.56-1.71-3.89-2.29Z"/>
        <path d="m39.24,11.35c0-1.1.4-2.25.58-3.31l.64-3.61c.01-.06.03-.69-.06-.39-.67,2.25-1.18,4.64-2.04,6.8-.51,1.29-.18-.56-.12-1.16.06-.58.18-1.15.27-1.72.09-.59.19-1.18.28-1.77.08-.3.13-.58.13-.81.05-.29.09-.57.14-.86.04-.27-.02-.57-.11-.13-.49,2.28-.85,4.67-1.55,6.88-.47,1.5-.14-.21-.11-.61.04-.62.09-1.24.13-1.86.09-1.24.18-2.48.27-3.72.02-.31-.06-.33-.12-.04l-.6,2.85-.3,1.43c-.05.25-.06.9-.17.72-.33-.55-.04-1.99-.07-2.59-.05-.89-.12-1.78-.21-2.67-.02-.16-.14.32-.14.36-.07.64-.13,1.28-.16,1.92-.04-.4-.07-.81-.07-1.19,0-.29-.08-.12-.12.05-.23,1.1-.36,2.21-.34,3.37,0,.52-.06,1.37.16,1.89,0,.01,0,.01,0,.02.01.11.02.21.04.32-.31-.12-.63-.23-.94-.35-.06-.02-.21.63-.1.68.14.07.29.14.43.21-.27-.07-.54-.15-.81-.24,0,0-.01.02-.02.03-.24-.4-.48-.79-.73-1.18-.22-.46-.57-.93-.81-1.38-.03-.06-.16-.26-.3-.5.22.25.44.47.57.62,0,0,.2-.41.1-.53-.47-.58-.94-1.16-1.41-1.74-.01-.02-.15.42-.1.53.07.17.16.33.24.5-1.31-1.78-2.77-3.46-4.37-5.07.01.01-.14.42-.09.52.86,1.46,1.73,2.91,2.61,4.36-1.35-1.58-2.7-3.16-4.04-4.74.04.05-.22.48-.1.62,1.46,1.83,2.76,3.74,4.1,5.64,0,0,.14-.31.08-.41-.22-.38-.45-.76-.69-1.13.73.86,1.46,1.72,2.2,2.57-.03-.04.19-.48.1-.62-1.03-1.69-2.05-3.37-3.09-5.06,1.77,1.91,3.37,3.95,4.75,6.11.29.49.58.97.89,1.45,0,0,.05-.11.08-.24,1.1.42,2.21.77,3.33,1.05.08.02.19-.61.09-.66-.1-.05-.21-.1-.31-.15.29-.76.43-1.6.61-2.41.18-.85.37-1.7.55-2.56.02-.09.05-.2.09-.32-.13.84-.27,1.68-.4,2.52-.14.96-.24,1.9-.16,2.91,0,.12.07,0,.09-.04.62-2.06,1.43-4.13,1.96-6.25-.09.51-.18,1.02-.27,1.54-.25,1.41-.5,2.81-.74,4.22-.01.06-.05.59.03.45,1.21-2.17,2.13-4.47,2.72-6.94.03-.12.05-.78-.05-.37-.37,1.43-.81,2.82-1.39,4.15-.18.43-.39.85-.59,1.27-.12.25-.25.5-.39.75-.15.43-.17.44-.08.03Zm-3.63-1.45c-.04-.37-.07-.73-.07-1.1,0-.72.04-1.42.15-2.1,0,.12,0,.23,0,.35.14,1.16.15,2.29.3,3.46-.11-.24-.23-.48-.34-.71,0-.01-.03.03-.05.1Zm.21,1.48c-.03-.14-.04-.28-.06-.41.01,0,.01,0,.03,0,.05,0,.22.37.39.76-.12-.04-.25-.09-.37-.14.01-.08.02-.16.01-.2Zm1.2.91c-.12-.06-.24-.12-.36-.18,0-.1,0-.18,0-.21-.19-.41-.39-.81-.58-1.22.05-.14.1-.4.09-.49-.05-.48-.08-.95-.1-1.43,0-.06,0-.12-.01-.17-.02-.52-.03-1.04-.01-1.56.02-.62.06-2.35.1-.82.04,1.62.19,3.25.19,4.86,0,.26.11-.06.12-.13.2-.95.4-1.9.6-2.85.12-.57.26-1.14.36-1.71.03-.19.11-1.03.05-.24-.15,2.05-.3,4.11-.45,6.16Z"/>
        <path d="m21.39,42.64c.32,1.38.84,2.74,1.48,4.07,0-.02.09-.21.06-.29-.59-1.32-1.04-2.64-1.49-3.99,0,.02-.06.16-.05.21Z"/>
        <path d="m23.04,43.55c.41,1.61.88,3.24,1.42,4.84,0-.01.03-.09.02-.13-.41-1.64-.86-3.3-1.41-4.93,0,.02-.06.16-.04.22Z"/>
        <path d="m24.06,43.41c.3,1.22.64,2.43.98,3.64,0-.02.04-.09.03-.14-.31-1.22-.62-2.44-.98-3.65,0,.01-.04.1-.03.14Z"/>
        <path d="m25.19,42.56c.31,1.28.64,2.56.89,3.85,0,.05.09-.23.08-.31-.24-1.25-.5-2.52-.93-3.75,0,.02-.05.15-.04.21Z"/>
        <path d="m27.02,41.47c.21,2.03.5,4.06.77,6.09,0,.03.06-.15.05-.2-.25-2.01-.47-4.02-.78-6.04,0-.02-.04.11-.04.15Z"/>
        <path d="m29.16,42.3c.19,1.48.29,2.92.17,4.36-.01.15.04.03.04-.05.13-1.46.12-2.99-.17-4.51,0-.03-.06.15-.05.2Z"/>
        <path d="m30.82,42.24c-.13,1-.24,2.02-.35,3.03-.03.31.07.05.09-.09.11-.99.23-1.97.32-2.96.02-.18-.04-.1-.06.03Z"/>
        <path d="m31.71,45.29s0-.06,0-.06c-.01.01,0,.06,0,.06Z"/>
        <path d="m33.79,42.02c-.68,1.82-1.15,3.75-1.54,5.69-.01.06,0,.33.03.14.43-1.91.97-3.77,1.51-5.64.01-.04.03-.3,0-.2Z"/>
        <path d="m34.35,43.85c-.48,1.29-.8,2.65-1.09,4.02-.03.15,0,.47.06.15.29-1.33.66-2.62,1.04-3.92.01-.04.04-.37,0-.24Z"/>
        <path d="m34.45,48.36c-.02.08-.03.49.03.24.28-1.21.71-2.34,1.13-3.49.02-.04.02-.27,0-.23-.57,1.06-.89,2.29-1.17,3.49Z"/>
        <path d="m35.69,47.93s0-.06,0-.06c-.01.01,0,.06,0,.06Z"/>
        <path d="m30.32,77.8s.09-.22.06-.32c-1.58-5.32-1.77-10.64-.63-15.6,1.08-4.7,3.32-8.66,5.76-12.63.08-.12.01-.54.04-.57-5.83,7.55-8.57,18.71-5.23,29.13Z"/>
        <path d="m33.95,48.23c-.65,2.94-2.58,5.31-3.65,8.06-.85,2.22-1.46,4.55-1.81,6.97-.7,4.79-.43,9.91,1.01,14.94-.01-.04.1-.27.07-.39-1.49-5.92-1.77-11.8-.43-17.29.6-2.45,1.51-4.76,2.68-6.93.91-1.68,1.87-3.26,2.16-5.24.01-.08,0-.32-.05-.12Z"/>
        <path d="m32.75,47.78c-.13,3.44-2.35,5.97-3.13,9.14-.02.08-.03.49.03.24.83-3.28,3.33-5.9,3.16-9.55,0-.13-.06.14-.06.17Z"/>
        <path d="m29.55,52.56c-.06.07-.01.3-.03.33.07-.09.14-.19.2-.29.03-.04.01-.24.02-.24-.07.06-.13.13-.19.2Z"/>
        <path d="m29.08,13.62c-.05,0-.03.23-.03.23,1.13-.16,2.28-.19,3.46-.11,1.19.09,2.39.47,3.57.58.03,0,.06-.21.03-.23-2.14-1.04-4.99-.84-7.02-.47Z"/>
        <path d="m15.64,10.78c-1.54-.33-3.06-.68-4.56-.53-.04,0-.03.19-.03.19,3.22-.27,6.88,1.24,10.18,1.71.01,0,.02-.08.01-.08-1.86-.53-3.73-.89-5.6-1.29Z"/>
        <path d="m15.47,11.85s-.04.22-.03.22c1.51.16,2.97.56,4.47.85.03,0,.05-.19.03-.2-1.43-.55-3.02-.73-4.47-.87Z"/>
        <path d="m14.18,6.74s-.07.29-.04.29c1.68.29,3.35.67,5.02,1.13,1.66.46,3.31,1.16,4.98,1.53.02,0,.06-.19.03-.2-3.02-1.62-6.78-2.24-9.98-2.76Z"/>
        <path d="m2.62,19.15s.07-.18.06-.24c-.39-4.05.97-7.3,3.55-9.92.03-.03.01-.18.02-.19-2.91,2.4-4.09,6.35-3.63,10.34Z"/>
        <path d="m22.82,11.34c-.25-.04-.48-.14-.7-.28,0,0-.13.32-.05.37.46.29,1.05.45,1.42.15.02-.01.05-.17.02-.18-.24-.07-.45-.02-.69-.06Z"/>
        <path d="m30.78,77.13c.14.24.28.48.42.72-.57-.22-1.09-.51-1.62-.92-.02-.01-.08.24-.12.46-.28.15-.76-.37-.97-.51-.37-.25-.66-.36-1.07-.38-.09,0-.13.24-.14.45-.33-.15-1.15-.66-1.23-.71-.08-.05-.14.64-.13.7-.18-.03-.34-.11-.48-.24-.01,0-.19.51-.09.6l.54.47s.08-.16.08-.16c.05-.18.07-.36.09-.54.42.27.85.54,1.27.8.04.02.08-.17.09-.18.03-.14.06-.27.07-.4.52.08.76.38,1.25.68.35.21.57.32.8.04.04-.05.06-.11.09-.17.68.51,1.37.84,2.18,1.04.12.03.19-.69.13-.79-.34-.59-.68-1.17-1.02-1.76.02.03-.28.57-.15.79Z"/>
        <path d="m22.43,47.35c1.25,4.44,1.32,8.52,1.23,12.88-.06,3.34-.03,6.71.96,10.13,0-.01.03-.07.02-.1-1.28-4.42-.93-8.71-.84-13.01.07-3.19.14-6.86-1.34-10.08,0,0-.05.14-.04.19Z"/>
        <path d="m23.45,48.16c.24.81.59,1.6.82,2.41.25.91.4,1.82.47,2.73,0,.1.05-.12.05-.16-.04-.86-.14-1.73-.34-2.6-.19-.84-.41-1.9-.94-2.65,0,0-.07.22-.05.28Z"/>
        <path d="m24.67,46.32s0-.06,0-.06c-.01.01,0,.06,0,.06Z"/>
        <path d="m22.72,16.67c-1.36,2.04-2.35,4.42-2.94,6.87-1.2,4.98-.14,10.69.34,15.98,0,.02.04-.12.04-.16-.44-5.68-1.64-11.79.08-16.99.74-2.22,1.77-4.49,3.3-6.21.74-.83,1.63-1.54,2.72-1.94.97-.35,2-.3,3.03-.45.06,0,.1-.35.05-.37-2.8-1.15-5.47,1.52-6.63,3.27Z"/>
        <path d="m8.86,7.98c-.06,0-.06.29-.04.29.47.03.97-.03,1.31-.3.03-.03.02-.23.03-.23-.44.13-.79.27-1.29.23Z"/>
        <path d="m20.87,10.13c-.08,0-.06.37-.05.37,1.23-.01,2.37.36,3.59.7.05.01.12-.4.06-.43-1.13-.57-2.45-.66-3.6-.63Z"/>
        <path d="m41.53,47.61c-.11-.57-.11-1.13.08-1.72.04-.11.04-.67,0-.58-.19.5-.31,1.02-.35,1.55-.1-.38-.19-.77-.25-1.18,0-.06-.04-.07-.06-.02-.17.33-.23.64-.23.95-.02.02-.03.04-.05.06,0-.08,0-.15,0-.23.02-.41-.13.1-.14.23,0,.06,0,.11,0,.17-.02.03-.04.05-.06.08-.07-.12-.14-.23-.21-.35-.03-.06-.07.06-.07.07-.04.11-.09.21-.13.31-.02-.04-.05-.08-.07-.12,0-.01-.06.17-.1.34,0,0,0-.02-.01-.02,0,0-.06.17-.1.35-.16.26-.34.5-.56.73-.07.08-.07.42-.07.59-.01.02-.03.04-.04.06-.19-.2-.36-.41-.55-.68,0,0-.18.39-.1.52.01.02.02.03.03.05-.03,0-.05-.02-.07-.02-.05-.01-.09.17-.11.35-.08-.04-.16-.07-.26-.11-.06-.02-.21.63-.1.7.12.08.24.15.37.23-.12.12-.24.24-.38.36-.12.1-.06.5-.06.63v.04c.13-.11.27-.24.4-.38.08-.08.15-.16.22-.24.06-.06.11-.13.17-.19.03.02.06.03.08.05.02,0,.03-.02.05-.07.12.09.25.18.39.3,0,0,.08-.2.12-.39.19.12.38.24.57.35.03.02.09-.25.12-.47.01.01.03.02.04.03,0,0,.02-.06.05-.15.17.17.35.34.54.5-.01,0,.07-.19.11-.37.42.29.85.58,1.3.84.01,0,.08-.19.12-.38.1.04.2.08.3.12.06.02.18-.49.13-.65,0-.05,0-.08-.02-.11.28.15.57.29.83.4.05.02.22-.66.1-.72-.03-.01-.06-.03-.09-.05,0-.12,0-.21-.03-.22-.23-.06-.46-.13-.68-.21-.49-.36-.89-.81-1.16-1.32Z"/>
        <path d="m19.1,42.79c.46,1.09.83,2.21,1.1,3.35.72,2.07,2.26,4.12,2.11,6.18-.03.49.12.09.14-.15.04-.47,0-.92-.08-1.36,0,0,0,0,0,0,.04-.14.17-.43.11-.59-.1-.28-.2-.55-.3-.83.09.15.17.29.26.44,0-.01.2-.46.12-.62-.34-.69-.67-1.39-1.01-2.08,0-.03,0-.05-.01-.07-.04-.1-.08-.2-.12-.3.03-.1.04-.19,0-.24-.07-.08-.14-.17-.2-.25-.04-.11-.09-.22-.13-.32,0-.05,0-.1-.02-.14-.03-.04-.05-.08-.08-.11-.19-.45-.37-.9-.56-1.36.04-.16.08-.37.07-.43,0-.01,0-.02,0-.04h0s0,0,0,0c-.15-.67-.36-1.27-.69-1.89.01-.01.02-.02.03-.03.07-.09.09-.67.06-.65-.37.2-.71.19-1.03.07.09.48.19.96.26,1.45Z"/>
        <path d="m36.4,15.42c-.07,0-.07.36-.05.36.55.06,1.09.14,1.62.35.53.21,1,.53,1.51.78.03.01.07-.25.04-.29-.75-.9-2.08-1.31-3.12-1.2Z"/>
        <path d="m34.35,12.94s-.07.26-.04.26c.99.28,1.96.62,2.93.98.02,0,.06-.17.03-.19-.95-.45-1.93-.78-2.92-1.06Z"/>
        <path d="m53.88,16.58c-.01-.24-.06-.43-.14-.49-.55-.41-1.13-.16-1.62.3,0,0,0-.01,0-.02.01-.09.02-.17.04-.26-.38.13-.75.24-1.1.35-.28.06-.58.1-.88.12-.33,0-.61.04-.82.19-.09-.11-.18-.21-.28-.32.06.06-.53,1.43-.3,1.79.09.13.16.26.24.39.1.39.27.77.48,1.16.15.66.43,1.32.87,1.98.03.04.1-.2.18-.51.07.16.14.31.21.46.01.05.03.11.04.16,0,0,0-.03,0-.06.02.03.03.07.05.1,0-.05.02-.09.03-.14.1-.36.46-1.31.33-1.72-.03-.09-.04-.19-.03-.29.27-.53.87-.85,1.51-1.02,1.83-.09,4.4.45,5.29.52.24.02.46-1.55.24-1.69-1.2-.73-2.84-1.08-4.34-1.01Z"/>
        <path d="m31.61,63.89c-.93,4.22-1.57,8.89.27,13.44-.01-.03.14-.36.1-.5-1.59-5.54-.83-10.58.55-15.58.62-2.24,1.22-4.63,2.57-6.49,1.04-1.44,2.61-2.29,3.92-3.47.15-.13.36-1.71.2-1.72-5.33-.18-6.79,10.59-7.61,14.31Z"/>
      </g>
      <path d="m27.12,76.43c-4.59-5.51-2.16-12.89-1.69-19.29.24-3.37-.05-6.82-1.96-9.72-2.14-3.25-5.67-5.22-8.9-7.22-6.04-3.74-11.34-8.88-13.07-16.02C0,17.93,1.92,10.86,7.06,6.92c.03.03.05.06.08.1.01.01.09-.03.08-.04l-.09-.12c.4-.31.82-.6,1.27-.87.26-.16-.37.05-.44.09-.33.19-.65.4-.96.6l-.03-.04s-.1.04-.09.04l.05.05C-1.59,12.59-1.85,24.52,3.94,32.55c3.71,5.16,9.12,7.65,14.09,11.32,2.48,1.83,4.61,4.12,5.53,7.12.76,2.48.71,5.12.46,7.67-.6,6.1-2.58,13.12,1.77,18.35.18.22,1.36-.55,1.33-.58Z"/>
    </g>
  </g>
</svg>