<?xml version="1.0" encoding="UTF-8"?>
<svg id="Layer_2" data-name="Layer 2" xmlns="http://www.w3.org/2000/svg" viewBox="0 0 52.58 56.25">
  <g id="objects">
    <g>
      <path d="m9.04,44.86c-4.2-3.81-6.74-8.99-6.64-14.7,0-.03-.05-.04-.05,0-.5,5.67,1.89,11.51,6.56,14.85.09.06.21-.07.13-.15Z"/>
      <path d="m10.06,42.83c-3.12-3.13-4.96-6.81-4.82-11.31,0-.07-.09-.07-.1,0-.62,4.25,1.11,9.05,4.76,11.5.11.08.27-.08.16-.19Z"/>
      <path d="m13.2,42.85c-2.51-2.85-4.54-5.58-5.16-9.44-.01-.07-.12-.05-.11.02.3,3.59,1.94,7.6,5.12,9.58.11.07.24-.07.15-.17Z"/>
      <path d="m19.85,47c-3.14.43-6.19-.2-8.76-2.1-.15-.11-.36.12-.22.25.51.47,1.06.88,1.63,1.23-3.59-.89-6.95-2.39-9.38-5.3-.04-.05-.12.02-.08.07,2.36,3.14,5.79,5.52,9.85,5.52.03,0,.05-.01.06-.03,2.11,1.12,4.56,1.41,6.94.61.15-.05.11-.27-.05-.24Z"/>
      <path d="m21.53,43.6c-2.04,2.08-5.43,2.65-7.87.88-.08-.06-.2.07-.12.14,2.39,2.12,6.35,1.92,8.14-.89.06-.09-.07-.21-.15-.13Z"/>
      <path d="m45.31,14.69c0-.07-.11-.04-.1.02.25,3.21-.37,6.05-1.17,9.13-.03.11.12.16.17.06,1.35-2.81,1.51-6.17,1.1-9.21Z"/>
      <path d="m43.27,16.47s-.1-.05-.09,0c.2,2.81-.59,5.01-1.44,7.63-.05.14.14.22.22.11,1.7-2.06,1.89-5.25,1.31-7.74Z"/>
      <path d="m38.81,22.81c0-.05-.09-.04-.09,0-.26,2.43-2.6,3.13-4.19,4.56-1.33,1.19-1.34,2.92-2.35,4.3-1.61,2.2-5.37,2.98-6.16,5.77-.04.15.14.23.23.11,1.17-1.42,2.33-2.39,3.85-3.42,1.23-.83,2.44-1.74,3.09-3.12.55-1.17.7-2.3,1.7-3.24.68-.64,1.52-1.07,2.24-1.66,1.03-.85,1.82-1.95,1.68-3.32Z"/>
      <path d="m32.03,48.91c-.13-1.36-.57-2.83-1.31-4.08.11.05.27-.04.23-.17-.41-1.45-2.02-3.13-3.46-3.57-.15-.05-.31.15-.18.28.58.56,1.27.98,1.83,1.56.04.04.08.09.11.13-.69-.59-1.51-1.02-2.46-1.19-.05,0-.06.07-.02.08,3.62.73,3.92,4.2,5.05,7.04.05.13.23.04.21-.07Z"/>
      <path d="m31.75,43.16c-.32-.66-.85-1.2-1.32-1.76-.53-.63-1.07-1.25-1.66-1.83-.09-.09-.28,0-.2.13.43.66.9,1.28,1.4,1.88.49.6.95,1.27,1.57,1.74.11.08.25-.06.2-.17Z"/>
      <path d="m33.87,40.04c-.31-1.27-1.47-2.38-2.5-3.12-.15-.11-.36.12-.22.25.47.44.94.91,1.35,1.41.41.51.72,1.08,1.17,1.56.08.08.24.02.21-.1Z"/>
      <path d="m32.89,35.69c-.1-.11-.27.04-.17.15.42.46.77.96,1.04,1.52.26.52.38,1.08.6,1.6.04.08.18.06.18-.04,0-1.18-.86-2.42-1.65-3.23Z"/>
      <path d="m36.47,38.45c-.59-1.11-1.36-2.14-2.06-3.19-.08-.13-.3-.02-.21.11.7,1.06,1.35,2.17,2.15,3.16.05.06.16,0,.12-.08Z"/>
      <path d="m37.48,37.44c-.33-.67-.82-1.26-1.19-1.91-.38-.65-.72-1.32-1.05-2-.06-.12-.22-.03-.18.09.49,1.33,1.21,2.93,2.28,3.91.07.06.18,0,.14-.09Z"/>
      <path d="m38.67,36.03c-.8-.8-1.45-1.67-1.92-2.7-.01-.02-.05,0-.04.02.45,1.02,1.08,1.98,1.91,2.73.03.03.08-.01.05-.04Z"/>
      <path d="m39.97,35.4c-.77-1.4-1.58-2.65-2.02-4.21-.05-.17-.31-.11-.27.05.41,1.49,1.05,3.12,2.16,4.23.06.06.16,0,.12-.08Z"/>
      <path d="m43.89,36.09c-1.52-2.05-3-4.06-4.13-6.36-.02-.04-.07,0-.06.03,1.05,2.29,2.36,4.57,4.13,6.38.03.03.08-.01.06-.05Z"/>
      <path d="m36.38,48.54c-.94.59-1.68,1.31-2.13,2.34-.37.85-.64,2.12-.04,2.92.08.1.27.07.3-.06.18-.78,0-1.58.21-2.37.27-1.04.87-2,1.77-2.6.13-.09.03-.31-.11-.22Z"/>
      <path d="m36.54,50.08c-.79.91-1.56,2.35-1.26,3.59.02.1.19.13.22.01.15-.57.14-1.16.32-1.73.2-.63.5-1.22.89-1.76.08-.11-.09-.21-.17-.12Z"/>
      <path d="m37.51,52.52c.16-.51.32-1.03.48-1.54.06-.2-.23-.3-.31-.1-.18.51-.37,1.01-.55,1.52-.16.44-.38.9-.39,1.37,0,.14.17.2.26.09.28-.38.38-.88.52-1.32Z"/>
      <path d="m38.47,51.49c-.08.24-.16.49-.24.73-.07.21-.14.4-.12.62,0,.09.15.14.21.07.16-.17.21-.36.29-.57.08-.24.17-.48.25-.73.09-.25-.31-.39-.39-.13Z"/>
      <path d="m40.16,51.2c-.26-.03-.54.02-.8.05-.31.03-.22.55.1.49.26-.05.53-.08.77-.19.18-.08.1-.33-.07-.35Z"/>
      <path d="m42.49,45.09v.03s0-.03,0-.03Z"/>
      <path d="m14.77,42.35c-1.86-2.78-3.54-5.53-4.36-8.81-.03-.1-.18-.07-.16.03.64,3.26,1.93,6.57,4.36,8.92.1.1.24-.03.16-.14Z"/>
      <path d="m17.99,42.07c-2.32-2.04-4.08-4.3-4.45-7.47-.02-.17-.27-.11-.25.05.24,3.02,1.79,6.23,4.61,7.61.12.06.17-.12.09-.18Z"/>
      <path d="m21.29,41.79c-.62-.65-1.4-1.07-1.97-1.82-.63-.83-1.06-1.81-1.24-2.84-.01-.09-.16-.08-.15.01.06,1.08.34,2.08.94,2.98.5.75,1.34,1.71,2.26,1.9.12.02.26-.11.15-.23Z"/>
      <path d="m41.6,8.56s-.12.02-.08.07c1.39,1.69,1.89,3.58,2.29,5.68.02.09.15.08.15-.01.15-2.12-.97-4.22-2.37-5.74Z"/>
      <path d="m37.72,4.29c-4.49-1.21-9.46.42-13.08,3.1-.02.02,0,.05.03.03,3.99-2.7,8.34-3.23,13.03-2.99.08,0,.11-.12.03-.14Z"/>
      <path d="m36.22,4.72c-3.21-.95-7.24,1.17-9.44,3.37-.07.07.02.17.1.11,1.41-1.11,3.07-2.05,4.78-2.58,1.51-.47,3.03-.4,4.55-.7.09-.02.11-.16.01-.19Z"/>
      <path d="m44.56,3.98c-2.93-1.41-4.91-3.64-8.28-3.94-2.64-.24-5.35.66-7.8,1.55-3.17,1.16-6.64,2.87-9.57,5.1-1.43.78-2.95,1.68-4.18,2.77,0,0,0,0,0,0-.36.3-.73.59-1.1.87.1-.02.2-.04.3-.06-.05.06-.11.11-.16.17-1.17.79-2.33,1.59-3.47,2.41-2.04,1.46-4.36,2.89-6,4.81-1.47,1.72-2.17,3.94-2.82,6.07-.67,2.22-1.15,4.49-1.37,6.8-.81,8.69,3.33,17.25,12.46,19.04,4.74.93,10.2-.31,14.21-2.95.3-.2.09-.64-.25-.5-1.15.45-2.31.88-3.46,1.25,0-.03,0-.05,0-.08-.65-3.47,1.87-5.47,4.43-7.24.69-.48,1.37-.95,2.01-1.48-.04.08-.03.18.07.24.58.37,1.09.8,1.52,1.34.39.49.61,1.08.97,1.59.08.11.26.03.26-.09.09-1.42-1.35-2.74-2.59-3.19-.04-.01-.07-.01-.1,0,.38-.33.75-.68,1.08-1.07.8-.94,1.34-2.06,2.17-2.98.97-1.09,2.37-1.5,3.42-2.48.8-.75,1.22-1.76,1.69-2.72.04-.08.08-.16.12-.24.53,2.26,1.39,4.99,2.96,6.75.11.12.28,0,.22-.15-.45-1.06-1.12-2.04-1.6-3.1-.52-1.16-.95-2.36-1.3-3.58-.03-.1-.12-.12-.19-.1.32-.64.66-1.26,1.18-1.76.28-.27.66-.51,1.07-.68-.55,2.09.62,4.25,1.85,5.95.9,1.25,2.01,2.33,2.9,3.58.77,1.08,1.2,2.14,1.56,3.29-1.58-.83-3.72.38-4.97,1.54-1.14,1.06-1.96,2.35-2.67,3.72-.54,1.03-.99,1.72-1.99,2.33-.61.37-1.15.61-1.68,1.1-1.53,1.45-3.67,4.59-2.9,6.8.11.32.32.6.57.83-.01.05-.02.11,0,.16-2.49-.13-2.09-4.29-2.48-6.08-.36-1.66-.95-3.51-2.11-4.8-1.55-1.73-5.04-1.87-5.41.93-.04.29.39.35.49.09.57-1.56,2.4-1.39,3.42-.51.65.56,1.06,1.35,1.39,2.13.74,1.74,1.17,3.56,1.53,5.41.3,1.54,1.63,4.27,3.59,3.19,1.91.43,3.83-.26,5.47-1.25,2.21-.64,4.28-1.81,5.98-3.36.87-.8,1.73-1.77,2.48-2.86.15.01.31-.04.41-.15,1.9-2.04,2.21-5.7,1.81-8.38-.52-3.43-2.86-6.05-3.52-9.44.19-.45.41-.87.67-1.28.34-.42.66-.86.96-1.31,1.2-1.48,2.59-2.85,3.31-4.64,1.06-2.65,1.29-6.12,1.46-8.96.36-6.14-3.09-8.06-7.99-10.42Zm2.65,36.64s.01.02.02.03c.13.66.24,1.32.29,1.97.09,1.15-.12,2.26-.28,3.38-.58,1.55-1.58,2.96-2.8,4.05-1.96,1.75-4.05,3.13-6.36,4.04-1.48.4-3.03.55-4.61.44-.26-.26-.33-.63-.21-1.11,0-.69.23-1.13.52-1.73.37-.76.8-1.52,1.29-2.21.67-.94,1.38-1.53,2.38-2.07.49-.26.91-.45,1.29-.87,1.06-1.15,1.47-2.78,2.52-3.98,1.19-1.37,3.87-3.9,5.79-2.42.05.17.1.33.15.5Zm-4.91-10.75c-.64-1.11-1.06-2.32-1.06-3.74.8-.08,1.51.29,1.58,1.57.04.75-.25,1.46-.52,2.17Zm.86,1.29c-.08-.11-.16-.21-.23-.32.95-1.92,1.39-5.03-1.14-5.42-.22-.03-.43-.04-.64-.03-.11-.08-.26-.08-.34.04-.89.17-1.64.77-2.17,1.56-.38.56-.62,1.2-.9,1.81-.74,1.65-1.41,2.74-2.98,3.7-1.5.92-2.44,1.86-3.46,3.3-1.28,1.79-2.82,2.9-4.62,4.12-2.29,1.55-5.48,4.4-4.08,7.53.01.02.03.04.04.06-3.86,1.19-7.76,1.72-11.85.38-5.19-1.7-8.38-6.06-9.27-11.34-.44-2.64-.29-5.35.16-7.98.45-2.6,1.04-5.39,2.04-7.83.09-.22.19-.44.3-.64-.59,1.29-.93,2.68-.91,4.05,0,.14.18.14.21.01.61-3.25,1.82-5.7,4.15-7.98.7-.56,1.43-1.1,2.15-1.65,1.38-1.05,2.73-2.14,4.07-3.24.1.04.2.05.31,0,.22-.11.42-.24.64-.36-.3.4-.58.81-.83,1.24-.09.15.13.3.26.2,2.37-1.83,4.5-3.71,6.82-5.32,1.97-1.01,4.03-1.85,6.16-2.48,3.19-.94,7.04-1.77,10.6-1.43.95.42,1.85,1,2.74,1.62-.03-.01-.05-.03-.08-.04-.09-.04-.14.11-.05.15,3.24,1.52,5.46,4.64,6.3,8.07.88,3.6.14,7.02-.54,10.57-.02.1.13.11.16.03,2.23-5.35,1.67-12.44-2.45-16.52,1.57.94,2.82,1.76,3.79,2.92-.06.03-.1.09-.07.16.94,2.77.78,5.2.38,8.03-.03.18.22.19.28.05,1.12-2.29.88-5.19-.08-7.54.42.63.79,1.35,1.1,2.24.34.97.58,1.97.71,2.99-.03.17-.05.33-.1.5-1.33,5.21-4.72,9.76-6.61,14.77Zm6.51-10.34c-.1.47-.25.91-.43,1.32-.77.86-1.38,1.85-1.95,2.87-.15.17-.3.34-.45.5.41-.89.81-1.79,1.21-2.68.63-1.39,1.35-2.82,1.91-4.3-.04.77-.13,1.53-.29,2.29Z"/>
    </g>
  </g>
</svg>