
<svg id="Layer_2" data-name="Layer 2" xmlns="http://www.w3.org/2000/svg" viewBox="0 0 64.63 65.76">
  <g id="objects">
    <g>
      <path d="m47.9,58.61c2.14-.5,4.02-1.5,5.42-3.18,2.5-3,4.72-6.19,6.45-9.74,1.35-2.77,2.2-5.64,2.84-8.62.28-1.31.8-2.57,1.02-3.89.31-1.9.44-3.83.68-5.98.15.5.34.82.33,1.14-.1,2.13-.13,4.27-.39,6.38-.28,2.3-.71,4.58-1.19,6.85-.31,1.48-.77,2.94-1.28,4.36-1.47,4.07-3.8,7.67-6.57,10.95-1.15,1.36-2.79,2.33-4.28,3.38-.94.66-2.1,1.03-3.02,1.71-3.18,2.33-6.85,3.06-10.65,3.56-4.31.56-8.55.03-12.74-.84-1.53-.32-3.05-.95-4.41-1.73-3.28-1.88-6.47-3.94-9.69-5.93-1.79-1.11-3.28-2.54-4.45-4.3-1.24-1.89-2.47-3.79-3.72-5.67C.48,44.41-.21,41.45.05,38.34c.45-5.47.86-10.96,1.71-16.38,1-6.38,3.79-11.82,9.51-15.41,1.54-.97,2.89-2.24,4.41-3.26,2.93-1.97,6.4-2.27,9.73-3,3.46-.75,6.81.13,10.18.57,2.29.3,4.55.86,6.78,1.43,2.99.76,5.33,2.55,7.45,4.75,1.39,1.44,3,2.7,4.62,3.89,1.71,1.25,3.11,2.73,4.28,4.47.41.61.89,1.17,1.29,1.78.38.58.69,1.2.77,1.95-.82-.88-1.72-1.71-2.45-2.66-2.26-2.93-5.12-5.24-7.87-7.66-1.28-1.12-2.65-2.14-3.95-3.24-1.3-1.09-2.85-1.61-4.4-2.19-5.09-1.89-10.41-2.07-15.71-1.97-1.88.03-3.83.78-5.58,1.59-2.65,1.22-5.23,2.66-7.7,4.23-1.79,1.13-3.5,2.48-5,3.97-2.65,2.64-3.84,6.13-4.45,9.68-.89,5.23-1.75,10.47-2.04,15.78-.22,4.08.62,7.76,3.19,10.99.34.43.67.88.91,1.37,1.93,3.9,5.2,6.4,8.84,8.52,1.37.8,2.78,1.55,4.11,2.41,5.26,3.41,11.1,3.79,17.11,3.37.79-.06,1.57-.24,2.36-.29,3.83-.26,6.94-2.07,9.78-4.48l-.04.05Z"/>
      <path d="m37.28,29.09c1.9,1.49,2.21,2.36,1.4,3.71-.96,1.59-2.31,1.98-4.12,1.07,1.11-.76,1.2-1.87,1.16-3.03-.01-.36,0-.73.06-1.09.34-2.64-1.26-4.87-3.98-5.34-1.38-.24-2.79-.28-4.03-1.04-.09-.06-.35.17-.75.37,1.78.94,3.33,1.78,4.9,2.6,2.24,1.19,3.39,4.39,2.4,6.76-.03.07-.19.08-.48.2.03-.52.04-.96.09-1.39.28-2.2-.57-4.63-3.53-5.41-.85-.22-1.63-.74-2.4-1.19-.69-.4-1.53-.32-2.49.41-.46.34-.87.75-1.33,1.15-1.26-2.19-.19-5.34,1.9-6.13.62-.23,1.12-.08,1.45.41.76,1.13,1.89,1.47,3.13,1.64,1.8.25,3.36,1.11,4.82,2.11,1.46,1.01,2.71,2.22,1.81,4.19Zm-10.6-7.57c-1.8,1.22-2.49,2.54-2.43,4.59,1.48-1.24,2.16-2.57,2.43-4.59Z"/>
      <path d="m43.03,6.27c3.47.68,9.6,5.68,12.72,10.21-4.43-3.26-7.44-7.82-12.72-10.21Z"/>
      <path d="m13.14,20.32c-2.44,4-2.44,8.45-2.46,12.96-1.46-3.03-.47-9.64,2.46-12.96Z"/>
      <path d="m7.37,16.35c-.93,4.26-1.78,8.12-2.62,11.98.42-3.96.43-8.01,2.62-11.98Z"/>
      <path d="m10.71,40.01c-1.79-2.13-3.03-5.68-2.77-7.92,1.23,2.75,2.19,5.27,2.77,7.92Z"/>
      <path d="m5.89,46.75c1.48,2.93,4.18,4.73,6.42,6.95-3.12-1.41-5.49-3.52-6.42-6.95Z"/>
      <path d="m28.8,4.32c1.96.21,3.93.41,5.89.62,1.93.21,3.87.43,6.2.69-4.4.6-8.17-1.12-12.09-1.31Z"/>
      <path d="m23.83,52.96c1.6.58,3.18,1.22,4.8,1.73,1.6.5,3.24.87,4.87,1.46-.65-.04-1.34.05-1.95-.13-2.38-.72-4.75-1.51-7.1-2.33-.25-.09-.39-.5-.58-.76l-.03.03Z"/>
      <path d="m39.72,52.58c2.53.49,4.95.09,7.28-.95.82-.37,1.65-.72,2.5-1.02-2.23,2.01-6.78,3.13-9.41,2.37-.15-.04-.24-.26-.36-.4h0Z"/>
      <path d="m29.26,57.63c3.49.18,6.57.34,9.65.5-3.09.02-6.19.47-9.65-.5Z"/>
      <path d="m25.86,11.89c2.68-1.35,5.36-.92,8.02-.72-2.58.23-5.16.46-8.02.72Z"/>
      <path d="m41.85,30.97c.99,1.73.69,3.14-.94,4.57.31-1.51.62-2.99.94-4.57Z"/>
      <path d="m25.16,15.14c2.24-1.49,3.94-1.88,6.67-1.52-2.18.5-4.47,1.02-6.67,1.52Z"/>
      <path d="m56.69,47.65c.3-.58.58-1.17.91-1.74.75-1.31,1.51-2.62,2.44-4.22-.27,2.7-1.77,4.34-3.38,5.92l.03.04Z"/>
      <path d="m33.84,49.58c1.51.17,3.02.34,4.53.5-1.63.75-3.11.21-4.53-.5Z"/>
      <path d="m56.65,47.62c-1.42,1.55-2.65,3.39-5,3.76,1.23-.97,2.37-1.91,3.54-2.8.46-.35.99-.62,1.49-.93l-.03-.04Z"/>
      <path d="m35.89,36.55c1.14-.68,2.44-1.46,3.63-2.17-.37,1.78-1.51,2.46-3.63,2.17Z"/>
      <path d="m35.76,43.41c-1.82.11-3.3-.69-4.66-1.79,1.55.6,3.11,1.19,4.66,1.79Z"/>
      <path d="m41.42,50.35c1.44-.15,2.88-.3,4.75-.5-1.77.98-3.24.87-4.75.5Z"/>
      <path d="m3.42,42.12c-.23-1.23-.46-2.45-.69-3.68.1-.02.19-.04.29-.06.24,1.23.47,2.45.71,3.68-.1.02-.21.04-.31.06Z"/>
      <path d="m7.02,26.1c.25-1.26.5-2.51.75-3.77.11.02.23.05.34.07-.24,1.27-.49,2.54-.73,3.81-.12-.03-.24-.07-.36-.1Z"/>
      <path d="m33.73,38.62c1.41.1,2.5.18,3.59.26-1.14.46-2.25.56-3.59-.26Z"/>
      <path d="m10.39,12c.68-1.1,1.88-1.42,3.06-1.75-.98.62-1.97,1.24-2.95,1.86l-.11-.1Z"/>
      <path d="m47.95,58.57c-1.14.16-2.28.31-3.42.47,1.86-.84,2.05-.86,3.38-.42,0,0,.04-.05.04-.05Z"/>
      <path d="m28.82,7.2c-.76.16-1.52.32-2.28.48-.02-.11-.04-.21-.06-.32.76-.14,1.53-.27,2.29-.41.02.08.03.16.05.25Z"/>
      <path d="m38.93,28.69c.78.41,1.11,1.1.9,2.12-.42-.63-.85-1.26-1.27-1.89.12-.08.24-.15.36-.23Z"/>
      <path d="m44.51,35.28c-.48.65-.97,1.3-1.45,1.94-.09-.07-.19-.14-.28-.21.47-.65.93-1.3,1.4-1.95.11.07.22.14.33.21Z"/>
      <path d="m23.86,52.93c-1.16.46-1.86-.44-2.69-.99.88.34,1.76.69,2.65,1.03,0,0,.04-.04.04-.04Z"/>
      <path d="m41.28,9.86l-1.76-.7c.04-.11.08-.22.12-.33.6.23,1.19.45,1.79.68-.05.12-.1.23-.14.35Z"/>
      <path d="m20.35,38.72c-.27-.64-.54-1.28-.81-1.92.12-.05.23-.1.35-.14.27.64.54,1.28.81,1.92-.12.05-.23.1-.35.15Z"/>
      <path d="m19.6,43.32c-.38-.52-.76-1.04-1.14-1.56.11-.08.22-.16.33-.24.38.52.75,1.05,1.13,1.57-.11.08-.21.15-.32.23Z"/>
      <path d="m22.9,57.17c-.79-.25-1.58-.49-2.36-.74.94-.16,1.76.02,2.34.77l.03-.04Z"/>
      <path d="m39.72,52.58c-.81.05-1.63.09-2.44.14,0-.05,0-.09,0-.14.81,0,1.63,0,2.44,0,0,0,0,0,0,0Z"/>
      <path d="m53.3,52.96c-.38.22-.76.45-1.14.67-.05-.08-.11-.16-.16-.24.36-.24.73-.49,1.09-.73.07.1.14.2.22.3Z"/>
      <path d="m8.99,13.9c.47-.63.93-1.26,1.4-1.89,0,0,.11.1.11.1-.51.59-1.03,1.17-1.54,1.76l.04.03Z"/>
      <path d="m17.09,6.96c-.34.27-.67.55-1.01.82l-.15-.19c.34-.28.67-.57,1.01-.85.05.07.1.15.15.22Z"/>
      <path d="m16.35,56.46c-.49-.36-.99-.73-1.73-1.28q1.09.22,1.73,1.28Z"/>
      <path d="m24.39,5.51c.42-.14.83-.27,1.25-.4.02.07.04.13.06.2-.41.14-.83.29-1.24.43-.02-.08-.05-.15-.07-.23Z"/>
      <path d="m31.36,61.96c.39.04.79.08,1.18.12,0,.08.01.15.02.23-.19.01-.39.05-.58.03-.22-.02-.44-.1-.65-.16.01-.07.02-.15.04-.22Z"/>
      <path d="m39.01,60.71h-1.16s0-.07,0-.11h1.16s0,.07,0,.11Z"/>
      <path d="m22.87,57.21c.62.11,1.24.21,1.86.32-.04.13-.08.26-.12.39-.57-.25-1.14-.5-1.72-.75,0,0-.03.04-.03.04Z"/>
      <path d="m45.18,49.02h-1.3c0-.07-.01-.14-.02-.21.44-.06.89-.12,1.33-.18,0,.13,0,.26,0,.39Z"/>
      <path d="m59.01,20.6c-.25-.27-.5-.53-.75-.8l.17-.16c.27.24.55.49.82.73-.08.08-.16.15-.24.23Z"/>
      <path d="m8.95,13.86c-.22.54-.44,1.08-.65,1.62-.12-.06-.24-.13-.35-.19.35-.46.7-.93,1.04-1.39l-.04-.03Z"/>
      <path d="m11.7,9.19c.25-.19.5-.39.76-.58.05.06.09.11.14.17-.23.21-.47.43-.7.64-.07-.08-.13-.15-.2-.23Z"/>
      <path d="m40.09,22.34c-.3-.15-.6-.29-.9-.44.02-.06.04-.12.07-.18.34.12.67.24,1.01.36-.06.09-.12.18-.18.27Z"/>
      <path d="m38.65,37.74l.97-.43c.05.1.11.21.16.31l-.94.52c-.06-.13-.13-.27-.19-.4Z"/>
      <path d="m26.68,21.52c-.27,2.03-.96,3.35-2.43,4.59-.06-2.05.63-3.37,2.43-4.59Z" style="fill: #fff;"/>
    </g>
  </g>
</svg>