<?xml version="1.0" encoding="UTF-8"?>
<svg id="Layer_2" data-name="Layer 2" xmlns="http://www.w3.org/2000/svg" viewBox="0 0 107.07 60.23">
  <g id="objects">
    <g>
      <path d="m15.1,35.43c-1.15,0-2.21,0-3.27,0-1.16.01-1.18,0-1.25-1.2-1.36.1-2.72.19-4.08.29,0-.07-.02-.13-.03-.2,1.27-.24,2.55-.48,3.82-.73-.02-.1-.04-.21-.06-.31-1.57-.03-3.11.25-4.59.75-1.83.62-3.74.49-5.65.6.25-.11.48-.24.74-.31,1.61-.48,3.24-.92,4.85-1.42,1.83-.57,3.69-.86,5.61-.87,1.6,0,3.19-.15,4.78-.29.85-.07.84-.13,1.3-1.03-1.58-.12-3.09-.23-4.63-.34.02-.27,0-.4.06-.5.05-.11.16-.19.26-.29-.04-.03-.1-.09-.15-.09-2.79.35-5.57.71-8.36,1.06-.68.08-1.38.14-2.07.15-.27,0-.53-.14-.81-.23.13-.81.73-.79,1.2-.88,2.97-.59,5.94-1.17,8.9-1.75,1.43-.28,2.93-.33,4.28-1.16-.03-1.16.66-1.82,1.66-2.34,1.67-.87,2.66-2.3,3.07-4.13.15-.67.3-1.35.47-2.02.51-1.99,1.42-3.77,2.56-5.49,3.11-4.69,7.52-7.64,12.59-9.81,9.65-4.13,19.29-3.58,28.92.02,1.41.53,2.71,1.33,4.06,2.01.93.47,1.84.96,2.77,1.42.77.38,1.53.72,2.47.49.79-.2,1.54.2,2.18.65,1.98,1.41,3.77,3.02,5.32,4.91.31.38.76.65,1.15.97.43.35.88.68,1.29,1.06.41.38.74.85,1.18,1.2.61.48,1.28.87,1.9,1.27,1.12-.41,2.17-.78,3.21-1.19,1.12-.44,1.98-1.19,2.59-2.25.65-1.13,1.67-1.87,2.88-2.31,1.03-.38,2.08-.44,3.26.27-.43.15-.69.28-.96.33-2,.33-3.67,1.17-4.83,2.93-.39.59-1.03,1.01-1.71,1.65,1.01.22,1.94.46,2.88.59.27.04.64-.21.88-.42,1.09-.98,2.38-1.38,3.81-1.36.95.01,1.9.03,2.85.07.27.01.53.13.9.23-.5.81-1.23,1.02-1.89,1.2-1.62.43-3.27.81-4.93,1.05-.98.14-1.29.9-1.99,1.52,2.08.8,4.07,1.22,6.11.47,1.13-.42,2.18-1.02,3.27-1.55.36-.17.69-.56,1.2-.13-.08.17-.1.36-.21.45-2.02,1.66-4.2,2.93-6.95,2.64-.72-.07-1.42-.32-2.14-.44-.84-.13-1.7-.25-2.55-.3-.81-.05-1.36.38-1.8,1.3,2.23-.41,3.54,1.01,4.99,2.14,1.1.86,2.27,1.56,3.77,1.81.53-.83.95-1.75,1.61-2.46.66-.71,1.49-1.31,2.35-1.77.82-.43,1.61-1.16,2.93-.96-.29.38-.41.68-.62.78-.81.41-1.65.75-2.48,1.12-1.55.69-2.47,1.76-2.93,3.46,1.91.25,3.74-.04,5.55-.71.04.09.09.17.13.26-.17.19-.31.43-.52.55-1.25.71-2.62.84-4.02.73-.99-.08-1.86,0-2.83.47-1.52.74-3.05.12-4.39-.77-.53-.35-.96-.87-1.4-1.34-.75-.8-.94-.92-2.31-1.23-.03.05-.14.15-.16.27-.22,1.16-.78,2.18-1.3,3.22-.27.54-.28,1.25-.29,1.89-.03,2.16.04,4.32,0,6.48-.05,2.12-.71,4.08-1.83,5.87-1.84,2.94-3.91,5.71-6.48,8.06-6.44,5.93-13.79,9.9-22.7,10.55-4.91.35-9.78.15-14.54-1.08-1.87-.48-3.74-1.14-5.43-2.05-3.76-2.03-7.14-4.55-9.34-8.37-1.03-1.79-2.17-3.53-3.27-5.29-.58-.93-1.28-1.64-2.46-1.91-2.57-.58-5.06-1.47-7.73-1.55-.28,0-.72-.23-.8-.45-.16-.46.27-.65.65-.8.34-.13.67-.26.98-.65-.26-.09-.52-.25-.79-.27-.82-.07-1.64-.09-2.46-.13-.3-.01-.61.01-.91-.02-.38-.04-.89-.03-.84-.56.02-.22.43-.5.71-.57.58-.15,1.19-.2,1.79-.25.44-.03.85-.06,1.06-.73Zm71.62-6.89c.71-.53,1.19-1.19,1.34-2.09.05-.29.22-.57.36-.83.32-.57.35-1.08-.03-1.69-.67-1.07-.53-2.14.27-3.12.16-.2.31-.4.47-.61-.82-.48-1.58-.95-2.38-1.37-.2-.11-.5-.13-.74-.08-2.16.47-4.32.2-6.45-.09-4.93-.65-9.85-1.31-14.81-1.59-2.64-.15-5.27-.05-7.85.63-1.08.29-2.17.52-3.25.78.13-.22.29-.33.48-.4,3.03-1.15,6.16-1.73,9.4-1.48,3.1.24,6.2.33,9.28.83,3.02.49,6.09.7,9.14.99,1.27.12,2.55.15,3.88-.19-1.33-.84-2.22-2.03-2.95-3.29-.57.15-1.01.33-1.47.39-.47.06-.95.04-1.42.02-.92-.04-1.06-.19-1.35-1.08-.16-.51-.41-.99-.55-1.32-.96.07-1.69.2-2.4.15-1.46-.1-2.94-.21-4.38-.47-3.41-.62-6.83-1.08-10.29-1.14-3.41-.06-6.82-.16-10.2.44.4-.19.81-.32,1.22-.43,2.91-.79,5.89-.88,8.88-.85,3.39.03,6.7.64,10.02,1.24,1.64.3,3.3.47,5.04.7-.21-.72-.37-1.25-.54-1.83-.38-.07-.76-.14-1.14-.21-2.71-.52-5.42-1.06-8.14-1.57-2.08-.39-4.15-.96-6.24-1.09-6.19-.38-12.23.49-18.15,2.36-5.42,1.71-9.85,4.74-13.31,9.22-1.08,1.4-2.15,2.82-3.24,4.21-1.22,1.55-2.68,2.82-4.51,3.6-.26.11-.49.26-.74.4,3.45.35,5.85-1.68,8.32-3.57-.38.51-.86.89-1.25,1.34-1.61,1.84-3.72,2.58-6.05,2.89-.28.04-.56.12-.86.19.03.29.06.51.08.72.12,1.61.2,1.7,1.79,1.92.39.06.78.15,1.17.22-.28.37-.53.53-.81.59-.93.2-1.86.38-2.8.53-.44.07-.88.07-.94.73,1.76.29,3.48-.18,5.22-.13-1.67.77-3.47.79-5.27.97-.07.24-.1.45-.19.63-.54.99-.31,1.83.04,2.9.43,1.31,1.21,1.44,2.26,1.59,2.64.37,4.71,1.53,5.72,4.19.29.75.85,1.4,1.32,2.07.57.81,1.27,1.55,1.78,2.39,1.8,3.01,4.46,5.14,7.27,7.1,2.4,1.67,5.02,2.85,7.87,3.54,4.08.99,8.21,1.07,12.37.97,6.04-.15,11.52-1.97,16.57-5.27,5.37-3.5,9.89-7.81,13.2-13.33,1.01-1.7,1.7-3.53,1.61-5.52-.08-1.94-.36-3.87-.56-5.8-.03-.31-.12-.62-.18-.93-.5.92-.78,1.86-1.09,2.79-.46,1.37-.83,1.9-1.52,2.32.28-.78.62-1.61.89-2.47.26-.82.44-1.66.65-2.49.04-.08.09-.17.13-.25Zm-59.73-9.16c.06.06.13.12.19.18.27-.33.55-.66.82-.99,3.13-3.83,6.95-6.71,11.66-8.33,4.27-1.47,8.63-2.53,13.14-2.81,3.02-.18,6.05-.33,9.05.22,2.17.4,4.32.88,6.47,1.33,1.85.39,3.7.81,5.73,1.25q-1.38-1.23-1.31-2.42c-1.78-1.13-3.52-2.35-5.36-3.37-1.35-.75-2.79-1.41-4.27-1.8-2.71-.72-5.45-1.34-8.28-1.43-3.51-.11-7.01-.05-10.47.57-4.34.79-8.37,2.5-12.09,4.84-5.04,3.18-8.75,7.41-9.82,13.52-.28,1.62-1.01,3.02-2.2,4.17-.09.08-.13.21-.27.47,2.16-.95,4.46-2.97,5.7-4.85.76-1.15,1.55-2.29,2.37-3.4.96-1.3,2.79-2.8,3.91-3.18-1.84,1.86-3.61,3.77-4.97,6.01Zm55.06-5.55c-2.75-2.16-5.29-4.38-8.6-5.46.02.33.1.62.29.73.44.26.95.41,1.41.64.55.27,1.1.59,1.12,1.3.02.74.49.96,1.08,1.05.98.14,1.5.75,1.78,1.64.08.28.23.53.39.92.78-.35,1.66,0,2.52-.82ZM17.37,26.34c.57,1.15,1.08,1.32,2.06.88,2.17-.98,3.9-2.49,5.32-4.38.32-.42.62-.86.92-1.29-2.61,1.95-4.96,4.19-8.3,4.78Zm75.12-3.39c.74.72,1.41,1.37,2.07,2.03,1.13,1.11,2.45,1.74,4.06,1.65.24-.01.48-.19,1.02-.42-2.71-.87-4.49-2.96-7.16-3.26Zm2.07-5.32c-1.08-.26-2.02-.48-2.97-.7-.94-.22-1.71.08-2.5.77,1.33.57,2.92.31,3.6,1.78.88-.41,1.42-.96,1.87-1.85Zm-13.92-5.88c-1.14-1.78-3.55-3.55-5.04-3.8,1.72,1.3,3.38,2.55,5.04,3.8ZM14.03,33.58c-.04-.11-.08-.22-.12-.33-.64.2-1.28.41-1.93.61.03.1.06.2.09.3.65-.19,1.3-.39,1.95-.58Zm85.16-17.1q-1.24-.1-2.04.61c.84-.25,1.44-.43,2.04-.61Z"/>
      <path d="m86.58,28.79c-1.57,2.51-3.09,5.06-4.74,7.52-1.33,1.98-2.99,3.71-5,5-1.98,1.28-4.1,2.35-6.16,3.51l.03.03c.18-.2.33-.45.55-.59,1.38-.87,2.82-1.66,4.17-2.58,2.69-1.85,4.97-4.11,6.49-7.06.18-.34.35-.7.58-1.01,1.66-2.29,3.31-4.59,4.71-7.12-.16.68-.32,1.36-.49,2.04-.05.09-.09.17-.14.26Z"/>
      <path d="m87.64,20.85c-1.11,1.26-2.52,1.97-4.04,2.44-3.32,1.02-6.73,1.58-10.2,1.72-2.85.12-5.71.11-8.56.14-3.47.04-6.87.56-10.27,1.3-3.75.81-7.57,1.34-11.36,1.96-4.16.68-8.14,1.94-12.08,3.39-1.49.55-3,1.03-4.58,1.33.45-.17.89-.35,1.34-.51,2.72-.98,5.42-2.04,8.17-2.92,2.05-.65,4.15-1.3,6.27-1.56,4.39-.54,8.72-1.29,12.98-2.46,2.52-.69,5.08-1.03,7.68-1.14,3.46-.14,6.92-.18,10.37-.25,2.86-.06,5.71-.28,8.46-1.09,1.56-.46,3.04-1.19,4.56-1.81.42-.17.83-.36,1.25-.54Z"/>
      <path d="m23.32,37.49c2.29-.69,4.42-.25,6.6.51,5.68,1.99,11.48,3.44,17.56,3.62,3.54.1,7.09.31,10.61-.27,5.34-.88,10.36-2.68,14.8-5.86.63-.45,1.18-1.01,1.76-1.52.37-.33.74-.67,1.17-.94-1.14,1.58-2.53,2.9-4.21,3.88-4.17,2.43-8.56,4.33-13.37,5.05-2.91.44-5.85.38-8.79.3-5.22-.14-10.31-1-15.33-2.36-1.87-.51-3.73-1.09-5.61-1.56-1.21-.31-2.44-.49-3.67-.71-.5-.09-1.01-.1-1.52-.14Z"/>
      <path d="m29.55,44.33c1.41.34,2.53,1.17,3.2,2.39,1.86,3.38,4.78,5.45,8.12,7.16,3.55,1.81,7.3,2.63,11.24,2.74,3.46.09,6.92.13,10.35-.42.12-.02.25,0,.62,0-1.89.7-3.64.76-5.37.85-3.76.2-7.53.2-11.23-.63-4.52-1.01-8.54-3.04-11.88-6.28-.67-.65-1.24-1.46-1.68-2.29-.79-1.51-1.91-2.65-3.37-3.51Z"/>
      <path d="m37.57,41.62c.93.13,1.87.25,2.8.4,6.12,1.01,12.26,1.34,18.44.63,3.28-.37,6.6-1.33,10.6-2.88-.43.26-.85.56-1.3.78-3.23,1.55-6.65,2.46-10.2,2.73-6.75.51-13.45.15-20.06-1.43-.1-.02-.2-.07-.3-.11,0-.04.01-.08.02-.12Z"/>
      <path d="m55.26,49.33c-2.77-.36-5.4-.7-8.03-1.04,0-.07.01-.14.02-.21.86.04,1.71.1,2.57.13,3.71.14,7.42.44,11.12.36,2.3-.05,4.6-.69,6.89-1.08.63-.11,1.25-.26,1.88-.35-3.21,1.66-11.75,2.83-17.26,2.34.9-.04,1.79-.09,2.81-.14Z"/>
      <path d="m57.86,15.63c8.57-1.27,16.99.39,25.46,1.23-1.13,0-2.26.09-3.38-.02-4.52-.42-9.03-.97-13.55-1.32-2.14-.17-4.31-.02-6.47,0-.69,0-1.37.07-2.06.1Z"/>
      <path d="m46.6,11.64c-5.69,1.08-10.31,3.85-15.02,6.57,1.76-2.51,11.46-6.83,15.02-6.57Z"/>
      <path d="m81.07,22.32c-5.24,1.12-10.52,1.3-15.82,1.28,2.73-.2,5.47-.33,8.2-.62,1.54-.16,3.05-.56,4.56-.89,1.03-.23,2.04-.3,3.06.23Z"/>
      <path d="m46.56,19.85c-4.42,1.64-8.57,3.18-12.55,4.66,1.33-1.31,9.13-4.32,12.55-4.66Z"/>
      <path d="m28.09,27.11c3.4-2.69,6.98-5.03,11.03-6.58-3.68,2.19-7.36,4.39-11.03,6.58Z"/>
      <path d="m80.26,26.29c1.14-.62,2.33-1.05,3.65-1.17-3.95,1.52-7.26,3.97-10.25,6.91.78-1.16,1.73-2.17,2.82-3.02,1.18-.92,2.38-1.82,3.58-2.73.07,0,.14.01.21.02Z"/>
      <path d="m42.32,39.44c-4.53.32-8.85-.98-13-3,2.16.68,4.3,1.5,6.5,2.01,2.18.5,4.42.69,6.5.99Z"/>
      <path d="m39.05,44.33c-4.29-.9-8.31-2.64-12.48-3.9,4.25,1.01,8.39,2.38,12.48,3.9Z"/>
      <path d="m43.91,14.45c-3.25,1.41-6.43,2.78-9.47,4.1,1.02-1.34,6.6-3.83,9.47-4.1Z"/>
      <path d="m56.36,9.66c3.27-.49,6.53-.72,9.75.24-3.25-.08-6.5-.16-9.75-.24Z"/>
      <path d="m63.07,19.72c3.27-.58,6.56-.64,9.86,0h-9.86Z"/>
      <path d="m43.42,26.79c3.51-.76,7.03-1.52,10.54-2.28.02.1.04.2.07.3-3.52.76-7.04,1.51-10.55,2.27-.02-.1-.04-.19-.05-.29Z"/>
      <path d="m76.84,47.72c-2.87,2.21-6.22,3.37-9.75,4.1,1.64-.59,3.3-1.11,4.9-1.78,1.65-.69,3.23-1.54,4.85-2.32Z"/>
      <path d="m75.01,44.73c.16-.19.28-.42.47-.56,2.05-1.46,3.84-3.18,5.49-5.06.21-.24.52-.4.78-.6l-.03-.03c-.16.29-.28.61-.49.86-1.59,1.99-3.5,3.64-5.56,5.11-.19.14-.46.17-.69.26l.02.03Z"/>
      <path d="m61.86,13.6c3.22-.47,6.93-.42,10.52.33-3.61-.11-7.31-.23-10.52-.33Z"/>
      <path d="m23.11,38.74c2.49-.23,4.91-.02,7.31,1.17-2.53-.41-4.92-.79-7.31-1.17Z"/>
      <path d="m80.26,26.29c-.07,0-.14-.01-.21-.02-1.31.61-2.63,1.2-3.93,1.83-.63.31-1.23.69-1.91.92,1.83-1.57,3.93-2.65,6.33-3.55-.13.38-.2.6-.28.82Z"/>
      <path d="m62.15,51.06c.17-.11.34-.28.53-.31,3.13-.49,6.12-1.42,8.99-2.76.14-.07.31-.1.61-.19-1.75,1.37-5.6,2.58-10.15,3.24l.02.02Z"/>
      <path d="m36.33,52.75c-.12-.03-.27-.02-.36-.09-2.13-1.71-3.8-3.81-5.11-6.22.28.33.56.67.85,1,1.45,1.64,2.91,3.27,4.36,4.92.11.12.16.28.24.43l.02-.03Z"/>
      <path d="m32.46,22.94c.09-.14.14-.32.26-.4,1.58-1.11,3.24-2.05,5.14-2.55-.49.27-.98.55-1.48.82-1.31.7-2.63,1.4-3.95,2.1l.02.03Z"/>
      <path d="m82.6,28.98c-1.14,1.25-2.28,2.5-3.57,3.92.35-1.03,1.9-2.84,3.57-3.92Z"/>
      <path d="m64.02,22.27c.13-.1.26-.28.4-.29,2.1-.15,4.2-.28,6.31-.2-2.24.16-4.48.33-6.72.49h0Z"/>
      <path d="m39.52,47.75c-1.54-.07-3.23-.69-4.93-1.89,1.8.69,3.36,1.29,4.93,1.89Z"/>
      <path d="m40.04,33.58c-1.97.08-3.93.16-5.9.24,0-.09,0-.18,0-.27.98,0,1.97.03,2.95,0,.98-.04,1.96-.16,2.94-.24,0,.09,0,.19.01.28Z"/>
      <path d="m61.56,47.64c-2.14.07-4.28.13-6.42.2,0-.07,0-.14,0-.21,1.07,0,2.13.04,3.2-.01,1.07-.05,2.13-.17,3.2-.27.01.1.02.19.03.29Z"/>
      <path d="m58.63,58.37h-6.42s0-.04,0-.06h6.42s0,.04,0,.06Z"/>
      <path d="m86.86,35.15c.14,1.85-.19,3.45-1.08,5.17.38-1.8.7-3.38,1.08-5.17Z"/>
      <path d="m44.95,57.49c-1.41-.44-2.82-.88-4.24-1.33.02-.08.05-.15.07-.23,1.42.43,2.84.85,4.26,1.28-.03.09-.06.19-.09.28Z"/>
      <path d="m69.16,20.74c-1.5.09-3.01.18-4.51.27,1.26-.46,2.7-.58,4.51-.27Z"/>
      <path d="m39.41,36.69c-1.5-.18-3-.37-4.5-.55.01-.08.02-.17.03-.25,1.5.2,2.99.4,4.49.61,0,.06-.02.13-.02.19Z"/>
      <path d="m20.13,35.46c1.33-.06,2.66-.12,3.99-.18,0,.09,0,.18.01.27-1.33.07-2.66.13-3.99.2,0-.1,0-.2-.01-.29Z"/>
      <path d="m81.85,41.19c-.8.8-1.6,1.61-2.4,2.41-.06-.05-.12-.11-.17-.16.8-.79,1.59-1.58,2.39-2.37.06.04.12.08.19.13Z"/>
      <path d="m71.4,53.38c.94-.36,1.88-.73,2.81-1.09.03.08.06.16.09.24-.94.36-1.88.71-2.82,1.07-.03-.07-.06-.15-.08-.22Z"/>
      <path d="m65.58,18.36c.78-.14,1.55-.27,2.33-.41,0,.06.02.12.03.18-.79.08-1.57.15-2.36.23h0Z"/>
      <path d="m36.52,32.42c.61-.65,1.43-.52,2.22-.5-.74.16-1.49.33-2.23.49h.02Z"/>
      <path d="m76.33,49.66c-.49.24-.99.48-1.48.71-.02-.05-.05-.1-.07-.14.49-.25.98-.49,1.47-.74.03.06.05.11.08.17Z"/>
      <path d="m74.91,46.46c-.29.81-1.13.72-1.79.92.61-.3,1.21-.59,1.82-.89l-.03-.03Z"/>
      <path d="m67.42,46.17c.32-.81,1.19-.65,1.77-1,0,0-.03-.02-.03-.02-.25.18-.49.38-.76.54-.32.18-.66.33-.99.49h0Z"/>
      <path d="m74.98,44.71c-.47.37-.94.74-1.41,1.11l-.19-.3c.54-.26,1.09-.53,1.63-.79l-.02-.03Z"/>
      <path d="m65.17,46.37c-.24.68-.87.49-1.38.58.46-.19.92-.39,1.39-.57,0,0,0,0,0,0Z"/>
      <path d="m32.29,43.96c.42.18.83.37,1.41.62q-.76-.04-1.41-.62Z"/>
      <path d="m65.57,18.36c-.63,0-1.25,0-1.88,0,.63,0,1.25,0,1.88,0,0,0,0,0,0,0Z"/>
      <path d="m49.82,49.23h1.22s0,.05,0,.07h-1.22s0-.05,0-.07Z"/>
      <path d="m67.42,46.17c-.75.07-1.49.14-2.24.2,0,0,0,0,0,0,.74-.07,1.49-.14,2.24-.2,0,0,0,0,0,0Z"/>
      <path d="m81.75,38.51c.24-.36.47-.72.71-1.08.08.07.15.13.23.19-.32.29-.64.57-.96.86l.03.03Z"/>
      <path d="m77.65,45.04c.11-.6.62-.74.98-1.05.06.07.11.14.17.21-.39.27-.78.54-1.17.81,0,0,.02.03.02.03Z"/>
      <path d="m44.31,47.71c.44.1.87.19,1.31.29-.47.04-.99.34-1.3-.29h0Z"/>
      <path d="m74.94,46.49c.44-.25.88-.5,1.32-.75l-.02-.03c-.25.58-.7.82-1.32.75,0,0,.03.03.03.03Z"/>
      <path d="m64.01,22.27c-.47.02-.94.04-1.4.06,0-.05,0-.09,0-.14.47.02.94.05,1.41.07,0,0,0,0,0,0Z"/>
      <path d="m82.28,32.01c.15-.36.31-.73.46-1.09.08.05.17.1.25.14-.25.31-.5.61-.74.92l.03.03Z"/>
      <path d="m32.44,22.92c-.29.25-.59.5-.88.76-.05-.08-.11-.16-.16-.25.36-.16.71-.32,1.07-.48l-.02-.03Z"/>
      <path d="m31.54,20.27c-.26.16-.52.32-.79.48-.03-.05-.07-.11-.1-.16.26-.18.52-.35.78-.53.04.07.07.14.11.21Z"/>
      <path d="m76.26,45.74c.46-.23.92-.46,1.39-.7,0,0-.02-.03-.02-.03-.46.23-.92.46-1.39.69,0,0,.02.03.02.03Z"/>
      <path d="m62.13,51.04c-.39.04-.78.09-1.17.13,0-.06,0-.12,0-.19.4.02.79.04,1.19.07,0,0-.02-.01-.02-.01Z"/>
      <path d="m44.31,47.71c-.4.02-.8.05-1.2.07,0-.04,0-.09,0-.13.4.02.79.04,1.19.06,0,0,0,0,0,0Z"/>
      <path d="m36.31,52.78c.32.15.65.31.97.46-.47.09-.82-.04-.95-.49l-.02.03Z"/>
      <path d="m70.68,44.82c-.5.11-1,.22-1.51.33,0,0,.03.02.02.02.5-.11,1-.22,1.5-.33,0,0-.02-.02-.02-.02Z"/>
      <path d="m22.02,36.52h.56s0,.03,0,.04h-.56s0-.03,0-.04Z"/>
      <path d="m36.51,32.41c-.41.02-.82.04-1.23.06,0-.06,0-.12,0-.18.41.04.82.09,1.23.13,0,0-.01,0-.01,0Z"/>
      <path d="m82.25,31.98c-.15.3-.31.6-.46.9-.08-.06-.15-.11-.23-.17.24-.24.48-.47.72-.71l-.03-.03Z"/>
      <path d="m59.66,51.37h-.5s0-.04,0-.07l.52-.03s-.01.06-.02.1Z"/>
      <path d="m37.59,9.62c5.42-2.94,13.07-5.12,20.22-3.9-3.49-.04-6.94.22-10.37.87-3.41.64-6.57,2-9.85,3.03Z"/>
      <path d="m49.26,4.07c5.97-1.3,11.74-.5,17.46,1.81-2.97-.58-5.82-1.17-8.68-1.68-2.91-.52-5.84-.23-8.77-.13Z"/>
      <path d="m32.5,9.49c.09-.17.13-.4.27-.51,2.7-2.07,5.67-3.55,9.08-4.07-3.39.98-6.43,2.68-9.38,4.55l.03.03Z"/>
      <path d="m47.31,2c3.07-.53,6.17-.89,9.3,0h-9.3Z"/>
      <path d="m35.71,8.8c-2.18,1.58-4.2,3.05-6.23,4.52,1.74-1.89,3.72-3.45,6.23-4.52Z"/>
      <path d="m66.65,7.5c-1.33-.24-2.66-.49-4.09-.75,1.17-.35,2.78-.09,4.09.75Z"/>
      <path d="m32.47,9.46c-.23.21-.46.43-.69.64-.05-.08-.1-.16-.15-.23.29-.13.58-.25.86-.38,0,0-.03-.03-.03-.03Z"/>
    </g>
  </g>
</svg>