<?xml version="1.0" encoding="UTF-8"?>
<svg id="Layer_2" data-name="Layer 2" xmlns="http://www.w3.org/2000/svg" viewBox="0 0 101.14 164.86">
  <g id="objects">
    <g>
      <path d="m17.85,98.11c-.42.36-.78.66-1.11.98-.34.33-.74.45-1.21.51-1.13.14-2.21.04-3.27-.4-.36-.15-.74-.25-1.12-.32-.37-.07-.85-.25-1.11-.1-.55.33-1.04.81-1.45,1.31-.19.23-.12.66-.17,1.02-.56-.22-.83-.54-.75-1.06.06-.39.23-.83.48-1.12.91-1.06,2.06-1.86,3.31-2.44.56-.26,1.28-.23,1.93-.24.52-.01,1.04.1,1.67.17-.35-.95-.54-1.8-1.4-2.29-.1.04-.22.07-.32.14-.83.62-1.71.6-2.65.27-1.63-.56-3.3-.9-5.03-.91-.81,0-1.62-.13-2.43-.12-1.05,0-2.02.23-2.69,1.16-.06.09-.29.14-.38.09-.1-.05-.15-.24-.17-.37-.01-.11.04-.25.1-.34.88-1.21,1.45-2.62,2.52-3.72.67-.69,1.32-1.02,2.31-.81.78.17,1.61.09,2.41.19.86.11,1.71.28,2.55.45.41.08.79.24,1.28.4.03-1.26-.02-2.43-.35-3.55-.46-1.57-.47-3.2-.64-4.81-.06-.56.06-1.15-.07-1.68-.22-.92-.75-1.67-1.45-2.34-2.13-2.01-3.67-4.37-4.02-7.35-.16-1.35.11-2.66.83-3.8.72-1.14,1.59-2.18,2.7-2.99.58-.42,1.1-.94,1.56-1.49,1.08-1.27,1.29-2.81,1.24-4.4-.03-1.02-.18-2.03-.27-3.05-.11-1.35-.25-2.69-.32-4.04-.13-2.46-.75-4.8-1.56-7.1-1.08-3.07-1.47-6.22-1.46-9.47,0-1.48-.38-2.97-.68-4.44-.21-.99-.55-1.96-.89-2.93-.73-2.11-1.18-4.28-1.36-6.51-.2-2.57-.45-5.15-.7-7.72-.13-1.31-.32-2.62-.43-3.94-.19-2.29.07-4.56.41-6.82.03-.18.07-.35.12-.53C4.19.41,4.55.07,5.83,0c.59-.03,1.2.04,1.78.17.94.21,1.86.5,2.77.78.84.26,1.69.36,2.58.3.97-.07,1.32.14,1.39,1.09.1,1.37.08,2.75.03,4.13-.06,1.68-.25,3.35-.31,5.03-.07,2,.31,3.94.87,5.85.97,3.32,2.3,6.5,3.81,9.61.8,1.64,1.53,3.32,2.31,4.98.19.41.42.8.66,1.18.88,1.38,1.44,2.88,1.93,4.44.77,2.46,1.17,5.05,2.31,7.38,1.46,2.97,3.53,5.48,6.04,7.7.15-.09.29-.14.39-.24.56-.5,1.22-.63,1.93-.51,1.04.16,2.09.28,3.1.55.86.23,1.76.52,2.48,1.01,2.18,1.49,4.36,2.99,6.16,4.96.26.29.56.55.79.86,1.83,2.38,3.8,4.65,5.47,7.15,1.26,1.88,2.95,3.29,4.99,4.28.9.44,1.8.36,2.73.19.22-.04.45-.08.7-.13-.13,1.16-1.56,1.88-3.43,1.73,1.22.76,2.27,1.54,3.6,1.84,1.53.34,3,.85,4.4,1.57,1.34.68,2.79,1.16,4.05,1.96,2.3,1.46,4.52,3.06,6.73,4.67,1.45,1.06,2.84,2.21,4.2,3.39,5.79,5,10.77,10.71,14.62,17.35,2.1,3.62,3.8,7.44,5.08,11.42.96,2.99,1.24,6.12,1.12,9.26-.12,3.06-.32,6.12-1.03,9.11-.72,3-1.46,6.01-2.34,8.97-.82,2.75-2.17,5.27-3.96,7.53-.8,1.01-1.63,2-2.45,3-1.33,1.63-3.08,2.64-4.98,3.45-.91.39-1.81.8-2.69,1.25-1.6.82-3.2,1.64-4.78,2.51-2.05,1.13-4.08,2.3-6.09,3.49-1.34.79-2.81,1.25-4.31,1.53-.77.14-1.6-.06-2.4-.12-.44-.03-.89-.15-1.33-.15-2.1.03-4.19.13-6.29-.17-2.4-.34-4.7-.96-6.84-2.13-3.02-1.65-5.69-3.8-8.33-5.98-1.96-1.62-3.56-3.55-5.16-5.51-2.88-3.55-5.42-7.34-7.91-11.17-.51-.78-.99-1.59-1.35-2.44-1.39-3.29-2.98-6.49-3.94-9.95-.72-2.6-1.61-5.16-2.31-7.76-.62-2.32-1.07-4.68-1.62-7.02-.22-.93-.46-1.87-.78-2.77-.73-2.08-1.16-4.22-1.53-6.39-.28-1.66-.55-3.31-.85-5.15Zm28.7-10.78c-.07-.09-.15-.19-.22-.28-.23-.27-.6-.52-.29-.92.28-.35.65-.2.99-.05.27.12.54.26.82.36.3.1.61.17.92.25.02-.07.04-.13.07-.2-1.01-.42-2.02-.85-3.03-1.25-4.05-1.6-8.16-3.07-11.59-5.89-.16-.13-.32-.27-.63-.54,2.02,1.08,3.8,2.14,5.67,3.01,2.23,1.04,4.53,1.91,6.79,2.9,1.15.5,2.37.95,3.38,1.67.9.64,1.68.57,2.54.3.22-.45.09-.76-.18-1.05-.62-.67-1.07-1.42-.97-2.4-.26.54-.52,1.06-.21,1.63.26.48.56.94.86,1.43-.74.17-.91.15-1.33-.2-.86-.71-1.05-1.63-.78-2.71-.7-.41-1.34-.91-2.06-1.16-1.6-.57-3.07-1.36-4.49-2.27-1.64-1.05-3.33-2.1-4.39-3.79-.81-1.29-1.6-2.62-2.19-4.02-.66-1.55-1.34-3.08-2.36-4.44-.02-.03.01-.1.03-.24,1.08,1.16,2.02,2.33,2.73,3.71.66,1.28,1.35,2.55,2.11,3.77.46.73,1.02,1.42,1.63,2.03,1.51,1.49,3.29,2.63,5.16,3.58,1.38.7,2.9,1.15,3.92,2.57.14-.28.21-.42.33-.65-.76-.52-1.49-1.03-2.22-1.54-.1-.07-.23-.15-.25-.24-.21-1-.96-1.7-1.39-2.57-.52-1.03-1.15-1.95-2.29-2.39-.08-.03-.14-.11-.22-.16-1.93-1.34-3.23-3.2-4.31-5.23-.1-.19-.15-.4-.23-.6,1.6,1.95,2.98,4.07,5.39,5.34-.2-.71-.24-1.34-.83-1.75-.16-.11-.23-.35-.35-.52-1.27-1.82-2.44-3.72-3.85-5.43-1.83-2.22-3.87-4.27-5.81-6.4-.22-.24-.56-.43-.54-.93,3.99,3.56,7.88,7.08,10.35,11.92.06-.15.1-.21.09-.25-.35-1.26-.64-2.49-1.47-3.61-1.59-2.16-3.32-4.18-5.19-6.09-1.76-1.8-3.47-3.65-5.2-5.49-.15-.16-.26-.36-.38-.54.32.12.53.32.74.52.7.66,1.36,1.36,2.11,1.96,1.79,1.43,3.39,3.05,4.99,4.68,1.02,1.03,1.9,2.16,2.61,3.43.11.2.25.38.37.58-.13-1.19-.12-2.4-1.11-3.27-.4-.35-.74-.78-1.1-1.19-.12-.13-.2-.29-.3-.43.45.26.81.57,1.19.87.13.1.29.24.44.24.4.02.8,0,1.19-.05.8-.1,1.54.1,2.27.42,1.95.84,3.7,1.98,5.25,3.44.33.31.76.54.99.91.82,1.35,2.32,1.69,3.5,2.51-.14-.27-.34-.47-.56-.65-1-.86-2.07-1.65-3-2.58-1.19-1.18-2.27-2.47-3.43-3.69-1.86-1.97-3.72-3.92-5.6-5.86-.39-.41-.81-.82-1.28-1.13-1.55-1.03-3.18-1.92-5.01-2.39-.84-.22-1-.17-1.24.63-.04.15-.05.32-.09.54-.25-.14-.45-.23-.6-.36-1.24-1-2.53-1.94-3.68-3.03-2.21-2.09-3.92-4.55-4.89-7.45-.49-1.45-.86-2.94-1.34-4.39-.61-1.82-1.03-3.71-2.01-5.39-.66-1.14-1.31-2.29-2-3.42-2.06-3.4-3.85-6.92-5.14-10.69-.25-.74-.52-1.48-.78-2.21-.08.66-.08,1.31.1,1.9.82,2.62,1.02,5.36,1.63,8.02.43,1.87.76,3.75,1.47,5.56.7,1.78,1.49,3.55,1.74,5.48.1.8.28,1.6.49,2.38.65,2.34,1.4,4.66,1.98,7.01.33,1.36.8,2.64,1.51,3.83.99,1.68,1.97,3.38,3.7,4.45.37.23.67.6.98.92,1.51,1.58,2.53,3.49,3.57,5.39.09.17.12.37.25.76-.44-.28-.75-.41-.97-.64-.97-.99-1.94-1.97-2.84-3.01-.88-1.03-1.71-2.09-2.88-2.82-.17-.11-.33-.27-.46-.43-2.01-2.37-3.69-4.89-4-8.1-.02-.18-.07-.35-.11-.53-.33-1.65-.79-3.28-.95-4.95-.16-1.7-.75-3.21-1.5-4.68-1.29-2.53-2.12-5.23-2.98-7.91-.62-1.93-.94-3.97-1.33-5.97-.48-2.44-1.16-4.85-1.22-7.36,0-.12-.02-.24-.05-.36-.43-1.78-.37-3.58-.11-5.37.19-1.31.31-2.62.14-3.94-.07-.59-.1-1.2-.08-1.8.01-.68-.03-1.38.45-2.04-.05.83-.09,1.59-.13,2.35.06,0,.12,0,.19.01.32-1.48.34-2.98.33-4.43-1.06-.19-2.09-.36-3.11-.57-1.09-.22-2.16-.52-3.25-.72-.42-.08-.87,0-1.36,0-.08.77-.16,1.42-.23,2.08-.25,2.67-.16,5.34.13,8,.27,2.48.7,4.94,1.03,7.41.32,2.44.53,4.9,1.27,7.26.19.6.36,1.21.5,1.82.56,2.47.85,4.97.81,7.5-.01.78.05,1.56.09,2.34.11,2.16.77,4.18,1.54,6.18.95,2.48,1.66,5.01,1.88,7.67.07.84.17,1.67.28,2.51.18,1.37.48,2.7,1.23,3.91.47.75.76,1.63,1.04,2.48.16.5.18,1.06.18,1.6,0,1.23-.63,2.09-1.72,2.63-.27.13-.53.28-.78.44-.82.48-1.62,1.03-2.47,1.44-.92.45-1.76.97-2.19,1.91-.87,1.91-1.1,3.89-.09,5.82.54,1.03,1.16,2.04,1.88,2.95.78,1,1.32,2.06,1.6,3.28.06.25.16.48.24.72.17-1.11.22-2.19.15-3.26-.06-1.07-.24-2.14-.39-3.39.21.24.31.32.35.42.13.27.26.54.34.83.63,2.24.44,4.52.29,6.8-.01.17-.1.34-.17.51q-.3.69.07,1.57c.25-1.03.55-1.94.67-2.88.21-1.6.41-3.22.04-4.83-.34-1.46-.71-2.92-1.02-4.38-.3-1.4-.04-2.72.7-3.94.04.15,0,.28-.04.41-.46,1.31-.61,2.63-.2,3.98.21.69.41,1.38.65,2.06.91,2.52,1.1,5.08.43,7.69-.03.11-.01.23-.01.34.64-1.16,1.1-2.38,1.22-3.66.12-1.26.06-2.53.08-3.95.21.54.45.96.55,1.41.29,1.3.49,2.62.14,3.93-.56,2.15-1.16,4.28-1.79,6.41-.62,2.11-.02,3.99.95,5.82-.46-1.52-.64-3.1-.24-4.61.53-2.02,1.29-3.98,2.02-6.17-.01.35,0,.5-.02.63-.29,1.13-.55,2.28-.91,3.39-.71,2.19-.59,4.32.35,6.4.52,1.15,1.4,2.14,1.58,3.51.64-.36.96-.83,1.07-1.4.12-.61.23-1.25.22-1.87-.03-2.21.15-4.36,1.09-6.42.68-1.5.99-3.09.57-4.74-.12-.46-.26-.92-.36-1.39-.16-.76-.31-1.53-.43-2.3-.03-.21.05-.44.08-.68.98.2,1.66.64,2.29,1.29.91.95,1.92,1.82,2.92,2.68.33.28.76.5,1.18.63,1.19.36,2.14,1.06,2.97,1.96.53.58,1.02,1.18,1.58,1.73,1.4,1.37,2.91,2.61,4.78,3.31.49.18,1.04.27,1.56.25.56-.02,1.11-.22,1.67-.34,1.1-.25,2.08-.05,2.94.71.54.48,1.06,1.02,1.67,1.36,1.57.87,3.19,1.68,4.81,2.45.93.44,1.92.45,3.09.14-1.56-.95-2.97-1.8-4.38-2.65-2.64-1.58-5.44-2.82-8.3-3.9-3.41-1.29-6.48-3.11-9.2-5.55-2.45-2.2-4.66-4.59-6.01-7.66-.08-.19-.14-.39-.21-.59.48.31.82.68,1.14,1.07,1.41,1.72,2.84,3.4,4.49,4.91,2.69,2.46,5.69,4.43,9.02,5.86,3.98,1.71,7.8,3.71,11.57,5.84.17.09.35.15.55.23.18-1.1-.17-1.89-1.09-2.42-.39-.23-.74-.51-1.11-.77-.12-.12-.25-.23-.37-.35Zm49.43,51.15c.4-.85.79-1.44.45-2.28-1.04-2.6-2.22-5.12-3.53-7.59-1.28-2.41-2.62-4.8-3.97-7.17-1.7-2.97-3.44-5.92-5.16-8.87-.17-.29-.32-.58-.48-.87-1.05-1.92-2.11-3.84-3.16-5.76-.16-.29-.31-.58-.47-.87,1.3,1.49,2.39,3.1,3.31,4.82.48.9.97,1.79,1.5,2.67.82,1.36,1.67,2.71,2.5,4.06.58.95,1.14,1.91,1.71,2.86,1.25,2.08,2.56,4.13,3.75,6.26,1.17,2.09,2.22,4.26,3.32,6.39.11.22.24.42.36.63-.16-1.1-.43-2.14-.8-3.14-1.6-4.28-3.39-8.47-5.55-12.5-.32-.61-.56-1.26-.82-1.9-.05-.13,0-.3,0-.45l.23-.07c1.05,2.09,2.12,4.18,3.13,6.3,1.03,2.17,2.03,4.35,2.92,6.58.86,2.18,1.56,4.42,2.34,6.65.49-.95.76-1.94.49-3.02-.15-.61-.24-1.24-.4-1.85-.61-2.36-1.55-4.6-2.57-6.81-1.48-3.22-2.87-6.47-4.39-9.67-.83-1.76-1.85-3.43-2.77-5.16-.18-.33-.46-.65-.43-1.29.32.38.53.58.69.83,1.59,2.44,3.05,4.96,4.15,7.67.34.83.74,1.64,1.11,2.46,1.68,3.72,3.49,7.38,4.71,11.29.17.55.35,1.11.52,1.66.07,0,.14-.01.21-.02.06-.34.21-.69.16-1.01-.27-1.69-.43-3.42-.92-5.04-1.07-3.53-2.49-6.96-4.13-10.26-2.38-4.79-5.19-9.34-8.55-13.53-1.28-1.59-2.54-3.2-3.81-4.8-.11-.13-.17-.3-.25-.45.4.2.68.47.93.75,3.63,4.05,7.13,8.21,9.89,12.93,1.21,2.07,2.52,4.12,3.44,6.32,1.55,3.68,3.27,7.32,3.89,11.35.13-.86.17-1.71.25-2.57.07-.79-.02-1.54-.35-2.28-.41-.9-.77-1.82-1.14-2.74-.27-.69-.51-1.4-.77-2.1.05-.02.11-.05.16-.07.57,1.02,1.14,2.04,1.71,3.06.07-.03.14-.06.21-.08-.21-1.21-.32-2.45-.66-3.61-1.26-4.22-3.04-8.22-5.24-12.02-3.77-6.51-8.76-12.02-14.41-16.95-1.47-1.28-2.99-2.51-4.55-3.68-1.78-1.33-3.56-2.66-5.45-3.83-1.53-.94-3.22-1.61-4.81-2.44-1.26-.66-2.6-1.09-3.95-1.51-.74-.23-1.42-.61-2.13-.94-.3-.14-.57-.37-.88-.43-1.8-.35-3.27-1.34-4.71-2.37-1.34-.96-2.65-1.97-3.96-2.98-.49-.38-.92-.46-1.47-.14-.96.54-1.27,1.46-1.58,2.38,1.76,2.43,3.98,4.42,5.59,6.92-1.22-.76-2.13-1.82-3.04-2.88-.91-1.04-1.75-2.14-2.72-3.34-.07,1.45.19,2.66,1.05,3.66,1,1.16,2.09,2.24,3.12,3.37.3.33.53.73.8,1.1-1.47-.79-2.29-2.21-3.51-3.23.91,1.83,1.86,3.61,3.45,4.93.74-.35,1.41-.68,2.09-.98.61-.27.9-.06.88.61,0,.15-.05.3-.05.45.01.59,0,1.19.06,1.78.07.81.25,1.61.26,2.41,0,1.02-.22,2.06-1.23,2.54-.71.33-1.02.83-1.28,1.49-.28.71-.34,1.29.34,1.85.41.34.74.87.5,1.44-.44,1.03-.79,1.43-1.85,1.35-.97-.07-1.95-.09-2.97-.13.94,1.59,2.34,2.84,3.25,4.43-.17,0-.29-.03-.38-.1-1.4-1.08-2.51-2.41-3.4-3.93-.11-.2-.07-.49-.11-.81-.6-.28-1.3-.58-1.96-.92-1.59-.83-3.35-1.35-4.73-2.58-.62-.55-1.34-.77-2.16-.69-1.74.16-3.33-.25-4.8-1.18-.51-.32-1.03-.63-1.51-.98-1.01-.75-2.03-1.49-3-2.3-1.15-.97-2.51-1.27-3.93-1.31-1.55-.05-2.51,1.13-2.22,2.64.23,1.18.47,2.35.7,3.53.15.77.3,1.53.43,2.3.03.2-.03.42-.06.68-.62-.23-.59-.71-.67-1.09-.25-1.17-.47-2.36-.71-3.53-.06-.3-.15-.59-.22-.88-.08,0-.15.01-.23.02-.1.82-.37,1.66-.27,2.45.26,1.96.7,3.9,1.07,5.84.24,1.23.48,2.46.73,3.69-.53-1.41-.95-2.85-1.28-4.3-.33-1.43-.57-2.89-.88-4.49-.94,2.05-1.34,4.04-1.66,6.05-.09.58-.12,1.2-.04,1.79.18,1.34.45,2.66.66,4,.39,2.46.91,4.9,1.71,7.27.18.54.31,1.1.42,1.66.46,2.24.83,4.49,1.36,6.71.55,2.27,1.29,4.5,1.89,6.76,1.16,4.36,3.22,8.33,5.17,12.35.21.43.48.83.75,1.23,2.47,3.7,4.88,7.43,7.77,10.82,1.09,1.28,2.11,2.64,3.33,3.79,2.36,2.22,4.92,4.23,7.62,6.03,2.24,1.5,4.61,2.73,7.29,3.2,1.27.22,2.56.36,3.84.48.64.06,1.29,0,2.12-.01-.82-.96-1.76-1.57-2.29-2.55.63-.05,1.12.25,1.58.54,1.5.94,3.12,1.54,4.85,1.83.23.04.47.08.71.07,1.53-.07,2.91-.69,4.28-1.31.1-.04.17-.15.34-.31-1.97-.34-3.67-1.15-5.34-2.01-2.26-1.15-4.3-2.64-6.32-4.14-1.3-.96-2.46-2.11-3.66-3.2-.29-.26-.48-.64-.72-.96.06-.05.11-.1.17-.15,1.65,1.36,3.24,2.79,4.96,4.05,1.74,1.28,3.57,2.45,5.43,3.54,1.86,1.1,3.89,1.86,6.04,2.5.28-.23.6-.5.99-.82-.63-.28-1.17-.52-1.71-.78-4.57-2.23-8.63-5.2-12.47-8.51-2.68-2.31-5.11-4.82-7.01-7.81-.11-.17-.19-.35-.29-.53l.17-.12c2.81,3.78,6.38,6.76,9.97,9.73,3.61,2.98,7.63,5.3,11.69,7.58,1.06-.89,2.1-2.49,2.48-3.7.14-.45.05-.78-.2-1.16-2.44-3.78-4.78-7.63-6.76-11.68-.08-.16-.1-.34-.14-.51.75.57,1.13,1.35,1.57,2.08.45.75.92,1.48,1.39,2.21.46.74.93,1.47,1.39,2.21.46.74.9,1.49,1.35,2.24.44.72.81,1.48,1.33,2.14.07-.03.13-.05.2-.08-.16-1.13-.33-2.27-.5-3.47.63.3.99.85,1.4,1.35.65.78,1.32,1.56,2.02,2.3.71.74,1.6.78,2.57.63-.6-1.58-1.15-3.05-1.71-4.52.07-.03.13-.07.2-.1.18.32.41.62.55.95.42,1,.8,2,1.21,3.01.09.21.21.41.34.68,1.53-.65,3.05-1.18,4.32-2.22-.12-.87-.18-1.68-.36-2.47-.53-2.22-1.09-4.44-2-6.54-1.11-2.53-2.32-5.01-3.4-7.55-1.87-4.4-4.61-8.27-7.18-12.26-.1-.15-.18-.31-.27-.47.52.4.94.87,1.33,1.36.66.86,1.26,1.76,1.95,2.59,1.6,1.97,2.94,4.09,4,6.4,1.08,2.38,2.13,4.77,3.31,7.1.9,1.78,1.72,3.57,2.24,5.49.52,1.92,1.26,3.81.83,6.06.43-.33.68-.53.94-.72.59-.43.83-.97.65-1.71-.45-1.83-.73-3.72-1.32-5.5-.74-2.22-1.72-4.35-2.59-6.52-.14-.35-.28-.7-.48-1.18.84.59,2,2.86,3.45,6.37.93,2.26,1.23,4.65,1.56,7.04.07.01.13.03.2.05.5-.71,1-1.42,1.62-2.31-2.45-7.79-6.32-15.24-10.57-22.53,2.55,3.3,4.46,6.99,6.41,10.65,1.96,3.68,3.27,7.64,4.83,11.58.75-.83,1.22-1.73,1.6-2.68.09-.22.03-.53-.06-.77-.46-1.24-.94-2.47-1.43-3.69-.48-1.18-1-2.36-1.5-3.53,1.44,1.93,2.57,4,3.35,6.53.1-.26.13-.34.16-.42.26-.95.54-1.91.77-2.87.05-.21.01-.48-.06-.69-.25-.68-.49-1.36-.8-2-1.66-3.46-3.34-6.92-5.01-10.38-.12-.24-.22-.49-.34-.74.07-.03.14-.07.21-.1,1.19,2.01,2.35,4.04,3.57,6.03,1.24,2.03,2.08,4.23,2.85,6.64ZM1.37,92.91c1.81-.68,3.53-.66,5.23-.76,1.47-.09,2.85.3,4.18.89.33.14.66.3,1,.4.44.13.87.09,1.21-.19-.36-.99-.69-1.91-1.02-2.81q-.25.91-1.21.72c-.53-.1-1.06-.21-1.59-.32-.56-.11-1.12-.34-1.67-.32-1.01.04-1.97-.09-2.91-.45-.47-.18-.91-.11-1.26.22-.75.72-1.47,1.48-1.97,2.63Zm9.54,4.99c.74.16,1.44.34,2.13.47.76.14,1.53.29,2.29.34,1.18.07,2.13-.81,2.3-2.07-1.21,1.11-2.55,1.28-4.01.67-.16-.07-.34-.11-.52-.15-.86-.2-1.58.03-2.2.73Zm1.11-12.65s-.09-.03-.14-.04c-.04.11-.09.22-.12.34,0,.01.13.06.2.09.02-.13.04-.25.06-.38Z"/>
      <path d="m90.33,86.39c-.15-.24-.31-.4-.31-.55,0-.11.27-.33.34-.3.15.07.32.24.36.39.02.09-.19.24-.38.46Z"/>
      <path d="m46.92,87.68c-.11.41-.4.39-.71.3-.45-.14-.92-.26-1.35-.47-.93-.44-1.85-.93-2.8-1.42.32-.49.66-.27.93-.18.86.32,1.71.69,2.57,1.04.33.13.67.25,1,.37.12.12.25.23.37.35Z"/>
      <path d="m23.51,109.16c.49.83.56,1.75.73,2.65.61,3.37,1.22,6.73,2.3,9.99,1,3.02,2.2,5.96,3.4,8.91,1.7,4.2,3.86,8.13,6.24,11.95,1.62,2.6,3.33,5.14,5.58,7.26,1.68,1.59,3.27,3.27,4.93,4.88,2.1,2.05,4.49,3.7,7.11,5.01.1.05.2.12.23.33-.58-.25-1.19-.46-1.75-.75-2.72-1.38-5.27-3.01-7.41-5.21-1.97-2.02-3.94-4.04-5.81-6.16-1.11-1.26-2.07-2.65-3-4.05-1.86-2.8-3.56-5.7-5.04-8.72-.62-1.26-1.07-2.61-1.66-3.89-1.38-3.04-2.48-6.18-3.5-9.35-.79-2.43-1.29-4.93-1.7-7.45-.26-1.6-.43-3.21-.64-4.82-.02-.19,0-.39-.01-.59Z"/>
      <path d="m76.08,148.34c-.82-.61-1.5-1.37-2.05-2.23-1.27-2-2.53-4.01-3.71-6.06-1.18-2.05-2.25-4.17-3.4-6.24-1.17-2.09-2.38-4.17-3.59-6.24-1.77-3.03-3.49-6.1-5.34-9.08-2.37-3.82-4.77-7.63-7.54-11.2-.68-.88-1.27-1.82-1.92-2.72-1.23-1.7-2.47-3.4-3.7-5.1-.17-.23-.3-.49-.35-.82.13.14.26.26.37.41,2.53,3.31,5.11,6.6,7.58,9.96,1.8,2.44,3.45,4.98,5.17,7.48,3.02,4.38,5.66,8.99,8.32,13.59,1.7,2.93,3.14,6.01,4.79,8.97,1.52,2.72,3.18,5.37,4.78,8.04.23.38.49.74.73,1.11-.05.04-.1.09-.15.13Z"/>
      <path d="m71.25,161.87c-.52.44-1.08.41-1.57.23-1.75-.62-3.54-1.16-5.21-1.96-4.65-2.23-8.65-5.41-12.32-8.97-2.04-1.98-3.98-4.09-5.51-6.52-1.04-1.65-2.12-3.28-3.18-4.91-.92-1.41-1.48-2.99-2.03-4.58.26.42.57.83.76,1.28,1.15,2.61,2.81,4.88,4.49,7.15,3.86,5.2,8.51,9.61,13.79,13.34,2.03,1.44,4.27,2.56,6.56,3.55,1.25.54,2.5,1,3.84,1.23.11.02.2.09.37.16Z"/>
      <path d="m74.61,85.71c.59.39,1.25.71,1.77,1.18,2.87,2.6,5.73,5.22,8.54,7.89.98.93,1.81,2,2.68,3.04,1.3,1.57,2.6,3.15,3.85,4.76,2.88,3.69,5.2,7.7,6.76,12.14.21.59.43,1.18.63,1.78.07.21.1.43,0,.69-.17-.37-.37-.74-.52-1.12-1.6-4.11-3.8-7.89-6.28-11.52-1.1-1.61-2.41-3.07-3.58-4.63-2.76-3.71-6.02-6.93-9.42-10.03-1.47-1.33-2.91-2.69-4.36-4.03-.04-.03-.03-.11-.05-.16v.02Z"/>
      <path d="m43.65,94.66c.08.09.16.18.24.27,2.48,2.69,4.96,5.39,7.45,8.07,2.2,2.38,4.44,4.72,6.63,7.11,2.49,2.72,5.01,5.42,7.21,8.4.96,1.3,2.1,2.47,3.06,3.78,1.2,1.65,2.29,3.38,3.42,5.07.09.14.16.3.15.53-.13-.13-.28-.24-.39-.39-.96-1.26-1.91-2.54-2.89-3.8-.89-1.14-1.8-2.24-2.71-3.36-.3-.37-.64-.72-.92-1.11-2.43-3.45-5.43-6.41-8.2-9.56-1.9-2.17-3.83-4.3-5.76-6.45-2.02-2.25-4.06-4.5-6.08-6.76-.4-.45-.78-.92-1.15-1.38-.08-.1-.12-.23-.17-.35.04-.03.08-.06.12-.08Z"/>
      <path d="m74.51,127.46c.14.21.3.41.43.62.33.57.65,1.15.99,1.72,1.47,2.44,2.93,4.89,4.43,7.31,1.24,2,2.24,4.11,3.02,6.32.85,2.4,1.87,4.75,2.41,7.25.19.87.2,1.03,0,1.7-.43-.17-.45-.58-.57-.93-1.15-3.32-2.29-6.64-3.45-9.95-.14-.4-.3-.79-.5-1.16-1.57-2.84-3.15-5.66-4.72-8.5-.7-1.26-1.4-2.52-2.09-3.78-.08-.15-.1-.33-.15-.49.07-.04.13-.08.2-.12Z"/>
      <path d="m47.62,71.64c3.22,2.55,6.41,5.14,9.67,7.64,1.5,1.15,3.11,2.15,4.72,3.14,2.1,1.29,4.09,2.72,6,4.28.1.08.18.19.2.39-.6-.31-1.23-.58-1.8-.95-4.1-2.66-8.34-5.13-12.13-8.24-2.11-1.73-4.06-3.65-6.07-5.49-.24-.22-.43-.49-.64-.74.02,0,.03-.01.05-.02Z"/>
      <path d="m61.02,77.91c.66.45,1.31.91,1.97,1.36,3.01,2.09,6.03,4.16,9.02,6.27,2.59,1.82,4.91,3.95,6.98,6.34.18.21.3.48.44.72-.04.04-.09.09-.13.13-.34-.21-.72-.39-1.02-.65-.97-.85-1.94-1.7-2.86-2.6-2.27-2.21-4.86-3.99-7.41-5.86-2.23-1.63-4.37-3.38-6.54-5.08-.2-.15-.36-.35-.54-.53.03-.04.06-.07.09-.11Z"/>
      <path d="m55.26,117.69c-.52-.65-1.1-1.26-1.54-1.96-2.56-4.07-5.52-7.85-8.41-11.68-.34-.46-.69-.91-1.02-1.38-1.11-1.6-2.22-3.21-3.32-4.82-.4-.59-.76-1.2-1-1.9.11.11.25.2.34.32,1.41,1.91,2.82,3.81,4.22,5.72.16.22.31.45.47.66,2.2,2.89,4.4,5.78,6.59,8.68.5.67.95,1.39,1.4,2.1.76,1.22,1.51,2.46,2.25,3.69.09.14.15.31.22.46-.07.04-.14.08-.21.13Z"/>
      <path d="m73.15,156.89c-.7.1-1.05-.2-1.4-.45-1.08-.76-2.14-1.55-3.22-2.32-1.05-.75-2.09-1.51-3.18-2.21-2.6-1.68-4.84-3.75-6.9-6.03-.47-.52-.91-1.07-1.1-1.79,1.66,1.48,3.29,3,4.99,4.44,1.72,1.45,3.53,2.79,5.27,4.22,1.73,1.42,3.8,2.39,5.53,4.15Z"/>
      <path d="m57.19,159.62c-.95-.49-1.91-.97-2.86-1.46-3.55-1.82-6.49-4.41-9.18-7.3-1.45-1.56-2.9-3.13-4.21-4.8-.92-1.17-1.6-2.53-2.39-3.8-.09-.15-.13-.32-.2-.48.05-.03.1-.07.15-.1.24.34.52.66.72,1.02,1.84,3.17,4.39,5.77,6.92,8.37.71.73,1.43,1.46,2.18,2.15,2.29,2.09,4.77,3.92,7.51,5.39.5.27.98.57,1.47.86-.04.06-.08.11-.12.17Z"/>
      <path d="m84.29,152.97c-.22-.61-.44-1.23-.68-1.84-.92-2.35-1.83-4.7-2.77-7.03-.22-.55-.53-1.08-.82-1.6-1.93-3.53-3.87-7.05-5.8-10.58-.19-.34-.35-.69-.43-1.11.15.17.32.33.44.53,1.03,1.65,2.1,3.29,3.07,4.98,1.17,2.02,2.36,4.05,3.39,6.15,1.55,3.18,2.88,6.47,3.67,9.94.04.17.05.35.08.53-.05.01-.1.03-.15.04Z"/>
      <path d="m49.89,151.62c-.3-.24-.61-.47-.91-.71-2.26-1.87-3.96-4.25-5.88-6.43-1.9-2.17-3.15-4.73-4.58-7.19-1.2-2.06-2.09-4.24-2.74-6.53-.09-.31-.16-.63-.15-.98.16.4.34.8.48,1.21.81,2.46,1.96,4.76,3.29,6.98.52.87,1,1.77,1.5,2.66,1.01,1.79,2.45,3.25,3.71,4.85,1.6,2.02,3.28,3.98,5.21,5.71.08.07.13.18.19.28-.04.05-.08.1-.13.15Z"/>
      <path d="m68.47,127.04c3.61,3.45,11.03,16.25,11.66,19.24-1.85-3.25-3.63-6.54-5.57-9.73-1.94-3.2-4.04-6.31-6.1-9.51Z"/>
      <path d="m86.33,103.68c-2.33-2.57-4.59-5.22-7.01-7.7-2.42-2.48-5-4.79-7.56-7.23.15-.01.22-.04.24-.02,2.75,2.28,5.55,4.5,8.03,7.08,2.04,2.12,4.1,4.22,5.74,6.68.24.37.45.76.67,1.14-.04.02-.08.04-.11.06Z"/>
      <path d="m47,140.2c.39.51.69.88.97,1.27,1.67,2.36,3.61,4.48,5.72,6.45.37.35.73.72,1.07,1.1.15.17.24.39.42.7-.3,0-.48.05-.61-.02-.26-.14-.52-.3-.74-.51-2.61-2.42-4.92-5.08-6.59-8.25-.07-.13-.14-.27-.2-.4-.02-.05-.01-.11-.03-.35Z"/>
      <path d="m61.57,108.3c-.16-.16-.33-.32-.48-.49-2.66-2.96-5.33-5.92-7.98-8.89-.58-.65-1.09-1.35-1.61-2.04-.15-.2-.25-.45-.28-.77.09.05.19.07.25.14,2.12,2.32,4.29,4.6,6.35,6.97,1.28,1.46,2.41,3.05,3.61,4.58.1.13.17.28.25.42l-.1.08Z"/>
      <path d="m58.58,122.6c1.73,2.29,9.04,14.94,9.48,16.35-.77-.65-8.94-14.67-9.48-16.35Z"/>
      <path d="m67.52,148.86c.15.08.24.11.29.17,2.08,2.26,4.54,4.1,6.9,6.04.5.41,1.05.78,1.35,1.43-.43.34-.71.04-.97-.16-.75-.56-1.49-1.12-2.2-1.71-1.83-1.51-3.58-3.1-5-5.03-.11-.14-.22-.29-.32-.44-.03-.04-.02-.11-.06-.3Z"/>
      <path d="m87.64,112.46c-.08-.13-7.33-11.63-7.33-11.63,1.86,1.78,7.17,9.12,7.33,11.63Z"/>
      <path d="m55.16,120.55c-2.85-3.1-4.92-6.73-7.21-10.2,2.74,3.17,5.24,6.5,7.21,10.2Z"/>
      <path d="m63.95,113.4c-1.13-.67-11.4-11.75-11.75-12.61.1.03.2.03.24.08,3.69,3.95,7.37,7.9,11.05,11.86.15.16.25.37.46.68Z"/>
      <path d="m26.53,97.93c-1.91-3.48-2.59-7.25-2.71-11.16l2.71,11.16Z"/>
      <path d="m72.16,150.11c-1.58-.51-7.29-6.4-8.03-8.29,1.08.83,7.75,7.72,8.03,8.29Z"/>
      <path d="m26.47,105.27c-1.08-1.32-2.94-8.19-2.67-9.89.96,3.3,1.92,6.57,2.88,9.85-.07.01-.14.03-.2.04Z"/>
      <path d="m79.74,149.32c-2.08-2.9-3.12-6.34-4.95-9.38,2.27,2.79,3.76,6,4.95,9.38Z"/>
      <path d="m20.29,96.67c.2.2.3.26.31.32.37,3.27,1.34,6.41,2.07,9.65-.47.06-.54-.26-.61-.48-.18-.57-.33-1.15-.46-1.73-.5-2.25-1.16-4.46-1.32-6.78-.02-.28,0-.55,0-.99Z"/>
      <path d="m66.3,148.08c-.28.28-.53.15-.75,0-1.68-1.18-3.08-2.63-4.27-4.31-.04-.06-.02-.16-.05-.32.66.19.94.76,1.38,1.11.44.35.84.76,1.27,1.13.45.39.92.77,1.36,1.17.4.37.99.58,1.05,1.22Z"/>
      <path d="m89.96,133.69c-.69-.38-3.86-6.06-4.22-7.61.5.8,1.01,1.6,1.51,2.4.54.86,1.12,1.7,1.63,2.57.48.82,1.1,1.6,1.08,2.64Z"/>
      <path d="m72.86,125.53c-.86-.59-4.92-5.64-6.52-8.06,1.12.64,6.27,6.94,6.52,8.06Z"/>
      <path d="m83.83,133.51c-1.91-2.48-3.03-5.39-4.47-8.13.26.35.54.69.77,1.06,1.16,1.9,2.3,3.8,3.44,5.7.24.4.51.82.27,1.37Z"/>
      <path d="m29.95,93.97c-1.43-2.63-2.22-5.46-2.91-8.46.53.48,2.83,7.17,2.91,8.46Z"/>
      <path d="m52.45,153.25c3.17,3.06,6.8,5.35,10.94,6.82-2.1-.09-8.94-3.72-10.94-6.82Z"/>
      <path d="m32.58,130.24c.87,3.32,2.82,6.12,4.31,9.28-.23-.07-.39-.08-.5-.17-.11-.09-.17-.24-.24-.37-.94-1.84-1.91-3.67-2.8-5.54-.36-.75-.57-1.58-.83-2.37-.08-.24-.08-.51-.12-.77.06-.02.12-.04.18-.06Z"/>
      <path d="m57.64,76.78c-3.12-1.51-5.86-3.53-8.2-6.1,2.73,2.03,5.46,4.07,8.2,6.1Z"/>
      <path d="m53.19,79.41c2.25,2.01,4.51,4.01,6.89,6.14-1.69-.7-6.45-4.85-6.89-6.14Z"/>
      <path d="m27.04,113.72c-1.15-3.15-1.98-6.39-2.58-9.68,1.04,3.18,1.92,6.4,2.58,9.68Z"/>
      <path d="m63.61,87.89c.99.32,5.62,3.67,6.34,4.63-2.08-1.54-4.39-2.77-6.34-4.63Z"/>
      <path d="m25.49,85.16c.4,1.71.79,3.42,1.19,5.14-.84-.69-1.63-3.9-1.39-5.1.07-.01.14-.03.2-.04Z"/>
      <path d="m30.31,125.06c-.98-1.53-1.96-4.75-2.27-7.5.78,2.58,1.5,4.97,2.27,7.5Z"/>
      <path d="m65.04,78.37c1.59,1.1,3.17,2.21,4.9,3.41-1.03-.11-3.73-1.95-4.9-3.41Z"/>
      <path d="m60.7,162.18c-1.52.04-2.58-.69-3.73-1.13.76-.23,2.95.41,3.73,1.13Z"/>
      <path d="m61.7,80.65c-1.42-.48-2.64-1.24-3.67-2.58.27.08.36.08.42.12,1.09.82,2.17,1.64,3.25,2.45Z"/>
      <path d="m53.92,82.44c.98,1.01,1.96,2.02,2.94,3.03-.06.05-.11.11-.17.16-1.11-.87-2.01-1.94-2.95-2.98.06-.07.12-.14.18-.21Z"/>
      <path d="m76,97.74c-.89-.45-1.63-1.09-2.29-1.84.93.39,1.77.92,2.29,1.84Z"/>
      <path d="m27.37,92.15c.52.87.85,1.81.99,2.82-.64-.82-.89-1.79-.99-2.82Z"/>
      <path d="m23.3,105.19c-.31-1.03-.62-2.06-.94-3.09.57.96.98,1.97,1.21,3.04-.09.02-.18.04-.27.05Z"/>
      <path d="m74.63,85.69c-.28-.16-.56-.33-.83-.49.04-.05.08-.1.11-.16.23.22.47.44.7.67v-.02Z"/>
      <path d="m20.24,71.1c-2.02-1.71-2.6-3.93-2.16-6.46.15-.88.4-1.76.67-2.61.53-1.68.36-3.25-.53-4.76-.25-.43-.5-.87-.82-1.28-.21.99-.14,1.97.22,2.86.47,1.17.35,2.36.33,3.55,0,.46-.19.96-.43,1.35-.79,1.31-1.66,2.57-2.47,3.86-.63,1.02-.86,2.16-.89,3.35,0,.27.01.54.02.82-.4,0-.45-.3-.48-.55-.19-1.52-.11-2.99.75-4.33.91-1.41,1.84-2.81,2.68-4.27.54-.95.63-2.05.14-3.03-.8-1.63-.99-3.29-.82-5.07.06-.69-.08-1.45-.32-2.1-.6-1.62-1.02-3.26-1.12-4.98-.04-.72-.15-1.43-.18-2.15-.02-.53-.03-1.08.06-1.61.16-.99.09-1.94-.43-2.79-1.09-1.77-1.24-3.73-1.21-5.73,0-.56.06-1.12.09-1.68.07,0,.13-.01.2-.02.07.27.17.53.21.81.16,1.07.33,2.14.45,3.21.12,1,.37,1.94.9,2.8.7,1.12.78,2.32.7,3.63-.08,1.42.04,2.88.27,4.29.24,1.47.75,2.9,1.09,4.36.22.95.65,1.8,1.16,2.61.45.71.95,1.4,1.31,2.15.81,1.68,1.08,3.39.38,5.22-.48,1.25-.88,2.55-.95,3.92-.07,1.35.11,2.63.8,3.82.15.25.25.54.37.8Z"/>
      <path d="m7.4,19.7c.29.88.63,1.74.86,2.63.71,2.7,1.42,5.39,2.06,8.11.27,1.13.4,2.31.5,3.47.33,3.94,1.02,7.79,2.49,11.48.62,1.55.84,3.18.99,4.83.11,1.19.27,2.38.43,3.57.04.32.18.63.26.95.23.87.49,1.73.66,2.61.26,1.35.45,2.72.66,4.08.03.16.03.32-.09.53-.13-.25-.32-.48-.39-.75-.26-.92-.52-1.85-.69-2.79-.22-1.19-.4-2.35-1.38-3.23-.32-.28-.47-.83-.55-1.29-.1-.62-.09-1.26-.07-1.88.09-2.29-.27-4.48-1.33-6.54-.96-1.87-1.46-3.88-1.59-5.96-.13-2.07-.19-4.14-.32-6.2-.19-3.16-.87-6.23-1.68-9.29-.38-1.42-.68-2.85-1.02-4.28l.19-.06Z"/>
      <path d="m35.76,67.39c1.1,1.14,1.88,2.45,2.62,3.79,1.52,2.74,3.4,5.16,6.09,6.86.33.21.64.45.93.71.19.17.32.39.48.58-.36.38-.63.2-.88.05-1.89-1.14-3.66-2.38-4.99-4.2-1.03-1.41-1.96-2.87-2.67-4.47-.49-1.12-1.05-2.2-1.57-3.31Z"/>
      <path d="m10.62,5.66c-.64,7.13.53,14.11,1.69,21.13-.14-.28-.32-.54-.41-.83-.27-.95-.59-1.9-.74-2.87-.4-2.67-.72-5.35-1.08-8.03-.35-2.64-.13-5.27.09-7.9.04-.5.17-.99.25-1.49.06,0,.12,0,.18,0Z"/>
      <path d="m35.96,56.06c.13-.45.41-.36.68-.34,1.13.09,2.06.58,2.87,1.36,1.49,1.44,2.97,2.87,4.45,4.33.62.61,1.21,1.25,1.8,1.89.21.23.39.49.58.74-.04.05-.08.09-.12.14-.17-.08-.36-.12-.51-.23-.7-.56-1.42-1.11-2.08-1.71-1.5-1.38-2.97-2.79-4.46-4.19-.77-.72-1.57-1.39-2.63-1.65-.21-.05-.39-.22-.58-.32Z"/>
      <path d="m22.98,45.54c.3.58.67,1.14.89,1.75.99,2.86,2.75,5.25,4.6,7.58.63.8,1.36,1.52,2.04,2.28.16.17.31.35.4.64-.14-.06-.3-.1-.42-.18-3.52-2.22-5.72-5.4-6.83-9.37-.25-.89-.52-1.76-.79-2.65.03-.02.07-.03.1-.05Z"/>
      <path d="m23.01,64.35c-.03.53-.11,1.06-.08,1.58.15,2.6.78,5.02,2.62,7,1.16,1.24,2.19,2.6,3.64,3.55-.04.05-.07.11-.11.16-.37-.22-.77-.41-1.12-.66-1.43-1.01-2.64-2.26-3.78-3.59-.15-.18-.3-.38-.4-.59-.94-1.85-1.5-3.79-1.33-5.88.04-.54.25-1.08.38-1.61.06.01.12.03.18.04Z"/>
      <path d="m29.52,78.55c3.62,2.32,7.4,4.36,11.2,6.34.04.02.04.1.06.16-1.94.02-9.81-4.47-11.26-6.5Z"/>
      <path d="m6.03,2.37c-.5,3.76-.1,7.37.51,11.16-1.11-2.01-1.56-10.14-.51-11.16Z"/>
      <path d="m19.64,34.11c1.42,2.95,2.83,5.91,3.62,9.11-.46-.43-3.27-7.56-3.62-9.11Z"/>
      <path d="m37.32,58.72c.58.21,1.25.31,1.73.66,1.33.96,2.58,2.03,3.85,3.06.13.11.2.28.22.57-.27-.12-.57-.21-.82-.38-.49-.34-.97-.7-1.42-1.09-1.09-.92-2.09-1.97-3.44-2.55-.07-.03-.08-.19-.12-.3v.02Z"/>
      <path d="m30.85,75.32c-3.12-1.17-5.44-4.16-5.2-6.83.71,3.23,2.8,5.15,5.2,6.83Z"/>
      <path d="m44.32,82.61c.45.09.93.1,1.34.28.95.41,1.88.9,2.81,1.37.18.09.34.25.45.42.16.22-.01.52-.29.47-.23-.04-.46-.12-.67-.24-.54-.32-1.06-.67-1.6-.99-.68-.41-1.38-.81-2.07-1.21,0-.04.01-.07.02-.11Z"/>
      <path d="m22.39,60.11c-.19,1.45-.35,2.91-.6,4.35-.24,1.42-.55,2.83-.07,4.26.05.15.03.33-.04.5-.44-.92-.74-1.88-.57-2.91.22-1.3.48-2.59.7-3.89.14-.79.23-1.59.35-2.39.07.03.15.05.22.08Z"/>
      <path d="m18.29,34.31c1.03,2.94,2.52,5.73,2.98,8.88-1.07-2.92-2.14-5.83-3.2-8.75.08-.04.15-.08.23-.12Z"/>
      <path d="m37.34,58.7c-.23.2-.49.23-.74.07-1.01-.61-1.91-1.36-2.64-2.31,1.12.76,2.24,1.51,3.37,2.26,0,0,.02-.02.02-.02Z"/>
      <path d="m6.88,5.61c-.05-1.06-.07-2.12.42-3.11.06,0,.13.02.19.02-.13,1.04-.26,2.08-.39,3.12-.07,0-.14-.02-.22-.03Z"/>
    </g>
  </g>
</svg>