<?xml version="1.0" encoding="UTF-8"?>
<svg id="Layer_2" data-name="Layer 2" xmlns="http://www.w3.org/2000/svg" viewBox="0 0 123.19 199.22">
  <g id="objects">
    <g>
      <path d="m36.65,187.99c-1.04-.74-2.22-.91-3.45-.85-1.47.08-2.78-.45-4.13-.93-1.71-.6-2.24-1.88-2.33-3.49-.16-2.83.1-5.63.79-8.36,1.03-4.06,2.02-8.15,3.29-12.13,1.26-3.93,2.16-7.92,2.82-11.97.21-1.28.53-2.54.79-3.81.06-.28.06-.57.1-1.1-.39.33-.61.5-.8.68-.19.18-.37.37-.53.57-5.04,6.5-10.97,12.22-16.2,18.55-1.9,2.3-3.64,4.72-5.54,7.01-1.84,2.23-3.69,4.47-6.08,6.16-.72.51-1.02.53-1.46-.24-.55-.97-.98-2.01-1.39-3.05-.47-1.2-.9-2.43-1.26-3.67-.3-1.03-.53-2.09-.7-3.15-.22-1.4-.36-2.82-.55-4.46,1.86-2.03,3.85-4.18,5.81-6.35,3.89-4.3,7.98-8.39,12.11-12.45,3.31-3.25,5.94-7.08,8.55-10.9,2.34-3.43,4.26-7.11,6.39-10.67,1.39-2.33,3.06-4.49,4.59-6.74,2.56-3.77,5.76-7,8.66-10.49,1.52-1.83,2.54-3.93,3.4-6.08.41-1.03.28-2.3.27-3.46-.03-3.76-.15-7.52-.18-11.28-.01-1.34.1-2.68.22-4.01.26-2.97.66-5.93.84-8.9.4-6.61,1.06-13.2,2.4-19.68,1.07-5.2,2.46-10.34,4.51-15.28,2.73-6.58,5.44-13.17,8.09-19.79.69-1.72,1.16-3.53,1.65-5.32.82-3.02,2.02-5.88,3.46-8.64.22-.42.55-.77.81-1.17.46-.7.91-1.42,1.52-2.38,1.2-.35,2.68-.11,4.13.33,2.18.66,4.36,1.37,6.51,2.13.89.31,1.72.8,2.58,1.2.47.22.96.42,1.57.69.15,1.13-.12,2.36-.54,3.53-.87,2.4-1.85,4.75-2.74,7.14-1.31,3.52-2.62,7.05-3.84,10.6-1.31,3.84-2.59,7.7-3.75,11.59-1.33,4.47-2.51,8.99-3.77,13.48-.69,2.46-1.5,4.88-2.07,7.36-1.41,6.11-2.74,12.22-2.89,18.54-.14,6.01-.2,12.01.59,17.98.85,6.47,2.53,12.66,5.68,18.47,3.86,7.11,8.28,13.79,13.91,19.61,1.47,1.52,3.08,2.9,4.67,4.3,5.02,4.45,10.38,8.47,15.74,12.49,4.74,3.55,8.58,7.88,11.78,12.81.64.98,1.22,1.99,1.84,2.98,1.1,1.75.79,3.46-.12,5.16-.2.38-.5.71-.7,1.09-.38.71-.72,1.45-1.09,2.17-.15.3-.29.72-.54.83-.68.3-.81.83-.85,1.46-.01.17-.05.34-.08.51-.31,1.43-1.01,1.73-2.17.77-1.06-.88-2.04-1.87-2.99-2.87-2.15-2.27-4.57-4.19-7.05-6.1-4.28-3.29-8.51-6.67-12.6-10.19-2.15-1.85-4.08-3.99-5.91-6.18-2.74-3.28-5.31-6.71-7.95-10.07-.34-.43-.67-.87-1.21-1.17.72,1.35,1.36,2.74,2.18,4.03,2.95,4.68,5.98,9.31,8.94,13.98,2.04,3.21,4.14,6.39,6.02,9.69,2.37,4.17,4.55,8.44,6.77,12.7.77,1.49,1.41,3.06,2.07,4.61.51,1.19-.12,2.51-1.39,2.68-1.56.21-3.15.2-4.73.27-.78.03-1.26-.37-1.64-1.04-1.67-2.93-3.39-5.82-5.07-8.75-2.44-4.25-5.35-8.17-8.38-12.01-3.4-4.31-6.87-8.56-10.34-12.81-.45-.55-1.05-.97-1.77-1.62-.04.49-.1.69-.07.88.7,4.13,1.41,8.26,2.14,12.38.17.93.44,1.85.71,2.76.83,2.82,1.67,5.63,2.53,8.44.88,2.85,1.8,5.68,2.7,8.52.97,3.05,1.95,6.09,2.88,9.14.17.56.22,1.2.14,1.78-.11.76-.52.97-1.3.95-1.22-.04-1.91-.67-2.09-1.87-.99,0-1.92,0-2.86-.02-.78-.03-1.58-.04-2.34-.2-.3-.06-.61-.45-.78-.76-.8-1.48-1.54-3-2.33-4.48-1.85-3.47-3.73-6.92-5.56-10.4-.58-1.11-1.02-2.28-1.52-3.43-.13-.31-.25-.62-.53-.9,0,.28-.03.57,0,.85.47,3.2.88,6.42,1.45,9.61.74,4.15,2.13,8.1,4,11.88.36.74.19,1.11-.53,1.18-1.63.15-3.26.37-4.89.4-1.11.02-2.23-.21-3.32-.43-.31-.06-.64-.45-.79-.77-.36-.77-1.02-1.1-1.75-1.16-1.7-.13-3.39-.36-5.14-.09-1.46.23-3,0-4.5-.05-.3,0-.6-.09-.9-.06-.71.05-1.23-.28-1.72-.74-.33-.32-.72-.58-1.21-.97-.31-2.5.44-5.15.24-7.98-.98.93-1.88.88-2.88.24-.4-.26-.96-.25-1.36-.35-.49.57-.91,1.18-1.45,1.65-.68.6-.78.54-1.61-.14.99.18,1.6-.19,1.98-1.29.27-.77.5-1.56.71-2.35,1.28-4.98,2.51-9.97,3.83-14.94.96-3.63,2.03-7.23,3.04-10.85.11-.41.2-.85.18-1.27-.24-5.3.63-10.51,1.25-15.74.11-.9.23-1.8.36-2.7.42-2.99.83-5.99,1.26-8.98.17-1.15.42-2.3.61-3.45.07-.42.05-.84.07-1.27-2.93,6.43-4.98,13.1-7.09,19.76.09-.91.24-1.8.51-2.65,1.18-3.75,2.33-7.51,3.63-11.21.82-2.31,1.85-4.55,2.88-6.78.5-1.07.74-2.35.36-3.68-1.23,1.43-2.19,2.98-2.91,4.72-.65,1.59-1.5,3.11-2.26,4.66-.25.5-.54.99-.76,1.5-.82,1.9-1.61,3.82-2.43,5.72-.17.4-.27.91-1.03,1.09.35-1.34.66-2.54.96-3.74-1.02,1.3-1.88,2.64-2.71,4-.22.36-.37.79-.48,1.2-.98,3.54-1.97,7.08-2.9,10.63-.49,1.88-.85,3.8-1.33,5.68-.77,3.01-1.66,6-2.39,9.02-1.09,4.54-2.45,9-3.83,13.46-.42,1.35-.67,2.76-.95,4.16-.09.47-.11,1.02.59,1.36.05-.51.1-.93.12-1.35.05-1.15.51-2.12,1.41-2.8.78-.59,1.01-1.28,1-2.22-.03-3.17.52-6.27,1.33-9.34.94-3.55,1.79-7.12,2.7-10.68.2-.79.48-1.57.74-2.34.25-.74.55-1.45.79-2.19,1.24-3.87,2.47-7.73,3.7-11.6.14-.43.19-.92.83-1.12.22.71-.05,1.31-.24,1.9-.71,2.13-1.47,4.24-2.16,6.38-.86,2.67-1.71,5.35-2.48,8.05-.92,3.24-1.76,6.5-2.61,9.76-.92,3.52-1.72,7.05-1.91,10.7-.03.65-.12,1.29-.23,1.93-.31,1.83-.64,3.65-.95,5.48-.02.11.06.24.09.39.25.03.5.06.74.09.09-.18.17-.28.19-.4.86-4.59,1.77-9.16,2.55-13.77,1.08-6.41,2.1-12.84,4.4-18.97-1.81,7.44-3.4,14.91-4.26,22,.83-3.62,1.73-7.76,2.73-11.87.75-3.06,1.62-6.1,2.47-9.13.88-3.12,1.78-6.23,2.73-9.33.58-1.9,1.28-3.76,1.94-5.63.06-.17.28-.29.42-.43v-.02c-.75,2.48-1.55,4.94-2.24,7.43-1.42,5.21-2.81,10.42-4.16,15.65-.76,2.97-1.43,5.96-2.1,8.96-.64,2.87-1.25,5.74-1.81,8.62-.39,2.03-.68,4.09-1.01,6.14-.04.25-.06.49-.1.84.53.04.98.06,1.56.1.61-3.39,1.22-6.7,1.81-10.01.62-3.49,1.09-7,1.85-10.46.98-4.49,2.19-8.94,3.3-13.4-1.16,5.67-2.54,11.29-3.64,16.96-1.1,5.68-1.92,11.41-2.87,17.11l.32-.05c.43.72.86,1.44,1.29,2.17Zm-27.34-24.81c.27-.18.59-.3.8-.54,2.02-2.25,4.13-4.43,6.01-6.79,2.74-3.45,5.32-7.02,7.94-10.57,1.57-2.12,3.07-4.28,4.6-6.43.24-.34.43-.71.64-1.06-.31.08-.5.24-.66.42-3.35,3.84-6.69,7.7-10.04,11.54-3.87,4.43-7.75,8.84-11.62,13.26-1.08,1.24-2.15,2.48-3.2,3.75-.43.52-.76,1.11-1.13,1.67,4.9-4.53,9.5-9.32,13.8-14.39-1.27,1.85-2.63,3.62-4.02,5.37-1.02,1.28-2.06,2.53-3.1,3.8-.14.09-.31.15-.42.27-1.96,2.05-3.92,4.12-5.88,6.17-.09.09-.23.18-.25.28-.05.24-.04.49-.05.73,2.33-2.33,4.42-4.72,6.5-7.12.07-.08.05-.24.08-.36Zm58.8-53.09c-.13.02-.26.03-.39.05.04.25.04.52.12.76.85,2.57,1.71,5.14,2.58,7.7.1.31.31.58.47.87-.49-2.8-1.58-5.4-2.38-8.09.27.48.6.93.79,1.43,1.36,3.55,2.7,7.1,4.03,10.66,1.3,3.47,3.36,6.53,5.35,9.6,1.93,2.97,4.06,5.79,6.34,8.52,2.66,3.18,5.27,6.4,8.19,9.35,5.48,5.54,11.14,10.84,17.62,15.22,1.54,1.04,3.04,2.14,4.49,3.3,1.14.92,2.18,1.96,3.24,2.97.25.24.4.57.6.86-.07.07-.15.13-.22.19-.29-.22-.59-.43-.87-.65-1.74-1.41-3.42-2.91-5.24-4.22-4.8-3.46-9.61-6.92-13.82-11.11-3.58-3.56-7.28-7.03-10.61-10.82-3.27-3.72-6.54-7.49-9.18-11.72-1.44-2.31-2.89-4.61-4.35-6.9-.14-.22-.32-.41-.49-.61.47,1.77,1,3.47,1.85,5.01,1.77,3.21,3.79,6.27,6.02,9.2,2.12,2.79,4.15,5.63,6.7,8.06.24.23.38.55.57.83.13.34.17.76.4,1,2.35,2.47,4.57,5.1,7.14,7.32,3.85,3.33,7.98,6.34,11.94,9.54,1.74,1.41,3.38,2.95,5.01,4.48,1.1,1.03,2.11,2.17,3.17,3.24.18.19.45.29.74.47.02-.84,0-.83-.35-1.24-2.22-2.62-4.88-4.76-7.53-6.91-3.46-2.79-7.01-5.48-10.4-8.34-2.67-2.25-5.18-4.7-7.73-7.09-.71-.67-1.32-1.46-1.97-2.19.15.08.33.13.45.24,1.99,1.86,4.03,3.66,5.94,5.6,3.2,3.24,6.9,5.87,10.46,8.67,2.82,2.21,5.61,4.47,8.36,6.75,1.02.85,1.92,1.84,2.91,2.81.67-.88,2.02-1.2,1.74-2.76-.43-.37-.94-.83-1.48-1.26-3.4-2.66-6.86-5.26-10.21-7.98-4.27-3.45-8.46-6.98-12.42-10.79-5.57-5.36-10.54-11.2-14.82-17.62-3.77-5.65-7.31-11.44-9.67-17.86-.79-2.15-1.62-4.29-2.29-6.47-.78-2.51-1.41-5.07-2.09-7.61-.04-.16,0-.34.01-.51.11.27.26.53.34.81,1.35,4.74,2.95,9.39,4.75,13.98,2.42,6.2,5.78,11.89,9.5,17.37,1.84,2.71,4.01,5.2,5.96,7.84,3.25,4.41,7.07,8.3,11.1,11.95,4.96,4.49,10.15,8.73,15.57,12.69,2.02,1.48,3.89,3.15,5.84,4.73.12.1.28.16.48.27.24-.41.44-.77.66-1.13-.53-.48-.98-.88-1.41-1.3-.42-.41-.94-.75-1.22-1.27.07-.06.13-.12.2-.18.89.71,1.78,1.42,2.68,2.13.46-.48.13-.69-.12-.91-1.46-1.28-2.94-2.54-4.37-3.86-2.09-1.93-4.13-3.92-6.22-5.87-5.22-4.86-10.46-9.68-15.37-14.87-4.98-5.25-9.59-10.78-13.79-16.66-.18-.25-.32-.54-.47-.82.37.16.59.4.79.66,3.18,4.04,6.22,8.2,9.77,11.93,3.28,3.44,6.44,7.01,9.89,10.27,6.46,6.12,13.09,12.05,19.66,18.06.2.19.46.31.88.59-.06-1.58-.51-2.79-1.39-3.82-.56-.65-1.23-1.21-1.86-1.8-4.29-3.96-8.6-7.89-12.86-11.87-1.89-1.77-3.69-3.64-5.53-5.46-.08-.08-.11-.22-.16-.34.34.25.72.47,1.03.76,5.53,5.03,11.06,10.06,16.59,15.09.22.2.48.37.93.7-1.38-2.45-4.49-6.28-7-8.32-4.06-3.29-8.21-6.47-12.34-9.68-.18-.14-.45-.16-.68-.23-.18-.12-.37-.23-.52-.37-2.37-2.11-4.76-4.22-7.11-6.36-1.34-1.22-2.68-2.44-3.93-3.74-6.47-6.77-11.35-14.63-15.48-22.97-.26-.53-.54-1.04-.82-1.56-.07-.37-.1-.76-.22-1.11-2.2-6.51-3.32-13.21-3.52-20.07-.02-.81-.02-1.61-.02-2.42-.67,2.35-1.12,4.7-.77,7.3.18-.43.29-.7.47-1.12.02.53.02.87.05,1.21.43,5.51,1.97,10.76,3.76,15.95.04.1.17.17.25.26.05.29.04.6.15.86,2.28,6.03,4.97,11.87,8.08,17.52.19.34.4.67.62.99,1.71,2.54,3.43,5.08,5.15,7.62,2.28,3.37,4.82,6.56,7.67,9.44,3.37,3.41,6.84,6.72,10.37,9.96,3.15,2.89,6.26,5.83,9.83,8.22,1.42.95,2.71,2.09,3.98,3.38-.22.02-.33.06-.39.03-.26-.15-.52-.3-.76-.48-3.23-2.38-6.5-4.69-9.53-7.35-5.36-4.71-10.65-9.48-15.42-14.79-2.97-3.31-5.75-6.79-8.3-10.44-1.51-2.16-2.97-4.36-4.23-6.67-2.8-5.17-5.2-10.54-7.26-16.04-1.32-3.52-2.57-7.06-3.28-10.77-.34-1.77-.71-3.54-1.13-5.6-.06.5-.09.71-.1.92-.14,1.82.02,3.62.36,5.4-.66.44-.28,1.1-.31,1.65-.11,2.75.76,5.29,1.83,7.77ZM4.3,176.37l-.02-.04c.18.42.37.83.57,1.29,1.17-.6,1.87-1.48,2.56-2.36,2.21-2.82,4.33-5.71,6.6-8.48,2.11-2.58,4.1-5.22,5.91-8.02,2.13-3.3,4.36-6.53,6.15-10.05.9-1.77,1.93-3.48,3.01-5.14,1.76-2.72,3.54-5.43,5.44-8.05,2.51-3.46,5.13-6.84,7.71-10.26.21-.28.48-.53.73-.79.07.05.14.1.21.16-7.87,10.11-14.33,21.12-20.8,32.13,2.56-2.77,5.01-5.61,7.45-8.46.99-1.15,1.96-2.3,2.95-3.44,3.01-3.46,5.96-6.97,8-11.12,1.45-2.94,2.78-5.94,4.34-8.82,1.48-2.74,1.95-5.7,2.41-8.69.04-.26-.02-.54-.05-1.13-1.13,1.58-2.02,2.95-3.32,3.97.15-.52.41-.95.71-1.36.74-1.01,1.5-2.01,2.24-3.02.3-.41.68-.8.4-1.57-.67.64-1.31,1.19-1.88,1.81-.73.79-1.4,1.65-2.11,2.45-.19.21-.65.51-.69.48-.38-.39-.59-.13-.8.16-1.15,1.61-2.05,3.36-2.7,5.28.6-.77,1.21-1.53,1.81-2.3l.15.11c-2.02,3.21-4.04,6.42-6.06,9.62.08.05.16.1.24.15l5.59-7.71c0,.46-.18.8-.39,1.12-1.83,2.78-3.63,5.57-5.51,8.32-2.36,3.46-4.71,6.93-6.73,10.61-.79,1.43-1.74,2.78-2.63,4.16-.17.27-.41.49-.62.73-.08-.05-.16-.1-.23-.15,1.32-2.82,3.05-5.44,4.31-8.29-4.13,5.53-8.02,11.24-12.32,16.61-4.31,5.39-9.04,10.44-13.66,15.73.12.56.26,1.25.43,2.09,1.09-1.2,2.01-2.29,3.01-3.29,3.11-3.14,5.9-6.55,8.49-10.12,1.9-2.62,3.79-5.25,5.7-7.87.4-.55.86-1.05,1.29-1.57.02.4-.11.66-.28.89-2.68,3.72-5.28,7.49-8.06,11.12-1.94,2.53-4.15,4.86-6.24,7.27-1.02,1.18-2,2.39-3.06,3.52-.71.75-.78,1.48-.23,2.31Zm72.04,18.13c.31-.03.63-.07,1.04-.11-.16-.52-.26-.94-.42-1.33-1.19-2.96-2.37-5.92-3.6-8.87-1.14-2.74-2.17-5.52-3.13-8.34-.74-2.15-1.62-4.24-2.22-6.46-.4-1.5-.93-2.95-1.07-4.51-.06-.68-.28-1.35-.42-2.02-.05-.26-.08-.52-.12-.78.5.9.83,1.83,1.01,2.8.67,3.53,1.59,6.98,3.1,10.26.11.24.19.48.28.73.98,2.54,1.94,5.08,2.95,7.6,1.33,3.33,2.69,6.65,4.03,9.97.1.24.15.5.28.72.22.4.52.33.9.09-.43-1.02-.86-2-1.26-2.99-.8-2-1.62-4-2.38-6.02-.79-2.1-1.5-4.23-2.25-6.35-.45-1.26-.82-2.55-1.37-3.76-.87-1.9-1.46-3.88-1.91-5.91-.06-.27-.04-.56-.06-.85.26.21.36.45.45.69,1.56,4.16,3.14,8.32,4.68,12.48.8,2.14,1.51,4.32,2.33,6.46.99,2.58,2.06,5.12,3.09,7.68.17.43.38.76.89.82.5.06.96.09,1.21-.54-.12-.32-.25-.68-.39-1.05-.95-2.55-1.92-5.09-2.83-7.65-.68-1.91-1.3-3.84-1.91-5.77-.94-2.96-1.86-5.93-2.78-8.89-.06-.21-.08-.43-.13-.63-.27-1-.55-2-.84-2.99-.19-.66-.47-1.31-.6-1.98-.64-3.31-1.21-6.62-1.87-9.93-.39-1.99-.79-3.99-1.38-5.92-.77-2.52-1.81-4.95-2.61-7.46-.92-2.92-1.8-5.87-1.99-8.96-.16-2.63-.32-5.26-.48-7.88-.01-.22-.03-.43-.06-.64-.03-.17-.09-.33-.14-.5-1.21,2.88-1.12,5.86-1.07,8.81.05,3.02.12,6.05.4,9.05.27,2.94.83,5.84,1.26,8.77-1.69-4.8-1.92-9.85-2.6-14.85-.17,2.07-.31,4.14-.25,6.2.13,4.4.45,8.8.55,13.2.13,6.44,1.22,12.71,3.12,18.85.18.57.42,1.14.71,1.66,2.14,3.85,4.32,7.68,6.46,11.54.88,1.59,1.69,3.21,2.53,4.82.14.27.23.56.41.8.04.06.32-.05.49-.08l-.03.02Zm-22.77-13.1c-.16.71-.4,1.41-.46,2.12-.12,1.33-.15,2.67-.2,4-.12,2.69.31,5.31.86,7.98.29-.05.52-.09.71-.13-.33-2.4-.77-4.69-.92-7.01-.15-2.31,0-4.65,0-6.97-.08-1.21.46-4.53.97-5.9-.81,6.76-.77,13.41.68,20.04.27-.01.45,0,.61-.04.12-.02.22-.11.36-.18-.68-3.44-1.44-6.83-1.39-10.38.05-3.54-.07-7.07.67-10.56-.02,1.37-.18,2.74-.18,4.11,0,2.46.15,4.92.11,7.38-.05,3.11.78,6.07,1.34,9.08.12.64.47.87,1.16.56-.97-4.79-1.78-9.58-2.05-14.44.1.07.15.14.17.22,1.18,4.96,2.36,9.91,3.56,14.86.11.46.27.92.52,1.32.16.25.49.47.79.53,1.94.37,3.85.09,5.78-.33-.04-.15-.05-.3-.12-.39-1.51-2.01-2.22-4.36-3-6.71-.99-2.98-1.26-6.08-1.72-9.16-.06-.38-.13-.75-.2-1.13-.08,1.92,0,3.81.17,5.69.17,1.85.36,3.7.7,5.52.34,1.8.87,3.57,1.32,5.35-.58-.69-1.1-1.42-1.3-2.23-.54-2.26-1.14-4.54-1.34-6.85-.44-4.99-.66-9.99-.95-14.99-.05-.93,0-1.86,0-2.79h.19c.23,2.12.46,4.24.69,6.36.09,0,.18-.01.27-.02-.02-1.62-.05-3.24-.07-4.85.26.35.33.72.37,1.08.46,4.08.86,8.16,1.39,12.23.45,3.49,1.45,6.84,2.81,10.09.35.83.83,1.61,1.29,2.39.09.15.37.19.84.43-.44-1.09-.76-1.88-1.09-2.67-2.36-5.78-3.56-11.82-4.08-18.01-.15-1.8-.29-3.62-.26-5.43.02-1.23-.19-2.38-.41-3.57-.43-2.24-.83-4.51-.97-6.78-.27-4.22-.29-8.46-.52-12.69-.25-4.62-.43-9.24.18-13.85.49-3.68.91-7.38,1.4-11.06.6-4.47,1.02-8.93.27-13.37.23-.15.44-.34.44-.53,0-1.94.04-3.89-.07-5.82-.16-2.73-.25-5.44.34-8.13.64-2.91,1.28-5.83,1.84-8.76.42-2.16.75-4.34,1.04-6.53.64-4.84,1.23-9.68,1.84-14.53.04-.3.05-.77.21-.85.72-.34.56-1.01.7-1.55.19-.75.28-1.53.48-2.29.85-3.35,1.68-6.71,2.58-10.05,1.23-4.59,2.44-9.19,3.77-13.75.7-2.4,1.67-4.72,2.46-7.1.68-2.05,1.14-4.18,1.91-6.19,1.97-5.12,4.07-10.19,6.09-15.29.36-.91.62-1.85.94-2.86-.4-.11-.64-.17-.88-.24-.95-.29-1.93-.5-2.84-.89-1.63-.7-3.23-1.47-4.8-2.27-1.24-.63-2.57-.73-3.9-.81-.89-.06-1.32.23-1.5,1.1-.29,1.34-.97,2.49-1.62,3.66-1.19,2.16-2.18,4.41-2.86,6.79-.45,1.58-.84,3.18-1.44,4.71-1.63,4.14-3.26,8.29-5.06,12.35-2.31,5.2-3.98,10.61-5.33,16.1-.93,3.77-1.45,7.64-2.14,11.47-1.02,5.62-1.67,11.29-1.82,17.01-.09,3.5-.13,7.01-.93,10.45-.08.33-.03.69-.02,1.03.06,3.37.19,6.74.16,10.11-.02,2.54.08,5.1-.59,7.61-.59,2.21-1.11,4.44-1.67,6.66-.13.5-.33.99-.39,1.5-.32,2.7-.61,5.4-.9,8.11,0,.05.06.11.21.34.72-2.31,1.53-4.46,2.06-6.67.91-3.78,1.7-7.6,1.81-11.51.08-2.55.03-5.1.05-7.65,0-.89.02-1.79.04-2.68.36,2.36.58,4.72.77,7.08.28,3.45.51,6.89.16,10.35-.26,2.58-.48,5.16-.68,7.75-.06.77,0,1.55,0,2.33-.01,1.25.06,2.51-.07,3.75-.2,1.93-.53,3.86-.83,5.78-.62,3.88-1.36,7.75-1.87,11.65-.46,3.51-.63,7.06-1.04,10.58-.57,5-.76,9.98-.15,14.99.28,2.27.45,4.56-.06,6.84-.23,1.05-.38,2.12-.55,3.18-.5,3.11-.97,6.23-1.49,9.34-.44,2.64-.94,5.28-1.43,7.91-.14.73-.07,1.3.85,1.48.05-.29.1-.58.14-.87.27-1.66.5-3.33.83-4.98.47-2.33,1.17-4.62,1.5-6.97.69-4.92,1.04-9.88,1.24-14.85.1-2.54.32-5.09.58-7.62.25-2.45.72-4.88.94-7.33.45-4.9.8-9.82,1.19-14.73.05-.68.05-1.36.07-2.04.25,3.14.45,6.3.25,9.42-.3,4.78-.9,9.55-1.31,14.32-.32,3.66-.68,7.32-.77,10.99-.07,3.21-.49,6.37-.81,9.55-.12,1.2-.22,2.42-.48,3.59-.4,1.81-.98,3.59-1.4,5.39-.38,1.64-.66,3.3-.94,4.96-.07.43.03.9.05,1.3.73.13.83-.19.81-.65-.12-1.98.51-3.84.88-5.74.6-3.09,1.23-6.19,1.63-9.31.43-3.34.63-6.71.91-10.06.2-2.37.37-4.74.55-7.11.15-2.03.29-4.05.43-6.08.16,1.86.13,3.71.04,5.56-.2,3.71-.42,7.42-.66,11.13-.16,2.46-.32,4.92-.56,7.37-.2,2.02-.51,4.03-.77,6.04-.03.21-.05.43-.11.64-.38,1.51-.82,3-1.15,4.52-.27,1.25-.35,2.53-.11,3.86.51-.04.93-.07,1.43-.1-.46-2.54-.62-5.01.1-7.47.12,2.48.1,4.97.68,7.46.46.04.87.07,1.4.11-.14-.75-.31-1.37-.37-2.01-.18-1.89-.55-3.79-.44-5.66.3-5.04.85-10.07,1.21-15.11.26-3.66.41-7.33.54-11,.07-1.98-.04-3.97,0-5.96.02-1.28.16-2.56.25-3.84.26,4.29.37,8.56.37,12.83,0,2.37-.11,4.75-.29,7.12-.22,2.88-.59,5.76-.86,8.64-.02.25.18.51.26.78Zm12.15-64.24c0,.12,0,.25.02.37.98,4.44,1.52,8.94,1.89,13.46.31,3.76,1,7.45,2.03,11.07.94,3.3,2.37,6.41,4.3,9.26,2.7,3.99,5.81,7.64,9.06,11.17,2.62,2.84,4.97,5.87,7.11,9.07.74,1.11,1.5,2.22,2.26,3.32,1.68,2.42,3.29,4.86,4.51,7.56.73,1.61,1.52,3.22,2.82,4.48.32.31.77.62,1.18.66.76.08,1.54,0,2.31-.07,1.13-.11,1.39-.49.94-1.46-1.21-2.58-2.38-5.19-3.71-7.7-1.74-3.28-3.58-6.52-5.47-9.72-1.91-3.24-3.88-6.44-5.91-9.6-3.22-5.02-6.68-9.89-9.75-15-4.18-6.96-7.18-14.48-9.42-22.28-.93-3.23-2.8-5.97-4.14-9.05-.06.17-.14.26-.12.32.65,2.01,1.17,4.08,1.98,6.02,2.13,5.12,3.79,10.38,5.21,15.74.79,2.96,1.5,5.95,2.5,8.85.87,2.52,1.93,4.99,3.39,7.27,3,4.68,6.54,8.93,10.35,12.95,4,4.23,6.92,9.17,9.67,14.22,1.42,2.61,2.52,5.41,4.46,7.73.14.17.12.48.18.72-.09.05-.19.1-.28.15-.31-.32-.7-.6-.92-.98-1.05-1.83-2.12-3.67-3.06-5.55-2.84-5.67-6.18-10.98-10.54-15.64-2.3-2.46-4.53-5-6.59-7.66-1.85-2.38-3.61-4.88-5.07-7.51-1.66-2.98-2.81-6.23-3.63-9.55-.62-2.51-1.08-5.07-1.71-7.58-.54-2.16-1.22-4.28-1.84-6.41-.09.02-.19.04-.28.07.66,2.69,1.54,5.33,1.74,8.12-1.71-5.65-3.12-11.38-5.48-16.79Zm-16.07-13.96c-.1-.02-.21-.05-.31-.07-.54.92-.99,1.91-1.62,2.76-1.69,2.3-3.53,4.46-5.6,6.45-3.32,3.19-6.07,6.88-8.27,10.91-2.28,4.17-4.63,8.3-7.29,12.23-2.4,3.55-4.9,7.02-7.91,10.08-4.69,4.78-9.42,9.52-14.1,14.31-1.08,1.11-2.04,2.35-3.03,3.54-.23.27-.57.59-.13.97,4.47-4.57,8.83-9.21,13.45-13.6-4.06,5.28-8.99,9.79-13.26,14.83.2.73.37,1.34.57,2.04.97-1.19,1.85-2.3,2.76-3.38,4.14-4.93,8.29-9.85,12.44-14.77.19-.23.53-.46.54-.71.06-1.21,1.07-1.67,1.77-2.37,1.26-1.25,2.65-2.37,3.79-3.71,5.55-6.55,10.23-13.68,13.97-21.42,1.38-2.86,2.96-5.56,5.62-7.49,1.25-.91,2.42-1.96,3.53-3.04.7-.68,1.48-1.45,1.79-2.33.59-1.69.88-3.49,1.29-5.25Zm-2.53,57.43c-.1,0-.2-.02-.3-.02-.38,1.28-.79,2.55-1.12,3.84-1.22,4.73-2.42,9.46-3.6,14.19-.51,2.05-.96,4.12-1.45,6.18-.13.55-.08.98.51,1.29.56-2.11,1.11-4.15,1.65-6.19.54-2.06.92-4.16,1.72-6.15-.48,3.39-1.27,6.71-2.2,9.99-.18.62-.37,1.24-.5,1.88-.05.23.08.49.13.74.11,0,.22.02.32.03.22-.73.46-1.45.65-2.18.95-3.68,1.89-7.36,2.83-11.04.76-3.01,1.62-6.01,1.12-9.24-.9,2.33-.91,4.87-1.91,7.15-.15-.25-.23-.49-.17-.71.6-2.3,1.25-4.58,1.82-6.88.24-.94.33-1.92.49-2.89Zm-4.31,26.42c.43-.2.77-.27.98-.48.64-.6,1.03-1.31,1.21-2.21.45-2.32.84-4.68,1.61-6.91.48-1.41.54-2.74.49-4.14-.01-.39-.03-.77-.07-1.16-.03-.27-.1-.53-.16-.83-1.35,5.23-2.68,10.37-4.07,15.73Zm24.58-47.48l-1.36-11.04c.17,3.72.05,7.47,1.36,11.04Zm-2.28-41.25l-.29-.12c-.36,3.15-.48,6.31-.45,9.47.11,0,.23.01.34.02.13-3.12.26-6.25.39-9.37Zm-35.31,86.74c.23-1.41.44-2.66.7-4.18-1.12,1.25-1.11,2.61-1.57,3.87.31.11.54.19.87.3Zm3.55-5.48c-.05.01-.11.02-.16.04-.17,1.02-.4,2.03-.49,3.05-.08.98-.81,1.85-.35,2.9.33-2,.66-3.99,1-5.99Z"/>
      <path d="m44.45,137.94c.03-.38.05-.75.08-1.13.06,0,.12.02.18.03-.09.35-.19.71-.28,1.07,0,0,0,.03,0,.03Z"/>
      <path d="m58.32,137.69c.21-6.04.42-12.08.62-18.12.11-3.45.15-6.91.29-10.36.27-6.86.32-13.72.88-20.58.63-7.73,1.68-15.38,3.29-22.96.61-2.83,1-5.71,1.57-8.55.73-3.6,1.57-7.18,2.35-10.76.25-1.14.52-2.28.69-3.43.82-5.4,2.26-10.64,3.88-15.85.86-2.76,1.53-5.58,2.3-8.36.41-1.49.86-2.97,1.47-4.41-.28,1.06-.57,2.12-.85,3.18-1.49,5.55-3.02,11.08-4.46,16.64-.61,2.34-1.01,4.73-1.55,7.09-.81,3.58-1.65,7.16-2.47,10.74-.16.72-.32,1.44-.45,2.16-1.13,6.17-2.28,12.33-3.37,18.5-.97,5.49-1.72,11.02-2.02,16.6-.23,4.23-.55,8.45-.71,12.68-.15,3.88-.08,7.77-.21,11.66-.24,7.21-.56,14.41-.85,21.62-.03.85-.08,1.71-.12,2.56-.09-.02-.19-.04-.28-.05Z"/>
      <path d="m59.68,131.67c-.07-.32-.21-.64-.2-.95.18-3.71.36-7.41.58-11.12.3-5.17.64-10.34.94-15.51.31-5.22.51-10.44.91-15.65.28-3.57.8-7.12,1.23-10.68.2-1.67.42-3.35.7-5.01.99-5.88,1.99-11.76,3.02-17.63.26-1.48.67-2.94,1.18-4.38-.23,1.36-.45,2.71-.68,4.07-1.03,6.22-2.13,12.44-3.08,18.67-.72,4.74-1.27,9.5-1.85,14.26-.17,1.41-.13,2.85-.22,4.27-.44,6.38-.9,12.75-1.33,19.12-.25,3.7-.48,7.41-.7,11.11-.19,3.14-.34,6.28-.51,9.42h0Z"/>
      <path d="m59.92,186.1c-.13-.62-.32-1.23-.38-1.85-1.15-10.55-2.07-21.11-1.66-31.77.04.37.11.74.13,1.11.24,4.44.4,8.88.74,13.31.3,3.82.84,7.63,1.19,11.45.21,2.27.27,4.56.38,6.84.01.29-.06.59-.1.88-.1,0-.21.02-.31.02Z"/>
      <path d="m56.53,145.37c-.03-1.12-.06-2.23-.09-3.35-.09-4.14-.28-8.29-.25-12.43.03-4.4.18-8.8.46-13.19.27-4.13.82-8.25,1.18-12.38.33-3.74.76-7.46.74-11.23-.02-2.45.21-4.91.34-7.36.01-.25.08-.49.22-.73-.16,4.47-.24,8.95-.5,13.42-.18,3.14-.59,6.27-.89,9.4-.25,2.58-.5,5.16-.71,7.74-.55,6.59-.31,13.2-.26,19.8.03,3.44-.03,6.89-.04,10.33-.07-.01-.14-.02-.2-.03Z"/>
      <path d="m55.82,150.62c-.16-1.41-.3-2.81-.48-4.22-.76-6.06-.76-12.15-.6-18.24.11-4.14.42-8.28.64-12.42.08-1.5.18-3.01.44-4.51-.05,2.33-.09,4.65-.16,6.98-.09,2.59-.21,5.17-.31,7.76-.32,8.21.13,16.39.72,24.58-.08.02-.16.04-.25.06Z"/>
      <path d="m56.71,108.25c.17-16.59,1.32-33.11,4.18-49.48-2.39,16.41-3.53,32.93-4.18,49.48Z"/>
      <path d="m69.3,33.12c-2.87,12.75-6.18,25.41-7.92,37.77.13-4,.97-8.51,2.02-12.99.45-1.93.83-3.89,1.07-5.86.35-2.85,1.34-5.53,2-8.3.37-1.55.68-3.12,1.1-4.66.54-2,1.15-3.97,1.73-5.95Z"/>
      <path d="m56.12,163.62c.92,7.59,1.84,15.17,2.77,22.76-.09.02-.17.04-.26.06-.27-1.19-.55-2.37-.81-3.57-1.35-6.34-1.41-12.8-2.02-19.21.11-.01.21-.02.32-.03Z"/>
      <path d="m57.38,130.48c.12-5.66-.29-11.4.67-17.11.05.28.16.56.15.83-.26,5.43-.54,10.85-.82,16.28Z"/>
      <path d="m61.3,196.6c-.85-2.38-1.32-4.84-1.37-7.39.59,2.44,1.17,4.87,1.76,7.31-.13.03-.26.06-.39.09Z"/>
      <path d="m72.16,22.22c.6-1.78,1.19-3.56,1.8-5.33.17-.48.38-.94.71-1.38-.13.47-.24.94-.4,1.4-.56,1.62-1.13,3.23-1.72,4.84-.07.18-.26.32-.39.48h0Z"/>
      <path d="m61.89,59.23c.44-2.04.89-4.08,1.33-6.12.04,0,.07.02.11.02-.43,2.05-.86,4.11-1.3,6.16-.05-.02-.1-.05-.15-.07Z"/>
      <path d="m61.26,65.41c.2-1.17.39-2.34.59-3.52,0,0,0,0,0,0-.2,1.17-.39,2.34-.59,3.52,0,0,0,0,0,0Z"/>
      <path d="m59.04,83.28c.12-.71.24-1.42.35-2.12.02,0,.04,0,.07,0l-.34,2.06s-.05.03-.08.05Z"/>
      <path d="m59.38,79.64c.1-.62.21-1.25.31-1.87.02,0,.04,0,.06,0-.1.6-.2,1.21-.3,1.81l-.07.05Z"/>
      <path d="m57.19,133.85c.06-.33.11-.66.17-1,.02,0,.04,0,.06,0-.06.33-.11.67-.17,1-.02,0-.04,0-.06,0Z"/>
      <path d="m71.39,25.2c-.04.24-.08.48-.12.72,0,0-.02,0-.02,0,.04-.24.08-.48.12-.72,0,0,.02,0,.02,0Z"/>
      <path d="m72.16,22.22c-.08.46-.15.92-.23,1.39,0,0,0,0,0,0,.08-.46.15-.92.23-1.38h0Z"/>
      <path d="m59.69,131.67c-.04.38-.08.75-.13,1.13-.02,0-.04,0-.06,0,.06-.37.12-.75.19-1.12,0,0,0,0,0,0Z"/>
      <path d="m57.17,135.67c.03-.18.06-.36.09-.54.01,0,.03,0,.04,0-.03.18-.06.36-.09.54-.01,0-.03,0-.04,0Z"/>
      <path d="m76.36,194.48c-1.36-2.79-2.71-5.59-4.09-8.38-.94-1.89-2.11-3.7-2.83-5.67-.9-2.47-2.31-4.72-2.88-7.33-.49-2.23-1.36-4.36-1.91-6.58-.95-3.86-1.51-7.79-1.55-11.78-.01-1.24-.03-2.48-.04-3.72.09,0,.18,0,.26-.01.17,1.78.38,3.55.51,5.33.34,4.76,1.22,9.42,2.52,13.99.68,2.4,1.59,4.75,2.6,7.03,2.28,5.18,4.69,10.29,7.02,15.45.24.52.69,1.03.36,1.7,0,0,.02-.02.02-.02Z"/>
      <path d="m67.98,158.46c.4,1.75.81,3.5,1.21,5.25-.81-1.65-1.12-3.42-1.46-5.18.08-.02.17-.04.25-.06Z"/>
      <path d="m70.83,163.69c-.59-.73-.49-1.61-.68-2.43.09-.02.19-.04.28-.06.12.84.25,1.67.37,2.51l.03-.02Z"/>
      <path d="m70.8,163.7c.12.31.24.62.36.92-.08.02-.17.04-.25.06-.03-.33-.05-.66-.08-1,0,0-.03.02-.03.02Z"/>
      <path d="m65.87,159.71c.06.28.13.55.19.83-.06.01-.11.03-.17.04-.07-.26-.15-.52-.22-.79.07-.03.13-.06.2-.08Z"/>
      <path d="m66.88,102.06c-.11-.47-.21-.95-.32-1.42.11.47.21.95.32,1.42Z"/>
      <path d="m68.14,125.92c.27,1.55.61,3.1.79,4.66.43,3.88,1.26,7.67,2.69,11.31.41,1.04.84,2.08,1.35,3.08,2.87,5.56,6.41,10.65,10.59,15.3,2.34,2.6,4.59,5.28,6.82,7.98.99,1.19,1.89,2.47,2.73,3.78,2.24,3.49,4.57,6.92,6.13,10.8.44,1.11,1.22,2.08,1.84,3.12.17.28.32.57.52.92-.74.17-1-.3-1.23-.67-.76-1.2-1.55-2.4-2.18-3.67-3.28-6.61-7.18-12.78-12.17-18.27-3.78-4.15-7.47-8.39-10.55-13.12-3.31-5.1-5.72-10.54-6.46-16.63-.31-2.57-.68-5.13-1.03-7.7-.04-.29-.06-.58-.08-.87.08-.01.16-.02.24-.03Z"/>
      <path d="m74.65,136.25c.8,2.18,1.46,4.42,2.42,6.53,1.3,2.86,2.63,5.74,4.3,8.39,3.06,4.87,6.8,9.25,10.39,13.72.88,1.09,1.64,2.27,2.45,3.41-.07.06-.15.12-.22.19-.21-.18-.44-.34-.62-.55-4.54-5.16-8.99-10.39-12.66-16.21-2.95-4.68-5.05-9.72-6.19-15.14-.02-.1,0-.21-.01-.32l.13-.03Z"/>
      <path d="m79.9,146.62c.16.12.38.2.46.35,1.87,3.78,4.67,6.93,6.96,10.43.09.14.18.28.28.44-.1.02-.2.07-.21.05-2.46-3.32-5.18-6.46-7.01-10.22-.17-.35-.3-.71-.45-1.07l-.03.02Z"/>
      <path d="m79.93,146.59c-.17-.27-.33-.54-.5-.81.08-.03.16-.07.24-.1.08.31.15.62.23.93,0,0,.03-.02.03-.02Z"/>
      <path d="m41.56,129.01c-4.55,6.63-8.41,13.69-13.05,20.26.1-2.13,9.8-17.18,13.05-20.26Z"/>
      <path d="m4.3,176.37c.07-.2.1-.43.23-.59,1.58-1.99,3.17-3.98,4.77-5.96.1-.12.24-.21.48-.22-.74,1.04-1.47,2.08-2.22,3.11-.74,1.01-1.49,2.01-2.25,3.01-.26.34-.5.74-1.04.62,0,0,.02.04.02.04Z"/>
    </g>
  </g>
</svg>