<?xml version="1.0" encoding="UTF-8"?>
<svg id="Layer_2" data-name="Layer 2" xmlns="http://www.w3.org/2000/svg" viewBox="0 0 70.51 75.28">
  <g id="objects">
    <g>
      <path d="m32.33.01c2.65.29,5.3.55,7.94.9,1.44.19,2.71.88,3.88,1.75,2.46,1.84,4.34,4.18,5.86,6.82.27.46.49.98.61,1.5.3,1.28,1.11,1.95,2.38,2.14.19.03.38.09.57.11,2.9.21,5.21,1.59,7.14,3.69.89.97,1.79,1.93,2.67,2.91,1.44,1.6,2.41,3.5,3.38,5.39,1.26,2.44,2.47,4.91,3.15,7.59,1.05,4.19.72,8.28-.8,12.31-2.09,5.52-4.94,10.57-8.82,15.03-.91,1.05-1.75,2.17-2.67,3.22-3.73,4.26-8.19,7.52-13.33,9.88-2.89,1.33-5.92,2-9.1,2.04-2.64.03-5.26-.09-7.87-.51-3.24-.52-6.3-1.56-9.1-3.29-3.21-1.98-6.17-4.24-8.79-6.98-4.16-4.35-6.67-9.55-8-15.35C.34,44.42-.13,39.61.03,34.75c.18-5.61,2.03-10.7,4.95-15.4,2.67-4.29,5.85-8.18,9.64-11.55,1.83-1.63,3.75-3.11,5.81-4.43C24.05,1.05,27.98-.14,32.33.01Zm-.26,73.79c4.86.32,9.36-.88,13.59-3.23,2.85-1.59,5.48-3.48,7.97-5.59,2.91-2.48,5.26-5.46,7.66-8.4,3.66-4.47,6.06-9.61,7.57-15.15,1.2-4.39.69-8.59-1.8-12.48-.21-.33-.41-.66-.59-1-2.01-3.86-4.85-7.07-7.87-10.14-1.28-1.31-2.82-2.15-4.66-2.42-.64-.1-1.27-.31-1.91-.46-.98-.22-1.55-.81-1.69-1.82-.04-.26-.18-.51-.28-.76-1.45-3.3-3.73-5.94-6.5-8.2-1.26-1.03-2.69-1.71-4.31-1.86-2.62-.24-5.24-.46-7.87-.59-3.26-.16-6.28.71-9.11,2.3-2.3,1.3-4.41,2.86-6.38,4.63-3.84,3.44-7.08,7.38-9.81,11.72-3.03,4.8-4.8,10.01-4.73,15.79.06,4.64.67,9.19,1.75,13.67.78,3.25,2.03,6.36,3.86,9.16,2.56,3.93,5.8,7.26,9.67,9.92,1.59,1.09,3.28,2.06,5.03,2.87,3.28,1.53,6.84,1.88,10.4,2.03Z"/>
      <path d="m46.71,27.9c1.85.95,2.79,2.63,2.96,4.78.25,3.16-.15,6.21-1.42,9.18-1.38,3.24-3.37,5.93-6.33,7.8-4.12,2.61-8.6,4.03-13.54,3.51-.87-.09-1.74-.37-2.56-.7-.94-.37-1.57-1.06-1.77-2.13-.19-.95-.33-1.02-1.3-1.14-1.61-.2-2.75-1.58-2.49-3.17.21-1.28.2-2.53-.05-3.8-.49-2.53-.21-5.01.7-7.41,2.06-5.44,5.93-9.14,11.23-11.39,1.69-.72,3.49-1.07,5.32-.94,1.02.08,2.05.35,3.04.65,1.95.6,3.66,1.66,5.15,3.04.42.39.64,1.01,1.06,1.72Zm-24.11,19.53c.54.09.94.19,1.34.2,1.06.02,1.9.35,2.26,1.45.22.65.71,1.03,1.35,1.14.91.15,1.84.36,2.75.32,2.9-.14,5.78-.43,8.51-1.55,2.25-.92,4.09-2.25,5.19-4.53.53-1.1,1.27-2.13,2.07-3.06,1.64-1.92,2.52-4.05,2.23-6.6-.18-1.61-.19-3.25-.99-4.73-.41-.75-.8-1.51-1.73-1.64-.14-1.97-.58-2.58-2.4-3.31-.75-.3-1.5-.62-2.28-.85-1.26-.37-2.51-.81-3.8-.97-2.14-.26-4.14.4-6.01,1.39-2.44,1.3-4.66,2.94-6.48,5.02-2.2,2.53-3.69,5.42-3.77,8.89-.06,2.66.74,5.18,1.19,7.76.01.07.09.12.2.25.75-1.69,1.49-3.34,2.22-4.99.07.03.15.07.22.1,0,2.07-1.12,3.78-2.06,5.71Zm5.1,4.52c2.78.85,8.57.24,11.17-1.81-3.73.83-7.3,1.79-11.17,1.81Zm16.77-6.38c1.57-1.68,2.43-3.06,2.48-3.95-1.15,1.15-2.13,2.35-2.48,3.95Z"/>
      <path d="m14.12,13.44c.37-.32.76-.63,1.12-.96,3.62-3.33,7.85-5.61,12.46-7.21,2.35-.82,4.79-.79,7.19-.08.18.05.35.14.53.22.02.01.03.06,0,0-1.23,0-2.5-.01-3.77,0-1.92.02-3.75.48-5.52,1.2-4.07,1.66-7.89,3.75-11.21,6.66-.17.15-.36.28-.54.42l-.25-.24Z"/>
      <path d="m65.93,29.51c.23.38.52.73.66,1.14.21.62.39,1.26.45,1.91.32,3.4.27,6.79-.76,10.09-.1.33-.24.64-.43.95.68-3.16.64-6.36.64-9.56,0-1.5-.12-2.99-.82-4.37.09-.05.17-.1.26-.15Z"/>
      <path d="m34.54,3.42c-4.34-.21-8.32,1.27-12.35,2.54,2.08-2.06,9.46-3.61,12.35-2.54Z"/>
      <path d="m39.23,4.8c2.02.15,7.58,5.95,7.5,8.67-1.09-1.65-2-3.4-3.26-4.84-1.25-1.44-2.84-2.59-4.24-3.83Z"/>
      <path d="m44.18,58.37c1.47,2.38,3.3,4.53,4.41,7.13-.06.05-.12.1-.19.14-.19-.17-.44-.3-.56-.5-1.32-2.2-2.62-4.41-3.92-6.62.08-.05.17-.1.25-.15Z"/>
      <path d="m44.9,7.26c1.09.77,1.89,1.8,2.52,2.98.24.44.59.92.13,1.61-.23-.23-.48-.4-.62-.63-.75-1.25-1.47-2.51-2.2-3.77.05-.06.11-.12.16-.19Z"/>
      <path d="m4.71,51.56c1.2,2.71,2.38,5.37,3.52,7.94-1.31-.98-2.67-3.97-3.52-7.94Z"/>
      <path d="m2.66,40.48c.43,2.36.88,4.85,1.36,7.51-1.2-1.52-1.85-5.58-1.36-7.51Z"/>
      <path d="m19.17,25.83c1.41,1.31,2.28,2.81,3.38,4.12-1.59-.45-3.29-2.48-3.38-4.12Z"/>
      <path d="m38.31,61.89c.97,2.47,1.74,4.98,1.58,7.67-.53-1.23-.45-2.58-.77-3.86-.32-1.26-.55-2.54-.81-3.82Z"/>
      <path d="m25.31,25.26c.08.44.15.88.26,1.49-1.03-.43-1.16-1.33-1.52-2.02-.36-.7-.75-1.41-.85-2.21.07-.04.15-.08.22-.12.35.56.67,1.14,1.05,1.68.23.33.54.6.82.9,0,.09.01.19.02.28Z"/>
      <path d="m48.94,50.39c-1.33,0-2.96-1.19-3.26-2.39,1.83.79,2.86,1.55,3.26,2.39Z"/>
      <path d="m49.03,27.88c1.2-1.35,2.68-2.28,4.32-2.99.06.08.12.17.17.25-1.43.99-2.86,1.99-4.29,2.98l-.2-.24Z"/>
      <path d="m23.43,28.81c-1-.56-2.48-2.47-2.94-3.71.91.38,2.51,2.35,2.94,3.71Z"/>
      <path d="m49.64,29.01c1.79-.95,3.47-1.69,5.4-2.32-1.15,1.01-4.29,2.39-5.4,2.32Z"/>
      <path d="m26.43,21.26c.66,1.12,1.35,2.23,1.64,3.65-.93-.41-1.59-1.91-1.64-3.65Z"/>
      <path d="m54.36,62.22c-.98,1.27-2.1,2.27-3.5,3.11.52-1.07,2.5-2.82,3.5-3.11Z"/>
      <path d="m66.95,43.34c.44-1.77.88-3.54,1.37-5.52.15,2.14-.24,3.92-1.37,5.52Z"/>
      <path d="m12.53,63.42c1.59,1.51,3.19,3.01,4.75,4.5-.94-.12-2.95-1.94-4.75-4.5Z"/>
      <path d="m35.98,21.17c-.25-1.54.07-3.04.38-4.55.18,1.53.1,3.05-.38,4.55Z"/>
      <path d="m25.18,14.15c-.79-1.62-1.68-3.18-2.04-4.96.97,1.54,1.58,3.22,2.04,4.96Z"/>
      <path d="m47.32,26.2c.94-1.21,2.16-2.11,3.52-2.82-.95,1.2-2.27,1.96-3.52,2.82Z"/>
      <path d="m20.24,49.61c-.6.98-1.52,1.59-2.58,2.44.49-1.34,1.58-2.37,2.58-2.44Z"/>
      <path d="m15.3,34.6c1.34-.27,2.34.45,3.37,1.12-1.22-.07-2.29-.58-3.37-1.12Z"/>
      <path d="m42.15,55.12c-.91-.85-1.73-1.78-1.93-3.1.8.92,1.62,1.83,1.93,3.1Z"/>
      <path d="m46.88,46.36c1.14.02,1.95.49,2.61,1.48-1.18-.17-2.02-.59-2.61-1.48Z"/>
      <path d="m39,52.52c.64,1.33,1.28,2.65,1.92,3.98l-.25.12c-.88-1.22-1.48-2.58-1.93-4.01.09-.03.17-.06.26-.09Z"/>
      <path d="m52.42,41.91c-1.13.45-2.15.07-2.87-1.04,1.06.17,1.9.57,2.87,1.04Z"/>
      <path d="m26.28,71.28c-1.85.09-3.26-.54-4.56-1.49,1.45.47,2.9.95,4.56,1.49Z"/>
      <path d="m18.94,45.33c-.88.57-1.76,1.14-2.65,1.71-.06-.09-.12-.18-.18-.27.75-.75,1.63-1.32,2.61-1.75.07.1.15.21.22.31Z"/>
      <path d="m19.1,47.21c-.71.53-1.35,1.01-2.08,1.56.28-1.34,1.04-1.93,2.08-1.56Z"/>
      <path d="m43.13,54.14c-.93-.38-1.29-1.16-1.57-2.3.93.68,1.36,1.4,1.57,2.3Z"/>
      <path d="m31.24,18.32c.22,1.25.43,2.5.65,3.74-.08.01-.16.03-.24.04-.54-1.2-.42-2.51-.68-3.76.09,0,.18-.02.26-.02Z"/>
      <path d="m34.65,17.09v3.75c-.3-1.1-.28-2.42,0-3.75Z"/>
      <path d="m49.21,64.08c-.96-.27-1.68-1.34-2.25-3.3.82,1.2,1.49,2.18,2.25,3.3Z"/>
      <path d="m44.14,52.27c-1.04-.03-1.41-.69-1.82-1.47.23-.06.41-.16.48-.11.56.38,1.12.77,1.34,1.58Z"/>
      <path d="m18.15,37.42c-.97.33-1.89.15-2.83-.3.24-.17,1.87-.01,2.83.3Z"/>
      <path d="m34.4,57.87c-.09-1.13-.18-2.25-.27-3.38.1,0,.2-.02.31-.02.08,1.13.16,2.26.24,3.4-.09,0-.19,0-.28,0Z"/>
      <path d="m28.93,7.39c.2.92.38,1.66.52,2.41.1.55.16,1.1.2,1.66-.58-1.56-.84-2.98-.73-4.06Z"/>
      <path d="m14.48,63.81c1.07.92,1.92,1.65,2.85,2.45-1.01-.21-1.87-.95-2.85-2.45Z"/>
      <path d="m37.12,53.46c.27.72.55,1.43.9,2.37-.93-.68-1.2-1.3-1.14-2.32.08-.02.15-.04.23-.06Z"/>
      <path d="m36.55,21.48c.29-1.2.58-2.39.87-3.59l.25.06c-.28,1.2-.56,2.4-.85,3.59-.09-.02-.18-.04-.28-.07Z"/>
      <path d="m19.38,40.09c-.93.45-1.79.57-2.76.63.66-.71,1.51-.91,2.76-.63Z"/>
      <path d="m39.02,18.48c-.03.98-.12,1.95-.5,2.86-.08-.01-.16-.03-.24-.04.16-.95.33-1.89.49-2.84.08,0,.17,0,.25.01Z"/>
      <path d="m52.53,29.45c1.01-.4,2.02-.81,3.02-1.21.04.1.08.19.12.29-.99.41-1.99.82-2.98,1.23-.05-.1-.11-.21-.16-.31Z"/>
      <path d="m46.31,66.76c-.43-.8-.85-1.6-1.28-2.41.08-.05.16-.09.25-.14.45.79.91,1.57,1.36,2.36l-.34.18Z"/>
      <path d="m41.12,68.64c-.62-.69-.7-.92-.77-2.19.56.74.75,1.26.77,2.19Z"/>
      <path d="m27.61,21.16c.35.84.7,1.69,1.05,2.53-.78-.58-1.06-1.28-1.05-2.53Z"/>
      <path d="m39.15,8.35c-.78-.08-1.55-.17-2.33-.25.81-.29,1.61-.46,2.37-.12-.01.12-.02.25-.04.37Z"/>
      <path d="m24.33,53.4c-.3.61-.61,1.22-.91,1.83-.3-.89.19-1.43.61-2,.1.06.2.11.3.17Z"/>
      <path d="m46.44,22.2c.14.83-.16,1.29-.72,1.67-.19-.84-.17-.9.72-1.67Z"/>
      <path d="m17.05,41.48c.7-.17,1.4-.34,2.11-.51.02.08.04.16.06.24-.62.48-1.34.6-2.11.58-.02-.1-.04-.2-.06-.3Z"/>
      <path d="m25.31,25.26c0-.09-.01-.19-.02-.28-.13-.35-.26-.71-.41-1.13.69.55.96,1.05,1.16,2.18-.3-.31-.52-.54-.74-.77Z"/>
      <path d="m17.4,49.52c.29-.83.62-1.24,1.37-1.23q-.27.61-1.37,1.23Z"/>
      <path d="m50.64,39.21l1.74.42c-.7.43-1.24.12-1.8-.08.02-.11.04-.23.06-.34Z"/>
      <path d="m25.09,54.24c-.13.51-.26,1.02-.45,1.73-.31-1.06-.29-1.14.45-1.73Z"/>
      <path d="m20.74,30.41c-.55-.3-1.05-.64-1.09-1.42.44.41.87.82,1.31,1.23-.07.07-.14.13-.21.2Z"/>
      <path d="m29.96,19.99c.18.72.37,1.45.55,2.17l-.24.06c-.18-.72-.37-1.45-.55-2.17.08-.02.16-.04.24-.06Z"/>
      <path d="m23.74,26.03c.28.4.57.79.85,1.19-.8-.02-.96-.51-1.1-1.02.08-.05.16-.11.24-.16Z"/>
      <path d="m32.53,20.26c.09.54.18,1.07.28,1.61-.65-.42-.45-1.02-.53-1.56.09-.02.17-.03.26-.05Z"/>
      <path d="m33.02,20c.52.6.53.6.15,1.38-.05-.46-.1-.92-.15-1.38Z"/>
      <path d="m49.41,43.2c.39.25.78.49,1.33.84-.87.15-1.23-.16-1.54-.56.07-.1.14-.19.21-.29Z"/>
      <path d="m49.32,46.15c-.81.15-1.19-.18-1.51-.6.05-.08.1-.16.14-.24.41.26.83.51,1.37.85Z"/>
      <path d="m18.74,42.75c-.39.13-.78.26-1.17.4.16-.74.65-.62,1.08-.66.03.09.06.18.09.26Z"/>
      <path d="m30.56,8.51c.03.37.07.75.1,1.12-.08,0-.16.02-.23.03-.05-.37-.1-.74-.15-1.11l.28-.04Z"/>
      <path d="m42.35,23.04c.21-.31.42-.62.74-1.08.16.72-.24.94-.42,1.27-.11-.06-.21-.12-.32-.18Z"/>
      <path d="m44.92,49.27c.4.4.67.68,1.02,1.02q-.65-.18-1.02-1.02Z"/>
      <path d="m36.26,55.23c-.05-.35-.1-.69-.15-1.04.09-.01.18-.03.26-.04.05.36.1.72.15,1.07-.09,0-.17,0-.26.01Z"/>
      <path d="m21.95,52.33c-.07-.36-.12-.6-.19-.99q.45.43.19.99Z"/>
      <path d="m20.88,50.63c-.22.27-.44.55-.66.82-.05-.04-.11-.08-.16-.11.21-.3.41-.6.62-.89.07.06.14.12.21.18Z"/>
      <path d="m25.7,55.81c.04-.21.08-.42.12-.62.07.01.14.02.2.04-.03.21-.06.42-.09.63l-.24-.04Z"/>
      <path d="m26.36,25.18c-.08-.22-.16-.45-.23-.67l.17-.07c.08.22.16.45.25.67-.06.02-.12.05-.18.07Z"/>
      <path d="m25.39,10.98c-.09-.23-.19-.46-.28-.69.05-.02.09-.04.14-.06.1.22.2.43.3.65l-.16.1Z"/>
      <path d="m57.53,57.39l-.37.49s-.08-.06-.12-.09c.13-.16.25-.32.38-.48l.11.09Z"/>
      <path d="m27.7,51.95c3.87-.02,7.44-.98,11.17-1.81-2.6,2.05-8.39,2.66-11.17,1.81Z" style="fill: #fff;"/>
      <path d="m44.47,45.57c.35-1.6,1.34-2.8,2.48-3.95-.05.88-.91,2.27-2.48,3.95Z" style="fill: #fff;"/>
      <path d="m31.4,45.68c.26-.04.44-.08.62-.1.03,0,.06.04.04.02-.16.86-.31,1.69-.51,2.76-.32-.38-.43-.56-.58-.7-.35-.3-1.08-.26-1.54.05-.35.24-.63.69-1.29.44,1.12-1.19,2.18-2.31,3.24-3.43.07.04.14.09.21.13-.05.24-.11.49-.18.83Z"/>
      <path d="m33.19,46.29c.54-1.34,1.96-2.66,3.01-2.87-.13,1-1.58,2.43-3.01,2.87Z"/>
      <path d="m45.26,38.03c-.26,1.26-.58,2.48-1.7,3.26l-.26-.14c.57-1.09,1.13-2.18,1.7-3.27.09.05.18.1.27.15Z"/>
      <path d="m26.28,31.96c-.77.84-1.29,1.93-2.48,2.59-.02-.34-.11-.55-.04-.67.57-.96,1.5-1.48,2.52-1.92Z"/>
      <path d="m29.54,27.68c.94-1.24,2.47-2.26,3.59-2.39-1.2.96-2.2,1.94-3.59,2.39Z"/>
      <path d="m46.32,32.2c.42,1.25.14,2.15-.86,2.99.32-1.13.59-2.06.86-2.99Z"/>
      <path d="m25.05,36.85c-.48.93-.96,1.86-1.52,2.95-.17-1.16.38-2.29,1.52-2.95Z"/>
      <path d="m39.96,32.18c.2-.8.47-1.55,1.46-2.17-.19,1.12-.67,1.74-1.46,2.17Z"/>
      <path d="m34.22,47.49c-.66.84-1.09,1.08-2.14,1.21.41-.65,1.25-1.12,2.14-1.21Z"/>
      <path d="m39.27,37.07c-.58,1.04-1.49,1.77-2.55,2.38.78-.85,1.57-1.7,2.35-2.55.06.06.13.11.19.17Z"/>
      <path d="m37.15,47.38c.63-.39,1.26-.78,2.07-1.28q-.37.89-2.07,1.28Z"/>
      <path d="m21.92,36.72c.28-.54.56-1.09.84-1.63.1.05.19.09.29.14-.11.62-.52,1.11-.81,1.65-.11-.05-.22-.11-.33-.16Z"/>
      <path d="m41.91,39.14c-.45.5-.89.99-1.34,1.49-.07-.06-.14-.11-.21-.17.42-.53.84-1.05,1.27-1.58.09.09.19.17.28.26Z"/>
      <path d="m25.54,46.28c.38-.56.77-1.11,1.26-1.83.04.96-.05,1.1-1.03,1.97-.07-.04-.15-.09-.22-.13Z"/>
      <path d="m40.25,42.65q-.67.76-1.44.64c.28-.57.69-.76,1.44-.64Z"/>
      <path d="m43.58,33.05c-.42.61-.84,1.21-1.26,1.82-.07-.04-.14-.09-.22-.13.4-.62.81-1.24,1.21-1.87.09.06.18.12.27.18Z"/>
      <path d="m25.51,44.25c-.37.71-.74,1.42-1.11,2.14-.08-.04-.17-.09-.25-.13.37-.72.75-1.44,1.12-2.15.08.05.16.1.24.15Z"/>
      <path d="m35.35,27.9c.44-.37.89-.73,1.33-1.1.06.07.11.13.17.2-.27.55-.69.94-1.3,1.12-.07-.07-.13-.15-.2-.22Z"/>
      <path d="m28.36,38.74q.04.6-.45,1.13-.04-.65.45-1.13Z"/>
      <path d="m33.02,27.88c-.54.47-.89.78-1.28,1.12.06-.75.15-.84,1.28-1.12Z"/>
      <path d="m37.46,35.59c-.3.34-.61.68-1.02,1.14q.13-.83,1.02-1.14Z"/>
      <path d="m47.24,37.84c-.19.26-.38.52-.69.94-.25-.77-.02-1.02.4-1.16.1.08.19.15.29.23Z"/>
      <path d="m43.24,28.25c-.16-.22-.38-.44-.35-.49.11-.16.31-.26.47-.39.1.14.27.29.27.43,0,.13-.21.25-.38.45Z"/>
      <path d="m28.18,46.18c-.21.25-.43.49-.77.88-.06-.73.32-.84.77-.88Z"/>
      <path d="m26.8,46.04c.19-.25.37-.5.56-.75.19.52.04.79-.56.75Z"/>
      <path d="m36.57,46.49c.27-.17.54-.34.81-.52l.14.22c-.26.18-.53.36-.79.55-.05-.08-.11-.16-.16-.25Z"/>
      <path d="m44.5,30.82c-.27.19-.4.34-.47.32-.12-.04-.25-.19-.26-.3,0-.09.16-.27.24-.27.13,0,.26.13.49.26Z"/>
      <path d="m43.13,38.71c.14-.38.16-.53.24-.63.09-.1.24-.14.4-.23.24.51-.08.61-.64.86Z"/>
      <path d="m41.3,44.42c.12-.2.24-.41.37-.61.06.03.13.05.19.08-.03.14-.03.3-.1.42-.06.1-.2.15-.31.23-.05-.04-.1-.08-.15-.12Z"/>
      <path d="m22.1,40.38c.05-.22.1-.45.15-.67.06.01.13.03.19.04-.06.22-.13.44-.19.67-.05-.01-.1-.02-.15-.04Z"/>
      <path d="m42.79,39.46c-.16.1-.32.2-.48.29-.03-.07-.1-.18-.09-.19.15-.11.3-.21.46-.31.04.07.07.13.11.2Z"/>
      <path d="m43.91,35.29c-.07.27-.14.53-.26.99-.1-.25-.17-.34-.15-.39.08-.22.19-.44.28-.65.04.02.09.03.13.05Z"/>
      <path d="m45.45,33.4c-.13.14-.26.29-.39.43-.05-.05-.15-.12-.14-.14.09-.17.19-.33.29-.49.08.07.16.13.24.2Z"/>
      <path d="m45.26,36.13c.06-.17.13-.34.19-.51.06.02.12.04.18.07-.06.17-.12.34-.18.51-.06-.02-.12-.05-.19-.07Z"/>
    </g>
  </g>
</svg>