<?xml version="1.0" encoding="UTF-8"?>
<svg id="Layer_2" data-name="Layer 2" xmlns="http://www.w3.org/2000/svg" viewBox="0 0 84.22 84.09">
  <g id="objects">
    <g>
      <path d="m58.25,75c-5.56,2.6-10.83,6.61-17.1,7.27-6.21.65-12.64-2.94-17.99-5.72-5.1-2.64-10.14-6.11-12.8-11.38-2.93-5.79-2.56-12.53-4.88-18.52-1.16-3-3.3-5.52-4.26-8.6-1.4-4.5-.7-9.99.9-14.35,1.12-3.03,2.93-5.88,5.53-7.84,2.83-2.13,6.28-2.67,9.67-3.26,2.66-.46,5.27-1.01,7.67-2.31,2.82-1.53,5.17-3.76,7.89-5.45,13.4-8.32,28.82.28,38.18,10.47-.05-.06.54-.98.33-1.22C62.57,4.01,48.06-4.35,34.73,2.5c-2.86,1.47-5.23,3.67-7.93,5.41-3.38,2.18-6.98,2.76-10.84,3.46-6.17,1.12-10.58,4.07-13.18,9.86C.68,25.89-.43,31.6.15,36.68c.39,3.41,2.08,5.99,3.65,8.95,1.75,3.3,2.48,6.89,3.14,10.54,1.22,6.79,2.93,12.65,8.35,17.24,4.99,4.22,11.55,7.23,17.66,9.42,7.76,2.79,14.21-.53,20.96-4.16,3.5-1.88,7.06-3.28,10.76-4.67,3.31-1.25,6.31-2.74,8.5-5.62.22-.29.21-1.17.29-1.26-3.76,4.58-10.09,5.49-15.21,7.88Z"/>
      <path d="m76.39,19.89s-.26.5-.19.64c3.12,5.73,6.62,11.44,7.26,18.08.47,4.87-1.25,9.29-3.05,13.71-1.31,3.23-2.59,9.32-5.89,10.82-.17.08-.4,1.12-.31,1.13,1.39.08,1.99-1.06,2.57-2.18,1.12-2.17,1.89-4.59,2.81-6.85,1.57-3.86,3.34-7.72,4.11-11.84,1.58-8.42-2.24-16.95-7.32-23.5Z"/>
      <path d="m24.2,22.82c-.97-.21-2.09.53-2.81,1.07-2.08,1.54-3.76,3.72-4.8,6.08-.03.07-.06.36-.06.37,1.26-1.67,2.34-3.33,3.95-4.7.81-.69,1.83-1.52,2.95-1.55,1.34-.04,1.61,1.02,1.88,2.13,0-.01.17-.38.17-.5-.02-1.05,0-2.62-1.27-2.89Z"/>
      <path d="m31.73,38.41c-2.42-1.66-4.73-3.46-7.36-4.78-2.38-1.19-4.94-1.84-7.2-3.27-.02-.01-.15.35-.11.4,1.79,2.5,4.77,3.11,7.36,4.48,2.83,1.5,5.42,3.41,8.15,5.09,2.95,1.81,10.52,6.01,13.04,1.58.04-.07.05-.29.06-.31-3,4.03-11.11-1.26-13.94-3.2Z"/>
      <g>
        <path d="m53.81,44.53s0-.04,0-.05c0,0,0,.02,0,.05Z"/>
        <path d="m52.87,33.7c-.95-2.09-1.79-4.26-3.77-5.61-2.49-1.7-5.59-1.9-7.04-4.89,0-.03-.02-.04-.05-.01-2.36,2.8-5.44,4.49-9.05,5.09-.08.01-.14.13-.18.28-2.72-1.51-5.27-3.28-7.94-5.07,0,0-.06.13-.04.15,2.91,3.33,7.03,5.86,11.06,7.62,1.91.83,3.88,1.5,5.89,2.01,2.18.55,5.99.99,5.73,4.12-.02.27.18-.34.19-.43.64-4.68-6.32-4.79-9.47-5.91-1.52-.54-2.95-1.19-4.33-1.91.93-.23,1.84-.53,2.72-.95,1.52-.72,2.63-1.93,4.05-2.73.73-.41.25-.84,1.41-.41.41.15.97,1.13,1.36,1.43,1.2.92,2.62,1.35,3.96,2,3.33,1.63,4.14,4.55,5.82,7.59.65,1.17,1.81,2.2,1.75,3.46-.04.86-.67,1.91-.86,2.78-.15.7-.26,1.43-.28,2.15.01-.04.03,2.34.11,1.86-.2,1.16-.5,1.09-1.54,1.67-3.5,1.93-7.2,3.63-10.99,4.91-1.69.57-2.39.05-3.84-.9-1.29-.85-2.85-1.25-4.1-2.04-1.09-.69-1.6-2.58-2.54-3.53-1.07-1.07-2.28-1.64-3.73-1.93,1.08-2.82,1.31-5.74-.02-8.61.01.03-.38.67-.29.89,1,2.58,1.34,5.14.04,7.82-.05.09-.32.85-.18.89,2.74.92,4.64,2.73,5.64,5.46,0,.01.01.02.02.03,3.11-.62,4.29,3.14,6.97,3.58,1.17.19,2.89-.79,3.94-1.2,1.5-.58,2.98-1.22,4.44-1.89,2.8-1.3,6.29-2.15,6.68-5.52.25-2.17.64-4.48.98-6.65.04-.23.18-.45.17-.7-.04-1.63-2.02-3.39-2.71-4.91Z"/>
      </g>
      <g>
        <path d="m11.3,49.87c-1.2-1.52-2.92-2.58-4.17-4.08-1.35-1.62-2.35-3.49-3.33-5.35-.63-1.19-1.26-2.37-1.7-3.64.28,1.02.67,2.05,1.19,3.08,1.95,3.9,4.27,7.66,7.96,10.17,0,0,.07-.16.05-.19Z"/>
        <path d="m1.61,30.52c-.18,1.62-.2,3.26.11,4.87.09.49.23.96.39,1.42-.57-2.06-.7-4.13-.5-6.29Z"/>
        <path d="m1.97,28c-.16.86-.28,1.7-.36,2.52.1-.87.23-1.73.4-2.59.02-.09-.03.04-.04.07Z"/>
      </g>
      <path d="m10.29,50.41c-1.22-.88-2.36-1.81-3.39-2.9.01.01-.12.22-.07.27,1.02,1.08,2.14,2.09,3.39,2.89,0,0,.12-.23.07-.27Z"/>
      <path d="m7.4,49.04s.02-.05.01-.05c-.01,0-.02.05-.01.05Z"/>
      <path d="m13.58,48.51c-2.76-.9-5.05-3.4-6.78-5.65-1.88-2.45-3.28-5.24-4.15-8.2,0,0-.01.02,0,.03.79,2.9,2.05,5.62,3.84,8.04,1.67,2.27,4.19,5.28,7.04,5.98.02,0,.08-.2.06-.21Z"/>
      <path d="m15.77,48.12c-2.63-.5-4.52-2.36-6.33-4.21,0,0-.03.06-.02.08,1.72,1.93,3.62,3.91,6.28,4.37.03,0,.09-.24.07-.24Z"/>
      <path d="m17.25,47.59c-.88-.54-1.89-.84-2.78-1.38-.87-.54-1.68-1.17-2.4-1.9,0,0-.04.08-.03.1,1.28,1.38,3.19,3.13,5.16,3.34.02,0,.06-.15.04-.16Z"/>
      <path d="m19.05,47.14c-1.06-.97-2.43-1.68-3.69-2.35-.01,0-.12.26-.08.28,1.29.68,2.45,1.55,3.72,2.25,0,0,.07-.15.05-.18Z"/>
      <path d="m20.77,46.75c-1.69-.89-3.33-1.6-4.83-2.81,0,0-.12.22-.07.26,1.39,1.13,3.09,2.29,4.86,2.68.01,0,.05-.12.03-.13Z"/>
      <path d="m22.44,45.6c-1.08-.3-2.1-.46-3.1-1.01-.97-.54-1.77-1.27-2.44-2.15.02.02-.12.21-.08.28,1.25,1.63,3.42,3.18,5.58,3.04.02,0,.06-.14.04-.15Z"/>
      <path d="m23.41,45.08c-2.23-.24-3.98-2.39-5.75-3.61,0,0-.03.06-.02.07.95.85,1.97,1.61,2.95,2.41.8.65,1.64,1.56,2.76,1.34.04,0,.07-.21.06-.21Z"/>
      <path d="m23.96,44c-.56-.41-1.18-.76-1.77-1.12,0,0-.13.25-.08.28.59.35,1.17.75,1.79,1.05.01,0,.09-.19.06-.21Z"/>
      <g>
        <path d="m1.8,30.5s.04-.09.04-.12c-.04-.32-.05-.64-.05-.96,0,.35,0,.71.01,1.07Z"/>
        <path d="m1.79,29.43c.01-.5.06-.99.12-1.49-.07.49-.12.99-.12,1.49Z"/>
        <path d="m2.2,26.48c-.14.49-.23.97-.29,1.46.07-.49.17-.98.3-1.46,0-.03,0-.03,0,0Z"/>
      </g>
      <g>
        <path d="m2.65,23.43c.36-1.7,1.24-3.15,2.41-4.36-1.18,1.15-2.05,2.57-2.41,4.36Z"/>
        <path d="m10.47,15.7c-2,.72-3.94,1.85-5.41,3.37,2.57-2.5,6.61-3.69,10.03-4.43,4.34-.94,8.92-1.77,12.18-5.05.02-.02.01-.08.02-.08-4.59,4.31-11.2,4.16-16.82,6.19Z"/>
        <path d="m2.51,24.33c.01-.12.03-.24.05-.36-.02.13-.04.25-.06.38,0,.01,0-.01,0-.02Z"/>
        <path d="m2.65,23.43c-.02.08-.03.16-.05.24.01-.08.03-.16.05-.24Z"/>
        <path d="m2.6,23.67c-.02.1-.03.19-.04.29.01-.1.03-.2.04-.29Z"/>
      </g>
      <path d="m21.34,14.67s-.02.08-.02.08c2.58-.76,4.91-2.04,6.85-3.92.02-.02.01-.08.02-.08-2.01,1.78-4.27,3.13-6.84,3.92Z"/>
      <path d="m23.7,14.94c-.06.02-.05.23-.07.24,1.5-.47,2.87-1.27,3.95-2.42.03-.03.03-.14.03-.14-1.15,1.05-2.42,1.86-3.92,2.33Z"/>
      <path d="m25.31,15.67c-.06.03-.06.26-.06.26,1.17-.62,2.27-1.37,3.19-2.33.02-.02.03-.13.03-.13-1,.83-2.01,1.59-3.17,2.2Z"/>
      <path d="m26.95,15.9s-.03.14-.03.14c.32-.23.64-.46.96-.69.03-.02.02-.12.03-.12-.32.22-.64.45-.95.67Z"/>
      <path d="m28.02,16.54s.02-.05.01-.05c-.01,0-.02.05-.01.05Z"/>
      <path d="m29.95,16.86c-.4.61-.97.93-1.62,1.24-.03.01-.05.18-.04.18.71-.08,1.31-.7,1.64-1.29.01-.02.03-.15.02-.13Z"/>
      <path d="m23.46,37.03s-.05.1-.03.11c2.64,1.26,2.81,4.23,2.55,6.78,0,.08.05-.09.05-.11.4-2.58.17-5.66-2.57-6.79Z"/>
      <path d="m26.18,37.41s-.1.17-.06.22c1.16,1.5,1.51,3.4.83,5.21,0,.02-.03.16,0,.1.77-1.87.52-3.94-.77-5.53Z"/>
      <path d="m24.23,40.87s-.08.13-.06.18c.09.18.18.36.28.53,0,0,.07-.12.05-.15-.09-.19-.18-.37-.27-.56Z"/>
      <path d="m31.21,18.11c-.56.81-1.2,1.51-1.95,2.15-.03.02-.03.13-.03.13.79-.57,1.45-1.32,1.95-2.16.01-.02.04-.15.02-.13Z"/>
      <path d="m30.07,20.77s.02-.05.01-.05c-.01,0-.02.05-.01.05Z"/>
      <path d="m4.39,21.12c-.77,1.53-1.34,3.15-1.69,4.82-.02.1.02.02.03-.03.39-1.64.93-3.21,1.65-4.73,0-.01.02-.1,0-.06Z"/>
      <path d="m3.41,27.61s0-.04-.01,0c-.79,2.7-.51,5.53.96,7.95,0,0,.03-.06.02-.07-1.34-2.45-1.75-5.15-.97-7.88Z"/>
      <path d="m10.57,42.96c-3.07-3.96-5.83-8.21-5.9-13.39,0-.01-.03.06-.03.08.06,5.04,2.58,9.76,5.9,13.45,0,0,.06-.11.04-.14Z"/>
      <path d="m12.74,43.33c-1.14-1.57-2.26-3.14-3.24-4.81,0,0-.1.17-.07.23.97,1.66,2.02,3.32,3.25,4.79,0-.01.09-.16.06-.21Z"/>
      <path d="m8.26,41.83c-.94-1.17-1.89-2.3-2.72-3.54,0,0-.06.11-.04.14.79,1.26,1.65,2.52,2.72,3.56,0,0,.07-.13.04-.16Z"/>
      <path d="m8.4,60.34c-.95-3.45.1-6.92-.79-10.33-.77-2.95-2.6-5.81-4.85-7.85,0,0-.11.24-.09.29.34.64.7,1.26,1.07,1.88-.03.09-.05.18-.03.22.72,1.95,1.7,3.79,2.43,5.74.6,1.61.9,3.21,1.21,4.87-.17,2.11-.44,4.43.84,5.88,0,0,.24-.59.21-.7Z"/>
      <path d="m20.13,71.99c-3.04-2.26-5.86-4.59-7.93-7.82-2.26-3.53-3.32-7.63-2.95-11.81,0-.07-.05.09-.05.12-.8,7.88,3.89,16.03,10.87,19.71,0,0,.08-.17.05-.19Z"/>
      <path d="m19.16,72.45c-2-1.53-3.95-2.95-5.61-4.86-1.78-2.04-3.17-4.37-4.15-6.89,0,.01-.08.14-.06.2,1.75,4.64,5.21,9.49,9.78,11.72,0,0,.07-.14.04-.16Z"/>
      <path d="m21.51,70.78c-4.24-2.26-7.11-5.85-9.31-10.07,0,0-.03.05-.02.07,2.05,4.08,4.81,8.48,9.26,10.26.02,0,.11-.24.07-.26Z"/>
      <path d="m21.77,69.54c-1.51-1.26-3.02-2.41-4.35-3.87.01.01-.12.22-.07.27,1.27,1.39,2.72,2.86,4.36,3.81,0,0,.09-.19.06-.22Z"/>
      <path d="m21.61,67.8c-.27-.37-.69-.66-1.03-.99-.34-.33-.66-.66-.98-1.01.01.01-.13.23-.08.28.32.34.64.68.98,1.01.31.3.66.73,1.05.9.02,0,.07-.17.05-.2Z"/>
      <path d="m21.91,66.53c-.26-.31-.65-.54-.96-.79,0,0-.07.14-.04.16.29.28.6.65.95.84.01,0,.08-.19.06-.21Z"/>
      <path d="m22.32,65.85c-.22-.23-.66-.21-.95-.16-.06.01-.07.27-.07.27.16-.03.32-.04.49-.02.16.02.32.1.48.09.03,0,.07-.17.05-.19Z"/>
      <path d="m30.65,79.57c-2.68-1.2-5.23-2.76-7.78-4.22-2.57-1.47-5.1-3.06-7.49-4.82,0,0-.04.07-.02.08,2.3,1.8,4.73,3.37,7.22,4.9,2.59,1.59,5.18,3.25,7.95,4.5,5.13,2.3,11.05,2.48,16.28.41.05-.02.04-.18.05-.19-5.31,1.74-11.08,1.64-16.21-.66Z"/>
      <path d="m29.14,8.36s0,.02,0,.02c.93-.21,1.72-.6,2.44-1.23.02-.02.02-.09.02-.1-.75.56-1.57,1.01-2.46,1.31Z"/>
      <path d="m68.15,15.69c-1.88-3.2-4.92-6.85-8.4-8.33,0,0-.04.08-.02.09,3.53,1.67,6.29,5.24,8.37,8.42,0,0,.08-.14.06-.18Z"/>
      <path d="m63.28,10.94s-.12.23-.07.27c1.48,1.23,2.53,2.72,3.36,4.44,0,0,.1-.18.08-.24-.7-1.75-1.91-3.28-3.36-4.48Z"/>
      <path d="m62.72,11.63s-.12.21-.07.26c1.09,1.13,1.84,2.42,2.7,3.71,0,0,.07-.13.05-.17-.58-1.42-1.63-2.72-2.68-3.81Z"/>
      <path d="m62.18,12.04s-.12.21-.07.26c1.01,1.23,1.66,2.56,2.34,3.99,0,0,.07-.14.06-.19-.46-1.49-1.35-2.87-2.33-4.07Z"/>
      <path d="m62.07,13.5s-.13.22-.08.29c.75,1.07,1.29,2.22,1.93,3.35,0,0,.06-.12.05-.15-.43-1.25-1.15-2.4-1.9-3.48Z"/>
      <path d="m61.5,14.91s-.09.16-.07.22c.36.94.7,1.89,1.09,2.82,0,0,.05-.08.04-.11-.32-.99-.7-1.95-1.06-2.93Z"/>
      <path d="m64.07,14.9s.02-.05.01-.05c-.01,0-.02.05-.01.05Z"/>
      <path d="m67.76,13.4s.02-.05.01-.05c-.01,0-.02.05-.01.05Z"/>
      <g>
        <path d="m55.59,39c0,.18,0,.35-.01.53.03.14.07.28.1.42.05.2-.16.59-.25.79-.03.14-.05.27-.08.41,0,.07-.01.13-.02.21,0,.07-.07.27-.13.46-.27,1.03-.76,2.22-.67,3.22-.14.85-.06.86.24.01,0-.01.01-.02.02-.03.08-.85.21-1.7.41-2.55.11-.45.26-.89.4-1.33.13-1.1.18-2.09.04-2.53,0,.13-.03.27-.04.4Z" style="fill: none;"/>
        <path d="m66.89,46.7c-.25-.18-.53-.31-.83-.39-1-.46-2-.77-3.09-.95-.93-.39-2.01-.44-3.06-.5-.72-.22-1.38-.58-1.9-1.19.02.02-.18.34-.13.43.15.24.32.43.5.61-1.01-.17-1.91-.53-2.51-1.48-.01-.69.09-1.44.17-2.06.06-.37.11-.73.15-1.08.16-.6.41-1.21.4-1.83-.03-1.67-1.28-2.45-2.19-3.7-1.46-2-2.27-4.32-2.58-6.75,0-.03-.03-.04-.05-.01-.04.03-.07.06-.11.09.02-.17.06-.53.02-.49-.2.23-.41.4-.63.51-.48-.18-1.04-.16-1.58-.25-2.75-.48-5.13-1.92-7.08-3.87,0,0-.16.31-.11.38,1.54,2.34,3.67,4.04,6.42,4.75.28.07.54.12.77.17.36.27.67.25.96.23.02,0,.05.02.07.03,0,.02,0,.05,0,.06.06.17.11.35.17.52.05,1.02-.03.61.38,1.72,0,.01.09-.2.18-.44.14.32.29.63.44.94.06.34.19.66.52,1-.01-.01.04-.12.1-.27.54,1.4,1.3,2.66,2.2,3.87.38.51.71.87.96,1.21-.02.11-.04.21-.04.25-.01.1-.02.2-.03.3-.09.22-.2.49-.2.62,0,2.49-1.02,4.81-1.28,7.24-.25-.6-.65-1.14-.99-1.69-.37-.59-.74-1.18-1.11-1.77,0,0-.36.61-.25.79.4.63.79,1.25,1.19,1.88.31.5.6,1.2,1.09,1.54,0,0,.02-.01.03-.04,0,.06-.01.13-.01.19-.59.46-1.15.94-1.68,1.39-1.87,1.57-3.69,2.46-6.08,3-.98.22-1.96.39-2.92.67-.71.21-1.69.84-2.42.94-1.4.2-2.07-.93-3.16-1.55-1.11-.63-2-.69-3.24-.78-.01,0-.04.09-.03.1,2.09,1.16,3.95,2.71,5.12,4.82.02.06.05.07.09.03,2.96-1.69,6.53-1.29,9.5-2.88,1.23-.66,2.15-1.67,3.21-2.55.58-.49,1.2-.91,1.83-1.31,0,.07.03.12.07.09.62-.41,1.36-.78,1.99-1.24.85.63,1.75.39,2.7-.02.91-.4,1.61-.69,2.6-.75.11,0,.22,0,.33-.01,1.52.07,3.04.14,4.56.24.02,0,.05-.04.08-.09.1.05.2.1.3.16.03.02.33-.69.21-.78Zm-11.3-5.57c-.14.44-.29.88-.4,1.33-.2.84-.33,1.69-.41,2.55,0,.01-.01.02-.02.03-.3.84-.38.84-.24-.01-.09-1,.4-2.19.67-3.22.07-.19.13-.39.13-.46,0-.08.01-.14.02-.21.03-.14.06-.27.08-.41.09-.2.3-.59.25-.79-.03-.14-.07-.28-.1-.42.01-.18.02-.35.01-.53.01-.13.03-.26.04-.4.15.44.09,1.43-.04,2.53Z"/>
      </g>
      <path d="m68.87,49.51s-.06.12-.04.14c2.78,1.85,4.54,4.65,5.11,7.93,0-.02.07-.14.06-.2-.37-3.3-2.29-6.18-5.14-7.87Z"/>
      <path d="m73.17,25.81c-.1,0-.16.52-.14.52.1,0,.16-.52.14-.52Z"/>
      <path d="m73.45,19.52s0,0,0,0c4.82,6.27,9.5,13.19,8.51,21.5,0,.05.03-.06.04-.07,1.2-8.13-3.44-15.55-8.54-21.44Z"/>
      <path d="m79.16,29.69s-.04.07-.03.1c1.58,4.05,2.16,8.25,1.49,12.56-.01.07.03-.03.03-.05.76-4.24.33-8.69-1.49-12.61Z"/>
      <path d="m79.51,33.84s-.1.18-.08.26c.61,2.76.62,5.5.08,8.27-.02.11.04-.03.05-.07.63-2.81.61-5.66-.04-8.46Z"/>
      <path d="m53.34,26.79s-.05.26-.01.16c.9-2.14,2.27-3.79,4.06-5.23.05-.04.05-.23.05-.23-1.89,1.26-3.29,3.2-4.1,5.3Z"/>
      <path d="m30.78,21.4s-.02.09-.02.1c.64-.48,1.16-1.08,1.52-1.79,0-.01.02-.08.01-.07-.38.69-.88,1.29-1.52,1.77Z"/>
      <path d="m33.55,19.75c-.83,1.63-2.03,2.82-3.57,3.78-.01,0,0,.05-.01.05,1.62-.69,2.88-2.11,3.56-3.71.01-.02.03-.14.02-.12Z"/>
      <path d="m34.4,20.38c-.92,1.79-2.1,3.51-4.04,4.26-.05.02-.04.18-.05.19,2.01-.69,3.23-2.49,4.08-4.36,0-.02.02-.1.01-.09Z"/>
      <path d="m35.26,21.64c-.55,1.49-1.86,2.42-3.13,3.27-.07.05-.07.33-.08.33,1.34-.91,2.71-1.9,3.21-3.52.01-.04.04-.22,0-.09Z"/>
      <path d="m36.05,22.75c-.75,1.38-1.7,2.57-2.96,3.53-.08.06-.07.34-.08.35,1.3-.98,2.34-2.23,3.01-3.71.01-.03.04-.19.02-.16Z"/>
      <path d="m36.08,24.87s.02-.05.01-.05c-.01,0-.02.05-.01.05Z"/>
      <path d="m44.07,15.35c-3.32.14-5.73,4.13-7.35,6.57-.02.03-.05.2-.03.18,1.58-2.25,3.47-5.15,6.21-6.12,1.15-.41,2.33-.23,3.27.57,1.55,1.3,1.66,3.39,1.29,5.25-.03.13.04-.03.05-.07.58-2.51-.04-6.52-3.44-6.37Z"/>
      <path d="m44.43,17.81c-1.31-1.38-3.4.5-4.38,1.43-1.31,1.24-2.38,2.75-3.27,4.31-.01.03-.04.15-.02.13.99-1.47,1.94-2.95,3.23-4.17,1.09-1.03,2.91-2.62,4.4-1.54,0,0,.07-.14.04-.16Z"/>
      <path d="m44.26,19.57c-2.86-1.43-5.62,3.19-7.11,4.92-.03.03-.02.13-.03.14,1.86-2.09,3.88-5.5,7.08-4.85.02,0,.09-.2.06-.21Z"/>
      <path d="m39.9,23.1s.02-.05.01-.05c-.01,0-.02.05-.01.05Z"/>
      <path d="m46.21,14.39s-.09.22-.06.23c2.51.58,4.03,2.9,3.51,5.45-.02.1.02.02.03-.03.64-2.59-.84-5.07-3.48-5.64Z"/>
      <path d="m48.91,16s.02-.05.01-.05c-.01,0-.02.05-.01.05Z"/>
      <path d="m23.44,47.23c-.05.02-.04.2-.05.2,3.68-1.05,7.36,2.42,6.17,6.21-.01.04-.04.24,0,.1,1.4-4-1.93-7.81-6.13-6.51Z"/>
      <path d="m27.54,54.67c1.33-1.5,1.26-3.93.02-5.44.02.02-.16.28-.1.35,1.14,1.43,1.18,3.36.11,4.9-.03.04-.03.18-.04.19Z"/>
      <path d="m29.83,47.78s-.15.28-.09.33c1.62,1.49,2.1,3.84,1.01,5.84-.02.04-.05.22-.03.2,1.32-2.01.93-4.8-.88-6.37Z"/>
      <path d="m32.44,53.62c-.05.05-.05.27-.06.27,1-.82,2.39-.81,3.51-.23,1.37.71,1.93,2.12,2.55,3.43,0,0,.11-.24.1-.31-.52-2.66-3.57-5.72-6.1-3.17Z"/>
      <path d="m36.17,55.41s-.27.46-.16.59c.67.82,1.3,1.73,2.1,2.44,0,0,.11-.24.09-.29-.58-.98-1.33-1.85-2.03-2.74Z"/>
      <path d="m39.94,81.33c-3.71-.28-7.2-1.14-10.5-2.91-3.18-1.71-5.95-3.99-8.83-6.15,0,0-.03.05-.02.06,5.43,4.75,11.73,9.35,19.29,9.18.03,0,.06-.18.05-.19Z"/>
      <path d="m76.06,55.54s.08-.15.06-.19c-.86-2.57-2.27-5.28-4.91-6.36-.01,0-.05.09-.08.18-1.57-.93-3.44-1.24-5.27-1.54-.02,0-.05.12-.03.12,2.22.47,4.67,1.03,6.38,2.62,1.76,1.64,2.39,3.93,3.08,6.14,0-.01.08-.15.07-.2-.47-2.12-1.23-4.38-2.76-5.98-.2-.2-.4-.39-.61-.56,2.09,1.29,2.96,3.6,4.08,5.78Z"/>
      <path d="m70.14,47.43s-.04.15-.04.15c3.79-.49,6,3.65,7.24,6.57,0,0,.07-.13.06-.18-.76-3.19-3.56-7.14-7.25-6.55Z"/>
      <path d="m75.31,48.99s-.17.31-.1.37c.49.38.95.8,1.35,1.28.2.24.38.48.56.74.15.23.27.55.51.71.01,0,.05-.15.05-.16-.28-1.15-1.46-2.23-2.36-2.93Z"/>
      <path d="m77.29,26.9c-2.09-3.19-4.68-6.1-7.09-9.05,0,0-.05.1-.03.12,2.37,3,4.54,6.22,7.08,9.08,0,0,.06-.12.05-.15Z"/>
      <path d="m71.72,21.19s-.09.17-.06.21c2.78,3.35,5.38,6.72,6.83,10.87,0,0,.05-.09.04-.13-1.12-4.23-4.05-7.68-6.82-10.96Z"/>
      <path d="m75.96,28.7s-.12.2-.09.27c.87,1.62,1.24,3.24,1.74,4.98,0,0,.06-.14.06-.18-.16-1.78-.87-3.52-1.72-5.07Z"/>
      <path d="m57.7,36.36c-2.6-2.02-4.1-4.93-3.57-8.27.01-.09-.03.04-.04.06-.63,3.14.65,6.77,3.57,8.33,0,0,.05-.11.03-.13Z"/>
      <path d="m59.18,35.55c-2.02-1.59-3.52-3.31-3.78-5.98,0,.05-.13.26-.12.38.22,2.29,1.57,4.95,3.85,5.81.02,0,.08-.19.06-.21Z"/>
      <path d="m60.65,35.34c-1.34-1.11-2.39-2.27-2.84-4,0,.03-.14.25-.11.35.4,1.54,1.39,3.17,2.9,3.84.01,0,.08-.18.05-.2Z"/>
      <path d="m58.07,37.48s.04-.16.02-.14c-1.2,1.77-1.33,5.01.58,6.35,0,0,.06-.12.04-.14-1.29-1.93-1.95-3.81-.65-6.07Z"/>
      <path d="m59.59,37.61c-.09,0-.18,0-.28.01-.02,0-.04.13-.03.13.09.01.18.01.27.01.03,0,.05-.15.04-.15Z"/>
      <path d="m45.99,78.67c-1.36.59-2.83.85-4.3.91-1.51.06-3.02-.08-4.52-.27-1.39-.18-3.11-.17-4.23-1.11,0,0-.06.12-.04.14,1.13.99,2.75,1.08,4.18,1.29,1.65.24,3.31.4,4.97.29,3.25-.22,5.71-1.7,8.04-3.89.04-.03.04-.18.04-.19-1.32,1.04-2.59,2.16-4.16,2.84Z"/>
      <path d="m73.14,64.76c-2.69,4.88-8.35,6.29-13.27,7.86-2.47.78-4.89,1.67-7.04,3.15-2.26,1.56-4.24,3.45-6.9,4.31-.03,0-.03.11-.03.11,2.46-.56,4.34-2.24,6.33-3.69,2.56-1.86,5.45-2.9,8.46-3.8,4.71-1.41,10-3.03,12.42-7.72.02-.04.05-.24.04-.21Z"/>
      <path d="m73.3,60.53c-1.27,9.11-13.09,10.06-19.68,13.27-.04.02-.04.2-.04.2,6.71-3.43,18.67-4.06,19.79-13.6,0-.08-.06.1-.06.13Z"/>
      <path d="m72.16,59.32c-.09,4.58-3.94,7.38-7.65,9.2-3.16,1.55-6.63,2.69-10.02,3.59-.04.01-.03.15-.04.16,4.52-1.35,9.12-2.4,13.06-5.15,2.62-1.83,4.81-4.59,4.71-7.92,0-.02-.05.1-.05.13Z"/>
      <path d="m75.68,58.22c-.4,2.4-1.19,4.65-2.41,6.75-.01.02-.02.09-.01.08,1.28-2.15,2.14-4.47,2.49-6.95.01-.09-.06.09-.06.12Z"/>
      <path d="m75.92,58.8c-.05.46-.1.92-.14,1.38-.01.13.09-.16.09-.21.04-.45.09-.9.13-1.35.01-.11-.07.14-.08.18Z"/>
      <path d="m71.52,56.58c-.07,3.67-1.67,7.12-4.62,9.33-2.22,1.66-4.96,2.55-7.61,3.29-.04.01-.03.15-.04.15,3.77-1.04,7.57-2.28,9.98-5.58,1.53-2.09,2.38-4.7,2.33-7.29,0-.02-.04.08-.04.1Z"/>
      <path d="m65.29,49.64s-.04.1-.03.1c2.06.88,3.88,1.98,4.73,4.15,0,0,.05-.1.04-.14-.64-2.34-2.68-3.25-4.75-4.12Z"/>
      <path d="m80.82,44.07c-1.4,2.23-3.8,3.66-6.47,3.62-2.98-.04-5.44-2.29-8.48-1.24-.03,0-.02.11-.03.11,3.15-.92,5.95,1.87,9.13,1.59,2.45-.22,4.67-1.73,5.82-3.89.02-.04.05-.22.03-.2Z"/>
      <path d="m10.49,52.33s-.07.15-.08.2c-.12,2.48.28,4.94,1.3,7.22,0,0,.05-.08.04-.11-.88-2.38-1.33-4.76-1.26-7.31Z"/>
      <path d="m12.85,58.22c-.7-1.39-1.91-3.22-1.47-4.83.04-.17,0-.18-.05-.01-.37,1.38.19,2.56.78,3.82.83,1.76,1.78,3.47,2.89,5.07,0,0,.06-.1.04-.13-.76-1.29-1.5-2.58-2.18-3.92Z"/>
      <path d="m14.96,57.76s-.12.2-.09.27c.5.86.9,1.77,1.25,2.7,0-.01.09-.15.07-.21-.31-.96-.73-1.88-1.23-2.75Z"/>
      <path d="m44.75,41.45c-2.3-.16-4.32-.53-6.4-1.59-2.05-1.04-3.9-2.44-5.7-3.86-3.4-2.7-7.36-6.06-12.02-5.64-.04,0-.08.22-.06.23,4.64.65,8.29,3.09,11.96,5.88,3.33,2.53,7.66,5.94,12.14,5.28.05,0,.1-.3.08-.3Z"/>
      <path d="m39.12,41.38c-2.42-.99-4.54-2.31-6.65-3.84-2.08-1.51-4.16-3.06-6.62-3.89-.02,0-.08.19-.05.2,2.41,1,4.5,2.49,6.59,4.01,2.04,1.49,4.19,3.1,6.69,3.68.02,0,.06-.15.04-.16Z"/>
      <path d="m45.7,40.2c-2.43-.08-4.46-.18-6.69-1.3-1.94-.98-3.61-2.38-5.14-3.91.01.01-.16.28-.09.35,2.9,2.91,7.49,6.32,11.88,5.06.03,0,.06-.19.05-.19Z"/>
      <path d="m45.68,39.03c-2.65-.01-4.99-.39-7.25-1.85,0,0-.09.18-.06.21,2.07,1.43,4.69,2.33,7.23,1.94.06,0,.09-.29.08-.29Z"/>
      <path d="m45.55,38.1c-1.62-.52-3.41-.62-5.06-1.06-.02,0-.08.18-.05.19,1.57.5,3.37,1.19,5.03,1.19.05,0,.12-.31.09-.32Z"/>
      <path d="m45.27,36.71c-.31-.05-.65,0-.97-.03-.33-.03-.64-.12-.94-.24-.02,0-.13.28-.08.3.55.24,1.32.47,1.91.27.05-.02.11-.3.08-.3Z"/>
      <path d="m34.09,43.07c-1.47-.07-3.01,1.07-3.93,2.12-.1.11-.11.56-.13.58.56-.5,1.13-.97,1.79-1.34.7-.39,1.46-.64,2.18-.98.05-.02.12-.39.1-.39Z"/>
      <path d="m48.61,37.82c-.57.65-.91,1.43-1.08,2.27-.11.52-.11.98-.1,1.51.02.8-.1.67-.79,1.14-1.61,1.09-2.52,2.81-2.9,4.66-1.71-.99-3.62-1.57-5.6-1.6-.46,0-.93.08-1.39.06-.74-.03-.74-.06-.94-.68-.28-.87-.33-1.66-.83-2.47,0,0-.23.42-.17.55.49,1.14.8,2.18.81,3.44,0,.02,0,.04.02.06,2.81-.46,5.56.06,8.01,1.51.07.04.22-.61.23-.67.19-1.56,1.08-2.92,2.29-3.86.49-.38,1.15-.58,1.46-1.14.09-.16.14-.35.17-.52.24-1.48-.59-1.87.7-3.65.1-.13.11-.56.14-.6Z"/>
      <path d="m53.93,41.54c-.93-.15-1.87.08-2.82-.15-.38-.09-1.73-.81-1.97-.59-.07.06-.16.36-.12.44.01.02.02.04.03.06,0,.01,0,.01.02,0,.02-.01.05-.03.07-.04.21.05.42.26.59.35.42.23.87.39,1.34.51.85.22,1.89.36,2.7-.01.08-.04.23-.59.16-.6Z"/>
      <path d="m52.33,37.17c-.47.13-.94.66-1.36.92-.62.39-1.28.72-1.96,1-.12.05-.13.54-.15.54,1.17-.31,2.57-.91,3.32-1.89.04-.06.17-.58.14-.57Z"/>
      <path d="m49.77,34.96c-.05.06-.04.23-.06.25.18-.23.37-.47.55-.7.04-.05.03-.2.05-.21-.18.22-.36.44-.54.66Z"/>
      <path d="m49.58,30.98c-.22.12-.36.42-.51.62-.21.28-.44.55-.68.82-.46.5-.96.96-1.49,1.38-.07.06-.07.35-.08.35,1.05-.71,2.16-1.66,2.7-2.83.02-.04.09-.36.06-.34Z"/>
      <path d="m49.96,30.16c-3.25-.69-5.65-1.98-8.03-4.31,0,0-.11.23-.08.27,1.68,2.6,4.84,4.5,7.95,4.63.09,0,.22-.58.16-.59Z"/>
      <path d="m48.27,30.87c-.65-.44-1.53-.6-2.24-.96-.73-.37-1.4-.81-2.04-1.31,0,0-.28.52-.17.61.64.5,1.32.95,2.04,1.31.68.34,1.53.8,2.3.76.06,0,.16-.38.11-.41Z"/>
      <path d="m37.8,50.09c-.71-1.3-2.27-1.42-3.57-1.79-.77-.22-1.43-.5-1.88-1.19-.45-.68-.47-1.35-1.37-1.56-.04-.01-.15.37-.11.39.82.3.87,1.09,1.3,1.74.37.56.93.87,1.56,1.07,1.45.46,3.02.25,3.96,1.68,0,0,.15-.26.11-.34Z"/>
      <path d="m36.49,48.22s.02-.05.01-.05c-.01,0-.02.05-.01.05Z"/>
      <path d="m36.4,46.95s-.1.27-.08.28c.42.09.84.17,1.23.35.39.18.7.47,1.08.65.03.01.12-.28.1-.32-.45-.73-1.5-1.07-2.33-.96Z"/>
      <path d="m38.31,49.16c-.63-.77-1.68-1.2-2.62-1.45-.02,0-.09.21-.06.23.47.19.92.42,1.36.68.42.25.81.58,1.25.8.02,0,.09-.22.07-.25Z"/>
      <path d="m38.02,50.68c-.97-1.24-2.8-1.46-4.22-1.02-.04.01-.05.19-.05.19.75-.07,1.46-.02,2.19.17.73.2,1.33.61,2.01.91.02,0,.09-.22.07-.25Z"/>
      <path d="m49.78,49.18c-1.91-.32-3.86.29-5.48,1.29-.87.54-1.73,1.24-2.78,1.39-1.03.15-1.94-.32-2.88-.66-.03-.01-.14.32-.1.35,1.82,1.25,3.21.95,4.94-.2,1.99-1.32,3.85-1.79,6.21-1.89.05,0,.1-.29.08-.29Z"/>
      <path d="m51.11,45.65s-.07.15-.07.2c.19,1.22-.43,2.34-1.55,2.83-.04.02-.04.17-.05.17,1.21-.42,2.06-1.93,1.66-3.2Z"/>
      <path d="m38.95,25.73c-.29.39-.58.78-.87,1.17,0-.02,0-.04.01-.05-.09.1-.2.2-.3.3.01-.08.02-.14.02-.14-.08.07-.15.14-.22.21.01-.09.02-.17-.01-.12-.3.42-.6.84-.9,1.26-.04.06-.06.19-.07.3-.02-.07-.04-.14-.05-.21,0-.3.09-.64.22-1.03.01-.03.07-.37.04-.34-.37.31-.77.58-1.19.81-.11-.03-.17.03-.24.14h0s-.01.01-.02.02c0,.01-.02.05-.03.09-.34.13-.67.17-1.08.15-.07,0-.21.5-.15.54.05.03.09.05.14.08-.05.12-.09.25-.05.3,0,0,0,0,0,0-.05.14-.09.34-.05.37.68.46,1.4.81,2.18,1.07.03,0,.08-.12.11-.25.14.19.3.37.5.53,0,0,.1-.21.14-.37.01.03.02.07.03.1,0,0,.02-.04.04-.1.11.19.25.37.43.54-.02-.02.29-.51.17-.62-.02-.02-.03-.03-.05-.05,0-.03,0-.05,0-.07-.07-.25-.15-.49-.23-.73.06-.3.07-.6,0-.92.22-.56.62-1.28.98-1.71.04-.05.06-.14.08-.23.1-.16.2-.31.29-.47.07-.13.09-.52.11-.56Zm-3.08,2.79s.02.06.02.09c0,.01-.01.03-.02.04-.04-.04-.08-.08-.13-.12h0s0,0,0-.02c0-.01-.03.05-.06.12-.02-.05-.04-.11-.06-.16,0,0,0,0,0,0,.03-.01.07-.1.1-.2.09-.06.19-.11.29-.17-.04.1-.15.31-.13.41Zm.61-.37s-.06.05-.06.05c-.07.17-.13.34-.18.51-.08-.2-.16-.4-.22-.62.2-.13.39-.28.58-.43-.05.16-.09.33-.13.49,0,0,0,0,0,0Zm.95.26c-.02-.05-.09.12-.09.12-.04.12-.08.23-.11.35,0-.03-.02-.05-.03-.08,0-.11.02-.22.03-.34.15-.16.3-.32.44-.49-.08.19-.15.39-.21.59-.01-.05-.02-.1-.04-.15Z"/>
      <g>
        <path d="m27.59,41.29c-.12.85-.35,1.68-.67,2.49-.07.23-.15.46-.24.69.19.06.38.11.57.16.02-.17.05-.34.08-.51,0,.01,0,.03-.01.04.05-.35.09-.69.12-1.04.07-.61.11-1.22.15-1.84Z" style="fill: none;"/>
        <path d="m27.06,42.86c.04-.17.07-.34.11-.52-.09.23-.18.46-.29.69-.19.74-.56,2.1-.08.67.08-.23.15-.46.21-.68.01-.05.03-.09.04-.14,0,0,0-.01,0-.02Z" style="fill: none;"/>
        <path d="m28.03,40.45c-.03-.4-.09-.79-.17-1.18-.03.93-.09,1.86-.18,2.79.11-.54.22-1.08.35-1.61Z" style="fill: none;"/>
        <path d="m28.04,40.83c-.15.68-.26,1.38-.4,2.06-.02.2-.06.4-.11.59-.03.26-.06.52-.1.78,0,.05-.07.25-.13.38,0,0,.02,0,.02,0,.07,0,.14,0,.2,0,.13-.97.28-2.02.52-3.03.01-.19.02-.37.02-.57,0-.09-.01-.18-.02-.28,0,.02,0,.03-.01.05Z" style="fill: none;"/>
        <path d="m27.35,40.93c.04-.69.03-1.38-.05-2.07-.03-.13-.07-.26-.12-.39.09,1.15.07,2.31-.09,3.46.11-.33.2-.66.26-1Z" style="fill: none;"/>
        <path d="m26.42,44.38c.08-.27.15-.54.21-.81-.12.25-.25.5-.39.75.06.02.12.04.18.06Z" style="fill: none;"/>
        <path d="m33.02,39.87c-.31-.1-.69-.23-1.1-.36.04-.14.05-.27.01-.28-1.32-.62-2.64-1.24-3.96-1.84-.02,0-.07.11-.12.25-.02-.02-.04-.03-.06-.05-.02-.02-.2.52-.18.61.05.17.09.34.13.51-.01.06-.02.11-.03.16-.02-.17-.06-.35-.11-.52-.06-.4-.13-.8-.23-1.2,0,.03-.02.05-.03.08-.02.05-.06.13-.09.21-.08-.15-.16-.29-.25-.44-.02-.04-.24.56-.22.69.27,1.69.29,3.37.02,5.03-.23.54-.5,1.07-.78,1.58-.03.05-.13.29-.17.47-1.75.26-3.44.95-5.04,1.78-2.97,1.55-5.74,3.25-8.89,4.45-.04.01-.07.22-.06.22,2.9-.18,5.48-2.07,7.95-3.42,2.42-1.32,5.07-2.42,7.82-2.25.48.11.96.19,1.47.21.14,0,.32-.87.24-.88-.56-.13-1.12-.2-1.68-.22.26-.85.44-1.71.53-2.57,0,.04,0,.06,0,.07,0,.18,0,.35,0,.53,0,.09.2-.42.21-.56,0-.28.01-.56.02-.84.03-.21.05-.43.06-.66.11-.34.28-.64.56-.8.81.34,1.63.54,2.54.63.03,0,.08-.08.12-.2.37.1.74.21,1.11.33.07.02.29-.7.2-.72Zm-5.15-.6c.08.39.14.78.17,1.18-.13.54-.24,1.07-.35,1.61.09-.93.15-1.86.18-2.79Zm-.53,4.85c-.03.17-.05.34-.08.51-.19-.05-.38-.1-.57-.16.09-.23.17-.46.24-.69.32-.81.55-1.64.67-2.49-.04.61-.08,1.23-.15,1.84-.04.35-.08.7-.12,1.04,0-.01,0-.03.01-.04Zm-.52-.43c-.48,1.44-.11.08.08-.67.1-.23.2-.46.29-.69-.03.17-.06.35-.11.52,0,0,0,.01,0,.02-.01.05-.03.09-.04.14-.06.22-.13.45-.21.68Zm.37-5.23c.05.13.09.26.12.39.08.7.09,1.39.05,2.07-.06.33-.15.67-.26,1,.16-1.15.18-2.31.09-3.46Zm-.76,5.91c-.06-.02-.12-.04-.18-.06.13-.24.26-.49.39-.75-.06.27-.13.54-.21.81Zm1.63-2.76c-.24,1.01-.38,2.06-.52,3.03-.07,0-.14,0-.2,0,0,0-.02,0-.02,0,.05-.13.12-.33.13-.38.04-.26.06-.52.1-.78.05-.19.08-.39.11-.59.14-.69.25-1.38.4-2.06,0-.02,0-.03.01-.05,0,.09.02.18.02.28,0,.19,0,.38-.02.57Z"/>
      </g>
      <path d="m44.71,12.9c-4.41-1.08-6.6,3.57-8.37,6.66-.02.03-.04.18-.03.16.93-1.61,1.79-3.4,3.07-4.76,1.44-1.53,3.22-1.95,5.26-1.81.04,0,.09-.24.07-.25Z"/>
      <path d="m47.66,11.43c-1.93-1.98-4.95-1.4-6.99.09-2.35,1.72-3.93,4.5-5.52,6.88-.02.03-.05.2-.03.18,2.61-3.64,7.11-11.08,12.5-6.99,0,0,.06-.13.04-.15Z"/>
      <path d="m49.89,13.91c-.35-.51-.81-1.02-1.49-.88-.03,0-.04.15-.04.15.74-.07,1.21.63,1.56,1.18.4.63.69,1.3,1.04,1.96,0,0,.06-.13.05-.16-.24-.8-.65-1.57-1.12-2.25Z"/>
      <path d="m49.35,11.2s-.15.3-.09.34c1.24.85,2.01,2.03,2.49,3.44,0,0,.07-.15.06-.2-.3-1.48-1.22-2.74-2.46-3.58Z"/>
      <path d="m52.08,12.63l-.68-.7s-.07.12-.04.15c.23.22.46.45.69.67,0,0,.06-.1.03-.12Z"/>
      <path d="m67.96,53.26s-.09.15-.05.19c1.05,1.15,1.6,2.56,1.73,4.1,0,.02.05-.11.05-.14-.02-1.59-.65-3-1.73-4.15Z"/>
      <path d="m75.59,46.13c-.76.03-2.79.43-3.26-.34,0,0-.07.12-.05.15.5.84,2.39.52,3.21.54,1.19.03,2.34-.07,3.17-1.01.04-.05.05-.26.06-.27-.9.77-1.99.88-3.13.92Z"/>
      <path d="m82.1,43.66c-.2,3.48-.88,6.65-2.73,9.65-.96,1.56-1.95,3.07-2.6,4.79-.02.04-.06.28,0,.13,1.09-2.78,3.18-5.03,4.23-7.83.83-2.21,1.16-4.6,1.18-6.95,0-.03-.07.16-.08.21Z"/>
      <path d="m80.63,45.79s-.07.14-.07.18c.03,2.34-.66,4.53-2.12,6.35-.04.05-.04.21-.05.23,1.57-1.87,2.44-4.31,2.24-6.76Z"/>
      <path d="m79.3,47.58c-.37.73-.68,1.5-1.01,2.25-.02.05-.09.42-.03.28.35-.79.71-1.57,1.03-2.37.01-.03.06-.25.01-.16Z"/>
      <path d="m31.57,76.99c-2.91-2.13-6.09-3.97-9.13-5.92,0,0-.09.18-.06.21,3.03,1.96,6,4.1,9.14,5.87,0,0,.07-.13.04-.15Z"/>
      <path d="m34.47,77.05c-1.87-1.36-3.99-2.46-5.97-3.65,0,0-.14.28-.08.31,1.97,1.18,3.93,2.54,6,3.53.01,0,.08-.17.05-.19Z"/>
      <path d="m38.32,76.33c-1.51-.13-2.72-.78-3.9-1.69-1.35-1.05-2.72-2.09-4.07-3.15,0,0-.06.12-.04.14,2.48,2.01,4.95,4.92,8.36,5.01,3.16.08,6-1.74,8.48-3.5.03-.02.03-.13.03-.13-2.69,1.69-5.53,3.61-8.87,3.32Z"/>
      <path d="m48.1,74.17s.02-.05.01-.05c-.01,0-.02.05-.01.05Z"/>
      <path d="m61.23,43.49c-1.73-1.31-2.62-3.53-1.71-5.63.01-.02.04-.18.01-.12-.95,2.05-.4,4.72,1.66,5.88,0,0,.06-.12.04-.13Z"/>
      <path d="m64.67,43.96c-2.13-1.17-3.59-3.2-3.41-5.71,0-.14-.1.17-.1.23-.16,2.37,1.13,4.86,3.48,5.62.01,0,.05-.12.04-.13Z"/>
      <path d="m67.53,43.56c-1.95-.84-3.44-2.31-3.61-4.52,0-.05-.12.22-.11.3.15,1.99,1.58,4.09,3.67,4.41.02,0,.07-.18.05-.19Z"/>
      <path d="m69.57,43.32c-2.02-.89-3.65-2.16-4.34-4.34,0,0-.05.09-.04.13.61,1.99,2.23,3.93,4.35,4.34.01,0,.05-.12.03-.12Z"/>
      <path d="m66.97,44.99c-.64-.02-1.24-.19-1.77-.56,0,0-.08.15-.05.17.52.38,1.13.59,1.78.53.03,0,.05-.14.04-.14Z"/>
      <path d="m73.66,43.33c-2.78-.2-5.16-1.14-6.45-3.8,0,0-.07.12-.05.16,1.1,2.33,3.78,4.29,6.46,3.78.03,0,.05-.14.04-.14Z"/>
      <path d="m70.83,44.45s-.16.36-.1.38c2.15.94,4.63.49,6.24-1.23.04-.04.04-.2.05-.21-1.71,1.55-4.06,2-6.18,1.06Z"/>
      <path d="m65.83,52.63c-2.55-2.91-7.05-3.34-10.46-1.95-.02,0-.02.07-.02.07,3.81-1.2,7.26-.02,10.41,2.13,0,0,.1-.21.07-.25Z"/>
      <path d="m59.48,52.01s-.02.1-.02.1c1.46-.72,3.23.35,4.42,1.19,1.31.92,2.27,2.14,3.07,3.51,0,0,.08-.14.06-.19-1.03-2.39-4.65-6.13-7.53-4.61Z"/>
      <path d="m64.37,48.98c-.46-.16-1.01-.14-1.49-.18-.04,0-.07.2-.06.21.49.05,1.02.16,1.51.09.02,0,.05-.11.03-.12Z"/>
      <path d="m27.35,71.51c-1.17-.81-2.44-1.5-3.68-2.21,0,0-.06.13-.04.14,1.21.75,2.41,1.55,3.68,2.19,0,0,.05-.11.03-.12Z"/>
      <path d="m26.11,69.26s.02-.05.01-.05c-.01,0-.02.05-.01.05Z"/>
      <path d="m34.75,55.06c-.91-.62-2.13-.64-3.14-.23-.04.01-.05.18-.05.18,1.12-.19,2.05-.07,3.15.19.02,0,.06-.13.04-.14Z"/>
      <path d="m53.3,28.98s-.05.2-.03.17c3.1-4.97,7.65-8.38,13.16-10.29.02,0,.02-.09.02-.09-5.54,1.35-10.37,5.27-13.16,10.2Z"/>
      <path d="m49.09,2.62s-.09.24-.07.25c3.05.77,5.67,2.15,8.38,3.69,0,0,.03-.07.02-.08-2.36-1.97-5.37-3.16-8.34-3.85Z"/>
      <path d="m47.34,1.99c-4.38-.31-9.58.59-13.05,3.42-.03.02-.03.13-.03.13,1.8-1.25,3.82-2.05,5.96-2.51,2.33-.5,4.71-.44,7.05-.8.04,0,.08-.23.06-.23Z"/>
      <path d="m9.88,15.2s-.04.13-.04.13c1.1-.12,2.21-.22,3.29-.44.03,0,.04-.15.04-.15-1.1.07-2.21.28-3.29.46Z"/>
      <path d="m57.52,7.75c-1.53-1.27-3.38-2.35-5.25-3.02-.01,0-.06.13-.04.14,1.77.98,3.52,1.97,5.26,2.99,0,0,.05-.1.03-.11Z"/>
      <path d="m59.18,6.06c-.77-.86-1.93-1.39-2.98-1.81-.01,0-.07.15-.04.16,1.08.49,1.96,1.24,2.98,1.82,0,0,.07-.15.05-.18Z"/>
      <path d="m51.41,25.47c-3.07-.3-5.7-1.38-7.71-3.79,0,0-.06.11-.04.14,1.75,2.39,4.68,4.06,7.7,3.84.03,0,.06-.18.05-.18Z"/>
      <path d="m51.01,26.58c-1.11-.18-2.11-.32-3.15-.8-1.01-.47-1.96-1.07-2.89-1.7,0,0-.07.13-.04.15,1.69,1.23,3.8,2.91,6.03,2.51.03,0,.06-.15.04-.16Z"/>
      <path d="m52.36,24.88c-1.01-.38-2.06-.57-3.05-1.02-.98-.44-1.88-.99-2.72-1.66,0,0-.07.13-.04.16,1.55,1.32,3.65,2.68,5.76,2.69.02,0,.07-.17.05-.17Z"/>
      <path d="m21.6,29.74c-1.01.77-1.98.71-3.16.83-.03,0-.07.16-.05.18,1.92,1.79,4.48-1.63,5.21-3.1.02-.04.05-.28.05-.27-.76.72-1.18,1.72-2.04,2.37Z"/>
      <path d="m45.9,35.75c-1.3-1.82-3.75-1.92-5.76-2.34-2.09-.44-3.94-1.53-5.84-2.46,0,0-.07.14-.04.15,1.84,1.16,3.57,2.39,5.72,2.9,2.17.52,3.99.79,5.79,2.21,0,0,.18-.39.13-.47Z"/>
      <g>
        <path d="m45.88,44.91c-.42.47-.8.97-1.13,1.51.41-.43.8-1.08,1.13-1.51Z" style="fill: none;"/>
        <g>
          <path d="m45.88,44.91c-.42.47-.8.97-1.13,1.51.41-.43.8-1.08,1.13-1.51Z" style="fill: none;"/>
          <path d="m48.79,38.21c-.06.23-.12.47-.17.7.04-.21.09-.41.13-.62.02-.06.13-.61.05-.49-.33.57-.53,1.15-.66,1.79-.07.37-.1.75-.16,1.12-.22,1.26-.69,1.91-1.56,2.76-.15.15-.31.31-.46.46.13-.22.24-.43.37-.65.08-.13.1-.58.12-.62-1.05,1.29-1.91,2.69-2.58,4.21-.64.02-1.37-.43-1.94-.6-.73-.22-1.48-.36-2.24-.44-.76-.07-1.53-.07-2.28,0-.76.07-1.19.35-1.45-.49-.03-.1-.06-.2-.09-.3-.04-1.34-.47-2.57-1.29-3.6.13.09.26.17.39.26,1.86,1.2,3.81,2.6,6.08,2.82,3.98.39,5.7-3.38,6.37-6.7.06-.28-.09,0-.11.11-.58,2.28-1.6,4.98-4.13,5.64-1.67.43-3.4-.07-4.89-.81-1.61-.8-3.1-1.82-4.65-2.73-1.56-.92-3.14-2.05-4.87-2.61-.02,0-.11.24-.07.26,1.83.92,3.51,2.17,5.22,3.33-.06.15-.13.33-.09.38.23.33.43.68.63,1.03.37,1.23.78,2.45,1.21,3.66,0,0,.02-.03.04-.08.04.17.1.33.17.42.27.32.51.16.9.13,2.51-.19,4.8.17,7.07,1.3,0,0,.01,0,.02,0,.04-.04.07-.09.11-.13,0,.04-.01.07-.01.1-.5.44-.83.54-1.46.34-.59-.19-1.16-.45-1.74-.66-.02,0-.1.23-.07.25.9.49,2.1,1.53,3.04.71.97-.86,1.79-1.97,2.54-3.02.05-.07.05-.29.06-.31-.72.86-1.43,1.82-2.26,2.58.04-.08.08-.17.11-.25,1.08-1.33,2.17-2.66,3.25-3.98.1-.12.16-.69.16-.69-.12.09-.23.19-.34.29.28-.37.49-.78.64-1.25.03-.08.05-.18.07-.26,0,.02,0,.03,0,.05-.02.29.16-.24.17-.3.14-.57.29-1.14.43-1.71-.07.4-.12.8-.18,1.21-.05.33.12-.14.14-.24.15-.86.29-1.73.43-2.59.06-.4-.13.11-.16.23Zm-4.03,8.22c.33-.54.7-1.05,1.13-1.51-.33.43-.72,1.08-1.13,1.51Z"/>
        </g>
      </g>
      <path d="m6.32,19.79s-.01.06,0,.03c.61-1.59,2.41-2.33,3.87-2.93.02,0,.02-.08.02-.09-1.62.56-3.25,1.28-3.89,2.99Z"/>
      <path d="m25.02,21.75s-.03.14-.03.14c.7-.51,1.39-1.07,1.94-1.73.03-.03.03-.15.03-.15-.63.61-1.24,1.21-1.95,1.75Z"/>
      <path d="m27.06,21.32s.02-.05.01-.05c-.01,0-.02.05-.01.05Z"/>
      <path d="m27.75,21.05s.02-.05.01-.05c-.01,0-.02.05-.01.05Z"/>
      <path d="m22.57,64.53c-.2-.19-.5-.29-.72-.46-.23-.17-.43-.36-.61-.58.01.01-.12.2-.07.26.18.22.38.42.61.59.2.15.48.38.74.38.03,0,.07-.17.05-.19Z"/>
      <path d="m22.42,63.25s.02-.05.01-.05c-.01,0-.02.05-.01.05Z"/>
      <path d="m22.83,62.02s.02-.05.01-.05c-.01,0-.02.05-.01.05Z"/>
      <path d="m24.19,61.7c-.46-.53-1.08-.96-1.61-1.42,0,0-.07.14-.04.16.27.23.54.46.81.7.26.23.52.49.81.67,0,0,.04-.09.03-.11Z"/>
      <path d="m24.64,60.8c-.42-.57-.99-1.05-1.49-1.55.01.01-.13.24-.08.29.48.48.96,1.06,1.52,1.45,0,0,.07-.16.05-.19Z"/>
      <path d="m25.31,59.21c-.58-.42-1.14-.87-1.63-1.39,0,0-.07.12-.04.15.49.51,1.04.98,1.65,1.34,0,0,.04-.08.03-.09Z"/>
      <path d="m24.33,57.37s.02-.05.01-.05c-.01,0-.02.05-.01.05Z"/>
      <path d="m25.72,57.15c-.18-.19-.36-.37-.54-.56,0,0-.06.11-.04.14.18.18.37.36.55.54,0,0,.05-.1.03-.12Z"/>
      <path d="m25.7,55.74s.02-.05.01-.05c-.01,0-.02.05-.01.05Z"/>
      <path d="m27.13,55.52c-.26-.24-.54-.45-.84-.64,0,0-.11.23-.07.26.27.21.54.43.79.67.11.11.22.22.32.33.11.12.23.31.38.39.02.01.09-.23.08-.26-.13-.29-.42-.54-.65-.75Z"/>
      <path d="m44.31,16.93s-.07.18-.05.19c1.41.49,2.45,1.48,2.46,3.06,0,.04.08-.16.08-.2.12-1.39-.96-3.07-2.49-3.05Z"/>
      <path d="m38.67,25.5s0,.05-.01.05c1.09-1.1,2.07-2.38,3.01-3.61.03-.04.03-.17.04-.18-1.07,1.19-2.11,2.44-3.04,3.73Z"/>
      <path d="m28.64,10.15s-.03.12-.03.12c2.6-1.28,5.14-2.75,7.45-4.5.02-.02.02-.1.02-.1-2.44,1.58-4.87,3.12-7.45,4.48Z"/>
      <path d="m29.49,11.34s-.03.12-.03.12c3.45-1.12,5.67-4.27,8.8-5.98.03-.02.02-.12.03-.13-3.28,1.5-5.34,4.78-8.8,5.98Z"/>
      <path d="m49.88,4.7c-1.22-1.05-3.06-.91-4.57-.92-1.84,0-3.71.09-5.52.44-.02,0-.03.1-.03.1,1.82-.09,3.63-.24,5.46-.22,1.58.02,3.2,0,4.61.79,0,0,.08-.17.05-.19Z"/>
      <path d="m61.68,10.11c-.69-1-1.81-1.79-2.88-2.35-.01,0-.11.24-.07.26.52.35,1.03.7,1.52,1.09.47.38.89.83,1.38,1.18,0,0,.07-.16.05-.19Z"/>
      <path d="m79.38,25.71c-.26-2.75-2.01-4.83-3.74-6.87-.99-1.16-2-2.3-3.02-3.43-.94-1.03-1.85-2.24-3.18-2.8-.05-.02-.28.62-.19.7.2.2.4.41.6.61.04.4.09.38.39.66.15.13.29.28.44.42.75,1.11,1.56,2.17,2.44,3.17.68.76,1.4,1.49,2.17,2.15.39.33.78.62,1.15.95.37.45.74.9,1.11,1.36,0,0,.02-.07.05-.15.73,1.13,1.32,2.34,1.63,3.69,0-.03.15-.33.14-.45Z"/>
      <path d="m72.89,49.53c-.79-1.13-1.81-2.04-2.96-2.7.01-.09.01-.16-.01-.17-1.01-.59-2.08-.87-3.17-.95-.52-.08-1.05-.13-1.58-.12-1.36-.34-2.76-.53-4.2-.57-1.66-.04-3.56-.09-4.38-1.82-.83-1.77-.12-3.88-.41-5.75,0,0-.12.25-.13.31-.47,2.82-1.82,6.98,1.7,8.39.83.33,1.73.49,2.64.58-.24.07-.48.14-.72.21-3.35.97-6.83,1.84-9.55,4.14-.04.03-.04.19-.04.2,2.91-2.1,6.52-2.84,9.91-3.8.77-.22,1.55-.43,2.34-.61.24.01.48.03.71.04,1.07.08,2.13.16,3.2.24,1.76.47,3.41,1.25,4.96,2.31,0,0,.13-.25.21-.48.46.43.88.91,1.24,1.44-.05-.07.38-.65.23-.86Zm-14.22-3.85c-1.83-.49-3.08-1.67-3.15-3.65-.04-1.11.19-2.44.47-3.53.3-1.16.15.59.15.86,0,.52-.07,1.04-.1,1.56-.07,1.29-.04,2.75.88,3.76,1.07,1.19,2.78,1.08,4.23,1.15.63.03,1.25.1,1.87.2,0,0,0,.01,0,.02-.18.04-.35.08-.52.12-1.28-.07-2.59-.15-3.81-.48Z"/>
      <path d="m61.26,53.94s-.02.04-.01.04c.84.49,1.69.88,2.44,1.51.81.67,1.42,1.47,1.99,2.33,0,0,.04-.08.03-.11-.81-1.69-2.56-3.44-4.46-3.78Z"/>
      <path d="m67.53,55.93s-.03.05-.02.06c.66,1.01.99,2.1,1.04,3.31,0,.01.03-.06.03-.08-.03-1.19-.4-2.3-1.06-3.29Z"/>
      <path d="m66.13,57.82s-.07.13-.06.18c.62,1.55.95,3.04.85,4.72,0,.02.03-.07.03-.08.17-1.64-.04-3.35-.83-4.81Z"/>
      <path d="m49.56,21.86s-.06.11-.04.13c1.19,1.04,3.03,1.3,4.45.6.02,0,.02-.09.02-.09-1.63.37-2.99.21-4.44-.64Z"/>
      <path d="m52.24,21.53s-.1.28-.08.28c1.73.26,3.42-.29,4.62-1.57.03-.03.03-.15.03-.15-1.26,1.17-2.88,1.71-4.58,1.44Z"/>
      <path d="m56.17,21.75s-.03.15-.03.15c1.18-.57,2.27-1.31,3.15-2.29.03-.03.03-.15.04-.16-.97.9-1.97,1.7-3.16,2.3Z"/>
      <path d="m71.48,14.62c-.3-.6-.89-1.07-1.35-1.55-.56-.56-1.12-1.21-1.78-1.65-.01,0-.09.18-.11.3-.18-.24-.38-.48-.6-.65-.68-1.11-1.47-2.11-2.77-2.57-.06-.02-.29.66-.2.73,2.32,1.83,2.79,4.82,4.81,6.85,1.59,1.59,3.79,2.54,5.72,3.77,5.05,5.75,8.76,12.61,8.79,20.52.02,6.27-3.58,12.69-5.81,18.49-.66,1.72-1.14,2.66-2.65,3.61-.16.1-.49.18-.63.32-.22.22-.35.45-.48.69.3-1.4.48-2.82.64-4.22.08-.71-.45.77-.48.94-.06.35-.12.69-.19,1.03-.14.28-.35.89-.37,1.01-.39,2.18-1.05,4.45-2.41,6.14-.11.11-.22.22-.34.33-.59.52-1.28.94-1.94,1.36-.39.24-.78.48-1.18.72.06-.05.13-.11.19-.16.16-.13.21-.98.25-.99-1.97.75-3.3,2.52-5.09,3.62-3.07.37-5.71,1.71-8.31,3.33-3.16,1.98-6.15,3.68-9.54,5.25-.02,0-.03.03-.05.05-2.26.36-4.55.31-6.81.79-.08.02-.22.52-.15.55,4.81,2.44,11.41-.87,15.4-3.61,2.62-1.8,5.17-2.89,8.05-4.15,0,.15-.01.25-.02.25,2.1-1.22,4.68-2.38,6.89-3.89-.01.04-.02.07-.04.07.02,0,.03-.02.04-.02h0s.01,0,.02-.01c1.04-.48,1.96-1.11,2.72-1.89-.02.15-.04.27-.04.28.29-.38.55-.77.79-1.17.41-.55.76-1.15,1.04-1.81.12-.29.21-.68.3-1.09.12-.37.23-.75.32-1.14.1-.27.23-.5.4-.67.95-.93,1.95-.77,2.69-2.08,1.51-2.66,2.13-6,3.32-8.83,1.1-2.64,2.22-5.29,2.94-8.06,2.84-10.84-2.76-24.35-12.01-30.81Z"/>
      <path d="m48.39,56.06c-2.08-1.48-4.83-1.24-6.97-.03-.03.02-.03.15-.03.15,2.28-1.26,4.65-.98,6.96.03,0,0,.06-.13.04-.15Z"/>
      <path d="m49.77,55.44c-.82-.77-2.07-.95-3.15-.77-.04,0-.06.19-.05.19,1.19-.06,2.09.35,3.12.86.02,0,.11-.24.08-.28Z"/>
      <path d="m51.68,55.2c-.92-.88-2.33-1.08-3.54-.98-.05,0-.08.26-.07.26,1.34-.06,2.35.43,3.56.91.02,0,.08-.17.05-.19Z"/>
      <path d="m52.93,54.77c-.64-.43-1.37-.75-2.06-1.1-.01,0-.11.23-.07.25.68.34,1.36.75,2.08,1,.01,0,.06-.14.04-.15Z"/>
      <path d="m54.42,53.95c-.59-.74-1.68-1.06-2.58-1.13-.06,0-.12.34-.09.34.48.04.94.14,1.39.32.44.18.8.49,1.22.71.02,0,.09-.21.07-.24Z"/>
      <path d="m55.91,52.9c-.89-.77-2.12-1.12-3.27-1.26-.04,0-.09.25-.07.26,1.23.14,2.21.62,3.3,1.14,0,0,.06-.12.04-.14Z"/>
      <path d="m56.73,51.8c-.3-.22-.72-.29-1.08-.4-.36-.11-.73-.23-1.09-.34-.03-.01-.12.3-.08.31.36.11.73.22,1.1.33.35.11.74.29,1.11.27.03,0,.07-.17.05-.18Z"/>
      <path d="m55.5,49.74s-.06.2-.05.2c.69-.05,1.37-.09,2.06-.16.03,0,.04-.15.04-.15-.68.02-1.36.07-2.04.11Z"/>
      <path d="m52.78,25.56s-.08.16-.08.22c-.1,2.25.15,4.51.89,6.64,0,0,.06-.1.05-.14-.59-2.22-.92-4.41-.85-6.71Z"/>
      <path d="m25.83,76.9c-1.82-1.42-4.38-1.94-6.45-2.94-1.95-.94-3.82-2.06-5.43-3.53-4-3.65-4.86-8.74-5.74-13.81-.89-5.12-2.79-9.17-5.12-13.77-1.12-2.22-2.06-4.51-2.39-6.99-.6-4.52.67-9,1.79-13.33.11-.42,0-.47-.12-.03-1.45,5.01-2.88,10.41-1.93,15.65,1.06,5.9,5.27,10.65,6.62,16.5,1.19,5.19,1.26,10.9,4.55,15.35,1.61,2.17,3.84,3.8,6.21,5.07,2.22,1.19,5.18,2.83,7.74,2.82.14,0,.38-.89.27-.98Z"/>
      <path d="m39.03,26.42c.02-.13-.05.06-.06.1-.29,1.59-.38,3.3.07,4.86,0-.01.08-.17.07-.23-.24-1.61-.36-3.12-.09-4.73Z"/>
      <path d="m40.17,28.15s.02-.05.01-.05c-.01,0-.02.05-.01.05Z"/>
      <path d="m41,27.58c-.36,1.23-.65,2.88-.15,4.1,0,0,.08-.18.08-.22-.11-1.34-.21-2.54.13-3.87.05-.2,0-.22-.06-.01Z"/>
      <path d="m42.08,28.12c.03-.1.02-.22-.03-.05-.23.7-.38,1.41-.44,2.15-.02.21-.21,1.6.34,1.31.03-.02.1-.24.06-.25-.38-.16-.29-.83-.27-1.17.02-.68.15-1.34.34-1.98Z"/>
      <path d="m43.17,29.21c-.41.66-.65,1.48-.95,2.2-.02.04-.08.35-.02.23.33-.74.7-1.49.96-2.26,0-.02.04-.22.01-.17Z"/>
      <path d="m43.97,30.26c-.26.53-.48,1.08-.67,1.64-.02.05-.05.29.01.12.4-1.01.96-1.9,1.44-2.86.02-.04.06-.29.05-.28-.38.33-.61.93-.83,1.38Z"/>
      <path d="m45.74,30.13c-.52.74-1.01,1.55-1.44,2.35-.04.07-.05.28-.06.3.52-.7,1-1.47,1.43-2.23.05-.09.09-.21.1-.32,0-.03.03-.18-.03-.1Z"/>
      <path d="m45.88,31.91c-.15.27-.3.54-.45.81-.05.09-.08.2-.09.3,0,.02-.02.17.03.09.29-.51.63-1.01.86-1.55.02-.05.06-.32.05-.31-.17.17-.28.46-.4.67Z"/>
      <path d="m46.44,32.55c-.02.06-.1.27-.06.32.04.04.09-.15.1-.16.13-.44.39-.82.64-1.19.02-.04.05-.24.05-.24-.4.28-.59.83-.73,1.28Z"/>
      <path d="m50.62,32.79s-.23.39-.14.51c.6.85,1.05,1.83,1.68,2.66,0-.01.14-.31.11-.38-.37-1-1.04-1.92-1.65-2.79Z"/>
      <path d="m32.85,41.82c-.64-.31-1.63.18-2.21.51-.72.41-1.29,1-1.73,1.71-.03.05-.03.19-.04.2.43-.55.94-1.02,1.56-1.36.76-.41,1.57-.4,2.33-.73.04-.02.14-.31.09-.33Z"/>
      <path d="m32.3,40.84c-.55-.13-1.18-.06-1.81.11,0,0,0-.02,0-.02,0,0,0,.01-.01.02-.74.2-1.48.52-2.04.82-.04.02-.04.21-.05.21.61-.23,1.21-.43,1.85-.56.65-.13,1.34-.11,1.98-.27.05-.01.12-.3.08-.31Z"/>
      <path d="m32.37,42.81c-.36.3-.69.62-.99.97-.08.09-.07.4-.1.43.29-.33.6-.64.94-.92.35-.29.75-.53,1.09-.84.03-.03.08-.29.07-.29-.38.09-.71.41-1.01.65Z"/>
      <path d="m72.3,23.13c-.92-1.34-1.94-2.6-2.93-3.88,0,0-.03.05-.02.07.96,1.33,1.88,2.69,2.91,3.96,0,0,.06-.12.04-.15Z"/>
      <path d="m72.69,25.49s-.04.09-.03.1c.8.77,1.33,1.61,1.77,2.62,0,0,.07-.14.06-.18-.27-1.01-.94-1.95-1.8-2.55Z"/>
      <path d="m75.02,30.51s-.06.1-.05.14c.8,2.63,1.12,5.27.93,8.02,0,.06.04-.07.04-.09.26-2.74-.03-5.47-.93-8.07Z"/>
      <path d="m77.27,36.98c0,1.36-.16,2.69-.46,4.01-.02.07.01.04.02-.01.35-1.39.52-2.79.52-4.22,0-.03-.08.17-.08.23Z"/>
      <path d="m78.52,38.34c0,.94,0,1.89.01,2.83,0,.02.06-.11.06-.15,0-.97,0-1.93.01-2.9,0-.03-.08.16-.08.22Z"/>
    </g>
  </g>
</svg>