<?xml version="1.0" encoding="UTF-8"?>
<svg id="Layer_2" data-name="Layer 2" xmlns="http://www.w3.org/2000/svg" viewBox="0 0 173.16 179.23">
  <g id="objects">
    <g>
      <path d="m151.2,55.51c0-.2-.3-.23-.31-.03-.89,19.02-8.52,37.03-20.65,51.61-11.57,13.92-27.06,24.18-43.81,30.81-9.33,3.69-19.06,6.2-28.91,8.06-.1.02-.07.17.03.15,17.74-2.55,35.22-8.94,50.28-18.67,15.5-10.02,28.36-24.07,36.03-40.93,4.42-9.73,7.12-20.3,7.33-31.01Z"/>
      <path d="m44.51,148.65c-6.68,3.08-12.58,7.67-17.47,13.14-.03.04.03.09.06.06,5.01-5.4,10.93-9.7,17.46-13.09.07-.03.02-.14-.05-.1Z"/>
      <path d="m21.76,163.36s-.01,0,0,0c1.33,3.3,1.19,6.65-.61,9.74-.05.09.07.18.13.09,1.92-2.86,2.18-6.82.49-9.84Z"/>
      <path d="m23.47,168.34s-.03-.03-.04,0c-.07,1.75-.68,3.17-1.46,4.7-.02.04.04.07.07.03,1.07-1.31,1.44-3.08,1.43-4.74Z"/>
      <path d="m24.35,168.55c0-.06-.09-.07-.1,0-.16,1.58-.63,3.02-1.16,4.51,0,.02.02.04.04.02.76-1.38,1.09-2.96,1.22-4.52Z"/>
      <path d="m25.76,165.95s-.05-.04-.05,0c-.09,2.54-.76,4.79-1.65,7.15-.01.03.03.05.05.02,1.24-2.15,1.68-4.72,1.65-7.17Z"/>
      <path d="m26.74,165.2s-.04-.03-.04,0c-.09,2.63-.77,5-1.58,7.48-.02.05.06.08.08.03,1.13-2.3,1.5-4.97,1.54-7.51Z"/>
      <path d="m27.96,165.14s-.07-.05-.07,0c0,2.64-.62,5.03-1.53,7.49-.02.04.05.06.07.02,1.16-2.31,1.57-4.94,1.53-7.51Z"/>
      <path d="m29.31,164.64s-.05-.04-.05,0c-.13,3.15-.96,5.98-1.95,8.94-.01.04.05.06.07.02,1.39-2.71,1.89-5.95,1.93-8.96Z"/>
      <path d="m31.48,163.41s-.03-.03-.04,0c-.28,2.77-.8,5.42-1.46,8.12-.01.05.07.09.08.03.84-2.62,1.29-5.41,1.41-8.15Z"/>
      <path d="m33.1,164.29c0-.06-.08-.06-.09,0-.25,1.88-.61,3.73-.92,5.6,0,.06.08.08.1.02.55-1.8.81-3.74.91-5.62Z"/>
      <path d="m35.66,164.51s-.07-.05-.08,0c-.21,1.74-.44,3.48-.57,5.22,0,.03.04.03.04,0,.26-1.73.42-3.48.61-5.22Z"/>
      <path d="m38.06,165.28s-.09-.05-.09,0c.04,1.66-.15,3.26-.32,4.9,0,.03.05.04.06.01.4-1.6.43-3.28.35-4.92Z"/>
      <path d="m39.51,165.11s0,0,0,0c.25,1.51.17,2.99-.14,4.49,0,.02.04.03.04,0,.4-1.48.41-2.99.1-4.5Z"/>
      <path d="m40.96,165.49c-.02-.06-.11-.05-.1.02.2,1.15.24,2.25.21,3.42,0,.06.08.07.09,0,.22-1.12.11-2.35-.21-3.44Z"/>
      <path d="m42.75,166.58s-.05-.04-.05,0c-.14.78-.35,1.59-.37,2.38,0,.04.06.06.07.02.22-.77.25-1.61.35-2.4Z"/>
      <path d="m44.64,165.97s-.05-.02-.04,0c.15.98.03,1.88-.22,2.82,0,.04.04.06.06.02.38-.9.4-1.9.21-2.85Z"/>
      <path d="m47.64,163.32s-.05-.03-.05,0c.06,2.22-.26,4.34-.69,6.51,0,.04.06.06.08.02.64-2.11.78-4.33.66-6.53Z"/>
      <path d="m49.38,164.14c0-.07-.11-.05-.11.02.12,1.53-.15,2.93-.6,4.39-.01.05.05.07.07.03.63-1.38.78-2.93.64-4.43Z"/>
      <path d="m51.41,162.89s-.06-.05-.06,0c.05,1.63-.15,3.18-.43,4.78,0,.03.05.04.06.01.41-1.55.5-3.18.44-4.78Z"/>
      <path d="m53.92,161.49s-.05-.04-.05,0c-.09,2.05-.43,4.04-.77,6.06,0,.04.06.06.07.02.56-1.97.72-4.03.75-6.07Z"/>
      <path d="m55.84,161.48s-.07-.05-.07,0c-.07,2.18-.49,4.25-.99,6.37,0,.04.05.06.06.02.78-2.03,1.01-4.23,1-6.39Z"/>
      <path d="m57.27,160.29c0-.05-.08-.06-.08,0,0,2.71-.46,5.24-1.01,7.88-.01.05.08.07.09.02.88-2.51,1.08-5.26.99-7.89Z"/>
      <path d="m59,160.42s0,0,0,0c-.09,2.21-.42,4.37-.84,6.54,0,.01.02.02.03,0,.5-2.15.73-4.34.81-6.54Z"/>
      <path d="m61.1,159.25s-.05-.04-.05,0c.02,2.17-.23,4.29-.63,6.42,0,.02.03.02.03,0,.5-2.11.68-4.26.66-6.42Z"/>
      <path d="m63.4,159.79s-.01,0-.01,0c-.14,2.68-.89,5.1-1.81,7.6-.01.03.04.06.05.03,1.23-2.34,1.68-5.01,1.77-7.63Z"/>
      <path d="m65.49,158.23s-.02-.01-.02,0c-.14,2.62-.53,5.21-1.06,7.78,0,.01.02.02.03,0,.64-2.56.95-5.15,1.05-7.78Z"/>
      <path d="m67.61,157.29s-.08-.04-.07,0c.07,3.21-.55,6.15-1.49,9.2-.01.05.05.07.07.03,1.28-2.86,1.67-6.13,1.5-9.23Z"/>
      <path d="m69.47,156.96s-.07-.05-.07,0c-.11,2.51-.52,4.92-1.05,7.37,0,.04.06.05.07.02.76-2.38,1.04-4.89,1.05-7.38Z"/>
      <path d="m71.21,156.38s-.07-.06-.08,0c-.18,2.36-.55,4.68-.93,7.01,0,.05.07.07.09.02.62-2.29.87-4.66.92-7.03Z"/>
      <path d="m73.3,156.64s-.03-.02-.03,0c-.25,1.75-.57,3.51-.72,5.28,0,.05.07.05.08,0,.32-1.74.46-3.52.68-5.28Z"/>
      <path d="m75.25,155.74s-.06-.05-.07,0c-.13,1.29-.28,2.59-.39,3.88,0,.03.04.03.04,0,.16-1.29.28-2.59.42-3.88Z"/>
      <path d="m77.3,153.96s-.07-.03-.06.01c.27,2.14.05,4.16-.55,6.23,0,.02.03.04.04.01.75-2.01.9-4.14.58-6.25Z"/>
      <path d="m80,153.73s-.06-.03-.07,0c-.25,1.9-.52,3.72-.93,5.6,0,.05.06.06.08.02.67-1.73,1.03-3.77.92-5.62Z"/>
      <path d="m82.1,151.14s-.08-.04-.08,0c.1,2.69-.15,5.2-.7,7.83-.01.05.08.07.09.02.78-2.5,1-5.25.68-7.85Z"/>
      <path d="m85.11,150.04c0-.07-.1-.08-.1,0-.17,2.72-.54,5.4-1.03,8.08,0,.02.03.03.04,0,.66-2.65.99-5.36,1.09-8.08Z"/>
      <path d="m86.84,151.37s-.04-.02-.04,0c-.38,1.74-.49,3.62-.73,5.39,0,.05.08.07.09.02.45-1.69.85-3.67.69-5.42Z"/>
      <path d="m89.54,153.48s-.03-.03-.04,0c-.11,1.09-.38,2.12-.74,3.15,0,.02.02.03.03.01.41-1,.64-2.08.74-3.16Z"/>
      <path d="m92.15,147.69s-.07-.05-.07,0c.01,2.93-.42,5.73-.96,8.6,0,.03.05.04.06.01.8-2.77,1.01-5.73.98-8.61Z"/>
      <path d="m95,146.29s-.07-.05-.07,0c-.01,2.94-.31,5.86-.87,8.75,0,.02.03.02.03,0,.67-2.88.96-5.79.91-8.75Z"/>
      <path d="m96.97,145.8s-.01,0-.01,0c.08,3.29-.26,6.47-.77,9.7,0,.03.05.04.06.01.74-3.16.9-6.48.73-9.72Z"/>
      <path d="m98.47,144.68c-.01-.07-.11-.05-.1.02.36,3.12.41,6.12-.18,9.21,0,.01.02.01.02,0,.59-3.01.79-6.19.26-9.23Z"/>
      <path d="m100.81,147.91s-.02-.02-.02,0c-.05,1.57-.25,3.11-.49,4.66,0,.02.03.02.04,0,.34-1.53.45-3.1.48-4.66Z"/>
      <g>
        <path d="m103.46,144.45c.01.21.01.42.02.63.01-.21.03-.42.04-.64,0-.04-.06-.04-.06,0Z"/>
        <path d="m102.69,151.61c.01-.06.02-.11.03-.17-.01.06-.02.11-.04.17,0,0,0,0,0,0Z"/>
        <path d="m103.47,145.09c-.13,2.15-.3,4.24-.75,6.36.45-2.07.78-4.23.75-6.36Z"/>
      </g>
      <path d="m105.99,142.75s0,0,0,0c-.01,3.02-.5,5.92-1.1,8.86,0,.04.06.06.07.02.87-2.86,1.1-5.9,1.03-8.88Z"/>
      <path d="m108.17,143.74s-.03-.02-.03,0c-.09,2.58-.65,5-1.23,7.5-.01.05.05.07.07.03.92-2.38,1.18-4.99,1.19-7.52Z"/>
      <path d="m110.26,142.98s-.03-.03-.04,0c-.05,2.22-.55,4.31-1.08,6.45-.02.07.07.1.1.04.8-2.06,1.01-4.29,1.02-6.48Z"/>
      <path d="m112.82,137.07s-.05-.04-.05,0c.08,3.76-.54,7.3-1.51,10.92,0,.03.03.05.05.02,1.26-3.47,1.66-7.26,1.52-10.93Z"/>
      <path d="m115.5,135.73s-.04-.03-.04,0c-.14,3.29-.59,6.5-1.18,9.73,0,.02.03.02.04,0,.71-3.19,1.05-6.47,1.19-9.73Z"/>
      <path d="m123.16,130.57s-.06-.03-.06,0c-.2,2.47-.44,4.91-.68,7.38,0,.05.07.07.08.02.63-2.33.86-4.99.66-7.4Z"/>
      <path d="m125.2,128.34c0-.06-.1-.06-.11,0-.04,3.09-.21,6.1-.54,9.18,0,.03.05.04.05,0,.54-2.98.75-6.16.59-9.19Z"/>
      <path d="m127.56,126.62s-.04-.02-.03,0c.27,2.74.25,5.46-.15,8.19,0,0,0,0,0,0,.42-2.73.51-5.46.17-8.2Z"/>
      <path d="m130.12,125.55s-.04-.02-.04,0c.17,3.01-.01,5.98-.45,8.96,0,.02.02.02.03,0,.52-2.96.64-5.97.47-8.97Z"/>
      <path d="m132.86,123.2s-.06-.05-.06,0c-.02,2.31-.1,4.62-.38,6.91,0,0,0,0,0,0,.32-2.3.52-4.58.43-6.9Z"/>
      <path d="m134.89,122.83s-.02-.01-.02,0c.04,1.95-.13,3.87-.43,5.79,0,.02.02.02.03,0,.35-1.92.47-3.85.42-5.79Z"/>
      <path d="m136.85,118.3s-.02-.01-.02,0c.27,2.71.16,5.38-.24,8.07,0,.01.02.02.02,0,.49-2.68.53-5.38.24-8.08Z"/>
      <path d="m138.97,115.76s-.01,0-.01,0c-.02,1.31-.1,2.61-.06,3.92,0,.03.04.03.04,0,.07-1.31.02-2.62.02-3.92Z"/>
      <path d="m141.08,112.48s-.06-.03-.06.01c.16,2,.15,3.98.11,5.98,0,.03.04.03.04,0,.24-2,.16-4.01-.09-6Z"/>
      <path d="m142.56,110.91s-.02,0-.02,0c.04,1.67.06,3.34.19,5.01,0,.03.05.03.05,0,0-1.67-.12-3.34-.22-5.01Z"/>
      <path d="m129.51,136.13s-.04-.03-.04,0c-.27,1.93-.43,3.84-.87,5.74-.44,1.9-1.11,3.7-1.74,5.54-.02.04.05.06.07.02,1.59-3.35,2.62-7.58,2.59-11.3Z"/>
      <path d="m131.14,138.24s-.01,0-.01,0c-.1,1.79-.54,3.49-1.26,5.13,0,.01.01.02.02,0,.76-1.63,1.16-3.34,1.25-5.13Z"/>
      <g>
        <path d="m133.3,133.69c-.14,2.6-.35,5.13-.88,7.66.57-2.5.94-5.11.88-7.66Z"/>
        <path d="m133.28,133c.01.23.01.46.02.68.01-.23.03-.46.04-.69,0-.04-.06-.04-.06,0Z"/>
        <path d="m132.1,142.81c.12-.49.23-.97.33-1.46-.11.49-.23.97-.35,1.45,0,.01.01.02.02,0Z"/>
      </g>
      <path d="m135.69,130.68s-.04-.03-.04,0c.06,3.49-.4,6.87-1.25,10.25,0,.02.02.03.02,0,.94-3.33,1.32-6.8,1.26-10.25Z"/>
      <path d="m137.86,128.9s-.04-.03-.04,0c-.18,2.66-.56,5.3-1.05,7.92,0,.01.02.02.03,0,.6-2.61.93-5.25,1.06-7.92Z"/>
      <path d="m140.13,123.98s0,0,0,0c-.12,1.72-.24,3.44-.36,5.15,0,0,0,0,0,0,.12-1.72.24-3.44.36-5.15Z"/>
      <path d="m142.15,121.38s-.02-.02-.02,0c-.06,3.2-.55,6.27-1.23,9.39,0,.02.04.03.04,0,.9-3.03,1.22-6.24,1.21-9.4Z"/>
      <path d="m144.08,118.59s-.09-.04-.08,0c.15,3.31-.25,6.53-1,9.76,0,.03.04.05.05.02,1-3.16,1.29-6.48,1.04-9.78Z"/>
      <path d="m145.05,108.83c-.01-.07-.11-.05-.1.02.7,5.28.86,10.43.05,15.71,0,.02.02.02.03,0,.9-5.14,1.06-10.59.03-15.73Z"/>
      <path d="m147.06,107.25s-.02-.01-.02,0c.88,5.68.51,11.15-.6,16.76,0,.03.04.04.05.01,1.42-5.41,1.45-11.28.57-16.78Z"/>
      <path d="m148.81,105s-.05-.02-.04,0c.85,5.25.53,10.22-.13,15.45,0,.04.06.06.07.02,1.17-4.97.93-10.47.1-15.48Z"/>
      <path d="m151.42,108.29s0,0,0,0c-.12,2.81-.42,5.66-.38,8.47,0,.07.1.08.11.01.26-2.81.18-5.66.27-8.48Z"/>
      <path d="m153.61,109.83s-.02-.02-.02,0c-.05,1.74-.18,3.51-.14,5.25,0,.03.05.04.05,0,.13-1.74.08-3.51.11-5.25Z"/>
      <path d="m154.4,102.89s-.01,0,0,0c.88,3.5,1.08,7.08.65,10.66,0,.01.02.02.02,0,.47-3.58.23-7.16-.67-10.66Z"/>
      <path d="m156.33,101.32s-.04-.02-.04,0c.53,3.09.57,6.14.54,9.26,0,.03.04.03.04,0,.36-3.06.04-6.25-.54-9.27Z"/>
      <path d="m158.05,98.19s-.01,0-.01,0c.62,3.61.63,7.19.77,10.84,0,.04.06.05.06,0,.39-3.59-.14-7.33-.82-10.84Z"/>
      <path d="m159.32,92.98s-.05-.02-.04,0c.4,1.97.68,3.97.84,5.97.17,2.18.03,4.33.09,6.51,0,.05.07.06.08,0,.59-4.07-.07-8.52-.96-12.5Z"/>
      <path d="m161.49,92.49s-.07-.03-.06.01c.76,3.2.81,6.35.8,9.61,0,.05.06.05.07,0,.49-3.19,0-6.54-.81-9.63Z"/>
      <path d="m163.15,90.82s-.07-.01-.06.03c.84,2.49,1.11,5.02,1.16,7.64,0,.03.05.04.05,0,.23-2.62-.28-5.21-1.16-7.67Z"/>
      <path d="m165.04,89.39s-.06-.02-.05,0c.56,2.05.76,4.11.92,6.22,0,.04.06.03.07,0,.1-2.11-.33-4.21-.94-6.22Z"/>
      <path d="m166.66,87.54s-.05-.02-.04,0c.18,1.27.3,2.58.57,3.83,0,.02.04.02.03,0-.11-1.28-.37-2.56-.56-3.83Z"/>
      <path d="m127.25,138.94s-.02-.02-.02,0c-.45,3.23-1.32,6.33-2.22,9.45,0,.03.04.05.05.02,1.21-3.01,1.83-6.26,2.2-9.47Z"/>
      <path d="m125.11,139.83s-.02-.01-.02,0c-.39,3.07-1.27,5.92-2.15,8.87-.01.04.05.07.07.02,1.23-2.76,1.79-5.91,2.11-8.9Z"/>
      <path d="m123.6,139.71s-.03-.03-.03,0c-.69,2.73-1.35,5.46-1.94,8.21,0,0,.01.01.02,0,.71-2.72,1.35-5.46,1.96-8.21Z"/>
      <path d="m117.07,141.28s0,0,0,0c-.62,5.03-2.12,9.72-3.94,14.42-.01.04.04.06.06.02,2.16-4.51,3.3-9.5,3.89-14.44Z"/>
      <path d="m119.88,135.7s-.03-.02-.03,0c-.33,5.79-1.21,11.46-2.98,17,0,0,0,0,0,0,1.79-5.49,2.91-11.21,3-17Z"/>
      <path d="m120.82,145.21c.02-.07-.09-.11-.11-.04-.41,1.41-.88,2.81-1.21,4.24-.01.04.05.07.07.02.49-1.38.85-2.82,1.26-4.22Z"/>
      <path d="m139.12,136.3s-.04-.05-.05-.02c-.33.88-.74,1.76-.97,2.67,0,.04.04.06.06.02.4-.84.66-1.79.96-2.67Z"/>
      <path d="m141.23,132.54s-.04-.03-.04,0c-.18,1.69-.66,3.24-1.29,4.81,0,.02.02.03.03.01.76-1.49,1.14-3.16,1.3-4.82Z"/>
      <path d="m143.48,129.87s-.02-.01-.02,0c-.41,1.76-.89,3.53-1.22,5.31,0,.04.06.06.07.02.46-1.75.78-3.55,1.16-5.32Z"/>
      <path d="m145.62,128.39s-.02-.03-.03-.01c-.37,1.38-.78,2.75-1.07,4.15,0,.04.06.06.07.02.41-1.36.7-2.77,1.03-4.16Z"/>
      <path d="m147.27,129.15s0,0,0,0c-.29.8-.58,1.6-.87,2.4,0,0,0,.01.01,0,.29-.8.58-1.6.87-2.4Z"/>
      <path d="m150.4,119.85s-.06-.05-.07,0c-.43,3.22-1.08,6.28-1.93,9.41-.02.07.08.1.1.04,1.13-2.94,1.78-6.3,1.9-9.44Z"/>
      <path d="m152,118.77c0-.06-.09-.07-.1,0-.32,2.41-.68,4.74-1.21,7.11,0,.04.06.06.08.02.78-2.24,1.25-4.74,1.23-7.12Z"/>
      <path d="m153.9,117.34s-.04-.03-.04,0c0,1.69-.23,3.31-.52,4.97,0,.03.04.04.05.01.4-1.62.52-3.31.52-4.97Z"/>
      <path d="m156.04,115.42s-.04-.03-.04,0c-.15,1.35-.35,2.71-.42,4.07,0,.03.05.04.05,0,.21-1.35.29-2.72.42-4.07Z"/>
      <path d="m158.3,111.85c.01-.06-.08-.07-.09,0-.12.61-.29,1.22-.35,1.83,0,.04.05.05.06.01.18-.6.26-1.23.38-1.84Z"/>
      <path d="m113.12,149.97s-.03-.03-.03-.01c-.84,3.24-1.99,6.3-3.27,9.39-.01.03.03.05.05.02,1.48-2.95,2.51-6.18,3.26-9.39Z"/>
      <path d="m110.84,150.04s-.03-.03-.03,0c-.84,3.13-1.8,6.18-2.74,9.27-.01.04.04.05.05.02,1.35-2.86,2.26-6.16,2.72-9.28Z"/>
      <path d="m108.45,152.2s-.03-.04-.04-.02c-.74,2.1-1.48,4.2-2.13,6.32,0,.02.03.03.03.01.77-2.08,1.45-4.21,2.13-6.32Z"/>
      <path d="m106.25,153.21s-.06-.08-.07-.03c-1.16,2.88-2.53,5.62-3.89,8.41-.02.04.04.07.06.03,1.66-2.58,2.91-5.52,3.9-8.41Z"/>
      <path d="m103.75,154.72c-1.37,2.51-2.6,5.1-3.85,7.67,0,.01.01.02.02.01,1.32-2.53,2.68-5.06,3.88-7.65.01-.03-.03-.05-.05-.02Z"/>
      <path d="m115.99,155.98c.01-.06-.09-.07-.1,0-.14.68-.46,1.25-.9,1.77-.02.03.02.07.05.04.52-.48.82-1.11.95-1.8Z"/>
      <path d="m119.23,151.73c.02-.07-.08-.11-.11-.04-.43,1.29-.95,2.59-1.27,3.92-.01.06.07.09.09.03.52-1.26.87-2.61,1.29-3.91Z"/>
      <path d="m121.51,151.19c.01-.07-.09-.08-.11,0-.12.58-.35,1.24-.35,1.83,0,.05.07.07.09.02.23-.55.27-1.25.37-1.84Z"/>
      <path d="m91.13,157.83s-.03-.02-.04,0c-.14.42-.14.87-.16,1.3,0,.02.02.02.03,0,.09-.43.2-.86.18-1.3Z"/>
      <path d="m90.27,161.75s0,0,0,0c-.74,3.32-2.2,6.25-4.04,9.09-.02.03.03.07.05.04,2.07-2.66,3.31-5.85,3.99-9.13Z"/>
      <path d="m93.12,158.11s0,0,0,0c-.83,4-2.22,7.7-3.49,11.57-.02.06.07.09.1.03,1.69-3.61,2.62-7.71,3.4-11.6Z"/>
      <path d="m95.85,156.83s-.04-.04-.05-.01c-.63,1.81-1.13,3.66-1.74,5.48-.6,1.82-1.35,3.59-1.91,5.43-.02.06.06.08.08.03,1.62-3.36,2.85-7.28,3.61-10.92Z"/>
      <path d="m97.93,158.04s-.03-.03-.03-.01c-.72,2.15-1.5,4.29-2.09,6.49,0,.03.03.05.05.02.8-2.13,1.41-4.32,2.08-6.49Z"/>
      <path d="m100.33,157.56c.02-.07-.08-.11-.11-.04-.39.99-.99,2.02-1.15,3.08-.01.09.12.14.17.06.55-.92.76-2.09,1.09-3.1Z"/>
      <path d="m60.89,170.41s-.04-.03-.04,0c-.49,1.83-1.35,3.48-2.53,4.97-.03.03.02.06.05.04,1.29-1.44,2.11-3.11,2.52-4.99Z"/>
      <path d="m64.2,167.99s-.05-.06-.06-.02c-.7,2.16-1.68,4.1-2.82,6.06-.03.06.04.11.08.06,1.33-1.81,2.23-3.94,2.8-6.09Z"/>
      <path d="m67.98,166.38s-.03-.03-.04,0c-.71,1.69-1.34,3.41-1.99,5.12,0,.01.01.02.02,0,.4-.98.8-1.96,1.18-2.94.18-.46.37-.92.53-1.38.06-.16.2-.93.17-.27,0,.03.05.05.06.01.08-.34.06-.19.06-.54Z"/>
      <path d="m71.36,163.95s-.03-.03-.04,0c-.56,3.47-1.87,6.54-3.7,9.51-.02.03.03.06.05.03,2.03-2.81,3.2-6.13,3.69-9.54Z"/>
      <path d="m75,162.52c-.08.07-.15.14-.22.23-.01.02.01.04.03.03.08-.07.15-.15.22-.23.01-.02-.01-.04-.03-.02Z"/>
      <path d="m73.09,165.63s-.04-.05-.05-.02c-.82,2.11-1.78,4.2-2.44,6.36-.02.07.07.1.1.04.93-2.06,1.6-4.26,2.39-6.38Z"/>
      <path d="m168.13,85.28s0,0,0,0c.21,1.08.42,2.17.63,3.25,0,0,0,0,0,0-.21-1.08-.42-2.17-.63-3.25Z"/>
      <path d="m169.56,85.37c-.55-3.2-2.3-6.04-4.73-8.16,0,0,0,0,0,0,2.41,2.23,3.88,5,4.63,8.17.02.07.12.05.1-.02Z"/>
      <path d="m165.87,74.83s-.02,0-.01,0c2.03,2.24,3.33,4.75,4.34,7.57,0,.02.05.01.04-.01-.72-2.84-2.36-5.45-4.37-7.56Z"/>
      <path d="m167.21,72.86s-.01,0,0,0c1.34,1.74,2.28,3.62,3.17,5.61,0,.02.04,0,.03-.01-.66-2.05-1.85-3.93-3.2-5.6Z"/>
      <path d="m166.04,67.79s0,0,0,0c1.68,1.89,2.86,4.01,3.86,6.32.01.03.05,0,.04-.02-.81-2.35-2.23-4.47-3.89-6.31Z"/>
      <path d="m166.44,65.54s-.01,0,0,0c1.33,1.41,2.26,3.01,3.09,4.76.01.03.05,0,.04-.02-.66-1.78-1.81-3.38-3.13-4.74Z"/>
      <path d="m168.42,66.24c-1.15-2.16-2.81-4.03-4.6-5.68-.02-.02-.04,0-.03.02,1.79,1.71,3.2,3.64,4.57,5.69.02.03.07,0,.05-.03Z"/>
      <path d="m167.19,62.52c-.8-1.26-1.81-2.42-2.71-3.61,0,0-.02,0-.01.01.88,1.21,1.7,2.5,2.68,3.63.02.02.06,0,.04-.03Z"/>
      <path d="m165.1,58.18c-.73-.78-1.47-1.56-2.2-2.35,0,0-.02,0-.01,0,.73.78,1.46,1.57,2.19,2.36.01.01.03,0,.02-.02Z"/>
      <path d="m163.21,55.07c-.93-.9-1.91-1.77-2.87-2.65,0,0-.02,0-.01.01.95.89,1.89,1.79,2.86,2.65.01.01.03,0,.02-.02Z"/>
      <path d="m160.07,50.94c-.43-.6-1.08-1.02-1.77-1.24,0,0-.01,0,0,.01.72.25,1.26.67,1.75,1.25.01.02.04,0,.02-.02Z"/>
      <path d="m153.61,41.25c-.34-2.16-.74-4.31-1.25-6.44-1.02-4.27-2.35-8.45-4.02-12.51-.02-.04-.07-.01-.06.03,1.53,4.18,2.81,8.44,3.77,12.79.45,2.05.85,4.12,1.17,6.2.33,2.14.36,4.4.87,6.49.02.09.16.09.17,0,.16-2.15-.32-4.44-.65-6.56Z"/>
      <path d="m155.36,46.38c-.1-1.78-.55-3.6-.83-5.36-.02-.12-.21-.09-.19.03.29,1.76.44,3.63.9,5.35.02.08.12.06.12-.02Z"/>
      <path d="m156.96,46.36c-.46-5.53-1.5-11.05-2.76-16.46,0-.02-.04-.02-.03,0,1.2,5.45,1.96,10.94,2.63,16.48.01.11.17.07.16-.03Z"/>
      <path d="m157.44,41.28c-.02-.16-.26-.11-.24.04.18,1.31.24,2.74.59,4.02.02.08.17.09.17,0,0-1.34-.33-2.73-.52-4.05Z"/>
      <g>
        <path d="m143.32,74.48s.03.04.04.01c.87-1.71,1.6-3.46,2.23-5.23-.7,1.78-1.46,3.52-2.27,5.22Z"/>
        <path d="m148.42,58.89c-.77,3.54-1.62,7.01-2.83,10.38,1.31-3.36,2.36-6.84,2.83-10.38Z"/>
        <path d="m148.5,58.24c-.02.22-.06.43-.08.65.05-.21.09-.43.14-.64,0-.04-.05-.04-.06,0Z"/>
      </g>
      <path d="m152.22,68.48c.83-4.62,1.44-9.64.93-14.33,0-.06-.11-.06-.11,0-.16,4.74-.16,9.35-.98,14.05-.84,4.83-2.31,9.43-4.04,14.01-.03.07.08.11.11.04,1.96-4.36,3.25-9.07,4.09-13.77Z"/>
      <path d="m154.18,53.84s0,0,0,0c.45,3.35.42,6.76.13,10.12,0,.02.02.02.03,0,.48-3.4.36-6.74-.15-10.12Z"/>
      <path d="m155.62,54.95s-.04-.02-.03,0c.3,1.77.34,3.54.23,5.33,0,.03.04.03.04,0,.25-1.79.14-3.57-.24-5.34Z"/>
      <path d="m156.91,53.6s-.1-.02-.09.03c.45,1.54.45,3.04.53,4.62,0,.06.09.05.11,0,.3-1.51-.07-3.21-.55-4.65Z"/>
      <path d="m158.61,56.06s-.01,0-.01,0c0,.54-.02,1.08,0,1.62,0,.02.03.02.03,0,.02-.54-.01-1.08-.03-1.62Z"/>
      <path d="m104.54,119.57c-8.34,5.32-16.98,9.86-26.23,13.39-.01,0,0,.02,0,.02,9.22-3.29,18.21-7.75,26.24-13.38.01-.01,0-.04-.02-.03Z"/>
      <path d="m149.77,59.08s-.02-.03-.03,0c-.91,3.76-1.9,7.52-2.66,11.31,0,.02.04.03.04,0,1-3.74,1.79-7.54,2.65-11.31Z"/>
      <path d="m141.87,76.76s-.03-.05-.05-.02c-1.35,3.2-2.96,6.16-4.77,9.12-.03.05.04.1.07.05,2.06-2.72,3.66-5.92,4.74-9.16Z"/>
      <path d="m143.48,76.14s-.05-.06-.06-.02c-1.55,4.94-4.09,9.25-7.39,13.21-.03.03.03.08.06.05,3.6-3.63,6.09-8.33,7.4-13.24Z"/>
      <path d="m146,74.23c.01-.05-.06-.08-.08-.03-1.61,4.64-3.59,8.86-6.17,13.03-.02.03.02.05.04.03,2.82-3.81,5.05-8.43,6.21-13.03Z"/>
      <path d="m144.94,79.89s-.03-.04-.04-.02c-1.61,4.04-3.61,7.87-6.03,11.48-.02.03.03.07.05.04,2.6-3.51,4.62-7.36,6.02-11.5Z"/>
      <path d="m146.47,84.06s-.05-.07-.07-.02c-1.07,3-2.35,5.86-3.95,8.62,0,.02.01.03.03.02,1.73-2.66,3.11-5.56,3.99-8.61Z"/>
      <path d="m153.47,71.72s0,0,0,0c-1.01,4.58-2.38,9.04-4.02,13.43,0,.01.01.02.02,0,1.72-4.36,3.02-8.86,4.01-13.44Z"/>
      <path d="m153.31,76.46s-.03-.02-.03,0c-.86,3.8-2.16,7.38-3.68,10.95-.01.03.03.05.04.02,1.8-3.42,2.96-7.18,3.67-10.97Z"/>
      <path d="m154.16,80.01s-.04-.05-.05-.02c-.84,2.18-1.68,4.35-2.38,6.58,0,.02.03.04.04.01.89-2.16,1.65-4.37,2.4-6.58Z"/>
      <path d="m154.54,83.37s-.05-.06-.05-.02c-.4,1.56-1.07,2.97-1.92,4.34-.02.02.02.05.04.03.97-1.3,1.57-2.77,1.94-4.34Z"/>
      <path d="m140.84,95.5c-4.17,7.85-9.48,14.87-15.58,21.32-.01.01,0,.03.02.02,6.34-6.15,11.52-13.5,15.59-21.32,0-.01-.02-.03-.02-.01Z"/>
      <path d="m146.76,89.63c-1.81,2.74-3.45,5.58-5.13,8.39,0,.01.01.02.02.01,1.74-2.78,3.52-5.53,5.14-8.38.01-.02-.02-.04-.03-.02Z"/>
      <g>
        <path d="m76.59,138.17c-2.79,1.28-5.54,2.52-8.46,3.47,2.9-.89,5.82-1.99,8.46-3.47Z"/>
        <path d="m77.19,137.84c-.2.12-.4.23-.6.34.21-.1.42-.19.63-.29.03-.02,0-.07-.02-.05Z"/>
        <path d="m66.76,142.06c.46-.13.92-.27,1.37-.42-.46.14-.92.28-1.37.41,0,0,0,.02,0,.01Z"/>
      </g>
      <path d="m129.12,103.01c-3.03,3.02-5.81,6.24-8.98,9.14-3.03,2.77-6.21,5.41-9.55,7.81-6.93,4.98-14.46,9.18-22.36,12.4,0,0,0,0,0,0,7.88-3.18,15.35-7.21,22.25-12.16,3.48-2.49,6.82-5.15,9.99-8.03,3.06-2.78,6.26-5.75,8.73-9.08.04-.05-.04-.13-.09-.08Z"/>
      <path d="m104.3,125.36c-3.63,1.93-7.22,3.94-10.8,5.97-.02,0,0,.04.01.03,3.62-1.95,7.23-3.93,10.79-5.97.01,0,0-.03-.01-.02Z"/>
      <path d="m129.91,104.63c-3.3,2.93-6.22,6.35-9.29,9.52,0,0,0,.02.01.01,3.11-3.13,6.48-6.11,9.35-9.47.04-.04-.03-.1-.07-.06Z"/>
      <path d="m115.46,120.79c-3.37,1.99-6.66,4.11-9.96,6.2,0,0,0,.01,0,0,3.34-2.03,6.7-4.05,9.97-6.19.01,0,0-.03-.02-.03Z"/>
      <path d="m102.12,123.5s-.05.04-.02.05c.03.01.05-.04.02-.05Z"/>
      <path d="m120.42,109.63c-5.61,4.97-11.54,9.57-17.88,13.58-.05.03-.01.12.04.09,6.39-3.95,12.41-8.46,17.85-13.65.01-.01,0-.04-.02-.02Z"/>
      <path d="m117.13,111.45c-3.76,2.5-7.42,5.07-11.31,7.38-.03.02,0,.07.02.05,3.93-2.08,7.92-4.5,11.33-7.38.03-.03,0-.07-.04-.05Z"/>
      <path d="m137.75,93.58c-1.31,3.01-3.1,5.56-4.9,8.26-.03.04.03.09.06.06,2.15-2.33,3.67-5.4,4.85-8.32,0,0,0,0,0,0Z"/>
      <path d="m28.19,159.1c-1.67.82-3.48,2.56-3.77,4.48,0,0,0,0,.01,0,.46-.75.78-1.55,1.33-2.25.69-.88,1.53-1.56,2.46-2.16.04-.03.01-.1-.03-.07Z"/>
      <path d="m24.47,160.93c-.74.29-1.27.96-1.46,1.72-.02.08.09.12.12.04.28-.72.75-1.25,1.4-1.66.06-.04.02-.14-.05-.11Z"/>
      <path d="m60.22,141.69c-8.81,3.46-17.05,8.46-24.56,14.18,0,0,0,.02.01.01,7.64-5.7,15.91-10.22,24.57-14.16.03-.01,0-.05-.02-.04Z"/>
      <path d="m108.47,128.92c-15.91,7.74-32.22,14.43-49.31,19.12-4.81,1.32-9.65,2.53-14.51,3.62-.02,0-.01.03,0,.03,17.16-3.72,33.98-9.21,50.08-16.24,4.64-2.03,9.27-4.14,13.76-6.48.02-.01,0-.05-.02-.04Z"/>
      <path d="m121.45,119.44c-2.02,1.63-3.95,3.3-6.15,4.69-2.05,1.3-4.23,2.41-6.43,3.42-.02,0,0,.03.01.03,4.61-1.67,9.29-4.42,12.65-8.04.05-.06-.02-.15-.08-.09Z"/>
      <path d="m113.49,128.28c-4.85,2.37-9.69,4.76-14.53,7.15,0,0,0,.01,0,0,4.85-2.37,9.7-4.75,14.54-7.14.01,0,0-.02,0-.02Z"/>
      <path d="m113.07,129.92c-2.38.96-4.64,2.36-6.91,3.55,0,0,0,.01,0,0,2.3-1.14,4.76-2.14,6.93-3.5.04-.02.01-.08-.03-.06Z"/>
      <path d="m110.91,132.56c-.46.15-.89.46-1.3.7-.42.25-.85.5-1.28.75-.04.02-.01.09.03.06.46-.24.92-.48,1.39-.72.41-.21.87-.4,1.22-.7.06-.05,0-.12-.06-.1Z"/>
      <path d="m52.29,175.88c-6.5.41-12.96.36-19.44-.26-.01,0-.01.02,0,.02,6.44.75,12.99.87,19.44.26.01,0,.01-.02,0-.02Z"/>
      <path d="m75.9,173.65c-5.36,1.74-10.91,2.67-16.56,2.72,0,0,0,0,0,0,5.63-.04,11.21-.95,16.56-2.72,0,0,0,0,0,0Z"/>
      <path d="m83.24,171.01c-.62.24-1.25.49-1.88.73-.03.01,0,.06.02.05.62-.24,1.25-.49,1.87-.73.03-.01,0-.06-.02-.05Z"/>
      <path d="m94.74,167.12s-.05.04-.02.05c.03.01.05-.04.02-.05Z"/>
      <path d="m94.73,167.14s0,0,0,0" style="fill: none; stroke: #000; stroke-linecap: round; stroke-linejoin: round; stroke-width: 0px;"/>
      <path d="m111.82,159.21c-2.85,1.93-5.69,3.79-8.8,5.28-3.1,1.48-6.34,2.57-9.65,3.5-.03,0-.02.06,0,.05,6.56-1.44,13.29-4.49,18.48-8.78.03-.03,0-.07-.04-.05Z"/>
      <path d="m28.1,174.86c-1.76-.41-3.57-.58-5.37-.77-.02,0-.02.02,0,.03,1.77.33,3.55.7,5.36.8.04,0,.05-.06.01-.06Z"/>
      <path d="m35.45,174.61c-1.63-.13-3.27-.25-4.9-.36,0,0,0,0,0,0,1.63.13,3.26.26,4.9.37,0,0,0-.01,0-.01Z"/>
      <path d="m53.75,177.45c-3.62-.21-7.26-.48-10.88-.45-.03,0-.03.04,0,.04,3.61.33,7.26.34,10.88.43.01,0,.02-.02,0-.02Z"/>
      <path d="m82.53,169.18c-3.25,1.15-6.5,2.32-9.73,3.51-.03.01,0,.05.02.04,3.25-1.15,6.49-2.33,9.72-3.53.01,0,0-.02,0-.02Z"/>
      <path d="m102.48,162.89c-2.52,1.41-5.11,2.51-7.86,3.38-.05.02-.04.1.01.08,2.78-.7,5.45-1.86,7.88-3.39.04-.02.01-.09-.03-.06Z"/>
      <path d="m168.02,94.5s-.03-.04-.04-.01c-.75,1.94-1.47,3.89-2.12,5.87,0,.02.02.02.02,0,.77-1.93,1.46-3.9,2.14-5.87Z"/>
      <path d="m162.02,107.62c-.63,1.18-1.26,2.36-1.89,3.54,0,0,0,.02.01,0,.63-1.18,1.26-2.36,1.89-3.54,0-.01,0-.02-.01-.01Z"/>
      <path d="m164.79,101.79c-.9,1.94-1.86,3.88-2.63,5.88-.02.04.05.06.07.02.97-1.91,1.77-3.92,2.6-5.89.01-.02-.03-.04-.04-.01Z"/>
      <path d="m161.5,111.04c-.84,1.09-1.66,2.2-2.4,3.37-.02.03.03.07.05.04.85-1.08,1.63-2.22,2.39-3.37.02-.03-.02-.06-.04-.03Z"/>
      <path d="m160.32,56.28c-.87-2.41-2.32-4.64-4.2-6.39-.06-.06-.16.02-.1.09,1.71,1.94,3.09,4.01,4.21,6.35.03.06.11.02.09-.04Z"/>
      <path d="m160.95,57.93s-.08-.01-.07.03c2.13,6.1,2.93,12.31,2.53,18.75,0,.03.04.03.04,0,.72-6.31-.19-12.88-2.5-18.79Z"/>
      <path d="m163.77,62.95s-.05-.02-.04,0c.84,3.39,1.15,6.77,1.54,10.22,0,.03.05.03.05,0,.08-3.43-.63-6.94-1.54-10.22Z"/>
      <path d="m166.06,70.02s-.03-.02-.04,0c-.02.85-.14,1.81.03,2.65.01.06.1.05.11,0,.12-.84-.04-1.8-.1-2.64Z"/>
      <path d="m154.33,66.36s-.05-.04-.05,0c-.1,1.31-.23,2.63-.23,3.94,0,.03.05.04.05,0,.15-1.31.18-2.63.22-3.94Z"/>
      <path d="m156.15,61.37s-.06-.03-.06.01c.32,3.67.15,7.13-.37,10.76,0,.03.05.04.06.01.87-3.46.95-7.27.38-10.78Z"/>
      <path d="m154.52,52.68c-.03-.47-.19-.95-.3-1.41-.11-.47-.22-.94-.37-1.4-.02-.05-.1-.04-.09.02.07.51.19,1.01.3,1.51.1.44.16.9.34,1.32.03.06.11.02.11-.04Z"/>
      <path d="m150.44,22.06s-.06,0-.04.02c.76,1.8,1.06,3.63,1.35,5.55,0,.06.11.06.11,0-.02-1.92-.65-3.83-1.41-5.57Z"/>
      <path d="m172.16,89.06c2.7-13.37.05-28.61-9.38-38.88-.54-.58-1.1-1.14-1.68-1.68-.13-.77-.32-1.54-.46-2.29-.24-1.29-.48-2.57-.72-3.86-.49-2.67-.99-5.33-1.49-8-.49-2.67-1-5.33-1.5-7.99-.03-.17-.07-.35-.1-.52-.21-1.16-.42-2.32-.65-3.47-.07-.36-.13-.74-.2-1.11.72-1.61,1.41-3.43,1.45-5.18,0-.22-.33-.33-.4-.09-.41,1.29-.7,2.56-1.11,3.82,0-.23,0-.46,0-.68.51-2.83.99-5.83.14-8.64-.85-2.82-3-4.87-5.19-6.72-2.35-1.98-4.77-3.96-8.02-3.76-1.85.11-3.64.71-5.41,1.19-1.34.37-2.67.74-4.01,1.12-.74-.05-1.47-.1-2.21-.12-.39-.01-.43.53-.05.6.15.02.3.04.45.06-.14.11-.1.37.05.45-.2,1.31-.13,2.7-.12,4.01.01,1.51-.11,3.18.3,4.65.03.11.19.11.21,0,.25-1.57,0-3.28-.02-4.87-.02-1.25.08-2.55-.05-3.8.32-.08.64-.16.96-.25,2.33.3,4.7.47,7.03.71.51.05,1.79-.06,2.2.22.51.35.43,1.39.51,1.95.21,1.56.42,3.13.63,4.69.13.99.28,1.59-.57,2.27-.19.15-.43.2-.58.42-.01-.06-.03-.11-.04-.17-.07-.26-.48-.19-.41.07.45,1.84.74,3.86,1.42,5.64-.17-.02-.33-.04-.5-.07,0,0,0-.01,0-.02-.03-.06-.11-.05-.13,0-.1-.01-.19-.03-.29-.04-.7-4.55-2.17-9.1-3.29-13.56-.04-.16-.29-.12-.25.05,1,4.46,1.74,9.14,3.14,13.49-.23,0-.45.04-.66.14-.13.06-.25.13-.35.21-.09-.19-.2-.37-.32-.54.02-.02.04-.04.03-.07-.12-1.77-.7-3.56-1.1-5.29-.4-1.76-.8-3.51-1.21-5.27-.06-.25-.45-.18-.39.07.42,1.84.85,3.69,1.27,5.53.36,1.56.61,3.21,1.16,4.72-.57-.7-1.35-1.2-2.31-1.45-.65-.17-1.48-.02-1.89-.71-.18-.3-.11-.82-.15-1.15-.02-.21-.06-.4-.11-.59-.1-2.63-.7-5.29-1.09-7.89-.03-.23-.38-.16-.35.06.35,2.33.54,4.77,1.07,7.08-.08-.09-.15-.18-.25-.27-.61-.49-1.41-.5-2.14-.61-1.44-.21-2.27-.86-2.42-2.38-.24-2.42.93-5.02.3-7.38-.01-.05-.08-.06-.1,0-.59,1.15-.59,2.61-.75,3.88-.13,1.05-.31,2.11-.28,3.17.04,1.41.49,2.78,1.91,3.32.83.31,1.88.09,2.66.5,1.12.59.49,2.02,1.1,2.89.35.5.89.63,1.45.77,1.21.3,2.21.62,2.86,1.46,0,.03,0,.07,0,.1.36,1.26.64,2.53.84,3.79-.09.85-.04,1.71,0,2.57.09,1.69.12,3.39.05,5.08-.11,2.9-.49,5.8-1.1,8.64-.71,2.61-1.63,5.18-2.73,7.71-.22.5-.45.99-.68,1.49-1.01,1.06-1.81,2.35-2.51,3.67-1.62,3.05-3.14,6.15-4.77,9.2-1.13,2.1-2.25,4.21-3.38,6.31-.18.32-.37.64-.55.96-.76,1.37-1.57,2.77-2.26,4.22-.61,1.09-1.22,2.19-1.79,3.31-1.25,1.68-2.53,3.34-3.87,4.95-2.53,2.38-5.02,4.92-7.19,7.55-2.11,1.95-4.31,3.81-6.58,5.57-7.64,5.93-16.04,10.8-24.68,15.11-17.8,8.89-36.68,15.62-53.72,26-8.79,5.35-17.39,11.65-23.98,19.62-.05.06-.06.13-.04.19-.23.39-.36.87-.42,1.21-.02.12.05.21.14.26-.22.36-.38.77-.46,1.18-.49,2.6,1.42,5.78,2.48,8.02.13.27.42.26.61.12.4.22.81.43,1.23.62.47.31,1,.55,1.48.79,1.35.69,2.78,1.24,4.23,1.68,2.55.76,5.19,1.11,7.84,1.09-.16.41-.37.86-.45,1.07-.07.18.05.37.22.43-.05.3-.02.6.06.92-.09.42-.04.8.15,1.23,0,.06,0,.12,0,.19,0,.25.33.53.56.29.13-.14.24-.28.36-.42,0,.01,0,.02,0,.04-.12.14-.23.29-.35.42-.15.16-.15.46.1.53,15.1,4.67,31,5.68,46.63,3.45,1.63-.23,3.24-.51,4.85-.81,13.5-2.16,26.54-6.77,38.45-13.5,6.04-3.42,11.95-7.37,17.24-11.92,7.51-5.73,14.5-12.14,20.9-19.07,11.47-12.4,22.08-26.85,25.49-43.73Zm-.08-14.59c-.4-2.88-1.07-5.72-1.96-8.46-1.22-3.75-2.88-7.35-4.98-10.69-.99-1.58-2.07-3.1-3.25-4.54-.21-.25-.43-.54-.66-.82,0-.03,0-.07,0-.1,6.48,6.54,9.98,15.45,10.85,24.61ZM143.15,3.59c-.02-.17-.18-.3-.34-.31-2.54-.25-5.09-.58-7.65-.81,1.95-.54,3.9-1.09,5.88-1.49,1.73-.35,3.46-.41,5.1.33,1.48.67,2.73,1.78,3.96,2.81,2.21,1.86,4.45,3.9,5.26,6.77.63,2.26.35,4.66-.04,6.96-.04,0-.08,0-.12,0,0-.01,0-.03,0-.04-.02-.08-.14-.06-.13.02,0,.02,0,.04,0,.06-.84.29-1.84,1.78-2.34.17-.09-.28-.42-.32-.56-.05-.24.85-.88,1.1-1.91.76-.05-.36-.51-.33-.64-.06-.35.69-.69,1.39-1.03,2.09-.86-.74-1.72-1.53-2.75-2-.06-.03-.09.05-.06.09.11.16.23.32.35.47-.13-.02-.27.04-.34.15-.02-.02-.04-.03-.06-.05-.12-.21-.23-.43-.35-.64-.04-.43-.09-.87-.13-1.3.15.31.3.62.45.92.09.18.34.12.37-.07.07-.51.14-1.03.22-1.55.17.58.36,1.17.59,1.73.01.07.02.13.04.2.02.07.07.13.12.17.04.08.07.16.11.24.06.11.23.06.21-.07,0-.05-.02-.1-.04-.15.05-.03.09-.07.12-.14.41-1.29.15-3.01-.78-4.04-.38-.42-.88-.75-1.45-.85-.47-.08-2.17.55-1.95-.4.03-.14.78-.57.9-.91.2-.57.04-1.26-.04-1.85-.3-2.39-.65-4.78-.97-7.17Zm4.37,41.04s.02-.01.03-.03c1.06-3.83.95-7.85.3-11.74,0,0-.01,0-.01,0,.53,3.7.26,7.33-.29,10.99.24-6.75-.53-13.74-2.31-20.25.37.58.67,1.21.89,1.9.02.04.03.09.04.13.06.17.22.21.38.18,2.55,7.17,3.07,15.11,1.77,22.64-.5.7-.9,1.47-1.23,2.28-1.34-2-1.1-4.59-.88-6.92.26-2.77.36-5.54.22-8.32-.22-4.5-.96-9.1-2.47-13.39.27.25.52.5.75.77.87,3.52,1.61,7.05,2.05,10.67.6,4.96.61,9.92.38,14.9,0,.06.09.07.09,0,.13-1.27.23-2.55.29-3.84Zm-.98-20.44s.09-.04.13-.07c.14.52.28,1.04.41,1.56-.17-.5-.36-1-.55-1.49Zm-3.14-6.12c-.2-1.14-.54-2.28-.86-3.41.54.39,1.1.16,1.73.1,1.69-.17,2.14.78,2.34,1.94-.08-.2-.15-.4-.23-.6-.06-.15-.27-.09-.29.05-.07.54-.18,1.08-.29,1.62-.22-.44-.44-.88-.66-1.32-.1-.19-.37-.09-.35.11.06.52.1,1.03.13,1.55-.3-.67-.52-1.37-.66-2.1-.04-.21-.34-.15-.32.06.05.51.07,1.02.08,1.53l-.68-1.83c-.08-.22-.4-.06-.32.16.34.94.68,1.89,1.01,2.83-.16.07-.34.11-.52.12-.01-.25-.02-.49-.03-.74,0-.06-.06-.08-.1-.07ZM.79,158.17s0,0,.01-.02c.02-.05.05-.1.07-.15.03.17.05.35.09.52-.05.13-.09.27-.14.4-.03-.25-.04-.5-.03-.75Zm.93-1.14c-.09-.02-.19,0-.25.09-.01-.11-.04-.22-.05-.33.17-.28.38-.48.64-.48-.11.24-.22.48-.33.72Zm-.7,2.85s.05-.04.07-.07c.05-.06.09-.12.14-.18.1.37.22.74.34,1.1,0,.11.03.2.09.26.25.69.53,1.37.86,2.04.06.11.15.16.25.18.01.03.02.05.03.08-.07.2-.13.4-.2.61-.62-1.3-1.23-2.66-1.59-4.02Zm.78-1.99c.18-.42.36-.85.53-1.27.06.11.11.22.17.32-.23.32-.47.63-.7.95Zm1.27-.6c.05.11.09.22.14.33-.15.43-.34.84-.54,1.24.13-.53.27-1.05.4-1.58Zm1.68.27s-.02-.03-.03-.05c.59.11.72.62.64,1.21-.2-.39-.41-.77-.61-1.16Zm-.79,7.77c-.27-.1-.54-.19-.81-.28-.06-.13-.13-.26-.19-.39.07-.02.13-.06.17-.14.05-.1.1-.19.16-.29,0,0,0,0,0,0,.05.2.26.36.45.3-.04.09-.08.18-.11.27-.11.28.13.48.37.46-.01.03-.03.05-.04.08Zm15.2-2.8c-.89.8-1.78,1.6-2.67,2.4-.16.14-.15.35-.04.51.19.27.39.51.6.75-.03.19.11.37.3.36-.04.14-.07.29-.09.44l-.16.38s-.02.07-.02.1c-.1.21-.19.42-.27.64-.04.1-.07.2-.11.31-.4-.1-.83-.15-1.25-.18-3.45-1.1-7.02-1.95-10.5-2.91.72-1.34,1.43-2.69,2.14-4.03.13-.25.03-.6-.29-.62-.4-.03-.81-.07-1.21-.11.39-.81.71-1.7.38-2.57-.28-.74-.91-1.2-1.64-1.23-.01-.26-.02-.52-.03-.77,0-.18-.08-.31-.24-.38-.82-.37-1.41-.67-2.2-.35-.15.02-.27.08-.39.14.08-.21.15-.42.22-.63.02-.05.02-.1.01-.14,6.51-6.74,13.64-12.63,21.59-17.63,8.2-5.16,16.91-9.44,25.72-13.46,17.98-8.19,36.63-15.47,52.64-27.31,4.34-3.21,8.64-6.8,12.48-10.79,1.84-1.81,3.61-3.71,5.29-5.6.04,0,.08-.01.1-.05.1-.13.19-.26.28-.38.37-.41.73-.83,1.09-1.24.09-.11.07-.23,0-.32,2.87-4.33,5.06-9.37,7.43-13.98,2.24-3.8,4.53-7.57,6.58-11.47.05-.09.1-.19.15-.28,1.16-1.68,2.43-3.3,3.89-4.84.32-.34,0-.96-.47-.72-.08.04-.15.08-.22.13.75-1.77,1.2-3.79,1.63-5.52.17-.67.32-1.34.47-2.02.76-2.75,1.28-5.56,1.48-8.42.19-2.77.08-5.61-.46-8.36.04-.22.1-.44.17-.65.1-.27.21-.5.34-.7.31.34.77.5,1.27.24,1.41,5.23,2.47,10.48,2.54,15.95.04,2.85-.33,5.65-.47,8.5-.02.48-.02.96,0,1.44-.08,0-.15.05-.15.15,0,.12,0,.25,0,.37-.48-.76-1.09-1.49-1.84-1.7-.05-.01-.13.03-.11.09.33,1.08,1.37,1.97,1.89,3,.02.04.03.08.05.12,0,.77,0,1.54.02,2.31-.41-2.27-2.26-4.07-4.46-4.66-.09-.02-.14.1-.05.14,2.25.84,3.68,2.59,4.45,4.82.01.03.03.04.06.03,0,1.81-.01,3.61-.23,5.44-.42,3.51-1.25,6.96-2.35,10.31-.05-2.96-.55-5.98-1.61-8.69-.01-.03-.05-.01-.05.01.74,3.21,1.25,6.3,1.35,9.55-.72,2.11-1.55,4.18-2.44,6.22,1.04-3.64,1.15-7.43.43-11.18,0,0-.01,0-.01,0,.64,4.09.28,8.2-.84,12.15-.33.73-.66,1.46-1,2.18-.47,1-.98,1.99-1.49,2.98.49-3.18.44-6.43.19-9.63,0-.01-.02-.01-.02,0,.13,3.34-.12,6.65-.35,9.98-.5.96-1,1.92-1.48,2.89.82-3.1.68-6.57.1-9.68,0-.02-.04-.02-.03,0,.36,3.46.03,6.7-.29,10.14-.47.97-.93,1.95-1.33,2.94-.25.4-.5.8-.76,1.19-3.52,5.32-7.57,10.22-12.08,14.66-.78.69-1.57,1.36-2.4,2-1.98,1.55-4.37,2.84-5.89,4.88-7.73,4.96-15.27,9.88-23.55,13.95-8.23,4.04-16.67,7.57-24.99,11.4-8.2,3.78-16.34,7.55-24.25,11.91-3.79,2.09-7.41,4.28-10.89,6.86-3.15,2.33-6.96,4.94-9.29,8.17-.11-.04-.23-.04-.35.07Zm127.8-109.23c-.12.33-.23.65-.34.98.18-.78.37-1.55.61-2.3.03,0,.06-.01.08-.02-.04.2-.08.4-.12.6-.04,0-.08.02-.09.07-.04.23-.09.45-.14.68ZM20.18,164.07c-.2-.1-.38-.13-.54-.09,0,0,0,0,.01-.01.25-.05.49-.06.67.02.22.09.33.33.41.6-.14-.22-.31-.4-.55-.52Zm-.57,3.89s0,0,0-.01c.01-.04.03-.08.04-.12.06-.15.12-.29.19-.44-.02.6-.11,1.19-.25,1.78,0-.4.02-.8.03-1.2Zm1.19-4.49c-.04-.1-.17-.16-.27-.14-.07.02-.14.03-.22.05.1-.09.21-.18.31-.27,3.24-2.23,6.08-5.23,9.24-7.58,1.28-.95,2.58-1.89,3.9-2.81,3.96-2.63,8.07-5.01,12.28-7.23,9.85-5.2,20.14-9.5,30.3-14.04,3.04-1.36,6.06-2.74,9.07-4.16-2.16,1.15-4.33,2.29-6.51,3.39-8.61,4.35-17.35,8.42-26.18,12.3-.06.03-.02.12.04.09,8.88-3.76,17.62-7.86,26.22-12.21,5.07-2.57,10.16-5.18,15.16-7.93,2.1-1.11,4.17-2.26,6.22-3.45,3.61-2.02,7.13-4.23,10.34-6.75,5.23-3.85,10.06-8.18,14.39-13,0,0,.01-.01.02-.02,1.84-1.88,3.62-3.8,5.24-5.87.78-1,1.62-2.01,2.4-3.05-6.79,10.38-15.61,19.3-26.07,26.12,0,0,0,.02,0,.02,11.53-7.29,21.3-17.4,28.12-29.23,2.4-3.76,4.25-7.94,5.92-12.1,1.51-3.38,2.82-6.85,3.88-10.39.99-2.92,1.9-5.87,2.78-8.83.04-.07.08-.14.11-.21-.67,3.95-1.63,7.73-2.81,11.57-.02.05.06.08.08.03,1.5-3.67,2.46-7.75,2.88-11.71.16.02.32-.05.38-.24.26-.78.59-1.52.98-2.22.53-.81,1.09-1.61,1.7-2.39.32-.41-.32-.83-.65-.45-.29.33-.56.66-.81,1.01,1.19-4.62.97-10.04.6-14.57-.22-2.7-.62-5.41-1.22-8.08.63,2.15,1.18,4.32,1.54,6.58.45,2.81.76,5.67.92,8.52.16,2.98-.1,6.03.36,8.98.03.19.33.23.38.03,1.35-5.33.2-11.9-.87-17.18-1.04-5.1-2.32-10.74-4.69-15.51.04-.04.08-.09.1-.14.05-.09.09-.18.14-.27.05-.1.02-.22-.03-.32.62.65,1.36,1.22,2.03,1.81.17.15.4,0,.48-.15.31-.61.62-1.23.93-1.84.26.28.65.44,1.09.39.71-.08,1.13-.63,1.44-1.22.31.4.8.63,1.36.59.35-.03.65-.39.91-.42.12-.01.22.02.3.08-.12,1.21.21,2.47.42,3.66.09.51.18,1.01.28,1.52-.43-1.67-.92-3.31-1.44-4.93,0-.02-.03,0-.03,0,1.3,4.65,2.17,9.32,3.09,14.05,0,.03.03.03.05.01.07.4.15.8.22,1.2.43,2.3.85,4.61,1.28,6.91.35,2.01.63,4.05,1.07,6.04-.23-.2-.46-.4-.69-.59-.25-.2-.5-.06-.62.16-.14.04-.26.08-.35.12-.07-.04-.15-.08-.22-.12-.12-.05-.18.1-.13.18.03.05.08.1.12.14-.03.08-.01.17.06.26.11.19.23.35.38.5.31.38.67.73.99,1.09.56.63,1.11,1.27,1.63,1.93,1.21,1.51,2.33,3.09,3.34,4.73,1.96,3.17,3.55,6.57,4.74,10.11.06.17.11.35.16.52,1.63,6.38,2.11,13.03,1.32,19.59-.47,3.9-1.33,7.76-2.64,11.46-1.33,3.74-3.17,7.14-5.16,10.56-.03.05.04.11.08.06,4.42-6.28,6.97-14.26,7.9-21.83.69-5.62.49-11.33-.66-16.85,1.54,6.2,1.77,12.61,1.12,19,0,.04.01.07.04.09-2.95,15.55-12.52,29.21-22.83,40.86-20.45,23.11-47.5,41.11-78.12,46.93-.92.17-1.84.33-2.76.49-7.28,1.02-14.66,1.34-22.02.95-4.32-.23-8.63-.71-12.9-1.42-4.39-.74-8.67-1.86-12.99-2.88,1.3-1.87,1.97-4.12,1.89-6.37.03-.08.07-.16.1-.25.07-.19-.01-.34-.15-.43-.11-1.01-.36-2.02-.8-2.98Zm.04,5.39c.07-.15.13-.3.2-.44-.13,1.25-.49,2.45-1.06,3.55.02-.06.03-.13.05-.19.43-.92.71-1.91.81-2.91Zm-1.45,5.13c2.64.93,5.38,1.67,8.16,2.27-2.8-.58-5.57-1.26-8.31-2.08.05-.06.1-.13.15-.2Z"/>
      <path d="m4.52,153.9s-.05.04-.02.05c.03.01.05-.04.02-.05Z"/>
      <path d="m25.4,137.96c-7.87,3.6-14.83,8.75-20.55,15.25-.07.08.07.17.13.09,5.66-6.45,12.64-11.7,20.42-15.34,0,0,0-.02,0-.01Z"/>
      <path d="m50.67,124.39c-7.57,2.72-14.86,6.52-21.78,10.59,0,0,0,.02,0,.01,7.02-4.1,14.33-7.38,21.8-10.56.03-.01,0-.05-.02-.04Z"/>
      <path d="m47.11,127.52c-10.31,4.18-20.25,9.34-29.56,15.45-.01,0,0,.03.01.02,9.43-5.95,19.27-11.12,29.55-15.45.01,0,0-.03,0-.02Z"/>
      <path d="m100.8,98c-7.64,4.59-15.19,9.19-23.17,13.19-7.95,3.99-16.09,7.56-24.4,10.75-.03.01,0,.06.02.05,8.44-3.06,16.71-6.62,24.72-10.67,7.82-3.95,15.68-8.22,22.87-13.24.04-.03,0-.09-.04-.07Z"/>
      <path d="m88.41,106.51c-9.18,5.79-18.88,10.64-29.27,13.83-.06.02-.04.11.02.09,10.35-3.2,20.37-7.68,29.29-13.87.03-.02,0-.07-.03-.05Z"/>
      <path d="m98.1,102.94c-7.22,3.94-14.22,8.35-21.31,12.52,0,0,0,.01,0,0,7.11-4.13,14.38-8.08,21.35-12.44.05-.03.01-.12-.04-.09Z"/>
      <path d="m123.11,77.95c-3.78,4.51-7.58,8.89-11.9,12.9-4.18,3.87-8.62,7.45-13.29,10.71-.04.03.01.09.05.06,9.52-6.32,18.49-14.33,25.21-23.62.03-.04-.03-.08-.07-.05Z"/>
      <path d="m137.6,50.28c-4.22,7.64-8.36,15.31-12.42,23.04-.01.02.02.05.03.02,4.22-7.64,8.35-15.32,12.4-23.05,0,0,0-.02-.01-.01Z"/>
      <path d="m137.7,52.7c-1.45,2.42-2.95,4.81-4.27,7.31-.03.06.05.12.09.06,1.51-2.38,2.85-4.87,4.23-7.33.02-.03-.03-.07-.05-.04Z"/>
      <path d="m138.58,53.22c.03-.09-.1-.14-.14-.05-.67,1.46-1.33,3.07-1.67,4.65-.01.06.08.09.11.04.75-1.43,1.28-3.08,1.7-4.63Z"/>
      <path d="m139.94,53.12c-.67,1.43-1.38,2.85-1.98,4.31-.02.04.05.08.07.04.73-1.4,1.36-2.87,2.02-4.31.03-.07-.08-.11-.12-.04Z"/>
      <path d="m141.55,50.84c.01-.07-.09-.07-.1,0-.55,3.17-1.66,6.07-3.02,8.97-.03.06.07.1.1.05,1.62-2.76,2.54-5.87,3.03-9.01Z"/>
      <path d="m142.61,52.67c.03-.1-.11-.15-.15-.05-.5,1.36-1.06,2.71-1.47,4.1-.02.07.08.11.11.04.58-1.33,1.02-2.72,1.5-4.08Z"/>
      <path d="m17.05,144.76c-4.35,3.05-8.61,6.44-12.34,10.23-.06.06.02.15.08.1,4.04-3.52,8.05-7.01,12.3-10.29.03-.02,0-.06-.04-.04Z"/>
      <path d="m12.37,150.17c-2.26,1.86-4.49,3.8-6.64,5.78-.06.05.02.14.08.09,2.26-1.87,4.48-3.81,6.63-5.8.04-.04-.01-.11-.06-.07Z"/>
      <path d="m8.89,154.48c-.91.72-1.77,1.49-2.64,2.26-.04.04.01.11.06.07.89-.74,1.78-1.48,2.63-2.27.04-.03-.01-.09-.05-.06Z"/>
      <path d="m138.53,65.62s-.05-.02-.05,0c.48,4.21.36,8.22-.42,12.38,0,.04.06.06.07.02,1.11-3.98,1.28-8.36.4-12.4Z"/>
      <path d="m133.92,81.27c.05-2.21-.05-4.46-.5-6.62,0-.02-.03-.01-.03,0,.16,2.29.35,4.55.25,6.85-.09,2.13-.52,4.21-.69,6.32,0,.08.12.11.14.03.67-2.07.77-4.43.82-6.59Z"/>
      <path d="m131.54,80.24s-.05-.02-.05,0c.18,2.73.11,5.58.56,8.29.02.09.17.09.17,0,.04-2.75-.45-5.55-.68-8.29Z"/>
      <path d="m143.66,61.61c-.15-1.28-.43-2.57-.66-3.84-.02-.12-.2-.09-.18.03.19,1.28.32,2.59.58,3.85.03.17.28.12.26-.05Z"/>
      <path d="m130.2,84.99s-.06-.01-.05.02c.66,2.08.54,4.04.36,6.17,0,.08.12.11.14.03.65-2,.26-4.29-.45-6.21Z"/>
      <path d="m128.76,85.07s-.02,0-.02,0c1.09,2.64,1.02,5.15.73,7.92,0,.05.07.07.09.02.85-2.58.27-5.54-.8-7.95Z"/>
      <path d="m127.08,88.07s-.07-.01-.06.03c.72,2.18.64,4.21.62,6.46,0,.08.12.12.14.03.51-2.12,0-4.51-.7-6.52Z"/>
      <path d="m125.78,89c-.01-.07-.12-.05-.1.02.46,2.82.22,5.44,0,8.25,0,.05.08.07.09.02.7-2.64.49-5.63.02-8.29Z"/>
      <path d="m124.43,91.54s-.05-.02-.04,0c.26,2.19.11,4.27-.01,6.46,0,.06.08.07.09,0,.44-2.11.29-4.36-.03-6.47Z"/>
      <path d="m122.76,94.97s-.06-.02-.05,0c.35,1.26.22,2.38.05,3.64,0,.07.09.09.11.03.41-1.16.24-2.53-.11-3.68Z"/>
      <path d="m121.13,97.4s-.05-.04-.05,0c-.15.94-.39,1.91-.43,2.86,0,.04.05.05.06.01.24-.92.29-1.93.42-2.87Z"/>
      <path d="m118.7,99.54s-.07-.06-.08,0c0,1.4-.39,2.63-.66,3.99-.01.06.08.07.1.02.6-1.18.67-2.71.63-4.01Z"/>
      <path d="m117.09,101.76s-.09-.05-.09,0c.04,1.07-.23,2-.51,3.02-.02.06.07.11.1.05.5-.92.58-2.06.5-3.08Z"/>
      <path d="m115.36,103.75c0-.05-.08-.04-.08.01.12.96-.14,1.75-.38,2.66-.01.05.05.09.09.04.5-.78.51-1.84.37-2.72Z"/>
      <path d="m113.64,106.54c.08-.44.15-.88.23-1.32.01-.09-.13-.12-.15-.03-.18.77-.52,1.69-.48,2.48,0,.08.12.07.15.01.16-.35.2-.76.27-1.14Z"/>
      <path d="m111.52,108.47c.05-.34.11-.68.16-1.03.02-.14-.19-.15-.21-.02-.05.34-.1.68-.15,1.03-.04.3-.12.6-.09.9,0,.06.09.06.11,0,.12-.27.14-.59.18-.89Z"/>
      <path d="m109.47,109.99c.07-.29.12-.57.18-.86.01-.07-.11-.1-.13-.03-.09.32-.18.63-.26.95-.06.25-.16.49-.14.75,0,.06.09.07.12.03.14-.25.17-.56.24-.84Z"/>
      <path d="m108.05,111.15c-.19.34-.42.67-.52,1.06-.01.05.05.12.1.07.27-.28.44-.64.63-.98.08-.14-.13-.29-.21-.15Z"/>
      <path d="m106.68,112.3c.04-.11-.13-.18-.17-.06-.13.35-.32.72-.35,1.09,0,.05.06.08.09.03.22-.3.31-.72.43-1.06Z"/>
      <path d="m11.45,155.43s-.05-.04-.06-.01c-.55,1.71-.95,3.47-1.54,5.17-.59,1.71-1.34,3.34-1.99,5.02-.02.05.05.09.08.04,1.71-3.01,3.06-6.78,3.51-10.22Z"/>
      <path d="m12.87,158.17s0,0,0,0c-.91,2.28-1.95,4.54-2.66,6.89-.02.05.06.08.08.03,1.03-2.22,1.76-4.61,2.59-6.91Z"/>
      <path d="m13.9,158.74s-.04-.05-.05-.02c-.69,1.81-1.45,3.69-1.87,5.58-.02.07.09.09.12.03.79-1.77,1.28-3.73,1.8-5.59Z"/>
      <path d="m15.08,159.78s-.02-.03-.03,0c-.66,1.7-1.38,3.4-1.9,5.15-.01.05.05.07.07.03.73-1.67,1.26-3.44,1.85-5.17Z"/>
      <path d="m16.6,159.52c.05-.13-.16-.21-.21-.08-.61,1.64-1.38,3.29-1.81,4.98-.02.09.09.13.13.05.78-1.56,1.28-3.32,1.88-4.95Z"/>
      <path d="m18.54,158.41c-.69,1.68-1.52,3.35-2.06,5.09-.02.06.06.09.09.03.81-1.63,1.37-3.4,2.04-5.1.02-.04-.05-.07-.07-.02Z"/>
      <path d="m20.27,157.83c.03-.08-.09-.12-.12-.04-.58,1.52-1.24,3.06-1.68,4.63-.02.07.08.11.11.04.67-1.49,1.15-3.08,1.68-4.62Z"/>
      <path d="m22.61,157.07c.04-.15-.18-.23-.22-.08-.35,1.27-1,2.28-1.6,3.43-.04.07.05.17.11.1.87-.9,1.38-2.26,1.71-3.45Z"/>
      <path d="m25.91,154.04c.04-.12-.15-.19-.19-.07-.37.98-.89,2.02-1.08,3.05-.01.08.11.12.15.05.52-.91.78-2.05,1.13-3.04Z"/>
      <path d="m28.79,152.07c.03-.1-.12-.15-.15-.05-.19.72-.49,1.48-.57,2.22,0,.06.07.07.09.02.31-.67.43-1.48.62-2.19Z"/>
      <path d="m31.23,151.24c.06-.28.1-.57.15-.86.01-.06-.08-.08-.1-.02-.08.28-.19.55-.26.84-.06.22-.16.45-.12.67.01.06.08.07.12.03.14-.18.16-.43.21-.65Z"/>
      <path d="m104.52,113.53c-.09.24-.17.47-.26.71,0,0,0,.01.01,0,.09-.24.17-.47.26-.71,0-.01-.01-.02-.02,0Z"/>
      <path d="m102.45,115.36s-.05.04-.02.05c.03.01.05-.04.02-.05Z"/>
      <path d="m100.8,116.58s-.05.04-.02.05c.03.01.05-.04.02-.05Z"/>
      <path d="m97.85,118.21c-.17.09-.35.15-.49.29-.09.09-.02.23.1.22.19-.01.36-.11.54-.19.21-.09.05-.43-.16-.32Z"/>
      <path d="m96.88,118.74c-.52.35-1.05.7-1.55,1.08-.07.05,0,.17.08.13.55-.31,1.08-.64,1.61-.98.16-.1.02-.33-.14-.22Z"/>
      <path d="m92.54,121.03s-.05.04-.02.05c.03.01.05-.04.02-.05Z"/>
      <path d="m88.49,122.78s-.05.04-.02.05c.03.01.05-.04.02-.05Z"/>
      <path d="m83.53,124.77c-.07-.03-.11.08-.04.11.07.03.11-.08.04-.11Z"/>
      <path d="m143.37,50.88c-.74-1.27-2.09-2.26-3.6-1.98-.05,0-.05.09,0,.09,4,.43,4.12,4.44,4.14,7.58,0,.05.08.06.08,0,.24-1.87.36-4.02-.63-5.71Z"/>
      <path d="m143.04,54c0-.07-.11-.1-.13-.03-.32,1.05-.69,2.29-.72,3.4,0,.08.11.11.15.03.42-1.02.58-2.31.7-3.4Z"/>
      <path d="m138.72,61.12c.02-.08-.09-.12-.12-.05-.6,1.31-1.14,2.69-1.49,4.09-.02.09.09.13.13.05.63-1.29,1.11-2.7,1.48-4.09Z"/>
      <path d="m57.51,131.44c-5.75,2.45-11.33,5.29-16.76,8.36-5.24,2.97-10.65,6.05-15.39,9.78-.02.02,0,.06.03.05,5.24-3.26,10.26-6.79,15.64-9.82,5.37-3.03,10.9-5.75,16.5-8.33.02-.01,0-.05-.02-.04Z"/>
      <path d="m56.09,133.75c-4.37,1.18-8.47,3.33-12.18,5.89-.04.03,0,.09.05.06,3.79-2.55,7.86-4.37,12.14-5.92.02,0,0-.04-.01-.03Z"/>
      <path d="m56.96,134.66c-3.45.83-6.73,2.76-9.57,4.83,0,0,0,.01,0,0,3.01-2.1,6.21-3.41,9.58-4.79.03-.01.01-.05-.01-.05Z"/>
      <path d="m57.12,135.97c-2.28,1.01-4.49,2.21-6.72,3.31-.09.04-.02.18.07.14,2.23-1.11,4.52-2.14,6.71-3.35.06-.04.02-.13-.05-.1Z"/>
      <path d="m58.02,136.64c-1.84.74-3.57,1.9-5.31,2.86-.15.08-.04.32.12.24,1.74-.97,3.65-1.83,5.26-3,.06-.04,0-.13-.07-.1Z"/>
      <path d="m82.05,121.06c-7.36,4-14.96,7.34-22.63,10.68-.03.02,0,.06.02.05,7.81-2.87,15.34-6.69,22.6-10.72,0,0,0-.01,0,0Z"/>
      <path d="m83.42,122.1c-6.69,3.17-13.19,6.76-19.75,10.19,0,0,0,.01,0,0,6.6-3.35,13.3-6.55,19.77-10.16.02-.01,0-.05-.02-.04Z"/>
      <path d="m83.28,124.65c-3.68,1.53-7.19,3.67-10.72,5.51-.13.07-.03.27.1.2,3.54-1.84,7.3-3.49,10.67-5.62.06-.04.02-.12-.05-.1Z"/>
      <path d="m133.8,60.55c-2.43,4.84-4.8,9.7-7.64,14.32,0,.01.01.03.02.02,2.89-4.57,5.67-9.29,7.74-14.3.03-.08-.08-.12-.12-.04Z"/>
      <path d="m135.13,63.24c.02-.08-.09-.12-.12-.04-.86,2.11-1.95,3.87-3.43,5.58-.04.05.03.11.08.07,1.62-1.49,2.86-3.49,3.47-5.61Z"/>
      <path d="m8.47,158.84c-.07.01-.14.04-.21.06.07-.13-.02-.29-.18-.27-.29.03-.62.26-.87.45-.11-.17-.19-.36-.26-.55.01,0,.03,0,.04-.01.43-.32,1.01-.73,1.23-1.24.04-.09-.07-.16-.15-.13-.28.11-.48.32-.7.53-.21.21-.42.42-.6.65-.07.08-.01.17.07.2.1.24.2.48.23.73,0,.06.08.1.13.09.18-.04.41-.1.62-.18-.01.13.11.28.27.2.17-.09.35-.16.5-.28.12-.1.02-.29-.12-.26Z"/>
      <path d="m152.01,19.72c-.03-.07-.14-.03-.12.04,2.21,6.92,3.94,13.83,5.35,20.96,0,.03.05.02.04,0-.91-7.09-2.76-14.3-5.28-20.99Z"/>
      <path d="m141.85,35.47c.02-.07-.08-.1-.1-.04-.85,3.46-2.16,7.04-2.55,10.58,0,.09.12.12.15.03,1.25-3.32,1.7-7.12,2.5-10.58Z"/>
      <path d="m142.16,39.41s-.07-.07-.09-.02c-.53,2-1.23,4.07-1.49,6.12,0,.05.07.06.08.02.71-1.94,1.04-4.1,1.49-6.12Z"/>
      <path d="m142.97,40.28c.02-.15-.2-.17-.23-.02-.28,1.64-.62,3.29-.82,4.94-.02.14.18.15.21.02.35-1.63.57-3.3.84-4.94Z"/>
      <path d="m143.99,43.78c.06-.48.13-.96.19-1.45.02-.16-.22-.18-.24-.02-.07.48-.14.96-.2,1.44-.06.42-.17.84-.12,1.26,0,.08.13.08.15.01.16-.39.17-.84.22-1.25Z"/>
      <path d="m132.38,4.06s-.08-.05-.08,0c-.06,2.7.31,5.7.81,8.36.02.1.2.1.19,0-.06-2.71-.3-5.72-.92-8.35Z"/>
      <path d="m133.93,7.01s-.05.04-.02.05c.03.01.05-.04.02-.05Z"/>
      <path d="m137.34,15.07c-.49-3.43-1.35-6.85-2.1-10.24-.03-.12-.22-.09-.2.04.66,3.4,1.23,6.88,2.15,10.23.03.1.17.07.15-.03Z"/>
      <path d="m138.91,16.85c-.55-4.08-1.83-8.23-2.94-12.19-.05-.18-.32-.13-.28.05.85,4.03,1.63,8.32,3.04,12.2.04.11.2.05.19-.06Z"/>
      <path d="m35.4,135.35c-5.06,1.75-9.6,4.53-13.78,7.83-.01.01,0,.03.02.02,4.17-3.29,8.9-5.76,13.81-7.77.06-.02.02-.11-.04-.09Z"/>
    </g>
  </g>
</svg>