<?xml version="1.0" encoding="UTF-8"?>
<svg id="Layer_2" data-name="Layer 2" xmlns="http://www.w3.org/2000/svg" viewBox="0 0 35.31 70.46">
  <g id="objects">
    <g>
      <path d="m20.11,48.23s-.1.38-.03.5c1.05,1.71,3.62,3.44,3.27,5.71-.01.08.02.59.06.38.52-2.85-1.96-4.43-3.3-6.59Z"/>
      <path d="m35.2,30.82c.01-.1.02-.22.02-.3.23-3.76,0-7.57-.61-11.28-.02-.13-.05-.26-.07-.39.01-.08.03-.19,0-.24-.02-.04-.05-.09-.07-.13-.81-4.49-2.3-9.6-6.58-11.82,0-.01,0-.02,0-.02,0,0-.01,0-.02,0-.1-.05-.2-.1-.31-.15,0,0-.02.11-.04.24-.02,0-.04.01-.05.01,0-.07-.01-.15-.02-.13-.01.05-.02.09-.03.14-4.2,1.02-7.77,3.58-10.9,6.5-1.58,1.47-3.06,3.05-4.51,4.64-.07.04-.14.07-.21.12-.01,0-.02.08-.02.13-1.74,1.9-3.5,3.8-4.99,5.9-.58.81-1.09,1.65-1.55,2.52-.22.28-.44.56-.62.88-.04.08.02.32.01.34,0,0,0,0,0,0-.26.54-.49,1.1-.71,1.65-1.44,3.07-2.48,6.43-3.02,9.86-.15.76-.29,1.53-.42,2.28-.29,1.58-.51,3.19-.45,4.8.08,2.05.78,3.98,1.51,5.9,0,.02-.02.03-.03.05-.04.08.02.33.01.34.03-.05.06-.1.1-.15.28.95.61,1.87,1,2.78.05.17.11.35.15.52,0,.02.07.04.11.05.35.77.74,1.53,1.18,2.26.19.53.37,1.06.53,1.6.9,3.05,1.27,6.22,1.13,9.39-.05.1-.11.21-.16.31-.05.09.02.4.01.41.04-.06.08-.12.12-.19,0,.13-.01.27-.02.4,0,.04.02.45.06.4,7.28-7.74,17.66-11.88,23.56-21.01,3.62-5.6,5.47-12.05,5.92-18.62Zm-.06-.62c-.8-3.14-2.14-6.11-4-8.76-.95-1.35-2.03-2.62-3.22-3.77-.56-.54-1.14-1.06-1.74-1.54-.15-.12-.29-.23-.44-.35.4-1.82.77-3.64,1.12-5.47.77.39,1.59,1.4,2.23,1.99.71.67,1.39,1.35,2.05,2.07,1.23,1.35,2.24,2.81,3.23,4.32.71,3.78,1,7.66.78,11.5Zm-12.46-3.55c.12-.42.24-.83.36-1.25.37-1.27.77-2.55,1.15-3.83-.46,1.76-.95,3.51-1.5,5.24,0-.06-.01-.11-.02-.17Zm-.04.34c-.18.56-.36,1.12-.55,1.67.18-.61.36-1.22.54-1.83,0,.05,0,.11.01.16Zm4.93-19.83c4.11,1.92,5.78,6.53,6.63,10.68,0,.05.02.09.03.14-.91-1.66-2.15-3.16-3.44-4.53-.71-.75-1.45-1.47-2.21-2.16-.4-.36-1.04-1.13-1.63-1.47.16-.87.31-1.74.46-2.61.06-.02.11-.03.16-.05Zm-.26.08c-.19.83-.37,1.66-.54,2.5-.07-.03-.15-.06-.22-.07-.39-.06-.89.24-1.24.37-.59.22-1.18.44-1.77.66-1.11.42-2.22.84-3.33,1.26-.87.33-1.77.63-2.63.98,2.86-2.51,6.04-4.62,9.73-5.7Zm-11.96,7.79c.06-.06.12-.12.19-.18,0,.02,0,.03,0,.02,0-.01,0-.02.01-.04.41-.4.82-.8,1.24-1.18.49-.21,1.03-.35,1.46-.5,1.05-.38,2.09-.77,3.14-1.16,1.05-.39,2.09-.77,3.14-1.17.65-.25,1.46-.76,2.14-.57-.37,1.79-.72,3.59-1.09,5.38-.15-.14-.33-.15-.53,0-.4.04-.86.28-1.24.41-1.94.67-3.85,1.44-5.71,2.3,0-.02-.01-.04-.02-.04-.95-.36-2.17-.41-3.17-.56-.65-.1-1.43-.21-2.14-.1.86-.89,1.73-1.77,2.59-2.62Zm-3.12,3.19c.34-.02.68-.09,1.02-.09.55,0,1.1.07,1.65.16.72.12,1.56.41,2.35.46-1.29.62-2.55,1.27-3.79,1.97-1.63.91-3.22,1.9-4.75,2.95-.83.57-1.67,1.15-2.43,1.82,1.71-2.58,3.79-4.99,5.96-7.27Zm1.13,12.22c-2.05.68-4.02,1.99-5.93,2.98-1.81.95-3.62,1.89-5.41,2.87.27-1.04.56-2.07.86-3.1.24-.82.5-1.63.79-2.43.96-.72,1.84-1.55,2.69-2.39,1.16-1.15,2.4-1.9,3.87-2.59.03-.01,0-.14,0-.14-1.27.59-2.46,1.21-3.48,2.17-.97.92-1.95,1.8-2.97,2.66.06-.16.13-.33.19-.49.16-.39.32-.77.48-1.16.23-.52.48-1.04.75-1.54,0,.01,0,.03,0,.03.31-.59.81-.94,1.37-1.27.62-.37,1.23-.76,1.85-1.13.01,0,0-.07,0-.07-.7.4-1.41.76-2.1,1.18-.12.07-.24.15-.35.23.92-.85,1.97-1.57,3.02-2.27,1.45-.97,2.93-1.88,4.45-2.73,3.2-1.79,6.55-3.3,10.01-4.53.41-.15.82-.29,1.23-.43.4-.13.57-.19.78-.12-.05.26-.11.52-.17.78-1.04,2.48-1.84,5.05-2.6,7.64-1.2.34-2.46,1.28-3.45,1.9-1.22.77-2.4,1.61-3.55,2.49-2.2,1.68-4.54,3.41-6.47,5.41-1.04,1.08-1.74,2.36-2.55,3.6-.73,1.11-1.61,2.07-2.53,3.02-1.52,1.57-3.04,3.16-3.46,5.35-.04-.62-.06-1.24-.06-1.86.25-2.53.99-4.99,1.22-7.54.01-.04.02-.09.03-.13,1.86-.96,3.69-1.96,5.54-2.93,1.95-1.03,4.12-1.92,5.93-3.18.04-.03.01-.29,0-.28Zm-3.5,5.74c2.55-.44,5.11-.84,7.66-1.33-1.67,1.69-3.34,3.38-5.01,5.07.02-.03.05-.05.07-.09.03-.04,0-.32,0-.32-.39.24-.75.25-1.19.3-.71.09-1.36.33-2.03.6-1.39.55-2.81.99-4.22,1.49-.03,0,0,.15,0,.14,1.47-.45,2.93-.94,4.41-1.34.61-.16,1.2-.37,1.83-.44.42-.05.76-.02,1.04-.27-.6.61-1.21,1.22-1.81,1.83-.12.12-.23.24-.35.35,0-.07-.02-.13-.02-.13-1.8.74-3.52,1.73-5.23,2.66-1.37.75-2.97,1.44-4.26,2.39-.01-.14-.03-.28-.04-.42.47-2.48,2.48-4.18,4.14-5.94,1.82-1.94,2.86-4.44,4.78-6.29,2-1.93,4.28-3.69,6.51-5.35,1.1-.83,2.24-1.61,3.41-2.34.93-.57,2.01-1,2.95-1.57-.64,2.21-1.27,4.44-1.98,6.62-.89.88-1.77,1.77-2.65,2.65,0-.07-.02-.12-.03-.12-2.68.29-5.39.89-7.99,1.6-.04,0-.01.21,0,.21ZM1.39,50.46c-.15-.46-.27-.92-.38-1.39-.09-.5-.16-.99-.22-1.5.65-.29,1.27-.71,1.88-1.05.83-.46,1.67-.92,2.5-1.38,1.58-.86,3.19-1.67,4.73-2.61-2.86,2.82-6.11,5.66-8.08,9.16-.15-.41-.3-.82-.43-1.24Zm3.04,8.02c.03-.17.07-.4,0-.51-.13-.2-.26-.41-.38-.62,0,0,0,0,0-.01-.65-1.8-1.44-3.55-2.12-5.34,2.41-3.59,5.66-6.53,8.68-9.6,3.23-3.28,6.47-6.55,9.67-9.85-.08.23-.15.46-.23.68-.01.04-.03.07-.04.11-.46.95-.92,1.91-1.38,2.87-.73,1.28-1.52,2.54-2.09,3.91-.62,1.46-1.2,2.92-1.84,4.35-.3.62-.59,1.25-.88,1.88,0-.02,0-.04,0-.07,0-.02-.03-.21-.04-.19-2.12,4.9-7.34,7.61-9.27,12.63-.02-.08-.05-.16-.08-.24Zm13.42-19.83c-.28.56-.57,1.13-.86,1.69.27-.61.55-1.21.86-1.8,0,.04,0,.07,0,.11Zm-12.04,30.27c.12-3.39-.28-6.78-1.25-10.03,1.81-4.12,5.78-6.74,8.18-10.47.23-.36.43-.74.64-1.12,0,0,0,0,0,0-.12.28-.24.55-.36.83-1.16,2.46-2.2,4.98-2.98,7.61-1.32,4.49-2.05,9.01-4.24,13.18Zm4.03-11.53s0-.08,0-.12c.29-1.02.62-2.03.97-3.02.04.06.08.12.12.18-.33,1.28-.67,2.57-1.08,3.83-.05-.28-.06-.57,0-.86Zm-.07,1.09c-.06.19-.12.38-.19.56-.05.15-.11.29-.17.44,0-.08-.02-.13-.03-.11-.11.36-.23.71-.35,1.07,0,.01,0,.02-.01.04.17-.71.34-1.42.51-2.11.08-.3.16-.6.25-.9-.06.34-.06.67-.01,1Zm1.1-4.4c.18-.49.36-.98.56-1.47-.15.52-.29,1.04-.42,1.56-.04-.03-.09-.06-.13-.09Zm-5.09,15.65c0-.09,0-.17,0-.26.27-.42.52-.85.74-1.3-.03.1-.07.21-.1.31-.04.11.02.42.03.55-.23.23-.46.45-.68.69Zm.76-.77c.65-1.25.98-2.6,1.3-3.97.03-.11.06-.22.09-.32.17-.54.32-1.09.47-1.64.32-1,.69-1.99,1.08-2.99.14-.37.27-.73.4-1.11,0,0,0,0,0,0,.14.52.38,1,.61,1.48.59,1.28.7,2.48.62,3.91-.01.18.05.53.08.15.06-.83.11-1.69,0-2.52.19.22.38.53.32.82-.02.12-.04.29,0,.41,0,.03.03.2.06.08.06-.22.12-.45.18-.67.03-.1.06-.2.08-.3.03-.13.01-.32.2-.22.3.17.46.7.51,1,.02.1.03.1.07.03.05-.1.02-.3.02-.41-.03-.57-.26-1.07-.71-1.43-.02.01-.03.03-.03.05-.09.36-.18.71-.27,1.07-.05-.33-.18-.63-.46-.85,0,0,0,.05,0,.1-.01-.06-.02-.13-.04-.19-.21-.94-.85-1.83-1.14-2.77.43-1.33.76-2.7,1.12-4.05,1.59,2.26,2.57,4.84,2.99,7.58.02.16.06-.23.05-.29-.17-1.43-.52-2.83-1.05-4.18-.04-.1-.09-.19-.13-.29,1.08.92,1.86,2.09,2.25,3.47.02.06.07-.33.04-.43-.41-1.48-1.27-2.78-2.52-3.67,0,0,0,.04,0,.09-.21-.46-.44-.91-.7-1.35-.23-.4-.47-.93-.83-1.26.29-1.11.61-2.22,1.01-3.3.25-.67.51-1.32.79-1.98.27-.58.54-1.16.82-1.74,0,.06,0,.13,0,.19.06,1.03.22,2.05.44,3.05.29,1.34.69,2.66,1.07,3.97.08.27.16.55.25.83,0,.04,0,.08,0,.1.01.02.03.05.04.07.53,1.76,1.05,3.73.29,5.37-.06.14.02.46.02.56-3.26,2.35-6.51,4.71-9.36,7.56Zm23.24-21.06c.09-4.14.11-8.27.27-12.41.79,2.72,1.06,5.56,1.39,8.39.02.15.05-.18.05-.22-.19-3.44-.64-7.07-1.92-10.29-1.32-3.32-3.43-6.31-5.62-9.11,0,0-.06.24-.02.3,1.89,2.75,3.9,5.44,5.26,8.52.32.74.59,1.49.82,2.24-.19,4.2-.36,8.42-.29,12.62,0,.04,0,.07,0,.09-.41.67-.85,1.34-1.31,1.98-2.88,4.02-6.68,7.14-10.64,10.03-.62.45-1.23.9-1.85,1.34.81-1.69.47-3.6,0-5.35.69,1.18,1.4,2.36,2.04,3.57-.02-.04.09-.36.03-.49-.68-1.26-1.4-2.53-2.24-3.7-.76-2.74-1.74-5.45-1.9-8.3.13-.26.26-.53.39-.79.45-.75.84-1.54,1.2-2.35.82-1.59,1.65-3.18,2.46-4.78.5,6.39,2.73,12.72,1.11,19.11-.03.1.02.52.04.46,1.8-6.49-.4-13.21-1.06-19.74.67-1.35,1.32-2.7,1.92-4.08.25-.48.48-.98.66-1.51.05-.13.09-.27.13-.4.73-1.82,1.38-3.67,1.98-5.54.34,3.74,1.11,7.42,1.8,11.11.88,4.73,1.44,9.37,1.14,14.19,0,.02.01.21.03.11.62-4.12,0-8.46-.71-12.52-.75-4.36-1.72-8.69-2.19-13.09.58-1.84,1.1-3.7,1.58-5.57.46-1.82.9-3.65,1.31-5.49.08.05.17.12.28.21.69.55,1.35,1.13,1.98,1.74,1.15,1.12,2.19,2.34,3.12,3.64.03.04.05.08.08.11-.08.42-.11.82-.1,1.26,0,.08.02.04.02-.02.06-.28.13-.55.19-.83.02.14.04.27.06.41.07.26.09.55.14.82.1.54.21,1.08.33,1.61.27,1.21.55,2.43.82,3.64.54,2.42,1.02,4.86,1.66,7.26.02.06.06-.31.04-.39-.88-4.5-2.27-8.93-2.96-13.46,1.75,2.57,3.05,5.42,3.82,8.43-.11,1.6-.31,3.2-.6,4.78-.82,4.39-2.41,8.66-4.73,12.48,0-.02,0-.03,0-.05Z"/>
      <path d="m6.78,47.41c-1.58,1.28-2.91,2.98-3.82,4.79-.02.03,0,.12,0,.13,1.09-1.8,2.32-3.36,3.82-4.84.01-.01,0-.08,0-.08Z"/>
      <path d="m6.55,48.49c-1.46,1.55-2.72,3.35-3.45,5.36,0,.03,0,.1,0,.11.95-1.93,1.97-3.69,3.45-5.26.04-.04-.01-.21,0-.21Z"/>
      <path d="m6.8,49.3c-1.36,1.76-2.49,3.73-3.17,5.86-.01.04.01.13,0,.14.83-2.08,1.8-4.01,3.16-5.8.03-.04-.01-.19,0-.19Z"/>
      <path d="m6.57,52.16c-.82,1.44-1.71,2.92-2.4,4.43-.01.03,0,.14,0,.14,1-1.25,1.74-2.95,2.4-4.4.02-.04-.01-.16,0-.17Z"/>
      <path d="m7.04,56.58c-.78.82-1.27,1.94-1.48,3.04,0,.03,0,.15.01.13.32-1.13.79-2.06,1.47-3.02.02-.03,0-.15,0-.15Z"/>
      <path d="m6.78,59.39c-.42.41-.84.87-1.1,1.41-.01.02,0,.15,0,.15.4-.39.7-.87,1.1-1.26.05-.05-.01-.3,0-.3Z"/>
      <path d="m15.64,43.96s0-.17-.01-.14c-.37,1.16-.61,2.34-.76,3.54,0,.01,0,.12.01.07.17-1.17.42-2.33.76-3.47Z"/>
      <path d="m15.48,50.57c-.08-1.48.09-2.88.58-4.27.02-.05,0-.26-.02-.22-.51,1.47-.72,3.01-.58,4.56,0,.09.02-.04.02-.07Z"/>
      <path d="m16.3,53c-.1-1.33-.02-2.61.3-3.9.01-.05-.01-.27-.02-.24-.35,1.39-.47,2.81-.3,4.23,0,.06.02-.08.02-.09Z"/>
      <path d="m17.03,55.92c-.23-1.46-.19-2.9.16-4.34.01-.05,0-.23-.02-.21-.39,1.56-.46,3.16-.18,4.75.02.12.04-.16.03-.2Z"/>
      <path d="m17.45,57.48c.07-.78.09-1.56.12-2.34,0-.09-.03-.26-.04-.07-.04.79-.1,1.57-.11,2.36,0,.04.02.14.03.05Z"/>
      <path d="m26.98,44.67c-.08-.94-.2-1.87-.3-2.8-.06-.55-.12-1.1-.16-1.65-.02-.28-.25-1.81.27-1.06,0,0,.02-.07,0-.09-.12-.17-.23-.34-.35-.52,0,0-.01.05-.01.06-.07,3.48.92,6.88.41,10.36,0,.01,0,.09,0,.05.27-1.44.25-2.89.12-4.35Z"/>
      <path d="m28.03,48.12c.06-1.56-.02-3.12-.23-4.67,0-.03-.01.04,0,.05.2,1.53.26,3.05.21,4.59,0,.07.02.14.03.03Z"/>
      <path d="m28.89,45.94c.04-1.5-.04-3-.19-4.49-.01-.13-.03.06-.03.1.15,1.46.19,2.92.19,4.39,0,.09.02.1.03,0Z"/>
      <path d="m31.77,41.2c.03-3.06-.5-6.3-1.82-9.08,0,.02-.03.17-.01.23,1.08,2.91,1.74,5.77,1.79,8.89,0,.16.04.07.04-.04Z"/>
      <path d="m32.56,39.35c.11-2.54-.45-5.11-1.58-7.38,0,.02-.04.16-.01.21,1.05,2.3,1.55,4.62,1.56,7.15,0,.06.02.13.03.02Z"/>
      <path d="m33.09,36.39c-.22-.93-.46-1.86-.7-2.8,0-.03-.04.18-.02.23.23.93.46,1.86.7,2.79,0,.03.04-.17.02-.22Z"/>
      <path d="m33.95,32.68c-.36-1.69-.8-3.37-1.21-5.05,0-.03-.03.16-.02.21.39,1.67.76,3.36,1.22,5.02,0,.03.03-.13.02-.17Z"/>
      <path d="m20.34,48.01c-.35-2.91-.73-5.83-1.22-8.72-.01-.06-.02.09-.02.11.44,2.92.86,5.84,1.21,8.78.01.1.03-.14.03-.18Z"/>
      <path d="m20.89,49.15c-.13-1.72-.27-3.45-.41-5.17-.01-.13-.03.07-.03.11.13,1.73.26,3.47.4,5.2.01.17.04-.09.04-.14Z"/>
      <path d="m21.64,48.86c-.15-1.53-.3-3.05-.45-4.58-.02-.19-.05.1-.04.16.15,1.53.29,3.07.44,4.6.02.21.06-.11.05-.18Z"/>
      <path d="m22.41,50.59c-.06-1.69-.17-3.39-.44-5.05-.01-.06-.02.09-.02.11.19,1.68.35,3.35.41,5.04,0,.24.06.03.05-.09Z"/>
      <path d="m23.23,51.29c-.04-1.43-.19-2.87-.3-4.3-.01-.19-.05.1-.04.16.1,1.4.14,2.83.32,4.22,0,.07.02-.07.02-.08Z"/>
      <path d="m23.89,52.78c-.04-1.52-.09-3.03-.1-4.55,0-.21-.06-.22-.06,0,.01,1.55.03,3.1.11,4.64.01.23.05.02.05-.09Z"/>
      <path d="m24.62,50.11s0,.04,0,.04c0,0,0-.04,0-.04Z"/>
      <path d="m9.91,24.58c-1.96,1.13-3.78,2.52-5.29,4.2-.03.03,0,.19,0,.19,1.59-1.61,3.31-3.02,5.28-4.14.05-.03,0-.24,0-.24Z"/>
      <path d="m10.14,26.81c-2.43,1.29-4.78,2.99-6.6,5.06-.02.03,0,.15,0,.15,1.99-2.04,4.08-3.79,6.6-5.14.02,0,0-.07,0-.07Z"/>
      <path d="m9.25,28.96c-1.83,1.08-3.62,2.22-5.37,3.43-.05.04.01.23,0,.24,1.75-1.21,3.54-2.35,5.37-3.43.05-.03,0-.24,0-.24Z"/>
      <path d="m8.18,30.28c-.86.18-1.76.84-2.48,1.33-.71.49-1.38,1.03-1.98,1.65-.02.02,0,.15,0,.15.7-.63,1.4-1.24,2.2-1.76.72-.47,1.55-.77,2.25-1.24.02-.01,0-.13,0-.12Z"/>
      <path d="m6.53,31.68c-1.35.77-2.5,1.85-3.23,3.23-.02.03,0,.13,0,.13.87-1.27,1.87-2.32,3.22-3.09.06-.03,0-.26,0-.27Z"/>
      <path d="m24.35,31.32c-.26-1.27-.59-2.53-1.02-3.76,0-.02-.02.1-.01.13.39,1.23.74,2.47,1.02,3.72,0,.01.01-.08.01-.1Z"/>
      <path d="m24.86,31.35c-.36-1.14-.77-2.27-1.16-3.4,0-.03-.03.14-.02.19.38,1.12.75,2.25,1.16,3.36,0-.01.02-.11.01-.15Z"/>
      <path d="m25.7,31.65c-.53-1.49-1.1-2.95-1.65-4.43,0,.02-.03.13,0,.18.55,1.45,1.08,2.9,1.66,4.33,0,0,.01-.06,0-.08Z"/>
      <path d="m27.68,33.32c-.93-2.38-2.13-4.64-3.51-6.79,0,.01-.04.16-.01.21,1.36,2.14,2.5,4.37,3.52,6.69,0,0,.02-.08,0-.11Z"/>
      <path d="m27.85,31.83c-.68-1.44-1.45-2.83-2.3-4.18,0,0-.01.05,0,.07.84,1.34,1.6,2.73,2.3,4.15,0,0,0-.03,0-.04Z"/>
      <path d="m26.19,26.24c-.5-.95-1.12-1.87-1.82-2.69,0,0-.03.1,0,.13.65.87,1.25,1.76,1.82,2.68,0,0,.02-.09,0-.12Z"/>
      <path d="m27.76,26.84c-.95-1.63-2.02-3.2-3.14-4.72,0,0-.02.08,0,.1,1.09,1.54,2.11,3.13,3.14,4.72,0,0,.02-.07,0-.09Z"/>
      <path d="m26.96,24.29c-.33-.48-.65-.95-.98-1.43,0,0-.03.1,0,.14.33.47.65.94.98,1.41,0,0,.02-.09,0-.11Z"/>
      <path d="m28.51,25.42c-.84-1.81-1.96-3.46-3.26-4.97,0,0-.04.14,0,.18,1.29,1.51,2.35,3.15,3.27,4.91,0,0,.02-.09,0-.13Z"/>
      <path d="m29.02,24.71c-.93-1.6-2.06-3.09-3.28-4.48,0,0-.04.13,0,.16,1.21,1.39,2.27,2.88,3.28,4.42,0,0,.02-.08,0-.1Z"/>
      <path d="m29.01,23.13c-.74-1.1-1.52-2.18-2.28-3.27,0,0-.04.12,0,.16.76,1.07,1.5,2.14,2.29,3.19,0,0,.02-.06,0-.08Z"/>
      <path d="m29.58,22.36c-.77-1.18-1.59-2.33-2.39-3.49,0,0-.04.13,0,.16.79,1.14,1.57,2.3,2.4,3.42,0,0,.02-.07,0-.09Z"/>
      <path d="m28.01,19.14s0,.04,0,.04c0,0,0-.04,0-.04Z"/>
      <path d="m3.99,36.49c-.81.46-1.45,1.45-1.85,2.27-.01.03,0,.12,0,.13.26-.41.51-.82.82-1.2.32-.4.7-.74,1.03-1.13,0,0,0-.06,0-.06Z"/>
      <path d="m3.69,37.92c-.96.75-1.63,2.06-1.99,3.21-.01.05.02.17.01.18.53-1.23,1.2-2.19,1.98-3.26.02-.02,0-.12,0-.13Z"/>
      <path d="m3.57,38.94c-.63,1.04-1.18,2.14-1.56,3.29-.01.04.01.15,0,.16.5-1.13.98-2.26,1.56-3.35.01-.03,0-.1,0-.11Z"/>
      <path d="m23.36,36.56c-.25-1.59-.48-3.18-.76-4.77,0-.04-.02.06-.01.08.23,1.58.51,3.15.77,4.73,0,.02,0-.03,0-.04Z"/>
      <path d="m29.68,30.18s-.08.41,0,.43c.02,0,.08-.41,0-.43Z"/>
      <path d="m29.72,32.89c-.46-.93-.93-1.85-1.33-2.81-.34-.82-.62-1.66-1.16-2.38,0,0-.02.06,0,.07.54.75.82,1.61,1.16,2.45.39.96.82,1.91,1.33,2.81,0,0,.03-.11,0-.15Z"/>
      <path d="m29.74,31.67c-.4-1.36-.87-2.71-1.45-4,0,.01-.02.1,0,.14.51,1.3,1.01,2.59,1.45,3.91,0,0,0-.04,0-.05Z"/>
      <path d="m30.14,31.62c-.12-.63-.32-1.24-.49-1.86,0-.03-.03.14-.02.18.16.6.28,1.23.5,1.81,0,0,.02-.1.01-.13Z"/>
      <path d="m30.53,31.4c-.11-.51-.23-1.02-.35-1.54,0-.02-.02.09-.01.12.12.5.23,1,.35,1.5,0,.01.01-.06,0-.08Z"/>
      <path d="m22.96,31.66c-.05-.77-.19-1.52-.39-2.26,0-.01-.01.07,0,.09.19.74.3,1.48.38,2.24,0,.07.02-.04.02-.06Z"/>
      <path d="m27.21,11.07s-.05-.02-.05-.02c.48.46.94.93,1.39,1.42.01.01.06.02.06.03-.44-.5-.91-.98-1.41-1.43Z"/>
      <path d="m27.09,11.48s-.09-.03-.1-.04c.47.47.93.95,1.36,1.46.01.02.07.02.07.03-.39-.53-.83-1.02-1.33-1.45Z"/>
      <path d="m27.08,12.27s-.08-.03-.05-.01c.39.26.68.59.96.96.01.02.07.03.07.03-.23-.4-.6-.72-.99-.97Z"/>
      <path d="m27.07,12.79s-.07-.03-.06-.02c.44.33.8.72,1.14,1.14.01.01.06.02.06.03-.3-.46-.7-.83-1.14-1.15Z"/>
      <path d="m29.22,17.87s-.02,0-.02,0c2.36,2.21,3.9,4.76,5.26,7.66,0,.01.05.02.05.02-.96-2.94-3.03-5.61-5.29-7.67Z"/>
      <path d="m32.58,21.06s0,0,0,0c.71,1.14,1.3,2.34,1.97,3.5.01.02.1.04.1.04-.54-1.25-1.33-2.41-2.07-3.54Z"/>
      <path d="m32.64,20.43s-.06-.02-.06-.02c.65.89,1.1,1.85,1.64,2.81.01.02.1.04.1.04-.34-1.01-1.04-1.97-1.68-2.82Z"/>
      <path d="m33.63,21.18c-.26-.42-.53-.84-.81-1.25-.03-.04-.15-.05-.16-.06.27.41.54.82.79,1.24.26.42.48.89.78,1.29.01.02.12.05.11.05-.15-.44-.48-.87-.72-1.26Z"/>
      <path d="m33.1,19.22s-.14-.05-.14-.06c.31.61.65,1.23,1.08,1.76.02.02.11.04.11.05-.35-.58-.74-1.13-1.05-1.74Z"/>
      <path d="m32.88,17.95s-.09-.03-.09-.04c.4.78.78,1.56,1.19,2.33.01.02.1.04.1.04-.39-.78-.8-1.56-1.2-2.34Z"/>
      <path d="m33.19,17.57s.02.02.03.02c.02,0-.02-.02-.03-.02Z"/>
      <path d="m30.38,12.36s-.08-.03-.07-.03c.94.79,1.68,1.71,2.47,2.64.02.03.12.05.13.05-.62-1.03-1.6-1.91-2.52-2.67Z"/>
      <path d="m31.25,12.52s-.03,0-.03-.01c.21.26.43.51.64.77,0,0,.02,0,.02,0-.21-.25-.43-.51-.64-.76Z"/>
      <path d="m30.85,11.09s.02.02.03.02c.02,0-.02-.02-.03-.02Z"/>
      <path d="m22.37,51.07c-.28-.35-.56-.68-.85-1.01-.32-.61-.89-1.15-1.29-1.69-.48-.64-.83-1.3-1.17-2.01-.39-2.55-.87-5.09-.99-7.65,0-.07-.33-.16-.34-.15-.41,3.46,1.01,7,1.36,10.42.37,3.54.31,7.11-.58,10.57-.02.07.39.21.4.18.84-3.48.88-7.06.51-10.61-.04-.39-.09-.79-.14-1.18.52.95,1.5,1.76,2.15,2.52,1.27,1.46,1.82,3.09,1.81,5.02,0,.08.39.2.39.18.38-1.69-.22-3.27-1.27-4.59Z"/>
      <path d="m26.33,46.28c-.26-1.68-.56-3.37-1.09-4.99,0,0-.02-.02-.03-.02-.03-.34-.07-.68-.11-1.01-.27-2.15-.93-4.22-1.31-6.35-.43-2.38-.54-4.79-.88-7.19,0-.05-.19-.08-.19-.09.03,2.29.31,4.61.61,6.88.29,2.19.97,4.3,1.24,6.5.27,2.2.45,4.42.67,6.63.24,2.36.63,4.77-.05,7.09-.02.06.35.19.35.16.66-2.24.28-4.6.1-6.88-.1-1.28-.18-2.56-.27-3.84.23,1.16.47,2.33.64,3.51.24,1.66.38,3.34.94,4.93.04.1.4.16.4.16-.64-1.77-.75-3.65-1.04-5.5Z"/>
      <path d="m14.29,38.17c-.45.27-.83.65-1.24.98-.36.29-.73.57-1.06.9,0,0,.12.08.15.07.46-.22.87-.5,1.27-.8.4-.31.85-.62,1.14-1.03.01-.02-.21-.14-.25-.12Z"/>
      <path d="m15.1,48.19s-.02.03-.02.04c-.14,1.22-.23,2.46-.16,3.69,0,0,.05-.06.05-.08.02-1.22.03-2.43.14-3.65Z"/>
      <path d="m16.07,48.3s-.04.05-.05.07c-.42,1.78-.61,3.65-.39,5.47,0,0,.03-.03.03-.04-.05-1.87.04-3.66.41-5.49Z"/>
      <path d="m16.24,53.97s-.05.05-.04.07c0,.2.01.4.02.61,0,0,.04-.04.04-.06,0-.21,0-.41-.01-.62Z"/>
      <path d="m16.63,55.12s-.1.11-.09.16c.04.22.09.44.13.65.04.18.05.37.13.54,0,0,.06-.08.06-.1-.02-.42-.15-.85-.23-1.25Z"/>
      <path d="m17.37,54.95s-.05.06-.05.09c-.04.66-.04,1.33.08,1.98,0,0,.02-.03.02-.04-.06-.68-.1-1.35-.05-2.03Z"/>
      <path d="m17.97,56.21s-.09.11-.1.17c-.08.76-.15,1.62.02,2.37,0,0,.09-.11.09-.14-.03-.81-.09-1.58,0-2.39Z"/>
      <path d="m18.33,58.19s.02-.04.02-.04c0,0-.02.04-.02.04Z"/>
      <path d="m20.02,51.92s-.02.02-.02.03c.34,2.14.23,4.19-.11,6.32,0,.02.06-.07.07-.1.5-2.06.47-4.18.07-6.25Z"/>
      <path d="m20.75,55s-.12.13-.12.2c.07.92.03,1.83-.02,2.75,0-.02.11-.13.11-.19.12-.91.1-1.84.02-2.76Z"/>
      <path d="m21.2,55.19s-.11.12-.1.17c.14.69.17,1.37.17,2.08,0-.01.09-.11.09-.16.05-.7-.03-1.4-.17-2.08Z"/>
      <path d="m21.48,53.29s-.09.09-.08.13c.26,1.2.28,2.37.4,3.59,0,0,.05-.06.05-.08.11-1.21-.1-2.46-.36-3.64Z"/>
      <path d="m22.04,53.29s-.11.12-.1.17c.1.96.15,1.94.27,2.9,0,0,.08-.09.08-.13-.02-.98-.15-1.97-.25-2.94Z"/>
      <path d="m22.56,53.91s-.12.12-.1.17c.12.6.11,1.21.2,1.82,0,0,.05-.07.05-.09.07-.63-.03-1.29-.15-1.9Z"/>
      <path d="m24.45,49.98s-.02.02-.02.04c.07,1.32-.04,2.61-.11,3.93,0,0,.05-.06.05-.08.19-1.28.16-2.6.08-3.88Z"/>
      <path d="m25.05,51.27s.02-.04.02-.04c0,0-.02.04-.02.04Z"/>
      <path d="m27.43,47.76s-.05.05-.05.08c.06.92-.03,1.85.03,2.77,0,0,.04-.05.04-.07.12-.91.05-1.86-.03-2.78Z"/>
      <path d="m27.96,48.99s-.1.12-.11.18c-.03.22-.05.45-.05.68,0,.17-.03.39.05.55,0,0,.05-.08.05-.09.04-.43,0-.87.06-1.3Z"/>
      <path d="m28.52,45.62s-.08.09-.08.13c.08,1.21.06,2.4.06,3.61,0,0,.02-.03.02-.04.11-1.23.07-2.47,0-3.7Z"/>
      <path d="m29.19,45.91s-.07.08-.07.12c.02.81-.02,1.66.08,2.46,0,0,.03-.04.03-.06.04-.84-.02-1.69-.04-2.53Z"/>
      <path d="m30.56,41.46s-.04.05-.04.07c.07,1.52,0,3.04.08,4.56,0,0,.05-.06.05-.09.11-1.5,0-3.04-.09-4.55Z"/>
      <path d="m31.24,42.24s.02-.04.02-.04c0,0-.02.04-.02.04Z"/>
      <path d="m14.28,16.95s-.07.15-.08.16c1.13-.56,2.27-1.1,3.38-1.7.02-.01.04-.09.05-.1-1.13.51-2.24,1.08-3.35,1.63Z"/>
      <path d="m14.85,15.82s-.03.07-.04.07c1.45-.69,2.92-1.32,4.4-1.94.02,0,.03-.07.03-.07-1.49.57-2.96,1.24-4.4,1.93Z"/>
      <path d="m16.38,14.41s-.06.12-.06.12c1.38-.39,2.76-.79,4.12-1.25.02,0,.05-.1.05-.1-1.38.36-2.75.79-4.1,1.22Z"/>
      <path d="m18.82,12.2s-.04.1-.05.1c1.43-.82,2.9-1.46,4.47-1.99.03-.01.06-.12.06-.12-1.58.42-3.1,1.13-4.48,2Z"/>
      <path d="m21.72,10.08c-.05.03-.08.18-.09.19.91-.62,1.88-1.09,2.88-1.53.03-.02.06-.14.07-.14-1.02.35-1.97.88-2.86,1.48Z"/>
      <path d="m7.79,23.91s-.01.03-.01.03c1.25-.84,2.48-1.73,3.67-2.67.02-.02.04-.08.04-.09-1.23.9-2.46,1.82-3.7,2.73Z"/>
      <path d="m8.76,22.14s-.04.1-.05.1c1.75-1.2,3.5-2.38,5.28-3.53.04-.02.06-.14.07-.15-1.83,1.07-3.62,2.28-5.3,3.58Z"/>
      <path d="m13.48,17.81s-.06.13-.07.14c.61-.3,1.23-.59,1.84-.89.03-.01.05-.11.05-.11-.61.29-1.22.58-1.83.86Z"/>
      <path d="m12.77,47.68c-1.74,1.59-3.45,3.22-5.17,4.84-.68.64-1.58,1.3-1.58,2.32,0-.01.07-.08.07-.12.06-.99,1.08-1.7,1.74-2.31.56-.53,1.12-1.05,1.68-1.58,1.07-1.01,2.15-2.02,3.22-3.04.02-.02.05-.11.04-.1Z"/>
      <path d="m4.35,46.83c-1.06,1.02-1.92,2.22-2.59,3.53-.04.08,0,.05.03,0,.67-1.27,1.51-2.38,2.51-3.41.02-.02.06-.13.05-.11Z"/>
      <path d="m3.87,46.23c-.97.85-1.78,1.87-2.42,2.98-.03.05-.06.14,0,.05.66-1.07,1.45-2.02,2.36-2.89.03-.02.08-.16.06-.14Z"/>
      <path d="m2.9,45.98c-.71.7-1.36,1.48-1.94,2.29-.02.03-.13.26-.06.17.61-.8,1.26-1.57,1.94-2.31.02-.03.09-.17.07-.16Z"/>
      <path d="m18.55,59.45c-1.45-1.98-2.4-4.14-3.17-6.47-.35-1.08-.72-2.16-1-3.26-.29-1.13-.31-2.21-.44-3.35,0,0-.04.05-.04.07-.51,2.4.5,4.94,1.25,7.19.2.59.4,1.19.63,1.79.23,2.19.28,4.33-.07,6.52-.01.07.24-.28.26-.39.28-1.74.37-3.54.15-5.3.55,1.32,1.24,2.58,2.2,3.64,0,0,.3-.36.24-.44Z"/>
      <path d="m12.34,51s-.03.03-.03.05c-.26,1.79-.15,3.6.53,5.29,0,0,.04-.05.04-.07-.52-1.73-.76-3.47-.54-5.28Z"/>
      <path d="m13.4,52.82s-.11.12-.11.18c0,1.84.22,3.67.85,5.41,0,0,.04-.05.04-.06-.48-1.82-.79-3.64-.78-5.52Z"/>
      <path d="m14.68,56.22s-.12.12-.1.17c.15.74.21,1.59.48,2.29,0,0,.07-.09.07-.11-.06-.78-.29-1.58-.44-2.35Z"/>
      <path d="m27.61,8.1s-.05.07-.04.08c1.57,1.3,2.68,2.98,3.35,4.9,0,0,.04-.04.03-.06-.54-1.99-1.72-3.67-3.35-4.92Z"/>
      <path d="m30.4,10.65s-.04.05-.03.06l.74,1.21s.04-.04.03-.05c-.24-.41-.49-.81-.73-1.22Z"/>
      <path d="m7.52,57.22c-.59,1.13-1.11,2.29-1.48,3.51-.02.06.05-.06.06-.08.42-1.17.88-2.31,1.45-3.41.06-.11.03-.13-.03-.02Z"/>
      <path d="m7.86,59.2c-.73,1.29-1.34,2.77-1.45,4.27,0,0,.05-.06.05-.08.31-1.48.68-2.84,1.43-4.17.07-.12.04-.15-.03-.02Z"/>
      <path d="m7.66,61.59c.03-.09-.09.1-.1.13-.47,1.34-.89,2.91-.76,4.34,0,0,.05-.06.05-.09.16-1.52.31-2.94.81-4.39Z"/>
      <path d="m35.15,30.12c.21-5.1.07-10.43-1.67-15.28-.84-2.34-2.06-4.57-3.71-6.44-.41-.46-.85-.9-1.31-1.31-.08-.07-.19-.15-.29-.22.29-2.27.49-4.56.65-6.85,0-.01,0-.02-.02,0-.33.09-.63.13-.95.16,0,0,0-.02,0-.03,0,0-.01.02-.02.03-.09,0-.19.02-.28.02-.05,0-.13.22-.12.22.05.01.13.01.22.01-.03.05-.06.1-.06.15-.18,2.09-.42,4.18-.7,6.26-.63.36-1.23.77-1.85,1.14-.86.51-1.73.98-2.58,1.51-.06.04-.12.26-.13.26,1.54-.71,3.13-1.62,4.52-2.64-.28,2-.6,4-.97,5.99-1.13.41-2.25.82-3.42,1.14-.05.01-.09.19-.09.19,1.18-.33,2.35-.7,3.48-1.17-.6,3.21-1.31,6.4-2.12,9.57-2.63,1.53-5.21,3.17-7.82,4.74-.01,0-.02.05-.03.05,2.61-1.59,5.25-3.13,7.84-4.76-.04.16-.08.33-.12.5-.01.05.17-.21.2-.3.91-3.27,1.66-6.57,2.28-9.9.17-.07.34-.14.51-.22.03-.01.05-.11.05-.11-.18.07-.36.13-.53.2.38-2.02.7-4.05.98-6.09.07-.05.14-.11.21-.16.07.28.27.38.64.69-.03.33-.06.66-.09,1,0-.02.13-.15.14-.22.03-.22.06-.44.09-.66,1.55,1.36,2.82,3.04,3.79,4.86,2.23,4.15,2.89,8.91,3.02,13.55.28,9.82-1.3,20.57-8.79,27.62-2.08,1.96-4.34,3.76-6.58,5.53-1,.79-2.03,1.56-3.08,2.29-.53.36-1.06.72-1.6,1.06-.22.14-.56.44-.82.5-.59.13-.33-.3-.22-.74.03-.11-.22.27-.25.32-1.26,2.88-4.77,3.97-6.73,6.28-.03.03-.44.54-.42.55-.09-.06.05-.66.05-.8.05-.82.04-1.64-.03-2.45-.12-1.43-.41-2.83-.78-4.21-1.58-5.79-4.69-11.17-5.14-17.24,0,0-.04.05-.04.07.1,8.81,6.57,16.41,5.57,25.33,0,.06.13-.11.13-.11,1.32-1.95,3.48-3.02,5.23-4.51.57-.49,1.11-1.02,1.55-1.63.19-.27.37-.55.52-.84.05-.1.19-.27.19-.39-.01.3-.31.81-.39,1.12,0,0-.01.06.02.04,4.45-2.55,8.56-5.95,12.33-9.41,3.19-2.93,5.53-6.56,7.05-10.61,1.62-4.34,2.31-8.99,2.5-13.61ZM27.12,6.71c.07-.54.15-1.09.21-1.63-.02.39-.04.78-.06,1.17,0,.16,0,.28,0,.38-.05.03-.1.06-.16.08Zm.69-.17c-.33-.46-.22-.93-.2-1.44.08-1.56.15-3.12.23-4.68.2,0,.41,0,.47.03.4.2.21.85.18,1.17-.07.75-.13,1.49-.2,2.24-.09.96-.19,1.91-.28,2.87-.08-.06-.15-.13-.19-.19Z"/>
      <path d="m8.9,45.39c-.81.73-1.57,1.54-2.24,2.4-.01.02-.05.1-.03.09.72-.82,1.46-1.61,2.23-2.38.02-.02.06-.12.05-.11Z"/>
      <path d="m10.36,45.67c-1.43,1.29-2.77,2.66-4.05,4.09-.01.01-.04.09-.03.08,1.29-1.44,2.65-2.8,4.06-4.11.01,0,.03-.06.02-.06Z"/>
      <path d="m11.24,46.11c-1.52,1.42-3.02,2.87-4.49,4.34-.02.02-.06.11-.04.1,1.52-1.4,3.01-2.86,4.47-4.31.02-.02.07-.14.05-.13Z"/>
      <path d="m11.5,47.12c-1.56,1.55-3.14,3.05-4.84,4.45-.05.04-.07.17-.09.18,1.72-1.41,3.37-2.91,4.89-4.54.01-.02.05-.1.04-.09Z"/>
      <path d="m9.43,50.49s.02-.04.02-.04c0,0-.02.04-.02.04Z"/>
      <path d="m24.31,32.89s-.05.05-.04.08c.5,2.77.95,5.56,1.56,8.31,0,0,.06-.06.05-.09-.44-2.78-1.03-5.54-1.56-8.3Z"/>
      <path d="m25.95,36.02s-.12.12-.1.18c.49,1.78.85,3.58,1.24,5.38,0,0,.05-.05.04-.07-.25-1.85-.7-3.68-1.19-5.48Z"/>
      <path d="m27.48,38.89s-.1.1-.09.15c.33,1.57.64,3.18,1.12,4.72,0,0,.07-.08.07-.11-.33-1.59-.76-3.16-1.1-4.75Z"/>
      <path d="m27.83,37.91s.02-.04.02-.04c0,0-.02.04-.02.04Z"/>
      <path d="m22.42,32.12s-.09.09-.08.13c.78,3.03,1.59,6.03,2.18,9.11,0,0,.03-.03.03-.05-.5-3.09-1.13-6.22-2.13-9.19Z"/>
      <path d="m23.84,40.06c-.59-2.34-1.34-4.64-2.03-6.94,0,0-.07.07-.06.1.66,2.32,1.26,4.66,2.03,6.95,0,0,.07-.08.06-.11Z"/>
      <path d="m30.41,19.03c-.92-1.21-2.08-2.61-3.39-3.41,0,0-.05.07-.04.08,1.02,1.21,2.28,2.28,3.38,3.44,0,0,.07-.08.06-.1Z"/>
      <path d="m17.41,18.05s-.06.13-.06.13c1.71-.37,3.42-.75,5.12-1.18.03,0,.04-.1.05-.1-1.71.34-3.41.74-5.11,1.15Z"/>
      <path d="m18.71,17.28s-.03.07-.03.07c1.87-.61,3.76-1.16,5.62-1.81.02,0,.04-.08.04-.08-1.89.56-3.75,1.22-5.63,1.82Z"/>
      <path d="m21.64,15.72s-.03.07-.03.07c.49-.18.97-.36,1.46-.53.02,0,.03-.06.03-.06-.48.17-.97.35-1.45.52Z"/>
      <path d="m22.53,15.09s0,.01,0,.01c.44-.19.88-.38,1.32-.56,0,0,0-.01,0-.01-.44.19-.88.37-1.31.56Z"/>
      <path d="m23.3,13.1s.02-.04.02-.04c0,0-.02.04-.02.04Z"/>
      <path d="m23.38,12.27s-.06.14-.07.15c.9-.48,1.81-.95,2.71-1.43.02-.01.04-.09.04-.09-.9.46-1.79.92-2.68,1.38Z"/>
      <path d="m23.92,11.78s.02-.04.02-.04c0,0-.02.04-.02.04Z"/>
      <path d="m13.47,29.54s-.02.05-.02.05c1.69-.76,3.33-1.62,4.99-2.44,1.57-.78,3.19-1.5,4.6-2.56.03-.02.04-.1.05-.1-2.98,2.04-6.45,3.34-9.61,5.05Z"/>
      <path d="m17.81,25.39s-.03.06-.03.06c1.79-1.35,3.66-2.54,5.6-3.66.01,0,.02-.04.02-.04-1.96,1.06-3.81,2.3-5.59,3.64Z"/>
      <path d="m16.65,24.65s-.03.07-.04.08c2.39-1.4,4.81-2.77,7.18-4.21,0,0,.01-.03.01-.03-2.41,1.35-4.77,2.77-7.15,4.16Z"/>
      <path d="m17.38,23.5s-.03.07-.04.08c1.95-1.15,3.92-2.28,5.85-3.47,0,0,0-.02.01-.02-1.96,1.11-3.89,2.27-5.82,3.42Z"/>
      <path d="m22.29,19.7c-.79.24-1.51.61-2.18,1.1-.02.02-.03.07-.04.08.23-.17.46-.31.7-.45h0s0,0,0,0c.46-.27.95-.48,1.47-.64.02,0,.04-.08.04-.08Z"/>
      <path d="m20.75,15.12s.02-.04.02-.04c0,0-.02.04-.02.04Z"/>
    </g>
  </g>
</svg>