<?xml version="1.0" encoding="UTF-8"?>
<svg id="Layer_2" data-name="Layer 2" xmlns="http://www.w3.org/2000/svg" viewBox="0 0 68.72 170.97">
  <g id="objects">
    <g>
      <path d="m60.19,145.63c.83.05,1.4.08,1.97.11.03.07.05.14.08.21-.26.21-.51.43-.79.61-1.58,1.07-3.26,2.04-4.72,3.23-1.7,1.38-3.06,3.03-3.57,5.07-.87,3.46-1.21,6.93-.66,10.42.2,1.28.27,2.59.39,3.89.09.94-.66,1.66-1.59,1.3-1.19-.46-2.09-.3-3.24.23-1.26.58-2.85.29-3.72-1.16-1.66-2.78-3.35-5.54-5.01-8.31-1.38-2.3-4.17-3.53-7.11-3.17-1.02.13-2.07.24-3.08.19-1.39-.08-1.64-.74-.81-1.79.36-.46.7-.93,1.08-1.43-.14-.05-.25-.12-.32-.1-2.73.66-5.44.58-8.1.01-3.11-.66-5.64-2.17-7.77-4.21-2.23-2.13-3.55-4.72-4.68-7.43-2.4-5.76-3.7-11.75-4.1-17.93-.37-5.73-1.02-11.41-2.15-17.03-.95-4.73-1.22-9.55-1.51-14.36-.22-3.67-.4-7.35-.64-11.02-.32-4.86.12-9.71.79-14.57.65-4.69,1.62-9.33,2.77-13.97.64-2.59.94-5.25,1.27-7.88.9-7.2,2.68-14.26,5.67-21.07,1.02-2.32,1.28-4.72,2.08-7.05.36-1.04.64-2.1,1-3.14,1-2.87,1.1-5.74.38-8.61-.17-.7-.4-1.38-.51-2.09-.08-.54-.12-1.11,0-1.65C13.99.91,14.84-.06,17.79,0c1.53.03,2.89.61,4.14,1.37.49.3,1.06.54,1.63.72,2.78.88,5.16,2.22,6.65,4.52,2.83,4.37,4.44,9.07,4,14.28-.06.68-.03,1.37.06,2.05.27,2.12.09,4.24-.21,6.35-.74,5.16-.22,10.17,1.57,15.02,1.26,3.44,2.36,6.92,3.45,10.4.39,1.23,1.02,2.4,1.63,3.57,1.18,2.25,2.29,4.51,3.04,6.92.24.78.58,1.53.84,2.3.53,1.58,1.11,3.14,1.54,4.74.77,2.94,1.76,5.79,3.13,8.54,2.53,5.09,4.97,10.21,7.49,15.31,1.31,2.65,2.77,5.24,4.03,7.91,2.02,4.27,4.09,8.52,5.72,12.94,1.98,5.35,2.75,10.84,1.86,16.54-.17,1.07-.44,2.13-.69,3.19-.79,3.4-2.95,6.03-6.13,8.06-.39.25-.77.5-1.35.88Zm-.8-.56c.16-.06.34-.09.48-.17,2.89-1.67,5.05-3.87,6.21-6.76.85-2.13,1.38-4.32,1.53-6.55.34-5.22-.46-10.27-2.53-15.1-2.42-5.66-5.1-11.22-7.93-16.72-2.97-5.76-5.82-11.56-8.72-17.35-1.36-2.71-2.55-5.47-3.28-8.39-1.29-5.16-3.55-9.88-7.32-13.95-1.43-1.54-2.45-3.32-3.24-5.21-1.03-2.47-1.49-5.06-1.73-7.69-.14-1.53-.27-3.1-1.17-4.4-1.12-1.63-1.66-3.42-2.06-5.26-.76-3.46-.68-6.99-.45-10.52.12-1.73.09-3.45-.18-5.17-.26-1.64-.55-3.28-.57-4.94-.04-3.68-1.21-7.05-3.03-10.22-1.62-2.82-4.29-4.52-7.86-5.1-1.11-.18-1.68.18-1.66,1.17.02.8.11,1.63.38,2.38.63,1.76.86,3.53.43,5.38-.35,1.48-.76,2.95-1.03,4.44-.61,3.42-1.71,6.74-2.98,10.02-2.31,5.95-3.96,12.03-5.4,18.15-.91,3.86-1.47,7.77-2.43,11.63-1.23,4.96-2.15,9.94-2.83,14.95-.64,4.7-.95,9.39-.62,14.08.24,3.41.38,6.83.69,10.24.41,4.57.73,9.16,1.48,13.68,1.02,6.14,1.79,12.3,2.34,18.49.59,6.58,2.43,12.84,5.39,18.81,1.43,2.89,3.6,5.25,6.63,6.94,3.39,1.9,7.09,2.33,11.09,1.58.98-.18,1.52-.63,1.66-1.5.13-.77.28-1.54.44-2.36,2.04.02,3.99-.24,5.83-1.12,1.84-.88,3.39-2.04,4.51-3.65,1.89,1.15,3.84,1.11,5.83.51,1.05-.32,2.08-.76,3.04-1.26.58-.3,1.04-.36,1.52-.04,1.65,1.11,3.66,1.14,5.4,1.39,1.47-1.02,2.87-1.85,4.09-2.87,1.23-1.02,2.27-2.21,3.49-3.42-1.16,2.51-3.29,4.16-5.41,5.87Zm-30.39,11.91c.82.28,1.51.18,2.2.1.77-.09,1.55-.33,2.31-.29,3.23.17,5.92,1.24,7.39,3.89,1.55,2.79,3.32,5.49,4.38,8.49.04.12.1.24.17.36.32.59.87.84,1.61.76.56-.06,1.08-.17,1.47-.62.57-.66,1.3-.71,2.09-.44.24.08.46.18.7.27.39.16.77.17,1.15-.17-.13-.78-.21-1.59-.39-2.38-.93-4.07-1.05-8.18-.32-12.34.19-1.1.69-2.06,1.41-2.99,1.44-1.84,3.43-3.05,5.62-4.03.72-.32,1.41-.66,2.02-1.26-3.47,0-6.81-.1-9.84-1.51-2.68,1.94-5.62,3.1-9.05,2.86-.41-.03-.68.13-.94.42-.79.89-1.85,1.43-3.04,1.8-1.25.38-2.5.64-3.81.66-.36,0-.72.08-1.11.13-.06.24-.13.42-.16.61-.28,1.88-1.18,3.45-2.96,4.62-.36.24-.57.65-.9,1.04ZM27.86,7.7s-.09.04-.13.06c.07.24.12.49.22.72,1.13,2.51,1.65,5.14,1.67,7.88,0,1.4.04,2.82.33,4.18.72,3.44.72,6.91.49,10.41-.16,2.36-.07,4.71.54,6.99.26.99.8,1.92,1.24,2.86.08.17.3.29.63.59-.09-.55-.14-.87-.19-1.18-.65-3.93-1.06-7.86-.38-11.87.21-1.26.41-2.55.37-3.81-.11-3.59-.4-7.14-1.68-10.56-.75-2-1.6-3.93-2.7-5.78-.11-.18-.27-.33-.41-.5Zm7.3,40.95c-.1.02-.2.04-.3.05.45,2.23.89,4.47,2.23,6.45-.64-2.17-1.28-4.34-1.92-6.5Z"/>
      <path d="m16.82,2.03c1.12.1,2.24.26,3.11.92.82.62,1.55,1.34,2.32,2.01.2.17.27.49.74.35.14-.04.46.35.65.57,1.25,1.54,1.91,3.3,2.34,5.16.82,3.57,1.05,7.2,1.08,10.86.02,2.38.16,4.75.24,7.13.03.8.02,1.6.03,2.41h-.25c-.14-1.53-.32-3.06-.41-4.61-.24-4.06-.37-8.14-.68-12.19-.17-2.24-.86-4.4-1.72-6.5-.12-.29-.31-.56-.52-.94.14.88.26,1.63.38,2.38.26,1.66.04,3.32-.34,4.97-.24,1.03-.55,2.05-.74,3.09-.55,2.95-.35,5.87.36,8.74.38,1.55.83,3.08,1.35,4.59.28.83.74,1.61,1.17,2.38,1.96,3.54,3.33,7.27,4.32,11.13.57,2.22.15,4.47-.32,6.71-.43,2.07-.89,4.13-1.21,6.21-.36,2.26.2,4.42.97,6.51.89,2.42,1.96,4.78,2.88,7.2.95,2.51,1.59,5.1,1.89,7.77.47,4.27,1.09,8.52,2.03,12.72.6,2.67,1.11,5.36,1.94,7.96.92,2.89,2.43,5.57,4.23,8.11,1.62,2.28,3.28,4.54,4.71,6.91,2.45,4.03,3.86,8.38,4.16,13.04.24,3.66.12,7.29-.59,10.94-.21,1.1-.29,2.21-.87,3.24-.19.35-.43.68-.72,1.13-.32-.51-.27-.91-.16-1.3,1.3-4.46.74-8.85-.2-13.19-1.12-5.13-2.97-10.05-5.34-14.81-1.54-3.08-2.83-6.27-4.24-9.41-.43-.96-.88-1.91-1.34-2.85-.88-1.81-1.46-3.72-1.8-5.68-.55-3.17-1.06-6.36-1.39-9.56-.48-4.65-1.41-9.18-3.29-13.52-1.26-2.91-2.32-5.9-3.44-8.87-.94-2.5-1.24-5.11-1.34-7.77-.08-2.16.13-4.31.46-6.45.47-3.06-.1-5.98-1.07-8.85-.39-1.17-.82-2.35-1.38-3.46-1.5-2.98-2.03-6.19-2.67-9.37-.15-.77-.22-1.55-.36-2.31-.54-2.85-.43-5.7.18-8.57.63-2.96.49-5.88-.43-8.71-.4-1.23-1.06-2.41-1.81-3.49-.49-.71-1.36-1.21-2.07-1.79-.31-.25-.66-.45-.99-.67.06-.08.11-.17.17-.25Z"/>
      <path d="m5.38,109.47c-.2-1.27-.44-2.54-.6-3.81-.28-2.23-.47-4.47-.78-6.69-.9-6.46-.96-12.98-.87-19.51.12-8.29,1.54-16.49,2.96-24.7.24-1.39.45-2.79.72-4.18.08-.44.29-.86.48-1.39.51.39.47.8.45,1.16-.05.91-.13,1.83-.25,2.74-.82,6.05-1.76,12.1-2.44,18.15-.42,3.77-.46,7.57-.65,11.36-.23,4.48-.29,8.95.02,13.4.18,2.6.45,5.19.69,7.78.15,1.65.32,3.3.47,4.96.02.24-.02.49-.04.73-.05,0-.11,0-.16,0Z"/>
      <path d="m24.57,153.4c-.47-.14-.96-.25-1.41-.43-5.13-2.12-8.33-5.81-10.52-10.31-1.1-2.25-1.89-4.61-2.4-7.03-.95-4.55-1.77-9.13-2.63-13.71-.46-2.46-.92-4.93-1.36-7.39-.09-.49-.12-1-.17-1.49.09-.02.18-.04.28-.06.14.28.3.56.41.85.89,2.33,1.51,4.72,1.95,7.16.6,3.3,1.16,6.6,1.75,9.9.72,4.05,1.85,7.99,3.55,11.77.94,2.11,2.32,4,3.77,5.83,1.03,1.3,2.46,2.25,3.92,3.14.95.58,1.95,1.08,2.93,1.62-.02.05-.04.1-.06.15Z"/>
      <path d="m32.09,88.23c-.3-1.35-.72-2.69-.88-4.06-.58-4.78-2.18-9.3-3.62-13.87-1.47-4.63-2.7-9.32-3.4-14.13-.36-2.52-.24-5.07-.18-7.61.04-1.7.02-3.39-.06-5.08-.04-.81-.28-1.6-.45-2.39-.09-.44-.23-.87-.16-1.38.14.2.3.38.41.59,1.08,1.99,1.28,4.16,1.32,6.35.04,2.12-.12,4.24-.04,6.36.11,3.3.75,6.53,1.5,9.73,1.15,4.91,2.75,9.71,4.14,14.56.6,2.09.84,4.27,1.2,6.41.19,1.12.29,2.26.42,3.39.04.35.06.71.09,1.06-.09.03-.18.05-.27.08Z"/>
      <path d="m21.8,57.55c.19.32.45.62.55.97.41,1.37.89,2.73,1.14,4.14.46,2.61,1.19,5.12,2.2,7.59.63,1.54,1.08,3.14,1.6,4.72,1.34,4.08,1.78,8.33,2.41,12.54.12.83.27,1.67.25,2.54-.18-.61-.37-1.22-.54-1.84-.23-.85-.44-1.7-.66-2.55-.43-1.67-.91-3.33-1.29-5.01-.59-2.58-1.67-5.01-2.59-7.49-.72-1.96-1.55-3.9-2.02-5.92-.5-2.18-.64-4.43-.92-6.66-.12-.98-.2-1.97-.3-2.96.06-.03.12-.05.18-.08Z"/>
      <path d="m38.57,63.32c.74.74,1.25,1.57,1.6,2.47.93,2.41,1.78,4.84,2.7,7.25.87,2.26,1.7,4.53,2.7,6.73,2.2,4.83,4.44,9.65,6.8,14.42,1.7,3.44,3.63,6.79,5.46,10.18,2.15,4,4.2,8.05,5.86,12.24.5,1.26.74,2.61,1.09,3.92-.08.02-.16.04-.24.06-.29-.89-.54-1.79-.88-2.67-.75-1.91-1.46-3.85-2.35-5.71-2.16-4.5-4.74-8.81-7.13-13.2-2.31-4.25-4.33-8.63-6.45-12.96-.74-1.5-1.38-3.05-2.12-4.55-1.71-3.45-2.95-7.06-4.12-10.69-.81-2.51-1.55-5.05-2.97-7.35-.01-.02.02-.06.06-.14Z"/>
      <path d="m20.8,53.53c-.02-.25-.05-.5-.07-.76-.21-2.62-.36-5.25-.65-7.87-.14-1.25-.45-2.5-.82-3.71-.67-2.21-1.34-4.41-1.43-6.75-.08-2.05-.34-4.08-.5-6.12-.03-.34.05-.69.25-1.04.05.17.13.35.15.52.23,1.77.34,3.57.7,5.31.58,2.8,1.12,5.62,2.05,8.32,1.27,3.73,1.51,7.49.74,11.37-.05.24-.13.49-.19.73-.08,0-.15-.01-.23-.02Z"/>
      <path d="m53.68,101.16c.11.16.24.31.33.48,3.52,6.27,6.56,12.73,8.87,19.47,1.31,3.82,1.56,7.76.2,11.75-.1.3-.24.59-.53.85.05-.32.09-.63.15-.95.8-3.95.31-7.8-.7-11.6-1.2-4.49-3.3-8.66-5.23-12.88-.97-2.11-1.99-4.2-2.99-6.3-.11-.23-.18-.48-.27-.72.06-.03.11-.05.17-.08Z"/>
      <path d="m8.16,47.79c-.36-.76-.33-1.47-.32-2.17.06-4.11.95-8.13,2.33-12.07,1.07-3.08,2.32-6.12,3.49-9.18.12-.3.29-.59.43-.89.07.02.15.03.22.05-.07.3-.12.6-.21.9-1.06,3.36-2.11,6.72-3.19,10.07-1.29,4-2.17,8.05-2.36,12.18-.01.29-.07.58-.12.87,0,.05-.1.09-.27.24Z"/>
      <path d="m49.28,115.76c3.31,5.07,4.46,10.59,3.72,16.73-.43-3.02-.66-5.86-1.27-8.62-.61-2.74-1.61-5.41-2.44-8.11Z"/>
      <path d="m41.36,76.03c.09.12.21.23.27.37,1.71,4.11,3.93,8.01,5.94,12,1.09,2.16,1.88,4.45,2.8,6.69.09.21.12.43.08.68-.12-.22-.26-.44-.37-.67-1.62-3.3-3.19-6.61-4.87-9.88-1.38-2.69-2.76-5.38-3.75-8.22-.1-.3-.17-.6-.26-.91.05-.02.1-.04.16-.06Z"/>
      <path d="m57.38,144.31c2.6-2.04,5.02-4.22,6.49-7.03,1.46-2.78,2.29-5.71,2.39-8.76.96,7.22-3.82,13.7-8.88,15.79Z"/>
      <path d="m6.95,96.55c-.89-3.86-1.09-12.14-.37-13.39.57,1.2.9,11.69.37,13.39Z"/>
      <path d="m18.88,21.68c.11.19.2.27.21.35.37,4.57,1.69,8.96,2.63,13.42-2.28-4.29-3.33-8.81-2.84-13.77Z"/>
      <path d="m31.06,45.6s.17.1.18.17c.27,1.14.67,2.26.75,3.41.18,2.68.74,5.26,1.69,7.77.11.3.19.61.09,1.01-.19-.28-.41-.55-.57-.84-1.03-1.89-1.69-3.86-1.72-6.04-.02-1.84-.27-3.66-.42-5.49Z"/>
      <path d="m34.14,69.62c1.67,1.88,3.21,9.1,2.53,11.69-.21-1.09-.37-2.03-.58-2.96-.53-2.25-1.09-4.48-1.62-6.73-.14-.58-.2-1.19-.33-2Z"/>
      <path d="m9.76,47.8c.16,4.41-.56,8.79-1.25,13.17-.28-1.47.71-12.29,1.25-13.17Z"/>
      <path d="m18.69,6.76c2.12,3.42,2.37,5.82,1.27,10.92-.3-.52-.3-.97-.24-1.37.45-2.95,0-5.77-1.01-8.52-.11-.31-.3-.65-.01-1.03Z"/>
      <path d="m11.69,34.33c-.49,3.59-.96,7.05-1.42,10.48-.87-1.11-.02-8.81,1.42-10.48Z"/>
      <path d="m16.58,18.82c.06-.74.1-1.28.16-1.81.19-1.98.42-3.96.56-5.94.05-.71-.11-1.42-.18-2.13-.02-.21-.03-.42-.05-.72,1.25,1.3.95,8.88-.49,10.59Z"/>
      <path d="m36.97,108.38c-1.82-4.05-3.67-8.08-4.73-12.37,1.88,4.02,3.43,8.16,4.73,12.37Z"/>
      <path d="m30.75,57.66c.16.36.31.57.36.79.15.66.27,1.33.4,2,.36,1.88.72,3.76,1.08,5.64.03.16.05.31.09.55-1.23-1.41-2.44-6.95-1.93-8.98Z"/>
      <path d="m61.3,137.48c.16.55-.12.97-.41,1.32-.71.85-1.43,1.7-2.25,2.46-.85.78-1.82,1.46-2.72,2.17-.11-.06-.16-.06-.17-.09-.01-.02,0-.07.02-.09,1.9-1.78,3.76-3.58,5.23-5.67.03-.04.13-.04.32-.1Z"/>
      <path d="m7.49,127.3c-.51-2.56-1.16-5.1-1.15-7.74.87,2.5,1.01,5.12,1.15,7.74Z"/>
      <path d="m7.05,69.6c-.11,2.62-.22,5.25-.32,7.87-.58-2.61-.24-5.22.03-7.84.1-.01.19-.02.29-.03Z"/>
      <path d="m39.93,93.68c-1-1.84-1.3-3.82-1.44-5.83.09-.02.17-.03.26-.05.39,1.96.79,3.92,1.18,5.88Z"/>
      <path d="m24.69,151.5c-1.84-.42-2.7-1.79-3.72-3,.07-.07.13-.14.2-.21.39.32.8.62,1.18.95.41.36.79.75,1.22,1.09.42.34.87.65,1.31.97-.06.07-.12.13-.18.2Z"/>
      <path d="m46.63,109.23c-.98-1.57-1.95-3.14-3.03-4.87,1.05.52,2.21,2.32,3.21,4.75-.06.04-.12.08-.18.12Z"/>
      <path d="m35.99,61.54c1.3,1.37,2.82,4.24,3.21,5.85-1.04-1.9-2.13-3.88-3.21-5.85Z"/>
      <path d="m40.66,142.97c-.21-1.34-.43-2.67-.64-4.01-.03-.17-.03-.35-.04-.65.57.85,1.03,3.36.91,4.6-.08.02-.15.04-.23.06Z"/>
      <path d="m53.65,139.11c.11,1.33-.5,3.06-1.25,3.7-.09-.67.54-2.59,1.25-3.7Z"/>
      <path d="m65.19,125.22c-.03,1.21-.07,2.42-.1,3.63-.49-1.19-.36-2.41-.23-3.62.11,0,.22,0,.33,0Z"/>
      <path d="m46.8,143.53c.3-1.02.6-2.04.9-3.07.21,1.13.06,2.19-.9,3.07Z"/>
      <path d="m25.13,23.99l-.37-4.9c.07,0,.15-.01.22-.02.13,1.63.26,3.26.39,4.89-.08.01-.16.02-.24.03Z"/>
      <path d="m51.7,139.93c-.37,1.03-.64,2.1-1.55,3.12-.04-.26-.1-.37-.06-.44.46-.93.93-1.85,1.4-2.78.07.03.14.06.21.09Z"/>
      <path d="m40.13,71.82c.31.73.78,1.35.78,2.23-.85-.95-1.07-1.55-.78-2.23Z"/>
      <path d="m28.1,152.29c.46-.24.91-.48,1.49-.79-.37.77-.41.79-1.49.79Z"/>
      <path d="m33.59,93.5c-.17-.56-.33-1.12-.5-1.68.06-.02.11-.04.17-.06.09.26.2.51.28.77.09.31.15.62.23.93-.06.01-.12.03-.18.04Z"/>
      <path d="m30.7,55.63c-.04-.26-.08-.53-.15-.94.61.29.5.59.43.89-.09.02-.19.03-.28.05Z"/>
      <path d="m48.74,168.36c-.38-1.07-.79-2.12-1.14-3.2-.7-2.2-1.39-4.41-2.02-6.63-.51-1.78-.93-3.59-1.37-5.39-.29-1.17-.13-2.33.47-3.45.22-.41.41-.84.62-1.25.36.65.39,1.03.29,2.07-.1.94-.12,1.89-.21,2.83-.1.98.16,1.89.64,2.72,1.21,2.09,1.71,4.37,2.21,6.65.31,1.43.54,2.87.77,4.32.07.42,0,.86,0,1.3l-.26.03Z"/>
      <path d="m46.19,166.49c-.24-.56-.47-1.13-.72-1.69-1.12-2.56-2.44-5.01-4.49-7.08-.45-.45-.94-.88-1.43-1.3-1.27-1.09-2.54-2.17-3.82-3.25-.36-.3-.74-.59-1.21-.96.22-.04.36-.09.46-.07,1.17.26,2.29.63,3.26,1.28,3.88,2.58,6.1,6.15,7.47,10.22.24.71.4,1.44.59,2.16.06.22.07.44.11.66-.07.01-.15.02-.22.03Z"/>
      <path d="m54.19,149.5c-1.54,1.28-2.6,2.83-3.02,4.59-.41,1.72-.55,3.47-.86,5.2-.31-2.94-.15-5.82,1.89-8.42.46-.58,1.13-1.04,1.7-1.55.1.06.2.12.3.18Z"/>
      <path d="m33.92,153.34c1.98.6,3.25,1.89,4.29,3.42-1.35-.97-2.71-1.93-4.05-2.92-.14-.1-.16-.34-.24-.51h0Z"/>
      <path d="m35.64,151.53c2.12-.45,3.97-1.41,5.78-2.66-.84,1.52-3.29,2.64-5.78,2.66Z"/>
      <path d="m43.51,149.98c.39.73.12,1.48.16,2.2.04.71.05,1.42.08,2.14-.82-.99-.96-3.3-.24-4.34Z"/>
      <path d="m51.88,168.53c-.8-1.54-.67-3.18-.81-4.79.02.07.06.14.07.22.25,1.52.49,3.05.73,4.57Z"/>
      <path d="m51.23,150.69c-.42.94-.83,1.87-1.21,2.72-.24-.63.12-1.6,1.21-2.72Z"/>
      <path d="m33.92,153.33c-.26.34-.51.68-.77,1.03,0-.5.01-.98.77-1.02,0,0,0,0,0,0Z"/>
      <path d="m58.57,146.92c-.24.12-.49.24-.73.35-.02-.04-.05-.08-.07-.12.24-.12.49-.24.73-.36.02.04.05.08.07.12Z"/>
      <path d="m30.64,16.76c.51,2.17,1.01,4.33.92,6.58-.57-2.16-.99-4.33-.92-6.58Z"/>
    </g>
  </g>
</svg>