<?xml version="1.0" encoding="UTF-8"?>
<svg id="Layer_2" data-name="Layer 2" xmlns="http://www.w3.org/2000/svg" viewBox="0 0 97.87 189.46">
  <g id="objects">
    <g>
      <path d="m33.35,38.05c-.08-.24-.12-.5-.24-.71-2.49-4.05-4.96-8.12-7.48-12.14-2.99-4.76-6.02-9.49-9.04-14.23-.32-.5-.69-.98-1.1-1.57-1.71.62-3.35,1.23-5,1.82-.52.19-1.05.35-1.58.52-.12.04-.31.03-.36.11-.66.98-1.74,1.09-2.81,1.38-.03-.52.16-.83.66-.95.25-.06.51-.09.74-.19.65-.29.74-1.24,1.68-1.3.65-.04,1.28-.44,1.96-.69,0-.86.19-1.51,1.15-1.6.22-.02.42-.29.61-.46,1.04-.9,2.21-1.39,3.58-1.67,1.5-.31,3-.79,4.3-1.68,1.11-.76,1.67-.67,2.53.4.32.4.6.83.8,1.1.6-.35,1.09-.78,1.66-.96,1.68-.53,3.38-1.09,5.11-1.38.92-.16,1.95.15,2.89.38.27.06.47.58.62.92.63,1.52,1.22,3.05,1.84,4.57.19.47.4.93.6,1.4.09-.01.19-.02.28-.03,0-.47,0-.94-.01-1.41-.1-2.07-.25-4.14-.3-6.21-.03-1.2.37-1.51,1.49-1.24,1.03.25,2.02.39,3.05.03.34-.12.75-.01,1.2,0,.09-.63.16-1.22.25-1.87.6-.37,1.29-.58,1.91-.17,1.27.84,2.73.69,4.11.96.36.07.73.14,1.07.31-1.87-.07-3.8.93-5.64-.42-.66,2.2-.87,4.38-.79,6.58.2,5.35.5,10.7.67,16.06.19,6.32,1.16,12.56,1.88,18.83.35,3.09.83,6.16,1.26,9.23.05.38.14.76.37,1.13,0-.52,0-1.04.01-1.56.71,2.06.83,4.26,1.74,6.24-.88-6.75-1.82-13.49-2.61-20.24-.79-6.76-1.73-13.52-1.63-20.35.11-.01.21-.03.32-.04.07.57.16,1.14.22,1.71.82,7.65,1.6,15.29,2.46,22.94.28,2.49.77,4.95,1.11,7.43.46,3.34.92,6.67,1.74,9.95.18.73.15.74,1,1.26-.11-.59-.17-1.03-.27-1.47-1.51-6.5-2.06-13.14-2.79-19.75-.15-1.41-.11-2.84-.16-4.25.08,0,.17-.01.25-.02.25,2.65.45,5.3.75,7.94.31,2.75.67,5.49,1.1,8.22.42,2.68.94,5.33,1.54,7.99.69-.97.94-1.94.69-3.12-.97-4.57-1.7-9.18-1.8-13.86,0-.3,0-.6.03-.91,0-.07.08-.14.21-.37.46,1.18.34,2.34.5,3.44.17,1.15.27,2.32.43,3.47.15,1.11.31,2.22.48,3.33.17,1.14.36,2.28.69,3.41.46-1.63,1.1-3.12.73-4.94-.97-4.79-1.4-9.66-1.58-14.54,0-.2.05-.4.22-.6.62,4.96,1.24,9.91,1.89,15.08.51-.45.62-.89.78-1.29.48-1.2.95-2.41,1.41-3.62.09-.23.17-.49.14-.73-.28-2.44-.72-4.87-.86-7.31-.24-4.09-.33-8.2-.42-12.3-.02-1.03.17-2.06.37-3.09-.07,7.2.59,14.34,1.57,21.47.6-.14.43-.59.4-.94-.18-2.37-.46-4.73-.56-7.11-.14-3.28-.21-6.56-.2-9.85,0-5.75.1-11.49.14-17.24.01-1.42-.02-2.83-.03-4.19-2.2-.41-4.25-.79-6.29-1.17,1.12-.65,2.28-.38,3.42-.4.55-.01,1.11.04,1.67.06,1.59.07,2.32.5,2.34,2.08.05,4.67.18,9.33.18,14,0,5.06-.14,10.11-.1,15.17.02,2.68.3,5.35.48,8.02.01.16.11.31.21.58.55-.87,1.06-1.61,1.52-2.38,2.02-3.41,4.61-6.36,7.31-9.23,1.42-1.51,2.8-3.06,4.14-4.64,3.22-3.79,6.47-7.55,9.58-11.43,2.78-3.47,5.25-7.18,7.26-11.17.08-.15.13-.35.26-.44.15-.11.38-.19.56-.17.1.01.2.24.25.39.04.11,0,.26,0,.38-.34,3.01-.65,6.02-1.05,9.02-.34,2.57-.98,5.08-2.21,7.76.49-.31.73-.41.92-.58,1.96-1.82,3.94-3.64,5.87-5.49,1.19-1.14,2.24-2.39,2.79-3.94.81.02.97.54,1.03,1.05.19,1.67.5,3.35.47,5.02-.12,5.77-1.77,11.12-4.63,16.15-3.63,6.4-7.75,12.48-11.82,18.6-4.69,7.04-8.55,14.51-11.51,22.44-1.84,4.93-2.88,10.05-3.57,15.25-.1.77-.13,1.56-.09,2.33.21,3.98.72,7.91,1.68,11.78,1.06,4.27,2.03,8.57,3.15,12.82,1.32,4.97,1.98,10.01,1.88,15.13-.1,4.71-.39,9.41-.61,14.12-.17,3.54-.35,7.08-.54,10.62-.06,1.04-.18,2.07-.29,3.1-.67,6.71-1.37,13.42-2.02,20.13-.24,2.53-.36,5.08-.55,7.62-.05.6-.17,1.2-.29,1.79-.26,1.29-.78,1.76-2.11,1.85-1.16.08-2.33.09-3.49.11-.78.01-1.56.02-2.33-.03-2.84-.18-5.68-.44-8.43-1.22-1.8-.51-2.98-1.59-3.59-3.51-.54-1.72-.56-3.36-.42-5.1.29-3.53.45-7.07.75-10.6.42-4.87.91-9.73,1.39-14.59.38-3.92.8-7.83,1.17-11.75.36-3.81-.09-7.6-.3-11.39-.42-7.72-1.72-15.28-4.13-22.63-.64-1.97-1.42-3.9-2.3-5.78-1.52-3.25-3.14-6.45-4.77-9.65-.45-.88-1-1.74-1.66-2.46-2.99-3.3-5.94-6.64-9.1-9.78-2.51-2.49-5.3-4.7-7.96-7.05-3.44-3.02-6.88-6.05-10.31-9.08-.42-.37-.82-.79-1.12-1.25-1.26-1.96-2.7-3.81-3.28-6.14-.17-.7-.61-1.33-.92-2-.19-.42-.48-.85.03-1.43.28.24.59.45.82.73.22.26.39.58.51.9,1.3,3.5,4.12,5.58,7.26,7.03,4.5,2.08,9.2,3.74,13.81,5.58.11.04.25.02.49.03-.16-.32-.26-.59-.42-.81-1.24-1.72-2.41-3.49-3.74-5.13-3.67-4.49-6.98-9.25-10.07-14.15-4.2-6.67-8.69-13.12-14.11-18.87-.46-.49-.34-.94-.18-1.42.38-1.19.86-2.35,1.17-3.56.32-1.28.7-2.45,1.85-3.29.82-.6.76-1.65.13-2.51-.25-.34-.48-.72-.66-1.1-.22-.44-.07-.85.27-1.17.43-.41.83-.86,1.32-1.2.33-.23.78-.29,1.18-.42-.46.25-.91.53-.9,1.12,0,.16.19.32.33.55.49-.47.91-.87,1.41-1.35-.29-.18-.48-.29-.67-.41.08-.04.17-.12.23-.11,1.44.39,2.66-.58,4.02-.57.07-.72-.89-.98-.67-1.86.3.22.55.36.74.56.53.57,1.04,1.15,1.53,1.76,2.65,3.35,5.3,6.71,7.94,10.07.4.51.78,1.04,1.12,1.59,3.15,5.11,7.02,9.62,11.36,13.73.87.82,1.73,1.65,2.59,2.48.08-.06.16-.12.24-.18-.46-.67-.91-1.35-1.37-2.02-.49-.71-1-1.41-1.5-2.11-.53-.74-1.07-1.47-1.58-2.21-.49-.71-.98-1.42-1.44-2.15-.47-.73-.91-1.47-1.36-2.21-.44-.72-.88-1.43-1.32-2.15.08-.06.15-.12.23-.17.4.47.83.92,1.2,1.42,1.7,2.29,3.38,4.6,5.08,6.88.22.29.53.51.8.76.6,1.5,1.69,2.65,2.59,3.93.09-.07.19-.14.28-.2-.97-1.23-1.93-2.47-2.9-3.7Zm-.23,5.71c.17.25.34.49.51.74.07-.07.15-.13.22-.2-.25-.17-.51-.35-.76-.52-.15-.62-.52-1.03-1.15-1.2-.11-.22-.18-.47-.33-.65-1.46-1.71-2.94-3.4-4.42-5.09-.97-1.11-2.01-2.15-2.9-3.31-3.23-4.17-6.54-8.27-10.31-11.99-1.44-1.43-2.8-2.94-4.22-4.4-.63-.65-1.3-1.25-2.03-1.95-.52.52-.96.97-1.43,1.44.51.51.94.93,1.37,1.35,1.56,1.56,3.08,3.15,4.67,4.68,1.81,1.74,3.75,3.33,5.48,5.14,4.58,4.77,9.09,9.61,13.63,14.42.14.15.34.23.51.34.17.6.54,1.02,1.15,1.2Zm30.7,143.42l.04.03c-.65-.58-1.38-.81-2.26-.64-.41.08-.87,0-1.28-.08-2.36-.51-4.73-.14-7.09-.11-.44,0-.87.19-1.43.32,2.46,1.78,12.69,2.68,15.11,1.37-.95-.7-2.03-.76-3.08-.9ZM36.33,14.35c.17.57.33,1.14.5,1.71.09-.03.19-.07.28-.1-.16-.58.07-1.32-.81-1.59-.18-.61-.33-1.23-.56-1.82-.96-2.54-1.95-5.07-2.92-7.6-1.9-.22-3.13-.05-5.2.73.11.36.21.72.34,1.08.73,1.99,1.47,3.97,2.18,5.96.16.44.52.9.04,1.61-1.57-2.75-2.28-5.66-3.1-8.58-.45.13-.76.22-1.14.33.21.59.37,1.13.59,1.64.98,2.35,1.96,4.7,2.99,7.03.26.58.71,1.07,1.07,1.61.85-.3.79.48,1.01.88.73,1.32,1.41,2.66,2.14,3.98.14.24.41.41.61.62-1.6-4.53-3.44-8.88-4.71-13.44.52.99.92,2.02,1.32,3.05.41,1.04.83,2.09,1.25,3.13.42,1.04.86,2.07,1.29,3.11.44,1.08.88,2.16,1.32,3.24.42,1.04.82,2.09,1.28,3.12.45,1,.66,2.12,1.62,3.12-.04-1.85-.04-3.48-.12-5.11-.09-1.68-.27-3.35-.41-5.08-.72-.01-.87-.58-1.08-1.1-.78-1.92-1.58-3.83-2.35-5.76-.38-.96-.71-1.95-1.04-2.93-.08-.24-.05-.52-.07-.78.28.25.39.52.5.8.87,2.12,1.73,4.24,2.61,6.34.12.3.37.54.56.81Zm12.31,55.87c2.04,2.56,4.08,5.12,6.17,7.74.25-.29.47-.53.73-.82-2.9-4.01-5.75-7.97-8.61-11.93-1.01-1.4-2.03-2.8-3.02-4.22-.19-.27-.55-.56-.17-1.16,2.33,2.65,4.09,5.57,6.07,8.34,2,2.81,3.96,5.64,5.95,8.47.99-1.19,1.04-1.42.47-2.31.24.03.47.06.74.1-.08-.95-.03-1.01-1.19-2.43-2.58-3.15-4.61-6.67-6.88-10.03-1.4-2.07-2.7-4.25-4.32-6.14-2.61-3.05-5.45-5.9-8.19-8.82-.16-.17-.39-.29-.59-.43,1.89,2.53,3.95,4.86,5.83,7.33,4.04,5.28,8.01,10.62,11.97,15.95.87,1.18,1.63,2.44,2.41,3.68.15.24.18.56.26.84-1.99-2.66-3.99-5.32-5.98-7.99-4.28-5.76-8.54-11.54-13.19-17-1.82-2.14-3.81-4.13-5.63-6.27-4.34-5.12-9.06-9.87-13.78-14.62-2.89-2.9-6.02-5.57-9.04-8.36-.91-.85-1.79-1.73-2.82-2.72-.25.5-.43.85-.57,1.13,2.71,2.32,5.33,4.5,7.88,6.77,1.74,1.55,3.44,3.15,5.04,4.84,2.05,2.16,3.99,4.43,5.96,6.67,3.42,3.89,6.88,7.76,10.23,11.72,2.34,2.77,4.53,5.68,6.77,8.53.25.32.45.68.67,1.02-.45-.17-.73-.47-.98-.79-1.08-1.35-2.12-2.73-3.24-4.05-2.73-3.23-5.47-6.47-8.27-9.65-3.37-3.82-6.83-7.57-10.22-11.38-2.68-3.01-5.48-5.88-8.59-8.44-1.76-1.45-3.58-2.84-5.51-4.36-.18.67-.31,1.16-.41,1.55,1.27,1.42,2.44,2.75,3.63,4.06.84.93,1.69,1.85,2.58,2.74,2.65,2.67,5.36,5.28,7.96,7.99,3.17,3.31,6.29,6.67,9.37,10.05,3.17,3.48,6.32,6.99,9.4,10.54,2.29,2.64,4.49,5.37,6.7,8.09,1.41,1.74,2.76,3.54,4.14,5.32-.32-.27-.69-.5-.96-.82-4.8-5.84-9.58-11.7-14.66-17.32-4.35-4.81-8.83-9.5-13.29-14.2-4.46-4.7-8.95-9.38-13.43-14.07-.54-.56-1.07-1.13-1.61-1.69-.05-.05-.15-.05-.3-.09-.19.22-.39.46-.56.64,3.29,3.64,6.48,7.23,9.73,10.75,3.31,3.59,6.64,7.17,10.07,10.65,2.76,2.8,5.68,5.45,8.54,8.14,4.71,4.43,8.82,9.38,12.52,14.67,2.8,4,5.53,8.06,8.29,12.08.1.14.23.25.4.45.42-.16.83-.31,1.36-.5-.26-.39-.41-.64-.58-.88-1.27-1.7-2.55-3.38-3.8-5.09-.53-.73-.98-1.52-1.47-2.28Zm-12.63-1.45c.5.63,1.01,1.26,1.51,1.9.28.37.54.73,1.13.65-.33-1.02-1.28-1.67-1.33-2.93,1.67,1.45,2.31,3.63,4.29,4.53,0-.24-.08-.42-.19-.57-2.57-3.49-5.51-6.67-8.58-9.71-4.49-4.45-8.59-9.24-12.88-13.86-.15-.16-.22-.38-.33-.57.61.25,1.04.64,1.44,1.07,3.06,3.29,6.11,6.59,9.18,9.87,3.6,3.85,7.25,7.65,10.53,11.79,1.63,2.06,3.24,4.19,5.66,5.44.89.46,1.74.94,2.47,1.64.31.3.74.46,1.12.68-.52-1.13-1.15-2.11-1.79-3.07-.67-1.01-1.36-2-2.05-3-.66-.96-1.33-1.92-2.01-2.87-.71-.98-1.46-1.93-2.14-2.93-.62-.92-1.46-1.71-1.75-2.85.58.4,1.09.85,1.48,1.39,1.69,2.3,3.37,4.6,5,6.95,1.4,2.02,2.73,4.1,4.08,6.16.42.64.92.83,1.73.43-.31-.48-.57-.91-.87-1.33-2.31-3.29-4.65-6.56-6.93-9.87-4.02-5.81-8.54-11.21-13.67-16.07-4.99-4.72-9.97-9.45-14.57-14.57-4.27-4.76-8.61-9.46-12.93-14.18-.14-.15-.34-.25-.51-.37-.08.07-.15.14-.23.21.42.56.84,1.13,1.27,1.69.47.62.95,1.24,1.42,1.85.45.58.91,1.15,1.37,1.73.45.58.9,1.16,1.35,1.74.48.62.94,1.24,1.43,1.85.45.58.91,1.15,1.38,1.72.47.56.96,1.11,1.43,1.68.47.57.91,1.16,1.38,1.72.5.6,1.02,1.17,1.53,1.76.48.56.95,1.12,1.43,1.68.48.55.99,1.09,1.46,1.65.51.59,1.03,1.17,1.48,1.81.39.55,1.25.73,1.32,1.87-.77-.72-1.39-1.24-1.93-1.83-4.17-4.45-8.01-9.18-11.77-13.98-1.44-1.84-2.93-3.63-4.42-5.43-.14-.17-.37-.28-.62-.45-.39,1.16-.66,2.27-1.14,3.27-.48,1.03-.24,1.71.47,2.53,4.54,5.33,9.2,10.57,12.98,16.49.44.68,1.01,1.3,1.6,1.87,1.78,1.7,3.56,3.41,5.43,5.01,4.79,4.08,9.17,8.54,12.92,13.6.53.72.95,1.51,1.42,2.27-.28-.31-.6-.59-.84-.92-3.48-4.77-7.56-8.99-11.89-12.98-1.94-1.78-3.91-3.53-5.87-5.29-.18-.16-.37-.3-.68-.53,1.47,4.1,10.83,15.65,15.36,19-.04-.16-.04-.3-.11-.38-1.9-2.41-3.72-4.88-5.72-7.2-1.89-2.19-3.97-4.21-5.95-6.32-.41-.44-.77-.93-1.13-1.42-.12-.17-.18-.39-.26-.58,2.97,2.83,5.78,5.76,8.58,8.69.09.09.17.2.24.3,1.92,2.61,3.85,5.21,5.75,7.83.84,1.17,1.97,1.72,3.35,1.55-.3-.6-.59-1.2-.89-1.8Zm21.24.71h0c.92.08.96.08,1.22-.83.42-1.45.79-2.92,1.21-4.37.1-.36.29-.69.44-1.04.06.03.13.06.19.09-.51,1.87-1.02,3.73-1.53,5.6,1.2-.96,1-2.73,2.58-3.68.04.59.13,1,.08,1.38-.12.85-.27,1.71-.5,2.54-1.07,3.89-2.37,7.71-4.82,10.97-1.31,1.74-1.24,3.39-.27,5.17.04.08.08.15.12.23,1.34,2.48,2.96,4.77,4.77,6.93.18.22.48.35.72.52l-.04-.04c.71,1.7,2.09,2.86,3.38,4.17.17-.72.23-1.39.22-2.06-.04-1.77-.24-3.55-.16-5.31.18-4.26,1.17-8.4,2.35-12.46,2.16-7.42,5.41-14.38,9.16-21.13,3.49-6.28,7.74-12.08,11.57-18.15,3.01-4.76,5.82-9.61,7.64-14.97.08-.25.08-.52.13-.9-.85,1.46-1.49,2.91-2.42,4.12-2.33,3.03-4.3,6.28-6.18,9.58-3.42,6.01-6.72,12.08-10.07,18.13-.25.46-.51.92-.76,1.38-.1-.23-.05-.39.02-.53,3.28-6.18,6.6-12.34,9.84-18.54,2.69-5.14,6.13-9.82,9.13-14.77.66-1.09,1.04-2.15,1.2-3.34.13-1,.2-2.01.3-3.02-.28.14-.33.3-.38.46-1.03,3.64-2.47,7.1-4.67,10.2-1.3,1.83-2.73,3.58-3.95,5.46-2.31,3.55-4.54,7.14-6.74,10.76-3.39,5.59-6.22,11.46-8.97,17.38-2.54,5.47-4.65,11.07-5.99,16.96-.47,2.05-1.08,4.07-2.2,5.9.03-.25.1-.49.17-.73.52-1.69,1.19-3.35,1.55-5.08,1.14-5.4,2.95-10.56,5.14-15.61.55-1.27,1.11-2.53,1.68-3.79,1.53-3.38,2.98-6.81,4.63-10.13,2.96-5.97,6.79-11.44,10.26-17.11,1.37-2.25,2.98-4.36,4.27-6.65,1.23-2.17,2.27-4.46,3.25-6.76.57-1.33.93-2.76.9-4.27-.29.35-.51.73-.64,1.14-.31.94-.48,1.93-.88,2.82-2.08,4.67-4.84,8.97-7.59,13.26-1.54,2.4-3.11,4.78-4.64,7.19-1.6,2.51-3.17,5.05-4.76,7.57-.22.35-.38.82-1.11.97.27-.52.42-.87.62-1.18.91-1.42,1.85-2.82,2.74-4.25,3.25-5.25,6.56-10.48,9.7-15.79,1.8-3.04,3.33-6.25,4.97-9.38.02-.04-.05-.13-.12-.32-1.3,1.34-2.57,2.63-3.81,3.94-.2.21-.37.49-.45.77-1,3.45-2.83,6.48-4.7,9.49-1.89,3.05-3.82,6.07-5.63,9.17-1.67,2.87-3.23,5.82-4.79,8.75-2.01,3.77-3.97,7.57-5.94,11.36-.62,1.19-1.23,2.4-1.84,3.6-.07-.36,0-.65.11-.92.95-2.08,1.85-4.19,2.89-6.23,1.6-3.11,3.27-6.19,4.99-9.23,2.53-4.48,5.15-8.9,7.68-13.37,1.99-3.53,3.91-7.12,5.85-10.68.16-.29.27-.61.43-.97-.18.04-.29.03-.33.08-1.73,1.99-3.45,3.98-5.16,5.99-.16.19-.2.48-.31.71-1.5,2.92-2.95,5.86-4.51,8.75-1.89,3.5-3.93,6.91-5.78,10.42-2.01,3.82-3.86,7.73-5.79,11.59-.23.45-.5.88-.75,1.32-.11-.3-.04-.5.05-.69,1.47-3.13,2.9-6.28,4.41-9.38,1.04-2.13,2.18-4.22,3.3-6.31,1.53-2.85,3.1-5.69,4.64-8.54.34-.64.62-1.31.92-1.96-.4.24-.67.54-.89.89-1.88,2.95-3.76,5.9-5.62,8.87-1.35,2.16-2.65,4.36-4.02,6.51-1.77,2.78-3.46,5.59-4.52,8.73-.59,1.76-1.1,3.55-1.61,5.33-.22.75-.41,1.48-1.25,1.81-.47-.56-.5-1.14-.36-1.75.13-.59.28-1.18.44-1.76,1.41-5.31,3.64-10.24,6.64-14.85,1.74-2.68,3.19-5.55,4.96-8.21,3.61-5.44,7.35-10.79,11.73-15.66.93-1.04,1.22-2.35,1.51-3.66-.25.15-.41.34-.57.54-1.72,2.05-3.45,4.09-5.15,6.16-2.11,2.57-4.26,5.12-6.26,7.77-2.13,2.83-4.12,5.76-6.17,8.65-.29.4-.58.8-.87,1.2-.07-.05-.15-.1-.22-.14.15-.29.29-.59.46-.87,2.65-4.47,5.59-8.75,8.82-12.8,3.42-4.28,7.03-8.41,10.55-12.61.08-.1.17-.21.2-.32.22-1.03.44-2.06.65-3.09-.09-.04-.18-.07-.27-.11-.31.44-.62.89-.93,1.33-2.14,3.04-4.2,6.13-6.79,8.82-.99,1.03-1.87,2.15-2.79,3.25-1.3,1.56-2.59,3.13-3.87,4.71-1.93,2.39-3.83,4.81-5.28,7.53-1.68,3.16-3.37,6.33-4.91,9.57-1.84,3.86-3.59,7.77-4.67,11.93-.03.12-.19.22-.28.32-.06-.88.03-1.7.3-2.44.78-2.15,1.57-4.3,2.49-6.4,1.04-2.37,2.29-4.65,3.34-7.02,3.36-7.6,8.51-14.01,13.62-20.43,2.71-2.46,4.83-5.41,6.9-8.39,1.15-1.67,2.21-3.41,3.25-5.15.49-.82.43-.93.22-1.94-1.11,1.62-2.19,3.17-3.26,4.73-.25.36-.49.71-.76,1.05-2.91,3.53-5.8,7.08-8.58,10.73-3.06,4.02-6.34,7.88-9.53,11.8-.19.23-.43.43-.64.65.84-1.51,1.82-2.87,2.84-4.21.99-1.31,2.12-2.52,3.14-4.14-.33.15-.37.16-.4.19-.59.57-1.17,1.16-1.76,1.73-4.74,4.58-8.27,9.95-10.6,16.11-.83,2.18-1.59,4.39-2.4,6.58-1,2.73-1.7,5.53-2.04,8.43-.06.48-.08.97-.12,1.45.1.02.2.04.3.06.92-2.68,1.77-5.38,2.77-8.03,1.03-2.7,2.17-5.36,3.32-8.01,1.11-2.58,1.92-5.31,3.55-7.66.07.9-.4,1.61-.73,2.37-1.52,3.48-3.13,6.93-4.53,10.46-1.2,3.01-2.16,6.11-3.22,9.17-.38,1.1-.75,2.21-1.13,3.31-.28.82-.06,1.5.59,2.21.34-1.01.65-1.91.95-2.81.1.03.19.06.29.09-.18.77-.32,1.56-.56,2.32-.4,1.23-.35,2.06,1.57,2.81Zm-24.58,12.48c.27.29.55.58.82.86.14.21.26.44.42.64,1.77,2.06,3.57,4.11,5.32,6.19.61.72,1.21,1.49,1.63,2.33,1.94,3.95,3.83,7.93,5.72,11.9.72,1.51,1.09,3.18,2.16,4.53.15.19.33.54.25.71-.4.91.13,1.67.32,2.48.42,1.85.96,3.68,1.33,5.54,1.04,5.17,1.77,10.38,1.98,15.66.13,3.32.52,6.64.11,9.96-.51,4.2-1.04,8.4-1.57,12.6-.39,3.09-.83,6.16-1.15,9.26-.15,1.45-.07,2.93-.14,4.39-.14,2.63-.24,5.26-.52,7.87-.15,1.36-.05,2.68.16,3.98.13.81.61,1.57.93,2.36v-.03c-.07.67.31,1.09.79,1.52.24-.2.43-.36.61-.5.32.19.61.45.95.54,2.51.66,5.11.75,7.68,1.05.59.07,1.21.17,1.78-.31.11-.81.22-1.67.34-2.52.12-.86.25-1.71.39-2.56.13-.8.26-1.6.4-2.4.08.02.17.03.25.05.14,2.51-.63,4.94-.78,7.48.33.11.63.21,1.06.34.07-.52.14-.94.18-1.36.25-2.8.52-5.59.73-8.39.2-2.63.35-5.26.5-7.89.29-4.96.61-9.92.85-14.88.17-3.54.31-7.08.34-10.61.03-3.32-.1-6.65-.16-9.97,0-.55,0-1.09,0-1.64.25.37.32.75.34,1.13.14,3.54.3,7.07.39,10.61.06,2.33.17,4.67.04,6.99-.36,6.34-.77,12.68-1.27,19.01-.39,5-.95,9.98-1.42,14.97-.07.71-.08,1.43-.11,2.14.65.18,1.14.32,1.7.47.7-4.85.44-9.69,1.41-14.42.19.36.25.73.22,1.08-.36,4.09-.65,8.19-1.14,12.26-.15,1.3.4,1.88,1.47,2.54.11-2.22.24-4.28.31-6.34.04-.99-.11-1.99-.03-2.98.48-5.73,1.01-11.45,1.51-17.18.25-2.84.53-5.68.71-8.53.2-3.15.24-6.31.47-9.45.56-7.38.75-14.75-.16-22.13-.49-3.96-1.04-7.92-2.47-11.64-2.22-5.74-5.06-11.18-9.2-15.84-.37-.42-.73-.86-1.05-1.32-1.74-2.53-3.57-4.98-5.78-7.14-.9-.88-1.73-1.82-2.6-2.72-4.1-4.26-8.88-7.53-14.35-9.79-4.51-1.86-9.03-3.7-13.52-5.62-4.09-1.75-8.22-3.44-11.68-6.35-.05-.04-.15,0-.34-.01.15.29.26.54.4.78.78,1.33,2.01,2.24,3.07,3.31,4.18,4.22,8.96,7.74,13.41,11.64,1.49,1.31,2.94,2.67,4.42,4,.51.46,1.04.9,1.56,1.35Zm9.08-44.17s.08-.08.13-.12c-1.81-2.58-3.68-5.13-5.43-7.74-1.78-2.65-3.48-5.36-5.17-8.07-1.67-2.68-3.35-5.35-4.93-8.08-1.59-2.76-3.05-5.59-4.59-8.41-2.16,1.26-4.34,2.05-6.75,2.28.74,1.18,1.27,1.47,2.28,1.22.63-.16,1,.14,1.31.58.32.46.57.97.89,1.43,2.47,3.65,4.95,7.3,7.42,10.95.18.26.3.56.45.85-.05.04-.11.09-.16.13-.29-.2-.58-.4-.88-.6.92,1.67,2,3.19,2.9,4.81,2.93,5.26,6.06,10.38,9.85,15.07.39.48.81.93,1.22,1.4.08-.06.16-.13.23-.19-3.78-5.66-7.9-11.1-11.04-17.17.14.05.23.14.31.24,2.63,3.64,5.24,7.31,7.9,10.93,1.79,2.44,3.66,4.82,5.51,7.21.3.39.67.72,1.07,1.14.37-.77-.04-1.13-.39-1.51-4.39-4.86-8.13-10.21-11.72-15.67-.2-.3-.34-.64-.5-.96.05-.02.1-.05.15-.07,4.09,5.41,8.18,10.82,12.27,16.22.09-.74.04-1.42-.11-2.08-.08-.36-.25-.85-.53-1.01-1.28-.71-1.86-2.02-2.73-3.07-.16-.2-.23-.47-.34-.71.05-.03.1-.06.16-.09.4.37.81.73,1.21,1.1Zm-.54-12.01c.09,0,.18,0,.27,0,.36,1.97.13,4.01.79,5.94.04-2.77-.08-5.52-.49-8.26-.15-1.02-.4-2.02-.5-3.05-.2-2.06-.37-4.13-.47-6.2-.12-2.8-.16-5.61-.22-8.41,0-.29.11-.58.17-.87.06.01.11.02.17.03.08,1.1.16,2.21.23,3.31h.24c-.02-1.73-.03-3.46-.05-5.05-1.52-.05-2.9-.1-4.35-.15.03.44.05.82.09,1.2.28,2.92.6,5.84.83,8.77.27,3.49.45,6.98.69,10.47.15,2.2.36,4.39.53,6.58.04.53.18.98.77,1.32-.05-1.73-.08-3.36-.15-4.99-.22-4.75-.46-9.49-.69-14.24-.11-2.37-.22-4.75-.31-7.12-.01-.38.09-.76.14-1.14.2.14.27.25.28.36.31,6.69.61,13.37.93,20.06.12,2.63.29,5.25.43,7.88.03.59.4.88.84,1.19-.06-2.6-.12-5.13-.18-7.66ZM13.62,8.39q.46.6,1.18.19-.39-.88-1.18-.19Zm24.21,35.54c-.08.06-.15.13-.23.19.53.63,1.06,1.26,1.49,1.77-.37-.57-.82-1.26-1.27-1.95ZM4.05,17.82c.11-.41.74-.67.35-1.22q-.8.35-.35,1.22Zm9.53-8.56c-.23-.18-.36-.36-.52-.39-.1-.02-.24.17-.37.27.14.13.26.3.42.36.09.03.25-.12.47-.24Zm28.1,35.74s.08-.08.12-.11c-.22-.25-.44-.5-.66-.75-.04.04-.09.08-.13.12.22.25.45.49.67.74Zm-.88,2.75s.07-.08.11-.12c-.13-.12-.27-.24-.4-.35-.03.03-.06.07-.09.1.13.12.26.24.39.37Z"/>
      <path d="m48.26,31.87c-.72-.24-.71-.8-.76-1.28-.21-1.93-.31-3.87-.55-5.8-.71-5.71-.56-11.46-.79-17.2-.03-.86-.08-1.73-.08-2.59,0-.57.08-1.13.26-1.69.22,9.55.9,19.05,1.91,28.56Z"/>
      <path d="m12.54,12.94c1.49,2.06,3.07,4.06,4.45,6.2,3.36,5.2,6.88,10.26,10.93,14.96.32.37.58.8.82,1.22-3.98-3.36-14.8-18.97-16.19-22.38Z"/>
      <path d="m51.09,39.14c-1.24-2.59-2.72-19.41-2.26-23.71.11.46.23.7.23.95.09,4.32.54,8.61,1.04,12.89.34,2.87.63,5.74.94,8.61.04.42.03.84.05,1.25Z"/>
      <path d="m56.7,4.3c-.16,4.16-.31,8.32-.47,12.48-.12,0-.23,0-.35,0-.42-1.34-.15-2.74-.13-4.11.02-1.38.1-2.76.24-4.14.14-1.41.37-2.81.56-4.21.05,0,.1-.01.15-.02Z"/>
      <path d="m48.15,3.01c.28,3.35.11,6.7-.13,10.05-.54-1.05-.41-2.18-.41-3.28,0-1.12.02-2.24.05-3.36.04-1.14.11-2.28.17-3.42.1,0,.21,0,.31,0Z"/>
      <path d="m44.46,3.85c.17,3.4.34,6.8.5,10.2,0,.15-.09.31-.13.45-.1,0-.15,0-.19-.02-.04-.01-.09-.04-.1-.07-.07-.33-.17-.67-.18-1-.07-3.19-.11-6.37-.17-9.56.09,0,.18,0,.26,0Z"/>
      <path d="m32.67,81.96c-.19-.3-.39-.61-.69-1.08,1.73.7,4.77,3.37,6.9,6.09-.2-.13-.42-.25-.6-.4-1.24-1.01-2.46-2.05-3.7-3.05-.33-.27-.72-.47-1.08-.69-.27-.29-.55-.58-.82-.86Z"/>
      <path d="m61.45,92.99c-.39-1.27.16-2.44.48-3.64-.1,1.16-.2,2.32-.31,3.48,0,.04-.13.08-.2.11,0,0,.04.04.04.04Z"/>
      <path d="m21.9,69.95c2.74,1,5.23,2.36,7.64,3.86,5.74,3.58,10.97,7.82,15.95,12.38,6.44,5.89,11.82,12.61,15.67,20.46,2.07,4.22,4.11,8.48,5.26,13.08.09.36.15.73.05,1.15-.14-.42-.29-.85-.43-1.27-3.26-9.93-8.18-18.93-15.15-26.76-4.43-4.98-9.25-9.56-14.43-13.76-2.46-1.99-5.11-3.68-7.85-5.26-1.83-1.06-3.68-2.09-5.52-3.14-.41-.23-.8-.49-1.2-.73Z"/>
      <path d="m66.76,110.76c-2.75-6.57-6.07-12.78-10.56-18.31-4.46-5.49-9.52-10.36-15.1-14.75.21.11.45.18.64.32,1.62,1.22,3.26,2.41,4.83,3.7,3.65,3,7.1,6.23,9.94,10,1.99,2.65,3.78,5.48,5.43,8.36,1.5,2.62,2.71,5.4,3.99,8.14.37.8.56,1.69.83,2.53Z"/>
      <path d="m26.97,70.78c2.16.39,4.08,1.34,5.95,2.41,2.93,1.69,5.52,3.85,8.21,5.88,1.07.81,2.09,1.67,3.14,2.5,3.89,3.09,7.04,6.87,10.05,10.78.55.71.99,1.51,1.33,2.38-1.29-1.59-2.56-3.22-3.89-4.77-1.38-1.61-2.76-3.22-4.26-4.7-1.5-1.49-3.11-2.87-4.75-4.21-1.6-1.31-3.27-2.55-4.95-3.76-1.71-1.24-3.42-2.51-5.22-3.59-1.8-1.08-3.73-1.95-5.61-2.91Z"/>
      <path d="m52.89,151.36c.14,8.37-.79,16.65-1.63,25.05-.8-.3-.68-.81-.65-1.24.1-1.34.2-2.67.33-4,.31-3.35.63-6.71.95-10.06.3-3.09.6-6.19.9-9.28.02-.16.06-.31.1-.47Z"/>
      <path d="m42.49,88.64c7.61,7.23,13.11,15.82,16.27,25.88-3.52-9.82-9.43-18.14-16.27-25.88Z"/>
      <path d="m67.09,167.5c1.32-9.38,1.58-18.81,1.49-28.26,0-.12.09-.24.22-.58.14.43.29.68.29.93.03,2.15.1,4.31.03,6.46-.11,3.62-.21,7.24-.5,10.85-.27,3.39-.76,6.77-1.16,10.16-.02.17-.08.33-.12.49-.09-.02-.18-.03-.26-.05Z"/>
      <path d="m63.48,174.21c.25-7.05.5-14.1.75-21.15.89,2.13.35,18.08-.75,21.15Z"/>
      <path d="m56.18,115.76c-.06-.11-.15-.22-.18-.34-1.77-5.68-5.04-10.57-8.13-15.55-1.38-2.23-2.86-4.39-4.22-6.68.22.22.47.42.65.67,1.14,1.52,2.32,3.01,3.37,4.58,2.66,3.99,5.14,8.09,7.07,12.49.67,1.52,1.15,3.13,1.72,4.7-.09.04-.19.09-.28.13Z"/>
      <path d="m32.44,77.72c.31.15.64.25.91.44,4.1,2.9,8.01,6,11.46,9.69,2.93,3.14,5.7,6.38,8.06,9.97.52.78.94,1.63,1.41,2.44-.07.05-.14.1-.2.15-.15-.2-.32-.39-.45-.61-2.11-3.54-4.66-6.76-7.47-9.76-1.15-1.23-2.28-2.48-3.44-3.71-2.83-3.01-6.18-5.39-9.46-7.86-.29-.22-.53-.51-.79-.77l-.02.02Z"/>
      <path d="m67.77,114.35c.2.56.48,1.1.6,1.67,1.35,6.44,2.17,12.93,2.06,19.52,0,.6,0,1.2-.2,1.8-.05-1.5-.12-3.01-.15-4.51-.08-4.02-.57-8-1.2-11.97-.27-1.74-.77-3.45-1.16-5.17-.09-.41-.18-.82-.27-1.23l.32-.11Z"/>
      <path d="m65.28,111.55c-2.39-5.18-4.98-10.2-8.27-15.19,1.02.27,1.29.88,1.6,1.41.85,1.45,1.75,2.88,2.49,4.38,1.35,2.75,2.6,5.54,3.87,8.32.15.34.21.72.3,1.08Z"/>
      <path d="m51.78,110.3c-2.25-3.98-4.5-7.96-6.75-11.93,2.85,3.64,5.24,7.54,6.75,11.93Z"/>
      <path d="m62.26,116.45c-1.31-4.16-3.18-8.06-5.51-11.72.15-.11.18-.15.22-.16.04,0,.1,0,.11.04.49.75,1.05,1.47,1.45,2.27,1.07,2.16,2.11,4.33,3.08,6.54.41.93.62,1.94.92,2.92-.09.04-.18.08-.27.11Z"/>
      <path d="m53.93,136.45c-.39-2.37-.4-4.75-.19-7.35.55,1.11.68,6.03.19,7.35Z"/>
      <path d="m53.54,147.04c-.42-1.26-.3-4.15.17-5.84.5,1.06.44,4.3-.17,5.84Z"/>
      <path d="m50.44,183.21c.01-1.38.02-2.75.04-4.13,0-.14.11-.28.17-.43.09,0,.18.02.26.03-.02,1.3-.01,2.59-.07,3.89,0,.21-.28.4-.42.61,0,0,.02.04.02.04Z"/>
      <path d="m32.71,79.59c-.37-.2-.76-.37-1.11-.6-1.4-.91-2.79-1.83-4.18-2.75.04-.07.09-.15.13-.22.9.53,1.83,1.01,2.68,1.61.86.6,1.64,1.31,2.45,1.98l.03-.02Z"/>
      <path d="m65.12,122.56c.15.82.3,1.64.45,2.46-.07.01-.14.02-.2.04-.17-.82-.33-1.64-.5-2.46.08-.01.17-.03.25-.04Z"/>
      <path d="m32.47,77.7c-.16-.03-.35-.03-.48-.11-.47-.29-.92-.62-1.25-1.12.57.42,1.14.83,1.71,1.25l.02-.02Z"/>
      <path d="m32.68,79.61c.37.21.74.41,1.11.62-.07.09-.14.18-.2.27-.29-.3-.59-.61-.88-.91l-.03.02Z"/>
      <path d="m64.5,120.69c.08.19.16.39.24.58-.05.02-.1.04-.15.06-.07-.2-.15-.39-.22-.59.04-.02.09-.04.13-.05Z"/>
      <path d="m60.44,87.83c.13-.45.27-.9.39-1.35,1.04-3.74,2.07-7.48,3.11-11.22,1.04-3.75,2.19-7.45,3.87-10.97.13-.26.26-.52.61-.72-.11.42-.2.84-.34,1.25-.65,1.88-1.37,3.73-1.95,5.62-.84,2.76-1.53,5.57-2.39,8.33-.96,3.06-2.04,6.08-3.08,9.12-.07-.02-.15-.05-.22-.07Z"/>
      <path d="m57.25,69.48c.16-1.14.19-2.33.52-3.43,1.44-4.84,3.34-9.52,5.25-14.19.82-1.99,1.52-4.04,2.29-6.05.16-.41.41-.78.62-1.17l.32.15c-.19.59-.36,1.19-.59,1.76-1.49,3.72-3.03,7.43-4.49,11.16-1.08,2.77-2.1,5.57-3.08,8.38-.38,1.09-.57,2.25-.84,3.39,0,0,0,0,0,0Z"/>
      <path d="m60.79,78.39c1.41-5.12,2.89-10.23,4.95-15.27.67.47.41.87.28,1.23-.92,2.51-1.85,5.01-2.78,7.51-.81,2.18-1.63,4.35-2.45,6.52Z"/>
      <path d="m75.84,46.91c-1.32,3.71-3.23,7.14-4.86,10.71.07-1.64,3.74-9.88,4.86-10.71Z"/>
      <path d="m64.48,85.51c-.75,3.52-.68,7.02.05,10.63-.62-.13-.69-.51-.75-.86-.55-3.01-.64-5.99.41-8.93.1-.28.2-.57.29-.85Z"/>
      <path d="m68.44,43.83c1.29-2.43,2.32-5,3.91-7.28.08.04.16.08.24.13-1.29,2.43-2.58,4.87-3.86,7.3-.09-.05-.19-.1-.28-.15Z"/>
      <path d="m70.11,66.67c.89-2.23,1.78-4.45,2.67-6.68.08.03.16.06.24.1-.57,2.36-1.57,4.54-2.91,6.58Z"/>
      <path d="m20.71,46.45c1.22.56,2.16,1.5,3.08,2.45,2.35,2.41,4.75,4.77,7,7.27,3.69,4.11,7.69,7.95,11.02,12.37.76,1.02,1.44,2.1,2.04,3.24-3.41-4.62-7.54-8.57-11.43-12.74-3.9-4.2-7.81-8.4-11.72-12.6Z"/>
      <path d="m2.09,26.94c1.72.85,15.28,17.52,16.13,19.71-1.52-1.47-2.72-3.23-4.08-4.85-1.38-1.66-2.76-3.31-4.13-4.98-1.34-1.63-2.67-3.27-4.01-4.91-1.33-1.64-2.87-3.11-3.91-4.97Z"/>
      <path d="m38.22,62.68c-.41-.43-.86-.83-1.21-1.29-3.28-4.25-6.97-8.11-11.07-11.58-.76-.64-1.48-1.33-2.19-2.02-.29-.28-.53-.63-.9-1.09,2.26.48,12.75,11.27,15.38,15.98Z"/>
      <path d="m45.33,73.55c.29.44.58.87.87,1.31-.02.02-.03.03-.05.05-.32-.41-.65-.82-.97-1.23.05-.04.1-.08.15-.13Z"/>
      <path d="m31.26,26.93c-.18-.29-.36-.57-.54-.86.05-.03.09-.06.14-.09.19.28.37.57.56.85-.05.03-.11.07-.16.1Z"/>
      <path d="m63.83,187.18c.14.16.28.32.53.61-.94.32-1.75-.08-2.55-.11-.9-.03-1.8-.15-2.71-.22-.86-.06-1.72-.12-2.58-.15-.85-.03-1.71,0-2.7-.01.3-.51.69-.44,1.03-.48,2.5-.26,4.99,0,7.48.23.51.05,1.03.11,1.54.16,0,0-.04-.04-.04-.04Z"/>
    </g>
  </g>
</svg>