
<svg id="Layer_2" data-name="Layer 2" xmlns="http://www.w3.org/2000/svg" 
viewBox="0 0 221.89 133.97"
>
  <g id="_ÎÓÈ_1" data-name="—ÎÓÈ_1">
    <g>
      <path d="m218.23,36.37c.04,5.24-.86,10.56-1.99,15.67-1.13,5.09-2.82,10.08-4.98,14.82-4.42,9.67-10.71,18.5-18.17,26.04-16.33,16.51-38.09,26.05-60.44,31.28-6.64,1.55-13.35,2.81-20.1,3.79-3.27.47-6.55.91-9.84,1.28-3.44.39-6.95.69-10.33,1.47-1.61.37-1.12,2.61.37,2.73,6.13.48,12.54-.44,18.62-1.2,6.24-.78,12.46-1.74,18.62-3.02,12.16-2.55,24.11-6.32,35.34-11.65,20.3-9.63,38.2-25.31,47.96-45.82,2.61-5.48,4.63-11.22,5.86-17.16.61-2.96,1-5.95,1.16-8.97.17-3.1-.06-6.16-.31-9.25-.09-1.13-1.79-1.16-1.78,0h0Z" style="fill: #D2B48c;"/>
      <path d="m9.81,59c-4.15,4.23-6.97,10.38-8.59,16.02-1.58,5.52-1.69,11.46,0,16.97,3.09,10.04,11.27,17.67,19.94,23.11,9.87,6.2,21.21,10.45,32.4,13.53,11.84,3.26,24.14,5.07,36.42,5.31,6.93.14,13.86-.21,20.74-1.05,3.44-.42,6.89-.91,10.27-1.71,3.4-.8,6.73-2,9.97-3.29,1.32-.52.81-2.32-.58-2.11-5.87.87-11.75,1.68-17.64,2.49-5.8.8-11.66,1.21-17.51,1.29-11.62.15-23.25-1.03-34.58-3.62-11.07-2.53-22.04-6.26-32.12-11.53-8.56-4.48-17.13-10.49-21.78-19.2-2.7-5.05-3.64-10.84-2.65-16.49.56-3.22,1.53-6.36,2.85-9.35,1.37-3.1,3.17-5.99,4.49-9.1.43-1.02-.74-2.19-1.64-1.27h0Z" style="fill: #D2B48c;"/>
      <path d="m11.36,62.04c.18-.88.44-1.77.56-2.65.14-.99.1-2.06.13-3.05.07-1.92.12-3.84.28-5.76.32-3.75.9-7.51,2.18-11.06,1.24-3.46,3.19-6.59,5.96-9.03,3.07-2.7,6.93-4.4,10.72-5.8,17.86-6.62,36.63-11.14,55.47-13.9,5.3-.78,10.62-1.44,15.94-1.99,5.37-.55,10.86-.77,16.17-1.8,1.38-.27.86-2.1-.3-2.24-4.91-.61-10-.26-14.92.09-5,.36-9.97.85-14.93,1.53-9.87,1.35-19.68,3.21-29.36,5.57-9.59,2.34-19.1,5.14-28.38,8.51-4.07,1.48-8.15,3.16-11.62,5.79-3.24,2.45-5.83,5.62-7.51,9.34-1.83,4.05-2.63,8.47-2.92,12.88-.15,2.3-.12,4.6-.04,6.9.04,1.15.16,2.3.27,3.45.11,1.1.52,2.16.84,3.22.21.67,1.29.76,1.45,0h0Z" style="fill: #D2B48c;"/>
      <path d="m112.49,5.86c5.84,2.43,12.26,2.84,18.53,2.66,6.39-.18,12.74-.97,19.07-1.84,11.61-1.59,23.24-3.58,35-2.58,3.1.26,6.17.76,9.19,1.53,3.17.81,6.21,2.07,9.42,2.66,1.08.2,2.14-1.14,1.17-2.01-4.23-3.78-10.64-4.91-16.1-5.64-5.83-.78-11.72-.78-17.58-.36-12.36.9-24.48,3.71-36.84,4.61-7.25.53-14.45.12-21.69-.29-.78-.05-.78,1-.17,1.26h0Z" style="fill: #D2B48c;"/>
      <path d="m201.14,6.33c1.97,2.03,4.25,3.76,6.32,5.71,2.09,1.97,3.91,4.17,5.53,6.54,1.61,2.36,2.93,4.9,4,7.56.52,1.28.99,2.59,1.43,3.89.43,1.28.72,2.92,1.55,3.99.52.67,1.46.17,1.7-.45.49-1.25.04-3.29-.2-4.57-.29-1.49-.68-2.91-1.21-4.34-1.08-2.9-2.59-5.67-4.37-8.2-1.74-2.48-3.83-4.74-6.13-6.71-2.32-1.99-5.03-3.79-8.06-4.37-.55-.11-.98.53-.56.97h0Z" style="fill: #D2B48c;"/>
      <path d="m8.08,61.9c.52,2.48,2.21,4.54,4.44,5.74,1.22.66,2.49,1.05,3.86,1.2,1.32.14,2.92.13,3.99-.72l-.54.32c.83-.3,1.7-.64,2.3-1.31.45-.51.19-1.54-.61-1.47-.63.05-1.23.28-1.85.33-.01,0-.01,0,0,.01.05.04,0,.04-.13-.02-.14,0-.66-.01-.69,0-.27.03-.55.05-.82.05-1.27.02-2.23-.12-3.47-.48-2.27-.66-4.34-2.06-5.69-3.98-.28-.4-.9-.16-.8.34h0Z" style="fill: #D2B48c;"/>
      <path d="m18.64,67.38c8.29-2.77,16.77-6.5,25.7-5.93,4.25.27,8.16,1.89,12.17,3.16,1.9.61,3.82,1.13,5.82,1.3,2.13.19,3.93-.08,5.77-1.23.68-.42.37-1.41-.39-1.46-4.13-.27-8.04-.99-11.99-2.3-4.1-1.36-8.14-2.62-12.5-2.7-8.92-.16-17.52,3.45-25.21,7.63-.81.44-.26,1.81.64,1.51h0Z" style="fill: #D2B48c;"/>
      <path d="m64.61,63.75c3.3-1.11,6.7-2.03,10.07-2.91,1.67-.44,3.34-.86,5.03-1.2.84-.17,1.69-.31,2.53-.52.4-.1.86-.15,1.25-.3.43-.17.8-.45,1.22-.64.73-.32.57-1.66-.23-1.77-.46-.06-.9-.24-1.35-.27-.46-.03-.99.08-1.46.13-.87.09-1.72.26-2.58.44-1.74.37-3.49.79-5.19,1.31-3.51,1.07-6.69,2.56-9.87,4.37-.72.41-.24,1.65.58,1.37h0Z" style="fill: #D2B48c;"/>
      <path d="m88.43,57.25c3.23,1.35,6.55,2.14,10.07,1.99,1.74-.08,3.46-.39,5.14-.86.87-.24,1.58-.56,2.36-.99.71-.4,1.48-.69,2.05-1.28.43-.43.13-1.29-.52-1.25-.82.04-1.58.39-2.39.51-.76.11-1.48.25-2.23.41-1.5.33-3.04.51-4.58.6-3.14.19-6.41.03-9.43-.84-1.14-.33-1.5,1.29-.47,1.72h0Z" style="fill: #D2B48c;"/>
      <path d="m108.58,56.96c6.1-2.26,12.34-4.27,18.62-5.96,3.12-.84,6.27-1.57,9.44-2.17,1.58-.3,3.19-.54,4.76-.86.74-.15,1.51-.31,2.24-.49.89-.23,1.7-.65,2.59-.92.99-.29.75-1.69-.24-1.75-.84-.05-1.69-.26-2.52-.27-.82-.01-1.69.08-2.51.15-1.67.15-3.36.48-5,.8-3.25.63-6.47,1.38-9.66,2.27-6.44,1.8-12.59,4.28-18.47,7.45-.95.51-.3,2.16.75,1.77h0Z" style="fill: #D2B48c;"/>
      <path d="m141.54,46.58c2.9.19,5.76.52,8.67.52,2.89,0,5.78-.02,8.67-.09,2.81-.06,5.62-.09,8.43-.22,2.89-.14,5.87-.08,8.68-.89.86-.25.92-1.59,0-1.81-2.76-.64-5.61-.47-8.43-.46-2.89.01-5.78.12-8.67.2-2.81.08-5.62.2-8.43.34-3.01.15-5.94.62-8.92.97-.91.11-.94,1.38,0,1.44h0Z" style="fill: #D2B48c;"/>
      <path d="m212.76,29.21c-3.04,2.1-5.19,4.88-7.59,7.63-2.38,2.73-4.84,5.01-8.63,5.29-2.45.19-4.94.05-7.4.03-2.47-.02-4.94-.04-7.41-.06-2.63-.02-5.28-.04-7.91.12-1.28.08-2.7-.11-3.95.27-1.06.33-2.19.4-3.28.63-1.12.24-1.11,2.02,0,2.26,1.89.41,3.82.81,5.75.89,2.06.08,4.11.18,6.18.21,4.2.06,8.4.01,12.6.01,3.67,0,7.43,0,10.68-1.94,2.5-1.49,4.4-3.71,6.08-6.05,1.89-2.65,3.58-5.61,6.07-7.75.84-.72-.27-2.18-1.19-1.55h0Z" style="fill: #D2B48c;"/>
      <path d="m214.21,27.37c-3.76,1.11-7.59,1.9-11.33,3.09-1.83.58-3.69,1.11-5.49,1.78-.9.34-1.8.69-2.7,1.04-.99.38-1.86.62-2.47,1.53-.5.74.02,1.74.8,1.97.98.3,1.81-.1,2.74-.41.91-.3,1.83-.59,2.74-.91,1.88-.67,3.74-1.46,5.59-2.22,3.6-1.47,7.03-3.26,10.6-4.77.64-.27.18-1.31-.47-1.11h0Z" style="fill: #D2B48c;"/>
      <path d="m18.89,51.88c9.81,1.41,19.71,1.8,29.57,2.72,4.91.45,9.81.92,14.71,1.48,2.45.28,4.89.59,7.33.88,1.22.14,2.44.15,3.66.22,1.27.07,2.55.25,3.78-.13,1.18-.36,1.33-1.88.33-2.54-1.08-.71-2.36-.89-3.6-1.16-1.12-.25-2.22-.55-3.35-.71-2.47-.35-4.95-.65-7.43-.94-4.97-.58-9.96-1.11-14.95-1.5-9.89-.77-19.85-1.49-29.75-.58-1.19.11-1.7,2.07-.31,2.27h0Z" style="fill: #D2B48c;"/>
      <path d="m60.07,49.16c6.23-.06,12.39-.8,18.56-1.61,6.18-.81,12.37-1.64,18.53-2.59,12.15-1.87,24.34-3.77,36.35-6.42,3.36-.74,6.71-1.53,10.05-2.32,3.48-.82,7.08-1.57,10.43-2.82.71-.26.68-1.46-.19-1.41-3.01.18-6.05.75-9.03,1.24-3.1.51-6.2,1.08-9.31,1.52-6.17.88-12.29,2.05-18.42,3.12-12.12,2.12-24.28,4.05-36.45,5.83-6.96,1.02-13.93,1.89-20.78,3.49-1.1.26-.86,1.98.27,1.96h0Z" style="fill: #D2B48c;"/>
      <path d="m177.74,31.48c-9.73,2.69-19.61,4.97-29.45,7.26-4.89,1.14-9.79,2.17-14.71,3.19-2.45.51-4.91,1.02-7.37,1.5-1.27.25-2.51.59-3.77.87-1.19.27-2.48.39-3.53,1.04-.79.49-.75,1.92.28,2.11,1.2.23,2.36-.06,3.56-.25,1.29-.2,2.57-.33,3.85-.59,2.54-.5,5.07-1.02,7.6-1.57,4.9-1.06,9.76-2.27,14.62-3.52,9.9-2.54,19.56-5.69,29.22-9,.66-.23.39-1.24-.29-1.05h0Z" style="fill: #D2B48c;"/>
      <path d="m184.39,35.95c-3.43.92-6.82,1.92-10.2,3.03-1.64.54-3.24,1.1-4.83,1.75-1.66.69-3.39,1.22-4.98,2.07-.96.51-.25,1.78.69,1.63,1.69-.27,3.31-.84,4.96-1.27,1.72-.45,3.39-.99,5.09-1.56,3.31-1.12,6.58-2.36,9.82-3.66,1.2-.48.77-2.34-.55-1.99h0Z" style="fill: #D2B48c;"/>
      <path d="m211.63,38.1c2.04,2.43,3.54,5.29,4.55,8.3.48,1.43.83,2.9,1.04,4.39.22,1.59.22,3.18.38,4.77.05.47.78.66.89.12.63-3.15-.17-6.75-1.23-9.73-1.11-3.12-2.91-5.9-5.13-8.34-.3-.33-.77.15-.49.49h0Z" style="fill: #D2B48c;"/>
      <path d="m208.87,43.23c2.28,2.76,3.94,6.02,4.96,9.45.5,1.67.86,3.38,1.03,5.12.08.85.13,1.7.15,2.56.02.86-.09,1.74.1,2.58.16.72,1.09.57,1.31,0,.62-1.59.3-3.81.09-5.46-.24-1.88-.65-3.73-1.28-5.52-1.23-3.5-3.21-6.65-5.72-9.37-.4-.44-1.01.2-.64.64h0Z" style="fill: #D2B48c;"/>
      <path d="m207.3,47.83c1.67,3.17,2.97,6.68,3.79,10.16.41,1.74.71,3.52.87,5.3.15,1.65-.04,3.64.54,5.2.13.36.73.56.93.12.71-1.56.48-3.66.31-5.32-.19-1.88-.51-3.74-.99-5.57-.97-3.76-2.52-7.14-4.66-10.36-.33-.49-1.07-.06-.8.47h0Z" style="fill: #D2B48c;"/>
      <path d="m204.62,51.8c1.4,3.68,2.48,7.53,3.29,11.39.42,2,.77,4.01,1,6.04.11.98.21,1.97.29,2.95.07.9.07,1.89.41,2.73.25.61,1.11.7,1.34,0,.57-1.77.02-4.12-.22-5.93-.27-2.03-.62-4.05-1.1-6.05-.95-4-2.35-7.8-4.08-11.52-.24-.52-1.13-.15-.93.39h0Z" style="fill: #D2B48c;"/>
      <path d="m199.24,56.64c1.73,3.66,3.06,7.46,3.96,11.4.45,1.95.62,3.88.88,5.85.14,1.03.29,2.06.43,3.09.13.9.12,1.84.4,2.7.2.61,1.19.71,1.34,0,.39-1.84.02-4.04-.28-5.88-.33-2.03-.98-4.12-1.56-6.1-1.14-3.94-2.68-7.78-4.57-11.43-.21-.41-.82-.05-.62.36h0Z" style="fill: #D2B48c;"/>
      <path d="m16.8,37.72c-1.71,4.75-2.74,9.64-3.03,14.69-.12,2.06-.48,4.61.23,6.59.46,1.29,1.74,2.81,3.15,1.73.37-.28.3-.96-.26-.95-1.6.05-1.48-3-1.51-3.98-.06-1.98,0-3.96.15-5.93.32-4.02,1.02-8.03,2.11-11.91.15-.55-.66-.76-.84-.23h0Z" style="fill: #D2B48c;"/>
      <path d="m15.67,52.93c-1.53,2.11-2.41,4.6-2.65,7.19-.12,1.28-.03,2.57.2,3.83.19,1.08.59,2.73,1.54,3.38.38.26.78-.1.82-.47.06-.53-.2-1.09-.33-1.6-.15-.55-.27-1.11-.38-1.66-.23-1.15-.28-2.32-.22-3.49.13-2.33.89-4.57,2.18-6.51.49-.73-.66-1.37-1.16-.68h0Z" style="fill: #D2B48c;"/>
      <path d="m19.72,56.8c-2.14,1.81-3.42,4.53-3.47,7.32-.01.71.02,1.5.38,2.12.2.34.66.46.97.23.36-.25.31-.65.34-1.04.05-.68-.03-1.36.04-2.04.06-.62.2-1.25.38-1.84.44-1.44,1.24-2.74,2.32-3.78.65-.62-.31-1.54-.97-.97h0Z" style="fill: #D2B48c;"/>
      <path d="m23.67,56.74c-.82.8-1.52,1.71-2.06,2.72-.52.98-1,2.08-1.15,3.18-.04.3-.13.67-.08.97.02.14.08.28.11.42.03.16.04.33.12.47.16.28.5.39.79.25.3-.15.34-.45.47-.73.06-.14.14-.26.18-.41.03-.13.05-.26.08-.39.06-.28.13-.56.19-.84.12-.53.28-1.04.48-1.54.44-1.12,1.09-2.19,1.88-3.1.58-.68-.34-1.64-.99-.99h0Z" style="fill: #D2B48c;"/>
      <path d="m26.88,55.94c-1.01,1.15-1.77,2.46-2.24,3.92-.23.71-.37,1.45-.46,2.19-.08.7-.23,2,.51,2.38-.11-.15-.23-.3-.34-.45.13.39.27.95.79.95.52,0,.59-.56.66-.95-.11.15-.23.3-.34.45.45-.31.46-.67.49-1.16.02-.34.04-.69.06-1.03.04-.63.16-1.24.33-1.85.35-1.27.96-2.47,1.76-3.51.53-.69-.64-1.59-1.21-.94h0Z" style="fill: #D2B48c;"/>
      <path d="m30.87,56.47c-1.36.84-2.35,2.23-2.78,3.76-.22.76-.29,1.55-.19,2.33.05.4.11.8.25,1.19.17.46.43.82.76,1.18.56.62,1.57-.03,1.36-.79-.08-.3-.12-.61-.2-.92-.04-.15-.08-.3-.12-.46-.02-.08-.03-.15-.04-.23-.02-.11,0,.13,0-.06-.03-.32-.03-.63-.02-.95,0-.16.02-.32.04-.47-.02.15,0,0,.01-.07.01-.08.03-.16.05-.23.25-1.15.83-2.12,1.8-2.74.4-.26.57-.79.32-1.22-.24-.41-.81-.57-1.22-.32h0Z" style="fill: #D2B48c;"/>
      <path d="m34.52,57.22c-.96.98-1.68,2.16-2.14,3.45-.23.63-.36,1.28-.41,1.95-.03.32-.03.64-.02.97.02.42.09.76.29,1.14.31.6,1.15.39,1.34-.18.11-.32.14-.62.17-.96.02-.31.03-.35.09-.66.11-.56.25-1.13.44-1.68.11-.31.11-.31.25-.61.13-.26.27-.51.42-.76.07-.12.15-.23.22-.34.04-.06.08-.11.12-.17.02-.03.09-.12.03-.04.19-.24.4-.47.61-.69.38-.38.38-1.03,0-1.41-.38-.38-1.03-.39-1.41,0h0Z" style="fill: #D2B48c;"/>
      <path d="m127.54,43.82c-3.49,2.16-6.94,4.4-10.57,6.35-1.81.98-3.66,1.89-5.51,2.78-.93.44-1.86.87-2.78,1.33-.91.45-1.91.78-2.74,1.37-.61.43-.22,1.26.49,1.16,1.01-.14,1.96-.62,2.91-.96.98-.35,1.93-.78,2.88-1.22,1.93-.89,3.81-1.88,5.65-2.92,3.62-2.06,7.15-4.33,10.31-7.06.45-.39-.13-1.13-.63-.82h0Z" style="fill: #D2B48c;"/>
      <path d="m125.91,40.56c-4.56,2.63-9.2,5.13-13.78,7.71-2.26,1.27-4.53,2.52-6.8,3.78-1.13.63-2.27,1.25-3.39,1.9-1.07.62-2.32,1.23-3.17,2.13-.48.5,0,1.24.65,1.11,1.14-.23,2.26-.91,3.29-1.45,1.15-.6,2.27-1.25,3.4-1.88,2.33-1.31,4.63-2.67,6.94-4.02,4.54-2.67,8.97-5.51,13.43-8.31.6-.38.06-1.32-.56-.96h0Z" style="fill: #D2B48c;"/>
      <path d="m125.06,38.04c-5.91,2.89-11.87,5.67-17.82,8.46-2.9,1.36-5.82,2.67-8.74,4.01-1.53.7-3.06,1.4-4.59,2.09-1.39.62-3.04,1.17-4.2,2.17-.46.4-.11,1.33.52,1.27,1.46-.15,2.91-.93,4.25-1.52,1.54-.67,3.08-1.35,4.62-2.04,3-1.34,5.95-2.77,8.91-4.2,5.98-2.9,11.82-6.03,17.62-9.28.64-.36.08-1.29-.57-.97h0Z" style="fill: #D2B48c;"/>
      <path d="m116.36,39.01c-5.62,2.42-11.28,4.72-16.88,7.19-2.72,1.2-5.44,2.39-8.16,3.59-1.44.63-2.87,1.26-4.3,1.9-.68.3-1.36.6-2.03.91-.24.11-2.74,1.06-1.87,1.64-.1-.17-.19-.33-.29-.5,0,.05,0,.09,0,.14.03.49.75.79,1,.27.39-.78-.37-1.32-1.12-1.1-1.02.3-.98,1.58-.21,2.14,1.28.94,3.35-.5,4.52-1.03,2.02-.92,4.04-1.85,6.06-2.79,8-3.7,15.92-7.53,23.89-11.29.73-.34.09-1.37-.62-1.07h0Z" style="fill: #D2B48c;"/>
      <path d="m103.64,41.88c-4.54,1.5-9,3.28-13.45,5.03-2.16.85-4.3,1.72-6.45,2.58-2.16.87-4.66,1.6-6.63,2.86-.92.59-.32,1.97.73,1.74,2.35-.5,4.72-1.77,6.93-2.69,2.07-.86,4.15-1.71,6.22-2.59,4.4-1.88,8.82-3.72,13.11-5.83.61-.3.18-1.31-.46-1.1h0Z" style="fill: #D2B48c;"/>
      <path d="m91.72,42.76c-4.03,1.43-8.12,2.71-12.17,4.11-1.99.69-3.97,1.38-5.96,2.08-1.99.69-4.01,1.28-5.81,2.41-.53.33-.38,1.39.35,1.3,2.1-.26,4.01-1.04,5.99-1.76,1.98-.72,3.96-1.43,5.94-2.15,4.03-1.46,8.02-3.06,12.06-4.49.93-.33.53-1.83-.41-1.49h0Z" style="fill: #D2B48c;"/>
      <path d="m79.77,43.68c-3.29,1.15-6.61,2.21-9.89,3.37-1.64.58-3.29,1.17-4.92,1.77-1.49.55-3.13.99-4.27,2.12-.27.27-.05.68.29.71,1.66.12,3.25-.68,4.79-1.24,1.58-.58,3.15-1.19,4.72-1.79,3.21-1.23,6.37-2.58,9.57-3.82.68-.26.4-1.36-.31-1.11h0Z" style="fill: #D2B48c;"/>
      <path d="m71.78,43.59c-2.92.55-5.83,1.27-8.63,2.27-1.34.48-2.65,1.01-3.95,1.59-.7.31-1.41.62-2.09.98-.62.33-1.29.62-1.68,1.22-.29.44.09,1.03.59,1.03.7,0,1.35-.43,1.98-.72.61-.29,1.2-.6,1.81-.88,1.33-.62,2.68-1.18,4.05-1.69,2.71-1.01,5.45-1.85,8.29-2.44.89-.18.51-1.52-.37-1.36h0Z" style="fill: #D2B48c;"/>
      <path d="m59.86,44.64c-2.32.64-4.64,1.24-6.96,1.88-1.11.31-2.23.61-3.34.94-1.15.35-2.38.62-3.43,1.19-.5.27-.3,1.17.3,1.12,1.2-.1,2.37-.54,3.52-.87,1.11-.33,2.21-.69,3.31-1.04,2.29-.73,4.57-1.5,6.86-2.24.62-.2.36-1.15-.27-.98h0Z" style="fill: #D2B48c;"/>
      <path d="m209.02,29.48c-2.16,1.31-4.15,2.94-5.73,4.92-.78.98-1.52,2-2.09,3.12-.55,1.06-1.35,2.43-1.28,3.66.03.51.65.82,1.04.43.79-.8,1.2-2.03,1.78-2.99.61-1.02,1.25-2.03,1.98-2.97,1.44-1.86,3.1-3.59,5-4.98.7-.51.08-1.66-.69-1.19h0Z" style="fill: #D2B48c;"/>
      <path d="m201.85,31.91c-2.93,1.68-5.27,4.29-6.64,7.38-.33.73-.85,1.87-.63,2.69.13.47.62.74,1.07.61.55-.15.74-.82.91-1.29.56-1.52,1.17-2.99,2.07-4.35,1.03-1.55,2.3-2.96,3.78-4.09.55-.42.08-1.32-.56-.96h0Z" style="fill: #D2B48c;"/>
      <path d="m197.84,33.73c-3.53,1.05-6.53,3.65-7.92,7.07-.15.36-.28.73-.39,1.11-.14.47-.15.97-.14,1.46,0,.49.41.93.93.77.34-.1.44-.34.56-.64.08-.19.18-.32.28-.49.21-.36.3-.83.47-1.22.18-.4.38-.79.61-1.16.43-.72.87-1.42,1.43-2.05,1.26-1.44,2.82-2.6,4.63-3.25,1-.36.6-1.92-.44-1.61h0Z" style="fill: #D2B48c;"/>
      <path d="m192.28,33.87c-1.86.49-3.52,1.51-4.75,2.99-.6.73-1.13,1.52-1.51,2.38-.21.47-.37.95-.49,1.45-.13.54-.3,1.14,0,1.65.25.4.76.44,1.1.14.39-.34.41-.86.56-1.33.13-.41.26-.74.43-1.12.28-.64.72-1.41,1.17-1.99.99-1.25,2.33-2.38,3.81-2.99.71-.29.46-1.4-.33-1.19h0Z" style="fill: #D2B48c;"/>
      <path d="m188.92,32.45c-2.19,1.2-4.1,2.72-5.66,4.67-.78.97-1.47,1.99-2.03,3.09-.29.56-.55,1.13-.78,1.72-.12.3-.13.58-.16.89-.04.33-.14.64-.01.95.12.29.44.49.75.3.26-.16.38-.38.54-.63.14-.23.34-.43.46-.67.27-.51.48-1.05.75-1.56.54-1.02,1.17-2.01,1.86-2.93,1.35-1.8,3.07-3.47,4.95-4.71.69-.46.08-1.52-.65-1.12h0Z" style="fill: #D2B48c;"/>
      <path d="m184.2,32.57c-1.83,1.3-3.5,2.81-4.94,4.53-.72.86-1.38,1.77-1.97,2.72-.29.47-.53.96-.76,1.47-.23.5-.51,1.1-.34,1.66.1.33.42.41.71.29.47-.2.76-.72,1.01-1.14.27-.45.57-.88.84-1.33.54-.87,1.13-1.72,1.76-2.53,1.29-1.64,2.78-3.12,4.44-4.38.32-.24.49-.65.27-1.03-.19-.33-.69-.51-1.03-.27h0Z" style="fill: #D2B48c;"/>
      <path d="m178.57,30.91c-1.81,1.26-3.39,2.78-4.73,4.54-.65.85-1.22,1.75-1.71,2.7-.26.5-.48,1.01-.68,1.53-.21.55-.47,1.1-.33,1.69.14.56.77.61,1.16.31.4-.32.54-.88.75-1.33.21-.46.44-.92.67-1.36.46-.88.97-1.73,1.54-2.54,1.13-1.6,2.53-3.04,4.11-4.21.33-.25.5-.66.27-1.05-.2-.34-.71-.51-1.05-.27h0Z" style="fill: #D2B48c;"/>
      <path d="m174.52,30.8c-2.35,1.32-4.47,3.07-6.18,5.16-.86,1.05-1.64,2.17-2.3,3.36-.31.56-.59,1.14-.84,1.73-.28.66-.59,1.37-.29,2.06.14.32.58.36.84.22.56-.28.78-1.02,1.03-1.56.25-.56.52-1.11.81-1.65.59-1.09,1.28-2.13,2.06-3.1,1.59-1.95,3.5-3.59,5.68-4.84.9-.52.09-1.9-.81-1.39h0Z" style="fill: #D2B48c;"/>
      <path d="m168.97,32.47c-2.45,1.18-4.65,2.87-6.43,4.92-.9,1.03-1.72,2.16-2.38,3.36-.31.57-.6,1.15-.85,1.74-.24.57-.63,1.61-.25,2.17.16.24.47.4.76.31.59-.19.93-.96,1.17-1.5.26-.59.54-1.17.85-1.74.6-1.09,1.29-2.13,2.09-3.08,1.65-1.95,3.65-3.54,5.93-4.69,1-.5.12-1.98-.88-1.5h0Z" style="fill: #D2B48c;"/>
      <path d="m162.61,32.51c-2.05,1.03-3.91,2.35-5.57,3.92-.83.78-1.58,1.61-2.26,2.51-.66.87-1.54,1.9-1.78,2.98-.14.64.58,1.03,1.06.62.43-.37.72-.86,1.05-1.32.3-.42.61-.82.93-1.21.69-.83,1.4-1.65,2.16-2.42,1.51-1.52,3.23-2.86,5.06-3.98.7-.43.09-1.46-.64-1.09h0Z" style="fill: #D2B48c;"/>
      <path d="m163.83,19.42c-.63,1.87-1.02,3.85-1.09,5.82-.07,1.93.02,4.09.78,5.89.34.81,1.71.39,1.64-.45-.07-.89-.27-1.77-.37-2.65-.11-.93-.14-1.86-.13-2.79.03-1.83.3-3.61.81-5.37.31-1.06-1.29-1.48-1.64-.45h0Z" style="fill: #D2B48c;"/>
      <path d="m159.98,21.66c-.31.59-.63,1.23-.81,1.88-.18.65-.29,1.31-.37,1.97-.16,1.32-.08,2.71.23,4,.07.3.19.59.3.88.13.33.26.76.54.99.3.24.73.23,1.01-.02.33-.29.29-.67.2-1.05-.3-1.25-.53-2.51-.53-3.8,0-1.46.26-2.93.72-4.31.25-.75-.92-1.25-1.29-.54h0Z" style="fill: #D2B48c;"/>
      <path d="m155.16,21.84c-.7,1.79-1.1,3.73-1.07,5.65.02.94.12,1.88.29,2.81.16.85.43,2.08,1.15,2.62.31.24.8-.02.88-.36.11-.43-.03-.82-.12-1.25-.1-.42-.17-.85-.25-1.28-.17-.87-.27-1.75-.29-2.64-.03-1.77.17-3.51.69-5.21.26-.83-.98-1.13-1.28-.35h0Z" style="fill: #D2B48c;"/>
      <path d="m151.26,24.89c-1.06,1.69-1.68,3.62-1.84,5.61-.08.98-.03,1.94.13,2.91.09.53.2,1.01.42,1.49.19.42.38.96.82,1.17.35.16.68.02.81-.33.16-.41-.04-.89-.1-1.31-.06-.45-.16-.88-.24-1.32-.15-.83-.19-1.69-.15-2.53.07-1.74.58-3.43,1.45-4.94.49-.84-.78-1.57-1.3-.76h0Z" style="fill: #D2B48c;"/>
      <path d="m148.19,26.55c-1.52,2.79-2.36,6.31-1.05,9.34.18.42.79.17.8-.22.05-1.45.08-2.9.24-4.34.16-1.41.58-2.81,1.2-4.08.38-.79-.76-1.48-1.19-.69h0Z" style="fill: #D2B48c;"/>
      <path d="m46.01,53.2c-1.41.62-2.8,1.3-4.17,2.01-.67.35-1.34.7-2.01,1.05-.63.33-1.54.67-1.89,1.33-.2.39.06.76.47.81.73.09,1.56-.5,2.18-.83.67-.35,1.34-.7,2.01-1.06,1.36-.72,2.7-1.48,4.01-2.28.67-.41.09-1.33-.6-1.03h0Z" style="fill: #D2B48c;"/>
      <path d="m54.88,51.79c-1.5.93-3,1.85-4.5,2.78l-2.21,1.37c-.37.23-.73.47-1.09.71-.38.26-.78.49-1.07.85-.33.42-.04,1.07.54.93.8-.2,1.56-.81,2.24-1.26.74-.5,1.49-1,2.23-1.5,1.47-.98,2.93-1.98,4.39-2.97.56-.38.05-1.28-.54-.92h0Z" style="fill: #D2B48c;"/>
      <path d="m59.11,54.37c-2.04.53-4.02,1.18-5.92,2.11-.93.45-1.84.95-2.72,1.49-.45.28-.88.57-1.29.91-.4.32-.95.64-1.05,1.17-.08.42.17.75.6.78.49.04.89-.33,1.29-.57.44-.27.87-.56,1.3-.85.83-.56,1.69-1.08,2.57-1.57,1.76-.96,3.6-1.84,5.5-2.48.62-.21.37-1.16-.27-.99h0Z" style="fill: #D2B48c;"/>
      <path d="m65.97,55.61c-1.95.92-3.92,1.81-5.86,2.77-.93.46-1.87.92-2.8,1.38-.47.23-.91.5-1.36.77-.49.29-.97.54-1.31,1.01-.29.4.1.92.53.93.54.01,1.03-.25,1.52-.45.52-.21,1.04-.42,1.54-.67.93-.47,1.86-.94,2.79-1.41,1.92-.97,3.81-2.01,5.72-3.02.87-.46.11-1.72-.76-1.31h0Z" style="fill: #D2B48c;"/>
      <path d="m69.23,58.14l-5,2.4c-.8.39-1.62.75-2.41,1.17-.75.4-1.79.81-2.29,1.51-.25.35.09.78.46.8.45.02.9-.2,1.31-.37.45-.17.88-.38,1.32-.57.82-.36,1.61-.78,2.4-1.18,1.66-.82,3.31-1.64,4.97-2.47.87-.43.11-1.71-.76-1.3h0Z" style="fill: #D2B48c;"/>
      <path d="m192.1,55.84c3.16,4.59,5.45,10.01,6.93,15.37.75,2.71,1.24,5.48,1.54,8.27.15,1.4.24,2.81.26,4.23.02,1.29-.16,2.72.16,3.98.17.67,1.02.54,1.24,0,.5-1.25.41-2.86.41-4.19,0-1.48-.07-2.96-.22-4.44-.27-2.82-.84-5.62-1.62-8.34-1.63-5.69-4.37-10.64-7.93-15.33-.34-.44-1.1-.03-.77.45h0Z" style="fill: #D2B48c;"/>
      <path d="m190,62.02c2.32,3.72,3.89,7.9,4.94,12.15.53,2.15.86,4.33,1.04,6.54.08,1,.15,2.01.18,3.02.03,1.05-.11,2.2.2,3.21.16.54,1.04.77,1.31.17.83-1.82.55-4.44.38-6.4-.19-2.31-.6-4.61-1.19-6.85-1.18-4.5-3.28-8.59-5.89-12.41-.4-.59-1.36-.05-.97.57h0Z" style="fill: #D2B48c;"/>
      <path d="m185.83,68.54c2.25,4.07,3.7,8.59,4.48,13.17.39,2.28.52,4.58.5,6.89,0,1.13-.07,2.25-.15,3.37-.08,1.13-.34,2.43-.19,3.55.08.59.87.96,1.22.33,1.07-1.89,1.09-4.71,1.14-6.83.06-2.47-.2-4.97-.65-7.39-.89-4.88-2.88-9.4-5.65-13.5-.29-.43-.96-.05-.7.41h0Z" style="fill: #D2B48c;"/>
      <path d="m182.61,72.54c1.9,4.14,2.99,8.83,3.28,13.37.14,2.19.08,4.39-.15,6.57-.12,1.18-.32,2.35-.52,3.51-.16.96-.43,1.9-.27,2.87.07.43.69.56.97.26,1.36-1.52,1.57-4.28,1.81-6.22.3-2.46.29-4.95.04-7.42-.5-4.8-2.01-9.2-4.41-13.37-.28-.48-.95-.06-.73.43h0Z" style="fill: #D2B48c;"/>
      <path d="m177.9,74.79c1.51,4.5,2.53,9.2,2.85,13.94.16,2.3.15,4.61.01,6.91-.07,1.19-.19,2.37-.34,3.55-.14,1.14-.43,2.36-.31,3.51.06.59.84.9,1.18.32,1.13-1.94,1.22-4.74,1.38-6.94.18-2.53.13-5.06-.13-7.58-.5-4.89-1.78-9.6-3.9-14.03-.2-.41-.89-.12-.74.31h0Z" style="fill: #D2B48c;"/>
      <path d="m173.6,78.08c1.13,4.65,1.87,9.41,2.29,14.18.21,2.34.31,4.7.32,7.05.01,2.16-.42,4.7.18,6.77.15.52,1.02.74,1.27.17.88-2.05.65-4.74.6-6.94-.05-2.43-.22-4.87-.49-7.28-.54-4.86-1.61-9.58-3.08-14.24-.22-.7-1.27-.41-1.1.3h0Z" style="fill: #D2B48c;"/>
      <path d="m169.87,82.01c.76,4.32,1.27,8.7,1.58,13.08.15,2.1.23,4.2.24,6.31.01,2-.33,4.3.25,6.24.19.63.99.55,1.21,0,.76-1.94.47-4.43.4-6.48-.07-2.19-.21-4.37-.43-6.55-.43-4.36-1.26-8.6-2.37-12.83-.15-.57-.97-.32-.87.24h0Z" style="fill: #D2B48c;"/>
      <path d="m165.88,85.92c-.49,4.51-.75,9.02-.58,13.56.09,2.26.26,4.51.53,6.76.13,1.04.26,2.08.45,3.12.16.93.23,1.83.92,2.52.31.31.74.12.89-.23.38-.89.08-1.85-.06-2.77-.18-1.2-.37-2.4-.53-3.6-.27-2.09-.49-4.18-.64-6.28-.3-4.35-.36-8.73-.06-13.08.04-.6-.86-.58-.92,0h0Z" style="fill: #D2B48c;"/>
      <path d="m29.95,104.13c-.41,1.47-.69,2.97-.83,4.5-.07.75-.11,1.5-.08,2.26.03.73,0,1.59.26,2.28.13.33.71.44.78,0,.12-.69.01-1.41.03-2.11.01-.75.03-1.51.09-2.26.11-1.49.37-2.95.75-4.39.17-.64-.81-.91-.99-.27h0Z" style="fill: #D2B48c;"/>
      <path d="m32.46,109.74c-.26,1.26-.39,2.56-.3,3.85.04.63.11,1.26.25,1.88.14.62.3,1.37.69,1.87.26.34.88.27.87-.24,0-.62-.24-1.22-.35-1.83-.1-.56-.22-1.12-.27-1.68-.12-1.19-.12-2.4.05-3.59.09-.6-.8-.88-.93-.26h0Z" style="fill: #D2B48c;"/>
      <path d="m37.99,103.99c-1.33,2.63-2.05,5.48-2.12,8.43-.03,1.43.09,2.86.35,4.26.24,1.29.64,3.1,1.58,4.08.35.37,1.05.1,1.03-.43-.03-.68-.32-1.33-.49-1.99-.16-.61-.31-1.23-.44-1.84-.28-1.3-.43-2.62-.44-3.95-.02-2.71.52-5.46,1.6-7.95.3-.7-.69-1.33-1.05-.62h0Z" style="fill: #D2B48c;"/>
      <path d="m43.66,103.24c-1.44,3.11-2.27,6.42-2.36,9.85-.05,1.69.08,3.38.35,5.04.26,1.58.63,3.6,1.62,4.9.3.4,1.12.34,1.06-.29-.13-1.57-.78-3.16-1.08-4.71-.3-1.58-.45-3.18-.45-4.78,0-3.28.61-6.56,1.79-9.62.21-.53-.69-.91-.93-.39h0Z" style="fill: #D2B48c;"/>
      <path d="m47.55,105.58c-1.64,3.15-2.56,6.53-2.66,10.09-.05,1.71.07,3.44.4,5.12.32,1.63.77,3.54,1.96,4.78.27.29.82.07.8-.33-.06-1.55-.69-3.07-1-4.59-.32-1.59-.49-3.19-.49-4.8,0-3.28.69-6.64,2.05-9.64.32-.7-.68-1.32-1.05-.62h0Z" style="fill: #D2B48c;"/>
      <path d="m52.23,105.52c-1.36,3-2.2,6.18-2.4,9.47-.1,1.65-.05,3.3.16,4.94.2,1.6.44,3.3,1.36,4.65.31.46,1.1.32,1.09-.3-.01-1.54-.49-3.06-.7-4.59-.21-1.5-.27-3.03-.21-4.54.13-3.12.81-6.2,2-9.09.31-.74-.97-1.28-1.3-.55h0Z" style="fill: #D2B48c;"/>
      <path d="m55.5,108.12c-.96,3.34-1.42,6.75-1.17,10.23.12,1.68.37,3.34.79,4.97.37,1.45.82,3.51,1.9,4.61.34.35,1.04.1,1-.41-.05-.76-.41-1.49-.65-2.22-.26-.79-.53-1.58-.75-2.39-.41-1.55-.71-3.13-.85-4.73-.29-3.25-.05-6.61.85-9.76.21-.72-.91-1.02-1.11-.31h0Z" style="fill: #D2B48c;"/>
      <path d="m60.49,113.74c-.59,2.54-.86,5.11-.72,7.71.06,1.27.19,2.55.44,3.8.22,1.14.38,2.7,1.27,3.54.3.28.87.18.97-.26.25-1.13-.29-2.38-.5-3.49-.24-1.24-.44-2.48-.54-3.73-.2-2.47-.15-4.98.15-7.44.08-.61-.92-.73-1.06-.14h0Z" style="fill: #D2B48c;"/>
      <path d="m65.6,108.97c-1.38,3.25-2.12,6.59-2.07,10.12.03,1.73.22,3.46.61,5.14.36,1.57.77,3.53,1.99,4.68.32.31.92.1.91-.38-.04-1.56-.83-3.09-1.19-4.6-.39-1.59-.63-3.21-.7-4.84-.15-3.27.3-6.64,1.4-9.73.19-.54-.71-.94-.94-.4h0Z" style="fill: #D2B48c;"/>
      <path d="m71.42,109.71c-.66,2.95-1.08,5.91-1.14,8.93-.03,1.5,0,3.01.15,4.51.14,1.44.37,3.1.91,4.45.22.54,1.07.51,1.07-.15,0-1.41-.23-2.89-.37-4.3-.14-1.44-.26-2.89-.29-4.34-.08-2.95.07-5.94.52-8.86.08-.54-.72-.79-.84-.23h0Z" style="fill: #D2B48c;"/>
      <path d="m161.06,85.9c0,4.74-.04,9.48.03,14.22.03,2.33.09,4.66.14,6.99.02,1.16.05,2.33.09,3.49.03,1.14-.03,2.37.38,3.45.27.7,1.25.77,1.49,0,.64-2,.16-4.63.08-6.69-.09-2.41-.17-4.82-.28-7.24-.21-4.75-.52-9.48-.81-14.22-.04-.72-1.12-.73-1.12,0h0Z" style="fill: #D2B48c;"/>
      <path d="m155.95,87.68c1.05,5.08,1.52,10.29,1.48,15.48-.01,2.51-.17,5.02-.44,7.52-.14,1.32-.32,2.63-.55,3.93-.2,1.14-.55,2.31-.27,3.46.16.64.93.61,1.27.17.75-.99.84-2.36,1.02-3.55.2-1.25.36-2.51.49-3.77.28-2.65.38-5.32.32-7.99-.11-5.26-.93-10.45-2.29-15.54-.18-.68-1.2-.39-1.05.29h0Z" style="fill: #D2B48c;"/>
      <path d="m149.07,91.59c1.25,5.15,2.27,10.28,2.45,15.59.09,2.52.02,5.05-.21,7.56-.12,1.35-.29,2.7-.49,4.04-.19,1.25-.57,2.63-.4,3.89.09.71.97,1.06,1.4.38.68-1.07.87-2.46,1.08-3.69.22-1.3.38-2.61.49-3.92.23-2.82.26-5.65.07-8.47-.36-5.34-1.41-10.78-3.56-15.71-.21-.48-.94-.13-.83.35h0Z" style="fill: #D2B48c;"/>
      <path d="m144.89,95.5c.57,4.7.69,9.48.64,14.21-.02,2.34-.12,4.67-.27,7.01-.15,2.23-.73,4.72-.28,6.92.11.55,1,.69,1.24.16.92-1.97.86-4.47.98-6.6.14-2.5.18-4.99.12-7.49-.12-4.83-.72-9.57-1.47-14.34-.08-.53-1.02-.41-.95.13h0Z" style="fill: #D2B48c;"/>
      <path d="m141.02,97.88c-.14,4.29-.37,8.57-.44,12.86-.04,2.1-.08,4.21-.09,6.31-.01,1.86-.42,4.18.49,5.87.2.37.78.37.97,0,.87-1.63.5-3.83.49-5.62-.01-2.18-.06-4.37-.09-6.55-.07-4.29-.31-8.57-.44-12.86-.02-.56-.86-.56-.87,0h0Z" style="fill: #D2B48c;"/>
      <path d="m137.62,99.48c-.12,4.29-.28,8.57-.33,12.86-.02,2.1-.05,4.21-.07,6.31-.02,1.85-.44,4.27.36,5.98.24.52,1.12.52,1.36,0,.77-1.65.38-3.95.36-5.74-.03-2.18-.05-4.37-.08-6.55-.05-4.29-.21-8.57-.33-12.86-.02-.82-1.26-.83-1.28,0h0Z" style="fill: #D2B48c;"/>
      <path d="m132.67,99.28c-.59,3.7-.92,7.42-.89,11.17.01,1.87.11,3.74.26,5.6.14,1.68.11,3.84,1.09,5.28.31.46,1.04.41,1.2-.16.46-1.6-.08-3.5-.25-5.12-.2-1.86-.32-3.73-.38-5.6-.13-3.66-.03-7.35.28-10.99.06-.74-1.19-.92-1.3-.18h0Z" style="fill: #D2B48c;"/>
      <path d="m129.51,101.07c-.42,4.06-.55,8.13-.53,12.21.02,3.93-.11,8.1.62,11.97.2,1.03,1.75.75,1.78-.24.05-2.02-.21-4.08-.33-6.1-.11-1.96-.19-3.91-.24-5.87-.09-3.99-.06-7.99-.04-11.98,0-.83-1.18-.79-1.27,0h0Z" style="fill: #D2B48c;"/>
      <path d="m125.13,101.09c-.49,4-.86,8-.98,12.02-.06,1.97-.08,3.94-.07,5.91,0,.98,0,1.97.05,2.95.04.88.01,1.83.47,2.6.24.39.92.46,1.13,0,.71-1.51.23-3.69.18-5.33-.06-2.04-.09-4.09-.08-6.14.02-4.01.1-8.02.32-12.02.04-.68-.95-.64-1.03,0h0Z" style="fill: #D2B48c;"/>
      <path d="m119.99,101.7c-.7,4.11-1.09,8.21-1.13,12.38-.02,2.08.03,4.17.16,6.24.07,1.08.16,2.15.27,3.23.1.92.12,1.86.58,2.68.31.56,1.22.45,1.37-.18.24-.97-.01-1.98-.12-2.96-.1-.92-.19-1.84-.26-2.77-.17-2.08-.28-4.16-.31-6.24-.06-4.07.14-8.18.54-12.23.06-.63-1-.77-1.1-.15h0Z" style="fill: #D2B48c;"/>
      <path d="m115.28,102.52c-.79,4.37-1.21,8.72-1.23,13.16,0,2.26.08,4.51.27,6.76.16,1.88.06,4.49,1.01,6.16.32.56,1.28.48,1.43-.19.22-1.02-.03-2.06-.16-3.08-.14-1.12-.26-2.24-.36-3.37-.18-2.09-.31-4.19-.37-6.28-.12-4.33.02-8.71.4-13.03.05-.56-.88-.69-.98-.13h0Z" style="fill: #D2B48c;"/>
      <path d="m109.95,102.68c-.33,4.15-.5,8.3-.51,12.46,0,2.04.03,4.08.1,6.11.04,1.02.07,2.04.13,3.05.05.89-.01,1.9.52,2.65.24.34.8.43,1.03,0,.44-.84.27-1.72.21-2.65-.06-.94-.12-1.88-.18-2.82-.12-2.11-.21-4.23-.29-6.35-.14-4.15-.18-8.31-.15-12.46,0-.57-.83-.55-.87,0h0Z" style="fill: #D2B48c;"/>
      <path d="m107.44,104.13c-1.27,4-1.84,8.18-2,12.36-.08,2.1-.02,4.19.16,6.29.17,1.96.22,4.12,1.24,5.84.22.37.94.36,1.01-.13.3-1.98-.26-3.94-.45-5.93-.18-1.94-.26-3.89-.26-5.84,0-4.14.56-8.24,1.29-12.31.12-.65-.79-.92-.99-.27h0Z" style="fill: #D2B48c;"/>
      <path d="m101.24,105.08c-.49,4.47-.8,8.98-.7,13.48.05,2.24.16,4.49.37,6.73.2,2.1.31,4.42.98,6.43.29.86,1.63.75,1.63-.22-.02-2.22-.55-4.48-.81-6.68-.25-2.16-.45-4.32-.57-6.49-.25-4.42-.3-8.82,0-13.24.04-.58-.83-.56-.89,0h0Z" style="fill: #D2B48c;"/>
      <path d="m97.72,104.9c-1.35,8.7-1.99,17.47-1.7,26.28.02.59.6,1.11,1.2.92,1.36-.43,2.12-1.93,1.45-3.24-.18-.35-.83-.3-.9.12-.11.7-.38,1.07-1.05,1.29.4.31.8.61,1.2.92-.36-8.71-.1-17.47.95-26.13.08-.65-1.05-.81-1.15-.16h0Z" style="fill: #D2B48c;"/>
      <path d="m96.13,103.29c-1.41,3.9-2.35,7.9-2.77,12.03-.21,2.05-.3,4.12-.26,6.19.02,1,.09,1.99.18,2.98.09.94.1,1.76.79,2.45.21.21.58.17.74-.09.45-.78.32-1.5.24-2.36-.09-.99-.14-1.99-.18-2.98-.08-1.99-.06-3.99.08-5.98.29-4.05,1.03-8.08,2.2-11.96.2-.65-.78-.9-1.01-.28h0Z" style="fill: #D2B48c;"/>
      <path d="m89.99,103.21c-1.05,5.1-1.83,10.25-2.29,15.44-.23,2.6-.38,5.21-.44,7.82-.04,1.65-.65,4.48,1.27,5.25.26.11.66-.01.84-.22.78-.9-.29-2.56-.9-1.47-.16.28.05.55.34.59-.12-.06-.23-.11-.35-.17.19-.11.38-.22.57-.33.39.21.45.22.17.02-.15-.12-.19-.29-.12-.5-.07-.47,0-.99,0-1.47,0-1.14.01-2.28.04-3.43.06-2.36.15-4.73.31-7.09.32-4.74.87-9.47,1.64-14.16.12-.7-.94-1.02-1.08-.3h0Z" style="fill: #D2B48c;"/>
      <path d="m85.64,107.27c-.82,3.4-1.47,6.84-1.87,10.31-.2,1.73-.35,3.47-.46,5.21-.1,1.62-.36,3.41.34,4.93.17.38.81.37.98,0,.67-1.4.52-3.03.58-4.54.07-1.74.19-3.48.36-5.21.33-3.46.81-6.89,1.48-10.3.18-.92-1.19-1.32-1.42-.39h0Z" style="fill: #D2B48c;"/>
      <path d="m81.67,104.87c-1.51,4.1-2.47,8.33-2.99,12.66-.26,2.16-.38,4.34-.39,6.52,0,1.98-.16,4.29.73,6.1.22.44.91.31,1.03-.13.51-1.97.05-4.19.03-6.2-.02-2.02.06-4.04.24-6.05.37-4.27,1.23-8.49,2.41-12.6.2-.7-.83-.96-1.07-.29h0Z" style="fill: #D2B48c;"/>
      <path d="m77.34,104.9c-1.22,2.85-2.05,5.79-2.44,8.86-.2,1.56-.29,3.13-.23,4.7.05,1.43.11,3.14.71,4.45.22.48.86.18.9-.24.14-1.41-.2-2.94-.25-4.36-.05-1.46-.02-2.93.11-4.38.26-2.96.96-5.9,2.05-8.66.19-.48-.64-.84-.84-.36h0Z" style="fill: #D2B48c;"/>
      <path d="m145.15,24.12c-1.8,1.85-3.53,3.76-5.14,5.79-.78.98-1.54,1.98-2.26,3.01-.37.53-.74,1.06-1.1,1.6-.31.48-.76,1.21-.73,1.79.02.34.37.73.75.57,1.04-.43,1.68-1.87,2.27-2.77.71-1.08,1.44-2.14,2.2-3.19,1.49-2.09,3.06-4.12,4.73-6.07.43-.5-.26-1.21-.73-.73h0Z" style="fill: #D2B48c;"/>
      <path d="m138.79,26.34c-2.29,1.61-4.3,3.56-5.96,5.82-.81,1.1-1.53,2.27-2.13,3.5-.31.63-.63,1.28-.85,1.95-.19.59-.55,1.48-.32,2.09.12.33.52.58.86.35.52-.36.69-1.03.96-1.59.28-.6.52-1.23.8-1.83.57-1.21,1.22-2.38,1.96-3.48,1.48-2.22,3.32-4.19,5.43-5.82.56-.43-.18-1.39-.76-.98h0Z" style="fill: #D2B48c;"/>
      <path d="m133.06,26.4c-1.88,1.67-3.53,3.61-4.83,5.76-.64,1.07-1.21,2.19-1.68,3.34-.23.58-.44,1.16-.63,1.76-.2.62-.39,1.2-.1,1.83.12.27.56.38.79.21.49-.36.63-.86.81-1.42.18-.56.37-1.12.59-1.67.44-1.12.96-2.22,1.55-3.27,1.18-2.09,2.62-4.02,4.34-5.7.55-.54-.27-1.34-.84-.84h0Z" style="fill: #D2B48c;"/>
      <path d="m127.32,27.87c-1.68,1.78-3.18,3.72-4.45,5.81-.63,1.03-1.21,2.1-1.71,3.19-.25.54-.46,1.09-.67,1.64-.22.58-.55,1.24-.48,1.87.06.54.67.88,1.11.46.42-.4.57-.98.8-1.5.23-.54.49-1.06.73-1.6.49-1.07,1.01-2.12,1.59-3.14,1.16-2.05,2.5-4,4.01-5.81.53-.64-.34-1.55-.93-.93h0Z" style="fill: #D2B48c;"/>
      <path d="m122.52,29.91c-1.16.7-2.22,1.42-3.19,2.38-.98.97-1.85,2.05-2.6,3.21-.74,1.13-1.38,2.34-1.85,3.6-.42,1.11-1.16,2.78-.48,3.9.14.23.49.36.73.19.98-.73,1.15-2.22,1.57-3.3.46-1.16,1-2.28,1.65-3.35.64-1.04,1.36-2.03,2.18-2.93.85-.95,1.77-1.92,2.75-2.73.55-.46-.16-1.34-.76-.98h0Z" style="fill: #D2B48c;"/>
      <path d="m117.03,29.56c-1.95,1.56-3.61,3.48-4.87,5.63-.62,1.06-1.14,2.17-1.55,3.33-.38,1.06-.9,2.53-.43,3.63.13.29.57.31.77.1.36-.37.57-1.01.74-1.5.18-.53.34-1.07.52-1.6.39-1.1.87-2.17,1.45-3.19,1.15-2.03,2.66-3.82,4.46-5.3.78-.64-.33-1.72-1.1-1.1h0Z" style="fill: #D2B48c;"/>
      <path d="m112.89,29.43c-1.81,2.14-3.53,4.38-5.02,6.75-.74,1.18-1.47,2.37-2.08,3.62-.31.63-.61,1.26-.89,1.89-.28.63-.63,1.24-.69,1.94-.05.54.69.78,1.04.43.47-.47.72-1.13,1.03-1.71.31-.58.63-1.15.95-1.72.7-1.21,1.36-2.43,2.08-3.62,1.43-2.34,2.93-4.63,4.6-6.81.44-.58-.54-1.35-1.02-.79h0Z" style="fill: #D2B48c;"/>
      <path d="m106.59,31.08c-1.66,1.68-3.2,3.49-4.59,5.4-.68.93-1.33,1.88-1.92,2.86-.3.51-.58,1.03-.86,1.55-.29.55-.62,1.1-.71,1.72-.09.63.6,1.17,1.12.65.41-.4.64-.87.92-1.37.29-.51.6-1.02.91-1.52.6-.98,1.2-1.96,1.84-2.91,1.3-1.9,2.74-3.69,4.31-5.37.64-.68-.37-1.7-1.03-1.03h0Z" style="fill: #D2B48c;"/>
      <path d="m101.65,30.98c-1.82,2.29-3.5,4.68-4.97,7.2-.72,1.23-1.41,2.49-2.04,3.77-.62,1.27-1.33,2.66-1.46,4.09-.04.43.59.69.87.36.88-1.05,1.4-2.41,1.99-3.63.63-1.29,1.28-2.56,1.98-3.81,1.4-2.49,2.94-4.9,4.63-7.21.43-.58-.55-1.35-1.01-.78h0Z" style="fill: #D2B48c;"/>
      <path d="m94.33,33.53c-1.52,2.48-3.02,4.96-4.52,7.45-.75,1.24-1.51,2.48-2.24,3.74-.34.59-.67,1.18-1,1.77-.36.63-.75,1.2-.84,1.93-.06.5.65.9,1.05.6.59-.44.89-1.06,1.26-1.68.35-.58.7-1.16,1.05-1.74.74-1.25,1.44-2.52,2.15-3.79,1.43-2.53,2.86-5.06,4.27-7.6.43-.77-.72-1.43-1.17-.69h0Z" style="fill: #D2B48c;"/>
      <path d="m90.66,32.71c-2.21,2.04-4.16,4.34-5.81,6.85-.82,1.25-1.55,2.55-2.2,3.89-.31.64-.59,1.29-.85,1.96-.27.71-.62,1.46-.64,2.24-.01.66.79.74,1.12.3.43-.56.63-1.31.92-1.95.28-.62.57-1.24.87-1.86.63-1.31,1.33-2.58,2.1-3.81,1.52-2.45,3.34-4.7,5.38-6.74.57-.57-.29-1.43-.88-.88h0Z" style="fill: #D2B48c;"/>
      <path d="m82.83,34.96c-1.33,2.52-2.65,5.05-3.98,7.57-.64,1.22-1.32,2.42-1.92,3.65-.3.62-.57,1.26-.87,1.88-.31.65-.74,1.33-.87,2.04-.09.51.5.94.91.53.49-.48.78-1.14,1.12-1.73.37-.64.76-1.26,1.12-1.9.67-1.2,1.28-2.44,1.91-3.66,1.32-2.53,2.64-5.05,3.96-7.58.48-.92-.91-1.73-1.39-.81h0Z" style="fill: #D2B48c;"/>
      <path d="m78.73,37.25c-2.19,1.57-4.09,3.47-5.65,5.67-.76,1.07-1.42,2.2-1.98,3.38-.29.61-.56,1.23-.77,1.88-.22.67-.47,1.31-.37,2.02.07.48.79.63,1.08.29.42-.49.56-1.11.8-1.7.22-.55.45-1.11.7-1.65.52-1.13,1.13-2.22,1.83-3.25,1.38-2.05,3.13-3.88,5.12-5.35.77-.56.03-1.86-.76-1.3h0Z" style="fill: #D2B48c;"/>
      <path d="m71.49,36.12c-1.61,2.18-3.16,4.41-4.59,6.72-.71,1.13-1.39,2.28-2.05,3.44-.63,1.11-1.53,2.35-1.63,3.63-.05.62.74.81,1.13.47.51-.45.75-1.01,1.06-1.6.31-.59.62-1.18.94-1.77.63-1.18,1.28-2.34,1.95-3.5,1.35-2.3,2.78-4.56,4.31-6.74.48-.69-.63-1.31-1.12-.65h0Z" style="fill: #D2B48c;"/>
      <path d="m65.7,36.49c-1.68,1.55-3.09,3.41-4.21,5.4-.55.98-1.03,2-1.42,3.05-.41,1.1-.8,2.23-.84,3.41-.02.63.98.96,1.25.34.44-.99.7-2.04,1.09-3.05.39-1,.83-1.97,1.35-2.91,1.04-1.9,2.35-3.61,3.84-5.18.67-.7-.35-1.72-1.06-1.06h0Z" style="fill: #D2B48c;"/>
      <path d="m47.87,31.32c-2.9,1.41-5.78,2.88-8.51,4.62-2.65,1.68-5.48,3.41-7.53,5.8-.25.29.06.73.42.54,2.79-1.49,5.23-3.6,7.86-5.35,2.65-1.76,5.33-3.48,8.13-4.99.41-.22.05-.82-.36-.62h0Z" style="fill: #D2B48c;"/>
      <path d="m50.23,33.68c-2.63,1.26-5.27,2.48-7.88,3.78-1.28.64-2.56,1.27-3.83,1.92-1.22.62-2.59,1.27-3.65,2.15-.35.3.03.83.43.73,1.29-.31,2.61-1.02,3.79-1.61,1.32-.66,2.64-1.34,3.96-2.01,2.59-1.32,5.14-2.72,7.7-4.08.58-.31.07-1.16-.51-.88h0Z" style="fill: #D2B48c;"/>
      <path d="m52.72,37.07c-2.74,1.18-5.44,2.41-8.08,3.79-1.3.68-2.58,1.38-3.85,2.1-1.21.68-2.62,1.46-3.61,2.45-.3.3,0,.9.43.74,1.28-.45,2.55-1.29,3.71-1.99,1.29-.78,2.6-1.54,3.92-2.27,2.59-1.44,5.21-2.84,7.89-4.12.48-.23.06-.9-.41-.7h0Z" style="fill: #D2B48c;"/>
      <path d="m53.3,39.29c-2.19,1.75-4.47,3.4-6.78,4.97-1.11.75-2.25,1.48-3.38,2.2-1.15.73-2.54,1.33-3.52,2.29-.45.44.01,1.21.61,1.04,1.31-.36,2.53-1.31,3.68-2.03,1.21-.76,2.39-1.57,3.56-2.39,2.32-1.64,4.52-3.4,6.67-5.25.58-.5-.25-1.29-.83-.83h0Z" style="fill: #D2B48c;"/>
      <path d="m129.78,13.24c-1.74,1.24-3.48,2.47-5.2,3.73-.86.63-1.73,1.24-2.57,1.89-.83.65-1.75,1.25-2.46,2.03-.43.48.1,1.12.66.86.96-.44,1.81-1.14,2.68-1.74.85-.59,1.67-1.22,2.5-1.84,1.69-1.25,3.37-2.52,5.05-3.8.66-.5.04-1.63-.66-1.13h0Z" style="fill: #D2B48c;"/>
      <path d="m125.26,12.03c-2.05,1.55-4.1,3.1-6.13,4.67-1.01.78-2.03,1.56-3.02,2.37-1.01.82-2.12,1.6-2.99,2.56-.41.46.11,1.16.66.86,1.11-.61,2.09-1.47,3.09-2.24,1.03-.79,2.04-1.61,3.05-2.42,2.02-1.62,4.02-3.27,6.02-4.92.49-.4-.17-1.27-.68-.88h0Z" style="fill: #D2B48c;"/>
      <path d="m118.74,12.64c-2.6,1.7-5.21,3.41-7.78,5.15-1.24.84-2.53,1.65-3.73,2.55-1.23.92-2.58,1.78-3.64,2.9-.24.25,0,.79.37.64,1.42-.58,2.69-1.5,3.98-2.32,1.27-.8,2.49-1.71,3.72-2.57,2.56-1.78,5.09-3.61,7.62-5.43.55-.4.04-1.32-.54-.93h0Z" style="fill: #D2B48c;"/>
      <path d="m109.15,15c-2.26,1.18-4.47,2.46-6.61,3.86-2.09,1.36-4.17,2.9-5.94,4.66-.31.31.09.86.47.61,2.1-1.36,4.14-2.82,6.23-4.2,2.1-1.38,4.26-2.66,6.49-3.84.72-.38.08-1.47-.64-1.09h0Z" style="fill: #D2B48c;"/>
      <path d="m208.02,17.37c1.06,2.65,1.76,5.44,2.03,8.28.13,1.4.2,2.8.16,4.21-.04,1.37-.36,2.83-.24,4.19.03.39.63.67.83.22.55-1.23.6-2.78.67-4.11.07-1.55.03-3.11-.16-4.66-.36-2.96-1.14-5.81-2.31-8.55-.24-.56-1.21-.15-.99.42h0Z" style="fill: #D2B48c;"/>
      <path d="m203.21,18.34c1.06,2.46,1.65,5.15,1.84,7.81.09,1.29.07,2.58-.04,3.87-.12,1.3-.49,2.66-.46,3.95.01.67.93.95,1.28.35.69-1.19.86-2.81.98-4.16.12-1.42.09-2.87-.06-4.29-.31-2.87-1.18-5.57-2.5-8.14-.36-.69-1.32-.08-1.03.6h0Z" style="fill: #D2B48c;"/>
      <path d="m198.48,18.96c.91,3.02,1.38,6.19,1.45,9.35.03,1.53,0,3.06-.14,4.58-.13,1.43-.67,3.1-.43,4.52.09.55.84.53,1.1.14.81-1.21.84-3.24.96-4.66.13-1.58.17-3.17.06-4.75-.21-3.24-.91-6.39-1.97-9.46-.22-.64-1.22-.38-1.02.28h0Z" style="fill: #D2B48c;"/>
      <path d="m194.7,22.1c.68,2.87,1.03,5.77,1.17,8.71.06,1.38.09,2.77.05,4.15-.02.75-.08,1.49-.12,2.24-.04.65-.13,1.3.2,1.88.17.3.66.4.9.12.8-.95.57-2.74.57-3.91,0-1.54-.07-3.1-.23-4.63-.32-2.96-.96-5.89-1.78-8.75-.14-.47-.85-.28-.74.2h0Z" style="fill: #D2B48c;"/>
      <path d="m188.89,24.41c.32,2.7.56,5.41.63,8.12.04,1.33.04,2.67.01,4.01-.01.67-.03,1.33-.03,2,0,.66-.08,1.35.1,1.99.11.4.78.57.97.13.5-1.16.44-2.71.46-3.96.02-1.39,0-2.77-.08-4.16-.14-2.78-.45-5.54-.96-8.27-.12-.61-1.18-.48-1.1.15h0Z" style="fill: #D2B48c;"/>
      <path d="m183.91,26.82c0,1.95.13,3.89.4,5.83.26,1.87.67,3.87,1.43,5.6.24.55.98.12.9-.38-.15-.92-.38-1.81-.57-2.73-.19-.91-.31-1.83-.46-2.75-.29-1.84-.43-3.71-.46-5.58-.01-.79-1.23-.8-1.23,0h0Z" style="fill: #D2B48c;"/>
      <path d="m30.06,61.55c-4.17,5.03-7.67,10.79-9.58,17.06-.15.5.56.66.75.21,2.49-5.91,5.5-11.53,9.6-16.49.45-.54-.32-1.32-.77-.77h0Z" style="fill: #D2B48c;"/>
      <path d="m31.83,63.31c-3.67,3.89-6.66,8.54-8.16,13.7-.15.51.6.69.78.22,1.89-4.89,4.37-9.49,7.86-13.43.29-.33-.18-.81-.49-.49h0Z" style="fill: #D2B48c;"/>
      <path d="m35.72,61.61c-2.27,2.39-4.22,5.06-5.78,7.96-.75,1.39-1.4,2.83-1.97,4.31-.58,1.52-1.16,3.18-1.29,4.81-.04.54.7.55.87.12.57-1.41.92-2.92,1.46-4.35.57-1.52,1.22-2.99,1.99-4.42,1.49-2.78,3.33-5.35,5.49-7.65.48-.51-.29-1.29-.77-.77h0Z" style="fill: #D2B48c;"/>
      <path d="m37.96,65.45c-2.01,1.89-3.75,4.06-5.13,6.44-.68,1.17-1.28,2.39-1.76,3.65-.46,1.2-1.03,2.68-.99,3.98.01.41.59.6.8.22.31-.55.46-1.18.68-1.77.22-.59.45-1.18.69-1.76.51-1.25,1.09-2.47,1.75-3.64,1.3-2.31,2.93-4.41,4.84-6.25.57-.55-.29-1.42-.87-.87h0Z" style="fill: #D2B48c;"/>
      <path d="m39.57,68.67c-1.49,1.84-2.81,3.8-3.89,5.9-.52,1.01-1.01,2.05-1.42,3.11-.41,1.05-.86,2.31-.88,3.45,0,.37.5.49.68.19.28-.47.44-1.01.66-1.51.21-.5.43-.99.64-1.49.43-1.05.88-2.1,1.4-3.11,1.02-2.02,2.23-3.95,3.61-5.74.43-.56-.34-1.36-.8-.8h0Z" style="fill: #D2B48c;"/>
      <path d="m41.98,71.26c-.53.8-1.06,1.6-1.59,2.4-.53.8-1.04,1.61-1.52,2.44-.12.21-.05.5.16.62.23.14.47.03.62-.16.58-.77,1.14-1.55,1.67-2.35l1.6-2.39c.16-.25.05-.61-.2-.75-.27-.16-.58-.05-.75.2h0Z" style="fill: #D2B48c;"/>
      <path d="m182.69,57.45c1.4,1.56,2.68,3.23,3.82,4.99,1.13,1.75,2.12,3.57,3.16,5.37.24.41.96.14.79-.33-1.48-4.02-4.18-7.61-7.1-10.7-.42-.44-1.06.22-.66.66h0Z" style="fill: #D2B48c;"/>
      <path d="m180.88,64.09c1.24,1.06,2.37,2.25,3.33,3.56.48.65.94,1.31,1.37,2,.21.34.45.67.66,1.02.22.35.41.75.73,1.02.25.22.71.09.69-.29-.02-.43-.21-.81-.38-1.19-.17-.39-.35-.78-.57-1.14-.46-.75-.97-1.47-1.53-2.15-1.1-1.32-2.35-2.51-3.72-3.56-.42-.32-.97.39-.57.74h0Z" style="fill: #D2B48c;"/>
      <path d="m177.03,66.15c.59,1.27,1.2,2.52,1.85,3.76.31.6.61,1.2.95,1.78.35.61.65,1.32,1.17,1.81.4.38.97,0,.87-.51-.13-.69-.58-1.35-.9-1.97-.31-.6-.65-1.18-.99-1.76-.7-1.21-1.41-2.4-2.16-3.58-.32-.5-1.02-.07-.78.46h0Z" style="fill: #D2B48c;"/>
      <path d="m173.13,70.19c.89.97,1.73,2,2.44,3.11.36.56.63,1.17.99,1.72.37.58.61,1.26,1.07,1.78.34.39,1.04.08,1.03-.43-.02-.72-.39-1.36-.65-2.02-.27-.67-.73-1.29-1.14-1.87-.84-1.17-1.77-2.23-2.89-3.13-.59-.47-1.37.27-.84.84h0Z" style="fill: #D2B48c;"/>
      <path d="m169.87,72.56c.49,1.11.98,2.22,1.48,3.33.24.54.49,1.08.75,1.62.13.27.25.54.38.81.15.31.32.56.55.82.18.21.52.23.75.1.25-.15.33-.42.28-.7-.1-.61-.39-1.15-.65-1.71-.26-.56-.51-1.12-.78-1.68-.53-1.09-1.05-2.18-1.58-3.27-.16-.33-.63-.42-.93-.24-.35.2-.39.59-.24.93h0Z" style="fill: #D2B48c;"/>
      <path d="m164.43,75.63c.75,1.39,1.43,2.82,2.21,4.19.38.67.75,1.36,1.15,2.03.4.67.79,1.39,1.32,1.96.29.31.85-.01.72-.42-.24-.74-.68-1.44-1.06-2.11-.39-.67-.8-1.33-1.2-1.99-.82-1.35-1.72-2.65-2.57-3.99-.23-.36-.77-.04-.57.33h0Z" style="fill: #D2B48c;"/>
      <path d="m157.11,79.04c1.15,1.44,2.13,2.99,3,4.61.87,1.6,1.53,3.3,2.39,4.9.24.44.8.11.74-.31-.27-1.87-1.13-3.69-2.05-5.32-.93-1.66-2.09-3.2-3.35-4.62-.45-.51-1.15.22-.74.74h0Z" style="fill: #D2B48c;"/>
      <path d="m152.84,83.67c.26,1.86.51,3.73.77,5.59.13.92.34,1.8.51,2.71.17.94.33,1.88.54,2.81.07.31.57.24.55-.07-.05-.95-.15-1.9-.24-2.85-.09-.93-.12-1.85-.24-2.78-.26-1.9-.51-3.8-.77-5.71-.1-.73-1.22-.42-1.11.31h0Z" style="fill: #D2B48c;"/>
      <path d="m191.43,51.86c.89.74,1.78,1.48,2.7,2.19.48.38.95.75,1.44,1.12.47.35.97.62,1.5.87.53.25,1.01-.35.62-.81-.38-.44-.77-.86-1.23-1.22-.48-.37-.97-.73-1.46-1.1-.93-.69-1.87-1.36-2.83-2.02-.57-.4-1.29.52-.75.97h0Z" style="fill: #D2B48c;"/>
      <path d="m195.46,47.73c.61.99,1.23,1.97,1.87,2.94.31.47.62.94.93,1.41.35.52.73.99,1.13,1.46.44.51,1.19-.14.9-.69-.27-.5-.54-.98-.86-1.45-.33-.48-.67-.95-1.01-1.43-.67-.94-1.34-1.86-2.03-2.78-.18-.23-.47-.35-.74-.19-.25.14-.35.49-.19.74h0Z" style="fill: #D2B48c;"/>
      <path d="m215.97,23.29c-2.28,1.18-4.78,2.07-7.16,3.05-2.28.94-4.62,1.78-6.96,2.59-2.28.78-4.58,1.46-6.91,2.07-2.44.64-5.06,1.02-7.42,1.9-.59.22-.53,1.13.15,1.14,2.4.01,4.96-.69,7.28-1.3,2.55-.67,5.06-1.47,7.53-2.37,2.32-.84,4.58-1.83,6.81-2.9,2.39-1.15,4.55-2.6,6.82-3.93.16-.09.02-.33-.14-.24h0Z" style="fill: #D2B48c;"/>
      <path d="m214.13,18.02c-3.96,2.43-8.13,4.51-12.44,6.25-2.04.82-4.12,1.55-6.21,2.21-2.11.67-4.43,1.07-6.44,1.98-.49.22-.23,1,.27.99,2.18-.05,4.51-.9,6.56-1.57,2.15-.7,4.25-1.53,6.32-2.44,4.3-1.89,8.37-4.27,12.2-6.99.26-.18.03-.6-.25-.43h0Z" style="fill: #D2B48c;"/>
      <path d="m209.9,12.86c-5.56,3.82-11.58,7.08-17.74,9.83-3.16,1.42-6.4,2.67-9.67,3.8-1.53.53-3.07,1.02-4.6,1.56-1.55.55-3.2.94-4.7,1.61-.37.16-.18.78.2.76,3.26-.22,6.66-1.38,9.73-2.45,3.19-1.11,6.32-2.39,9.39-3.81,6.32-2.91,12.18-6.5,17.82-10.56.44-.32.03-1.06-.43-.74h0Z" style="fill: #D2B48c;"/>
      <path d="m205.88,10.43c-4.82,2.08-9.63,4.19-14.43,6.31-4.75,2.1-9.75,4.01-14.21,6.68-.47.28-.16,1.07.38.9,4.93-1.57,9.66-4.04,14.35-6.19,4.83-2.22,9.66-4.45,14.48-6.72.66-.31.08-1.25-.57-.97h0Z" style="fill: #D2B48c;"/>
      <path d="m201.15,8.14c-4.58,2.16-9.15,4.34-13.72,6.53-2.24,1.08-4.49,2.15-6.73,3.24-2.28,1.11-4.7,2.2-6.8,3.61-.52.34-.21,1.28.45,1.06,2.38-.81,4.69-2.05,6.94-3.17,2.22-1.11,4.44-2.24,6.66-3.37,4.58-2.32,9.15-4.66,13.72-7.02.59-.3.07-1.15-.51-.88h0Z" style="fill: #D2B48c;"/>
      <path d="m194,6.3c-3.27,1.31-6.54,2.6-9.8,3.93-3.17,1.29-6.5,2.46-9.51,4.09-.55.3-.18,1.19.43,1.01,3.35-.99,6.59-2.53,9.81-3.89,3.18-1.34,6.36-2.7,9.53-4.06.61-.26.17-1.34-.46-1.09h0Z" style="fill: #D2B48c;"/>
      <path d="m186.96,4.33c-3.25,1.27-6.44,2.68-9.55,4.26-3.06,1.55-6.27,3.21-8.97,5.33-.31.25.09.69.41.53,1.51-.76,2.94-1.7,4.42-2.53,1.53-.85,3.07-1.7,4.62-2.51,3.05-1.6,6.18-3.07,9.35-4.42.37-.16.1-.8-.28-.66h0Z" style="fill: #D2B48c;"/>
      <path d="m24.56,32.09c-1.77,1.86-3.36,3.82-4.66,6.04-.63,1.08-1.2,2.2-1.71,3.35-.51,1.16-1.05,2.39-1.15,3.66-.04.52.72.69.96.26.57-1.04.89-2.23,1.33-3.33.46-1.15.99-2.26,1.59-3.35,1.18-2.15,2.57-4.24,4.21-6.06.35-.39-.21-.96-.57-.57h0Z" style="fill: #D2B48c;"/>
      <path d="m29.22,31.16c-2.57,2.16-4.71,4.83-6.25,7.82-.75,1.47-1.38,3.01-1.83,4.6-.42,1.48-.99,3.37-.49,4.88.12.37.65.48.86.11.72-1.32.78-2.99,1.16-4.43.42-1.55.97-3.06,1.68-4.5,1.42-2.88,3.36-5.45,5.76-7.58.61-.55-.28-1.41-.89-.89h0Z" style="fill: #D2B48c;"/>
      <path d="m33.53,32.15c-2.88,1.91-5.3,4.42-7.08,7.38-.88,1.47-1.6,3.04-2.15,4.66-.52,1.54-1.16,3.44-.62,5.04.12.37.65.48.86.11.76-1.34.85-3.01,1.27-4.48.45-1.56,1.07-3.06,1.85-4.48,1.57-2.87,3.75-5.41,6.39-7.33.53-.39.04-1.28-.53-.9h0Z" style="fill: #D2B48c;"/>
      <path d="m35.59,35.16c-2.33,1.82-4.28,4.13-5.69,6.73-.69,1.27-1.25,2.61-1.68,3.98-.22.71-.41,1.43-.54,2.15-.11.67-.21,1.53.08,2.16.2.43.76.3.98,0,.35-.46.46-1.26.59-1.82.16-.69.31-1.37.52-2.05.4-1.32.93-2.58,1.59-3.79,1.32-2.42,3.12-4.53,5.28-6.24.81-.64-.33-1.77-1.14-1.14h0Z" style="fill: #D2B48c;"/>
      <path d="m38.01,38.03c-1.71,1.18-3.12,2.68-4.15,4.49-.5.88-.94,1.82-1.23,2.79-.14.49-.27.98-.34,1.49-.04.27.01.5.02.77,0,.27,0,.54,0,.81.02.69,1.07.88,1.24.17.06-.23.1-.48.19-.71.08-.21.2-.4.27-.61.14-.42.23-.86.38-1.28.3-.86.65-1.69,1.11-2.48.91-1.58,2.13-2.98,3.56-4.09.77-.59-.24-1.91-1.04-1.35h0Z" style="fill: #D2B48c;"/>
      <path d="m68.17,62.92c-.46.32-.82.5-1.19.92-.36.41-.72.82-1.06,1.25-.73.9-1.38,1.86-2.02,2.83-1.32,2.01-2.49,4.11-3.51,6.29-1.97,4.17-3.63,8.66-3.83,13.31-.02.43.59.47.72.1,1.48-4.29,2.63-8.67,4.56-12.8.93-1.99,1.98-3.93,3.13-5.8,1.18-1.92,2.66-3.71,3.55-5.76.09-.2-.11-.5-.34-.34h0Z" style="fill: #D2B48c;"/>
      <path d="m66,63.14c-2.83,2.64-5.31,5.6-7.37,8.88-1.03,1.63-1.96,3.33-2.76,5.09-.79,1.74-1.64,3.57-1.97,5.46-.11.62.79,1.13,1.1.46.78-1.7,1.32-3.5,2.08-5.21.77-1.71,1.62-3.39,2.58-5,1.95-3.28,4.29-6.33,6.96-9.05.4-.4-.21-1-.62-.62h0Z" style="fill: #D2B48c;"/>
      <path d="m60.37,64.07c-2,2.75-3.83,5.62-5.46,8.61-.82,1.49-1.58,3.01-2.28,4.55-.67,1.47-1.43,3-1.79,4.58-.11.49.57.81.83.35.82-1.47,1.37-3.11,2.07-4.64.68-1.5,1.4-2.98,2.16-4.44,1.54-2.97,3.27-5.84,5.16-8.6.29-.43-.39-.81-.69-.4h0Z" style="fill: #D2B48c;"/>
      <path d="m57.34,63.27c-2.05,1.83-3.77,3.98-5.18,6.34-.68,1.13-1.27,2.32-1.78,3.53-.54,1.28-1.06,2.59-1.25,3.96-.06.42.65.61.82.22.5-1.18.84-2.41,1.32-3.59.51-1.24,1.12-2.44,1.78-3.6,1.32-2.31,2.97-4.42,4.81-6.34.33-.34-.17-.83-.52-.52h0Z" style="fill: #D2B48c;"/>
      <path d="m50.77,61.72c-1.86,4.28-3.73,8.55-5.47,12.89-.07.18.23.31.31.13,1.95-4.22,3.76-8.49,5.6-12.76.13-.3-.31-.56-.45-.26h0Z" style="fill: #D2B48c;"/>
      <path d="m71.66,62.55c-1.99,2.61-3.84,5.32-5.45,8.18-.79,1.41-1.53,2.84-2.22,4.3-.69,1.45-1.37,2.9-1.72,4.47-.07.32.36.53.54.23.83-1.38,1.41-2.88,2.09-4.34.68-1.46,1.42-2.9,2.19-4.32,1.54-2.83,3.22-5.59,5.09-8.22.23-.32-.29-.61-.53-.31h0Z" style="fill: #D2B48c;"/>
      <path d="m81.31,59.29c-4.03,4.2-7.51,9.1-9.58,14.56-.11.3.37.5.51.22,2.62-5.15,5.59-10.05,9.5-14.34.27-.3-.16-.73-.44-.44h0Z" style="fill: #D2B48c;"/>
      <path d="m104.49,56.17c-2.13,2.57-3.61,5.57-4.83,8.67-1.2,3.07-2.39,6.56-2.4,9.89,0,.4.56.45.68.09.51-1.54.8-3.16,1.24-4.72.44-1.57.92-3.13,1.48-4.66,1.15-3.13,2.68-6.09,4.08-9.09.07-.15-.12-.34-.25-.19h0Z" style="fill: #D2B48c;"/>
      <path d="m109.2,56.84c-2.15,2.48-3.86,5.31-5.02,8.39-.59,1.55-1.03,3.17-1.32,4.81-.27,1.55-.48,3.26-.23,4.82.07.46.84.45.92,0,.26-1.53.3-3.09.57-4.63.26-1.49.64-2.97,1.14-4.4,1.05-3.01,2.61-5.82,4.65-8.28.4-.49-.28-1.2-.71-.71h0Z" style="fill: #D2B48c;"/>
      <path d="m111.36,60.23c-.39,2.64-.74,5.29-1.09,7.94-.36,2.7-.81,5.44-.93,8.16-.01.31.47.38.54.07.57-2.6.83-5.29,1.17-7.92.35-2.72.7-5.44,1.01-8.16.04-.39-.63-.49-.69-.09h0Z" style="fill: #D2B48c;"/>
      <path d="m13.86,80.72c-4.47,6.88-6.82,15.48-5.64,23.66.05.33.59.25.58-.08-.13-8.2,1.52-16.09,5.78-23.16.28-.46-.43-.86-.71-.42h0Z" style="fill: #D2B48c;"/>
      <path d="m15.82,88.02c-2.12,2.15-3.7,4.83-4.52,7.73-.41,1.44-.63,2.95-.66,4.44-.04,1.45.07,3.11.69,4.44.25.53,1.08.25,1.08-.29-.02-1.34-.28-2.67-.28-4.02,0-1.42.19-2.81.54-4.19.69-2.74,2-5.26,3.93-7.33.48-.51-.28-1.28-.77-.77h0Z" style="fill: #D2B48c;"/>
      <path d="m18.02,92.95c-.93,2.36-1.57,4.82-1.83,7.34-.12,1.23-.15,2.48-.11,3.72.04,1.19.09,2.53.58,3.63.18.4.69.13.73-.2.14-1.2-.1-2.49-.13-3.7-.03-1.15.01-2.3.11-3.45.2-2.43.64-4.82,1.38-7.14.15-.47-.55-.64-.72-.2h0Z" style="fill: #D2B48c;"/>
      <path d="m21.13,96.93c-.59,1.89-.89,3.86-.93,5.84-.03,1.89.13,4.07.99,5.78.25.49,1.15.28,1.08-.29-.11-.95-.36-1.85-.52-2.79-.14-.89-.22-1.79-.24-2.69-.06-1.88.2-3.74.71-5.55.2-.7-.87-.99-1.08-.3h0Z" style="fill: #D2B48c;"/>
      <path d="m219.25,34.68c-4.98,16.99-11.83,33.28-21.32,48.26-2.63,4.15-5.78,8.02-8.18,12.31-.27.49.38,1.01.79.61,3.11-3.1,5.46-6.97,7.82-10.65,2.39-3.73,4.62-7.55,6.71-11.45,4.17-7.79,7.7-15.92,10.5-24.3,1.61-4.82,3.07-9.68,4.16-14.65.07-.31-.39-.44-.48-.13h0Z" style="fill: #D2B48c;"/>
      <path d="m213.92,37.96c-6.38,17.61-15.56,34.37-26.64,49.45-3.2,4.35-6.53,8.61-9.86,12.85-.39.5.24,1.19.72.72,6.77-6.75,12.51-14.5,17.67-22.54,5.13-7.99,9.64-16.38,13.37-25.12,2.12-4.95,3.96-10,5.65-15.11.19-.59-.71-.82-.92-.25h0Z" style="fill: #D2B48c;"/>
      <path d="m206.54,46.56c-7.52,13.03-16.7,25.09-26.81,36.21-2.9,3.19-6,6.19-8.86,9.41-.44.5.21,1.12.72.72,5.9-4.66,11.08-10.54,15.84-16.33,4.83-5.87,9.25-12.01,13.3-18.44,2.3-3.65,4.38-7.41,6.41-11.22.21-.39-.37-.73-.59-.35h0Z" style="fill: #D2B48c;"/>
      <path d="m193.73,59.15c-9.39,11.04-20.13,20.94-31.13,30.33-.51.44.18,1.36.73.94,11.64-8.87,21.72-19.4,31.01-30.67.35-.42-.25-1.03-.61-.61h0Z" style="fill: #D2B48c;"/>
      <path d="m190.81,96c-12.63,8.86-26.44,16.04-40.94,21.3-4.13,1.5-8.42,2.59-12.51,4.16-.82.31-.5,1.42.36,1.3,3.86-.56,7.74-1.89,11.43-3.13,3.69-1.24,7.31-2.66,10.89-4.21,7.18-3.11,14.16-6.76,20.72-11.01,3.67-2.38,7.16-4.99,10.59-7.7.39-.31-.13-.99-.54-.7h0Z" style="fill: #D2B48c;"/>
      <path d="m179.45,94.97c-3.84,2.53-7.89,4.82-11.95,7-4.14,2.22-8.34,4.34-12.61,6.29-4.26,1.95-8.61,3.73-13.01,5.34-4.4,1.61-8.96,2.89-13.32,4.6-.78.31-.48,1.39.34,1.25,4.65-.79,9.27-2.47,13.69-4.11,4.33-1.61,8.59-3.41,12.77-5.39,4.24-2.01,8.41-4.17,12.41-6.62,4.09-2.5,8-5.17,11.91-7.94.25-.18.02-.59-.24-.42h0Z" style="fill: #D2B48c;"/>
      <path d="m178.64,90.08c-7.77,3.94-15.65,7.69-23.66,11.1-4.05,1.72-8.14,3.35-12.25,4.9-4.02,1.51-8.13,2.83-12.08,4.5-.71.3-.19,1.39.51,1.21,4.24-1.04,8.39-2.67,12.46-4.24,4.02-1.54,8-3.18,11.95-4.91,8.05-3.51,15.92-7.39,23.55-11.75.53-.3.06-1.08-.47-.81h0Z" style="fill: #D2B48c;"/>
      <path d="m29.2,50.96c-.61,0-1.18-.08-1.8-.03-.59.05-1.16.11-1.74.22-1.22.23-2.4.62-3.53,1.11-1.11.48-2.17,1.06-3.18,1.74-.5.33-1.01.68-1.44,1.09-.41.39-.94.83-1.09,1.39-.11.39.25.7.62.62.52-.11.94-.55,1.38-.84.47-.32.91-.68,1.38-1.01.94-.65,1.94-1.21,2.97-1.69,1.01-.47,2.06-.85,3.12-1.19.54-.17,1.09-.35,1.64-.48.58-.14,1.16-.34,1.74-.44.29-.05.21-.5-.07-.51h0Z" style="fill: #D2B48c;"/>
      <path d="m39.26,48.96c-3.09,1.29-6.02,2.81-8.86,4.59-1.38.86-2.74,1.76-4.04,2.74-.66.49-2.73,1.6-2.1,2.71.2.35.75.54,1.11.29.44-.31.8-.74,1.3-1.06.37-.23.26-.72-.11-.87-.33-.13-.65.01-.95.14-.17.07-.34.15-.51.23-.06.03-.14.05-.19.09-.12.05-.11.06.03,0,.14-.06.29-.04.43.06.1.37.19.74.29,1.11-.18.25.03.03.18-.09.23-.19.45-.38.68-.57.57-.45,1.15-.89,1.73-1.33,1.21-.91,2.45-1.78,3.71-2.61,2.47-1.62,5.06-3.15,7.71-4.48.53-.27.15-1.2-.41-.97h0Z" style="fill: #D2B48c;"/>
      <path d="m42.9,52.43c-3.21.47-6.39,1.34-9.37,2.64-1.48.65-2.91,1.4-4.28,2.25-.69.42-1.35.89-1.99,1.37-.63.48-1.28.88-1.54,1.66-.13.38.22.9.65.85.75-.08,1.22-.49,1.82-.92.66-.47,1.33-.91,2.01-1.34,1.32-.84,2.69-1.59,4.11-2.25,2.88-1.33,5.87-2.26,9-2.74,1-.15.57-1.67-.42-1.52h0Z" style="fill: #D2B48c;"/>
      <path d="m49.2,53.39c-3.48,1.6-6.98,3.16-10.43,4.81-.71.34-1.56.64-2.12,1.21-.54.55-.63,1.41-.02,1.95.77.68,2.34-.23,1.5-1.1-.35-.36-.89.02-.8.46.42-.25.51-.39.26-.44,0,.77.12.95.36.55.15-.07.3-.21.46-.29.52-.26,1.05-.5,1.57-.75,1.12-.55,2.24-1.09,3.36-1.65,2.23-1.11,4.41-2.31,6.63-3.44.88-.45.11-1.71-.76-1.31h0Z" style="fill: #D2B48c;"/>
      <path d="m55.78,54.5c-2.23,1.11-4.44,2.28-6.63,3.46-2.18,1.18-4.46,2.29-6.43,3.8-.47.36-.23,1.31.45,1.06,2.34-.88,4.49-2.23,6.66-3.45,2.2-1.24,4.4-2.52,6.55-3.85.65-.4.08-1.35-.59-1.01h0Z" style="fill: #D2B48c;"/>
      <path d="m146.75,46.35c-1.9,3.21-3.35,6.63-4.34,10.23-.47,1.71-.79,3.43-1.02,5.18-.23,1.78-.57,3.8-.29,5.58.06.39.69.37.77,0,.36-1.77.3-3.65.59-5.44.27-1.68.65-3.36,1.09-5.01.93-3.49,2.3-6.88,4.01-10.06.29-.54-.51-1.01-.82-.48h0Z" style="fill: #D2B48c;"/>
      <path d="m143.25,46.51c-1.81,2.14-3.29,4.49-4.3,7.11-.97,2.54-1.69,5.44-1.31,8.18.04.29.52.28.57,0,.26-1.3.42-2.61.69-3.91.27-1.31.57-2.6,1.01-3.87.89-2.55,2.15-5.01,3.79-7.16.2-.26-.24-.6-.45-.35h0Z" style="fill: #D2B48c;"/>
      <path d="m137.62,50.47c-1.13,1.59-2.12,3.28-2.94,5.05-.4.85-.75,1.72-1.05,2.61-.31.91-.63,1.84-.72,2.79-.03.34.52.49.66.18.37-.86.59-1.77.91-2.64.33-.89.68-1.78,1.07-2.64.78-1.72,1.72-3.37,2.8-4.93.31-.44-.41-.85-.72-.42h0Z" style="fill: #D2B48c;"/>
      <path d="m132.05,51.06c-1.3,1.52-2.44,3.17-3.35,4.95-.45.87-.85,1.76-1.2,2.67-.37.96-.57,1.96-.74,2.97-.06.39.47.55.6.17,1.23-3.65,2.85-7.14,5.36-10.09.4-.46-.27-1.14-.67-.67h0Z" style="fill: #D2B48c;"/>
      <path d="m173.86,47.33c-1.23,2.37-2.15,4.87-2.71,7.49-.53,2.51-.86,5.24-.45,7.79.07.44.71.3.74-.1.17-2.54.22-5.04.74-7.55.51-2.49,1.33-4.91,2.43-7.19.24-.5-.49-.95-.76-.44h0Z" style="fill: #D2B48c;"/>
      <path d="m172.14,45.47c-1.88,1.86-3.52,4.01-4.73,6.37-1.19,2.33-2.13,4.87-2.18,7.52,0,.42.58.47.71.1.8-2.39,1.49-4.81,2.62-7.07,1.13-2.27,2.54-4.37,4.27-6.23.42-.46-.24-1.13-.68-.68h0Z" style="fill: #D2B48c;"/>
      <path d="m165.88,46.49c-.95,1.59-1.93,3.17-2.86,4.78-.46.79-.93,1.57-1.37,2.37-.43.78-.91,1.62-1.19,2.46-.1.31.34.58.56.33.58-.67,1.06-1.51,1.5-2.28.46-.79.89-1.59,1.33-2.39.9-1.62,1.76-3.26,2.64-4.9.22-.41-.38-.76-.62-.36h0Z" style="fill: #D2B48c;"/>
      <path d="m161.2,48.72c-.68.78-1.38,1.55-2.04,2.36-.33.4-.65.8-.97,1.2-.34.42-.69.82-.95,1.29-.23.4.28.75.61.47.4-.33.72-.72,1.06-1.11.34-.39.68-.77,1.01-1.16.67-.78,1.3-1.59,1.95-2.38.16-.2.19-.47,0-.66-.17-.17-.5-.19-.66,0h0Z" style="fill: #D2B48c;"/>
      <path d="m58.64,88.14c-.79,1.26-1.47,2.57-2.03,3.95-.26.66-.51,1.33-.69,2.02-.2.74-.45,1.5-.4,2.27.03.55.84.88,1.12.3.32-.65.45-1.35.66-2.04.2-.68.42-1.36.66-2.03.48-1.33,1.06-2.61,1.75-3.85.39-.7-.64-1.29-1.07-.62h0Z" style="fill: #D2B48c;"/>
      <path d="m54.22,88.31c-.95,1.73-1.73,3.53-2.34,5.41-.31.95-.58,1.9-.77,2.88-.19.97-.2,1.91-.23,2.9-.01.39.6.48.69.09.2-.91.48-1.77.69-2.68.21-.94.44-1.87.7-2.8.53-1.84,1.22-3.63,2.06-5.34.26-.53-.51-.99-.8-.47h0Z" style="fill: #D2B48c;"/>
      <path d="m50.92,88.23l-2.04,4.38c-.34.73-.67,1.47-.99,2.21-.32.72-.68,1.44-.87,2.21-.12.5.52.74.8.34.46-.66.75-1.43,1.09-2.15.33-.71.65-1.42.96-2.13.63-1.46,1.27-2.91,1.9-4.37.24-.56-.57-1.06-.84-.49h0Z" style="fill: #D2B48c;"/>
      <path d="m44.68,88.27c-1.96,3.06-3.36,6.78-3.15,10.46.02.33.55.45.61.08.3-1.76.64-3.46,1.16-5.17.52-1.72,1.27-3.35,2.2-4.88.33-.53-.5-1.01-.84-.49h0Z" style="fill: #D2B48c;"/>
      <path d="m67.44,27.13c-2.14,1.45-3.91,3.21-5.29,5.39-.68,1.07-1.22,2.22-1.67,3.4-.43,1.14-.88,2.54-.79,3.77.05.63.83.7,1.06.14.44-1.07.65-2.26,1.05-3.35.41-1.14.94-2.22,1.55-3.26,1.2-2.03,2.79-3.92,4.64-5.38.4-.32-.12-1-.55-.71h0Z" style="fill: #D2B48c;"/>
      <path d="m61.94,26.79c-1.16,1.59-2.23,3.26-3.15,5.01-.45.86-.88,1.74-1.24,2.64-.36.9-.78,1.84-.91,2.81-.06.45.54.81.8.34.48-.85.77-1.81,1.15-2.71.38-.88.76-1.76,1.17-2.62.84-1.76,1.78-3.45,2.86-5.07.28-.42-.38-.79-.67-.39h0Z" style="fill: #D2B48c;"/>
      <path d="m58.22,26.84c-2.66,2.1-4.34,5.47-4.04,8.89.03.33.49.33.52,0,.23-3.17,1.61-6.27,4.08-8.34.39-.33-.17-.86-.55-.55h0Z" style="fill: #D2B48c;"/>
      <path d="m96.75,14.17c-2.29,1.95-4.35,4.06-6.12,6.5-1.71,2.37-3.36,5.06-4.02,7.94-.1.45.52.74.76.32,1.44-2.51,2.61-5.14,4.24-7.55,1.63-2.41,3.53-4.71,5.68-6.67.37-.33-.17-.86-.54-.54h0Z" style="fill: #D2B48c;"/>
      <path d="m88.73,14.79c-1.85,1.44-3.52,3.13-4.87,5.04-.66.93-1.26,1.93-1.71,2.98-.47,1.09-1.02,2.2-1.19,3.38-.07.5.61.91.89.37.51-.98.84-2.05,1.37-3.03.54-1.01,1.1-2.01,1.73-2.96,1.26-1.91,2.72-3.62,4.47-5.1.48-.41-.2-1.06-.68-.69h0Z" style="fill: #D2B48c;"/>
      <path d="m174.77,3.19c-4.15.57-8.06,2.09-11.52,4.45-3.32,2.25-6.6,5.28-8.27,9-.22.5.41,1.13.82.63,1.29-1.52,2.51-3.03,3.91-4.47,1.38-1.41,2.88-2.7,4.51-3.8,3.28-2.22,7-3.83,10.86-4.7.74-.17.41-1.21-.31-1.11h0Z" style="fill: #D2B48c;"/>
      <path d="m163.72,5c-2.62.99-5,2.43-7.07,4.31-1.02.93-1.92,1.97-2.74,3.09-.81,1.1-1.6,2.31-2.02,3.62-.14.44.5.85.81.47.81-1.01,1.5-2.12,2.32-3.12.83-1.01,1.76-1.95,2.71-2.85,1.91-1.78,4.1-3.29,6.44-4.44.6-.29.18-1.32-.46-1.09h0Z" style="fill: #D2B48c;"/>
      <path d="m155.04,8.51c-1.69,1.27-3.22,2.72-4.56,4.36-1.33,1.63-2.38,3.5-3.23,5.42-.15.33.33.63.5.29.94-1.82,2.1-3.47,3.39-5.06,1.28-1.58,2.74-3.01,4.36-4.25.45-.34,0-1.12-.45-.77h0Z" style="fill: #D2B48c;"/>
      <path d="m58.19,125.58c18.72,4.02,37.96,2.76,56.74-.19,5.42-.85,10.88-1.8,16.19-3.19.55-.14.46-1.1-.14-1.03-9.4,1.11-18.7,2.9-28.12,3.96-9.39,1.05-18.83,1.48-28.27,1.17-5.41-.18-10.85-.61-16.21-1.41-.45-.07-.65.59-.19.69h0Z" style="fill: #D2B48c;"/>
      <path d="m83.68,122.81c15.46-1.29,30.88-3.43,45.84-7.63.58-.16.34-1.03-.25-.9-15.08,3.26-30.24,6.38-45.59,8.08-.28.03-.29.48,0,.45h0Z" style="fill: #D2B48c;"/>
    </g>
  </g>
</svg>