<?xml version="1.0" encoding="UTF-8"?>
<svg id="Layer_2" data-name="Layer 2" xmlns="http://www.w3.org/2000/svg" viewBox="0 0 219.49 183.59">
  <g id="_ÎÓÈ_1" data-name="—ÎÓÈ_1">
    <g>
      <path d="m7.82,99.38c3.95,4.21,8.28,8.06,12.6,11.89,3.73,3.31,7.44,6.85,11.89,9.16,4.25,2.21,9.13,3.15,13.73,1.42,4.63-1.74,8.41-5.13,12.8-7.35,5.11-2.57,10.61-3.55,16.03-5.17,1.7-.51,1.24-2.78-.4-2.95-4.92-.5-9.83,1.02-14.33,2.91-2.3.97-4.53,2.08-6.66,3.39-1.95,1.2-3.79,2.57-5.76,3.74-1.89,1.13-3.95,2.09-6.19,2.21-2.1.11-4.16-.37-6.07-1.21-4.36-1.91-8.01-5.18-11.6-8.23-4.76-4.03-9.53-8.09-14.63-11.68-1.12-.79-2.3.9-1.42,1.84h0Z" style="fill: #dccdac;"/>
      <path d="m15.1,99.51c1.61.98,3.19,1.99,4.75,3.04,1.55,1.03,3.31,1.8,4.97,2.64,3.36,1.68,6.89,3.07,10.38,4.43,3.32,1.29,6.89,2.53,10.51,2.19,3.29-.31,6.05-1.93,8.44-4.13,2.24-2.06,4.08-4.51,6.35-6.54,2.23-2,4.78-3.6,7.47-4.89,5.57-2.68,11.75-3.96,17.8-5,7.19-1.24,14.4-2.28,21.58-3.57,7.68-1.37,15.34-2.88,22.96-4.52,7.63-1.64,15.23-3.41,22.79-5.32,6.38-1.61,12.78-3.23,19.02-5.32,6.44-2.15,12.81-4.78,18.56-8.42,5.41-3.43,11.3-8.08,13.96-14.07.37-.84.3-1.76-.47-2.36-.68-.52-1.8-.54-2.4.14-1.92,2.18-3.7,4.49-5.77,6.54-1.94,1.91-4.06,3.62-6.31,5.14-4.8,3.23-10.08,5.68-15.51,7.66-5.73,2.1-11.62,3.71-17.52,5.25-7.39,1.92-14.82,3.71-22.28,5.38-14.82,3.32-29.74,6.1-44.74,8.44-11.85,1.85-24.91,4.08-33.55,13.21-2.26,2.38-4.23,5.29-7.03,7.08-3.23,2.07-6.84,1.49-10.31.41-3.86-1.21-7.61-2.75-11.36-4.25-1.88-.75-3.76-1.53-5.66-2.23-2.03-.75-4.1-1.34-6.12-2.18-.74-.31-1.17.87-.53,1.26h0Z" style="fill: #dccdac;"/>
      <path d="m210.2,70.79c-1.42.57-2.49,1.55-3.64,2.56-1.24,1.09-2.54,2.07-3.9,3.01-2.56,1.78-5.26,3.29-8.07,4.64-5.74,2.76-11.81,4.71-17.84,6.72-12.94,4.3-25.88,8.65-39.19,11.66-3.7.84-7.42,1.54-11.15,2.2-1.86.33-3.73.63-5.6.89-1.95.28-4.14.5-5.99,1.16-1.21.43-1.52,2.5,0,2.77,3.48.63,7.34-.1,10.81-.57,3.45-.47,6.86-1.1,10.26-1.83,6.81-1.46,13.54-3.28,20.21-5.29,6.76-2.04,13.47-4.26,20.15-6.56,6.23-2.15,12.52-4.22,18.5-7.02,3.27-1.53,6.41-3.37,9.29-5.55,1.41-1.07,2.74-2.25,3.99-3.5,1.27-1.27,2.59-2.64,3.03-4.43.12-.48-.35-1.1-.88-.88h0Z" style="fill: #dccdac;"/>
      <path d="m203.08,63.01c-3.17,2.42-6.59,4.53-9.92,6.73-3.28,2.17-6.68,4.21-10.12,6.13-7.01,3.92-14.2,7.44-21.7,10.31-2.08.8-4.18,1.52-6.29,2.24-1.02.35-2.03.74-3.04,1.1-1.15.41-2.14,1.09-3.23,1.64-1.06.54-.6,2.4.62,2.3.97-.08,2.02-.02,2.97-.19.98-.17,1.96-.51,2.91-.78,2-.57,3.96-1.31,5.9-2.04,3.85-1.44,7.66-3.03,11.37-4.82,7.34-3.53,14.29-7.67,20.86-12.49,3.76-2.75,7.13-5.85,10.56-8.99.6-.55-.22-1.67-.89-1.15h0Z" style="fill: #dccdac;"/>
      <path d="m202.32,73.76c2.2-.02,4.4-.03,6.6-.08,1.09-.03,2.15-.03,3.23-.15.61-.07,1.23-.13,1.84-.23.66-.1,1.12-.34,1.71-.57.65-.26,1.26-.82,1.21-1.59,0-.14-.03-.3-.06-.44-.09-.51-.64-1.07-1.15-1.15-.33-.06-.45-.06-.71-.12-.44-.1-.82-.18-1.28-.16-.52.02-1.04.07-1.55.12-1.22.12-2.4.34-3.61.57-2.2.41-4.38.85-6.56,1.29-1.43.29-1.08,2.53.34,2.52h0Z" style="fill: #dccdac;"/>
      <path d="m212.82,70.08c.05,1.67.44,3.26.75,4.9.35,1.82.63,3.64.88,5.47.46,3.34.65,6.71.77,10.08.24,6.8-.02,13.62-.34,20.42-.31,6.76-1.25,13.17-4.68,19.11-3.05,5.29-6.79,10.39-10.83,14.98-4.39,4.98-9.55,9.1-15.36,12.28-1.38.75-.43,2.84,1.05,2.48,6.2-1.51,11.28-5.5,15.62-10.04,4.38-4.58,8.21-9.79,11.67-15.1,1.97-3.02,3.69-6.21,4.79-9.66,1.07-3.36,1.56-6.9,1.81-10.41.51-7.05.63-14.22.47-21.29-.09-4.04-.41-8.06-1-12.06-.57-3.85-1.27-8.47-3.48-11.75-.6-.89-2.16-.62-2.13.58h0Z" style="fill: #dccdac;"/>
      <path d="m5.47,103.66C.29,108.28-.1,116.05,1.99,122.27c2.48,7.36,8.22,12.95,13.87,18.01,12.13,10.86,24.62,21.74,38.91,29.7,14.39,8.02,30.47,12.33,46.88,13.36,16.35,1.03,32.79-1.25,48.46-5.93,7.92-2.37,15.65-5.34,23.18-8.74,7.47-3.37,14.86-7.09,21.74-11.54,1.82-1.17,3.42-2.36,4.93-3.91,1.09-1.12,0-3.23-1.58-2.72-3.76,1.21-7.24,3.24-10.68,5.17-3.45,1.93-6.95,3.78-10.5,5.53-7.02,3.47-14.24,6.53-21.64,9.09-14.85,5.13-30.43,8.22-46.17,8.29-15.42.08-31.02-2.68-45.11-9.06-14.36-6.5-26.79-16.39-38.79-26.46-5.71-4.79-11.99-9.43-16.55-15.39-4.08-5.33-6.43-12.27-4.47-18.93.44-1.51,1.17-2.99,2.03-4.3.43-.65-.5-1.27-1.03-.8h0Z" style="fill: #dccdac;"/>
      <path d="m3.71,107.97c-.21-4.82-.28-9.7.2-14.51.48-4.75,1.49-9.47,2.88-14.04,2.81-9.21,7.37-17.82,13.06-25.56,12.07-16.4,29.41-28.03,48.19-35.47,19.95-7.91,41.61-11.85,62.95-13.46,20.8-1.56,43.47.47,60.16,14.3,7.07,5.85,12.53,13.49,14.81,22.45,2.18,8.58,1.55,18.14-2.76,25.98-1.04,1.89-2.21,3.76-3.4,5.55-1.18,1.78,1.38,3.53,2.85,2.2,3.62-3.28,5.82-7.73,7.24-12.36,1.41-4.59,1.93-9.51,1.62-14.3-.63-9.89-4.57-19.06-11-26.55C186.11,5.41,163.21-.13,141.94,0c-11.76.07-23.56,1.49-35.14,3.44-10.89,1.83-21.68,4.35-32.14,7.91-20.19,6.88-39.37,17.78-53.34,34.16C8.23,60.85-.62,80.54.03,100.99c.08,2.48.46,4.92.98,7.35.32,1.51,2.77,1.18,2.7-.37h0Z" style="fill: #dccdac;"/>
      <path d="m43.55,105.24c2.65-1.87,4.85-4.34,7.35-6.41,2.51-2.08,5.21-3.95,8.02-5.6,5.84-3.43,12.05-6.04,18.52-8.01,14.52-4.43,29.68-5.64,44.65-7.73,4.52-.63,9.01-1.37,13.47-2.33,4.57-.99,8.93-2.43,13.24-4.24.69-.29.45-1.31-.32-1.15-16.23,3.38-32.7,5-49.08,7.43-13.9,2.06-27.85,5.34-40.16,12.37-3.21,1.83-6.26,3.97-9.08,6.36-2.78,2.36-5.88,5.18-7.32,8.59-.18.42.23,1.06.72.72h0Z" style="fill: #dccdac;"/>
      <path d="m43.24,102.57c.77-.15,1.17-.94,1.61-1.53.57-.76,1.1-1.56,1.7-2.31,1.2-1.52,2.48-2.97,3.87-4.31,2.77-2.69,5.97-4.88,9.37-6.71,7.75-4.15,16.5-5.88,25.19-6.66,5.34-.48,10.74-.64,16.03-1.48,1.09-.17.69-1.68-.24-1.78-4.98-.51-10.1-.4-15.08.02-4.97.42-9.94,1.12-14.78,2.36-8.06,2.06-15.81,5.75-21.87,11.52-1.58,1.5-3.03,3.15-4.26,4.95-.88,1.29-2.97,4.03-2.22,5.63.12.26.45.34.71.29h0Z" style="fill: #dccdac;"/>
      <path d="m51.8,94.61c2.74-1.94,5.7-3.54,8.77-4.89,1.52-.67,3.09-1.21,4.66-1.76,1.61-.57,3.29-.87,4.9-1.42.87-.3.78-1.7-.23-1.67-3.47.1-7.03,1.41-10.18,2.79-3.25,1.42-6.23,3.36-9,5.57-.78.62.25,1.97,1.07,1.39h0Z" style="fill: #dccdac;"/>
      <path d="m14.48,100.95c-3.07,1.68-5.54,4.25-7.2,7.33-.81,1.5-1.41,3.12-1.77,4.78-.35,1.58-.71,3.68-.03,5.21.27.6,1.13.35,1.3-.17.24-.72.15-1.5.27-2.25.12-.76.21-1.52.37-2.26.33-1.54.88-3.03,1.6-4.43,1.44-2.78,3.6-5.18,6.26-6.84.86-.54.1-1.85-.8-1.36h0Z" style="fill: #dccdac;"/>
      <path d="m17.45,103.5c-3.61,3.06-6.51,6.92-8.38,11.27-.91,2.12-1.65,4.34-2.05,6.62-.19,1.08-.36,2.19-.41,3.29-.05,1.14-.16,2.54.27,3.61.23.56,1,.62,1.21,0,.33-.98.23-2.08.36-3.1.14-1.1.25-2.19.46-3.27.43-2.21,1.04-4.39,1.9-6.47,1.73-4.15,4.32-7.89,7.64-10.92.69-.63-.32-1.61-1.02-1.02h0Z" style="fill: #dccdac;"/>
      <path d="m18.26,109.89c-2.32,2.52-4.14,5.35-5.46,8.51-.65,1.55-1.15,3.15-1.51,4.8-.34,1.57-.72,3.48-.34,5.08.14.6.96.52,1.15,0,.25-.73.29-1.54.44-2.29.16-.77.27-1.55.44-2.32.33-1.54.79-3.06,1.35-4.54,1.13-3,2.81-5.85,4.86-8.31.53-.63-.34-1.54-.92-.92h0Z" style="fill: #dccdac;"/>
      <path d="m22.05,111.11c-2.48,3.78-4.51,7.83-6.01,12.09-1.45,4.12-2.86,8.81-2.5,13.23.05.56.85.73,1.01.14,1.17-4.21,1.64-8.55,3.01-12.72,1.39-4.23,3.29-8.29,5.62-12.08.45-.72-.67-1.36-1.13-.66h0Z" style="fill: #dccdac;"/>
      <path d="m24.7,115.66c-2.3,3.23-4.04,6.77-5.35,10.51-.66,1.89-1.2,3.82-1.61,5.78-.37,1.76-.85,3.79-.54,5.59.11.67,1.03.52,1.22,0,.62-1.71.67-3.72,1.04-5.5.38-1.84.86-3.65,1.46-5.43,1.2-3.61,2.89-7.06,4.8-10.34.39-.67-.59-1.21-1.03-.6h0Z" style="fill: #dccdac;"/>
      <path d="m27.39,120.24c-3.49,5.79-5.7,12.26-6.32,18.99-.07.71,1.16.89,1.26.17.91-6.5,2.92-12.8,6.13-18.54.39-.69-.65-1.3-1.07-.62h0Z" style="fill: #dccdac;"/>
      <path d="m28.64,130.75c-.45,1.09-.9,2.17-1.35,3.26-.45,1.08-.95,2.16-1.29,3.28-.1.32.38.53.54.23.56-1.04.96-2.17,1.41-3.26.46-1.11.91-2.21,1.37-3.32.18-.43-.52-.61-.69-.19h0Z" style="fill: #dccdac;"/>
      <path d="m17.3,59.09c-4.08,5.36-7.32,11.3-9.51,17.68-1.11,3.22-1.93,6.54-2.48,9.9-.53,3.22-1,6.67-.62,9.94.08.68.98.68,1.06,0,.4-3.32.45-6.66.99-9.98.52-3.22,1.31-6.4,2.31-9.5,2.04-6.3,5.05-12.27,8.97-17.61.32-.43-.4-.83-.72-.42h0Z" style="fill: #dccdac;"/>
      <path d="m15.72,71.34c-2.09,4.29-3.79,8.76-4.97,13.39-.6,2.36-1.08,4.75-1.45,7.15-.33,2.16-.71,4.53-.42,6.71.08.56.93.48,1.05,0,.57-2.16.62-4.53.94-6.74.33-2.26.77-4.5,1.31-6.72,1.1-4.53,2.58-8.98,4.44-13.25.27-.61-.61-1.16-.92-.54h0Z" style="fill: #dccdac;"/>
      <path d="m19.95,74.85c-1.94,4-3.55,8.13-4.82,12.39-.63,2.13-1.2,4.29-1.66,6.47-.45,2.12-.9,4.39-.9,6.56,0,.62.91.74,1.07.15.58-2.05.87-4.21,1.31-6.3.44-2.11.94-4.2,1.53-6.27,1.2-4.23,2.72-8.38,4.48-12.41.3-.69-.69-1.3-1.03-.6h0Z" style="fill: #dccdac;"/>
      <path d="m23.77,79.52c-1.78,3.41-3.21,6.99-4.25,10.7-.52,1.85-.94,3.73-1.23,5.63-.28,1.8-.57,3.66-.23,5.47.08.42.67.35.78,0,.57-1.68.67-3.5.98-5.24.32-1.83.72-3.64,1.21-5.44.98-3.59,2.33-7.05,4.03-10.36.44-.86-.85-1.62-1.3-.76h0Z" style="fill: #dccdac;"/>
      <path d="m26.52,84.36c-.73,2.65-1.47,5.3-2.16,7.96-.34,1.3-.69,2.61-1.01,3.92-.16.65-.33,1.31-.45,1.97-.13.67-.08,1.35-.06,2.03,0,.39.55.56.76.2.33-.58.7-1.16.9-1.8.19-.59.33-1.2.49-1.8.35-1.36.66-2.72.99-4.08.65-2.67,1.24-5.36,1.85-8.04.19-.84-1.07-1.2-1.3-.36h0Z" style="fill: #dccdac;"/>
      <path d="m31.9,84.29c-1.02,2.97-2.01,5.94-2.96,8.94-.46,1.44-.91,2.88-1.37,4.32-.46,1.44-1.01,3.02-1.08,4.54-.02.52.69.67.95.26.81-1.29,1.24-2.92,1.68-4.37.44-1.44.88-2.89,1.32-4.33.91-3,1.78-6.01,2.62-9.03.21-.74-.9-1.03-1.15-.32h0Z" style="fill: #dccdac;"/>
      <path d="m38.72,87.01c-1.12,2.35-2.2,4.72-3.27,7.08-1.05,2.3-2.3,4.63-3.01,7.06-.15.52.58.8.86.36,1.35-2.13,2.27-4.6,3.3-6.9,1.05-2.34,2.1-4.67,3.1-7.02.28-.66-.66-1.25-.98-.58h0Z" style="fill: #dccdac;"/>
      <path d="m186.58,64.06c-4.02,4.59-8.52,8.89-13.39,12.58-4.83,3.66-10.1,6.72-15.39,9.64-.45.25-.14,1.02.36.84,11.58-4.21,21.75-12.77,29-22.62.25-.33-.3-.76-.58-.44h0Z" style="fill: #dccdac;"/>
      <path d="m178.81,69.08c-4.99,3.76-10.1,7.39-15.31,10.83-2.55,1.68-5.12,3.33-7.74,4.92-2.73,1.66-5.6,3.2-8.2,5.06-.61.43-.26,1.64.55,1.31,2.87-1.16,5.61-2.82,8.25-4.42,2.74-1.67,5.45-3.39,8.1-5.21,5.23-3.59,10.24-7.44,15.02-11.61.47-.41-.17-1.27-.68-.88h0Z" style="fill: #dccdac;"/>
      <path d="m174.86,69.51c-7.18,3.9-14.32,7.85-21.42,11.91-3.51,2.01-7.03,4-10.51,6.04-1.71,1-3.42,2-5.13,3-1.69.99-3.72,2.01-5.1,3.42-.51.52,0,1.39.71,1.21,1.83-.47,3.67-1.65,5.3-2.57,1.79-1.02,3.59-2.03,5.38-3.05,3.52-1.99,7.01-4.03,10.51-6.06,7.07-4.1,14.08-8.28,21.05-12.54.87-.53.1-1.85-.8-1.36h0Z" style="fill: #dccdac;"/>
      <path d="m161.98,73.24c-7.06,3.03-13.47,7.43-19.97,11.48-3.31,2.06-6.61,4.13-9.9,6.22-3.25,2.07-6.65,4.1-9.6,6.58-.64.54.18,1.38.83,1.08,3.52-1.6,6.84-3.81,10.11-5.86,3.3-2.07,6.6-4.15,9.88-6.24,3.21-2.04,6.44-4.06,9.62-6.15,3.17-2.08,6.32-4.22,9.67-6,.75-.4.09-1.42-.65-1.11h0Z" style="fill: #dccdac;"/>
      <path d="m151.95,75.53c-7.26,3.76-14.5,7.55-21.68,11.45-3.55,1.93-7.11,3.86-10.65,5.81-1.74.95-3.47,1.91-5.21,2.86-.87.48-1.72.98-2.57,1.48-.9.53-1.97.99-2.66,1.78-.63.72,0,1.65.88,1.51.98-.15,1.85-.75,2.72-1.19.88-.45,1.77-.9,2.64-1.37,1.81-.99,3.62-1.98,5.43-2.97,3.55-1.94,7.08-3.91,10.62-5.87,7.15-3.96,14.22-8.03,21.29-12.13.88-.51.1-1.83-.8-1.36h0Z" style="fill: #dccdac;"/>
      <path d="m138.88,78.15c-6.12,3.24-12.26,6.45-18.34,9.77-2.97,1.62-5.94,3.22-8.89,4.87-1.51.84-3.02,1.68-4.54,2.53-1.44.8-3.12,1.65-4.29,2.82-.52.52.01,1.34.69,1.19,1.54-.34,3.1-1.26,4.48-2.01l4.57-2.47c3.05-1.65,6.07-3.33,9.1-5.01,6.06-3.35,12.06-6.8,18.08-10.22.95-.54.11-1.96-.85-1.46h0Z" style="fill: #dccdac;"/>
      <path d="m126.84,80.06c-3.68,2.34-7.37,4.65-11.12,6.88-1.85,1.09-3.7,2.17-5.58,3.21-1.84,1.03-3.83,1.97-5.5,3.26-.54.42.05,1.32.65,1.12,2-.65,3.9-1.85,5.72-2.89,1.86-1.07,3.71-2.16,5.54-3.28,3.72-2.28,7.36-4.69,10.89-7.27.6-.44.06-1.44-.6-1.03h0Z" style="fill: #dccdac;"/>
      <path d="m116.99,84.07c-5.18,1.62-10.06,3.88-14.78,6.56-2.36,1.34-4.65,2.78-6.88,4.33-2.13,1.48-4.62,3.08-6.32,5.06-.43.5.1,1.27.72.93,1.15-.62,2.15-1.52,3.22-2.26,1.08-.75,2.16-1.51,3.24-2.25,2.23-1.53,4.53-2.98,6.86-4.35,4.59-2.7,9.42-5.03,14.26-7.24.44-.2.13-.91-.33-.77h0Z" style="fill: #dccdac;"/>
      <path d="m111.28,84.07c-5.43,3.26-10.86,6.52-16.24,9.86-2.66,1.65-5.31,3.3-7.97,4.95-1.33.82-2.67,1.63-3.98,2.49-1.24.82-2.74,1.6-3.76,2.68-.42.44,0,1.26.62,1.06,1.35-.44,2.6-1.37,3.83-2.09,1.35-.79,2.65-1.65,3.97-2.49,2.71-1.72,5.42-3.44,8.13-5.16,5.36-3.4,10.66-6.88,15.95-10.36.58-.38.06-1.31-.55-.94h0Z" style="fill: #dccdac;"/>
      <path d="m99.12,87.59c-4.71,3.12-9.52,6.08-14.26,9.15-2.3,1.49-4.59,3-6.88,4.51-2.27,1.5-4.77,3.12-6.7,5.04-.3.3,0,.95.45.77,2.43-.99,4.83-2.57,7.02-4.02,2.36-1.56,4.71-3.12,7.06-4.71,4.69-3.17,9.31-6.43,14.03-9.56.74-.49.05-1.7-.7-1.2h0Z" style="fill: #dccdac;"/>
      <path d="m91.69,89.4c-5.29,2.88-10.34,6.11-15.12,9.78-2.27,1.74-4.47,3.57-6.6,5.49-1.14,1.03-2.28,2.07-3.33,3.2-.95,1.02-2.17,2.06-2.81,3.31-.27.52.28,1.12.81.81,1.16-.67,2.1-1.81,3.1-2.71,1.09-.98,2.15-2,3.23-2.99,2.16-1.98,4.39-3.89,6.67-5.72,4.63-3.71,9.54-7.11,14.65-10.13.66-.39.07-1.39-.6-1.03h0Z" style="fill: #dccdac;"/>
      <path d="m84.3,90.36c-4.73,3.25-9.45,6.5-14.18,9.75-4.64,3.19-9.45,6.18-13.68,9.91-.51.45.14,1.23.71.92,4.98-2.68,9.46-6.18,14.08-9.43,4.63-3.26,9.25-6.52,13.88-9.78.83-.58.05-1.96-.8-1.38h0Z" style="fill: #dccdac;"/>
      <path d="m74.76,91.86c-4.82,3.59-9.58,7.26-14.27,11.03-2.35,1.88-4.64,3.84-6.93,5.79-1.14.98-2.28,1.97-3.4,2.97-1.06.95-2.38,1.95-3.12,3.17-.39.65.36,1.24.96.96,1.22-.57,2.33-1.72,3.35-2.6,1.08-.93,2.15-1.87,3.23-2.8,2.27-1.97,4.57-3.91,6.88-5.84,4.62-3.88,9.27-7.69,14.05-11.36.76-.58.02-1.9-.76-1.31h0Z" style="fill: #dccdac;"/>
      <path d="m63.75,96.04c-4.36,3.61-8.83,7.1-13.34,10.54-2.15,1.64-4.32,3.26-6.5,4.88-1.15.85-2.32,1.69-3.46,2.56-.98.75-2.17,1.42-2.88,2.44-.4.58.26,1.34.89,1.16,1.23-.36,2.36-1.38,3.41-2.12,1.11-.78,2.19-1.6,3.27-2.42,2.23-1.68,4.44-3.4,6.62-5.14,4.42-3.52,8.71-7.2,12.96-10.93.67-.59-.3-1.53-.97-.97h0Z" style="fill: #dccdac;"/>
      <path d="m53.67,102.34c-3.05,1.88-6.11,3.75-9.15,5.65-1.47.92-2.94,1.84-4.41,2.76-.79.49-1.57.98-2.34,1.5-.71.47-1.46.87-1.98,1.56-.48.64.31,1.37.95,1.24.85-.18,1.61-.79,2.34-1.24.69-.42,1.37-.86,2.05-1.3,1.51-.97,3.02-1.94,4.52-2.92,2.97-1.91,5.91-3.86,8.87-5.8.9-.59.08-2.03-.85-1.46h0Z" style="fill: #dccdac;"/>
      <path d="m45.47,105.36c-2.8,1.42-5.55,2.92-8.28,4.49-1.34.77-2.67,1.55-4,2.34-1.34.8-2.78,1.55-3.99,2.53-.99.8.41,2.17,1.39,1.39.61-.49,1.25-1,1.67-1.67.17-.28-.05-.73-.4-.69-.86.08-1.68.46-2.46.82.33.57.66,1.13.99,1.7,1.38-.65,2.66-1.6,3.95-2.41,1.31-.82,2.62-1.63,3.94-2.43,2.64-1.6,5.28-3.19,7.92-4.79.82-.5.1-1.71-.75-1.28h0Z" style="fill: #dccdac;"/>
      <path d="m38.17,107.37c-1.51.94-3.03,1.86-4.52,2.82-.73.48-1.47.94-2.2,1.43-.38.26-.8.51-1.13.82-.33.3-.7.74-.69,1.21,0,.31.2.51.47.62.41.16.96-.06,1.33-.25.39-.19.74-.48,1.09-.73.74-.53,1.46-1.08,2.18-1.62,1.44-1.07,2.84-2.18,4.26-3.27.59-.46-.17-1.42-.8-1.03h0Z" style="fill: #dccdac;"/>
      <path d="m34.16,107.81c-1.3.6-2.61,1.19-3.9,1.82-.62.3-1.24.6-1.87.9-.31.15-.62.31-.92.48-.42.23-.65.51-.88.92-.19.35-.05.94.41,1.01.5.08.88.09,1.36-.12.32-.14.63-.28.94-.44.64-.32,1.28-.65,1.91-.97,1.3-.66,2.57-1.35,3.86-2.03.44-.23.57-.84.33-1.25-.27-.46-.8-.54-1.25-.33h0Z" style="fill: #dccdac;"/>
      <path d="m33.47,104.04c-3.08.99-6.3,2.5-8.65,4.77-.32.31-.37.83-.16,1.21.09.16.21.25.36.36.26.19.75.19,1.01,0,1.24-.94,2.45-1.89,3.79-2.69,1.31-.78,2.68-1.42,4.13-1.9.46-.16.77-.62.63-1.11-.13-.46-.65-.78-1.11-.63h0Z" style="fill: #dccdac;"/>
      <path d="m29.18,104.45c-.59.9-1.39,1.62-2.35,2.11-.45.23-.9.38-1.46.54-.61.18-1.47.17-1.83.76.15-.11.3-.23.45-.34-.25.1-.48.19-.71.35-.3.2-.28.58,0,.78.23.16.44.25.71.32-.11-.06-.22-.13-.33-.19.49.59,1.62.28,2.25.1.64-.18,1.27-.49,1.84-.84,1.12-.69,2.11-1.62,2.83-2.78.23-.37.08-.89-.29-1.1-.39-.23-.86-.08-1.1.29h0Z" style="fill: #dccdac;"/>
      <path d="m26.82,102.38c-1.3.65-2.6,1.31-3.9,1.96-.65.33-1.3.66-1.94,1-.61.33-1.5.66-1.73,1.36-.11.33.13.67.44.77.68.22,1.55-.37,2.15-.66.66-.32,1.3-.65,1.95-.98,1.29-.67,2.59-1.33,3.88-2,.41-.21.52-.78.3-1.15-.24-.41-.75-.51-1.15-.3h0Z" style="fill: #dccdac;"/>
      <path d="m25.05,97.38c-1.98.8-3.89,1.79-5.64,3.01-.42.3-.84.6-1.25.92-.43.34-.76.71-1.14,1.09-.75.76-1.49,1.53-2.12,2.4-.31.42.33.81.67.52,1.54-1.26,3.1-2.43,4.75-3.54,1.63-1.09,3.36-2.03,5.18-2.75.43-.17.73-.57.6-1.06-.11-.41-.62-.78-1.06-.6h0Z" style="fill: #dccdac;"/>
      <path d="m204.63,67.33c-2.44,2.48-4.9,4.96-7.29,7.49-1.18,1.25-2.35,2.51-3.52,3.76-.57.61-1.14,1.22-1.68,1.86-.57.67-1.2,1.29-1.55,2.11-.28.67.6,1.13,1.12.86.71-.36,1.25-1.03,1.82-1.58.63-.62,1.23-1.27,1.83-1.92,1.17-1.26,2.34-2.52,3.5-3.79,2.31-2.55,4.58-5.14,6.85-7.72.64-.73-.38-1.77-1.07-1.07h0Z" style="fill: #dccdac;"/>
      <path d="m202.94,66.58c-3.84,3.22-7.69,6.42-11.48,9.68-1.84,1.58-3.69,3.15-5.5,4.77-1.81,1.61-3.87,3.23-5.32,5.18-.4.54.36,1.15.87.87,2.07-1.15,3.9-2.96,5.69-4.5,1.89-1.63,3.75-3.31,5.61-4.97,3.73-3.33,7.39-6.71,11.08-10.09.64-.58-.29-1.48-.94-.94h0Z" style="fill: #dccdac;"/>
      <path d="m194.47,69.2c-4.79,3.77-9.75,7.31-14.76,10.79-2.43,1.69-4.9,3.33-7.38,4.96-1.24.81-2.49,1.62-3.71,2.45-1.21.82-2.54,1.53-3.62,2.52-.53.48.02,1.49.72,1.24,1.38-.5,2.61-1.35,3.88-2.08,1.35-.78,2.67-1.61,3.98-2.46,2.55-1.66,5.05-3.39,7.53-5.17,4.94-3.55,9.65-7.4,14.25-11.37.62-.53-.27-1.37-.88-.88h0Z" style="fill: #dccdac;"/>
      <path d="m174.2,80.22c-5.17,3.6-10.48,7.05-15.95,10.18-2.67,1.53-5.4,2.98-8.15,4.38-1.41.72-2.81,1.42-4.21,2.16-1.34.71-2.85,1.31-4.05,2.24-.49.38.07,1,.54.93,1.57-.24,3.16-1.07,4.63-1.67,1.33-.55,2.63-1.16,3.92-1.8,2.9-1.44,5.72-3.01,8.5-4.67,5.43-3.24,10.57-6.85,15.42-10.91.47-.39-.15-1.2-.65-.85h0Z" style="fill: #dccdac;"/>
      <path d="m151.97,88.54c-4.49,2.51-8.96,5.04-13.39,7.67-2.14,1.27-4.29,2.53-6.42,3.82-2.09,1.27-4.67,2.48-6.28,4.36-.41.48-.02,1.21.62,1.06,2.41-.56,4.67-2.27,6.76-3.54,2.13-1.29,4.24-2.62,6.35-3.92,4.38-2.71,8.7-5.5,13-8.33.69-.45.08-1.51-.65-1.11h0Z" style="fill: #dccdac;"/>
      <path d="m146.58,90.73c-4.07,1.77-8.21,3.36-12.29,5.11-2,.86-3.99,1.72-5.97,2.61-1.98.89-4.3,1.67-6.03,3-.57.44-.25,1.31.49,1.17,2.06-.38,4.11-1.54,6.02-2.38,2.06-.91,4.1-1.85,6.14-2.8,4.07-1.89,8.07-3.95,12.15-5.82.61-.28.08-1.15-.52-.89h0Z" style="fill: #dccdac;"/>
      <path d="m139.14,93.01c-6.52,2.01-13.14,3.71-19.8,5.22-3.29.75-6.59,1.44-9.9,2.09-1.65.32-3.29.69-4.94,1.03-1.72.36-3.48.6-5.16,1.1-.67.2-.55,1.23.17,1.23,3.28-.02,6.79-.68,10.01-1.28,3.4-.63,6.77-1.34,10.13-2.15,6.73-1.61,13.34-3.58,19.9-5.74.95-.31.55-1.81-.42-1.51h0Z" style="fill: #dccdac;"/>
      <path d="m190.44,44.62c1.15,3.46,1.38,7.38.7,10.96-.7,3.69-2.29,6.8-4.27,9.95-.27.43.33.86.69.53,2.76-2.6,4.41-6.57,4.98-10.27.6-3.92.17-7.72-1.34-11.38-.19-.45-.92-.28-.75.21h0Z" style="fill: #dccdac;"/>
      <path d="m185.35,48.62c1.47,3.36,1.7,7.08.93,10.64-.36,1.69-.96,3.32-1.79,4.83-.42.76-.89,1.49-1.4,2.19-.53.73-1.23,1.35-1.7,2.13-.33.55.32,1.14.86.86,1.57-.85,2.8-2.84,3.6-4.38.9-1.73,1.54-3.6,1.87-5.52.65-3.77.06-7.73-1.68-11.14-.24-.47-.89-.06-.69.4h0Z" style="fill: #dccdac;"/>
      <path d="m180.33,50.29c.47,4.17-.1,8.41-1.51,12.36-.7,1.96-1.66,3.82-2.78,5.58-.55.86-1.17,1.67-1.8,2.47-.65.83-1.45,1.58-2.02,2.47-.38.58.35,1.23.92.92,1.82-1.01,3.27-3.07,4.41-4.77,1.25-1.86,2.22-3.91,2.95-6.02,1.47-4.24,1.76-8.76.96-13.16-.11-.63-1.21-.5-1.14.15h0Z" style="fill: #dccdac;"/>
      <path d="m174.06,52.12c-.36,4.42-1.41,8.82-3.12,12.91-.84,2-1.87,3.91-3,5.76-1.14,1.87-2.51,3.6-3.63,5.49-.34.58.4,1.02.86.66,3.54-2.74,5.82-7.27,7.46-11.33,1.74-4.3,2.65-8.86,2.72-13.5.01-.84-1.23-.82-1.3,0h0Z" style="fill: #dccdac;"/>
      <path d="m168.65,55.7c-.72,4.24-2.25,8.36-4.37,12.1-1.04,1.84-2.24,3.59-3.57,5.23-.67.83-1.36,1.64-2.08,2.42-.69.75-1.67,1.45-2.16,2.34-.26.46.18,1.18.74.96.98-.38,1.75-1.26,2.49-1.98.81-.78,1.58-1.59,2.29-2.47,1.43-1.76,2.69-3.65,3.77-5.65,2.16-4,3.43-8.31,3.98-12.82.08-.62-.98-.76-1.09-.15h0Z" style="fill: #dccdac;"/>
      <path d="m161,63.05c-1.1,2.68-2.43,5.22-3.86,7.74-.7,1.23-1.45,2.45-2.21,3.65-.38.6-.77,1.19-1.17,1.78-.37.56-.83,1.09-1.02,1.74-.14.5.46,1.02.92.71.58-.39.95-1,1.35-1.56.41-.58.81-1.17,1.19-1.77.82-1.27,1.56-2.58,2.26-3.92,1.35-2.6,2.44-5.35,3.39-8.12.19-.55-.65-.75-.86-.24h0Z" style="fill: #dccdac;"/>
      <path d="m156.28,64.66c-1.81,2.56-3.62,5.12-5.43,7.68-.89,1.26-1.78,2.52-2.65,3.79-.45.65-.91,1.31-1.36,1.96-.4.58-.9,1.17-1.09,1.85-.06.19.18.4.36.27.53-.37.9-.94,1.29-1.45.48-.64.96-1.28,1.44-1.91.96-1.28,1.92-2.55,2.86-3.84,1.89-2.57,3.79-5.14,5.68-7.71.48-.65-.62-1.3-1.09-.64h0Z" style="fill: #dccdac;"/>
      <path d="m37.88,120.22c-3.63,3.96-6.38,8.59-8.17,13.65-.88,2.5-1.49,5.09-1.82,7.72-.31,2.45-.78,5.65.09,8.03.18.48.94.57,1.07,0,.26-1.14.2-2.42.25-3.59.06-1.24.14-2.48.31-3.71.34-2.57.93-5.1,1.73-7.57,1.6-4.94,4.19-9.56,7.56-13.5.59-.7-.39-1.71-1.02-1.02h0Z" style="fill: #dccdac;"/>
      <path d="m42.56,124.91c-3.71,3-6.71,6.83-8.69,11.17-1.84,4.03-3.33,9.01-2.54,13.47.08.46.86.46.93,0,.36-2.14.49-4.31.99-6.44.52-2.25,1.22-4.46,2.19-6.55,1.9-4.1,4.63-7.76,8.08-10.7.66-.57-.29-1.49-.95-.95h0Z" style="fill: #dccdac;"/>
      <path d="m45.26,128.54c-2.9,3.3-5.46,6.83-7.58,10.69-1.02,1.85-1.94,3.75-2.75,5.69-.82,1.97-1.85,4.17-1.95,6.33-.03.66.89.86,1.21.33,1.03-1.71,1.53-3.8,2.28-5.65.81-1.98,1.71-3.93,2.71-5.83,1.97-3.75,4.3-7.38,6.96-10.69.49-.61-.34-1.48-.87-.87h0Z" style="fill: #dccdac;"/>
      <path d="m48.22,132.42c-2.68,3.19-5.15,6.5-7.28,10.08-1.05,1.76-2.03,3.57-2.92,5.42-.9,1.88-1.85,3.87-2.21,5.93-.09.54.6.89.91.39,1.03-1.67,1.74-3.57,2.56-5.36.86-1.87,1.77-3.71,2.76-5.51,1.98-3.6,4.21-7.13,6.74-10.37.31-.4-.23-.98-.57-.57h0Z" style="fill: #dccdac;"/>
      <path d="m50.93,135.13c-2.19,2.28-4.1,4.79-5.6,7.57-.74,1.37-1.38,2.78-1.94,4.23-.52,1.33-1.31,3.07-1.12,4.52.09.63.94.57,1.23.16.41-.58.52-1.34.73-2.01.22-.71.45-1.41.7-2.11.51-1.41,1.11-2.79,1.8-4.12,1.37-2.65,3.04-5.18,5.02-7.42.49-.55-.3-1.36-.82-.82h0Z" style="fill: #dccdac;"/>
      <path d="m54.42,137.7c-2.65,2.96-4.85,6.3-6.63,9.85-1.67,3.35-3.51,7.31-3.54,11.12,0,.47.71.71.93.25.78-1.61,1.27-3.37,1.87-5.05.66-1.85,1.41-3.66,2.27-5.42,1.68-3.45,3.78-6.68,6.13-9.71.56-.72-.39-1.76-1.04-1.04h0Z" style="fill: #dccdac;"/>
      <path d="m56.24,144.14c-1.96,2.24-3.7,4.67-5.14,7.27-.71,1.28-1.34,2.6-1.91,3.95-.58,1.38-1.14,2.77-1.29,4.27-.07.72,1.02.96,1.34.36.65-1.21,1.05-2.53,1.57-3.8.54-1.32,1.17-2.62,1.86-3.87,1.36-2.48,2.98-4.8,4.84-6.93.75-.86-.5-2.12-1.26-1.26h0Z" style="fill: #dccdac;"/>
      <path d="m58.99,147.85c-1.98,2.37-3.7,4.99-4.96,7.81-.61,1.37-1.14,2.78-1.58,4.21-.23.77-.43,1.54-.59,2.33-.15.74-.36,1.5-.2,2.25.14.6.97.65,1.27.17.36-.59.42-1.3.57-1.96.17-.69.35-1.38.54-2.07.41-1.43.91-2.83,1.51-4.19,1.18-2.68,2.67-5.2,4.49-7.49.6-.75-.44-1.83-1.07-1.07h0Z" style="fill: #dccdac;"/>
      <path d="m61.85,153.47c-1.55,1.76-2.85,3.72-3.79,5.87-.46,1.07-.89,2.15-1.12,3.29-.23,1.13-.49,2.36-.38,3.51.06.64.91.79,1.14.15.36-1.02.54-2.09.88-3.11.34-1.02.67-2.04,1.09-3.03.85-1.98,1.96-3.87,3.33-5.54.65-.8-.45-1.94-1.15-1.15h0Z" style="fill: #dccdac;"/>
      <path d="m64.64,157.16c-1.51,1.8-2.7,3.87-3.4,6.12-.34,1.09-.58,2.23-.67,3.37-.05.59-.06,1.19-.05,1.78.02.58-.02,1.28.34,1.76.31.41.97.52,1.25,0,.27-.49.22-1.01.23-1.56.02-.53.05-1.06.12-1.59.14-1.03.34-2.05.64-3.04.6-2,1.53-3.9,2.84-5.53.31-.39.38-.92,0-1.3-.33-.33-.98-.38-1.3,0h0Z" style="fill: #dccdac;"/>
      <path d="m68.9,162.38c-.16,1.26-.33,2.52-.49,3.78-.08.63-.18,1.26-.22,1.89-.03.58-.21,1.35.01,1.9.19.48.75.56,1.06.14.35-.48.37-1.25.48-1.83.13-.67.2-1.35.28-2.03.16-1.28.31-2.57.47-3.85.05-.43-.4-.8-.8-.8-.48,0-.74.37-.8.8h0Z" style="fill: #dccdac;"/>
      <path d="m76.9,163.06c-.76,1.75-1.25,3.6-1.37,5.5-.06.94-.04,1.89.09,2.82.13.92.23,1.98.82,2.72.31.38,1.08.19,1.15-.3.12-.87-.19-1.77-.27-2.64-.08-.83-.12-1.67-.09-2.5.07-1.73.41-3.41,1.03-5.02.3-.78-1.02-1.34-1.36-.57h0Z" style="fill: #dccdac;"/>
      <path d="m192.92,84.73c2.91,2.69,5.37,5.85,7.29,9.32,1.95,3.53,2.97,7.25,4.06,11.1.16.55,1.07.47,1.03-.14-.27-4-1.92-8.02-3.85-11.49-2.01-3.61-4.67-6.81-7.82-9.49-.48-.41-1.19.27-.71.71h0Z" style="fill: #dccdac;"/>
      <path d="m191.96,87.57c5.26,5.48,8.07,12.67,8.78,20.16.06.58.89.6.92,0,.43-7.88-3.21-15.64-8.9-20.96-.54-.5-1.32.28-.81.81h0Z" style="fill: #dccdac;"/>
      <path d="m188.78,90.53c4.71,6.79,7,14.57,7.69,22.75.04.51.77.52.8,0,.36-8.29-2.79-16.63-7.79-23.16-.31-.4-1.01-.03-.7.41h0Z" style="fill: #dccdac;"/>
      <path d="m184.58,89.31c1.86,3.67,3.43,7.49,4.65,11.42.57,1.85,1.06,3.73,1.5,5.62.46,2.01.69,4.1,1.21,6.09.1.37.66.29.66-.09,0-1.95-.43-3.96-.82-5.86-.43-2.1-.99-4.18-1.65-6.22-1.27-3.93-2.93-7.71-4.96-11.3-.22-.39-.79-.05-.59.35h0Z" style="fill: #dccdac;"/>
      <path d="m177.95,92.17c3.71,6.58,5.71,13.64,6.64,21.1.05.4.65.42.64,0-.24-7.52-2.78-15.06-6.6-21.5-.26-.43-.92-.04-.67.39h0Z" style="fill: #dccdac;"/>
      <path d="m151.37,48.68c.92,3.6,1.24,7.31.94,11.02-.3,3.7-1.32,7.28-2.59,10.75-.32.89,1.1,1.48,1.53.64,3.56-6.95,3.94-15.46,2.03-22.94-.32-1.24-2.23-.71-1.91.53h0Z" style="fill: #dccdac;"/>
      <path d="m147.58,44.67c.68,5.82.56,11.77-.32,17.56-.43,2.82-1.04,5.61-1.81,8.36-.39,1.37-.83,2.73-1.3,4.08-.48,1.38-1.16,2.83-1.39,4.27-.09.59.58.87.94.4.84-1.09,1.33-2.54,1.8-3.82.51-1.41.96-2.85,1.35-4.3.8-2.89,1.37-5.83,1.75-8.8.76-5.95.6-11.92-.31-17.84-.06-.4-.77-.31-.72.1h0Z" style="fill: #dccdac;"/>
      <path d="m140.9,48.5c1.11,4.29,1.36,8.79.9,13.19-.48,4.49-2.05,8.48-3.54,12.69-.21.61.7.95,1.01.43,2.29-3.78,3.19-8.55,3.54-12.9.37-4.58-.18-9.13-1.43-13.54-.09-.31-.56-.18-.48.13h0Z" style="fill: #dccdac;"/>
      <path d="m137.88,54.9c.23,3.36-.08,6.81-.92,10.07-.42,1.66-1,3.28-1.66,4.86-.62,1.47-1.42,2.88-1.97,4.38-.16.44.46.75.76.44,2.34-2.38,3.55-6.11,4.28-9.29.8-3.46.95-6.94.5-10.46-.08-.61-1.03-.65-.98,0h0Z" style="fill: #dccdac;"/>
      <path d="m134.12,58.45c-.5,3.4-1.24,6.77-2.21,10.07-.48,1.62-.99,3.24-1.57,4.83-.29.8-.59,1.58-.9,2.37-.29.76-.71,1.54-.7,2.37,0,.44.53.63.84.35.61-.56.87-1.41,1.19-2.16.32-.78.62-1.57.9-2.37.58-1.65,1.11-3.32,1.56-5.02.89-3.38,1.52-6.82,1.92-10.3.07-.58-.94-.72-1.03-.14h0Z" style="fill: #dccdac;"/>
      <path d="m130.49,60.31c-1.02,3.48-2.14,6.92-3.37,10.32-.62,1.7-1.26,3.4-1.93,5.08-.64,1.6-1.62,3.36-1.88,5.07-.06.38.44.84.76.44,1.04-1.34,1.62-3.23,2.24-4.8.66-1.68,1.3-3.38,1.9-5.08,1.26-3.53,2.4-7.1,3.43-10.71.21-.74-.93-1.05-1.15-.32h0Z" style="fill: #dccdac;"/>
      <path d="m51.07,70.8c1.63,2.67,2.79,5.59,3.63,8.59.42,1.48.73,2.98.96,4.5.11.74.19,1.48.28,2.22.09.76.06,1.59.32,2.31.2.56,1.01.61,1.19,0,.42-1.41.03-3.23-.2-4.65-.26-1.62-.65-3.21-1.15-4.77-.99-3.08-2.51-5.94-4.3-8.64-.3-.45-1.01-.04-.73.43h0Z" style="fill: #dccdac;"/>
      <path d="m57.61,74.49c.85,1.94,1.63,3.91,2.46,5.86.41.95.86,1.89,1.29,2.83.21.47.4.96.67,1.4.26.44.5.97.89,1.3.33.28.9.11.89-.37-.01-.52-.26-1.01-.43-1.5-.18-.51-.45-1-.69-1.48-.45-.93-.89-1.87-1.37-2.79-.98-1.9-2.03-3.77-3-5.67-.25-.48-.92-.06-.72.42h0Z" style="fill: #dccdac;"/>
      <path d="m63.74,74.69c.74,1.6,1.47,3.2,2.21,4.8.36.78.7,1.59,1.13,2.33.42.75.86,1.55,1.44,2.19.35.39.89-.03.81-.47-.15-.82-.53-1.64-.84-2.41-.34-.83-.79-1.63-1.2-2.42-.81-1.55-1.63-3.11-2.44-4.66-.38-.73-1.43-.09-1.09.64h0Z" style="fill: #dccdac;"/>
      <path d="m70.79,73.45l.52,4.33c.09.73.17,1.45.27,2.18.1.72.11,1.52.48,2.15.29.49,1.04.38,1.2-.16.2-.69.02-1.43-.06-2.13-.08-.71-.17-1.42-.26-2.12-.18-1.42-.36-2.83-.54-4.25-.06-.43-.33-.8-.8-.8-.39,0-.86.37-.8.8h0Z" style="fill: #dccdac;"/>
      <path d="m73.21,52.32c2.62,4.82,4.52,10.07,5.72,15.42.59,2.64.99,5.31,1.2,8.01.11,1.38.17,2.77.2,4.16.03,1.27-.11,2.63.16,3.88.13.61.97.52,1.14,0,.43-1.27.36-2.77.37-4.1,0-1.39-.06-2.77-.19-4.16-.25-2.76-.71-5.51-1.36-8.21-1.34-5.48-3.58-10.62-6.54-15.41-.27-.44-.93-.05-.69.4h0Z" style="fill: #dccdac;"/>
      <path d="m84.32,55.92c1.37,3.73,2.35,7.56,3.06,11.47.36,1.99.64,3.98.82,5.99.09,1,.14,2.01.22,3.02.08.91.04,1.9.34,2.77.21.6,1.07.65,1.27,0,.52-1.74.07-4.01-.14-5.78-.24-2-.55-4-.97-5.97-.86-4.02-2.17-7.94-3.73-11.73-.21-.52-1.06-.31-.86.24h0Z" style="fill: #dccdac;"/>
      <path d="m92.68,64.13c.34,2.71.43,5.46.29,8.19-.07,1.34-.21,2.68-.38,4.02-.14,1.13-.72,2.71-.23,3.78.14.31.56.29.77.1.86-.77.88-2.6,1.02-3.67.19-1.4.28-2.81.31-4.23.06-2.8-.19-5.58-.67-8.34-.11-.63-1.2-.49-1.12.15h0Z" style="fill: #dccdac;"/>
      <path d="m99.11,62.45c.39,2.65.6,5.32.67,8,.04,1.32.03,2.64-.02,3.96-.05,1.24-.17,2.58.03,3.81.1.63.97.49,1.15,0,.44-1.26.47-2.79.5-4.11.03-1.32.02-2.64-.03-3.96-.11-2.71-.46-5.4-.95-8.06-.17-.89-1.47-.5-1.34.37h0Z" style="fill: #dccdac;"/>
      <path d="m111.52,103.98c-6.99.95-13.84,2.48-20.64,4.34-3.35.92-6.67,1.93-9.97,3.04-3.21,1.08-6.62,2.21-9.64,3.76-.53.27-.16,1.08.4.94,3.33-.85,6.63-2.1,9.91-3.15,3.31-1.06,6.64-2.06,9.98-3,6.68-1.88,13.45-3.46,20.21-5,.62-.14.34-1.02-.26-.93h0Z" style="fill: #dccdac;"/>
      <path d="m105.87,101.61c-5.33.73-10.64,1.71-15.85,3.07-2.53.66-5.03,1.38-7.52,2.17-2.47.78-5.25,1.52-7.47,2.87-.6.37-.19,1.2.46,1.09,2.52-.45,5.01-1.58,7.44-2.39,2.55-.85,5.13-1.62,7.72-2.34,5.11-1.4,10.26-2.63,15.47-3.58.59-.11.33-.97-.25-.89h0Z" style="fill: #dccdac;"/>
      <path d="m104.13,99.58c-4.88.5-9.65,1.24-14.41,2.47-2.41.62-4.8,1.33-7.15,2.15-2.17.75-4.73,1.46-6.63,2.77-.6.41-.23,1.31.49,1.17,2.38-.47,4.72-1.69,7.03-2.47,2.21-.75,4.44-1.45,6.69-2.06,4.62-1.27,9.37-2.33,14.12-3.01.57-.08.44-1.07-.14-1.01h0Z" style="fill: #dccdac;"/>
      <path d="m172.03,92.65c3.23,3.44,5.57,7.72,6.75,12.29.58,2.25.89,4.54.91,6.87,0,1.13-.03,2.27-.11,3.4-.08,1.19-.42,2.34-.46,3.53-.02.61.88.86,1.16.32,1.05-2.04,1.29-4.79,1.31-7.05.02-2.54-.32-5.11-1-7.55-1.35-4.86-3.98-9.24-7.72-12.62-.56-.5-1.35.28-.83.83h0Z" style="fill: #dccdac;"/>
      <path d="m169.69,93.95c2.67,4.02,4.67,8.56,5.81,13.25,1.15,4.71,1.35,9.58,1.19,14.41-.02.61.95.76,1.07.15,2.02-9.8-1.23-20.47-7.11-28.37-.42-.57-1.38-.05-.97.57h0Z" style="fill: #dccdac;"/>
      <path d="m166.55,94.92c1.14,3.94,2.14,7.91,2.95,11.93.81,4.01,1.22,8.09,2.04,12.09.1.48.84.36.84-.11.04-4.04-.74-8.17-1.54-12.11-.83-4.09-1.91-8.13-3.26-12.08-.22-.65-1.23-.39-1.04.29h0Z" style="fill: #dccdac;"/>
      <path d="m164.73,99.38c.33,6.47.43,13.02,1.22,19.45.06.49.79.53.8,0,.08-6.48-.54-12.99-.92-19.45-.04-.7-1.13-.71-1.09,0h0Z" style="fill: #dccdac;"/>
      <path d="m205.9,49.28c-1.26,3.69-2.57,7.35-4.23,10.89-1.63,3.47-3.51,6.81-5.41,10.13-.35.62.53,1.09.93.54,4.62-6.18,8.02-13.76,9.81-21.26.17-.72-.86-1-1.1-.3h0Z" style="fill: #dccdac;"/>
      <path d="m102.84,5.25c3.2,2.82,6.21,5.9,8.83,9.28,2.67,3.44,4.76,7.19,7.01,10.9.25.42.98.15.81-.34-1.38-4.14-3.86-7.96-6.54-11.36-2.75-3.5-5.91-6.62-9.51-9.25-.45-.33-1.01.4-.6.77h0Z" style="fill: #dccdac;"/>
      <path d="m111.39,5.86c1.92,2.9,3.85,5.79,5.83,8.65.98,1.41,1.95,2.81,2.93,4.22.96,1.38,1.89,2.93,3.09,4.1.47.46,1.13-.12.87-.67-.74-1.57-1.94-3-2.95-4.4-.97-1.35-1.94-2.69-2.92-4.04-2.01-2.79-4.08-5.53-6.15-8.28-.31-.41-1-.04-.7.41h0Z" style="fill: #dccdac;"/>
      <path d="m117.2,6.64c1.55,1.73,2.99,3.58,4.26,5.52,1.26,1.92,2.33,3.97,3.42,5.99.26.49,1.12.15.91-.39-1.68-4.41-4.7-8.39-8.09-11.63-.34-.32-.82.16-.51.51h0Z" style="fill: #dccdac;"/>
      <path d="m123.7,7.32c-.08-.38.08-.54.46-.5.2.08.35.21.46.39.15.21.22.47.33.7.25.56.5,1.12.76,1.68.56,1.19,1.15,2.37,1.72,3.55.57,1.18,1.13,2.38,1.74,3.54.6,1.14,1.2,2.38,1.97,3.41.3.41,1.06.19.89-.37-.27-.88-.72-1.7-1.11-2.54-.39-.84-.78-1.67-1.2-2.49-.87-1.67-1.75-3.34-2.63-5-.42-.8-.83-1.62-1.32-2.38-.3-.46-.7-.98-1.25-1.14-.79-.24-1.8.76-1.15,1.46.2.22.5-.1.32-.32h0Z" style="fill: #dccdac;"/>
      <path d="m128.79,4.15c1.84,3.71,3.65,7.45,5.77,11,.2.33.8.11.64-.27-1.62-3.86-3.56-7.57-5.47-11.28-.32-.63-1.26-.08-.94.55h0Z" style="fill: #dccdac;"/>
      <path d="m128.4,144.71c1.96,5.19,2.99,10.84,3,16.4,0,2.76-.26,5.51-.78,8.21-.26,1.35-.57,2.69-.94,4.01-.35,1.23-1,2.61-.92,3.9.02.35.43.54.69.29.87-.85,1.24-2.23,1.58-3.36.43-1.45.79-2.93,1.04-4.43.49-2.84.68-5.73.6-8.61-.17-5.78-1.56-11.28-4.11-16.46-.04-.09-.19-.03-.16.07h0Z" style="fill: #dccdac;"/>
      <path d="m135.89,154.08c.43,3.79.34,7.68-.18,11.47-.26,1.87-.63,3.72-1.11,5.54-.24.91-.52,1.81-.79,2.72-.25.84-.62,1.67-.65,2.55-.02.64.89,1.08,1.33.55,1.14-1.39,1.52-3.59,1.94-5.31.46-1.91.78-3.86.98-5.82.41-3.97.19-7.9-.43-11.84-.1-.61-1.16-.47-1.09.15h0Z" style="fill: #dccdac;"/>
      <path d="m142.4,161.47c-.18,2.49-.73,4.89-1.43,7.29-.33,1.14-.74,2.25-1.17,3.36-.22.55-.46,1.09-.69,1.64-.26.61-.55,1.15-.38,1.83.12.49.64.6,1.04.42,1.04-.45,1.45-2.16,1.82-3.14.46-1.23.82-2.49,1.11-3.77.57-2.49.73-5.08.7-7.63,0-.65-.95-.64-1,0h0Z" style="fill: #dccdac;"/>
      <path d="m146.07,164.07c-.43,1.98-.97,3.94-1.68,5.84-.35.93-.7,1.87-1.07,2.79-.18.45-.36.89-.54,1.34-.19.5-.5.99-.32,1.53.1.31.47.61.82.46.89-.37,1.23-1.64,1.56-2.49.39-.99.75-1.99,1.04-3.01.57-2.02,1.05-4.06,1.4-6.12.13-.79-1.04-1.14-1.22-.34h0Z" style="fill: #dccdac;"/>
      <path d="m149.01,156.84c.04,3.46-.3,6.95-.88,10.36-.29,1.68-.62,3.36-1.03,5.01-.21.83-.41,1.66-.63,2.49-.19.74-.4,1.26-.08,1.98.14.32.61.4.89.23.7-.43.81-1.14,1.04-1.89.26-.88.49-1.76.68-2.66.35-1.63.63-3.27.83-4.93.41-3.53.41-7.05.2-10.59-.04-.65-1.02-.66-1.02,0h0Z" style="fill: #dccdac;"/>
      <path d="m152.86,151.4c.73,3.87.79,7.91.4,11.82-.2,1.94-.56,3.86-1.05,5.75-.45,1.74-1.5,3.71-1.47,5.51.01.67.83,1,1.31.54,1.41-1.34,1.88-3.85,2.32-5.67.48-1.94.78-3.93.93-5.93.32-4.19-.23-8.29-1.41-12.31-.19-.66-1.15-.38-1.02.28h0Z" style="fill: #dccdac;"/>
      <path d="m158.06,149.64c.91,3.69,1.17,7.52.83,11.3-.17,1.87-.52,3.71-.97,5.53-.22.89-.48,1.78-.77,2.65-.29.87-.68,1.75-.64,2.68.03.7.82,1,1.33.55,1.4-1.21,1.88-3.75,2.32-5.47.48-1.88.75-3.82.88-5.75.27-4.03-.23-8.07-1.39-11.94-.31-1.02-1.85-.6-1.6.44h0Z" style="fill: #dccdac;"/>
      <path d="m163.55,154.3c.42,2.34.65,4.71.73,7.08.04,1.16.03,2.33,0,3.49-.02.58-.06,1.16-.09,1.75-.03.62-.12,1.3.28,1.82.37.49,1.01.65,1.5.19.86-.81.66-2.53.66-3.63,0-1.26-.03-2.51-.12-3.76-.19-2.51-.58-4.99-1.15-7.44-.27-1.18-2-.67-1.79.49h0Z" style="fill: #dccdac;"/>
      <path d="m171.82,154.32c.87,3.35.05,6.63-1.4,9.67-.36.76.64,1.73,1.26.98.66-.8,1.12-1.58,1.49-2.55.35-.92.57-1.86.7-2.84.25-1.89.02-3.86-.58-5.66-.31-.92-1.71-.55-1.46.4h0Z" style="fill: #dccdac;"/>
      <path d="m175.84,130.13c1.92,4.67,2.87,9.67,3.07,14.71.1,2.42-.01,4.83-.27,7.23-.27,2.49-1.13,5.01-.99,7.52.03.56.7.71,1.02.28,1.46-2.02,1.74-4.73,2.04-7.14.34-2.68.39-5.41.19-8.1-.4-5.2-1.83-10.21-3.95-14.96-.28-.62-1.38-.17-1.11.47h0Z" style="fill: #dccdac;"/>
      <path d="m184.1,130.15c.88,4.35,1.39,8.77,1.61,13.2.11,2.13.12,4.27.07,6.4-.02,1.11-.07,2.21-.13,3.32-.06,1.02-.19,2.08.09,3.06.19.65,1.2.87,1.53.2.9-1.87.65-4.55.65-6.58,0-2.21-.11-4.43-.3-6.64-.39-4.5-1.22-8.92-2.38-13.28-.2-.74-1.3-.43-1.14.32h0Z" style="fill: #dccdac;"/>
      <path d="m192.69,131.78c.27,3.29.39,6.62.42,9.92.02,1.66,0,3.32-.07,4.98-.03.77-.08,1.53-.1,2.3-.03.84-.19,1.76.09,2.55.26.74,1.37,1.02,1.78.23.39-.75.39-1.57.45-2.4.07-.89.09-1.78.1-2.68.02-1.66,0-3.32-.08-4.98-.15-3.41-.59-6.76-1.22-10.11-.14-.77-1.45-.6-1.38.19h0Z" style="fill: #dccdac;"/>
      <path d="m199.01,130.13c.57,2.63.73,5.29.61,7.97-.06,1.31-.21,2.61-.45,3.89-.12.66-.27,1.32-.41,1.98-.13.63-.38,1.28-.15,1.9.23.63.88.77,1.4.37.57-.45.71-1.31.88-1.99.16-.66.28-1.32.37-1.99.2-1.38.32-2.77.34-4.17.04-2.82-.38-5.66-1.1-8.38-.26-.97-1.7-.56-1.49.41h0Z" style="fill: #dccdac;"/>
      <path d="m125.08,148.47c.63,4.93.74,10,.34,14.95-.2,2.52-.56,5.04-1.04,7.52-.46,2.35-1.4,4.8-1.5,7.19-.03.7.93.89,1.27.34,1.27-2.05,1.69-4.91,2.13-7.25.47-2.5.78-5.03.94-7.57.32-5.17-.07-10.25-1.07-15.33-.12-.59-1.14-.46-1.06.14h0Z" style="fill: #dccdac;"/>
      <path d="m120.16,155c.34,3.78.26,7.62-.26,11.38-.26,1.86-.64,3.71-1.09,5.53-.23.93-.5,1.85-.77,2.77-.25.84-.63,1.69-.63,2.58,0,.58.82,1,1.23.51,1.14-1.37,1.51-3.67,1.92-5.38.45-1.87.75-3.78.96-5.7.43-3.96.32-7.9-.23-11.84-.09-.63-1.18-.49-1.12.15h0Z" style="fill: #dccdac;"/>
      <path d="m120.12,155.71c-.96,3.94-2.07,7.85-3.33,11.71-.63,1.93-1.3,3.84-2.01,5.75-.68,1.83-1.63,3.82-1.89,5.76-.08.56.55.84.9.38,1.13-1.48,1.8-3.55,2.45-5.29.74-1.97,1.42-3.96,2.07-5.95,1.28-3.93,2.39-7.91,3.36-11.93.24-1.01-1.31-1.44-1.55-.43h0Z" style="fill: #dccdac;"/>
      <path d="m113.47,161.23c-1.1,3.26-2.01,6.58-2.96,9.88-.46,1.62-.93,3.24-1.39,4.86-.43,1.52-1.14,3.31-1.06,4.91.03.56.71.72,1.02.28.87-1.26,1.2-3.08,1.61-4.55.47-1.69.94-3.38,1.4-5.06.92-3.31,1.88-6.62,2.64-9.97.19-.83-1-1.15-1.27-.35h0Z" style="fill: #dccdac;"/>
      <path d="m97.73,161.24c-.75,2.54-1.44,5.09-2.12,7.65-.33,1.23-.63,2.47-.94,3.7-.29,1.17-.82,2.58-.58,3.79.08.38.66.55.91.24.79-.96.98-2.41,1.28-3.58.31-1.24.63-2.47.92-3.71.61-2.58,1.21-5.15,1.75-7.75.17-.8-1-1.14-1.24-.34h0Z" style="fill: #dccdac;"/>
      <path d="m94.51,154.76c-1.58,3.62-2.94,7.34-3.97,11.16-.52,1.92-.96,3.86-1.33,5.81-.32,1.68-.96,3.93-.56,5.61.09.4.72.51.91.12.38-.78.43-1.66.56-2.51.15-.95.3-1.9.46-2.84.33-1.96.74-3.91,1.21-5.84.94-3.79,2.13-7.51,3.59-11.14.2-.5-.65-.86-.87-.37h0Z" style="fill: #dccdac;"/>
      <path d="m88.83,153.92c-1.16,3.92-2.45,7.8-3.65,11.71-.58,1.88-1.15,3.76-1.73,5.64-.57,1.87-1.43,3.89-1.55,5.85-.03.57.78.75,1.05.28.97-1.7,1.34-3.88,1.88-5.75.54-1.89,1.08-3.78,1.62-5.67,1.12-3.93,2.15-7.88,3.31-11.8.18-.6-.76-.85-.93-.26h0Z" style="fill: #dccdac;"/>
      <path d="m101.27,103.15c2.33,4.24,4.14,8.76,5.4,13.43.62,2.3,1.08,4.63,1.41,6.99.34,2.44.43,4.89.74,7.33.1.76,1.09.76,1.19,0,.59-4.83-.45-10.11-1.72-14.76-1.31-4.81-3.35-9.36-5.97-13.6-.41-.67-1.43-.07-1.05.62h0Z" style="fill: #dccdac;"/>
      <path d="m96.46,105.09c4.26,6.65,6.13,14.25,6.29,22.09.01.66.92.62,1,0,.98-7.98-1.68-16.2-6.45-22.58-.36-.49-1.18-.05-.84.49h0Z" style="fill: #dccdac;"/>
      <path d="m90.68,106c1.32,3.65,2.39,7.41,3.14,11.22.77,3.91,1.15,7.87,1.66,11.82.06.48.73.5.77,0,.52-7.87-1.62-16.08-4.53-23.32-.25-.63-1.28-.38-1.04.29h0Z" style="fill: #dccdac;"/>
      <path d="m87.95,108.77c.81,2.86,1.36,5.79,1.62,8.75.12,1.42.2,2.85.23,4.28.03,1.48-.15,2.98-.03,4.45.04.48.75.63.87.12.35-1.41.32-2.96.34-4.4.02-1.54-.06-3.08-.23-4.61-.33-3.01-.93-5.97-1.8-8.86-.19-.63-1.18-.37-.99.27h0Z" style="fill: #dccdac;"/>
      <path d="m78.62,111.43c.52,5.57.98,11.16,1.69,16.71.05.38.63.4.61,0-.31-5.58-.88-11.14-1.39-16.71-.05-.58-.96-.58-.91,0h0Z" style="fill: #dccdac;"/>
      <path d="m202.06,80.24c2.47,2.26,4.47,4.95,5.94,7.96,1.47,3.03,2.15,6.22,3.01,9.45.11.4.66.29.69-.09.3-3.41-.88-6.94-2.41-9.95-1.58-3.11-3.78-5.9-6.4-8.19-.56-.49-1.39.32-.83.83h0Z" style="fill: #dccdac;"/>
      <path d="m205.57,77.46c2.01,2.64,3.79,5.5,5.31,8.45,1.52,2.95,2.55,6.13,4.11,9.05.18.33.78.2.74-.2-.33-3.35-1.86-6.57-3.44-9.5-1.64-3.04-3.61-5.83-5.86-8.46-.4-.47-1.24.17-.86.66h0Z" style="fill: #dccdac;"/>
      <path d="m209.56,74.48c1.59,2.52,2.92,5.28,3.88,8.1.47,1.38.83,2.79,1.13,4.22.3,1.44.47,2.99.99,4.37.12.32.64.39.72,0,.31-1.41.07-2.93-.17-4.34-.28-1.57-.75-3.13-1.29-4.63-1.06-2.97-2.52-5.69-4.41-8.21-.37-.49-1.2-.05-.85.5h0Z" style="fill: #dccdac;"/>
      <path d="m212.05,72.65c.63,1.89,1.25,3.77,1.92,5.65.65,1.83,1.34,3.72,2.2,5.46.23.47.92.13.81-.34-.41-1.89-1.06-3.78-1.69-5.6-.64-1.85-1.33-3.68-2.01-5.51-.28-.76-1.5-.45-1.24.34h0Z" style="fill: #dccdac;"/>
      <path d="m195.53,18.97c2.21,3.63,3.93,7.62,5.1,11.71.58,2.02,1.01,4.07,1.36,6.14.35,2.06.46,4.13.79,6.19.11.69,1.05.42,1.12-.15.27-2.08.06-4.42-.25-6.49-.33-2.14-.81-4.26-1.46-6.33-1.32-4.17-3.26-8-5.74-11.6-.38-.56-1.28-.06-.92.54h0Z" style="fill: #dccdac;"/>
      <path d="m184.6,12.38c1.73,3.39,3.18,6.91,4.32,10.54,1.11,3.56,1.74,7.19,2.6,10.81.1.44.83.35.8-.11-.23-3.77-1.29-7.59-2.47-11.16-1.2-3.63-2.71-7.14-4.49-10.52-.26-.5-1.01-.06-.76.44h0Z" style="fill: #dccdac;"/>
      <path d="m177.87,10.84c1.69,2.19,3.14,4.59,4.35,7.08,1.19,2.45,1.96,5.08,3.14,7.52.16.32.68.16.67-.18-.08-2.8-1.28-5.62-2.53-8.09-1.3-2.58-2.94-4.95-4.83-7.13-.49-.57-1.24.24-.81.81h0Z" style="fill: #dccdac;"/>
      <path d="m174.52,7.69c1.25,2.95,2.4,5.94,3.55,8.93.57,1.46,1.11,2.93,1.63,4.4.53,1.48,1.19,2.91,1.76,4.37.2.51,1,.32.84-.23-.45-1.62-.85-3.24-1.45-4.81-.56-1.47-1.13-2.92-1.73-4.37-1.22-2.94-2.62-5.78-4.09-8.6-.19-.36-.67-.04-.53.31h0Z" style="fill: #dccdac;"/>
      <path d="m168.69,7.83c1.48,2.97,2.94,5.95,4.43,8.92,1.5,2.98,2.97,5.92,4.85,8.68.2.3.78.12.63-.26-1.18-3.1-2.73-5.98-4.3-8.9-1.6-2.97-3.23-5.92-4.84-8.88-.28-.51-1.02-.06-.77.45h0Z" style="fill: #dccdac;"/>
      <path d="m5.6,74.35c-.03,3.07-.08,6.08.32,9.13.38,2.94.96,5.86,1.79,8.7.63,2.17,1.38,4.37,2.78,6.18,1.1,1.43,2.91,2.88,4.84,2.54.41-.07.52-.76.12-.93-.87-.38-1.67-.61-2.44-1.22-.76-.6-1.33-1.37-1.83-2.19-1.18-1.96-1.8-4.19-2.4-6.39-1.39-5.07-2.31-10.56-2.26-15.83,0-.6-.93-.6-.94,0h0Z" style="fill: #dccdac;"/>
      <path d="m8.62,68.55c-1.17,5.78-.65,11.72,1.51,17.21,1.08,2.74,2.49,5.32,4.28,7.65.84,1.1,1.75,2.14,2.76,3.09.95.9,2.14,2.19,3.42,2.56.56.16,1.08-.49.77-1-.65-1.06-1.88-1.84-2.75-2.74-.97-1.01-1.9-2.07-2.74-3.2-1.62-2.17-2.99-4.54-4-7.05-2.05-5.08-2.83-10.76-1.97-16.19.13-.83-1.11-1.2-1.28-.35h0Z" style="fill: #dccdac;"/>
      <path d="m12.28,65.01c-1,7.08-.07,14.06,2.77,20.64,1.42,3.28,3.31,6.35,5.56,9.13,1.09,1.35,2.31,2.61,3.6,3.77,1.23,1.11,2.68,2.49,4.29,3,.52.16,1.12-.51.76-.99-.99-1.3-2.48-2.28-3.66-3.4-1.18-1.11-2.26-2.31-3.31-3.54-2.2-2.6-4.01-5.51-5.46-8.58-2.89-6.11-4.28-13.16-3.66-19.91.05-.5-.82-.63-.89-.12h0Z" style="fill: #dccdac;"/>
      <path d="m17.68,76.39c1.81,4.2,4.02,8.2,6.74,11.88,2.62,3.54,5.56,6.98,9.18,9.52.44.31.88-.35.55-.71-3.01-3.27-6.19-6.36-8.88-9.93-2.64-3.5-4.97-7.23-6.88-11.18-.23-.49-.92-.06-.72.42h0Z" style="fill: #dccdac;"/>
      <path d="m2.09,103.15c1.71,17.76,11.83,34.21,26.49,44.29,4.12,2.83,8.71,5.26,13.62,6.33.47.1.79-.55.34-.8-3.78-2.03-7.59-3.97-11.2-6.3-3.63-2.35-7.02-5.09-10.1-8.13-6.2-6.12-11.07-13.49-14.38-21.54-1.84-4.48-3.12-9.18-3.84-13.98-.08-.53-.99-.41-.94.13h0Z" style="fill: #dccdac;"/>
      <path d="m6.69,105.85c-.61,8.35,3.73,15.43,8.86,21.63,2.72,3.28,5.89,6.2,9.01,9.09,3.48,3.23,7.02,6.42,10.71,9.4,3.98,3.22,8.37,6.59,13.18,8.44.57.22.78-.59.38-.9-3.65-2.78-7.49-5.27-11.09-8.14-3.54-2.83-6.93-5.84-10.29-8.87-5.97-5.38-12.43-10.83-16.58-17.82-2.32-3.91-3.88-8.27-4.02-12.85,0-.1-.15-.1-.16,0h0Z" style="fill: #dccdac;"/>
      <path d="m26.12,128.26c5.75,4.86,11.29,10.04,16.61,15.37,2.64,2.65,5.21,5.35,7.77,8.09,2.59,2.78,5.05,5.72,7.76,8.39.51.5,1.45-.16,1.02-.79-2.12-3.05-4.68-5.81-7.18-8.56-2.56-2.82-5.26-5.53-7.99-8.19-5.5-5.34-11.27-10.27-17.29-15.01-.49-.38-1.19.28-.7.7h0Z" style="fill: #dccdac;"/>
      <path d="m122.96,114.94c.19.87.71,1.68,1.08,2.48.37.81.77,1.61,1.12,2.42.8,1.82,1.52,3.67,2.12,5.57,1.15,3.65,1.71,7.37,2.33,11.14.06.37.64.27.64-.09.08-3.88-.82-7.85-2.02-11.51-.59-1.79-1.27-3.55-2.08-5.25-.77-1.59-1.64-3.71-3.02-4.87-.08-.06-.19,0-.17.1h0Z" style="fill: #dccdac;"/>
      <path d="m128.98,116.13c.75,3.41,1.48,6.81,2.24,10.22.38,1.7.77,3.4,1.16,5.1.38,1.68.7,3.44,1.29,5.06.14.39.83.37.78-.11-.35-3.4-1.43-6.81-2.21-10.13-.81-3.46-1.66-6.91-2.49-10.36-.12-.51-.9-.29-.78.22h0Z" style="fill: #dccdac;"/>
      <path d="m135.3,119.89c.46,2.78.91,5.56,1.37,8.35.22,1.36.45,2.73.67,4.09.23,1.39.33,2.9.79,4.23.17.48.9.42.91-.12,0-1.35-.36-2.74-.58-4.07-.23-1.42-.47-2.84-.71-4.25-.47-2.83-.95-5.67-1.42-8.5-.11-.68-1.15-.39-1.04.29h0Z" style="fill: #dccdac;"/>
      <path d="m114.98,130.97c1.23,5.99,2.14,12.05,2.74,18.14.59,5.98.59,11.94.86,17.93.02.48.7.47.73,0,.5-6.08-.03-12.37-.73-18.41-.69-5.98-1.88-11.89-3.44-17.7-.03-.11-.19-.06-.17.05h0Z" style="fill: #dccdac;"/>
      <path d="m110.19,136.57c2.27,11.96,2,23.95.88,36.01-.04.43.66.52.75.1,2.53-11.9,1.65-24.49-.92-36.31-.1-.46-.8-.27-.71.2h0Z" style="fill: #dccdac;"/>
      <path d="m106.31,147.58c.19,4.48.21,8.97.02,13.45-.09,2.2-.23,4.4-.4,6.6-.17,2.2-.73,4.63-.5,6.82.06.64.91.79,1.14.15.69-1.98.65-4.4.81-6.49.17-2.28.28-4.56.33-6.84.11-4.57,0-9.14-.28-13.7-.05-.71-1.14-.72-1.11,0h0Z" style="fill: #dccdac;"/>
      <path d="m104,145.68c-.43,4.02-.86,8.04-1.28,12.07-.43,4-.96,8.05-1.04,12.07-.01.64,1.03.82,1.15.16.72-3.94,1.01-8,1.38-11.98l1.17-12.3c.08-.88-1.28-.87-1.38,0h0Z" style="fill: #dccdac;"/>
      <path d="m215.02,119.57c-8.27,14.67-20.46,26.97-34.82,35.71-4.01,2.44-8.1,4.64-12.34,6.65-.36.17-.1.78.27.64,15.93-5.76,29.65-17.04,39.78-30.48,2.89-3.84,5.46-7.93,7.73-12.17.21-.4-.38-.75-.61-.35h0Z" style="fill: #dccdac;"/>
      <path d="m210.16,120.33c-10.13,13.35-23.26,24.57-37.92,32.68-4.14,2.29-8.45,4.22-12.69,6.31-.52.26-.16,1.12.4.94,8.02-2.6,15.61-7.07,22.54-11.8,7.03-4.81,13.5-10.41,19.29-16.66,3.24-3.5,6.24-7.22,9.04-11.08.29-.4-.37-.77-.66-.39h0Z" style="fill: #dccdac;"/>
      <path d="m20.66,52.03c2.58.41,5.07,1.57,7.06,3.27.97.83,1.9,1.82,2.63,2.87.76,1.1,1.29,2.3,1.81,3.52.25.57,1.01.13.93-.39-.44-2.77-2.32-5.4-4.45-7.16-2.24-1.85-4.92-2.97-7.83-3.15-.59-.04-.74.95-.14,1.04h0Z" style="fill: #dccdac;"/>
      <path d="m25.07,45.01c1.68,2.09,3.37,4.16,5.1,6.2.84.99,1.68,1.97,2.54,2.95.88,1,1.76,2.05,2.81,2.86.44.34.95-.3.72-.72-.64-1.12-1.56-2.12-2.41-3.1-.87-1.01-1.76-2-2.65-3-1.78-1.99-3.6-3.93-5.43-5.87-.43-.46-1.05.21-.67.67h0Z" style="fill: #dccdac;"/>
      <path d="m28.9,42.99c1.93,1.62,3.77,3.4,5.42,5.31.81.94,1.58,1.92,2.29,2.94.36.52.73,1.04,1.09,1.56.37.54.69,1.09,1.19,1.54.35.32.88,0,.78-.46-.26-1.23-1.17-2.43-1.9-3.43-.77-1.04-1.58-2.05-2.45-3.01-1.76-1.95-3.72-3.65-5.9-5.12-.4-.27-.9.36-.52.67h0Z" style="fill: #dccdac;"/>
      <path d="m32.63,40.21c1.35,1.31,2.68,2.65,4.06,3.94,1.38,1.28,2.73,2.59,4.22,3.74.51.39,1.07-.42.66-.86-1.27-1.36-2.71-2.55-4.1-3.78-1.4-1.24-2.84-2.41-4.27-3.61-.39-.33-.96.2-.57.57h0Z" style="fill: #dccdac;"/>
      <path d="m38.24,35.63c1.47,1.13,2.82,2.41,4.03,3.81,1.22,1.41,2.24,2.92,3.27,4.47.16.24.52.03.39-.23-.81-1.69-1.99-3.26-3.25-4.65-1.27-1.41-2.7-2.66-4.23-3.76-.22-.16-.42.2-.21.36h0Z" style="fill: #dccdac;"/>
      <path d="m42.02,31.74c4.11,2.2,7.35,5.59,9.91,9.43.16.25.64.09.51-.22-1.86-4.47-5.67-7.91-10.05-9.86-.43-.19-.81.42-.38.65h0Z" style="fill: #dccdac;"/>
      <path d="m51.24,22.61c4.36,2.69,7.66,6.61,9.97,11.15.17.34.78.1.63-.26-2.01-4.81-5.84-8.77-10.37-11.26-.25-.14-.46.23-.22.38h0Z" style="fill: #dccdac;"/>
      <path d="m17.04,58c2.18.17,4.39.8,6.34,1.79.96.48,1.88,1.06,2.74,1.69.9.66,1.67,1.47,2.53,2.19.45.37,1.22-.11.86-.66-1.26-1.95-3.48-3.42-5.56-4.37-2.19-1-4.5-1.52-6.91-1.54-.59,0-.57.86,0,.91h0Z" style="fill: #dccdac;"/>
      <path d="m18.53,64.77c1.89,1.07,3.69,2.3,5.36,3.69.83.69,1.63,1.41,2.4,2.15.8.76,1.51,1.62,2.36,2.31.49.4,1.28-.1.92-.71-.57-.98-1.39-1.78-2.18-2.59-.8-.81-1.64-1.57-2.51-2.28-1.76-1.44-3.64-2.72-5.62-3.83-.82-.46-1.55.79-.73,1.25h0Z" style="fill: #dccdac;"/>
      <path d="m105.69,89.65c-2.3,1.63-4.53,3.31-6.58,5.25-1.01.95-1.99,1.94-2.94,2.95-.5.53-.98,1.08-1.44,1.65-.43.53-.92,1.04-1.16,1.68-.15.41.39.8.73.56.56-.37.95-.94,1.38-1.44.46-.52.91-1.05,1.37-1.57.91-1.05,1.85-2.07,2.83-3.06,1.94-1.97,3.94-3.91,6.09-5.65.21-.17-.07-.52-.28-.37h0Z" style="fill: #dccdac;"/>
      <path d="m107.66,91.63c-2.41,1.21-4.69,2.67-6.77,4.4-2.05,1.7-4.02,3.64-5.38,5.96-.19.33.26.68.53.41,1.86-1.83,3.6-3.78,5.59-5.48,2.01-1.71,4.18-3.22,6.48-4.5.51-.28.06-1.04-.46-.78h0Z" style="fill: #dccdac;"/>
      <path d="m199.37,56.5c-3.57,3.54-7.16,7.05-10.7,10.61-3.54,3.55-7.23,7.03-10.4,10.92-.29.35.15.79.5.5,3.86-3.2,7.3-6.93,10.82-10.5,3.53-3.58,7.01-7.2,10.51-10.8.46-.48-.26-1.2-.73-.73h0Z" style="fill: #dccdac;"/>
      <path d="m201.18,59.95c-2.71,1.88-5.33,3.9-7.83,6.05-2.51,2.16-4.98,4.5-7.07,7.07-.4.49.23,1.16.71.71,2.37-2.22,4.66-4.51,7.1-6.66,2.46-2.17,5.04-4.2,7.71-6.1.64-.45.03-1.52-.62-1.07h0Z" style="fill: #dccdac;"/>
      <path d="m202.25,74.13c-18.27,8.79-37.19,16.24-56.78,21.53-5.46,1.47-10.95,2.79-16.41,4.27-.65.18-.36,1.06.27.98,10.11-1.37,20.16-4.12,29.85-7.27,9.52-3.09,18.91-6.66,27.99-10.88,5.27-2.45,10.42-5.09,15.47-7.95.44-.25.05-.89-.39-.67h0Z" style="fill: #dccdac;"/>
      <path d="m181.92,79.62c-1.85.62-3.72,1.22-5.55,1.9-.22.08-.14.43.1.36,1.87-.55,3.72-1.19,5.58-1.8.3-.1.17-.57-.13-.47h0Z" style="fill: #dccdac;"/>
      <path d="m178.27,82.56c-23.31,6.88-46.97,12.84-70.8,17.65-3.33.67-6.65,1.35-9.98,2-3.4.66-6.85,1.19-10.21,2.04-.79.2-.65,1.54.2,1.46,5.99-.58,12-1.9,17.9-3.08,6.02-1.2,12.03-2.49,18.02-3.85,11.82-2.68,23.57-5.69,35.22-9.06,6.68-1.93,13.3-4.07,19.91-6.23.59-.19.34-1.11-.26-.93h0Z" style="fill: #dccdac;"/>
      <path d="m156.08,87.6c-19.97,3.87-40.03,7.3-60.14,10.39-5.66.87-11.32,1.75-16.97,2.67-.65.11-.5,1.21.16,1.15,20.21-1.89,40.3-5.44,60.18-9.48,5.7-1.16,11.36-2.48,17.03-3.79.62-.14.35-1.07-.26-.95h0Z" style="fill: #dccdac;"/>
      <path d="m156.05,84.88c-23.15,2.5-46.17,6.25-68.94,11.19-6.45,1.4-12.88,2.9-19.21,4.76-.55.16-.32.95.23.84,11.37-2.18,22.65-4.84,34.02-7.04,11.36-2.2,22.76-4.19,34.21-5.89,6.56-.97,13.11-1.94,19.68-2.8.66-.09.69-1.14,0-1.06h0Z" style="fill: #dccdac;"/>
      <path d="m151.17,98.59c1.79,3,3.31,6.19,4.46,9.49.57,1.63,1.02,3.29,1.43,4.96.19.78.36,1.56.51,2.35.17.88.2,1.85.52,2.69.23.61,1.01.47,1.09-.15.11-.84-.11-1.74-.24-2.57-.14-.91-.31-1.81-.51-2.71-.38-1.74-.92-3.44-1.54-5.11-1.25-3.36-2.9-6.48-4.96-9.41-.32-.45-1.05-.05-.76.44h0Z" style="fill: #dccdac;"/>
      <path d="m146.45,100.64c1.56,1.3,2.79,2.98,3.51,4.87.74,1.93.92,3.87,1.07,5.91.03.4.58.5.71.1.64-2.09.17-4.5-.68-6.47-.88-2.04-2.28-3.8-4.04-5.15-.42-.32-.98.4-.57.74h0Z" style="fill: #dccdac;"/>
      <path d="m145.48,101.46c.79,1.62,1.39,3.31,1.84,5.05.21.83.39,1.67.53,2.52.07.42.16.84.23,1.26.08.45.1.92.29,1.33.15.32.61.2.7-.09.14-.44.07-.93.04-1.38-.02-.42-.05-.83-.11-1.25-.15-.93-.36-1.87-.63-2.77-.53-1.77-1.26-3.48-2.15-5.1-.27-.49-.98-.06-.74.43h0Z" style="fill: #dccdac;"/>
      <path d="m140.95,103.55c.95.69,1.59,1.64,2.07,2.69.23.51.4,1.05.5,1.6.1.57.07,1.15.11,1.73.03.43.59.5.74.1.23-.62.21-1.32.13-1.97-.08-.67-.23-1.32-.49-1.94-.51-1.24-1.47-2.32-2.57-3.06-.52-.35-.98.48-.49.84h0Z" style="fill: #dccdac;"/>
      <path d="m136.2,104.23l1.36,1.96c.23.33.48.64.72.96.12.16.24.32.36.48.15.2.32.33.51.48.32.25.82-.16.69-.53-.07-.21-.14-.4-.27-.59-.11-.16-.23-.33-.34-.49-.22-.32-.43-.64-.67-.95-.47-.63-.95-1.25-1.42-1.88-.18-.24-.47-.36-.75-.2-.24.14-.37.5-.2.75h0Z" style="fill: #dccdac;"/>
      <path d="m58.35,110.12c-2.02,2.53-3.68,5.33-4.82,8.36-1.13,2.99-2.05,6.41-1.72,9.63.04.36.6.51.69.09.65-3.07,1.04-6.14,2.12-9.11,1.09-3,2.59-5.82,4.5-8.37.33-.44-.42-1.03-.77-.6h0Z" style="fill: #dccdac;"/>
      <path d="m61.07,112.09c-1.76,2.3-3.11,4.9-3.94,7.68-.79,2.64-1.33,5.72-.69,8.45.12.5.78.33.83-.11.16-1.39.22-2.79.37-4.19.15-1.33.42-2.64.8-3.93.77-2.64,1.98-5.12,3.59-7.35.42-.59-.53-1.11-.96-.56h0Z" style="fill: #dccdac;"/>
      <path d="m65.6,112.04c-2.14,4.76-3.97,9.93-4.42,15.16-.04.49.73.58.84.11.64-2.47,1.18-4.95,1.91-7.4.74-2.49,1.6-4.93,2.63-7.32.28-.65-.66-1.21-.96-.56h0Z" style="fill: #dccdac;"/>
      <path d="m69.39,114.21c0,4.33.01,8.65.23,12.97.02.31.47.31.48,0,.22-4.33.24-8.64.23-12.97,0-.61-.95-.61-.95,0h0Z" style="fill: #dccdac;"/>
      <path d="m44.24,78.42c1.82,3.09,3.26,6.38,4.27,9.83.99,3.38,1.42,6.85,2.21,10.27.11.47.74.31.78-.11.36-3.58-.51-7.34-1.64-10.72-1.15-3.45-2.73-6.75-4.68-9.82-.38-.59-1.3-.06-.94.55h0Z" style="fill: #dccdac;"/>
      <path d="m41.03,87.38c2.04,1.94,3.46,4.57,4.09,7.31.64,2.78.3,5.51-.07,8.29-.06.46.59.54.8.22,1.69-2.59,1.64-6.07.91-8.96-.77-3.05-2.42-5.72-4.84-7.74-.61-.51-1.48.32-.88.88h0Z" style="fill: #dccdac;"/>
      <path d="m38.93,93.24c1.87,2.05,3.16,4.63,3.73,7.34.28,1.33.37,2.68.34,4.04-.01.68-.08,1.35-.18,2.03-.04.32-.02.6-.03.92-.02.39-.13.76-.09,1.15.04.35.48.63.76.31.95-1.09,1.16-2.78,1.26-4.17.11-1.53-.07-3.11-.44-4.6-.74-3-2.3-5.71-4.56-7.81-.53-.49-1.28.26-.8.8h0Z" style="fill: #dccdac;"/>
      <path d="m37.96,98.56c.54,1.92,1.06,3.83,1.61,5.75.27.92.61,1.82.91,2.73.32.95.61,1.9,1.02,2.82.22.5.91.12.83-.35-.16-.95-.44-1.86-.69-2.79-.26-.96-.48-1.93-.78-2.88-.59-1.86-1.2-3.72-1.8-5.58-.22-.69-1.3-.41-1.1.3h0Z" style="fill: #dccdac;"/>
      <path d="m120.15,59.7c.54,3.2.64,6.48.37,9.71-.27,3.26-1.31,6.32-1.76,9.53-.06.44.5.76.76.32,1.68-2.83,2.09-6.45,2.32-9.68.24-3.41-.07-6.8-.77-10.14-.13-.6-1-.34-.9.25h0Z" style="fill: #dccdac;"/>
      <path d="m113.87,64.29c.64,2.56.85,5.19.64,7.82-.11,1.32-.31,2.63-.59,3.92-.27,1.26-.8,2.47-1.02,3.73-.1.58.61.91.96.4.74-1.08,1.08-2.51,1.4-3.77.35-1.35.54-2.76.6-4.15.13-2.77-.24-5.57-1.03-8.22-.18-.62-1.12-.36-.96.27h0Z" style="fill: #dccdac;"/>
      <path d="m199.36,84.05c1.34.89,2.39,2.11,3.18,3.5.8,1.41,1.14,2.94,1.37,4.53.08.51.83.34.86-.12.12-1.73-.49-3.51-1.33-5.01-.86-1.52-2.14-2.8-3.61-3.72-.52-.32-.97.48-.47.81h0Z" style="fill: #dccdac;"/>
      <path d="m154.95,4.2c2.42,1.31,4.54,3.23,6.16,5.45.79,1.09,1.46,2.25,2.04,3.46.62,1.28.96,2.64,1.44,3.97.2.56,1.11.51,1.09-.15-.04-1.48-.55-2.95-1.12-4.31-.57-1.36-1.33-2.63-2.23-3.8-1.82-2.38-4.17-4.22-6.9-5.47-.57-.26-1.06.54-.5.85h0Z" style="fill: #dccdac;"/>
      <path d="m152.93,4.27c1.29,1.41,2.37,2.99,3.24,4.69.87,1.7,1.48,3.5,2.06,5.31.18.57,1.19.51,1.1-.15-.51-4.04-2.77-7.81-5.56-10.71-.54-.56-1.37.28-.85.85h0Z" style="fill: #dccdac;"/>
      <path d="m148.19,4.03c.74,1.91,1.48,3.81,2.23,5.71.75,1.87,1.64,3.68,2.52,5.49.17.35.74.1.63-.26-.6-1.9-1.2-3.82-1.93-5.68-.74-1.87-1.5-3.73-2.26-5.59-.29-.72-1.48-.42-1.19.33h0Z" style="fill: #dccdac;"/>
      <path d="m212.43,110.48c.32,2.5.66,4.99,1.02,7.48.04.28.52.21.49-.07-.27-2.47-.56-4.94-.87-7.41-.05-.4-.69-.41-.64,0h0Z" style="fill: #dccdac;"/>
      <path d="m67.82,131.73c-.36,2.35-.72,4.71-1.08,7.06-.34,2.28-.82,4.63-.9,6.94-.01.46.68.55.8.11.58-2.23.79-4.63,1.11-6.91.32-2.32.64-4.64.96-6.95.08-.58-.8-.83-.89-.24h0Z" style="fill: #dccdac;"/>
      <path d="m73.36,140.07c-.82,4.33-1.73,8.65-2.18,13.03-.05.46.69.55.8.11,1.04-4.24,1.63-8.58,2.31-12.89.09-.59-.8-.86-.92-.25h0Z" style="fill: #dccdac;"/>
      <path d="m99.43,13.2c1.96,2.72,3.93,5.44,5.89,8.16,1.92,2.66,3.82,5.37,5.99,7.83.24.28.69-.08.5-.39-1.69-2.83-3.7-5.47-5.66-8.11-1.97-2.66-3.93-5.32-5.9-7.97-.36-.49-1.18-.02-.82.48h0Z" style="fill: #dccdac;"/>
      <path d="m100.95,19.16c3.89,4.52,6.39,9.87,8.27,15.48.19.58,1.01.34.9-.25-.27-1.55-.64-2.98-1.22-4.45-.55-1.41-1.18-2.78-1.92-4.1-1.49-2.67-3.31-5.09-5.42-7.3-.39-.41-.98.2-.62.62h0Z" style="fill: #dccdac;"/>
      <path d="m101.94,29.96c.9,2.24,1.94,4.41,3.15,6.5.59,1.02,1.22,2.04,1.9,3,.69.97,1.39,2.07,2.28,2.87.33.29.84-.07.61-.47-.55-.99-1.33-1.87-1.96-2.82-.66-.98-1.31-1.97-1.92-2.99-1.21-2.03-2.26-4.15-3.16-6.34-.22-.55-1.13-.31-.9.25h0Z" style="fill: #dccdac;"/>
      <path d="m99.25,43c1.37,2.22,2.74,4.45,4.11,6.67.67,1.09,1.36,2.19,2.07,3.26.7,1.05,1.37,2.18,2.2,3.14.3.35.75-.1.59-.45-.51-1.16-1.25-2.27-1.91-3.35-.67-1.1-1.36-2.18-2.06-3.26-1.4-2.16-2.8-4.31-4.2-6.47-.32-.49-1.11-.04-.8.47h0Z" style="fill: #dccdac;"/>
      <path d="m96.37,44.79c.96,2.5,2.12,4.89,3.52,7.17.7,1.13,1.44,2.23,2.23,3.3.37.5.78.97,1.19,1.44.44.51.88,1.09,1.45,1.45.43.27.85-.25.65-.65-.26-.55-.73-1-1.1-1.48-.41-.53-.8-1.07-1.21-1.6-.79-1.02-1.53-2.09-2.23-3.17-1.39-2.17-2.6-4.46-3.63-6.83-.21-.49-1.06-.14-.87.37h0Z" style="fill: #dccdac;"/>
      <path d="m93.5,48.68c1.06,1.91,2.11,3.82,3.19,5.72.53.93,1.06,1.87,1.59,2.8.26.45.53.89.8,1.33.28.47.53,1.04.97,1.38.4.32.92.02.84-.49-.09-.55-.46-1.04-.73-1.52-.25-.45-.5-.9-.77-1.35-.55-.92-1.1-1.84-1.66-2.76-1.12-1.87-2.27-3.73-3.41-5.59-.31-.51-1.1-.06-.81.47h0Z" style="fill: #dccdac;"/>
      <path d="m90.92,50.42c.62,1.24,1.23,2.47,1.85,3.71.3.6.7,1.17,1.03,1.75.35.61.69,1.22,1.06,1.82.12.2.5.07.4-.17-.27-.65-.56-1.28-.86-1.92-.29-.62-.52-1.26-.83-1.87-.63-1.26-1.31-2.49-1.96-3.73-.24-.46-.92-.05-.69.4h0Z" style="fill: #dccdac;"/>
      <path d="m160.49,31.92c4.31,4.29,7.51,9.31,10.13,14.77.12.25.53.07.44-.19-1.91-5.77-5.68-10.96-10.19-14.97-.26-.23-.64.14-.39.39h0Z" style="fill: #dccdac;"/>
      <path d="m170.56,32.98c1.42,1.71,2.76,3.5,3.98,5.35.6.91,1.16,1.83,1.7,2.77.56.97,1.04,1.98,1.65,2.91.27.41,1,.16.83-.35-.37-1.07-.93-2.05-1.49-3.03-.57-1-1.18-1.98-1.82-2.93-1.27-1.9-2.67-3.69-4.21-5.37-.41-.44-1.02.2-.65.65h0Z" style="fill: #dccdac;"/>
    </g>
  </g>
</svg>