<?xml version="1.0" encoding="UTF-8"?>
<svg id="Layer_2" data-name="Layer 2" xmlns="http://www.w3.org/2000/svg" viewBox="0 0 233.74 137.27">
  <g id="_ÎÓÈ_1" data-name="—ÎÓÈ_1">
    <g>
      <path d="m227.51,37.85c.83,2.95,1.6,6,2.02,9.04.4,2.93.43,5.85.43,8.8,0,5.94-1.04,11.83-2.83,17.48-3.66,11.59-10.52,21.87-18.55,30.89-4.05,4.55-8.39,8.82-12.87,12.94-4.51,4.15-9.16,8.65-14.99,10.87-5.78,2.2-12.15,2.86-18.26,3.58-6.07.71-12.17,1.19-18.27,1.42-24.02.9-48.24-2.01-71.1-9.58-11.34-3.75-22.27-8.67-32.54-14.77-9.59-5.7-18.71-12.49-25.72-21.25-6.31-7.89-10.52-17.48-10.42-27.69.09-8.96,3.24-18.21,10-24.32,1.61-1.46,3.44-2.74,5.38-3.73,2.44-1.25.29-4.91-2.14-3.67C8.66,32.44,2.96,41.32.91,51.04c-2.19,10.38-.37,20.91,4.61,30.22,5.57,10.41,14.45,18.69,24.02,25.41,10.03,7.05,21.08,12.68,32.46,17.2,23.34,9.27,48.59,13.41,73.65,13.4,12.71,0,25.59-.95,38.11-3.21,3.3-.6,6.53-1.43,9.62-2.76,3.05-1.31,5.77-3.18,8.35-5.24,4.96-3.96,9.6-8.44,14.06-12.94,8.9-8.99,17.09-19.11,22.24-30.75,5.06-11.43,7.33-24.41,4.31-36.68-.74-3.01-1.78-5.77-3.29-8.48-.47-.83-1.8-.27-1.54.65h0Z" style="fill: #D2B48c;"/>
      <path d="m19.17,30.63c2.93-1.89,5.29-4.66,7.99-6.85,2.76-2.24,5.7-4.25,8.75-6.07,6.15-3.66,12.76-6.5,19.58-8.64,15.47-4.85,31.65-5.77,47.76-5.47,4.9.09,9.79.41,14.69.57,4.9.16,9.76.31,14.67.29,1.05,0,1.37-1.73.26-1.9-4.32-.66-8.61-1.23-12.97-1.6-4.48-.38-8.97-.65-13.46-.81-8.87-.3-17.77-.15-26.6.76-15.04,1.56-29.98,5.32-43.22,12.8-3.56,2.01-6.95,4.29-10.16,6.81-3.09,2.43-6.79,5.21-8.63,8.76-.43.83.47,1.91,1.35,1.35h0Z" style="fill: #D2B48c;"/>
      <path d="m124.54,5.27c7.93,1.7,16.01,2.54,24.03,3.72,8.07,1.18,16.11,2.67,24.07,4.45,7.88,1.76,15.73,3.78,23.46,6.14,7.2,2.19,14.36,4.86,20.52,9.27,2.93,2.1,5.65,4.66,7.79,7.57,1.07,1.45,2.01,3,2.8,4.62.82,1.66,1.5,3.54,2.84,4.81.59.56,1.54.3,1.78-.47.26-.86.38-1.51.13-2.41-.22-.8-.36-1.62-.66-2.41-.62-1.66-1.51-3.23-2.49-4.7-1.91-2.9-4.26-5.52-6.91-7.78-5.79-4.94-12.75-8.15-19.91-10.58-7.82-2.66-15.88-4.71-23.93-6.56-8.27-1.89-16.62-3.46-25.02-4.71-9.36-1.39-18.9-2.6-28.38-1.87-.49.04-.67.8-.12.92h0Z" style="fill: #D2B48c;"/>
      <path d="m21.17,31.49c9.08.92,18.27-.52,27.36-.58,1.78-.01,3.56.08,5.27.6,1.74.52,2.97,1.53,4.17,2.85,1.2,1.32,2.48,2.5,4.23,3.03,1.5.45,3.08.35,4.6.07,1.8-.33,3.49-1.02,5.22-1.58.85-.27,1.73-.54,2.59-.76.89-.23,1.79-.13,2.7-.2.97-.08,1.35-1.29.5-1.83-2.71-1.75-6.68-.37-9.48.44-1.45.42-2.95.95-4.48.78-1.69-.19-2.7-1.38-3.8-2.55-2.67-2.83-6.14-3.85-9.95-3.96-4.36-.13-8.79.43-13.13.75-5.31.4-10.73.65-15.93,1.81-.68.15-.45,1.07.15,1.14h0Z" style="fill: #D2B48c;"/>
      <path d="m76.37,35.04c3.71-.6,7.44.76,10.69,2.46,3.33,1.74,6.25,4.01,9.15,6.37,2.75,2.24,5.53,4.5,8.64,6.24,1.47.82,3.15,1.66,4.8,2.02,1.45.31,3.63.85,4.98.11.9-.49.69-1.6,0-2.13-.71-.54-1.72-.56-2.57-.79-.83-.23-1.61-.59-2.41-.89-1.65-.64-3.23-1.51-4.72-2.45-3-1.89-5.7-4.19-8.49-6.37-5.88-4.6-12.88-8.71-20.53-6.22-1.07.35-.62,1.83.46,1.66h0Z" style="fill: #D2B48c;"/>
      <path d="m109.31,50.21c2.37.15,4.72.46,7.08.72,2.28.25,4.59.38,6.87.66,4.6.57,9.22,1.02,13.82,1.67,9.28,1.31,18.43,3.31,27.46,5.8,4.97,1.37,9.93,3.46,15.11,3.9,1.09.09,1.26-1.37.51-1.89-3.83-2.68-8.6-3.87-13.03-5.17-4.53-1.34-9.12-2.46-13.74-3.44-9.2-1.95-18.63-3.47-28.04-3.88-5.39-.23-10.67.09-16.04.45-.76.05-.76,1.14,0,1.19h0Z" style="fill: #D2B48c;"/>
      <path d="m177.34,63.61c5.56,1.83,10.41,5.72,14.07,10.21,1.77,2.17,3.24,4.68,4.24,7.29.51,1.32.92,2.7,1.35,4.04.47,1.49.55,2.93,1.46,4.25.39.57,1.34.7,1.7,0,.84-1.61.57-3.11.34-4.85-.2-1.55-.61-3-1.19-4.46-1.24-3.14-2.93-6.02-5.05-8.64-4.15-5.14-9.99-8.42-16.45-9.57-1.12-.2-1.58,1.35-.47,1.72h0Z" style="fill: #D2B48c;"/>
      <path d="m176.28,59.98c2.06.34,4.09.76,6.16.98,1.95.22,3.94.26,5.89.37,1.96.11,3.93.15,5.89.22,2.03.07,4.09-.04,5.97-.88.72-.32.65-1.47,0-1.81-1.67-.89-3.64-1.17-5.51-1.23-2.04-.06-4.08-.16-6.12-.19-1.96-.03-3.94-.09-5.89-.03-2.05.07-4.08.36-6.12.56-1.04.1-1.49,1.8-.27,1.99h0Z" style="fill: #D2B48c;"/>
      <path d="m199.22,47.37c-1.77,1.27-3.38,2.79-4.7,4.53-1.32,1.72-2.6,3.85-2.83,6.04-.15,1.4,2.02,1.92,2.63.71.26-.52.45-1.04.64-1.59.08-.22.16-.44.24-.66.05-.12.09-.24.14-.36.1-.24-.07.15.04-.09.4-.91.83-1.82,1.34-2.68.46-.78.96-1.59,1.56-2.28.65-.76,1.36-1.45,2.12-2.1.83-.7-.28-2.16-1.17-1.52h0Z" style="fill: #D2B48c;"/>
      <path d="m55.44,28.08c3.52-.64,6.85-1.08,10.43-.87,3.43.2,6.79.95,10.07,1.94,7.03,2.11,13.79,5.14,20.66,7.73,14.2,5.35,28.54,10.37,43.02,14.94,4,1.26,8.02,2.48,12.05,3.67,2.01.6,4.03,1.18,6.06,1.7,2.13.54,4.33,1.17,6.53,1.3,1.28.08,1.73-1.79.65-2.39-1.67-.91-3.52-1.42-5.3-2.06-1.82-.66-3.68-1.23-5.53-1.8-3.71-1.13-7.41-2.29-11.1-3.47-7.38-2.37-14.75-4.76-22.08-7.29-7.33-2.52-14.63-5.14-21.89-7.86-7.04-2.63-14-5.61-21.21-7.76-7.14-2.12-16.42-3.93-23.07.53-.89.6-.32,1.87.71,1.68h0Z" style="fill: #D2B48c;"/>
      <path d="m7.61,51.35c-.4,1.48-.47,3.09-.64,4.61-.18,1.64-.29,3.27-.31,4.92-.04,3.15.26,6.31.71,9.42.45,3.17,1.12,6.32,2.04,9.39.89,2.98,2.09,6.23,3.83,8.82.42.63,1.46.25,1.26-.53-.79-3-1.94-5.94-2.83-8.91-.87-2.93-1.58-5.91-2.08-8.92-.51-3.07-.75-6.16-.9-9.27-.07-1.49-.1-2.98-.12-4.47-.02-1.63.21-3.27.17-4.9-.02-.64-.96-.8-1.14-.15h0Z" style="fill: #D2B48c;"/>
      <path d="m13.91,56.84c-1.19,6.48-1.74,12.91-1.18,19.5.28,3.25.82,6.47,1.57,9.64.36,1.54.78,3.07,1.25,4.58.48,1.55.95,3.3,1.91,4.63.46.63,1.81.54,1.69-.46-.18-1.5-.78-2.92-1.26-4.35-.5-1.5-.95-3.02-1.35-4.55-.81-3.12-1.4-6.3-1.8-9.49-.8-6.32-.91-12.96.08-19.25.09-.59-.79-.85-.9-.25h0Z" style="fill: #D2B48c;"/>
      <path d="m19.05,59.19c-1.75,6.83-2.4,13.8-1.74,20.83.33,3.48.88,6.99,1.79,10.37.44,1.64.98,3.26,1.58,4.84.61,1.59,1.3,3.29,2.52,4.52.48.49,1.46.15,1.41-.59-.1-1.6-.72-3.17-1.24-4.68-.56-1.61-1.07-3.22-1.53-4.86-.92-3.21-1.67-6.46-2.12-9.78-.9-6.73-.86-13.71.25-20.41.1-.6-.78-.87-.93-.26h0Z" style="fill: #D2B48c;"/>
      <path d="m24.83,71.12c-1.7,6.1-2.4,12.45-1.83,18.76.28,3.12.85,6.21,1.72,9.22.43,1.5.94,2.97,1.56,4.4.31.72.62,1.44,1,2.13.42.77.97,1.16,1.63,1.73.42.36,1.21.15,1.17-.49-.04-.73.02-1.4-.2-2.11-.21-.67-.51-1.33-.76-2-.52-1.41-1.02-2.83-1.46-4.26-.89-2.88-1.54-5.86-1.94-8.84-.8-6-.56-12.18.89-18.05.28-1.15-1.46-1.64-1.78-.49h0Z" style="fill: #D2B48c;"/>
      <path d="m31.95,77.85c-1.31,5.21-1.85,10.72-1.3,16.07.28,2.65.73,5.31,1.45,7.88.63,2.24,1.46,5.55,3.44,6.97.63.46,1.39-.17,1.43-.82.08-1.15-.45-2.34-.85-3.4-.44-1.16-.83-2.34-1.2-3.52-.77-2.44-1.38-4.91-1.77-7.44-.79-5.12-.82-10.28.06-15.39.14-.82-1.06-1.18-1.27-.35h0Z" style="fill: #D2B48c;"/>
      <path d="m38,82.34c-.37,4.21-.46,8.46-.13,12.67.31,3.95.74,8.36,2.33,12.02.35.8,1.74.41,1.66-.45-.18-1.92-.69-3.8-1.01-5.7-.35-2.11-.68-4.21-.91-6.33-.45-4.06-.56-8.13-.31-12.21.06-1.05-1.54-1.03-1.62,0h0Z" style="fill: #D2B48c;"/>
      <path d="m46.53,74.4c-1.05.58-1.54,2.32-1.95,3.38-.55,1.45-1.07,2.92-1.46,4.41-.74,2.85-1.19,5.78-1.42,8.72-.46,5.92.16,12.1,1.88,17.79.43,1.41.97,2.81,1.53,4.17.52,1.25,1.12,2.98,2.18,3.9.66.57,1.69.38,1.93-.51.15-.54-.15-1.3-.31-1.83-.24-.8-.54-1.59-.83-2.38-2.03-5.66-3.21-11.74-3.3-17.76-.05-3.39.19-6.77.74-10.12.26-1.59.57-3.2.96-4.77.2-.82.46-1.63.65-2.45.18-.75.49-1.46.25-2.21-.12-.37-.52-.54-.86-.35h0Z" style="fill: #D2B48c;"/>
      <path d="m53.97,76.19c-.93,1.94-1.92,3.83-2.67,5.85-.78,2.11-1.49,4.22-2.09,6.39-1.12,4.05-1.67,8.32-1.61,12.52.05,3.93.62,7.87,1.82,11.62.59,1.85,1.33,3.69,2.24,5.41.8,1.5,1.98,3.84,3.8,4.22.52.11.91-.22.96-.73.16-1.66-1.26-3.45-1.98-4.88-.85-1.7-1.59-3.44-2.16-5.25-1.1-3.5-1.69-7.15-1.79-10.81-.1-4,.34-8,1.08-11.93.76-4.05,1.89-8.16,3.29-12.03.19-.52-.66-.88-.9-.38h0Z" style="fill: #D2B48c;"/>
      <path d="m59.38,80.89c-2.3,8.2-4.76,16.66-4.08,25.27.29,3.62,1.04,7.19,2.43,10.55.69,1.67,1.54,3.32,2.6,4.79,1.1,1.53,2.26,2.59,3.82,3.59.7.45,1.62-.45,1.15-1.15-1.86-2.78-3.79-5.61-5.04-8.74-1.25-3.13-1.96-6.47-2.19-9.83-.56-8.11,1.12-16.17,2.84-24.06.22-1-1.26-1.42-1.54-.42h0Z" style="fill: #D2B48c;"/>
      <path d="m65.12,84.97c-1.25,3.26-2.16,6.46-2.62,9.93-.44,3.3-.49,6.65-.24,9.97.25,3.34.81,6.64,1.71,9.87.46,1.66,1.04,3.28,1.69,4.87.53,1.31,1.29,3.3,2.38,4.21.55.46,1.55.2,1.52-.63-.03-.81-.39-1.5-.68-2.26-.28-.74-.47-1.49-.75-2.23-.55-1.48-1.01-2.98-1.44-4.5-.88-3.12-1.5-6.33-1.81-9.56-.62-6.39-.14-13.13,1.3-19.39.16-.7-.81-.95-1.06-.29h0Z" style="fill: #D2B48c;"/>
      <path d="m185.65,71.08c2.76,4.85,5,10.2,6.79,15.47.88,2.58,1.6,5.2,2.23,7.84.33,1.36.58,2.73.86,4.1.29,1.39.46,2.95.98,4.27.3.76,1.7,1.06,1.85,0,.38-2.71-.4-5.78-.98-8.43-.64-2.87-1.49-5.69-2.5-8.46-.96-2.65-2.11-5.24-3.38-7.76-1.37-2.72-3.09-5.15-4.83-7.64-.43-.62-1.42-.08-1.03.6h0Z" style="fill: #D2B48c;"/>
      <path d="m184.06,74.88c1.42,4.2,2.46,8.65,3.17,13.03.36,2.21.58,4.44.75,6.67.08,1.06.15,2.12.25,3.19.1,1.13-.01,2.29.26,3.39.19.8,1.27.69,1.51,0,.38-1.07.33-2.27.43-3.39.11-1.22.11-2.42.07-3.64-.08-2.24-.38-4.47-.76-6.67-.82-4.63-2.32-8.9-4.37-13.13-.35-.72-1.57-.22-1.31.55h0Z" style="fill: #D2B48c;"/>
      <path d="m178.38,77.34c1.44,3.51,2.12,7.34,2.38,11.12.12,1.82.08,3.64-.04,5.46-.06.91-.18,1.81-.29,2.72-.11.94-.43,2.02-.14,2.93.2.64,1.05.94,1.55.41.66-.7.8-1.7.99-2.62.21-1,.31-2.03.39-3.04.16-2.01.06-4.05-.19-6.05-.49-4.03-1.88-7.73-3.71-11.33-.26-.51-1.17-.15-.94.4h0Z" style="fill: #D2B48c;"/>
      <path d="m171.33,79.69c1.18,2.85,1.8,6.03,2.23,9.08.21,1.49.35,2.99.37,4.5.01.75,0,1.51.02,2.26.02.81-.13,1.72.15,2.49.26.71,1.2.9,1.63.21.43-.7.44-1.58.53-2.38.09-.87.1-1.71.07-2.58-.07-1.6-.24-3.22-.54-4.8-.63-3.3-2-6.22-3.58-9.15-.25-.47-1.09-.14-.88.37h0Z" style="fill: #D2B48c;"/>
      <path d="m166.33,83.72c.67,2.5,1.12,5.09,1.39,7.67.13,1.27.19,2.54.22,3.81.03,1.17-.12,2.73.59,3.72.22.31.72.47,1.01.13.87-.99.81-2.61.76-3.85-.06-1.33-.22-2.65-.41-3.96-.41-2.74-1.2-5.32-2.25-7.88-.32-.79-1.55-.51-1.31.36h0Z" style="fill: #D2B48c;"/>
      <path d="m162.47,86.85c.53,2.38.91,4.84,1.08,7.27.09,1.2.1,2.41.08,3.61-.02,1.15-.16,2.51.47,3.53.21.34.71.43.99.13.88-.95.94-2.43.94-3.66,0-1.25-.08-2.5-.21-3.75-.29-2.62-.9-5.1-1.88-7.54-.36-.89-1.69-.57-1.47.4h0Z" style="fill: #D2B48c;"/>
      <path d="m159.17,88.27c-.1,2.1-.16,4.2-.2,6.3-.02,1.03-.05,2.06-.05,3.09,0,.52.03,1.03.06,1.55.04.59.03,1.02.42,1.49.25.3.83.3,1.08,0,.61-.73.48-2,.48-2.92,0-1.07-.03-2.14-.05-3.21-.05-2.1-.11-4.2-.2-6.3-.05-.98-1.48-.98-1.52,0h0Z" style="fill: #D2B48c;"/>
      <path d="m154.32,88.82c-.31,1.86-.43,3.73-.33,5.62.05.95.15,1.91.34,2.85.1.47.16.98.4,1.4.22.39.38.9.74,1.18.32.26.91.32,1.12-.14.19-.42.15-.78.18-1.22.02-.32.06-.56.02-.89-.03-.19-.05-.37-.08-.56-.11-.87-.23-1.75-.33-2.62-.2-1.78-.29-3.58-.29-5.38,0-.98-1.6-1.27-1.77-.24h0Z" style="fill: #D2B48c;"/>
      <path d="m150.48,89.85c-.09,1.42-.2,2.85-.27,4.27-.03.7-.07,1.4-.08,2.09,0,.73.08,1.45.13,2.18.1,1.2,1.78,1.21,1.87,0,.06-.7.15-1.4.14-2.09,0-.73-.05-1.45-.08-2.18-.06-1.43-.18-2.85-.27-4.27-.06-.93-1.39-.94-1.45,0h0Z" style="fill: #D2B48c;"/>
      <path d="m147.76,91.17c-.28,1.56-.6,3.11-.82,4.68-.11.8-.31,1.64-.34,2.45-.02.4.02.81.03,1.2.01.47.02.82.34,1.21.19.23.65.29.89.12.4-.29.5-.62.63-1.07.11-.38.26-.77.34-1.15.18-.79.21-1.65.31-2.46.19-1.57.28-3.16.42-4.73.09-1.03-1.64-1.28-1.82-.25h0Z" style="fill: #D2B48c;"/>
      <path d="m139.97,90.12c-.56,1.23-1.19,2.45-1.65,3.72-.45,1.23-1.1,2.41-1.38,3.7-.16.74.75,1.08,1.18.5.76-1.05,1.21-2.3,1.82-3.43.62-1.14,1.1-2.36,1.62-3.55.2-.46.13-.99-.33-1.27-.4-.23-1.06-.12-1.27.33h0Z" style="fill: #D2B48c;"/>
      <path d="m193.8,82.3c2.23,5.48,3.32,11.67,3.33,17.57,0,2.93-.19,5.85-.74,8.73-.57,3-1.65,5.91-2.06,8.93-.15,1.1,1.09,1.66,1.78.75,1.9-2.51,2.69-5.81,3.23-8.87.55-3.14.83-6.35.68-9.54-.31-6.44-2.07-12.37-5.14-18.03-.31-.57-1.33-.17-1.07.45h0Z" style="fill: #D2B48c;"/>
      <path d="m191.46,94.12c.83,4.87,1.31,9.78.87,14.72-.21,2.4-.6,4.78-1.23,7.11-.3,1.12-.66,2.23-1.04,3.34-.41,1.18-.94,2.31-.73,3.57.12.74,1.13,1.07,1.72.7,1.06-.67,1.51-1.88,1.95-3.01.48-1.22.86-2.48,1.18-3.75.66-2.6,1.08-5.28,1.18-7.96.2-5.17-.65-10.47-2.96-15.12-.28-.56-1.03-.14-.94.4h0Z" style="fill: #D2B48c;"/>
      <path d="m187.1,96.35c1.04,5.56.61,11.73-.58,17.24-.58,2.7-1.34,5.36-2.4,7.91-.56,1.36-1.22,2.67-1.87,3.99-.6,1.22-1.38,2.48-1.62,3.84-.11.62.53,1.29,1.15.89,2.34-1.52,3.63-4.73,4.65-7.22,1.18-2.86,2.09-5.87,2.58-8.93.48-2.99.66-5.96.45-8.98-.2-3.04-.95-5.97-1.77-8.89-.11-.38-.66-.22-.59.16h0Z" style="fill: #D2B48c;"/>
      <path d="m181.81,98.58c-.47,6.41-1.35,12.91-2.68,19.2-.51,2.4-1.04,4.86-2.09,7.1-.5,1.06-1.11,2.07-1.8,3.01-.35.47-.76.84-1.15,1.26-.45.47-.75.96-1.25,1.39-.65.56.05,1.56.8,1.37,1.31-.32,2.28-.71,3.28-1.64.95-.88,1.72-1.93,2.31-3.08,1.25-2.4,1.97-5.06,2.47-7.71.65-3.43,1.07-6.87,1.29-10.35.22-3.54-.02-7.03-.39-10.55-.05-.49-.74-.5-.77,0h0Z" style="fill: #D2B48c;"/>
      <path d="m176.83,106.33c-.89,4.84-2.17,9.66-3.89,14.27-.77,2.06-1.57,4.16-2.72,6.04-.98,1.61-2.37,2.86-3.75,4.11-.61.55-.14,1.7.69,1.66,1.18-.06,1.86-.27,2.82-1,.88-.67,1.56-1.46,2.18-2.37,1.32-1.94,2.18-4.2,2.96-6.4,1.85-5.21,2.86-10.62,3.03-16.14.02-.74-1.17-.93-1.31-.18h0Z" style="fill: #D2B48c;"/>
      <path d="m168.16,111.25c-.43,4.41-1.67,8.81-3.36,12.9-.83,2.01-1.85,3.96-3,5.8-.57.92-1.15,1.84-1.74,2.75-.62.95-1.25,1.68-1.34,2.84-.05.66.69,1.14,1.28.97,1.12-.32,1.71-1.14,2.41-2.01.76-.96,1.47-1.93,2.09-2.98,1.2-2.04,2.22-4.19,3.08-6.4,1.72-4.45,2.41-9.12,2.38-13.87,0-1.17-1.67-1.12-1.78,0h0Z" style="fill: #D2B48c;"/>
      <path d="m161.67,115.05c-.54,3.48-1.66,6.93-3.16,10.12-.73,1.55-1.54,3.07-2.47,4.51-.49.77-.99,1.54-1.51,2.28-.55.78-1.09,1.45-1.16,2.43-.05.75.8,1.37,1.5,1.14,1.66-.54,2.77-2.82,3.58-4.26.91-1.65,1.72-3.37,2.38-5.13,1.31-3.52,1.96-7.17,2.21-10.91.05-.77-1.24-.96-1.36-.18h0Z" style="fill: #D2B48c;"/>
      <path d="m159.42,120.49c-.88,1.71-1.79,3.4-2.66,5.11-.43.84-.88,1.67-1.26,2.54-.39.87-.94,1.8-1.08,2.74-.09.63.67,1.29,1.19.7.66-.75,1.02-1.74,1.45-2.63.41-.86.75-1.75,1.12-2.62.76-1.8,1.47-3.6,2.21-5.41.23-.57-.71-.95-.99-.42h0Z" style="fill: #D2B48c;"/>
      <path d="m196.53,49.28c4.35,4.66,10.91,4.95,16.87,4.16,3.54-.47,7.02-1.27,10.42-2.35,3.35-1.07,7.17-2.31,9.72-4.8.5-.49-.03-1.17-.63-1.08-3.22.5-6.29,2.07-9.4,3.07-3.23,1.04-6.53,1.84-9.88,2.43-5.39.95-11.8,1.06-16.41-2.34-.54-.4-1.12.44-.7.9h0Z" style="fill: #D2B48c;"/>
      <path d="m194.46,54.8c2.74,1.56,5.6,2.98,8.66,3.78,3.03.8,6.15,1.22,9.28,1.32,3.15.09,6.28-.18,9.36-.8,2.85-.57,6.44-1.33,8.51-3.5.42-.44.12-1.2-.5-1.2-1.5,0-2.86.48-4.3.83-1.36.33-2.7.71-4.08.99-2.95.59-5.99.86-9,.83-5.84-.06-12.03-1.22-17.43-3.44-.7-.29-1.14.84-.51,1.2h0Z" style="fill: #D2B48c;"/>
      <path d="m197.61,58.79c2.37,1.49,4.78,2.93,7.42,3.89,2.59.95,5.35,1.54,8.07,1.92,2.75.39,5.51.52,8.28.37,2.59-.14,5.9-.32,8.06-1.89.59-.42.67-1.61-.23-1.76-2.48-.4-5.13.28-7.62.45-2.62.18-5.26.11-7.87-.14-2.56-.25-5.08-.77-7.55-1.47-2.66-.75-5.34-1.43-7.86-2.58-.8-.36-1.47.71-.7,1.19h0Z" style="fill: #D2B48c;"/>
      <path d="m204.81,65.78c3.52.7,6.88,2.15,10.01,3.87,1.54.85,3.01,1.77,4.43,2.81.75.54,1.48,1.11,2.22,1.64.71.51,1.37,1.28,2.3,1.24.54-.02.98-.43.98-.98.01-.97-.77-1.56-1.39-2.22-.68-.72-1.44-1.35-2.22-1.95-1.51-1.16-3.17-2.18-4.87-3.03-3.47-1.73-7.15-2.65-10.96-3.22-1.18-.17-1.72,1.59-.5,1.83h0Z" style="fill: #D2B48c;"/>
      <path d="m211.48,70.82c3.14,3.3,5.11,7.47,6.35,11.81.27.96.58,3.01,2.06,2.61,1.43-.38.92-2.35.71-3.38-.46-2.28-1.44-4.49-2.6-6.49-1.31-2.26-3.13-4.27-5.1-5.98-.97-.85-2.33.47-1.43,1.43h0Z" style="fill: #D2B48c;"/>
      <path d="m207.12,76.71c2.55,2.11,4.54,4.95,6.04,7.88.74,1.45,1.24,2.97,1.66,4.54.22.82.35,1.66.53,2.49.17.79.37,1.75,1.12,2.19.27.16.68.19.95,0,1.54-1.08.79-3.86.45-5.39-.41-1.81-1.2-3.59-2.09-5.21-1.82-3.3-4.56-5.76-7.84-7.55-.64-.35-1.42.55-.81,1.05h0Z" style="fill: #D2B48c;"/>
      <path d="m206.01,84.23c1.66,1.71,2.95,3.95,3.82,6.16.46,1.16.77,2.37,1.03,3.59.25,1.17.25,2.33.34,3.52.09,1.08.13,3.44,1.83,2.99,1.29-.34,1.47-2.62,1.46-3.71-.02-2.64-.72-5.21-1.87-7.56-1.28-2.62-3.23-4.63-5.6-6.31-.8-.57-1.67.66-1.02,1.33h0Z" style="fill: #D2B48c;"/>
      <path d="m203.38,90.47c3.17,4.43,3.8,10.24,2.72,15.46-.2.97-.73,3.09.86,3.15,1.38.05,1.98-2.12,2.25-3.16.71-2.75.64-5.64.01-8.4-.7-3.09-2.39-5.77-4.53-8.06-.63-.68-1.87.23-1.31,1.01h0Z" style="fill: #D2B48c;"/>
      <path d="m202.6,100.17c0,1.89-.11,3.81-.26,5.7-.08.93-.23,1.86-.28,2.79-.03.46-.03.92-.06,1.39-.03.52-.12,1.03.09,1.53.27.65,1.06,1,1.63.43.7-.7.85-1.93,1.04-2.87.21-1.03.24-2.1.24-3.15.01-2.06-.26-4.03-.7-6.04-.21-.96-1.71-.74-1.7.23h0Z" style="fill: #D2B48c;"/>
      <path d="m68.97,87.31c-1.72,6.27-2.11,12.66-1.31,19.11.39,3.15,1.01,6.27,1.91,9.32.45,1.52.94,3.04,1.54,4.5.58,1.42,1.01,2.93,2.47,3.62.34.16.78.04.88-.36.37-1.45-.29-2.57-.79-3.92-.54-1.43-1.08-2.87-1.53-4.33-.9-2.92-1.58-5.92-1.99-8.96-.83-6.11-.69-12.52.23-18.61.13-.9-1.15-1.31-1.4-.39h0Z" style="fill: #D2B48c;"/>
      <path d="m73.66,89.66c-1.21,5.52-1.83,11.05-1.46,16.71.37,5.64,1.55,11.25,3.47,16.57.66,1.83,1.73,4.89,4.29,4.41.81-.15,1.52-.86,1.28-1.74-.23-.82-.96-.63-1.32-.86-.83-.54-1.11-2.19-1.43-3.05-.52-1.4-.98-2.83-1.39-4.27-.79-2.73-1.43-5.5-1.86-8.31-.98-6.32-1.2-12.95-.35-19.29.09-.69-1.07-.84-1.22-.17h0Z" style="fill: #D2B48c;"/>
      <path d="m79.21,105.52c-1.15,7.22-.73,14.89,2.68,21.5.28.54.97.76,1.53.62,1.37-.33,2-1.53,1.87-2.86-.09-.87-1.24-1.08-1.54-.21-.13.36-.73.41-1.05.45.56.32,1.11.63,1.67.95-2.56-6.47-4.29-13.22-3.57-20.24.09-.9-1.44-1.12-1.59-.22h0Z" style="fill: #D2B48c;"/>
      <path d="m85.62,91.29c-1.04,3.11-1.84,6.18-2.27,9.43-.44,3.32-.48,6.71-.16,10.05.31,3.26.9,6.49,1.81,9.63.46,1.58,1.02,3.12,1.66,4.63.55,1.32,1.21,3.32,2.6,3.95.55.24,1.32.09,1.46-.6.31-1.44-.58-2.87-1.1-4.17-.59-1.46-1.12-2.93-1.6-4.43-.96-3-1.65-6.1-2.01-9.23-.71-6.22-.48-12.79,1.06-18.87.24-.94-1.14-1.31-1.45-.4h0Z" style="fill: #D2B48c;"/>
      <path d="m94.9,92.8c-2.18,5.74-3.38,11.76-3.2,17.92.08,2.98.43,5.96,1.02,8.88.3,1.51.69,2.99,1.16,4.46.47,1.45.88,2.99,2.11,3.99.68.55,1.52.17,1.62-.67.18-1.45-.42-2.75-.83-4.12-.42-1.4-.8-2.82-1.12-4.24-.64-2.8-1.02-5.65-1.15-8.52-.26-5.8.24-11.71,1.82-17.31.26-.93-1.09-1.26-1.42-.39h0Z" style="fill: #D2B48c;"/>
      <path d="m99,106.33c-1.41,3.6-2.14,7.33-2.12,11.2.02,3.69.55,7.92,2.29,11.23.43.82,1.73,1.01,2.36.3.58-.65,1.32-1.45,1.54-2.3.2-.78-.48-1.3-1.2-1.2-.73.11-1.57.71-2.16,1.14l2.2.9c-.46-1.7-1.11-3.33-1.5-5.06-.4-1.71-.65-3.45-.75-5.21-.2-3.52.15-7.13,1.08-10.53.31-1.14-1.33-1.54-1.74-.48h0Z" style="fill: #D2B48c;"/>
      <path d="m101.46,116.64c-.72,2.52-.63,5.06.25,7.53.42,1.19.97,2.35,1.73,3.37.41.55.85,1.19,1.39,1.61.45.35,1.3.68,1.87.48.19-.07.4-.22.43-.43.2-1.19-.85-2.06-1.5-2.92-.67-.88-1.26-1.86-1.7-2.88-.87-2.01-1.24-4.4-1.07-6.57.07-.82-1.19-.95-1.4-.19h0Z" style="fill: #D2B48c;"/>
      <path d="m107.87,96.06c-.51,1.46-1.11,2.9-1.45,4.42-.34,1.51-.54,3.03-.76,4.56-.44,3.03-.3,6.15.1,9.18.41,3.08,1.16,6.08,2.28,8.98.98,2.54,2.22,6.2,4.76,7.58.59.32,1.54-.07,1.46-.84-.15-1.45-.85-2.63-1.5-3.91-.64-1.26-1.28-2.53-1.82-3.84-1.09-2.68-1.88-5.5-2.4-8.35-1.01-5.64-1.02-11.92.51-17.46.21-.76-.92-1.06-1.18-.32h0Z" style="fill: #D2B48c;"/>
      <path d="m115.38,92.78c-1.8,7.83-2.48,15.85-1.5,23.84.48,3.91,1.17,7.9,2.41,11.66.45,1.35,1.32,3.01,3,2.86,1.27-.11,2.5-1.58,1.63-2.76-.49-.67-1.42-.57-1.71.22.07-.19.26-.01.24-.21-.02-.21-.15-.47-.22-.68-.22-.74-.43-1.48-.64-2.22-.42-1.48-.78-2.97-1.1-4.48-.64-3.04-1.06-6.12-1.32-9.22-.53-6.2-.39-12.48.69-18.62.17-.95-1.25-1.37-1.47-.41h0Z" style="fill: #D2B48c;"/>
      <path d="m123.26,96.74c-1.72,5.37-2.35,11.15-2.22,16.78.06,2.75.3,5.51.7,8.23.4,2.73.86,5.9,2.27,8.31.5.85,1.93.51,1.9-.51-.07-2.62-.95-5.26-1.38-7.84-.46-2.79-.8-5.59-.92-8.41-.24-5.5.18-10.94.85-16.39.09-.71-1-.79-1.2-.16h0Z" style="fill: #D2B48c;"/>
      <path d="m128.9,92c-.62,2.71-1.13,5.4-1.19,8.2-.03,1.34,0,2.68.11,4.02.1,1.26.06,3.12,1.18,3.92.42.3.99.05,1.25-.33.41-.59.28-1.25.19-1.92-.09-.65-.17-1.31-.25-1.96-.14-1.24-.23-2.49-.27-3.74-.07-2.59-.06-5.26.35-7.82.14-.89-1.17-1.29-1.38-.38h0Z" style="fill: #D2B48c;"/>
      <path d="m132.79,92.76c-.8,2.39-1.35,4.84-1.68,7.33-.32,2.47-.36,5,.3,7.42.26.94,1.49.65,1.59-.22.27-2.35.3-4.71.52-7.07.22-2.34.7-4.64,1.36-6.89.4-1.35-1.66-1.9-2.1-.58h0Z" style="fill: #D2B48c;"/>
      <path d="m61.54,34.01c-1.47.1-2.9.33-4.27.87-1.41.55-2.76,1.23-3.99,2.12-1.21.87-2.3,1.84-3.25,3-.92,1.12-1.86,2.42-2.24,3.84-.16.57.6,1.05,1.02.59.9-.99,1.65-2.1,2.59-3.07.92-.95,1.94-1.85,3.03-2.6,2.2-1.53,4.72-2.66,7.32-3.32.78-.2.64-1.48-.19-1.43h0Z" style="fill: #D2B48c;"/>
      <path d="m57.44,31.62c-2.95,1.49-5.74,3.23-8.36,5.24-1.25.96-2.43,2.02-3.57,3.11-.62.59-1.18,1.21-1.73,1.86-.51.61-1.09,1.21-1.47,1.91-.19.35.22.87.59.59,1.21-.92,2.31-2.15,3.39-3.22,1.14-1.14,2.34-2.2,3.55-3.25,2.46-2.13,5.11-4.05,7.9-5.72.34-.2.04-.7-.31-.53h0Z" style="fill: #D2B48c;"/>
      <path d="m53.61,30.86c-2.91,1.15-5.65,2.63-8.15,4.51-2.44,1.83-5.02,3.93-6.46,6.67-.28.52.36.97.79.61,2.3-1.92,4.21-4.24,6.56-6.12,2.35-1.88,4.9-3.53,7.59-4.89.42-.21.12-.95-.33-.77h0Z" style="fill: #D2B48c;"/>
      <path d="m47.21,31.54c-2.15.51-4.21,1.38-6.07,2.59-.92.6-1.78,1.28-2.58,2.03-.81.76-1.64,1.58-2.15,2.58-.3.59.44,1.21.94.72.75-.72,1.36-1.57,2.1-2.3.74-.74,1.54-1.41,2.38-2.02,1.71-1.22,3.6-2.15,5.61-2.75.55-.16.32-.99-.24-.86h0Z" style="fill: #D2B48c;"/>
      <path d="m35.88,15.75c-2.25,1.8-4.13,4.02-5.49,6.56-.67,1.25-1.18,2.6-1.57,3.96-.37,1.3-.72,2.91-.39,4.25.11.43.83.59,1.03.13.51-1.18.69-2.56,1.01-3.81.35-1.31.83-2.57,1.4-3.8,1.14-2.47,2.74-4.72,4.73-6.58.48-.45-.22-1.11-.71-.71h0Z" style="fill: #D2B48c;"/>
      <path d="m39.35,16.03c-2.5,1.32-4.39,3.49-5.43,6.1-.52,1.31-.78,2.71-.8,4.12-.02,1.43.21,2.93,1.31,3.94.34.31.79.07.84-.35.06-.56.07-1.2.06-1.77-.02-.61-.19-1.21-.21-1.82-.04-1.21.14-2.4.47-3.56.69-2.37,2.12-4.54,4.21-5.89.48-.31.06-1.04-.45-.77h0Z" style="fill: #D2B48c;"/>
      <path d="m42.29,16.66c-2.19,1.77-3.94,4.2-4.88,6.85-.47,1.32-.76,2.72-.82,4.12-.05,1.29-.11,3.22,1.01,4.1.29.23.76.26.96-.12.58-1.09.25-2.48.29-3.66.05-1.27.23-2.54.58-3.77.72-2.51,1.97-4.7,3.91-6.46.73-.66-.32-1.65-1.06-1.06h0Z" style="fill: #D2B48c;"/>
      <path d="m48.21,17.76c-2.23,1.92-4.17,4.16-5.71,6.67-.38.62-.71,1.28-1.03,1.94-.32.67-.72,1.4-.9,2.11-.36,1.43,1.68,3.26,3.05,2.77.68-.25.85-.98.4-1.53-.2-.25-.47-.47-.75-.61-.04-.04-.08-.08-.12-.12.06.2.02.13-.1-.19-.06-.11-.14-.2-.18-.32v.63c1.3-3.86,3.45-7.48,6.34-10.36.65-.65-.32-1.58-.99-.99h0Z" style="fill: #D2B48c;"/>
      <path d="m53.49,18.9c-3.92,2.73-7,7.13-7,12.05,0,.35.2.74.52.9.26.13.53.21.81.11.32-.11.67-.36.73-.73.69-4.3,2.28-8.48,5.72-11.33.55-.46-.18-1.41-.77-.99h0Z" style="fill: #D2B48c;"/>
      <path d="m77.04,12.22c-1.88,1.16-3.57,2.83-4.62,4.79-.52.97-.94,2.02-1.21,3.09-.14.57-.21,1.15-.24,1.74-.03.59-.1,1.29.25,1.8.34.49.98.49,1.32,0,.3-.43.26-.96.35-1.46.08-.49.2-.97.31-1.45.21-.94.52-1.85.95-2.71.89-1.77,2.04-3.32,3.67-4.48.78-.56.08-1.84-.77-1.32h0Z" style="fill: #D2B48c;"/>
      <path d="m82.67,13.14c-1.19.6-2.34,1.32-3.36,2.18-1.05.88-1.94,2-2.7,3.14-.76,1.13-1.4,2.37-1.83,3.67-.35,1.07.46,1.82,1.41,2.11.33.1.7.16,1.05.14.51-.03.8-.23,1.1-.63-.1.1-.2.2-.3.3.25-.17.5-.35.63-.63.14-.3.03-.64-.3-.74-.17-.05-.35-.07-.53-.13.12.07.24.14.36.21.1.15.06.1-.11-.13-.13-.13-.28-.22-.45-.26-.1-.03-.3-.07-.36-.09-.19-.08-.32-.23-.53-.46.1.4.21.79.31,1.19.56-1.75,1.32-3.36,2.42-4.86,1.06-1.45,2.36-2.83,3.83-3.86.68-.47.1-1.49-.65-1.11h0Z" style="fill: #D2B48c;"/>
      <path d="m87.72,13.65c-2.55,2.12-4.71,4.64-6.37,7.51-.72,1.25-1.55,2.62-1.55,4.11,0,1.39.75,2.88,2.29,2.95,1.14.05,1.41-1.48.55-2.04-.11-.07-.18-.19-.1,0-.03-.08-.06-.16-.08-.25-.05-.2-.01-.01-.01-.14-.01-.49.04-.72.16-1.16.32-1.16.99-2.28,1.58-3.31,1.34-2.32,2.95-4.46,4.85-6.35.87-.87-.41-2.08-1.33-1.33h0Z" style="fill: #D2B48c;"/>
      <path d="m94.81,16.5c-2.61.77-4.86,2.37-6.51,4.53-.81,1.07-1.45,2.26-1.89,3.53-.38,1.11-.87,3.2.25,4.02.19.14.5.12.69,0,.48-.3.74-1.07.84-1.6.11-.59.28-1.15.45-1.72.33-1.08.78-2.08,1.39-3.03,1.23-1.91,3.04-3.49,5.16-4.3.87-.33.54-1.7-.39-1.42h0Z" style="fill: #D2B48c;"/>
      <path d="m93.16,24.18c-1.7.49-3.01,1.92-3.47,3.61-.24.88-.27,1.77-.12,2.66.16.94.7,1.77,1.45,2.35.28.21.73.16,1.01,0,.16-.09.25-.22.36-.36.22-.29.15-.71,0-1.01-.07-.14-.14-.29-.22-.43-.13-.23.07.22-.02-.03-.03-.07-.05-.15-.08-.22-.09-.3-.18-.61-.24-.92,0-.03,0-.05-.01-.08-.02-.13-.02-.11,0,.07-.02-.01-.02-.22-.02-.24,0-.15-.01-.3,0-.44,0-.08.01-.16.01-.24.01-.27-.03.09,0-.01.04-.16.06-.32.1-.48.04-.14.08-.29.13-.43.03-.08.06-.15.09-.23.05-.13.08-.19,0-.03.13-.3.29-.57.47-.84.14-.22-.15.16.03-.03.05-.06.1-.12.16-.18.11-.12.23-.22.35-.32.16-.14-.15.09.05-.03.06-.03.11-.07.17-.11.07-.04.14-.08.21-.12.04-.02.31-.14.1-.05.48-.2.82-.64.67-1.18-.14-.5-.68-.82-1.18-.67h0Z" style="fill: #D2B48c;"/>
      <path d="m94.12,32.43c.96-1.73,2.05-3.41,3.29-4.95.61-.77,1.26-1.51,1.91-2.24.35-.39.65-.81,1-1.2.4-.44.75-.8.95-1.38.22-.62-.45-1.23-1.05-1.05-.58.17-.96.53-1.39.94-.38.35-.78.69-1.13,1.07-.72.8-1.38,1.66-2,2.54-1.2,1.7-2.22,3.5-3.07,5.4-.19.43-.12.93.31,1.19.4.23.96.1,1.19-.31h0Z" style="fill: #D2B48c;"/>
      <path d="m106.69,20.79c-1.2,1.39-2.39,2.79-3.61,4.16-1.18,1.33-2.43,2.67-3.45,4.13-.84,1.2-1.36,2.73-.86,4.17.22.63.56,1.29,1.2,1.57.08.01.16.02.24.03-.17-.04-.2-.03-.08.02.12.06.25.12.38.17.3.11.58.17.89.08.35-.11.42-.5.2-.76-.14-.18-.34-.3-.49-.47-.15-.16.09.28-.02-.04-.05-.14-.08-.27-.14-.41-.21-.43-.33-.81-.33-1.29,0-1.23.87-2.35,1.57-3.29,1.82-2.44,3.64-4.88,5.46-7.33.41-.55-.51-1.26-.96-.74h0Z" style="fill: #D2B48c;"/>
      <path d="m112.16,23.71c-2.5,1.34-4.53,3.18-6,5.63-.72,1.21-1.29,2.53-1.62,3.9-.28,1.16-.78,3.4.48,4.14.23.14.53.14.77,0,.61-.36.72-1,.84-1.64.11-.61.22-1.22.35-1.83.26-1.17.64-2.34,1.16-3.41,1.06-2.17,2.69-4.25,4.73-5.56.77-.5.09-1.67-.72-1.23h0Z" style="fill: #D2B48c;"/>
      <path d="m116.62,25.15c-2.16,1.77-4.04,3.91-5.37,6.37-.67,1.23-1.24,2.54-1.65,3.87-.22.7-.45,1.44-.52,2.17-.06.69-.24,1.64.37,2.12.36.29.72.33,1.14.15.66-.29.73-1.11.92-1.73.19-.64.29-1.31.47-1.95.34-1.22.76-2.42,1.31-3.57,1.13-2.35,2.59-4.49,4.5-6.28.78-.73-.36-1.82-1.16-1.16h0Z" style="fill: #D2B48c;"/>
      <path d="m120.52,29.03c-1.18,1.15-2.26,2.43-3.14,3.83-.42.67-.78,1.39-1.1,2.12-.18.41-.35.82-.51,1.24-.17.45-.24.86-.24,1.34,0,.39.28.76.65.86.4.11.78-.08,1.01-.41.45-.63.65-1.33.97-2.01.32-.7.7-1.38,1.08-2.05.73-1.3,1.58-2.51,2.58-3.62.79-.87-.44-2.12-1.29-1.29h0Z" style="fill: #D2B48c;"/>
      <path d="m128.07,104.94c-.54,4.66-.88,9.33-.82,14.03.03,2.26.1,4.52.28,6.77.17,2.14.12,4.58,1.24,6.44.16.27.58.22.66-.09.55-2.03-.04-4.26-.24-6.35-.22-2.33-.42-4.67-.52-7.01-.21-4.59-.24-9.2.05-13.78.03-.43-.61-.41-.66,0h0Z" style="fill: #D2B48c;"/>
      <path d="m134.13,105.58c-.63,4.61-1.15,9.21-1.42,13.85-.13,2.29-.2,4.58-.21,6.87-.01,2.09-.33,4.9.54,6.83.35.77,1.41.44,1.65-.22.35-.98.22-2.14.21-3.18,0-1.14-.05-2.29-.07-3.43-.04-2.29-.06-4.58-.05-6.87,0-4.57.12-9.15.43-13.7.04-.61-1-.76-1.08-.15h0Z" style="fill: #D2B48c;"/>
      <path d="m137.7,113.63c-.39,3.04-.76,6.07-1.11,9.11-.35,3.02-.84,6.07-.98,9.11-.05,1.2,1.96,1.52,2.14.29.45-3.05.55-6.15.78-9.22.23-3.1.44-6.19.63-9.29.06-.95-1.34-.9-1.45,0h0Z" style="fill: #D2B48c;"/>
      <path d="m143.89,100.14c0,5.07-.32,10.17-.79,15.21-.24,2.54-.59,5.05-.97,7.57-.19,1.28-.4,2.55-.61,3.82-.19,1.12-.45,2.08.04,3.14.24.52.96.5,1.33.17.88-.79.98-1.99,1.2-3.1.24-1.26.46-2.54.64-3.81.35-2.5.57-5.03.72-7.55.32-5.19.06-10.29-.56-15.45-.07-.63-1.01-.67-1.01,0h0Z" style="fill: #D2B48c;"/>
      <path d="m150.41,100.14c-.56,5.54-1.43,11.05-2.31,16.55-.42,2.66-.88,5.31-1.37,7.96-.48,2.6-1.39,5.37-1.41,8.02,0,1.3,1.66,1.32,2.09.28,1.04-2.46,1.22-5.54,1.64-8.16.43-2.68.8-5.37,1.12-8.06.65-5.51.91-11.04,1.11-16.58.02-.58-.83-.56-.89,0h0Z" style="fill: #D2B48c;"/>
      <path d="m153.84,109.5c-.91,3.7-1.69,7.43-2.42,11.17-.35,1.8-.71,3.6-1.06,5.4-.19.97-.41,1.94-.54,2.92-.12.95,0,1.49.42,2.33.19.37.7.38.98.13.75-.68.99-1.17,1.22-2.17.22-.96.37-1.95.53-2.92.32-1.81.63-3.62.95-5.44.65-3.72,1.24-7.43,1.71-11.17.13-1.02-1.53-1.21-1.77-.24h0Z" style="fill: #D2B48c;"/>
      <path d="m155.96,115.8c-.32,1.91-.8,3.77-1.33,5.62-.53,1.84-1.38,3.62-1.79,5.49-.19.87.89,1.29,1.39.59,1.14-1.6,1.72-3.7,2.25-5.57.55-1.93.86-3.93,1.09-5.92.1-.91-1.46-1.13-1.61-.22h0Z" style="fill: #D2B48c;"/>
      <path d="m186.85,62.33c.15.36.27.73.37,1.11.05.19.09.38.13.58.01.06.02.11.03.17-.01-.12-.01-.13,0-.01,0,.1.02.19.03.29.03.39.04.78.07,1.17.03.46-.04.94.05,1.4.07.38.47.67.83.71.36.05.84-.12.99-.48.11-.25.15-.4.18-.67.01-.11.03-.22.04-.34.02-.2.03-.39.03-.59.01-.51-.06-1-.18-1.49-.22-.88-.55-1.73-.99-2.52-.21-.37-.69-.51-1.07-.35-.35.15-.66.61-.5,1.01h0Z" style="fill: #D2B48c;"/>
      <path d="m192.22,62.61c-.4,1.06-.8,2.12-1.21,3.17-.2.52-.37,1.04-.55,1.57-.19.57-.38,1.23-.39,1.83-.01.43.32.89.75.99.47.11.88-.08,1.15-.47.17-.24.26-.52.38-.79.12-.29.25-.57.35-.87.18-.55.36-1.09.51-1.65.3-1.09.6-2.17.9-3.26.14-.5-.17-1.09-.69-1.21-.56-.13-1.01.17-1.21.69h0Z" style="fill: #D2B48c;"/>
      <path d="m195.61,64.81c-.65.99-1.25,2-1.84,3.03-.29.5-.59,1-.86,1.51-.3.56-.68,1.17-.78,1.8-.07.45.04.96.49,1.2.43.23.93.17,1.29-.17.48-.45.8-1.11,1.1-1.68.27-.52.51-1.04.77-1.57.55-1.12,1.08-2.25,1.55-3.4.18-.42-.16-.95-.54-1.11-.45-.18-.91-.02-1.17.38h0Z" style="fill: #D2B48c;"/>
      <path d="m198.68,67.13c-.71,1.13-1.42,2.25-2.14,3.38-.35.55-.7,1.1-1.05,1.66-.36.56-.77,1.13-1.03,1.74-.25.59-.72,1.5-.18,2.07.57.6,1.41-.1,1.77-.58.4-.53.75-1.05,1.08-1.64.32-.57.64-1.14.96-1.71.74-1.32,1.48-2.65,2.22-3.97.6-1.07-.99-1.99-1.64-.96h0Z" style="fill: #D2B48c;"/>
      <path d="m201.83,69.48c-.66,1.29-1.38,2.54-2.18,3.74-.82,1.23-1.68,2.42-2.51,3.54-.51.69-1.32,1.46-.77,2.39.33.56,1.09.68,1.63.39.37-.2.63-.53.9-.84.99-1.13,1.88-2.36,2.67-3.64.87-1.4,1.6-2.91,2.25-4.42.24-.57.17-1.23-.41-1.57-.51-.3-1.29-.14-1.57.41h0Z" style="fill: #D2B48c;"/>
      <path d="m205.93,71.15c-1.23,1.92-2.58,3.78-3.96,5.6-.65.86-1.33,1.69-2.03,2.51-.76.89-1.77,1.87-2.15,2.99-.35,1.05.86,1.7,1.71,1.31,1.02-.47,1.84-1.65,2.51-2.52.74-.95,1.46-1.92,2.14-2.91,1.32-1.9,2.46-3.91,3.5-5.98.58-1.14-1.02-2.09-1.72-1.01h0Z" style="fill: #D2B48c;"/>
      <path d="m207.5,75.9c-2.17,3.56-4.68,6.84-7.37,10.03-.62.73-1.87,1.93-1.24,2.95.8,1.29,2.19-.09,2.83-.75,1.48-1.51,2.72-3.37,3.91-5.12,1.33-1.96,2.48-4.02,3.52-6.14.54-1.1-1.01-2.04-1.66-.97h0Z" style="fill: #D2B48c;"/>
      <path d="m208.76,79.23c-1.09,2.83-2.5,5.52-4.11,8.09-.77,1.23-1.57,2.44-2.46,3.59-.48.62-.98,1.22-1.48,1.82-.49.6-1.13,1.23-1.09,2.06.03.51.41.94.94.94.83,0,1.42-.62,1.96-1.19.57-.6,1.09-1.24,1.6-1.88,1.01-1.28,1.98-2.6,2.82-4,1.67-2.76,2.92-5.78,3.84-8.87.39-1.31-1.54-1.78-2.01-.55h0Z" style="fill: #D2B48c;"/>
      <path d="m213.02,81.45c-1.79,3.36-3.89,6.54-6.17,9.58-1.12,1.5-2.34,2.93-3.53,4.37-1.23,1.49-2.56,2.81-3.44,4.54-.34.67.34,1.35,1.01,1.01,1.74-.89,2.96-2.28,4.24-3.73,1.31-1.48,2.49-3.09,3.61-4.71,2.23-3.22,4.08-6.66,5.71-10.22.44-.96-.93-1.8-1.44-.84h0Z" style="fill: #D2B48c;"/>
      <path d="m214.79,86.3c-2.48,3.82-5.04,7.58-7.69,11.29-1.28,1.8-2.55,3.6-3.86,5.37-1.35,1.83-2.87,3.55-3.45,5.77-.14.55.45.97.93.71,1.95-1.04,3.2-2.85,4.5-4.62,1.39-1.89,2.74-3.79,4.02-5.76,2.51-3.87,4.79-7.89,6.85-12.02.43-.86-.77-1.57-1.3-.76h0Z" style="fill: #D2B48c;"/>
      <path d="m213.64,94.02c-2.89,4.45-6.15,8.64-9.64,12.63-3.42,3.9-7.47,7.26-10.52,11.45-.43.59.38,1.21.93.93,4.72-2.43,8.4-6.77,11.75-10.81,3.43-4.14,6.46-8.58,9.16-13.23.63-1.09-1-2.03-1.68-.98h0Z" style="fill: #D2B48c;"/>
      <path d="m78.11,38.57c-2.87.84-5.56,2.16-7.98,3.92-1.17.86-2.32,1.79-3.34,2.82-1.04,1.04-2.11,2.31-2.77,3.62-.31.61.44,1.23.96.74,1-.96,1.88-2.02,2.88-2.98,1.04-.99,2.05-1.97,3.2-2.82,2.26-1.69,4.75-3.11,7.36-4.17.68-.28.43-1.35-.31-1.13h0Z" style="fill: #D2B48c;"/>
      <path d="m82.77,39.95c-2.7.89-5.2,2.07-7.46,3.82-1.11.86-2.16,1.79-3.13,2.8-.94.98-2.07,2.2-2.46,3.53-.17.58.57,1.28,1.12.86,1.03-.79,1.8-1.96,2.65-2.94.9-1.03,1.87-1.98,2.91-2.86,2.03-1.72,4.3-3.29,6.7-4.41.44-.21.13-.95-.33-.79h0Z" style="fill: #D2B48c;"/>
      <path d="m85.74,42.34c-1.93,1.34-3.74,2.84-5.4,4.5-.82.82-1.6,1.68-2.33,2.57-.38.46-.73.92-1.04,1.43-.3.5-.68,1.02-.8,1.59-.08.4.35.83.74.57.45-.29.76-.74,1.12-1.14.39-.43.75-.87,1.11-1.33.7-.89,1.44-1.75,2.21-2.57,1.55-1.65,3.24-3.15,5.06-4.49.67-.49.04-1.62-.66-1.13h0Z" style="fill: #D2B48c;"/>
      <path d="m86.61,46.4c-1.54.88-3.04,1.93-4.31,3.18-.65.64-1.25,1.32-1.79,2.05-.54.73-1.11,1.47-1.37,2.35-.21.73.69,1.17,1.21.71.61-.55,1.05-1.26,1.58-1.88.55-.64,1.11-1.29,1.7-1.89,1.15-1.18,2.36-2.29,3.72-3.24.77-.53.09-1.75-.75-1.27h0Z" style="fill: #D2B48c;"/>
      <path d="m4.4,68.15c2.64,6.04,6.81,11.52,11.28,16.32,4.48,4.82,9.6,9.04,15.18,12.53,3.12,1.95,6.57,3.93,10.1,5.03.6.19.97-.7.43-1.01-1.8-1.03-3.73-1.84-5.53-2.88-1.81-1.03-3.6-2.11-5.34-3.25-3.48-2.28-6.77-4.86-9.84-7.68-3.02-2.77-5.82-5.79-8.36-9.01-2.63-3.35-4.87-6.92-7.15-10.5-.32-.49-.99-.07-.77.45h0Z" style="fill: #D2B48c;"/>
      <path d="m8.73,68c4.78,6.2,10.18,11.82,16.3,16.72,2.97,2.38,6.08,4.57,9.32,6.58,3.3,2.04,6.83,4.03,10.49,5.34.52.19.82-.6.37-.87-3.34-1.96-6.8-3.72-10.1-5.77-3.24-2.01-6.38-4.21-9.38-6.56-5.99-4.69-11.49-10.08-16.27-16-.32-.4-1.04.14-.72.56h0Z" style="fill: #D2B48c;"/>
      <path d="m41.59,106.05c7.21,5.38,15.03,9.86,23.36,13.26,8.24,3.36,17.1,5.95,26.01,6.62.54.04.67-.85.13-.95-8.74-1.6-17.31-3.52-25.61-6.78-8.32-3.27-16.25-7.59-23.47-12.87-.44-.32-.86.41-.43.73h0Z" style="fill: #D2B48c;"/>
      <path d="m50.9,108.85c7.76,3.63,15.69,6.81,23.86,9.39,8.14,2.57,16.47,4.83,24.98,5.7.46.05.54-.68.11-.8-8.15-2.12-16.38-3.88-24.45-6.32-8.16-2.47-16.23-5.36-24.05-8.74-.52-.22-.97.52-.45.77h0Z" style="fill: #D2B48c;"/>
      <path d="m59.86,109.5c7.36,1.87,14.7,3.81,22.08,5.61,7.36,1.8,14.76,3.81,22.23,5.08.76.13,1.09-.94.32-1.18-7.24-2.21-14.75-3.72-22.14-5.41-7.42-1.69-14.85-3.25-22.28-4.87-.5-.11-.71.64-.21.77h0Z" style="fill: #D2B48c;"/>
      <path d="m198.43,45.64c-2.62,1.62-4.94,3.67-6.85,6.08-.95,1.2-1.82,2.47-2.55,3.82-.35.64-.69,1.3-.96,1.98-.26.66-.64,1.49-.52,2.2.08.43.62.48.9.24.47-.4.7-1.21.96-1.76.32-.67.61-1.34.96-1.99.67-1.27,1.44-2.49,2.32-3.63,1.76-2.31,3.92-4.31,6.34-5.91.63-.42.06-1.43-.6-1.03h0Z" style="fill: #D2B48c;"/>
      <path d="m193.74,46.54c-2.03,1.32-3.89,2.9-5.52,4.7-.82.91-1.58,1.87-2.27,2.87-.33.48-.64.96-.93,1.46-.29.5-.7,1.18-.51,1.77.08.27.38.47.66.38.55-.18.84-.74,1.13-1.21.3-.5.59-.99.9-1.48.62-.97,1.3-1.89,2.04-2.77,1.5-1.77,3.21-3.34,5.11-4.67.64-.44.05-1.49-.62-1.05h0Z" style="fill: #D2B48c;"/>
      <path d="m191.43,45.84c-2.12,1.62-4.07,3.43-5.74,5.52-.81,1.02-1.57,2.08-2.23,3.2-.35.59-.66,1.21-.96,1.83-.29.6-.62,1.19-.67,1.86-.04.49.65.75.97.4.43-.47.65-1.09.95-1.65.29-.55.6-1.09.91-1.62.64-1.1,1.33-2.17,2.08-3.2,1.51-2.06,3.3-3.94,5.3-5.53.45-.35-.16-1.15-.62-.8h0Z" style="fill: #D2B48c;"/>
      <path d="m189.17,42.83c-2.56,1.91-4.82,4.14-6.72,6.72-.95,1.29-1.8,2.65-2.53,4.08-.67,1.32-1.55,2.95-1.63,4.45-.03.55.69.65.96.26.43-.61.64-1.37.96-2.05.32-.69.64-1.38.98-2.06.69-1.35,1.46-2.67,2.32-3.92,1.74-2.53,3.83-4.81,6.21-6.75.41-.33-.14-1.06-.57-.74h0Z" style="fill: #D2B48c;"/>
      <path d="m185.22,41.33c-3,1.78-5.51,4.2-7.36,7.17-.91,1.46-1.65,3.03-2.21,4.66-.53,1.54-1.04,3.46-.77,5.09.1.58.89.45,1.05,0,.26-.73.33-1.53.52-2.29.19-.76.38-1.53.61-2.28.48-1.57,1.14-3.07,1.97-4.5,1.64-2.82,3.89-5.32,6.59-7.15.43-.29.05-.97-.41-.7h0Z" style="fill: #D2B48c;"/>
      <path d="m178.69,45.17c-1.7,1.79-3.12,3.84-4.18,6.07-.51,1.08-.95,2.2-1.3,3.34-.36,1.18-.65,2.4-.37,3.62.07.3.51.35.66.09.53-.98.73-2.07,1.01-3.14.3-1.14.69-2.27,1.18-3.35.96-2.13,2.24-4.1,3.8-5.83.49-.54-.3-1.34-.81-.81h0Z" style="fill: #D2B48c;"/>
      <path d="m173.27,47.54c-1.52,1.17-2.66,2.72-3.39,4.49-.37.89-.59,1.81-.68,2.76-.05.47-.04.93.02,1.41.06.47.08,1.02.35,1.42.21.31.74.3.84-.11.1-.41.02-.83.02-1.24,0-.42.03-.85.06-1.27.05-.85.23-1.71.49-2.52.53-1.65,1.52-3.09,2.85-4.21.4-.34-.15-1.06-.57-.74h0Z" style="fill: #D2B48c;"/>
      <path d="m170.74,47.54c-1.03.97-1.8,2.17-2.29,3.5-.25.66-.42,1.35-.46,2.05-.04.71-.05,1.47.25,2.12.17.36.8.28.87-.11.11-.61.05-1.22.13-1.83.08-.62.19-1.24.37-1.84.35-1.19.98-2.28,1.83-3.18.44-.46-.23-1.13-.7-.7h0Z" style="fill: #D2B48c;"/>
      <path d="m173.09,38.78c-2.38,2.29-4.39,4.89-5.87,7.84-.71,1.42-1.33,2.9-1.8,4.42-.25.81-.48,1.64-.63,2.48-.13.72-.37,1.67-.12,2.37.18.51.81.58,1.11.15.4-.57.45-1.41.61-2.08.17-.74.34-1.48.55-2.22.43-1.53.97-3.03,1.64-4.48,1.32-2.83,3.06-5.5,5.21-7.78.44-.47-.24-1.15-.71-.71h0Z" style="fill: #D2B48c;"/>
      <path d="m169.91,37.98c-2.42,2.59-4.44,5.48-5.93,8.7-.73,1.57-1.33,3.19-1.79,4.87-.23.83-.43,1.66-.58,2.51-.15.82-.37,1.81-.15,2.61.13.48.84.59,1.09.14.35-.64.41-1.47.56-2.19.16-.84.33-1.68.54-2.52.41-1.61.94-3.2,1.57-4.74,1.29-3.17,3.08-6.19,5.27-8.81.33-.39-.21-.96-.57-.57h0Z" style="fill: #D2B48c;"/>
      <path d="m165.16,40.38c-2.29,2.11-4.11,4.69-5.33,7.55-.6,1.42-1.1,2.89-1.36,4.41-.13.73-.21,1.46-.22,2.2-.02.74-.09,1.56.21,2.25.18.42.72.21.86-.11.26-.62.2-1.41.3-2.08.11-.7.22-1.4.36-2.1.27-1.4.65-2.78,1.17-4.11,1.06-2.72,2.7-5.19,4.77-7.25.49-.49-.25-1.23-.76-.76h0Z" style="fill: #D2B48c;"/>
      <path d="m160.36,41.91c-1.69,1.64-3,3.64-3.82,5.85-.41,1.1-.68,2.24-.84,3.4-.13.99-.38,2.53.3,3.37.19.23.59.14.72-.09.25-.45.19-.97.23-1.47.04-.54.04-1.08.09-1.62.1-1.08.33-2.15.66-3.18.68-2.1,1.8-4.02,3.32-5.62.41-.43-.23-1.07-.65-.65h0Z" style="fill: #D2B48c;"/>
      <path d="m157.09,41.21c-1.14,1.69-2.01,3.55-2.57,5.51-.27.96-.47,1.94-.59,2.93-.06.5-.09,1-.09,1.51,0,.5-.05,1.06.13,1.53.14.37.65.4.78,0,.15-.45.1-.96.14-1.43.03-.44.09-.88.14-1.32.11-.99.3-1.96.57-2.91.53-1.88,1.35-3.64,2.44-5.26.39-.59-.55-1.13-.94-.55h0Z" style="fill: #D2B48c;"/>
      <path d="m157.72,34.59c-2.69,3.44-4.93,7.23-6.55,11.28-.64,1.61-1.44,3.4-1.25,5.18.12,1.14,1.08,2.78,2.44,2.16.37-.17.32-.73,0-.92-.5-.29-.8-.32-.96-.94-.15-.57-.14-1.2-.03-1.77.33-1.68,1.05-3.37,1.7-4.94,1.39-3.38,3.23-6.53,5.45-9.42.35-.45-.44-1.07-.8-.62h0Z" style="fill: #D2B48c;"/>
      <path d="m157.23,30.07c-5.89,4.56-10.77,11.76-11.45,19.31-.05.52.75.6.89.12,1.03-3.58,2.19-7.07,4.08-10.3,1.88-3.2,4.33-6.05,7.18-8.42.5-.42-.21-1.09-.71-.71h0Z" style="fill: #D2B48c;"/>
      <path d="m151.07,30.25c-2.1,1.9-3.94,4.1-5.38,6.55-.7,1.18-1.32,2.41-1.83,3.68-.51,1.28-1.11,2.73-1.02,4.14.02.31.42.44.6.16.69-1.1,1.01-2.45,1.5-3.64.52-1.28,1.11-2.53,1.79-3.73,1.35-2.4,2.99-4.61,4.92-6.58.37-.38-.19-.92-.57-.57h0Z" style="fill: #D2B48c;"/>
      <path d="m148.55,29.93c-2.26,1.68-4.18,3.76-5.65,6.17-.73,1.19-1.33,2.46-1.82,3.77-.25.66-.46,1.34-.64,2.03-.16.62-.42,1.44-.22,2.07.14.43.65.46.9.12.36-.49.4-1.26.54-1.85.15-.62.32-1.23.52-1.84.43-1.3,1-2.54,1.67-3.73,1.33-2.34,3.09-4.4,5.19-6.08.36-.29-.12-.93-.5-.65h0Z" style="fill: #D2B48c;"/>
      <path d="m143.83,31.73c-1.59,1.3-2.99,2.82-4.18,4.49-.59.83-1.13,1.7-1.6,2.6-.23.45-.44.91-.63,1.38-.19.46-.49.95-.26,1.43.11.22.39.24.59.15.42-.19.5-.77.67-1.16.19-.45.39-.89.6-1.33.42-.9.91-1.77,1.45-2.6,1.08-1.66,2.41-3.13,3.91-4.42.38-.33-.17-.87-.55-.55h0Z" style="fill: #D2B48c;"/>
      <path d="m139.16,32.49c-1.53,1.07-2.84,2.4-3.89,3.94-.52.77-.97,1.58-1.34,2.43-.18.41-.36.83-.46,1.27-.1.41-.32,1-.17,1.42.09.25.41.37.61.16.28-.28.34-.75.48-1.11.15-.4.29-.81.44-1.21.31-.83.71-1.62,1.17-2.38.91-1.51,2.12-2.85,3.53-3.91.35-.27.02-.87-.35-.61h0Z" style="fill: #D2B48c;"/>
      <path d="m134.18,31.59c-1.47,1.35-2.75,2.9-3.78,4.61-.51.85-.95,1.73-1.34,2.64-.19.46-.36.92-.5,1.4-.15.48-.36.99-.08,1.45.13.22.41.28.63.17.43-.23.51-.69.66-1.12.15-.44.33-.87.5-1.31.34-.89.77-1.75,1.24-2.57.94-1.64,2.12-3.13,3.49-4.44.54-.52-.27-1.32-.82-.82h0Z" style="fill: #D2B48c;"/>
      <path d="m131.16,33.18c-1.27.94-2.43,2.02-3.41,3.26-.49.62-.93,1.27-1.32,1.95-.2.34-.38.68-.56,1.03-.18.35-.45.76-.42,1.17.03.41.46.57.77.32.28-.23.39-.64.55-.96.16-.33.34-.66.52-.98.38-.66.8-1.29,1.26-1.91.89-1.21,1.93-2.31,3.09-3.26.34-.28-.12-.88-.47-.61h0Z" style="fill: #D2B48c;"/>
      <path d="m126.32,30.67c-1.4,1.03-2.72,2.15-3.94,3.39-1.22,1.23-2.4,2.54-3.25,4.06-.27.48.4,1.05.79.61,1.09-1.25,2.1-2.58,3.24-3.79,1.14-1.21,2.38-2.33,3.7-3.34.23-.18.35-.46.19-.73-.13-.23-.5-.36-.73-.19h0Z" style="fill: #D2B48c;"/>
      <path d="m72.41,12.41c-1.81,1.19-3.33,2.78-4.35,4.7-.5.95-.91,1.96-1.18,3-.14.54-.23,1.09-.28,1.64-.06.6.05,1.1.31,1.64.2.42.85.38,1.06,0,.24-.43.38-.83.47-1.31.08-.46.17-.93.28-1.38.21-.92.53-1.81.95-2.65.84-1.67,2.01-3.22,3.49-4.36.32-.24.48-.63.26-1-.19-.33-.67-.48-1-.26h0Z" style="fill: #D2B48c;"/>
      <path d="m68.41,12.6c-1.52,1.26-2.82,2.79-3.72,4.55-.44.87-.81,1.77-1.1,2.7-.25.81-.8,2.25-.11,2.96.16.17.45.21.65.08.73-.45.73-1.73.92-2.48.23-.89.54-1.76.93-2.59.79-1.66,1.81-3.23,3.1-4.55.44-.45-.21-1.06-.67-.67h0Z" style="fill: #D2B48c;"/>
      <path d="m65.24,10.23c-1.28,1.2-2.35,2.62-3.13,4.19-.39.79-.73,1.61-.95,2.45-.2.75-.54,1.92-.02,2.61.17.22.43.27.65.08.3-.25.45-.62.53-1,.09-.41.2-.81.32-1.21.21-.76.45-1.53.78-2.25.66-1.49,1.57-2.84,2.69-4.01.55-.57-.29-1.4-.86-.86h0Z" style="fill: #D2B48c;"/>
      <path d="m62.99,9.9c-1.78.72-3.26,1.92-4.4,3.47-.55.75-.96,1.61-1.26,2.49-.16.45-.25.91-.32,1.37-.04.26-.09.53-.07.79.01.16.05.29.13.42.04.06.09.12.13.18-.09-.13-.1-.13-.05.01.16.53.82.46,1.01,0,.11-.26-.11.07.07-.07.11-.09.17-.26.21-.39.06-.21.07-.42.12-.63.08-.38.19-.76.3-1.14.24-.79.6-1.51,1.02-2.21.85-1.41,2.07-2.54,3.54-3.28.54-.27.16-1.24-.42-1h0Z" style="fill: #D2B48c;"/>
      <path d="m58.08,8.61c-1.26,1.37-2.28,2.93-3.08,4.61-.39.82-.73,1.67-1.01,2.53-.29.9-.54,1.87-.36,2.8.09.44.71.47.91.12.44-.74.61-1.63.84-2.45.24-.83.53-1.65.88-2.44.71-1.6,1.65-3.09,2.71-4.48.39-.52-.46-1.16-.9-.69h0Z" style="fill: #D2B48c;"/>
      <path d="m53.42,8.7c-1.37,1.55-2.63,3.19-3.76,4.92-1.11,1.71-2.17,3.57-2.8,5.52-.16.49.57.79.83.35,1-1.72,1.87-3.51,2.91-5.21,1.05-1.71,2.23-3.34,3.52-4.88.4-.48-.27-1.17-.7-.7h0Z" style="fill: #D2B48c;"/>
      <path d="m228.97,41.52c-3.73,2.6-7.95,4.58-12.33,5.79-2.23.62-4.52,1.07-6.83,1.3-2.11.21-4.27.08-6.37.37-.37.05-.33.62,0,.71,2.14.55,4.61.31,6.78.06,2.34-.27,4.65-.75,6.9-1.46,4.43-1.4,8.46-3.56,12.11-6.42.19-.15-.06-.49-.27-.34h0Z" style="fill: #D2B48c;"/>
      <path d="m225.74,39.83c-3.33,2.24-6.99,3.99-10.8,5.24-1.81.6-3.66,1.07-5.53,1.43-1,.19-1.98.42-2.98.58-.99.15-2.02.19-2.99.42-.55.13-.35.84.12.91,1.85.24,4.04-.08,5.87-.43,2.06-.39,4.08-.97,6.05-1.7,3.83-1.41,7.35-3.43,10.58-5.91.3-.23.03-.75-.31-.53h0Z" style="fill: #D2B48c;"/>
      <path d="m223.08,36.26c-3.45,2.08-7.17,3.72-10.97,5.04-1.84.64-3.71,1.16-5.61,1.61-.95.22-1.9.41-2.85.62-.91.21-1.91.35-2.75.75-.41.2-.33.94.13,1.01,1.81.3,3.97-.31,5.72-.75,2.01-.5,4-1.15,5.93-1.89,3.83-1.47,7.38-3.46,10.77-5.77.39-.26.04-.88-.37-.63h0Z" style="fill: #D2B48c;"/>
      <path d="m221.73,31.76c-2.59.71-5.17,1.44-7.75,2.18-2.5.72-5.11,1.33-7.5,2.37-.48.21-.11.86.33.79,2.57-.43,5.11-1.38,7.6-2.15,2.52-.77,5.03-1.56,7.54-2.38.51-.17.3-.96-.22-.81h0Z" style="fill: #D2B48c;"/>
      <path d="m219.27,27.49c-2.26.46-4.53.91-6.79,1.38-2.27.48-4.49,1.05-6.72,1.66-.52.14-.3.9.22.8,2.27-.44,4.53-.9,6.77-1.47,2.23-.57,4.46-1.16,6.7-1.74.41-.11.24-.72-.17-.63h0Z" style="fill: #D2B48c;"/>
      <path d="m207.51,22.6c-3.49.1-6.95.38-10.4.89-3.5.51-7.04,1.17-10.36,2.42-.57.21-.35,1,.25.9,3.38-.53,6.72-1.31,10.1-1.85,3.44-.55,6.92-.93,10.4-1.16.77-.05.78-1.22,0-1.2h0Z" style="fill: #D2B48c;"/>
      <path d="m201.9,19.88c-3.17.69-6.38,1.25-9.58,1.76-3.16.5-6.48.67-9.54,1.64-.5.16-.37.83.12.87,3.19.31,6.52-.43,9.64-1.03,3.25-.63,6.43-1.44,9.61-2.33.58-.16.34-1.03-.25-.9h0Z" style="fill: #D2B48c;"/>
      <path d="m196.38,17.78c-2.42.29-4.84.57-7.25.89-1.21.16-2.42.32-3.63.48-1.14.15-2.39.26-3.47.64-.49.17-.4.86.12.89,1.15.08,2.38-.15,3.51-.3,1.21-.17,2.42-.33,3.62-.5,2.41-.33,4.82-.7,7.23-1.06.58-.09.45-1.1-.14-1.03h0Z" style="fill: #D2B48c;"/>
      <path d="m188.62,15.61c-1.04-.44-2.13-.71-3.25-.85-.55-.07-1.09-.08-1.65-.05-.57.03-1.15.07-1.69.27-.4.15-.36.75.1.77.53.02,1.05-.05,1.58-.05.53,0,1.06.03,1.59.08,1.05.1,2.08.37,3.06.76.24.1.52-.1.59-.33.08-.27-.1-.49-.33-.59h0Z" style="fill: #D2B48c;"/>
      <path d="m149.49,21.98c-2.51.7-4.94,1.82-7.07,3.35-1.04.74-2.03,1.57-2.93,2.48-.46.47-.89.98-1.3,1.49-.37.47-.84,1.11-.94,1.71-.05.34.26.63.59.45.49-.27.93-.8,1.29-1.22.41-.48.84-.93,1.28-1.38.86-.88,1.77-1.7,2.76-2.44,2.01-1.49,4.21-2.67,6.6-3.43.64-.2.37-1.19-.28-1.01h0Z" style="fill: #D2B48c;"/>
      <path d="m144.83,22.26c-2.41.81-4.77,1.84-7,3.06-2.23,1.21-4.48,2.6-6.25,4.44-.46.48.16,1.38.74.96,2.01-1.44,3.89-3.03,6-4.34,2.13-1.33,4.39-2.41,6.75-3.27.52-.19.31-1.02-.23-.84h0Z" style="fill: #D2B48c;"/>
      <path d="m136.66,23.58c-1.28.95-2.57,1.9-3.85,2.84-.62.46-1.25.92-1.86,1.39-.32.24-.63.49-.95.73-.35.27-.62.54-.67.99-.02.17.15.4.32.42.78.11,1.45-.65,2.02-1.1.63-.49,1.25-1,1.87-1.5,1.24-1.01,2.47-2.02,3.71-3.03.41-.34-.14-1.07-.58-.75h0Z" style="fill: #D2B48c;"/>
      <path d="m131.86,22.69c-.93.52-1.86,1.04-2.79,1.56-.45.25-.9.5-1.35.75-.49.27-.94.57-1.39.89-.51.36-.08,1.1.49.84.5-.24.99-.47,1.47-.76.44-.26.88-.53,1.33-.79.91-.55,1.83-1.09,2.74-1.64.54-.32.06-1.16-.5-.85h0Z" style="fill: #D2B48c;"/>
      <path d="m84.11,58.46c-3.06,3.62-5.68,7.52-7.73,11.8-.99,2.07-1.83,4.21-2.54,6.39-.71,2.17-1.51,4.56-1.46,6.87,0,.4.63.64.82.22.83-1.95,1.22-4.09,1.86-6.11.71-2.27,1.58-4.49,2.56-6.66,1.9-4.2,4.31-8.24,7.17-11.86.37-.46-.27-1.13-.66-.66h0Z" style="fill: #D2B48c;"/>
      <path d="m80.35,59.43c-2.68,3.09-5.1,6.41-7.19,9.93-1.03,1.74-1.99,3.53-2.85,5.35-.82,1.74-1.83,3.68-2.03,5.61-.05.46.59.53.8.22,1.08-1.58,1.66-3.59,2.45-5.32.82-1.79,1.71-3.54,2.68-5.25,1.98-3.48,4.27-6.77,6.84-9.85.4-.48-.28-1.18-.7-.7h0Z" style="fill: #D2B48c;"/>
      <path d="m75.45,60.1c-2.22,2.4-4.16,5.05-5.75,7.91-1.55,2.77-3.09,5.93-3.63,9.08-.08.49.56.66.74.2.56-1.44,1-2.93,1.57-4.37.61-1.53,1.31-3.02,2.11-4.46,1.54-2.8,3.41-5.41,5.55-7.78.36-.39-.22-.98-.59-.59h0Z" style="fill: #D2B48c;"/>
      <path d="m68.4,60.97c-4.56,4.99-8.34,10.69-10.84,16.98-.09.22.28.38.39.16,2.93-5.99,6.52-11.65,10.98-16.63.31-.35-.2-.87-.52-.52h0Z" style="fill: #D2B48c;"/>
      <path d="m195.6,116.67c-8.87,2.77-17.69,5.61-26.73,7.77-4.44,1.06-8.9,2.02-13.4,2.85-4.63.85-9.31,1.5-13.91,2.47-.52.11-.41.96.13.94,4.6-.18,9.23-.95,13.75-1.77,4.65-.84,9.27-1.82,13.86-2.95,9.03-2.23,18.07-4.86,26.65-8.49.47-.2.13-.96-.34-.81h0Z" style="fill: #D2B48c;"/>
      <path d="m197.9,109.36c-6.1,4.19-13.27,6.7-20.37,8.6-7.15,1.91-14.51,3.11-21.77,4.56-.52.1-.41.99.13.94,7.55-.77,14.98-1.84,22.3-3.88,7.26-2.02,13.97-5.16,20.07-9.59.37-.27.02-.89-.36-.62h0Z" style="fill: #D2B48c;"/>
      <path d="m195.56,104.64c-9.63,3.87-19.57,6.81-29.52,9.71-.7.2-.41,1.23.3,1.08,10.23-2.07,20.07-5.7,29.59-9.92.49-.22.13-1.07-.37-.87h0Z" style="fill: #D2B48c;"/>
      <path d="m194.73,96.85c-9.69,5.05-20.34,8.33-30.99,10.63-.49.11-.39.95.12.89,5.56-.66,10.9-1.92,16.17-3.81,5.26-1.88,10.21-4.31,15.05-7.1.39-.23.05-.82-.35-.61h0Z" style="fill: #D2B48c;"/>
      <path d="m193.87,88.78c-4.77,2.88-9.86,5.28-15.09,7.21-5.18,1.91-10.49,3.03-15.83,4.34-.55.14-.45,1.06.14,1.01,5.54-.49,11.07-2.23,16.23-4.23,5.25-2.03,10.19-4.65,14.9-7.73.37-.24.03-.82-.35-.59h0Z" style="fill: #D2B48c;"/>
      <path d="m189.27,84.19c-4.87,1.89-9.89,3.48-14.95,4.8-2.5.66-5,1.28-7.53,1.81-2.6.54-5.25.88-7.83,1.52-.66.16-.53,1.24.16,1.2,2.55-.14,5.09-.71,7.58-1.25,2.68-.57,5.34-1.22,7.97-1.99,5.08-1.49,10-3.36,14.84-5.5.33-.15.09-.72-.25-.59h0Z" style="fill: #D2B48c;"/>
      <path d="m114.13,52.15c4.84,1.05,9.77,1.45,14.69,1.89,4.99.44,9.98.87,14.96,1.42,9.8,1.08,19.61,2.58,29.01,5.66,2.65.87,5.26,1.87,7.82,2.98,2.52,1.09,4.98,2.44,7.6,3.26.86.27,1.53-.9.88-1.51-3.53-3.34-8.64-5.2-13.14-6.81-4.67-1.67-9.47-2.92-14.33-3.9-9.9-1.99-19.98-2.85-30.03-3.64-5.74-.45-11.48-1.02-17.24-1.07-.98,0-1.23,1.52-.23,1.73h0Z" style="fill: #D2B48c;"/>
      <path d="m180.4,67.39c-2.06,1.23-4,2.61-5.82,4.18-.9.78-1.76,1.6-2.57,2.48-.4.44-.78.9-1.15,1.37-.36.47-.79.94-1.03,1.48-.12.28.17.74.49.49.45-.34.8-.8,1.18-1.21.4-.44.82-.86,1.23-1.3.8-.84,1.62-1.67,2.46-2.46,1.73-1.62,3.6-3.11,5.58-4.4.4-.26.04-.9-.38-.65h0Z" style="fill: #D2B48c;"/>
      <path d="m178.06,65.66c-3.82,1.42-7.53,3.83-9.65,7.39-.16.28.21.56.44.34,2.85-2.79,5.82-5.38,9.51-7.01.41-.18.12-.89-.31-.73h0Z" style="fill: #D2B48c;"/>
      <path d="m173.89,64.74c-1.33.77-2.67,1.54-3.99,2.34-1.32.8-2.58,1.69-3.86,2.55-.35.23-.04.77.33.57,1.35-.74,2.72-1.45,4.04-2.26,1.31-.81,2.61-1.64,3.91-2.47.46-.29.05-1-.43-.73h0Z" style="fill: #D2B48c;"/>
      <path d="m101.84,61.15c-2.55,2-4.77,4.4-6.58,7.08-1.79,2.64-3.32,5.67-3.92,8.82-.11.6.69.81.9.25,1.14-2.94,2.31-5.81,4.06-8.46,1.73-2.62,3.88-4.94,6.32-6.91.56-.45-.23-1.22-.78-.78h0Z" style="fill: #D2B48c;"/>
      <path d="m107.19,60.09c-3.1,2.75-5.85,5.87-8.16,9.31-1.14,1.7-2.17,3.48-3.07,5.31-.86,1.73-1.94,3.72-2.07,5.68-.03.41.52.48.71.19,1.1-1.61,1.63-3.65,2.48-5.41.86-1.8,1.83-3.54,2.9-5.22,2.18-3.42,4.78-6.56,7.74-9.33.35-.33-.17-.85-.53-.53h0Z" style="fill: #D2B48c;"/>
      <path d="m105.6,66.46c-1.72,1.96-3.33,4.02-4.81,6.18-.74,1.08-1.45,2.18-2.11,3.3-.33.56-.67,1.12-.96,1.71-.28.58-.65,1.18-.76,1.82-.07.4.41.77.73.43.8-.87,1.3-2.14,1.87-3.17.63-1.14,1.29-2.27,1.99-3.37,1.4-2.21,2.93-4.33,4.59-6.35.31-.37-.21-.92-.54-.54h0Z" style="fill: #D2B48c;"/>
      <path d="m107.19,68.83c-1.61,1.51-3.12,3.12-4.53,4.82-1.39,1.67-2.76,3.51-3.7,5.47-.24.51.44,1.17.85.65,1.34-1.7,2.55-3.5,3.9-5.2,1.35-1.71,2.81-3.33,4.36-4.86.57-.56-.29-1.42-.87-.87h0Z" style="fill: #D2B48c;"/>
      <path d="m111.21,104.64c-.01.55-.32,1.3-.4,1.86-.1.76-.08,1.56-.1,2.32-.03,1.35.01,2.7.01,4.05,0,2.68.26,5.38.66,8.03.39,2.59,1,5.14,1.99,7.56.47,1.15,1.01,2.28,1.66,3.35.59.98,1.22,2.17,2.4,2.47.38.1.78-.18.77-.59-.02-1.14-.84-1.98-1.41-2.91-.65-1.08-1.22-2.22-1.68-3.4-.91-2.31-1.52-4.74-1.93-7.19-.42-2.46-.59-4.95-.83-7.44-.13-1.31-.17-2.63-.29-3.94-.06-.66-.09-1.35-.19-2.01-.11-.72-.53-1.46-.59-2.17,0-.05-.08-.05-.08,0h0Z" style="fill: #D2B48c;"/>
      <path d="m119.55,113.65c-.04,3.58.24,7.14,1.04,10.64.39,1.73.87,3.45,1.43,5.13.52,1.56,1,3.58,2.11,4.81.5.56,1.62.14,1.55-.64-.15-1.6-1.11-3.21-1.64-4.73-.57-1.62-1.05-3.27-1.47-4.93-.83-3.37-1.49-6.82-1.82-10.28-.07-.76-1.19-.79-1.2,0h0Z" style="fill: #D2B48c;"/>
      <path d="m127.41,115.83c-.66,3.2-.86,6.41-.51,9.66.17,1.58.43,3.16.81,4.71.19.78.42,1.57.71,2.32.26.68.41,1.29,1.13,1.55.25.09.53-.06.66-.27.37-.59.12-1.14-.03-1.76-.18-.73-.37-1.46-.55-2.19-.37-1.54-.67-3.09-.86-4.67-.36-3.03-.42-6.14-.2-9.18.05-.66-1.03-.81-1.17-.16h0Z" style="fill: #D2B48c;"/>
      <path d="m134.66,115.39c.27,1.97.44,3.99.81,5.95.38,1.95.72,3.92,1.08,5.87.06.32.6.25.57-.08-.19-2.02-.37-4.04-.6-6.06-.22-1.99-.58-3.98-.87-5.96-.1-.66-1.08-.37-.99.27h0Z" style="fill: #D2B48c;"/>
      <path d="m122.36,81.25c-2.34,3.27-4.33,6.7-5.89,10.42-1.49,3.54-2.87,7.4-3.19,11.25-.04.43.62.49.74.1,1.08-3.71,1.89-7.44,3.34-11.05,1.46-3.64,3.29-7.19,5.45-10.46.19-.28-.25-.53-.45-.26h0Z" style="fill: #D2B48c;"/>
      <path d="m121.39,78.58c-3.59,2.95-6.67,6.57-8.81,10.71-1.04,2.02-1.89,4.15-2.51,6.33-.59,2.06-1.12,4.5-.77,6.64.07.41.64.33.75,0,.68-2,.93-4.18,1.5-6.23.6-2.19,1.43-4.3,2.46-6.33,2-3.97,4.69-7.54,8.08-10.42.49-.41-.21-1.09-.7-.7h0Z" style="fill: #D2B48c;"/>
      <path d="m117.08,78.22c-3.29,2.75-6.13,5.98-8.26,9.71-2.03,3.55-3.9,7.73-4.14,11.87-.04.66.91.72,1.1.15.64-1.88,1.13-3.82,1.81-5.69.71-1.97,1.6-3.88,2.64-5.7,2.03-3.56,4.53-6.86,7.53-9.66.46-.43-.21-1.08-.68-.68h0Z" style="fill: #D2B48c;"/>
      <path d="m110.14,80.12c-2.66,2.78-5.02,5.81-6.91,9.16-.92,1.63-1.74,3.31-2.47,5.04-.37.88-.72,1.77-1.02,2.68-.3.91-.69,1.89-.68,2.86,0,.7.93.93,1.3.35.46-.74.65-1.63.94-2.44.31-.86.62-1.73.96-2.58.68-1.74,1.48-3.44,2.37-5.08,1.77-3.27,3.86-6.38,6.32-9.17.47-.54-.29-1.32-.8-.8h0Z" style="fill: #D2B48c;"/>
      <path d="m103.77,81.73c-2.35,2.63-4.45,5.47-6.22,8.52-.87,1.5-1.68,3.04-2.38,4.62-.68,1.53-1.51,3.26-1.64,4.95-.04.57.73.69,1,.27.89-1.37,1.36-3.1,2.03-4.59.69-1.54,1.42-3.05,2.24-4.53,1.66-2.99,3.6-5.81,5.79-8.43.48-.57-.32-1.4-.83-.83h0Z" style="fill: #D2B48c;"/>
      <path d="m94.51,85.25c-2.2,2.12-4.17,4.46-5.85,7.01-.83,1.27-1.6,2.59-2.29,3.95-.67,1.32-1.37,2.81-1.67,4.26-.1.48.55.8.81.34.73-1.26,1.29-2.66,1.95-3.96.67-1.32,1.4-2.61,2.2-3.85,1.62-2.52,3.49-4.87,5.58-7.01.47-.48-.25-1.21-.74-.74h0Z" style="fill: #D2B48c;"/>
      <path d="m144.45,61.44c-3.96,2.92-7.61,6.23-10.87,9.91-3.23,3.65-6.26,7.72-8.17,12.22-.16.38.31.67.55.32,2.78-3.94,5.4-7.94,8.57-11.59,3.15-3.63,6.68-6.93,10.52-9.83.61-.46.02-1.5-.61-1.04h0Z" style="fill: #D2B48c;"/>
      <path d="m137.44,59.51c-6.81,5.46-12.91,11.9-17.47,19.37-.34.55.49,1,.85.5,5.07-7,10.71-13.56,17.33-19.16.5-.42-.21-1.1-.71-.71h0Z" style="fill: #D2B48c;"/>
      <path d="m127.76,62.36c-5.32,3.79-10.06,8.46-13.35,14.13-.27.46.4.82.7.41,3.81-5.08,8.07-9.86,13.13-13.73.47-.36.03-1.16-.47-.81h0Z" style="fill: #D2B48c;"/>
      <path d="m23.37,32.33c-3.9,1.72-7.41,4.28-10.15,7.55-1.33,1.59-2.52,3.3-3.48,5.14-.93,1.79-1.95,3.94-2.09,5.98-.04.55.78.76,1.03.28.46-.88.72-1.85,1.12-2.75.41-.91.85-1.81,1.33-2.69.96-1.78,2.09-3.48,3.39-5.04,2.61-3.1,5.78-5.69,9.41-7.51.65-.32.08-1.24-.56-.96h0Z" style="fill: #D2B48c;"/>
      <path d="m25.72,33.86c-3.58,2.59-6.82,5.56-9.61,8.99-1.34,1.65-2.57,3.41-3.67,5.23-1.18,1.95-2.06,3.92-2.82,6.07-.19.54.67.9.93.39,3.9-7.67,8.79-14.75,15.64-20.08.34-.26-.11-.86-.46-.6h0Z" style="fill: #D2B48c;"/>
      <path d="m30.59,36.34c-3.72,2.63-7.05,5.66-9.89,9.24-1.38,1.74-2.65,3.56-3.77,5.47-1.12,1.92-2.24,4.02-2.82,6.17-.15.56.65.91.94.4,1.06-1.87,1.93-3.85,3.01-5.72,1.08-1.87,2.26-3.68,3.58-5.39,2.68-3.5,5.88-6.72,9.42-9.35.48-.36.03-1.18-.48-.82h0Z" style="fill: #D2B48c;"/>
      <path d="m37.62,39.28c-5.04,2.68-9.46,6.39-12.98,10.89-3.41,4.37-6.32,9.58-7.1,15.14-.07.5.58.7.77.21,2.01-5.14,4.15-10.13,7.56-14.52,3.36-4.34,7.57-7.99,12.36-10.67.68-.38.08-1.4-.61-1.04h0Z" style="fill: #D2B48c;"/>
      <path d="m36.72,46.62c-2.76,2.63-5.22,5.51-7.31,8.7-1.02,1.56-2,3.17-2.8,4.85-.77,1.6-1.79,3.48-1.99,5.26-.07.62.79.71,1.08.29.5-.71.77-1.58,1.14-2.37.39-.85.81-1.68,1.24-2.51.83-1.62,1.69-3.21,2.66-4.76,1.96-3.11,4.22-6.04,6.77-8.69.5-.52-.27-1.28-.78-.78h0Z" style="fill: #D2B48c;"/>
      <path d="m40.96,48.47c-3.34,3.03-6.36,6.44-8.84,10.22-2.46,3.75-4.65,7.85-5.64,12.26-.11.49.62.87.86.36,1.85-3.99,3.55-8.02,5.9-11.75,2.38-3.8,5.15-7.32,8.36-10.44.42-.41-.21-1.03-.64-.64h0Z" style="fill: #D2B48c;"/>
      <path d="m42.99,53.11c-2.33,3.11-4.48,6.37-6.26,9.82-.86,1.67-1.66,3.38-2.39,5.11-.69,1.63-1.76,3.6-1.8,5.39-.02.73.91.87,1.28.35.51-.71.73-1.64,1.04-2.45.33-.88.66-1.76,1.01-2.64.72-1.79,1.52-3.55,2.39-5.27,1.69-3.37,3.56-6.63,5.72-9.72.43-.62-.56-1.17-1-.58h0Z" style="fill: #D2B48c;"/>
      <path d="m45.2,60.23c-1.27,2.73-2.37,5.54-3.28,8.41-.45,1.43-.86,2.88-1.22,4.34-.37,1.48-.55,2.93-.73,4.44-.06.55.84.66.97.13.34-1.41.73-2.8,1.07-4.21.34-1.41.72-2.81,1.14-4.2.86-2.82,1.91-5.59,3.13-8.28.33-.73-.74-1.36-1.08-.63h0Z" style="fill: #D2B48c;"/>
      <path d="m188.66,23.17c-4.74,1.29-9.38,3.04-13.97,4.8-4.46,1.71-9.11,3.39-13.21,5.86-.36.21-.13.81.29.69,4.6-1.43,9.02-3.57,13.5-5.34,4.52-1.79,9.11-3.35,13.64-5.12.54-.21.34-1.05-.24-.89h0Z" style="fill: #D2B48c;"/>
      <path d="m183.18,22.68c-4.47,1.47-8.95,2.91-13.42,4.4-2.19.73-4.39,1.46-6.58,2.2-2.1.71-4.5,1.32-6.4,2.48-.43.26-.3,1.1.28,1.03,2.14-.25,4.29-1.16,6.32-1.86,2.27-.79,4.53-1.58,6.79-2.38,4.45-1.57,8.88-3.18,13.32-4.77.68-.24.4-1.33-.3-1.1h0Z" style="fill: #D2B48c;"/>
      <path d="m181.58,20.34c-4.05.59-8.06,1.36-12.03,2.38-1.98.51-3.95,1.06-5.89,1.68-1.83.58-3.77,1.16-5.45,2.09-.53.3-.16,1.09.4.96,1.97-.45,3.89-1.28,5.81-1.92,1.87-.62,3.75-1.21,5.65-1.75,3.86-1.09,7.78-1.99,11.73-2.66.52-.09.29-.86-.22-.78h0Z" style="fill: #D2B48c;"/>
      <path d="m175.95,17.74c-3.05.69-6.11,1.38-9.16,2.09-3.04.71-6.15,1.3-9.12,2.24-.5.16-.29.85.21.77,3.08-.49,6.13-1.35,9.17-2.07,3.05-.73,6.08-1.48,9.13-2.23.52-.13.3-.92-.22-.8h0Z" style="fill: #D2B48c;"/>
      <path d="m66.04,24.35c-2.08.35-4.08.97-5.98,1.88-.92.44-1.8.94-2.66,1.5-.46.3-.89.62-1.31.96-.37.31-.86.66-.98,1.15-.07.31.15.67.5.65.49-.02.88-.36,1.27-.62.4-.27.79-.53,1.19-.8.84-.57,1.72-1.08,2.63-1.54,1.79-.9,3.68-1.61,5.62-2.1.71-.18.4-1.2-.3-1.08h0Z" style="fill: #D2B48c;"/>
      <path d="m74.52,26.06c-1.98.07-3.95.46-5.83,1.11-.93.32-1.85.71-2.73,1.15-.86.43-1.9.88-2.15,1.9-.08.32.15.56.45.59.97.1,1.74-.6,2.54-1.05.77-.43,1.56-.82,2.38-1.14,1.71-.68,3.51-1.11,5.34-1.34.76-.09.8-1.25,0-1.22h0Z" style="fill: #D2B48c;"/>
      <path d="m76.27,27.25c-2.59.56-5.09,1.28-7.6,2.12-1.21.4-2.4.87-3.58,1.37-.6.25-1.19.51-1.78.78-.55.25-1.23.53-1.48,1.11-.14.33-.05.76.35.86,1.08.27,2.42-.73,3.38-1.17,1.19-.55,2.4-1.06,3.62-1.56,2.38-.99,4.88-1.81,7.36-2.51.64-.18.37-1.13-.27-.99h0Z" style="fill: #D2B48c;"/>
      <path d="m81.03,29.87c-3.43.4-6.81.99-10.16,1.85-1.64.42-3.26.92-4.86,1.46-1.58.54-3.54,1.02-4.9,2.02-.76.56-.31,1.65.63,1.5,1.61-.27,3.22-1.17,4.76-1.73,1.59-.58,3.2-1.09,4.83-1.58,3.23-.97,6.54-1.74,9.86-2.31.68-.12.53-1.29-.16-1.21h0Z" style="fill: #D2B48c;"/>
      <path d="m87.29,31.5c-2.63.6-5.26,1.19-7.88,1.81-1.29.3-2.57.62-3.86.93-1.11.27-2.78.37-3.48,1.35-.21.29-.07.8.25.95,1.07.53,2.64-.19,3.74-.48,1.28-.33,2.56-.67,3.84-1.01,2.6-.7,5.19-1.44,7.79-2.15.9-.25.52-1.61-.39-1.4h0Z" style="fill: #D2B48c;"/>
      <path d="m92.8,33.2c-1.14.36-2.27.74-3.4,1.13-.55.19-1.11.39-1.66.59-.75.28-1.68.56-1.7,1.51.07-.18.15-.36.22-.54-.05.06-.1.12-.15.18-.26.33-.24.96.28,1.06.14.02.27.04.41.06-.18-.07-.36-.15-.54-.22.6.65,1.48.26,2.17,0,.55-.21,1.09-.44,1.64-.66,1.14-.47,2.28-.96,3.41-1.45.4-.18.53-.75.37-1.12-.17-.39-.63-.66-1.06-.52h0Z" style="fill: #D2B48c;"/>
      <path d="m99.32,36.06c-1.25.42-2.5.84-3.74,1.26-.6.2-1.2.4-1.8.62-.66.24-1.41.47-2,.84-.42.26-.61.78-.41,1.24.21.49.67.66,1.18.58.61-.1,1.23-.37,1.81-.59.62-.24,1.23-.49,1.84-.75,1.2-.5,2.4-1,3.6-1.49.44-.18.75-.59.62-1.09-.12-.44-.63-.77-1.09-.62h0Z" style="fill: #D2B48c;"/>
      <path d="m105.83,39.06c-1.98.49-3.97.9-5.97,1.32-.83.17-1.76.29-2.48.78-.42.29-.77.67-.92,1.17-.08.28-.09.6,0,.87.14.45.48.68.9.85-.15-.09-.3-.17-.45-.26.43.37.96.48,1.49.29.51-.18.97-.64.88-1.22-.1-.65-1-1.06-1.4-.39-.03.06-.06.12-.08.18-.06.33-.01.26.16-.2.05-.06.12-.1.2-.12-.07.02-.07.02,0,0,.08,0,.08-.01,0-.01-.1,0-.08,0,.06.01-.1-.03-.08-.02.06.03.22.28.29.34.21.2v1.02c.04-.05.32-.51.25-.57-.02.07-.06.14-.12.18.1-.09.09-.1,0-.02.26-.21.21-.15.53-.25.78-.23,1.57-.45,2.36-.67,1.61-.47,3.21-.93,4.84-1.34,1.2-.3.69-2.15-.51-1.85h0Z" style="fill: #D2B48c;"/>
      <path d="m110.45,40.75c-1.79.68-3.59,1.36-5.38,2.03-.87.33-1.73.66-2.6,1-.86.34-1.85.69-2.14,1.68-.11.38,0,.86.3,1.12.01.01.02.02.03.03-.1-.25-.21-.5-.31-.74-.05.81.63,1.49,1.44,1.5.83.01,1.5-.8,1.03-1.58-.26-.43-.87-.52-1.23-.16.34-.35,1,0,.83.52-.34.26-.68.52-1.01.77.33,0,.62-.11.86-.34.05-.05.1-.1.15-.16-.1.06-.08.05.04-.02.31-.16.63-.29.95-.42.88-.38,1.76-.77,2.63-1.16,1.72-.77,3.44-1.54,5.16-2.31.98-.44.28-2.14-.74-1.76h0Z" style="fill: #D2B48c;"/>
      <path d="m119.7,44.36c-4.61,1.22-9.31,2.23-13.84,3.75-1.04.35-1.24,1.71-.3,2.31,1.22.78,3.36.12,3.69-1.38.11-.5-.45-1.05-.93-.71-.31.21-.57.23-.88.35.22.08.27.08.15,0-.1-.08-.21-.13-.34-.16-.13-.07-.29-.19-.42-.28-.1.77-.2,1.54-.3,2.31,4.63-1.16,9.15-2.82,13.71-4.2,1.27-.38.74-2.33-.55-1.99h0Z" style="fill: #D2B48c;"/>
      <path d="m123.36,46.99c-2.01.62-4.02,1.23-6.03,1.82-.97.29-1.94.56-2.91.87-1.03.33-2.24.57-3.16,1.16-1.17.74-.44,2.73.97,2.3.37-.11.81-.19,1.14-.38.33-.19.58-.32.95-.44.72-.23,1.41-.5,2.1-.79.57-.23.57-1.2-.16-1.17-.77.03-1.53.08-2.29.18-.38.05-.67.06-1.04.02-.43-.05-.94.09-1.37.15.11.82.22,1.65.33,2.47,1.11-.08,2.2-.55,3.25-.9.96-.32,1.91-.67,2.87-1.02,1.98-.71,3.97-1.4,5.96-2.09,1.36-.47.81-2.62-.6-2.18h0Z" style="fill: #D2B48c;"/>
      <path d="m134.78,49.12c-2.83.25-5.58.7-8.32,1.46-1.34.37-2.66.8-3.95,1.31-1.16.46-3.03,1.02-3.5,2.28-.18.47.2,1.01.64,1.13.74.21,1.34-.18,2.02-.45.6-.24,1.18-.5,1.77-.76,1.22-.54,2.47-1.03,3.73-1.46,2.54-.86,5.18-1.52,7.83-1.89.92-.13.71-1.71-.22-1.63h0Z" style="fill: #D2B48c;"/>
      <path d="m193.16,58.73c-2.02-.1-3.96.27-5.8,1.13-.89.41-1.71.93-2.49,1.52-.73.57-1.96,1.45-1.95,2.47.04-.14.08-.28.11-.42-.15.34-.28.66-.17,1.03.07.23.27.38.51.39.93.02,1.68-.96,2.3-1.53.68-.63,1.43-1.17,2.24-1.62,1.59-.89,3.42-1.49,5.24-1.63.86-.07.87-1.3,0-1.34h0Z" style="fill: #D2B48c;"/>
      <path d="m195.94,60.29c-1.58-.03-3.13.28-4.58.9-.67.29-1.33.63-1.92,1.05-.59.42-1.78,1.21-1.68,2.04.04-.15.08-.29.12-.44-.21.42-.57.9-.43,1.4.06.2.23.31.43.33.45.03.82-.34,1.19-.53-.22.03-.45.06-.67.09.57.08.89-.11,1.31-.47.24-.21.46-.37.74-.56.57-.4,1.14-.77,1.77-1.07,1.13-.54,2.44-.91,3.72-.98,1.13-.06,1.14-1.75,0-1.77h0Z" style="fill: #D2B48c;"/>
      <path d="m202.17,61.02c-2.28.68-4.52,1.5-6.69,2.47-1.06.47-2.11,1-3.13,1.55-.51.28-1.02.55-1.51.88-.25.17-.51.32-.74.51-.27.23-.38.52-.51.85-.21.52.31,1,.78,1.03,1.12.06,2.23-.9,3.17-1.44.95-.54,1.91-1.05,2.89-1.53,2.02-.99,4.09-1.82,6.23-2.5,1.16-.36.67-2.17-.5-1.82h0Z" style="fill: #D2B48c;"/>
      <path d="m206.81,62.93c-2.48,1.04-4.98,2.01-7.44,3.09-1.19.52-2.39,1.04-3.58,1.57-.6.26-1.19.52-1.77.82-.65.33-1.35.57-1.73,1.23-.27.48-.04,1.21.54,1.33.73.15,1.27-.14,1.94-.4.66-.26,1.3-.55,1.93-.85,1.18-.55,2.35-1.11,3.53-1.66,2.43-1.15,4.82-2.38,7.24-3.56.85-.42.24-1.93-.66-1.56h0Z" style="fill: #D2B48c;"/>
      <path d="m207.4,67.4c-2.62,1.37-5.21,2.82-7.68,4.45-1.21.81-2.4,1.64-3.53,2.57-1.16.96-2.39,1.82-3.38,2.95-.54.61.14,1.61.9,1.17,1.25-.73,2.35-1.69,3.55-2.52,1.2-.83,2.38-1.68,3.57-2.52,2.39-1.68,4.82-3.3,7.35-4.77.86-.5.1-1.78-.77-1.32h0Z" style="fill: #D2B48c;"/>
    </g>
  </g>
</svg>