
<svg id="Layer_2" data-name="Layer 2" xmlns="http://www.w3.org/2000/svg" viewBox="0 0 162.96 158.38">
  <g id="_ÎÓÈ_1" data-name="—ÎÓÈ_1">
    <g>
      <path d="m71.48,4.21c-1.78-1.42-3.64-2.6-5.87-3.18-2.19-.57-4.49-.88-6.74-.99-4.64-.22-9.32.39-13.82,1.52-8.91,2.24-17.31,6.64-24.63,12.15-7.05,5.31-13.37,11.92-16.91,20.11C-.54,43.22-.5,53.54.73,63.54c1.28,10.34,3.03,20.72,5.23,30.91,2.1,9.74,4.95,19.38,9.41,28.33,3.9,7.81,9.06,15.16,15.57,21.03,6.79,6.12,14.98,10.45,23.86,12.63,18.3,4.49,37.79.52,55.48-4.75,2.22-.66,4.41-1.42,6.61-2.17,1.36-.46.81-2.41-.59-2.14-17.56,3.45-35.26,7.78-53.27,5.61-8.42-1.01-16.61-3.89-23.61-8.71-6.74-4.64-12.19-11.01-16.43-17.96-9.95-16.31-13.12-35.54-16.22-54.08-1.57-9.39-3.19-19.2-1.43-28.68,1.59-8.53,6.15-15.77,12.39-21.69,6.11-5.79,13.52-10.47,21.3-13.66,8.1-3.31,16.84-4.95,25.54-3.42,2.11.37,4.23.51,6.36.75.64.07,1.04-.91.54-1.31h0Z" style="fill: #D2B48c;"/>
      <path d="m160.69,88.95c-1.05,2.77-2.32,5.43-3.44,8.17-1.11,2.71-2.1,5.46-3.27,8.15-2.33,5.34-4.92,10.6-7.98,15.56-5.6,9.08-13.01,17.13-22.13,22.76-4.93,3.04-10.35,5.56-15.89,7.26-1.71.53-1.5,3.53.44,3.28,2.78-.36,5.47-.84,8.12-1.77,2.68-.93,5.24-2.03,7.71-3.43,4.88-2.76,9.36-6.22,13.34-10.16,8.39-8.29,14.66-18.64,18.92-29.59,1.22-3.13,2.31-6.32,3.24-9.55.98-3.4,1.46-6.89,2.07-10.37.13-.76-.87-1.03-1.15-.32h0Z" style="fill: #D2B48c;"/>
      <path d="m69.06,2.41c-.57,2.01-.4,4.34-.26,6.4.15,2.27.44,4.53.76,6.78.31,2.19.7,4.37,1.18,6.53.45,2.05.87,4.65,2.09,6.4.72,1.03,2.29.65,2.36-.64.11-2.09-.72-4.38-1.17-6.41-.46-2.08-.87-4.17-1.23-6.27-.36-2.12-.63-4.25-.88-6.38-.24-2.09-.32-4.41-1.03-6.4-.3-.84-1.54-.94-1.81,0h0Z" style="fill: #D2B48c;"/>
      <path d="m74.75,27.16c.32-2.03.88-3.99,1.33-5.99.43-1.88.71-3.79,1.15-5.68.43-1.89.91-3.76,1.46-5.61.54-1.79,1.84-4.09,1.04-5.91-.32-.73-1.31-.81-1.92-.5-1.66.81-2.11,3.82-2.59,5.46-.56,1.92-1.06,3.87-1.45,5.83-.38,1.96-.78,3.98-.89,5.98-.12,2.07.07,4.12.15,6.19.04.93,1.56,1.25,1.72.23h0Z" style="fill: #D2B48c;"/>
      <path d="m78.13,6.31c13.03,7.05,28.72,4.43,42.61,8.64,1.8.55,3.55,1.2,5.25,2,1.88.88,3.65,2.22,5.72,2.54,1.22.19,2.22-.92,1.61-2.09-1.61-3.08-6.05-4.62-9.15-5.73-3.39-1.21-6.92-1.97-10.47-2.52-7.41-1.14-14.91-1.5-22.33-2.55-4.11-.58-8.29-1.4-12.28-2.55-1.33-.38-2.2,1.58-.95,2.26h0Z" style="fill: #D2B48c;"/>
      <path d="m128.17,14.82c.58,2.63,1.28,5.19,2.38,7.66,1.09,2.44,2.48,4.75,4.02,6.93,3.15,4.47,6.79,8.54,10.3,12.72,3.42,4.08,6.69,8.32,9.12,13.07,2.72,5.32,4.2,11.3,4.4,17.26.23,6.83-1.37,13.32-3.41,19.78-.56,1.78,1.96,2.7,2.91,1.23,3.46-5.31,4.84-11.82,5.04-18.09.2-6.21-.83-12.56-3.17-18.32-4.32-10.66-12.69-18.83-19.93-27.53-1.88-2.26-3.68-4.61-5.31-7.06-1.71-2.57-3.44-5.26-4.53-8.15-.43-1.14-2.11-.71-1.84.51h0Z" style="fill: #D2B48c;"/>
      <path d="m88.71,21.28c2.08,3.22,3.41,7.01,4.35,10.72.92,3.64,1.37,7.4,1.17,11.15-.22,4.06-1.76,8.08-1.15,12.17.43,2.94,2.63,7.43,6.27,6.59.73-.17,1.24-1.21.76-1.86-.92-1.21-2.21-2.07-2.85-3.48-.69-1.53-.69-3.23-.52-4.86.4-3.85,1.21-7.51.97-11.42-.22-3.66-1.02-7.21-2.43-10.59-1.4-3.36-3.53-6.19-5.91-8.91-.31-.36-.92.11-.66.51h0Z" style="fill: #D2B48c;"/>
      <path d="m98.84,59.01c.39,4.12-2.79,7.43-4.86,10.67-1.98,3.11-3.39,6.63-4.36,10.18-2,7.32-2.15,15.13-.41,22.51.48,2.05,1.09,4.1,1.92,6.05.78,1.83,1.66,4.21,3.45,5.29.97.59,2.19-.17,2.21-1.27.03-1.74-1.04-3.47-1.63-5.07-.64-1.76-1.27-3.51-1.73-5.33-.89-3.45-1.32-7-1.32-10.56-.02-7.34,1.99-14.25,5.32-20.75,1.92-3.75,4.02-7.61,3.11-11.96-.2-.93-1.78-.74-1.69.23h0Z" style="fill: #D2B48c;"/>
      <path d="m72.4,35.73c-.17,4.95-.25,9.86-.11,14.81.07,2.47.14,4.94.25,7.41.05,1.15.11,2.29.26,3.43.16,1.17.17,2.6.84,3.59.48.71,1.62.84,2.08,0,.58-1.08.48-2.37.53-3.57.05-1.16,0-2.3-.07-3.46-.15-2.55-.33-5.1-.52-7.65-.37-4.96-.95-9.86-1.62-14.79-.13-.96-1.6-.67-1.63.22h0Z" style="fill: #D2B48c;"/>
      <path d="m70.65,15.88c.02,7.14.03,14.29.16,21.43.07,3.49.23,6.98.42,10.47.09,1.83.17,3.66.28,5.48.11,1.76.23,3.66,1.3,5.11.53.72,1.63.87,2.13,0,.9-1.57.87-3.34.77-5.11-.1-1.75-.23-3.49-.35-5.23-.24-3.57-.48-7.15-.84-10.72-.73-7.15-1.55-14.29-2.38-21.43-.11-.93-1.5-.99-1.5,0h0Z" style="fill: #D2B48c;"/>
      <path d="m73.87,57.27c-.66,1.56-1.44,3.03-1.91,4.66-.49,1.68-.93,3.38-1.37,5.08-.43,1.64-.78,3.29-1.13,4.95-.19.89-.24,1.73-.28,2.64-.04.94-.22,1.71.21,2.58.37.75,1.38.74,1.94.25.66-.58.77-1.43,1.07-2.22.31-.82.57-1.56.76-2.42.36-1.66.73-3.31,1.07-4.97.34-1.66.72-3.31,1.08-4.97.36-1.66.42-3.34.64-5.02.14-1.07-1.65-1.55-2.07-.56h0Z" style="fill: #D2B48c;"/>
      <path d="m70.35,75.4c-.09,2.53-.28,5.09-.23,7.62.05,2.6.41,5.2.79,7.77.37,2.52.84,5.03,1.43,7.51.53,2.24.9,5.15,2.91,6.56.54.38,1.18-.04,1.38-.56.82-2.2-.5-4.98-1.03-7.14-.57-2.31-1.08-4.65-1.52-6.99-.43-2.34-.73-4.7-1.1-7.05-.41-2.57-.87-5.11-1.05-7.72-.07-1-1.52-1.01-1.56,0h0Z" style="fill: #D2B48c;"/>
      <path d="m73.76,99.38c.36.43.72.86,1.07,1.3.31.39.53.84.8,1.27.61.96,1.32,1.75,2,2.75.63.92,1.21,1.86,1.83,2.79.31.47.62.93.95,1.38.44.6.8,1.26,1.49,1.59,1.08.52,2.14-.12,2.25-1.29.08-.77-.32-1.44-.65-2.11-.25-.51-.52-.98-.83-1.45-.69-1.07-1.48-2.05-2.31-3.02-.73-.85-1.47-1.78-2.34-2.49-.44-.36-.92-.65-1.35-1.01-.48-.4-.96-.79-1.45-1.17-1.05-.82-2.37.43-1.48,1.48h0Z" style="fill: #D2B48c;"/>
      <path d="m81.62,107.28c-2.14,1.03-4.3,1.99-6.4,3.11-1.04.56-2.08,1.12-3.08,1.75-.56.35-1.04.82-1.52,1.27-.59.54-1,1.32-.54,2.1.45.78,1.32.8,2.09.57.63-.2,1.28-.38,1.87-.69,1.04-.55,2.06-1.17,3.06-1.79,2.02-1.25,3.93-2.63,5.9-3.96,1.45-.99.21-3.1-1.37-2.35h0Z" style="fill: #D2B48c;"/>
      <path d="m70.24,116.79c2.39,3.64,6.68,5.4,10.95,4.58.98-.19,1.97-.81,2.76-1.41.73-.55,1.16-1.58.54-2.39-.52-.67-1.34-.7-2.09-.47-.23.07-.47.13-.71.18-.11.02-.22.04-.32.06-.06.01-.41.05-.15.03.26-.02-.09,0-.15,0-.23.02-.46.05-.69.09-.11.02-.21.05-.32.07-.06.01-.58.11-.3.06.27-.05-.08,0-.15.01-.11.01-.22.02-.33.03-.22.01-.44.02-.66.02-.5.01-.99-.02-1.48-.06-.29-.02.29.06,0,0-.14-.03-.27-.05-.41-.07-.27-.06-.54-.13-.81-.18-.04,0-.73-.19-.32-.06-.16-.05-.31-.09-.47-.15-.1-.04-.2-.07-.31-.11-.25-.09,0,0-.14-.06-.97-.44-1.77-.92-2.51-1.66-.95-.96-2.69.3-1.91,1.48h0Z" style="fill: #D2B48c;"/>
      <path d="m89.29,39.4c-3.2,3.18-5.15,7.26-5.61,11.75-.22,2.19-.08,4.45.39,6.6.24,1.07.62,2.11,1.04,3.13.39.92,1.22,2.32,2.26,2.54.68.15,1.26-.2,1.5-.85.3-.82-.19-2.03-.46-2.84-.3-.93-.6-1.83-.81-2.79-.42-1.86-.56-3.73-.43-5.63.26-3.8,1.47-7.58,3.71-10.68.69-.95-.8-2.02-1.6-1.23h0Z" style="fill: #D2B48c;"/>
      <path d="m85.92,15.67c-1.22,3.23-2.1,6.45-2.46,9.89-.17,1.63-.25,3.28-.24,4.92,0,.84.11,1.63.22,2.46.13.95.14,1.82.81,2.57.49.55,1.47.4,1.82-.23.41-.76.3-1.5.27-2.33-.02-.82,0-1.63-.04-2.46-.07-1.58-.05-3.16.05-4.74.2-3.2.61-6.45,1.41-9.56.31-1.21-1.41-1.64-1.84-.51h0Z" style="fill: #D2B48c;"/>
      <path d="m148.82,93.07c2.26,1.38,3.84,3.81,4.59,6.31.37,1.23.51,2.5.48,3.78-.01.67-.1,1.33-.19,1.99-.09.66-.37,1.28-.4,1.94-.03.55.7.82,1.07.44.98-1.01,1.28-2.84,1.37-4.19.1-1.52-.17-3.1-.66-4.53-1-2.91-3.01-5.23-5.74-6.63-.58-.3-1.07.53-.51.88h0Z" style="fill: #D2B48c;"/>
      <path d="m143.87,97.84c2.63,2.05,4.68,5.14,5.69,8.31.51,1.59.81,3.25.85,4.92.02.83,0,1.67-.09,2.5-.08.78-.33,1.74-.14,2.5.12.49.76.63,1.11.29.6-.59.85-1.72.98-2.53.15-.91.24-1.84.22-2.76-.04-1.9-.38-3.79-1.03-5.58-.64-1.75-1.5-3.38-2.64-4.85-1.2-1.55-2.59-2.69-4.23-3.73-.55-.35-1.24.51-.71.92h0Z" style="fill: #D2B48c;"/>
      <path d="m141.79,102.79c1.7,2.77,2.91,5.79,3.79,8.92.43,1.53.75,3.07,1.01,4.64.13.78.21,1.56.31,2.35.1.74.16,1.63.55,2.28.26.44.96.47,1.21,0,.72-1.34.32-3.33.13-4.77-.23-1.72-.62-3.42-1.14-5.07-1.03-3.27-2.64-6.29-4.57-9.11-.54-.8-1.83-.08-1.31.77h0Z" style="fill: #D2B48c;"/>
      <path d="m138.04,105.64c1.27,3.25,2.29,6.63,3.05,10.03.37,1.68.68,3.38.92,5.09.12.88.23,1.76.33,2.64.09.82.14,1.69.56,2.41.26.45,1.09.55,1.32,0,.65-1.51.19-3.49-.03-5.08-.26-1.83-.61-3.63-1.08-5.42-.93-3.54-2.24-6.9-3.91-10.15-.32-.63-1.42-.19-1.16.49h0Z" style="fill: #D2B48c;"/>
      <path d="m133.25,109.04c2.08,3.22,3.61,6.83,4.56,10.55.47,1.83.78,3.71.92,5.59.07.96.11,1.93.12,2.9.01.91-.11,1.8.29,2.64.32.67,1.25.53,1.61,0,.52-.79.46-1.9.47-2.83.02-1.03-.03-2.05-.14-3.08-.21-2.03-.61-4.04-1.19-5.99-1.16-3.89-3.11-7.39-5.66-10.54-.44-.54-1.35.16-.97.75h0Z" style="fill: #D2B48c;"/>
      <path d="m131.78,111.97c1.42,3.53,2.36,7.31,2.96,11.07.3,1.89.45,3.81.49,5.72.02.94.02,1.88,0,2.82-.03.93-.21,1.98.15,2.85.29.69,1.16.88,1.6.21.95-1.44.68-4.02.62-5.68-.07-2.05-.3-4.09-.66-6.11-.71-4.02-2.14-7.75-4.06-11.34-.31-.58-1.34-.18-1.09.46h0Z" style="fill: #D2B48c;"/>
      <path d="m126.98,112.94c1.89,3.84,3.1,8.02,3.74,12.24.32,2.09.44,4.2.42,6.31-.03,1.98-.62,4.23-.07,6.14.18.62.96.66,1.3.17,1.17-1.71,1.03-4.32,1.03-6.31,0-2.23-.22-4.47-.6-6.67-.77-4.45-2.46-8.63-4.8-12.48-.4-.66-1.36-.08-1.03.6h0Z" style="fill: #D2B48c;"/>
      <path d="m123.93,116.73c1.18,4.14,2,8.48,2.38,12.77.19,2.13.28,4.26.23,6.4-.02,1.07-.08,2.13-.12,3.2-.03.91-.19,1.84.33,2.63.25.38.76.46,1.09.14.74-.72.77-1.79.87-2.77.11-1.06.15-2.13.16-3.2.01-2.29-.12-4.59-.41-6.86-.58-4.46-1.76-8.6-3.58-12.72-.24-.55-1.12-.16-.96.4h0Z" style="fill: #D2B48c;"/>
      <path d="m119.63,116.82c1.61,4.51,2.76,9.24,3.34,14,.28,2.28.41,4.58.44,6.87.02,1.23,0,2.45-.04,3.68-.03,1.13-.17,2.3.07,3.41.13.6,1.1.77,1.37.18.93-2.07.77-4.81.78-7.03,0-2.47-.21-4.94-.54-7.39-.67-4.97-2.03-9.72-4-14.32-.35-.81-1.72-.23-1.43.6h0Z" style="fill: #D2B48c;"/>
      <path d="m111.57,118.69c2.41,4.18,4.15,8.84,5.14,13.56.5,2.35.79,4.75.9,7.16.05,1.14.05,2.28.02,3.42-.03,1.19-.25,2.44.04,3.6.14.58,1.03.72,1.31.17,1.04-2.01.77-5,.68-7.2-.1-2.52-.44-5.02-1-7.47-1.13-5-3.2-9.61-6.1-13.83-.42-.61-1.37-.07-1,.58h0Z" style="fill: #D2B48c;"/>
      <path d="m105.61,117.63c2.17,4.74,3.73,9.83,5.01,14.88.62,2.45,1.14,4.93,1.57,7.43.2,1.21.41,2.42.58,3.63.18,1.27.25,2.57.79,3.74.26.56,1.15.39,1.29-.17.29-1.19.09-2.41-.06-3.61-.16-1.31-.35-2.61-.59-3.91-.5-2.64-1.13-5.24-1.88-7.82-1.49-5.09-3.62-9.86-5.96-14.61-.25-.5-.97-.06-.74.43h0Z" style="fill: #D2B48c;"/>
      <path d="m102.23,120.76c1.74,5.01,2.98,10.22,3.86,15.44.44,2.6.74,5.22.95,7.85.22,2.63.11,5.36.53,7.97.14.87,1.62.87,1.76,0,.42-2.57.13-5.38-.09-7.97-.23-2.66-.6-5.32-1.08-7.94-.97-5.41-2.56-10.61-4.53-15.74-.33-.86-1.71-.51-1.4.39h0Z" style="fill: #D2B48c;"/>
      <path d="m98.22,121.57c.98,4.71,1.66,9.47,2.31,14.23.33,2.44.61,4.89.82,7.35.1,1.11.17,2.23.29,3.34.11,1.09.08,2.27.63,3.24.34.6,1.12.37,1.34-.18.44-1.07.22-2.41.15-3.54-.07-1.12-.21-2.23-.33-3.34-.27-2.39-.6-4.78-.97-7.16-.76-4.8-1.97-9.54-3.29-14.21-.17-.6-1.06-.35-.93.26h0Z" style="fill: #D2B48c;"/>
      <path d="m94.09,122.22c.29,4.61.52,9.23.77,13.84.12,2.31.26,4.61.41,6.92.14,2.14,0,4.6.64,6.66.24.77,1.57.92,1.72,0,.35-2.15-.09-4.5-.26-6.66-.17-2.31-.36-4.61-.55-6.92-.39-4.61-.8-9.22-1.15-13.84-.08-1-1.64-1.02-1.58,0h0Z" style="fill: #D2B48c;"/>
      <path d="m90.53,123.8c-.43,4.33-.75,8.67-.88,13.03-.06,2.13-.09,4.26-.07,6.4.01,1.97-.32,4.53.42,6.38.31.76,1.39.87,1.66,0,.57-1.85.1-4.21.05-6.13-.06-2.21-.1-4.43-.1-6.64-.01-4.34.05-8.69.25-13.03.04-.87-1.25-.84-1.33,0h0Z" style="fill: #D2B48c;"/>
      <path d="m85.65,124.64c-.46,4.56-1.01,9.08-1.25,13.65-.12,2.24-.21,4.47-.26,6.71-.02,1.16-.05,2.32-.02,3.48.03.98-.05,1.95.4,2.85.23.46,1,.47,1.23,0,.43-.9.35-1.86.37-2.85.03-1.16.01-2.32.01-3.48,0-2.24.02-4.48.06-6.71.09-4.54.1-9.12.42-13.65.04-.63-.91-.61-.97,0h0Z" style="fill: #D2B48c;"/>
      <path d="m83.09,125.14c-1.79,4.06-3.16,8.28-4.02,12.64-.42,2.16-.71,4.34-.88,6.53-.16,2.04-.45,4.23.45,6.14.2.43.77.24.91-.12.75-1.88.49-4.03.6-6.02.12-2.18.36-4.35.71-6.5.68-4.17,1.79-8.27,3.31-12.21.24-.62-.81-1.07-1.09-.46h0Z" style="fill: #D2B48c;"/>
      <path d="m77.93,125.98c-1.72,4.34-3.1,8.81-4.1,13.38-.5,2.28-.9,4.58-1.21,6.89-.29,2.12-.73,4.41-.35,6.54.15.85,1.38.73,1.6,0,.63-2.12.56-4.54.83-6.73.27-2.23.64-4.44,1.09-6.64.9-4.42,2.14-8.77,3.69-13.01.35-.97-1.17-1.36-1.54-.42h0Z" style="fill: #D2B48c;"/>
      <path d="m73.55,127.56c-2.02,3.81-3.87,7.75-5.15,11.88-.64,2.07-1.19,4.17-1.64,6.3-.4,1.87-1.16,4.3-.71,6.2.13.56.99.69,1.26.16.45-.9.5-1.92.66-2.9.17-1.07.35-2.14.56-3.21.39-1.99.86-3.96,1.42-5.91,1.18-4.12,2.56-8.18,4.44-12.04.27-.56-.54-1.04-.84-.49h0Z" style="fill: #D2B48c;"/>
      <path d="m69.26,124.41c-1.93,4.63-3.62,9.36-5.05,14.18-.71,2.4-1.36,4.83-1.93,7.27-.49,2.11-1.41,4.65-1.04,6.82.08.48.78.51,1,.13.58-.99.74-2.18.96-3.28.25-1.23.52-2.45.8-3.68.55-2.37,1.14-4.72,1.8-7.06,1.34-4.75,2.93-9.43,4.75-14.01.32-.81-.97-1.14-1.3-.36h0Z" style="fill: #D2B48c;"/>
      <path d="m63.06,129.12c-1.63,3.35-2.98,6.81-3.98,10.4-.51,1.83-.92,3.69-1.24,5.56-.28,1.69-.68,3.51-.43,5.21.07.52.81.42.95,0,.54-1.65.55-3.52.84-5.23.29-1.75.65-3.49,1.07-5.22.87-3.53,2.04-6.99,3.5-10.31.21-.48-.48-.9-.71-.42h0Z" style="fill: #D2B48c;"/>
      <path d="m59.04,127.5c-1.81,3.72-3.26,7.58-4.27,11.6-.49,1.98-.89,3.98-1.18,5.99-.15,1.01-.29,2.03-.36,3.05-.05.83-.19,1.69.39,2.33.16.18.43.15.6,0,.59-.53.56-1.38.65-2.13.11-1.01.19-2.03.31-3.04.24-1.95.58-3.89,1.02-5.81.89-3.92,2.14-7.78,3.75-11.46.27-.6-.6-1.14-.9-.53h0Z" style="fill: #D2B48c;"/>
      <path d="m50.35,133.27c-1.04,2.92-1.86,5.92-2.43,8.97-.27,1.46-.49,2.94-.66,4.42-.08.77-.16,1.54-.21,2.32-.04.7-.14,1.45.07,2.12.15.47.76.43.92,0,.24-.65.19-1.43.23-2.12.04-.77.09-1.55.15-2.32.13-1.5.32-2.99.57-4.47.5-2.95,1.25-5.85,2.21-8.69.18-.55-.67-.77-.86-.24h0Z" style="fill: #D2B48c;"/>
      <path d="m45.39,130.83c-.91,3.02-1.84,6.03-2.71,9.06-.42,1.46-.84,2.92-1.27,4.37-.23.79-.44,1.57-.65,2.36-.18.7-.41,1.33-.3,2.05.06.43.73.59.99.26.46-.56.58-1.22.79-1.9.23-.78.46-1.57.67-2.36.39-1.47.78-2.93,1.18-4.4.81-3.04,1.58-6.1,2.36-9.16.17-.68-.85-.96-1.05-.29h0Z" style="fill: #D2B48c;"/>
      <path d="m39.16,130.08c-.94,2.37-1.76,4.81-2.33,7.29-.28,1.22-.51,2.45-.7,3.69-.17,1.09-.56,2.6-.15,3.66.15.37.66.5.89.12.57-.96.5-2.36.64-3.45.16-1.27.38-2.53.64-3.79.51-2.46,1.13-4.88,1.97-7.25.22-.62-.73-.85-.96-.27h0Z" style="fill: #D2B48c;"/>
      <path d="m36.67,126.68c-1.35,2.29-2.42,4.74-3.13,7.3-.35,1.28-.61,2.58-.79,3.89-.16,1.19-.51,2.63.1,3.74.16.29.59.28.76,0,.59-1.03.42-2.4.54-3.55.13-1.26.36-2.5.65-3.73.58-2.5,1.47-4.92,2.66-7.19.27-.52-.48-.96-.78-.46h0Z" style="fill: #D2B48c;"/>
      <path d="m31.9,124.29c-1.47,2.06-2.55,4.39-3.18,6.85-.31,1.2-.52,2.44-.6,3.68-.07,1.2-.24,2.6.5,3.62.15.21.56.3.69,0,.47-1.09.25-2.23.31-3.39.06-1.19.2-2.37.47-3.53.53-2.37,1.49-4.6,2.84-6.62.43-.64-.59-1.21-1.03-.6h0Z" style="fill: #D2B48c;"/>
      <path d="m27.3,121.21c-1.22,1.96-2.14,4.1-2.71,6.34-.28,1.08-.5,2.2-.59,3.32-.09,1.1-.1,2.36.15,3.43.1.43.66.28.71-.1.14-1.1.17-2.23.28-3.33.11-1.06.27-2.11.53-3.14.52-2.13,1.36-4.15,2.48-6.03.32-.54-.51-1.02-.84-.49h0Z" style="fill: #D2B48c;"/>
      <path d="m94.77,93.64c6.91-.2,13.9.17,20.76,1.01,3.52.43,7.01,1.02,10.49,1.71,3.39.68,6.76,1.67,10.17,2.22.59.09,1.1-.77.45-1.06-3.18-1.41-6.74-2.2-10.13-2.94-3.39-.73-6.82-1.28-10.27-1.67-7.16-.82-14.29-.88-21.47-.32-.66.05-.68,1.07,0,1.05h0Z" style="fill: #D2B48c;"/>
      <path d="m93.96,90.24c6.29-.52,12.64-.61,18.93-.12,3.15.24,6.29.61,9.4,1.15,3.07.54,6.19,1.45,9.3,1.67.66.05.97-1,.35-1.28-2.83-1.26-6.11-1.72-9.15-2.18-3.13-.47-6.27-.85-9.42-1.07-6.48-.45-12.97-.32-19.41.47-.85.1-.89,1.43,0,1.36h0Z" style="fill: #D2B48c;"/>
      <path d="m91.54,85.11c7.51-.89,14.98-1.11,22.48.04,7.41,1.14,14.42,3.63,21.4,6.28.56.21.85-.63.39-.93-6.47-4.16-14.13-6.27-21.7-7.31-7.48-1.02-15.35-.92-22.7.92-.54.13-.44,1.07.13,1h0Z" style="fill: #D2B48c;"/>
      <path d="m96.49,80.47c5.08-.69,10.25-.85,15.37-.59,2.59.13,5.18.39,7.74.77,2.36.35,4.79.96,7.17,1.09.54.03.81-.83.29-1.06-2.27-1-5.01-1.42-7.46-1.77-2.57-.36-5.15-.58-7.74-.67-5.25-.18-10.47.29-15.64,1.24-.65.12-.36,1.06.27.98h0Z" style="fill: #D2B48c;"/>
      <path d="m103.54,74.64c5.59.62,11.16,1.65,16.64,2.92,5.38,1.26,10.64,3.03,16.03,4.23.48.11.83-.58.35-.83-5.03-2.58-10.64-3.97-16.16-5.09-5.57-1.13-11.18-1.76-16.86-2.06-.54-.03-.52.77,0,.83h0Z" style="fill: #D2B48c;"/>
      <path d="m114.7,71.13c3.35.98,6.68,1.98,10.05,2.91,1.65.46,3.3.89,4.96,1.32,1.65.43,3.29.87,5.01.81.4-.01.57-.56.21-.77-1.42-.83-2.99-1.22-4.58-1.61-1.72-.43-3.45-.84-5.19-1.24-3.41-.77-6.82-1.48-10.24-2.21-.51-.11-.72.64-.22.78h0Z" style="fill: #D2B48c;"/>
      <path d="m118.71,66.16c2.52.07,4.96.57,7.34,1.39,1.15.4,2.26.89,3.35,1.43,1.15.57,2.19,1.33,3.33,1.91.55.28,1.09-.39.66-.86-.87-.95-2.02-1.65-3.13-2.3-1.17-.69-2.41-1.23-3.68-1.69-2.51-.9-5.22-1.31-7.88-1.33-.94,0-.93,1.43,0,1.45h0Z" style="fill: #D2B48c;"/>
      <path d="m79.72,10.08c-1.82,3.69-3.22,7.57-4.43,11.5-.6,1.94-1.13,3.89-1.57,5.86-.45,2-1.01,4.11-.87,6.17.03.41.64.67.84.23.81-1.73,1.17-3.66,1.64-5.51.52-2.03,1.07-4.06,1.65-6.07,1.14-3.95,2.53-7.83,3.86-11.72.22-.65-.81-1.09-1.11-.47h0Z" style="fill: #D2B48c;"/>
      <path d="m83.55,12.35c-2.66,3.76-4.89,7.78-6.73,12.01-.88,2.02-1.71,4.09-2.35,6.2-.61,2-1.42,4.22-1.14,6.34.06.48.71.43.93.12,1.21-1.75,1.62-4.11,2.3-6.1.69-2.01,1.39-4.01,2.19-5.97,1.67-4.11,3.74-8.08,6.01-11.89.47-.78-.69-1.42-1.2-.7h0Z" style="fill: #D2B48c;"/>
      <path d="m84.57,16.48c-2.74,4.11-5.28,8.3-7.52,12.71-1.11,2.19-2.19,4.41-3.16,6.67-.87,2.04-2.05,4.25-2.18,6.49-.03.49.7.84,1.03.43,1.43-1.8,2.14-4.24,3.06-6.33.96-2.19,1.94-4.36,2.99-6.51,2.13-4.35,4.41-8.66,6.9-12.81.43-.72-.66-1.34-1.12-.65h0Z" style="fill: #D2B48c;"/>
      <path d="m84.49,22.02c-2.08,4.04-4.19,8.06-6.2,12.12-.99,2-2.02,3.99-2.93,6.02-.9,2-1.97,4.02-2.52,6.16-.14.53.61,1.07.99.58,2.68-3.44,4.39-7.79,6.3-11.69,2-4.09,3.89-8.22,5.83-12.34.46-.98-.96-1.84-1.47-.86h0Z" style="fill: #D2B48c;"/>
      <path d="m84.68,30.12c-2.39,3.95-4.7,7.94-6.87,12.02-1.06,2-2.09,4.03-3.08,6.07-.92,1.91-2.1,3.93-2.22,6.09-.03.48.6.69.92.38,1.55-1.49,2.33-3.68,3.25-5.59.98-2.05,1.98-4.09,2.98-6.13,2.01-4.08,4.05-8.14,6.2-12.15.42-.78-.73-1.45-1.19-.69h0Z" style="fill: #D2B48c;"/>
      <path d="m86.1,31.63c-2.17,4.48-4.31,8.97-6.37,13.51-1.03,2.27-2.08,4.53-3.08,6.82-.9,2.07-2.07,4.17-2.24,6.46-.03.46.59.69.89.37,1.62-1.71,2.42-4.1,3.37-6.23,1.01-2.28,1.99-4.58,2.98-6.88,1.94-4.49,3.79-9.02,5.62-13.56.27-.67-.86-1.15-1.17-.49h0Z" style="fill: #D2B48c;"/>
      <path d="m87.11,39.7c-1.88,4.26-3.84,8.48-5.9,12.66-1.03,2.09-2.12,4.16-3.21,6.22-1.02,1.91-2.53,3.93-3.04,6.04-.19.81.78,1.38,1.38.81,1.56-1.49,2.52-3.87,3.52-5.76,1.13-2.13,2.18-4.31,3.2-6.49,1.98-4.24,3.7-8.56,5.18-12.99.22-.66-.85-1.13-1.14-.48h0Z" style="fill: #D2B48c;"/>
      <path d="m84.38,50.73c-2.28,3.92-4.3,7.99-6.33,12.04-1,1.99-2.02,3.98-2.99,5.99-.95,1.98-2.18,3.98-2.49,6.18-.07.54.53,1.03.98.57,1.6-1.62,2.46-3.87,3.46-5.88,1-2,1.94-4.02,2.91-6.03,1.96-4.09,3.93-8.17,5.64-12.37.28-.69-.83-1.12-1.19-.5h0Z" style="fill: #D2B48c;"/>
      <path d="m83.74,59.58c-2.45,4.31-4.62,8.78-6.83,13.21-1.11,2.22-2.21,4.44-3.32,6.66-.51,1.04-1.03,2.07-1.54,3.12-.53,1.09-1.21,2.24-1.38,3.45-.11.75.74,1.44,1.37.8,1.59-1.62,2.44-4.24,3.43-6.26,1.13-2.3,2.25-4.61,3.37-6.92,2.17-4.46,4.38-8.89,6.3-13.46.34-.82-.99-1.34-1.41-.6h0Z" style="fill: #D2B48c;"/>
      <path d="m82.92,68.35c-2.06,3.43-4,6.92-5.81,10.5-.89,1.75-1.75,3.52-2.59,5.3-.4.85-.78,1.71-1.15,2.58-.37.88-.94,1.82-.93,2.79,0,.71.86,1.02,1.36.56.71-.65,1.01-1.71,1.42-2.57.4-.83.78-1.66,1.17-2.49.82-1.79,1.67-3.56,2.55-5.32,1.75-3.52,3.58-7.02,5.47-10.46.54-.98-.92-1.83-1.5-.88h0Z" style="fill: #D2B48c;"/>
      <path d="m81.76,76.17c-1.25,2.93-2.49,5.86-3.71,8.81-.6,1.46-1.21,2.93-1.81,4.39-.62,1.49-1.39,3.02-1.68,4.61-.17.94,1,1.48,1.56.66.88-1.31,1.39-2.92,1.97-4.39.58-1.47,1.17-2.94,1.75-4.41,1.19-2.99,2.35-5.99,3.5-8.99.35-.91-1.2-1.57-1.58-.67h0Z" style="fill: #D2B48c;"/>
      <path d="m81.14,86.62c-.96,2.2-1.92,4.4-2.87,6.61-.47,1.09-.94,2.18-1.37,3.28-.42,1.07-1.1,2.27-1.14,3.42-.02.67.87,1.04,1.33.55.77-.81,1.12-2.08,1.57-3.1.49-1.12.95-2.26,1.41-3.4.9-2.23,1.78-4.47,2.66-6.7.36-.91-1.2-1.58-1.6-.67h0Z" style="fill: #D2B48c;"/>
      <path d="m82.81,93.29c-.74,1.81-1.48,3.63-2.22,5.44-.36.89-.72,1.78-1.08,2.68-.31.78-1.04,2.02-.47,2.82.19.26.45.37.77.31.99-.19,1.32-1.69,1.64-2.49.35-.89.7-1.79,1.05-2.68.72-1.86,1.43-3.71,2.15-5.57.19-.48-.2-1.05-.67-1.17-.55-.15-.98.19-1.17.67h0Z" style="fill: #D2B48c;"/>
      <path d="m86.65,93.78c-.89,1.97-1.87,3.91-2.75,5.89-.43.98-.87,1.95-1.29,2.93-.22.49-.44.99-.6,1.51-.19.61-.17,1.06.11,1.63.12.24.46.37.71.29,1.14-.36,1.48-1.52,1.89-2.54.4-.99.8-1.98,1.2-2.97.81-2.01,1.53-4.05,2.32-6.07.36-.91-1.18-1.56-1.59-.67h0Z" style="fill: #D2B48c;"/>
      <path d="m88.24,98.54c-1.69,2.88-3.36,5.77-5.14,8.6-.87,1.39-1.74,2.79-2.64,4.17-.46.71-.91,1.42-1.34,2.16-.4.7-.96,1.34-1.15,2.14-.15.64.56,1.29,1.17.9.68-.44,1.07-1.12,1.57-1.74.53-.67,1.04-1.34,1.51-2.06.95-1.41,1.88-2.83,2.76-4.28,1.76-2.91,3.43-5.86,4.91-8.92.53-1.1-1.03-2.05-1.66-.97h0Z" style="fill: #D2B48c;"/>
      <path d="m89.52,104.19c-2.24,2.81-4.04,5.83-5.3,9.2-.29.77-.72,1.94-.16,2.69.68.91,1.66-.09,1.97-.79.37-.82.6-1.7.91-2.54.3-.81.63-1.6,1-2.39.84-1.8,1.74-3.56,2.84-5.21.49-.74-.68-1.68-1.25-.97h0Z" style="fill: #D2B48c;"/>
      <path d="m92.22,104.91c-.84,1.65-1.67,3.3-2.51,4.94-.42.82-.91,1.64-1.25,2.5-.32.83-.76,1.82-.77,2.71,0,.69.77.88,1.24.51.66-.51,1.17-1.44,1.61-2.15.48-.78.84-1.66,1.24-2.48.8-1.63,1.6-3.27,2.39-4.9.27-.55.15-1.22-.41-1.55-.5-.3-1.27-.14-1.55.41h0Z" style="fill: #D2B48c;"/>
      <path d="m94.97,39.42c-2.12,2.01-4.06,4.12-5.86,6.42-.89,1.13-1.76,2.28-2.55,3.48-.39.6-.78,1.2-1.16,1.81-.41.65-.71,1.16-.56,1.95.06.31.44.49.72.41.73-.2,1.05-.69,1.45-1.28.38-.56.76-1.12,1.16-1.67.83-1.17,1.65-2.34,2.5-3.49,1.68-2.27,3.44-4.5,5.25-6.67.55-.66-.31-1.56-.95-.95h0Z" style="fill: #D2B48c;"/>
      <path d="m95.12,44.34c-1.99,2.45-3.92,4.95-5.66,7.58-.85,1.29-1.68,2.59-2.48,3.91-.41.68-.8,1.38-1.17,2.08-.37.71-.8,1.34-.67,2.16.08.51.69.6,1.07.43.64-.28.94-1.03,1.3-1.61.42-.68.82-1.36,1.22-2.05.77-1.34,1.57-2.66,2.39-3.97,1.64-2.61,3.31-5.2,5.1-7.71.45-.64-.59-1.46-1.09-.84h0Z" style="fill: #D2B48c;"/>
      <path d="m92.89,52.94c-.53.88-1.03,1.8-1.64,2.63-.59.81-1.13,1.65-1.68,2.49-.54.84-1.06,1.69-1.59,2.54-.56.89-1.2,1.76-1.55,2.77-.36,1.03,1.09,1.82,1.81,1.05.72-.77,1.19-1.76,1.72-2.66.5-.86,1.02-1.72,1.51-2.59.49-.87.99-1.74,1.42-2.64.45-.92,1.04-1.79,1.57-2.67.61-1.01-.97-1.93-1.58-.92h0Z" style="fill: #D2B48c;"/>
      <path d="m95.53,58.68c-.71,1.22-1.44,2.44-2.13,3.68-.34.61-.67,1.22-.98,1.84-.15.3-.3.6-.45.9-.1.2-.23.41-.3.63-.06.2-.06.44-.08.65-.03.32.24.66.52.77.33.13.65.05.92-.17.58-.48.87-1.21,1.23-1.86.33-.59.63-1.19.93-1.79.62-1.26,1.2-2.52,1.8-3.79.19-.41.11-.91-.3-1.15-.39-.23-.92-.09-1.15.3h0Z" style="fill: #D2B48c;"/>
      <path d="m159.9,89.75c-2.22-2.03-5.02-3.48-7.73-4.74-1.34-.62-2.69-1.2-4.07-1.72-.74-.28-1.49-.55-2.24-.81s-1.54-.37-2.32-.54c-.62-.14-1.1.79-.46,1.09.69.32,1.34.72,2.04,1,.67.27,1.33.54,1.99.82,1.41.61,2.81,1.25,4.2,1.91,2.68,1.28,5.3,2.79,8.08,3.84.48.18.85-.52.49-.85h0Z" style="fill: #D2B48c;"/>
      <path d="m159.91,86.59c-1.99-1.74-4.13-3.21-6.53-4.31-2.31-1.05-4.97-2.05-7.54-2.06-.72,0-.82,1.01-.17,1.23,1.18.39,2.41.61,3.6.99,1.19.38,2.39.79,3.53,1.29,2.27.99,4.48,2.22,6.47,3.7.48.36,1.1-.44.64-.83h0Z" style="fill: #D2B48c;"/>
      <path d="m159.73,80.98c-2.55-1.53-5.17-2.91-7.89-4.12-2.62-1.17-5.46-2.39-8.32-2.8-.42-.06-.78.52-.32.76,2.54,1.29,5.33,2.17,7.96,3.27,2.73,1.14,5.42,2.41,8.04,3.8.59.31,1.11-.56.53-.9h0Z" style="fill: #D2B48c;"/>
      <path d="m162.75,75.69c-2.96-1.92-6.03-3.68-9.26-5.1-3.14-1.38-6.47-2.71-9.86-3.29-.64-.11-.89.75-.27.98,3.21,1.17,6.49,2.11,9.65,3.44,3.21,1.35,6.35,2.86,9.34,4.64.43.26.81-.4.39-.67h0Z" style="fill: #D2B48c;"/>
      <path d="m157.95,64.3c-4.92-1.93-9.9-3.56-15.07-4.7-2.53-.56-5.08-1.05-7.64-1.42-2.51-.36-5.2-.8-7.74-.65-.74.04-.98,1.17-.18,1.35,2.49.58,5.13.74,7.66,1.12,2.57.39,5.12.82,7.66,1.35,5.06,1.06,10.12,2.32,15.05,3.89.61.19.82-.71.26-.93h0Z" style="fill: #D2B48c;"/>
      <path d="m158.81,60.06c-5.42-1.59-10.92-2.85-16.47-3.88-5.42-1.01-10.95-1.87-16.46-2.12-.49-.02-.62.79-.12.87,5.48.9,11,1.59,16.47,2.54,5.48.96,10.94,2.12,16.37,3.35.5.11.71-.62.21-.77h0Z" style="fill: #D2B48c;"/>
      <path d="m158.78,57.03c-5.96-2.14-12.04-3.81-18.29-4.88-2.94-.5-5.92-.93-8.89-1.12-3.2-.21-6.5-.44-9.7-.18-.65.05-.65.96,0,1.02,3.07.26,6.16.24,9.23.59,3.15.36,6.3.67,9.44,1.18,6.07.99,12.11,2.4,17.96,4.28.58.19.81-.7.25-.9h0Z" style="fill: #D2B48c;"/>
      <path d="m150.86,51.21c-4.88-1.5-9.79-2.75-14.84-3.53-4.86-.76-10-1.47-14.92-1.1-.75.06-.74,1.08,0,1.16,5.01.53,10.03.61,15.03,1.33,4.88.7,9.76,1.63,14.51,2.91.5.13.7-.62.21-.77h0Z" style="fill: #D2B48c;"/>
      <path d="m117.11,40.35c-3.77-.37-7.51-.3-11.24.31-3.65.59-7.53,1.47-10.62,3.55-.43.29-.17,1,.36.86,3.51-.92,6.86-2.32,10.45-3.01,3.63-.71,7.37-.99,11.06-.8.59.03.57-.85,0-.91h0Z" style="fill: #D2B48c;"/>
      <path d="m116.3,36.86c-3.7.2-7.38.52-11.05,1.05-1.84.26-3.67.57-5.49.94-1.7.35-3.8.55-5.22,1.63-.27.2-.32.76.11.83,1.7.27,3.51-.38,5.16-.73,1.74-.37,3.49-.72,5.25-1.03,3.72-.66,7.48-1.18,11.24-1.48.75-.06.77-1.23,0-1.19h0Z" style="fill: #D2B48c;"/>
      <path d="m115.51,34.02c-3.19.1-6.39.35-9.56.74-1.48.18-2.95.38-4.42.61-.82.13-1.65.24-2.47.4-.74.15-1.55.25-2.2.65-.4.25-.41,1.03.15,1.11,1.35.19,2.88-.35,4.21-.62,1.57-.31,3.14-.6,4.72-.86,3.18-.52,6.36-.94,9.57-1.31.45-.05.47-.73,0-.72h0Z" style="fill: #D2B48c;"/>
      <path d="m113.91,31.52c-3.08-.16-6.17-.1-9.24.24-1.45.16-2.9.38-4.34.65-1.45.28-3.03.53-4.31,1.31-.4.24-.24.91.24.9,1.39-.02,2.76-.48,4.11-.78,1.48-.33,2.97-.61,4.46-.82,3.01-.42,6.04-.6,9.07-.52.64.02.63-.95,0-.98h0Z" style="fill: #D2B48c;"/>
      <path d="m120.45,28.17c-4.78-.69-9.6-1.04-14.43-.74-2.34.14-4.67.4-6.98.77-1.24.2-2.47.42-3.7.69-1.1.24-2.32.44-3.27,1.08-.49.33-.29,1.05.3,1.09,1.14.08,2.31-.32,3.42-.57,1.07-.24,2.14-.46,3.22-.66,2.4-.44,4.82-.74,7.25-.92,4.69-.35,9.4-.35,14.07.2.53.06.66-.86.13-.94h0Z" style="fill: #D2B48c;"/>
      <path d="m121.92,24.18c-5.63-.46-11.27-.62-16.92-.35-2.74.13-5.47.37-8.19.69-2.56.3-5.53.4-7.86,1.55-.41.2-.16.75.21.79,2.63.25,5.51-.59,8.13-.92,2.72-.34,5.45-.61,8.19-.8,5.47-.38,10.96-.49,16.43-.24.47.02.46-.68,0-.72h0Z" style="fill: #D2B48c;"/>
      <path d="m116.34,19.26c-4.7-.48-9.42-.59-14.14-.29-2.22.14-4.43.37-6.63.7-2.22.33-4.59.6-6.61,1.63-.38.19-.19.78.21.79,2.12.02,4.23-.59,6.31-.93,2.38-.39,4.78-.7,7.19-.9,4.55-.38,9.11-.39,13.66-.04.62.05.6-.89,0-.95h0Z" style="fill: #D2B48c;"/>
      <path d="m112.32,16.32c-4.63-.11-9.25.02-13.87.39-2.26.18-4.53.41-6.78.69-2.18.27-4.62.38-6.68,1.16-.67.26-.61,1.3.18,1.3,2.14.03,4.35-.58,6.47-.9,2.34-.35,4.7-.64,7.06-.88,4.53-.46,9.08-.75,13.63-.89.56-.02.56-.86,0-.88h0Z" style="fill: #D2B48c;"/>
      <path d="m105.15,14.35c-4.44-.45-8.85-.57-13.3-.18-2.13.19-4.26.45-6.37.83-2.03.36-4.28.67-6.06,1.78-.47.29-.27,1,.28,1.02,2.1.08,4.23-.62,6.28-.99,2.1-.38,4.22-.7,6.35-.91,4.25-.42,8.57-.57,12.83-.34.78.04.76-1.13,0-1.2h0Z" style="fill: #D2B48c;"/>
      <path d="m99.01,11.73c-3.11-.54-6.26-.76-9.41-.57-1.51.09-3.03.25-4.52.52-1.37.24-3.36.49-4.44,1.41-.41.35-.22,1.18.33,1.27.72.11,1.35-.09,2.05-.24.75-.16,1.51-.3,2.27-.44,1.48-.28,2.97-.5,4.47-.62,3.01-.24,6.05-.16,9.04.25.89.12,1.11-1.43.21-1.58h0Z" style="fill: #D2B48c;"/>
      <path d="m89.95,9.92c-2.69-.35-5.32-.39-8.02-.06-2.53.31-5.39.73-7.59,2.11-.71.45-.21,1.37.54,1.27,2.5-.34,4.92-1.27,7.43-1.66,2.5-.4,5.11-.56,7.65-.49.78.02.72-1.08,0-1.17h0Z" style="fill: #D2B48c;"/>
      <path d="m109.12,53.1c-2.63-.14-5.28.35-7.66,1.47-1.18.56-2.28,1.27-3.3,2.1-.51.42-.98.87-1.4,1.38-.41.5-.89,1.01-1.07,1.64-.12.41.38.84.76.58.47-.32.8-.79,1.2-1.2.43-.45.89-.88,1.35-1.29.91-.82,1.93-1.5,3.02-2.07,2.2-1.14,4.62-1.76,7.11-1.68.61.02.6-.9,0-.94h0Z" style="fill: #D2B48c;"/>
      <path d="m110.58,55.45c-2.74.65-5.39,1.55-7.94,2.73-1.26.59-2.48,1.26-3.67,1.98-.58.35-1.15.71-1.69,1.12-.53.4-1.24.82-1.53,1.44-.22.48.14.92.64.84.62-.1,1.17-.57,1.69-.89.57-.36,1.13-.73,1.7-1.09,1.15-.71,2.33-1.36,3.53-1.97,2.42-1.23,4.97-2.24,7.58-2.98.76-.22.44-1.36-.32-1.18h0Z" style="fill: #D2B48c;"/>
      <path d="m106.6,61.14c-2.71.53-5.37,1.43-7.78,2.77-1.18.65-2.31,1.39-3.38,2.21-1.05.8-2.23,1.87-2.91,3-.3.49.3,1.12.8.8.53-.33.97-.75,1.45-1.15.53-.44,1.1-.79,1.63-1.22,1.03-.82,2.13-1.55,3.26-2.2,2.29-1.32,4.7-2.36,7.26-3.03.78-.2.44-1.34-.33-1.19h0Z" style="fill: #D2B48c;"/>
      <path d="m74.38,114.36c-2.48,1.53-4.82,3.23-7.01,5.16-1.08.95-2.12,1.94-3.11,2.99-1.01,1.06-2.05,2.13-2.8,3.39-.43.71.52,1.36,1.1.85,1.05-.92,1.94-2.02,2.91-3.03.98-1,1.97-1.99,3.01-2.94,2.07-1.9,4.24-3.72,6.52-5.37.62-.45.07-1.47-.62-1.05h0Z" style="fill: #D2B48c;"/>
      <path d="m77.79,108.76c-3.51,1.19-6.79,2.87-9.87,4.95-1.49,1-2.94,2.08-4.3,3.25-1.4,1.21-2.88,2.51-3.89,4.07-.41.63.44,1.56,1.08,1.08,1.38-1.04,2.57-2.33,3.89-3.45,1.39-1.19,2.81-2.33,4.31-3.37,2.93-2.03,6.1-3.73,9.34-5.19.75-.34.22-1.59-.56-1.33h0Z" style="fill: #D2B48c;"/>
      <path d="m77.7,106.1c-3.96,1.26-7.72,2.91-11.21,5.18-1.66,1.08-3.35,2.26-4.81,3.6-.76.7-1.48,1.47-2.2,2.22-.71.75-1.5,1.51-1.99,2.43-.28.53.32,1.25.88.88,1.6-1.07,2.88-2.64,4.42-3.82,1.57-1.21,3.06-2.48,4.71-3.59,3.29-2.22,6.86-4.15,10.59-5.51.86-.31.51-1.67-.38-1.39h0Z" style="fill: #D2B48c;"/>
      <path d="m76.88,102.83c-4.53,1.3-8.84,3.13-12.94,5.45-2.04,1.16-4.01,2.43-5.9,3.82-1.75,1.28-3.85,2.71-5.1,4.5-.4.57.36,1.19.9.9.98-.54,1.82-1.36,2.7-2.04.85-.65,1.7-1.3,2.57-1.93,1.84-1.34,3.76-2.59,5.72-3.74,3.93-2.3,8.12-4.19,12.41-5.69.8-.28.48-1.52-.35-1.28h0Z" style="fill: #D2B48c;"/>
      <path d="m72.89,98.88c-4.53,1.44-8.91,3.19-13.08,5.46-2.06,1.11-4.06,2.32-5.99,3.63-1.93,1.31-4.03,2.75-5.57,4.52-.36.41.09,1.06.6.77,1.95-1.1,3.74-2.56,5.6-3.81,1.94-1.31,3.93-2.54,5.97-3.68,4.08-2.28,8.37-4.27,12.79-5.8.69-.24.4-1.32-.3-1.1h0Z" style="fill: #D2B48c;"/>
      <path d="m69.82,96.03c-5.18,1.42-10.14,3.56-14.78,6.27-4.58,2.68-9.16,5.87-12.48,10.06-.28.36.1,1.04.54.7,4.14-3.18,8.07-6.58,12.56-9.29,4.55-2.75,9.43-4.92,14.48-6.58.73-.24.43-1.37-.32-1.16h0Z" style="fill: #D2B48c;"/>
      <path d="m61.06,96.13c-3.98.96-7.81,2.41-11.41,4.36-1.79.97-3.53,2.06-5.19,3.24-1.57,1.12-3.24,2.35-4.4,3.91-.3.4.27.89.66.66,1.63-.97,3.08-2.3,4.62-3.4,1.61-1.16,3.29-2.22,5.03-3.18,3.47-1.92,7.17-3.45,10.97-4.57.66-.19.38-1.18-.28-1.02h0Z" style="fill: #D2B48c;"/>
      <path d="m54.68,93.77c-3.42,1.15-6.66,2.71-9.71,4.64-1.46.93-2.88,1.93-4.23,3.02-.73.59-1.44,1.19-2.12,1.84-.6.57-1.44,1.19-1.79,1.95-.22.49.23.94.72.72.69-.31,1.24-1.01,1.81-1.51.67-.58,1.34-1.16,2.03-1.72,1.36-1.12,2.78-2.18,4.25-3.15,2.92-1.92,6.05-3.56,9.29-4.88.54-.22.34-1.1-.25-.9h0Z" style="fill: #D2B48c;"/>
      <path d="m48.12,90.53c-1.89.85-3.72,1.82-5.47,2.93-1.71,1.08-3.5,2.25-4.9,3.73-.36.38.11,1.08.59.76,1.69-1.14,3.24-2.46,4.96-3.55,1.72-1.09,3.52-2.06,5.38-2.9.65-.29.09-1.25-.56-.96h0Z" style="fill: #D2B48c;"/>
      <path d="m13.75,84.34c-1.01,1.2-1.89,2.51-2.6,3.91-.67,1.35-1.32,2.91-1.41,4.43-.02.33.52.5.66.18.29-.67.48-1.37.75-2.05.27-.69.57-1.37.9-2.03.67-1.32,1.49-2.56,2.45-3.69.44-.52-.31-1.27-.75-.75h0Z" style="fill: #D2B48c;"/>
      <path d="m14.56,90.11c-1.36,1.77-2.47,3.73-3.39,5.77-.45,1-.85,2.01-1.17,3.06-.31,1.02-.73,2.19-.61,3.27.05.42.58.62.83.22.56-.89.78-2.03,1.12-3.02.35-1.01.73-2.01,1.14-3,.84-2,1.91-3.9,3.05-5.74.39-.63-.54-1.12-.97-.57h0Z" style="fill: #D2B48c;"/>
      <path d="m14.94,97.05c-.69,1.52-1.38,3.03-2.04,4.56-.32.75-.65,1.5-.97,2.25-.33.77-.71,1.58-.79,2.41-.05.52.71.81,1.04.43.53-.6.85-1.39,1.17-2.12.34-.78.68-1.55,1.02-2.33.67-1.53,1.31-3.08,1.95-4.63.32-.78-1.02-1.35-1.37-.58h0Z" style="fill: #D2B48c;"/>
      <path d="m15.94,102.91c-.7,2.03-1.36,4.07-2.02,6.11-.32.98-.64,1.96-.95,2.95-.31,1-.8,2.09-.81,3.15,0,.62.79.77,1.11.3.59-.87.79-2.07,1.1-3.06.31-.98.6-1.98.89-2.96.61-2.05,1.22-4.11,1.79-6.17.2-.72-.87-1-1.11-.31h0Z" style="fill: #D2B48c;"/>
      <path d="m18.46,113.33l-.4,2c-.13.67-.24,1.34-.33,2.01-.03.2.05.41.27.47.2.05.42-.07.47-.27.17-.66.33-1.31.47-1.98.13-.67.27-1.33.4-2,.05-.24-.07-.49-.32-.56-.22-.06-.51.08-.56.32h0Z" style="fill: #D2B48c;"/>
      <path d="m63.66,31.92c-7.25.69-14.49,2.65-21.32,5.11-6.85,2.47-13.71,5.55-19.7,9.73-.56.39-.08,1.26.54.93,6.44-3.46,12.86-6.83,19.74-9.36,6.8-2.5,13.76-4.1,20.85-5.54.49-.1.38-.92-.12-.87h0Z" style="fill: #D2B48c;"/>
      <path d="m67.58,28.79c-6.31.37-12.51,1.4-18.61,3.06-5.98,1.62-12.23,3.68-17.48,7.05-.42.27-.16,1.03.36.84,5.8-2.06,11.39-4.57,17.33-6.28,6-1.73,12.2-2.92,18.4-3.63.65-.07.69-1.09,0-1.05h0Z" style="fill: #D2B48c;"/>
      <path d="m66.03,25.41c-5,.5-9.99,1.3-14.85,2.57-4.77,1.25-9.84,2.77-14.12,5.28-.44.26-.15,1.01.36.84,2.32-.77,4.56-1.78,6.87-2.58,2.32-.8,4.64-1.6,7-2.28,4.84-1.38,9.75-2.41,14.74-2.98.54-.06.55-.91,0-.86h0Z" style="fill: #D2B48c;"/>
      <path d="m64.25,21.78c-4.41.74-8.79,1.7-13.12,2.82-4.14,1.08-8.58,2.12-12.44,4-.54.26-.15,1.05.39.93,2.17-.48,4.3-1.27,6.42-1.93,2.06-.64,4.13-1.24,6.21-1.82,4.23-1.18,8.51-2.18,12.8-3.09.6-.13.34-1-.25-.9h0Z" style="fill: #D2B48c;"/>
      <path d="m66.8,17.87c-3.26-.27-6.52-.15-9.75.34-1.61.24-3.2.61-4.76,1.06-1.41.41-3.18.82-4.34,1.75-.38.31-.07,1.03.41.99,1.44-.14,2.93-.89,4.33-1.3,1.51-.44,3.04-.79,4.59-1.06,3.15-.56,6.34-.73,9.53-.55.79.05.77-1.16,0-1.22h0Z" style="fill: #D2B48c;"/>
      <path d="m67.59,13.88c-2.71.25-5.42.47-8.13.72-1.36.13-2.71.24-4.07.38-1.28.13-2.66.21-3.86.71-.32.13-.43.69,0,.77,1.27.23,2.59.04,3.86-.1,1.36-.15,2.71-.33,4.07-.49,2.71-.33,5.42-.69,8.13-1.03.59-.07.62-1.01,0-.95h0Z" style="fill: #D2B48c;"/>
      <path d="m67.59,9.81c-2.3.13-4.62.08-6.92.32-2.24.24-4.52.22-6.75.58-.43.07-.3.7.1.72,2.26.11,4.53-.19,6.79-.18,2.26.01,4.53-.33,6.79-.45.63-.04.63-1.02,0-.98h0Z" style="fill: #D2B48c;"/>
      <path d="m26.67,15.67c-4.18,2.41-8.06,5.2-11.71,8.36-1.79,1.55-3.5,3.2-5.12,4.93-.82.87-1.6,1.76-2.34,2.7-.75.97-1.63,1.89-2.21,2.98-.32.59.41,1.1.9.69.88-.73,1.59-1.67,2.39-2.49.81-.82,1.61-1.65,2.42-2.48,1.65-1.7,3.36-3.34,5.11-4.93,3.49-3.18,7.25-6.11,11.14-8.78.59-.41.07-1.34-.57-.97h0Z" style="fill: #D2B48c;"/>
      <path d="m23.35,23.43c-3.86,1.78-7.37,4.18-10.48,7.08-1.54,1.44-2.95,3.02-4.24,4.68-1.25,1.62-2.57,3.4-3.27,5.34-.21.59.67,1.12,1.07.62,1.29-1.58,2.31-3.38,3.56-5,1.23-1.59,2.6-3.08,4.04-4.49,2.93-2.86,6.31-5.28,9.92-7.21.69-.37.08-1.36-.61-1.04h0Z" style="fill: #D2B48c;"/>
      <path d="m20,30.37c-3.5,1.93-6.73,4.43-9.56,7.25-1.38,1.38-2.67,2.85-3.87,4.4-1.25,1.62-2.25,3.28-3.03,5.18-.16.39.44.72.71.41,2.46-2.94,4.69-6.05,7.41-8.77,2.75-2.76,5.79-5.13,9.06-7.24.77-.49.09-1.67-.72-1.23h0Z" style="fill: #D2B48c;"/>
      <path d="m15.2,40.29c-2.39,1.99-4.65,4.13-6.74,6.43-1.03,1.13-1.98,2.31-2.91,3.52-.92,1.19-2.02,2.44-2.57,3.85-.24.62.62.99,1.04.61,1.08-.98,1.86-2.36,2.78-3.49.96-1.19,1.98-2.35,3-3.48,2.02-2.25,4.2-4.36,6.51-6.33.77-.65-.34-1.74-1.1-1.1h0Z" style="fill: #D2B48c;"/>
      <path d="m72.78,56.02c-2.21-1.02-4.5-1.77-6.9-2.18-1.16-.2-2.38-.36-3.56-.35-1.16,0-2.52.09-3.62.46-.56.19-.41.9.13.97,1.14.14,2.34.11,3.49.18,1.12.06,2.24.11,3.36.25,2.28.28,4.54.86,6.69,1.67.57.22.98-.74.42-1h0Z" style="fill: #D2B48c;"/>
      <path d="m71.27,60.72c-1.92-1.07-3.97-1.93-6.1-2.52-2.1-.58-4.37-.94-6.52-.46-.59.13-.57,1.03,0,1.18,1.97.51,4.02.67,6.01,1.13,2.01.46,3.95,1.13,5.8,2.05.91.45,1.71-.87.8-1.38h0Z" style="fill: #D2B48c;"/>
      <path d="m70.06,64.46c-2.28-.82-4.59-1.56-6.96-2.12-1.16-.27-2.32-.5-3.5-.69-1.15-.18-2.3-.4-3.4.12-.35.17-.25.62,0,.81.94.72,2.15.76,3.28.93,1.14.17,2.27.36,3.4.57,2.3.43,4.59.93,6.84,1.59.78.23,1.08-.94.33-1.21h0Z" style="fill: #D2B48c;"/>
      <path d="m67.6,67.16c-1.66-.04-3.32-.08-4.98-.13-.82-.02-1.67-.07-2.49-.02-.79.05-1.74-.04-2.45.33-.45.23-.45.95,0,1.19.72.37,1.66.28,2.45.33.82.05,1.67,0,2.49-.02,1.66-.04,3.32-.08,4.98-.13,1-.03,1-1.52,0-1.55h0Z" style="fill: #D2B48c;"/>
      <path d="m72.54,44.94c-4.55-.76-9.08-.95-13.67-.5-4.38.43-9.06,1.27-13.06,3.17-.6.29-.17,1.19.44,1.04,4.37-1.06,8.58-2.32,13.08-2.82,4.33-.49,8.77-.5,13.1-.08.46.05.57-.74.11-.81h0Z" style="fill: #D2B48c;"/>
      <path d="m70.79,39.55c-3.56.28-7.1.74-10.61,1.4-1.8.34-3.58.75-5.35,1.21-1.64.43-3.41.88-4.93,1.64-.3.15-.18.72.18.67,1.69-.22,3.4-.76,5.06-1.18,1.65-.42,3.3-.8,4.96-1.17,3.53-.78,7.1-1.4,10.69-1.86.44-.06.46-.74,0-.7h0Z" style="fill: #D2B48c;"/>
      <path d="m67.59,37c-5.71.37-11.55,1.45-16.76,3.88-.3.14-.09.63.22.53,5.43-1.73,10.84-3.19,16.54-3.63.5-.04.5-.81,0-.78h0Z" style="fill: #D2B48c;"/>
      <path d="m49.8,9.73c-6.06,2.3-12.29,4.38-18.17,7.13-.27.13-.08.57.2.49,6.17-1.89,12.16-4.52,18.17-6.86.46-.18.26-.93-.21-.75h0Z" style="fill: #D2B48c;"/>
      <path d="m71,86.35c-10.12-3.02-21.11-3.6-31.42-1.08-.39.1-.32.78.1.72,10.39-1.34,20.82-1.07,31.04,1.4.67.16.95-.84.29-1.04h0Z" style="fill: #D2B48c;"/>
      <path d="m69.98,82.9c-5.92-.76-11.82-1.29-17.8-1.34-5.77-.05-11.76-.06-17.45.99-.55.1-.41.97.13.97,5.86-.03,11.7-.59,17.57-.56,5.84.03,11.73.21,17.55.74.52.05.5-.73,0-.8h0Z" style="fill: #D2B48c;"/>
      <path d="m66.1,78.78c-6.01-.84-12.11-.99-18.16-.59-6.02.41-12.16,1.23-17.95,2.99-.4.12-.23.69.17.62,5.99-1.09,11.93-2.15,18.02-2.53,5.95-.38,11.89-.25,17.83.17.37.03.47-.61.09-.66h0Z" style="fill: #D2B48c;"/>
      <path d="m67.78,75.97c-7.07-1.11-14.2-1.62-21.36-1.44-7.08.17-14.35.87-21.21,2.7-.3.08-.25.61.08.57,6.96-.93,13.86-1.86,20.9-2.05,7.12-.2,14.28.2,21.33,1.19.63.09.9-.86.27-.96h0Z" style="fill: #D2B48c;"/>
      <path d="m48.44,72.45c-7.99-.07-16.28.26-24.08,2.09-.3.07-.24.59.07.55,8.02-.95,15.91-2.01,24.01-2.02.4,0,.4-.62,0-.62h0Z" style="fill: #D2B48c;"/>
      <path d="m45.87,64.08c-6.9,1.66-13.83,3.23-20.66,5.18-.34.1-.2.59.15.53,6.97-1.36,13.87-3.11,20.77-4.76.62-.15.35-1.1-.26-.95h0Z" style="fill: #D2B48c;"/>
      <path d="m30.46,99.96c-3.54,1.95-6.66,4.55-9.14,7.74-2.33,2.99-4.68,6.78-5.15,10.62-.07.59.89.84,1.14.31.8-1.73,1.39-3.54,2.24-5.25.83-1.67,1.82-3.27,2.95-4.76,2.32-3.06,5.23-5.72,8.52-7.7.6-.36.07-1.28-.55-.94h0Z" style="fill: #D2B48c;"/>
      <path d="m31.31,105.68c-2.7,1.9-5.04,4.12-7.01,6.77-.97,1.3-1.86,2.68-2.59,4.12-.74,1.48-1.48,3.08-1.78,4.71-.1.56.71,1.02,1,.42.66-1.39,1.16-2.84,1.86-4.21.72-1.41,1.5-2.79,2.41-4.09,1.81-2.6,4.07-4.98,6.6-6.88.49-.37.03-1.2-.49-.84h0Z" style="fill: #D2B48c;"/>
      <path d="m34.48,106.67c-2.79,3.06-5.31,6.35-7.49,9.87-1.07,1.73-2.09,3.51-2.97,5.35-.47.98-.9,1.97-1.32,2.96-.39.92-.87,1.87-1.04,2.86-.1.58.63.94.97.41.55-.84.87-1.84,1.29-2.76.4-.87.82-1.73,1.26-2.58.93-1.82,1.89-3.61,2.95-5.36,2.12-3.49,4.54-6.79,7.23-9.86.53-.6-.34-1.48-.88-.88h0Z" style="fill: #D2B48c;"/>
      <path d="m35.94,112.95c-2.22,2.75-4.29,5.61-6.18,8.6-.95,1.49-1.85,3.01-2.7,4.56-.83,1.51-1.75,3.13-2.23,4.79-.17.6.63.87.96.4.96-1.39,1.67-3.01,2.48-4.49.82-1.51,1.66-3,2.56-4.46,1.82-2.97,3.81-5.83,5.96-8.57.46-.59-.36-1.44-.84-.84h0Z" style="fill: #D2B48c;"/>
      <path d="m41.6,115.39c-2.03,2.45-3.88,5.02-5.54,7.73-.81,1.33-1.58,2.69-2.29,4.08-.73,1.43-1.49,2.89-1.94,4.43-.19.64.73,1.02,1.07.45.77-1.3,1.36-2.69,2.05-4.03.72-1.38,1.47-2.75,2.27-4.08,1.59-2.66,3.35-5.24,5.26-7.68.49-.63-.37-1.53-.89-.89h0Z" style="fill: #D2B48c;"/>
      <path d="m44.84,120.21c-2.26,2.89-4.17,5.98-5.73,9.3-1.5,3.21-2.92,6.73-3.3,10.28-.08.77,1.04.82,1.27.17,1.19-3.33,2.07-6.71,3.55-9.94,1.45-3.16,3.22-6.18,5.24-9.01.43-.6-.57-1.38-1.03-.8h0Z" style="fill: #D2B48c;"/>
      <path d="m51,125.04c-3.9,5.51-6.83,11.91-7.79,18.63-.07.48.61.71.75.21,1.8-6.47,4.28-12.65,8.08-18.23.44-.64-.6-1.23-1.04-.61h0Z" style="fill: #D2B48c;"/>
      <path d="m93.16,104.06c5.8.25,11.63,1.28,17.18,2.99,2.79.86,5.51,1.91,8.15,3.14,2.63,1.23,5.07,2.89,7.7,4.07.54.24,1.2-.42.68-.88-2.14-1.92-5.03-3.28-7.62-4.49-2.69-1.26-5.47-2.33-8.31-3.2-5.79-1.77-11.74-2.57-17.78-2.5-.57,0-.56.85,0,.88h0Z" style="fill: #D2B48c;"/>
      <path d="m93.95,110.73c4.87.14,9.81,1.05,14.45,2.54,4.7,1.5,9,3.75,13.38,5.99.34.18.76-.28.44-.56-7.6-6.53-18.47-8.94-28.26-8.77-.52,0-.52.8,0,.81h0Z" style="fill: #D2B48c;"/>
      <path d="m97.05,114.61c3.72.96,7.38,2.21,10.9,3.76,1.67.74,3.33,1.52,4.94,2.39,1.61.87,3.22,2.09,4.95,2.7.57.2.92-.56.55-.95-1.23-1.32-3.16-2.22-4.74-3.05-1.68-.88-3.39-1.69-5.15-2.4-3.64-1.46-7.4-2.49-11.26-3.13-.44-.07-.63.56-.19.68h0Z" style="fill: #D2B48c;"/>
      <path d="m94.48,117.1c2.55,1.57,5.04,3.22,7.52,4.9,2.46,1.66,4.87,3.48,7.45,4.96.48.28,1.03-.39.61-.79-2.18-2.02-4.73-3.71-7.21-5.34-2.53-1.67-5.14-3.23-7.76-4.75-.66-.39-1.25.62-.6,1.03h0Z" style="fill: #D2B48c;"/>
      <path d="m72,61.86c.74,6.03,1.77,12.02,2.7,18.02.47,3.01.94,6.02,1.41,9.04.47,3.04.78,6.27,1.72,9.21.19.6,1.13.51,1.12-.15-.02-2.91-.67-5.9-1.14-8.76-.5-3.09-1.01-6.17-1.51-9.26-1-6.09-1.9-12.2-3.08-18.26-.13-.67-1.3-.53-1.21.16h0Z" style="fill: #D2B48c;"/>
      <path d="m74.81,41.44c-.02,16.67,1.65,33.4,4.2,49.86.73,4.72,1.43,9.61,2.77,14.2.19.66,1.33.57,1.26-.17-.41-4.04-1.23-8.08-1.88-12.09-.68-4.2-1.31-8.41-1.86-12.64-1.07-8.28-1.9-16.6-2.46-24.93-.32-4.74-.57-9.48-.82-14.23-.04-.77-1.2-.78-1.2,0h0Z" style="fill: #D2B48c;"/>
      <path d="m75.39,19.18c1.3,21.58,3.57,43.11,6.73,64.5.9,6.06,1.79,12.17,3.16,18.14.13.56,1.09.46,1.03-.14-1.12-10.74-3.04-21.41-4.47-32.11-1.43-10.73-2.69-21.49-3.78-32.26-.61-6.04-1.24-12.08-1.78-18.13-.05-.56-.93-.58-.89,0h0Z" style="fill: #D2B48c;"/>
      <path d="m81.24,21.01c1.45,18.91,3,37.82,5.15,56.66.31,2.71.64,5.41.97,8.12.31,2.56.42,5.25,1.04,7.75.13.54.94.41.95-.13.03-2.36-.43-4.78-.67-7.13-.24-2.3-.48-4.59-.71-6.89-.48-4.68-1-9.35-1.5-14.03-.99-9.44-1.96-18.88-2.88-28.33-.52-5.34-1.05-10.68-1.53-16.03-.05-.53-.87-.53-.83,0h0Z" style="fill: #D2B48c;"/>
      <path d="m86.4,52.53c.7,8.08,1.17,16.28,2.53,24.27.1.59,1.05.44,1.03-.14-.23-8.05-1.39-16.13-2.28-24.13-.09-.81-1.35-.83-1.28,0h0Z" style="fill: #D2B48c;"/>
    </g>
  </g>
</svg>