<svg id="Layer_1" data-name="Layer 1" xmlns="http://www.w3.org/2000/svg" viewBox="0 0 2153.65 381.28">
  <defs>
    <style>
      .cls-1 {
        fill: none;
        stroke: #000;
        stroke-linecap: round;
        stroke-linejoin: round;
        stroke-width: 56.25px;
      }
    </style>
  </defs>
  <g id="STROKES">
    <path class="cls-1" d="m1477.69,145.79l-537.92-3.12c-46.04-.01-91.79-3.81-136.29-11.31l-126.6-21.23-207.03,4.54c-24.7.53-49.41-1.28-73.27-5.34l-73.69-12.65c-38.6-6.59-79.16-7.24-118.18-1.75l-23.72,3.33c-203.8-.06-203.85,176.78-.05,176.83l23.72,3.34c39.02,5.51,79.58,4.89,118.18-1.68l73.69-12.6c23.86-4.05,48.57-5.85,73.27-5.3l207.03,4.66,126.75-21.16c44.5-7.47,90.25-11.25,136.29-11.23l541.72,4.46c42.8,43.48,95.28,73.07,152.69,91.75,226.38,73.65,368.52-26.21,468.9-101.11,14.46-10.82,22.32-24.61,22.33-38.95,0-7.12-1.96-14.16-5.75-20.74-3.79-6.58-9.26-12.72-16.56-18.13-125.88-94.09-330.34-185.43-552.17-56.58l-73.35,53.96Z"/>
  </g>
</svg>